solid 2620
facet normal 0.987930953502655 -0.1305261999368668 -0.08339878916740417
  outer loop
    vertex 103.2962646484375 21.25567626953125 43.35966873168945
    vertex 106.3849334716797 20.48224830627441 81.15813446044922
    vertex 103.194465637207 20.47967720031738 43.36824035644531
  endloop
endfacet
facet normal 0.987930953502655 -0.1305261999368668 -0.08339878916740417
  outer loop
    vertex 106.3849334716797 20.48224830627441 81.15813446044922
    vertex 103.2962646484375 21.25567626953125 43.35966873168945
    vertex 106.4867401123047 21.25824737548828 81.14956665039063
  endloop
endfacet
facet normal -0.7905443906784058 0.6087614297866821 0.06670156121253967
  outer loop
    vertex 99.23502349853516 23.20824813842773 81.76165771484375
    vertex 96.66213226318359 24.01339340209961 43.91956329345703
    vertex 96.0445556640625 23.2056770324707 43.97175598144531
  endloop
endfacet
facet normal -0.7905443906784058 0.6087614297866821 0.06670156121253967
  outer loop
    vertex 96.66213226318359 24.01339340209961 43.91956329345703
    vertex 99.23502349853516 23.20824813842773 81.76165771484375
    vertex 99.85260772705078 24.01596450805664 81.70946502685547
  endloop
endfacet
facet normal -0.987930953502655 0.1305261850357056 0.08339878916740417
  outer loop
    vertex 98.71438598632813 21.25824737548828 81.80574035644531
    vertex 95.65632629394531 22.26506996154785 44.00459671020508
    vertex 95.52391815185547 21.25567626953125 44.01584625244141
  endloop
endfacet
facet normal -0.987930953502655 0.1305261850357056 0.08339878916740417
  outer loop
    vertex 95.65632629394531 22.26506996154785 44.00459671020508
    vertex 98.71438598632813 21.25824737548828 81.80574035644531
    vertex 98.8468017578125 22.26764297485352 81.79449462890625
  endloop
endfacet
facet normal -0.9206022024154663 -0.3826834261417389 0.07774937897920609
  outer loop
    vertex 99.23504638671875 19.30824851989746 81.76191711425781
    vertex 95.65634155273438 20.24628257751465 44.00473403930664
    vertex 96.04457092285156 19.30567741394043 43.97202301025391
  endloop
endfacet
facet normal -0.9206022024154663 -0.3826834261417389 0.07774937897920609
  outer loop
    vertex 95.65634155273438 20.24628257751465 44.00473403930664
    vertex 99.23504638671875 19.30824851989746 81.76191711425781
    vertex 98.84680938720703 20.24885368347168 81.79463195800781
  endloop
endfacet
facet normal -0.1300691366195679 0.9914448857307434 0.01091382559388876
  outer loop
    vertex 98.40425109863281 25.02278709411621 43.77241516113281
    vertex 102.6005401611328 25.15824890136719 81.47739410400391
    vertex 99.41006469726563 25.15567588806152 43.68749237060547
  endloop
endfacet
facet normal -0.1300691366195679 0.9914448857307434 0.01091382559388876
  outer loop
    vertex 102.6005401611328 25.15824890136719 81.47739410400391
    vertex 98.40425109863281 25.02278709411621 43.77241516113281
    vertex 101.5947265625 25.02535820007324 81.56231689453125
  endloop
endfacet
facet normal -0.9206065535545349 0.3826834261417389 0.07769765704870224
  outer loop
    vertex 98.8468017578125 22.26764297485352 81.79449462890625
    vertex 96.0445556640625 23.2056770324707 43.97175598144531
    vertex 95.65632629394531 22.26506996154785 44.00459671020508
  endloop
endfacet
facet normal -0.9206065535545349 0.3826834261417389 0.07769765704870224
  outer loop
    vertex 96.0445556640625 23.2056770324707 43.97175598144531
    vertex 98.8468017578125 22.26764297485352 81.79449462890625
    vertex 99.23502349853516 23.20824813842773 81.76165771484375
  endloop
endfacet
facet normal -0.9879294633865356 -0.1305261850357056 0.08341643214225769
  outer loop
    vertex 98.84680938720703 20.24885368347168 81.79463195800781
    vertex 95.62572479248047 20.47967720031738 44.00732803344727
    vertex 95.65634155273438 20.24628257751465 44.00473403930664
  endloop
endfacet
facet normal -0.9879294633865356 -0.1305261850357056 0.08341643214225769
  outer loop
    vertex 95.62572479248047 20.47967720031738 44.00732803344727
    vertex 98.84680938720703 20.24885368347168 81.79463195800781
    vertex 98.81619262695313 20.48224830627441 81.79722595214844
  endloop
endfacet
facet normal -0.3813215494155884 -0.9238795042037964 0.03225656598806381
  outer loop
    vertex 101.5947723388672 17.49113845825195 81.56282806396484
    vertex 97.46701812744141 17.87817764282227 43.85203170776367
    vertex 98.404296875 17.48856544494629 43.77293014526367
  endloop
endfacet
facet normal -0.3813215494155884 -0.9238795042037964 0.03225656598806381
  outer loop
    vertex 97.46701812744141 17.87817764282227 43.85203170776367
    vertex 101.5947723388672 17.49113845825195 81.56282806396484
    vertex 100.6574935913086 17.8807487487793 81.64192962646484
  endloop
endfacet
facet normal 0.3813320994377136 -0.9238795042037964 -0.03213170543313026
  outer loop
    vertex 104.5436706542969 17.8807487487793 81.3138427734375
    vertex 100.4159240722656 17.48856544494629 43.60309600830078
    vertex 101.3531951904297 17.87817764282227 43.52394104003906
  endloop
endfacet
facet normal 0.3813320994377136 -0.9238795042037964 -0.03213170543313026
  outer loop
    vertex 100.4159240722656 17.48856544494629 43.60309600830078
    vertex 104.5436706542969 17.8807487487793 81.3138427734375
    vertex 103.6063995361328 17.49113845825195 81.39299774169922
  endloop
endfacet
facet normal 0.7905443906784058 -0.6087614297866821 -0.06670156121253967
  outer loop
    vertex 102.7756271362305 19.30567741394043 43.40375518798828
    vertex 105.348518371582 18.50053215026855 81.245849609375
    vertex 102.1580429077148 18.49796104431152 43.45595169067383
  endloop
endfacet
facet normal 0.7905443906784058 -0.6087614297866821 -0.06670156121253967
  outer loop
    vertex 105.348518371582 18.50053215026855 81.245849609375
    vertex 102.7756271362305 19.30567741394043 43.40375518798828
    vertex 105.9661026000977 19.30824851989746 81.19365692138672
  endloop
endfacet
facet normal -0.9879294633865356 -0.1305261999368668 0.08341643214225769
  outer loop
    vertex 98.81619262695313 20.48224830627441 81.79722595214844
    vertex 95.52391815185547 21.25567626953125 44.01584625244141
    vertex 95.62572479248047 20.47967720031738 44.00732803344727
  endloop
endfacet
facet normal -0.9879294633865356 -0.1305261999368668 0.08341643214225769
  outer loop
    vertex 95.52391815185547 21.25567626953125 44.01584625244141
    vertex 98.81619262695313 20.48224830627441 81.79722595214844
    vertex 98.71438598632813 21.25824737548828 81.80574035644531
  endloop
endfacet
facet normal 0.9206065535545349 -0.3826834261417389 -0.07769765704870224
  outer loop
    vertex 103.1638488769531 20.24628257751465 43.37091827392578
    vertex 105.9661026000977 19.30824851989746 81.19365692138672
    vertex 102.7756271362305 19.30567741394043 43.40375518798828
  endloop
endfacet
facet normal 0.9206065535545349 -0.3826834261417389 -0.07769765704870224
  outer loop
    vertex 105.9661026000977 19.30824851989746 81.19365692138672
    vertex 103.1638488769531 20.24628257751465 43.37091827392578
    vertex 106.3543243408203 20.24885368347168 81.16081237792969
  endloop
endfacet
facet normal -0.3813320994377136 0.9238795042037964 0.03213170543313026
  outer loop
    vertex 97.46697998046875 24.63317489624023 43.85157012939453
    vertex 101.5947265625 25.02535820007324 81.56231689453125
    vertex 98.40425109863281 25.02278709411621 43.77241516113281
  endloop
endfacet
facet normal -0.3813320994377136 0.9238795042037964 0.03213170543313026
  outer loop
    vertex 101.5947265625 25.02535820007324 81.56231689453125
    vertex 97.46697998046875 24.63317489624023 43.85157012939453
    vertex 100.6574554443359 24.6357479095459 81.64147186279297
  endloop
endfacet
facet normal -0.790537416934967 -0.6087614297866821 0.0667838379740715
  outer loop
    vertex 99.85263824462891 18.50053215026855 81.7098388671875
    vertex 96.04457092285156 19.30567741394043 43.97202301025391
    vertex 96.66216278076172 18.49796104431152 43.91993713378906
  endloop
endfacet
facet normal -0.790537416934967 -0.6087614297866821 0.0667838379740715
  outer loop
    vertex 96.04457092285156 19.30567741394043 43.97202301025391
    vertex 99.85263824462891 18.50053215026855 81.7098388671875
    vertex 99.23504638671875 19.30824851989746 81.76191711425781
  endloop
endfacet
facet normal 0.9879294633865356 0.1305261850357056 -0.08341643214225769
  outer loop
    vertex 103.1638412475586 22.26506996154785 43.37078094482422
    vertex 106.4867401123047 21.25824737548828 81.14956665039063
    vertex 103.2962646484375 21.25567626953125 43.35966873168945
  endloop
endfacet
facet normal 0.9879294633865356 0.1305261850357056 -0.08341643214225769
  outer loop
    vertex 106.4867401123047 21.25824737548828 81.14956665039063
    vertex 103.1638412475586 22.26506996154785 43.37078094482422
    vertex 106.3543167114258 22.26764297485352 81.16067504882813
  endloop
endfacet
facet normal 0.1300691366195679 -0.9914448857307434 -0.01091382559388876
  outer loop
    vertex 103.6063995361328 17.49113845825195 81.39299774169922
    vertex 99.41011047363281 17.35567665100098 43.68802261352539
    vertex 100.4159240722656 17.48856544494629 43.60309600830078
  endloop
endfacet
facet normal 0.1300691366195679 -0.9914448857307434 -0.01091382559388876
  outer loop
    vertex 99.41011047363281 17.35567665100098 43.68802261352539
    vertex 103.6063995361328 17.49113845825195 81.39299774169922
    vertex 102.6005859375 17.35824775695801 81.47792053222656
  endloop
endfacet
facet normal 0.6066079139709473 -0.7933533191680908 -0.05115986615419388
  outer loop
    vertex 105.348518371582 18.50053215026855 81.245849609375
    vertex 101.3531951904297 17.87817764282227 43.52394104003906
    vertex 102.1580429077148 18.49796104431152 43.45595169067383
  endloop
endfacet
facet normal 0.6066079139709473 -0.7933533191680908 -0.05115986615419388
  outer loop
    vertex 101.3531951904297 17.87817764282227 43.52394104003906
    vertex 105.348518371582 18.50053215026855 81.245849609375
    vertex 104.5436706542969 17.8807487487793 81.3138427734375
  endloop
endfacet
facet normal 0.987930953502655 -0.1305261850357056 -0.08339878916740417
  outer loop
    vertex 103.194465637207 20.47967720031738 43.36824035644531
    vertex 106.3543243408203 20.24885368347168 81.16081237792969
    vertex 103.1638488769531 20.24628257751465 43.37091827392578
  endloop
endfacet
facet normal 0.987930953502655 -0.1305261850357056 -0.08339878916740417
  outer loop
    vertex 106.3543243408203 20.24885368347168 81.16081237792969
    vertex 103.194465637207 20.47967720031738 43.36824035644531
    vertex 106.3849334716797 20.48224830627441 81.15813446044922
  endloop
endfacet
facet normal 0.6065988540649414 0.7933533191680908 -0.05126708373427391
  outer loop
    vertex 101.353157043457 24.63317489624023 43.52348327636719
    vertex 105.3484878540039 24.01596450805664 81.24547576904297
    vertex 102.1580123901367 24.01339340209961 43.4555778503418
  endloop
endfacet
facet normal 0.6065988540649414 0.7933533191680908 -0.05126708373427391
  outer loop
    vertex 105.3484878540039 24.01596450805664 81.24547576904297
    vertex 101.353157043457 24.63317489624023 43.52348327636719
    vertex 104.5436325073242 24.6357479095459 81.31338500976563
  endloop
endfacet
facet normal 0.3813215494155884 0.9238795042037964 -0.03225656598806381
  outer loop
    vertex 100.415885925293 25.02278709411621 43.60258483886719
    vertex 104.5436325073242 24.6357479095459 81.31338500976563
    vertex 101.353157043457 24.63317489624023 43.52348327636719
  endloop
endfacet
facet normal 0.3813215494155884 0.9238795042037964 -0.03225656598806381
  outer loop
    vertex 104.5436325073242 24.6357479095459 81.31338500976563
    vertex 100.415885925293 25.02278709411621 43.60258483886719
    vertex 103.6063613891602 25.02535820007324 81.39248657226563
  endloop
endfacet
facet normal 0.1300578266382217 0.9914448857307434 -0.01104781497269869
  outer loop
    vertex 99.41006469726563 25.15567588806152 43.68749237060547
    vertex 103.6063613891602 25.02535820007324 81.39248657226563
    vertex 100.415885925293 25.02278709411621 43.60258483886719
  endloop
endfacet
facet normal 0.1300578266382217 0.9914448857307434 -0.01104781497269869
  outer loop
    vertex 103.6063613891602 25.02535820007324 81.39248657226563
    vertex 99.41006469726563 25.15567588806152 43.68749237060547
    vertex 102.6005401611328 25.15824890136719 81.47739410400391
  endloop
endfacet
facet normal 0.9206022024154663 0.3826834261417389 -0.07774937897920609
  outer loop
    vertex 102.7756042480469 23.2056770324707 43.40349197387695
    vertex 106.3543167114258 22.26764297485352 81.16067504882813
    vertex 103.1638412475586 22.26506996154785 43.37078094482422
  endloop
endfacet
facet normal 0.9206022024154663 0.3826834261417389 -0.07774937897920609
  outer loop
    vertex 106.3543167114258 22.26764297485352 81.16067504882813
    vertex 102.7756042480469 23.2056770324707 43.40349197387695
    vertex 105.9660797119141 23.20824813842773 81.19338989257813
  endloop
endfacet
facet normal -0.1300578266382217 -0.9914448857307434 0.01104781497269869
  outer loop
    vertex 102.6005859375 17.35824775695801 81.47792053222656
    vertex 98.404296875 17.48856544494629 43.77293014526367
    vertex 99.41011047363281 17.35567665100098 43.68802261352539
  endloop
endfacet
facet normal -0.1300578266382217 -0.9914448857307434 0.01104781497269869
  outer loop
    vertex 98.404296875 17.48856544494629 43.77293014526367
    vertex 102.6005859375 17.35824775695801 81.47792053222656
    vertex 101.5947723388672 17.49113845825195 81.56282806396484
  endloop
endfacet
facet normal -0.6065988540649414 -0.7933533191680908 0.05126708373427391
  outer loop
    vertex 100.6574935913086 17.8807487487793 81.64192962646484
    vertex 96.66216278076172 18.49796104431152 43.91993713378906
    vertex 97.46701812744141 17.87817764282227 43.85203170776367
  endloop
endfacet
facet normal -0.6065988540649414 -0.7933533191680908 0.05126708373427391
  outer loop
    vertex 96.66216278076172 18.49796104431152 43.91993713378906
    vertex 100.6574935913086 17.8807487487793 81.64192962646484
    vertex 99.85263824462891 18.50053215026855 81.7098388671875
  endloop
endfacet
facet normal 0.790537416934967 0.6087614297866821 -0.0667838379740715
  outer loop
    vertex 102.1580123901367 24.01339340209961 43.4555778503418
    vertex 105.9660797119141 23.20824813842773 81.19338989257813
    vertex 102.7756042480469 23.2056770324707 43.40349197387695
  endloop
endfacet
facet normal 0.790537416934967 0.6087614297866821 -0.0667838379740715
  outer loop
    vertex 105.9660797119141 23.20824813842773 81.19338989257813
    vertex 102.1580123901367 24.01339340209961 43.4555778503418
    vertex 105.3484878540039 24.01596450805664 81.24547576904297
  endloop
endfacet
facet normal -0.6066079139709473 0.7933533191680908 0.05115986615419388
  outer loop
    vertex 96.66213226318359 24.01339340209961 43.91956329345703
    vertex 100.6574554443359 24.6357479095459 81.64147186279297
    vertex 97.46697998046875 24.63317489624023 43.85157012939453
  endloop
endfacet
facet normal -0.6066079139709473 0.7933533191680908 0.05115986615419388
  outer loop
    vertex 100.6574554443359 24.6357479095459 81.64147186279297
    vertex 96.66213226318359 24.01339340209961 43.91956329345703
    vertex 99.85260772705078 24.01596450805664 81.70946502685547
  endloop
endfacet
facet normal 0.8335322141647339 0.5479657649993896 -0.07040960341691971
  outer loop
    vertex 101.7189483642578 26.43369483947754 39.98002243041992
    vertex 105.1803588867188 21.58222770690918 43.20056915283203
    vertex 104.8859100341797 21.58199119567871 39.71297836303711
  endloop
endfacet
facet normal 0.8335322141647339 0.5479657649993896 -0.07040960341691971
  outer loop
    vertex 105.1803588867188 21.58222770690918 43.20056915283203
    vertex 101.7189483642578 26.43369483947754 39.98002243041992
    vertex 102.0133972167969 26.43393135070801 43.46761703491211
  endloop
endfacet
facet normal -0.8335322141647339 -0.5479657649993896 0.07040960341691971
  outer loop
    vertex 96.80678558349609 16.07742118835449 43.90789794921875
    vertex 93.34537506103516 20.92888832092285 40.68735122680664
    vertex 96.51233673095703 16.07718467712402 40.42030715942383
  endloop
endfacet
facet normal -0.8335322141647339 -0.5479657649993896 0.07040960341691971
  outer loop
    vertex 93.34537506103516 20.92888832092285 40.68735122680664
    vertex 96.80678558349609 16.07742118835449 43.90789794921875
    vertex 93.63982391357422 20.92912483215332 44.17494201660156
  endloop
endfacet
facet normal 0.0561080276966095 -0.9984138011932373 -0.004669065121561289
  outer loop
    vertex 102.5770492553711 16.40397262573242 43.42071151733398
    vertex 96.51233673095703 16.07718467712402 40.42030715942383
    vertex 102.2826080322266 16.40373611450195 39.93312072753906
  endloop
endfacet
facet normal 0.0561080276966095 -0.9984138011932373 -0.004669065121561289
  outer loop
    vertex 96.51233673095703 16.07718467712402 40.42030715942383
    vertex 102.5770492553711 16.40397262573242 43.42071151733398
    vertex 96.80678558349609 16.07742118835449 43.90789794921875
  endloop
endfacet
facet normal 0.08412732928991318 6.781287083867937e-05 0.9964550137519836
  outer loop
    vertex 93.63982391357422 20.92912483215332 44.17494201660156
    vertex 95.65634155273438 20.24628257751465 44.00473403930664
    vertex 95.52391815185547 21.25567626953125 44.01584625244141
  endloop
endfacet
facet normal 0.08412732928991318 6.781287083867937e-05 0.9964550137519836
  outer loop
    vertex 95.65634155273438 20.24628257751465 44.00473403930664
    vertex 93.63982391357422 20.92912483215332 44.17494201660156
    vertex 96.80678558349609 16.07742118835449 43.90789794921875
  endloop
endfacet
facet normal 0.08412732928991318 6.781287083867937e-05 0.9964550137519836
  outer loop
    vertex 95.52391815185547 21.25567626953125 44.01584625244141
    vertex 95.65634155273438 20.24628257751465 44.00473403930664
    vertex 95.62572479248047 20.47967720031738 44.00732803344727
  endloop
endfacet
facet normal 0.08412732928991318 6.781287083867937e-05 0.9964550137519836
  outer loop
    vertex 95.65634155273438 20.24628257751465 44.00473403930664
    vertex 96.80678558349609 16.07742118835449 43.90789794921875
    vertex 96.04457092285156 19.30567741394043 43.97202301025391
  endloop
endfacet
facet normal 0.08412732928991318 6.781287083867937e-05 0.9964550137519836
  outer loop
    vertex 96.04457092285156 19.30567741394043 43.97202301025391
    vertex 96.80678558349609 16.07742118835449 43.90789794921875
    vertex 96.66216278076172 18.49796104431152 43.91993713378906
  endloop
endfacet
facet normal 0.08412732928991318 6.781287083867937e-05 0.9964550137519836
  outer loop
    vertex 96.66216278076172 18.49796104431152 43.91993713378906
    vertex 96.80678558349609 16.07742118835449 43.90789794921875
    vertex 97.46701812744141 17.87817764282227 43.85203170776367
  endloop
endfacet
facet normal 0.08412732928991318 6.781287083867937e-05 0.9964550137519836
  outer loop
    vertex 97.46701812744141 17.87817764282227 43.85203170776367
    vertex 96.80678558349609 16.07742118835449 43.90789794921875
    vertex 98.404296875 17.48856544494629 43.77293014526367
  endloop
endfacet
facet normal 0.08412732928991318 6.781287083867937e-05 0.9964550137519836
  outer loop
    vertex 98.404296875 17.48856544494629 43.77293014526367
    vertex 96.80678558349609 16.07742118835449 43.90789794921875
    vertex 102.5770492553711 16.40397262573242 43.42071151733398
  endloop
endfacet
facet normal 0.08412732928991318 6.781287083867937e-05 0.9964550137519836
  outer loop
    vertex 98.404296875 17.48856544494629 43.77293014526367
    vertex 102.5770492553711 16.40397262573242 43.42071151733398
    vertex 99.41011047363281 17.35567665100098 43.68802261352539
  endloop
endfacet
facet normal 0.08412732928991318 6.781287083867937e-05 0.9964550137519836
  outer loop
    vertex 99.41011047363281 17.35567665100098 43.68802261352539
    vertex 102.5770492553711 16.40397262573242 43.42071151733398
    vertex 100.4159240722656 17.48856544494629 43.60309600830078
  endloop
endfacet
facet normal 0.08412732928991318 6.781287083867937e-05 0.9964550137519836
  outer loop
    vertex 100.4159240722656 17.48856544494629 43.60309600830078
    vertex 102.5770492553711 16.40397262573242 43.42071151733398
    vertex 101.3531951904297 17.87817764282227 43.52394104003906
  endloop
endfacet
facet normal 0.08412732928991318 6.781287083867937e-05 0.9964550137519836
  outer loop
    vertex 101.3531951904297 17.87817764282227 43.52394104003906
    vertex 102.5770492553711 16.40397262573242 43.42071151733398
    vertex 102.1580429077148 18.49796104431152 43.45595169067383
  endloop
endfacet
facet normal 0.08412732928991318 6.781287083867937e-05 0.9964550137519836
  outer loop
    vertex 102.1580429077148 18.49796104431152 43.45595169067383
    vertex 102.5770492553711 16.40397262573242 43.42071151733398
    vertex 102.7756271362305 19.30567741394043 43.40375518798828
  endloop
endfacet
facet normal 0.08412732928991318 6.781287083867937e-05 0.9964550137519836
  outer loop
    vertex 102.7756271362305 19.30567741394043 43.40375518798828
    vertex 102.5770492553711 16.40397262573242 43.42071151733398
    vertex 105.1803588867188 21.58222770690918 43.20056915283203
  endloop
endfacet
facet normal 0.08412732928991318 6.781287083867937e-05 0.9964550137519836
  outer loop
    vertex 102.7756271362305 19.30567741394043 43.40375518798828
    vertex 105.1803588867188 21.58222770690918 43.20056915283203
    vertex 103.1638488769531 20.24628257751465 43.37091827392578
  endloop
endfacet
facet normal 0.08412732928991318 6.781287083867937e-05 0.9964550137519836
  outer loop
    vertex 103.1638488769531 20.24628257751465 43.37091827392578
    vertex 105.1803588867188 21.58222770690918 43.20056915283203
    vertex 103.194465637207 20.47967720031738 43.36824035644531
  endloop
endfacet
facet normal 0.08412732928991318 6.781287083867937e-05 0.9964550137519836
  outer loop
    vertex 103.194465637207 20.47967720031738 43.36824035644531
    vertex 105.1803588867188 21.58222770690918 43.20056915283203
    vertex 103.2962646484375 21.25567626953125 43.35966873168945
  endloop
endfacet
facet normal 0.08412732928991318 6.781287083867937e-05 0.9964550137519836
  outer loop
    vertex 93.63982391357422 20.92912483215332 44.17494201660156
    vertex 95.65632629394531 22.26506996154785 44.00459671020508
    vertex 96.24312591552734 26.10737991333008 43.95480346679688
  endloop
endfacet
facet normal 0.08412732928991318 6.781287083867937e-05 0.9964550137519836
  outer loop
    vertex 95.65632629394531 22.26506996154785 44.00459671020508
    vertex 93.63982391357422 20.92912483215332 44.17494201660156
    vertex 95.52391815185547 21.25567626953125 44.01584625244141
  endloop
endfacet
facet normal 0.08412732928991318 6.781287083867937e-05 0.9964550137519836
  outer loop
    vertex 96.24312591552734 26.10737991333008 43.95480346679688
    vertex 95.65632629394531 22.26506996154785 44.00459671020508
    vertex 96.0445556640625 23.2056770324707 43.97175598144531
  endloop
endfacet
facet normal 0.08412732928991318 6.781287083867937e-05 0.9964550137519836
  outer loop
    vertex 96.24312591552734 26.10737991333008 43.95480346679688
    vertex 96.0445556640625 23.2056770324707 43.97175598144531
    vertex 96.66213226318359 24.01339340209961 43.91956329345703
  endloop
endfacet
facet normal 0.08412732928991318 6.781287083867937e-05 0.9964550137519836
  outer loop
    vertex 96.24312591552734 26.10737991333008 43.95480346679688
    vertex 96.66213226318359 24.01339340209961 43.91956329345703
    vertex 97.46697998046875 24.63317489624023 43.85157012939453
  endloop
endfacet
facet normal 0.08412732928991318 6.781287083867937e-05 0.9964550137519836
  outer loop
    vertex 96.24312591552734 26.10737991333008 43.95480346679688
    vertex 97.46697998046875 24.63317489624023 43.85157012939453
    vertex 98.40425109863281 25.02278709411621 43.77241516113281
  endloop
endfacet
facet normal 0.08412732928991318 6.781287083867937e-05 0.9964550137519836
  outer loop
    vertex 96.24312591552734 26.10737991333008 43.95480346679688
    vertex 98.40425109863281 25.02278709411621 43.77241516113281
    vertex 102.0133972167969 26.43393135070801 43.46761703491211
  endloop
endfacet
facet normal 0.08412732928991318 6.781287083867937e-05 0.9964550137519836
  outer loop
    vertex 102.0133972167969 26.43393135070801 43.46761703491211
    vertex 98.40425109863281 25.02278709411621 43.77241516113281
    vertex 99.41006469726563 25.15567588806152 43.68749237060547
  endloop
endfacet
facet normal 0.08412732928991318 6.781287083867937e-05 0.9964550137519836
  outer loop
    vertex 102.0133972167969 26.43393135070801 43.46761703491211
    vertex 99.41006469726563 25.15567588806152 43.68749237060547
    vertex 100.415885925293 25.02278709411621 43.60258483886719
  endloop
endfacet
facet normal 0.08412732928991318 6.781287083867937e-05 0.9964550137519836
  outer loop
    vertex 102.0133972167969 26.43393135070801 43.46761703491211
    vertex 100.415885925293 25.02278709411621 43.60258483886719
    vertex 101.353157043457 24.63317489624023 43.52348327636719
  endloop
endfacet
facet normal 0.08412732928991318 6.781287083867937e-05 0.9964550137519836
  outer loop
    vertex 102.0133972167969 26.43393135070801 43.46761703491211
    vertex 101.353157043457 24.63317489624023 43.52348327636719
    vertex 102.1580123901367 24.01339340209961 43.4555778503418
  endloop
endfacet
facet normal 0.08412732928991318 6.781287083867937e-05 0.9964550137519836
  outer loop
    vertex 102.0133972167969 26.43393135070801 43.46761703491211
    vertex 102.1580123901367 24.01339340209961 43.4555778503418
    vertex 105.1803588867188 21.58222770690918 43.20056915283203
  endloop
endfacet
facet normal 0.08412732928991318 6.781287083867937e-05 0.9964550137519836
  outer loop
    vertex 105.1803588867188 21.58222770690918 43.20056915283203
    vertex 102.1580123901367 24.01339340209961 43.4555778503418
    vertex 102.7756042480469 23.2056770324707 43.40349197387695
  endloop
endfacet
facet normal 0.08412732928991318 6.781287083867937e-05 0.9964550137519836
  outer loop
    vertex 105.1803588867188 21.58222770690918 43.20056915283203
    vertex 102.7756042480469 23.2056770324707 43.40349197387695
    vertex 103.1638412475586 22.26506996154785 43.37078094482422
  endloop
endfacet
facet normal 0.08412732928991318 6.781287083867937e-05 0.9964550137519836
  outer loop
    vertex 105.1803588867188 21.58222770690918 43.20056915283203
    vertex 103.1638412475586 22.26506996154785 43.37078094482422
    vertex 103.2962646484375 21.25567626953125 43.35966873168945
  endloop
endfacet
facet normal -0.08412732928991318 -6.781287083867937e-05 -0.9964550137519836
  outer loop
    vertex 95.94868469238281 26.10714340209961 40.46720886230469
    vertex 96.51233673095703 16.07718467712402 40.42030715942383
    vertex 93.34537506103516 20.92888832092285 40.68735122680664
  endloop
endfacet
facet normal -0.08412732928991318 -6.781287083867937e-05 -0.9964550137519836
  outer loop
    vertex 96.51233673095703 16.07718467712402 40.42030715942383
    vertex 95.94868469238281 26.10714340209961 40.46720886230469
    vertex 101.7189483642578 26.43369483947754 39.98002243041992
  endloop
endfacet
facet normal -0.08412732928991318 -6.781287083867937e-05 -0.9964550137519836
  outer loop
    vertex 96.51233673095703 16.07718467712402 40.42030715942383
    vertex 101.7189483642578 26.43369483947754 39.98002243041992
    vertex 102.2826080322266 16.40373611450195 39.93312072753906
  endloop
endfacet
facet normal -0.08412732928991318 -6.781287083867937e-05 -0.9964550137519836
  outer loop
    vertex 102.2826080322266 16.40373611450195 39.93312072753906
    vertex 101.7189483642578 26.43369483947754 39.98002243041992
    vertex 104.8859100341797 21.58199119567871 39.71297836303711
  endloop
endfacet
facet normal -0.0561080276966095 0.9984138011932373 0.004669065121561289
  outer loop
    vertex 95.94868469238281 26.10714340209961 40.46720886230469
    vertex 102.0133972167969 26.43393135070801 43.46761703491211
    vertex 101.7189483642578 26.43369483947754 39.98002243041992
  endloop
endfacet
facet normal -0.0561080276966095 0.9984138011932373 0.004669065121561289
  outer loop
    vertex 102.0133972167969 26.43393135070801 43.46761703491211
    vertex 95.94868469238281 26.10714340209961 40.46720886230469
    vertex 96.24312591552734 26.10737991333008 43.95480346679688
  endloop
endfacet
facet normal -0.8896402716636658 0.4504480063915253 0.07507866621017456
  outer loop
    vertex 93.63982391357422 20.92912483215332 44.17494201660156
    vertex 95.94868469238281 26.10714340209961 40.46720886230469
    vertex 93.34537506103516 20.92888832092285 40.68735122680664
  endloop
endfacet
facet normal -0.8896402716636658 0.4504480063915253 0.07507866621017456
  outer loop
    vertex 95.94868469238281 26.10714340209961 40.46720886230469
    vertex 93.63982391357422 20.92912483215332 44.17494201660156
    vertex 96.24312591552734 26.10737991333008 43.95480346679688
  endloop
endfacet
facet normal 0.8896402716636658 -0.4504480063915253 -0.07507866621017456
  outer loop
    vertex 104.8859100341797 21.58199119567871 39.71297836303711
    vertex 102.5770492553711 16.40397262573242 43.42071151733398
    vertex 102.2826080322266 16.40373611450195 39.93312072753906
  endloop
endfacet
facet normal 0.8896402716636658 -0.4504480063915253 -0.07507866621017456
  outer loop
    vertex 102.5770492553711 16.40397262573242 43.42071151733398
    vertex 104.8859100341797 21.58199119567871 39.71297836303711
    vertex 105.1803588867188 21.58222770690918 43.20056915283203
  endloop
endfacet
facet normal 0.08412732928991318 6.781287083867937e-05 0.9964550137519836
  outer loop
    vertex 98.81619262695313 20.48224830627441 81.79722595214844
    vertex 98.8468017578125 22.26764297485352 81.79449462890625
    vertex 98.71438598632813 21.25824737548828 81.80574035644531
  endloop
endfacet
facet normal 0.08412732928991318 6.781287083867937e-05 0.9964550137519836
  outer loop
    vertex 98.8468017578125 22.26764297485352 81.79449462890625
    vertex 98.81619262695313 20.48224830627441 81.79722595214844
    vertex 98.84680938720703 20.24885368347168 81.79463195800781
  endloop
endfacet
facet normal 0.08412732928991318 6.781287083867937e-05 0.9964550137519836
  outer loop
    vertex 98.8468017578125 22.26764297485352 81.79449462890625
    vertex 98.84680938720703 20.24885368347168 81.79463195800781
    vertex 99.23502349853516 23.20824813842773 81.76165771484375
  endloop
endfacet
facet normal 0.08412732928991318 6.781287083867937e-05 0.9964550137519836
  outer loop
    vertex 99.23502349853516 23.20824813842773 81.76165771484375
    vertex 98.84680938720703 20.24885368347168 81.79463195800781
    vertex 99.23504638671875 19.30824851989746 81.76191711425781
  endloop
endfacet
facet normal 0.08412732928991318 6.781287083867937e-05 0.9964550137519836
  outer loop
    vertex 99.23502349853516 23.20824813842773 81.76165771484375
    vertex 99.23504638671875 19.30824851989746 81.76191711425781
    vertex 99.85260772705078 24.01596450805664 81.70946502685547
  endloop
endfacet
facet normal 0.08412732928991318 6.781287083867937e-05 0.9964550137519836
  outer loop
    vertex 99.85260772705078 24.01596450805664 81.70946502685547
    vertex 99.23504638671875 19.30824851989746 81.76191711425781
    vertex 99.85263824462891 18.50053215026855 81.7098388671875
  endloop
endfacet
facet normal 0.08412732928991318 6.781287083867937e-05 0.9964550137519836
  outer loop
    vertex 99.85260772705078 24.01596450805664 81.70946502685547
    vertex 99.85263824462891 18.50053215026855 81.7098388671875
    vertex 100.6574554443359 24.6357479095459 81.64147186279297
  endloop
endfacet
facet normal 0.08412732928991318 6.781287083867937e-05 0.9964550137519836
  outer loop
    vertex 100.6574554443359 24.6357479095459 81.64147186279297
    vertex 99.85263824462891 18.50053215026855 81.7098388671875
    vertex 100.6574935913086 17.8807487487793 81.64192962646484
  endloop
endfacet
facet normal 0.08412732928991318 6.781287083867937e-05 0.9964550137519836
  outer loop
    vertex 100.6574554443359 24.6357479095459 81.64147186279297
    vertex 100.6574935913086 17.8807487487793 81.64192962646484
    vertex 101.5947265625 25.02535820007324 81.56231689453125
  endloop
endfacet
facet normal 0.08412732928991318 6.781287083867937e-05 0.9964550137519836
  outer loop
    vertex 101.5947265625 25.02535820007324 81.56231689453125
    vertex 100.6574935913086 17.8807487487793 81.64192962646484
    vertex 101.5947723388672 17.49113845825195 81.56282806396484
  endloop
endfacet
facet normal 0.08412732928991318 6.781287083867937e-05 0.9964550137519836
  outer loop
    vertex 101.5947265625 25.02535820007324 81.56231689453125
    vertex 101.5947723388672 17.49113845825195 81.56282806396484
    vertex 102.6005401611328 25.15824890136719 81.47739410400391
  endloop
endfacet
facet normal 0.08412732928991318 6.781287083867937e-05 0.9964550137519836
  outer loop
    vertex 102.6005401611328 25.15824890136719 81.47739410400391
    vertex 101.5947723388672 17.49113845825195 81.56282806396484
    vertex 102.6005859375 17.35824775695801 81.47792053222656
  endloop
endfacet
facet normal 0.08412732928991318 6.781287083867937e-05 0.9964550137519836
  outer loop
    vertex 102.6005401611328 25.15824890136719 81.47739410400391
    vertex 102.6005859375 17.35824775695801 81.47792053222656
    vertex 103.6063613891602 25.02535820007324 81.39248657226563
  endloop
endfacet
facet normal 0.08412732928991318 6.781287083867937e-05 0.9964550137519836
  outer loop
    vertex 103.6063613891602 25.02535820007324 81.39248657226563
    vertex 102.6005859375 17.35824775695801 81.47792053222656
    vertex 103.6063995361328 17.49113845825195 81.39299774169922
  endloop
endfacet
facet normal 0.08412732928991318 6.781287083867937e-05 0.9964550137519836
  outer loop
    vertex 103.6063613891602 25.02535820007324 81.39248657226563
    vertex 103.6063995361328 17.49113845825195 81.39299774169922
    vertex 104.5436325073242 24.6357479095459 81.31338500976563
  endloop
endfacet
facet normal 0.08412732928991318 6.781287083867937e-05 0.9964550137519836
  outer loop
    vertex 104.5436325073242 24.6357479095459 81.31338500976563
    vertex 103.6063995361328 17.49113845825195 81.39299774169922
    vertex 104.5436706542969 17.8807487487793 81.3138427734375
  endloop
endfacet
facet normal 0.08412732928991318 6.781287083867937e-05 0.9964550137519836
  outer loop
    vertex 104.5436325073242 24.6357479095459 81.31338500976563
    vertex 104.5436706542969 17.8807487487793 81.3138427734375
    vertex 105.3484878540039 24.01596450805664 81.24547576904297
  endloop
endfacet
facet normal 0.08412732928991318 6.781287083867937e-05 0.9964550137519836
  outer loop
    vertex 105.3484878540039 24.01596450805664 81.24547576904297
    vertex 104.5436706542969 17.8807487487793 81.3138427734375
    vertex 105.348518371582 18.50053215026855 81.245849609375
  endloop
endfacet
facet normal 0.08412732928991318 6.781287083867937e-05 0.9964550137519836
  outer loop
    vertex 105.3484878540039 24.01596450805664 81.24547576904297
    vertex 105.348518371582 18.50053215026855 81.245849609375
    vertex 105.9660797119141 23.20824813842773 81.19338989257813
  endloop
endfacet
facet normal 0.08412732928991318 6.781287083867937e-05 0.9964550137519836
  outer loop
    vertex 105.9660797119141 23.20824813842773 81.19338989257813
    vertex 105.348518371582 18.50053215026855 81.245849609375
    vertex 105.9661026000977 19.30824851989746 81.19365692138672
  endloop
endfacet
facet normal 0.08412732928991318 6.781287083867937e-05 0.9964550137519836
  outer loop
    vertex 105.9660797119141 23.20824813842773 81.19338989257813
    vertex 105.9661026000977 19.30824851989746 81.19365692138672
    vertex 106.3543167114258 22.26764297485352 81.16067504882813
  endloop
endfacet
facet normal 0.08412732928991318 6.781287083867937e-05 0.9964550137519836
  outer loop
    vertex 106.3543167114258 22.26764297485352 81.16067504882813
    vertex 105.9661026000977 19.30824851989746 81.19365692138672
    vertex 106.3543243408203 20.24885368347168 81.16081237792969
  endloop
endfacet
facet normal 0.08412732928991318 6.781287083867937e-05 0.9964550137519836
  outer loop
    vertex 106.3543167114258 22.26764297485352 81.16067504882813
    vertex 106.3543243408203 20.24885368347168 81.16081237792969
    vertex 106.3849334716797 20.48224830627441 81.15813446044922
  endloop
endfacet
facet normal 0.08412732928991318 6.781287083867937e-05 0.9964550137519836
  outer loop
    vertex 106.3543167114258 22.26764297485352 81.16067504882813
    vertex 106.3849334716797 20.48224830627441 81.15813446044922
    vertex 106.4867401123047 21.25824737548828 81.14956665039063
  endloop
endfacet
endsolid 2620
