solid 8B09
facet normal 0.6366937756538391 1.55407519741857e-07 0.7711167335510254
  outer loop
    vertex 72.12077331542969 20.60615348815918 102.2294540405273
    vertex 72.12077331542969 21.82634353637695 102.2294540405273
    vertex 72.08374786376953 21.21624755859375 102.2600250244141
  endloop
endfacet
facet normal 0.6366937756538391 1.55407519741857e-07 0.7711167335510254
  outer loop
    vertex 72.12077331542969 21.82634353637695 102.2294540405273
    vertex 72.12077331542969 20.60615348815918 102.2294540405273
    vertex 72.23094177246094 22.42141532897949 102.1384887695313
  endloop
endfacet
facet normal 0.6366937756538391 1.55407519741857e-07 0.7711167335510254
  outer loop
    vertex 72.23094177246094 22.42141532897949 102.1384887695313
    vertex 72.12077331542969 20.60615348815918 102.2294540405273
    vertex 72.23094177246094 20.01108169555664 102.1384887695313
  endloop
endfacet
facet normal 0.6366937756538391 1.55407519741857e-07 0.7711167335510254
  outer loop
    vertex 72.23094177246094 22.42141532897949 102.1384887695313
    vertex 72.23094177246094 20.01108169555664 102.1384887695313
    vertex 72.41152954101563 22.9868106842041 101.9893798828125
  endloop
endfacet
facet normal 0.6366937756538391 1.55407519741857e-07 0.7711167335510254
  outer loop
    vertex 72.41152954101563 22.9868106842041 101.9893798828125
    vertex 72.23094177246094 20.01108169555664 102.1384887695313
    vertex 72.41152954101563 19.44568634033203 101.9893798828125
  endloop
endfacet
facet normal 0.6366937756538391 1.55407519741857e-07 0.7711167335510254
  outer loop
    vertex 72.41152954101563 22.9868106842041 101.9893798828125
    vertex 72.41152954101563 19.44568634033203 101.9893798828125
    vertex 72.65810394287109 23.50861167907715 101.7857894897461
  endloop
endfacet
facet normal 0.6366937756538391 1.55407519741857e-07 0.7711167335510254
  outer loop
    vertex 72.65810394287109 23.50861167907715 101.7857894897461
    vertex 72.41152954101563 19.44568634033203 101.9893798828125
    vertex 72.65810394287109 18.92388534545898 101.7857894897461
  endloop
endfacet
facet normal 0.6366937756538391 1.55407519741857e-07 0.7711167335510254
  outer loop
    vertex 72.65810394287109 23.50861167907715 101.7857894897461
    vertex 72.65810394287109 18.92388534545898 101.7857894897461
    vertex 72.96458435058594 23.97396469116211 101.5327377319336
  endloop
endfacet
facet normal 0.6366937756538391 1.55407519741857e-07 0.7711167335510254
  outer loop
    vertex 72.96458435058594 23.97396469116211 101.5327377319336
    vertex 72.65810394287109 18.92388534545898 101.7857894897461
    vertex 72.96458435058594 18.45853233337402 101.5327377319336
  endloop
endfacet
facet normal 0.6366937756538391 1.55407519741857e-07 0.7711167335510254
  outer loop
    vertex 72.96458435058594 23.97396469116211 101.5327377319336
    vertex 72.96458435058594 18.45853233337402 101.5327377319336
    vertex 73.32342529296875 24.37141418457031 101.2364501953125
  endloop
endfacet
facet normal 0.6366937756538391 1.55407519741857e-07 0.7711167335510254
  outer loop
    vertex 73.32342529296875 24.37141418457031 101.2364501953125
    vertex 72.96458435058594 18.45853233337402 101.5327377319336
    vertex 73.32342529296875 18.06108283996582 101.2364501953125
  endloop
endfacet
facet normal 0.6366937756538391 1.55407519741857e-07 0.7711167335510254
  outer loop
    vertex 73.32342529296875 24.37141418457031 101.2364501953125
    vertex 73.32342529296875 18.06108283996582 101.2364501953125
    vertex 73.72579193115234 24.6911735534668 100.9042205810547
  endloop
endfacet
facet normal 0.6366937756538391 1.55407519741857e-07 0.7711167335510254
  outer loop
    vertex 73.72579193115234 24.6911735534668 100.9042205810547
    vertex 73.32342529296875 18.06108283996582 101.2364501953125
    vertex 73.72579193115234 17.74132347106934 100.9042205810547
  endloop
endfacet
facet normal 0.6366937756538391 1.55407519741857e-07 0.7711167335510254
  outer loop
    vertex 73.72579193115234 24.6911735534668 100.9042205810547
    vertex 73.72579193115234 17.74132347106934 100.9042205810547
    vertex 74.16178131103516 24.92536926269531 100.5442352294922
  endloop
endfacet
facet normal 0.6366937756538391 1.55407519741857e-07 0.7711167335510254
  outer loop
    vertex 74.16178131103516 24.92536926269531 100.5442352294922
    vertex 73.72579193115234 17.74132347106934 100.9042205810547
    vertex 74.16178131103516 17.50712776184082 100.5442352294922
  endloop
endfacet
facet normal 0.6366937756538391 1.55407519741857e-07 0.7711167335510254
  outer loop
    vertex 74.16178131103516 24.92536926269531 100.5442352294922
    vertex 74.16178131103516 17.50712776184082 100.5442352294922
    vertex 74.62065124511719 25.06823348999023 100.1653594970703
  endloop
endfacet
facet normal 0.6366937756538391 1.55407519741857e-07 0.7711167335510254
  outer loop
    vertex 74.62065124511719 25.06823348999023 100.1653594970703
    vertex 74.16178131103516 17.50712776184082 100.5442352294922
    vertex 74.62065124511719 17.3642635345459 100.1653594970703
  endloop
endfacet
facet normal 0.6366937756538391 1.55407519741857e-07 0.7711167335510254
  outer loop
    vertex 74.62065124511719 25.06823348999023 100.1653594970703
    vertex 74.62065124511719 17.3642635345459 100.1653594970703
    vertex 75.09110260009766 25.11624908447266 99.77691650390625
  endloop
endfacet
facet normal 0.6366937756538391 1.55407519741857e-07 0.7711167335510254
  outer loop
    vertex 75.09110260009766 25.11624908447266 99.77691650390625
    vertex 74.62065124511719 17.3642635345459 100.1653594970703
    vertex 75.09110260009766 17.31624794006348 99.77691650390625
  endloop
endfacet
facet normal 0.6366937756538391 1.55407519741857e-07 0.7711167335510254
  outer loop
    vertex 75.09110260009766 25.11624908447266 99.77691650390625
    vertex 75.09110260009766 17.31624794006348 99.77691650390625
    vertex 75.56156158447266 25.06823348999023 99.38847351074219
  endloop
endfacet
facet normal 0.6366937756538391 1.55407519741857e-07 0.7711167335510254
  outer loop
    vertex 75.56156158447266 25.06823348999023 99.38847351074219
    vertex 75.09110260009766 17.31624794006348 99.77691650390625
    vertex 75.56156158447266 17.3642635345459 99.38847351074219
  endloop
endfacet
facet normal 0.6366937756538391 1.55407519741857e-07 0.7711167335510254
  outer loop
    vertex 75.56156158447266 25.06823348999023 99.38847351074219
    vertex 75.56156158447266 17.3642635345459 99.38847351074219
    vertex 76.02043151855469 24.92536926269531 99.00959777832031
  endloop
endfacet
facet normal 0.6366937756538391 1.55407519741857e-07 0.7711167335510254
  outer loop
    vertex 76.02043151855469 24.92536926269531 99.00959777832031
    vertex 75.56156158447266 17.3642635345459 99.38847351074219
    vertex 76.02043151855469 17.50712776184082 99.00959777832031
  endloop
endfacet
facet normal 0.6366937756538391 1.55407519741857e-07 0.7711167335510254
  outer loop
    vertex 76.02043151855469 24.92536926269531 99.00959777832031
    vertex 76.02043151855469 17.50712776184082 99.00959777832031
    vertex 76.45641326904297 24.6911735534668 98.64961242675781
  endloop
endfacet
facet normal 0.6366937756538391 1.55407519741857e-07 0.7711167335510254
  outer loop
    vertex 76.45641326904297 24.6911735534668 98.64961242675781
    vertex 76.02043151855469 17.50712776184082 99.00959777832031
    vertex 76.45641326904297 17.74132347106934 98.64961242675781
  endloop
endfacet
facet normal 0.6366937756538391 1.55407519741857e-07 0.7711167335510254
  outer loop
    vertex 76.45641326904297 24.6911735534668 98.64961242675781
    vertex 76.45641326904297 17.74132347106934 98.64961242675781
    vertex 76.85878753662109 24.37141418457031 98.3173828125
  endloop
endfacet
facet normal 0.6366937756538391 1.55407519741857e-07 0.7711167335510254
  outer loop
    vertex 76.85878753662109 24.37141418457031 98.3173828125
    vertex 76.45641326904297 17.74132347106934 98.64961242675781
    vertex 76.85878753662109 18.06108283996582 98.3173828125
  endloop
endfacet
facet normal 0.6366937756538391 1.55407519741857e-07 0.7711167335510254
  outer loop
    vertex 76.85878753662109 24.37141418457031 98.3173828125
    vertex 76.85878753662109 18.06108283996582 98.3173828125
    vertex 77.21762847900391 23.97396469116211 98.02109527587891
  endloop
endfacet
facet normal 0.6366937756538391 1.55407519741857e-07 0.7711167335510254
  outer loop
    vertex 77.21762847900391 23.97396469116211 98.02109527587891
    vertex 76.85878753662109 18.06108283996582 98.3173828125
    vertex 77.21762847900391 18.45853233337402 98.02109527587891
  endloop
endfacet
facet normal 0.6366937756538391 1.55407519741857e-07 0.7711167335510254
  outer loop
    vertex 77.21762847900391 23.97396469116211 98.02109527587891
    vertex 77.21762847900391 18.45853233337402 98.02109527587891
    vertex 77.52410888671875 23.50861167907715 97.76804351806641
  endloop
endfacet
facet normal 0.6366937756538391 1.55407519741857e-07 0.7711167335510254
  outer loop
    vertex 77.52410888671875 23.50861167907715 97.76804351806641
    vertex 77.21762847900391 18.45853233337402 98.02109527587891
    vertex 77.52410888671875 18.92388534545898 97.76804351806641
  endloop
endfacet
facet normal 0.6366937756538391 1.55407519741857e-07 0.7711167335510254
  outer loop
    vertex 77.52410888671875 23.50861167907715 97.76804351806641
    vertex 77.52410888671875 18.92388534545898 97.76804351806641
    vertex 77.77067565917969 22.9868106842041 97.564453125
  endloop
endfacet
facet normal 0.6366937756538391 1.55407519741857e-07 0.7711167335510254
  outer loop
    vertex 77.77067565917969 22.9868106842041 97.564453125
    vertex 77.52410888671875 18.92388534545898 97.76804351806641
    vertex 77.77067565917969 19.44568634033203 97.564453125
  endloop
endfacet
facet normal 0.6366937756538391 1.55407519741857e-07 0.7711167335510254
  outer loop
    vertex 77.77067565917969 22.9868106842041 97.564453125
    vertex 77.77067565917969 19.44568634033203 97.564453125
    vertex 77.95127105712891 22.42141532897949 97.41534423828125
  endloop
endfacet
facet normal 0.6366937756538391 1.55407519741857e-07 0.7711167335510254
  outer loop
    vertex 77.95127105712891 22.42141532897949 97.41534423828125
    vertex 77.77067565917969 19.44568634033203 97.564453125
    vertex 77.95127105712891 20.01108169555664 97.41534423828125
  endloop
endfacet
facet normal 0.6366937756538391 1.55407519741857e-07 0.7711167335510254
  outer loop
    vertex 77.95127105712891 22.42141532897949 97.41534423828125
    vertex 77.95127105712891 20.01108169555664 97.41534423828125
    vertex 78.06143188476563 21.82634353637695 97.32437896728516
  endloop
endfacet
facet normal 0.6366937756538391 1.55407519741857e-07 0.7711167335510254
  outer loop
    vertex 78.06143188476563 21.82634353637695 97.32437896728516
    vertex 77.95127105712891 20.01108169555664 97.41534423828125
    vertex 78.06143188476563 20.60615348815918 97.32437896728516
  endloop
endfacet
facet normal 0.6366937756538391 1.55407519741857e-07 0.7711167335510254
  outer loop
    vertex 78.06143188476563 21.82634353637695 97.32437896728516
    vertex 78.06143188476563 20.60615348815918 97.32437896728516
    vertex 78.09845733642578 21.21624946594238 97.29380798339844
  endloop
endfacet
facet normal 0.6366937756538391 1.554075055310022e-07 0.7711167335510254
  outer loop
    vertex 26.54925537109375 21.21623802185059 50.72439956665039
    vertex 28.35984992980957 20.60614395141602 49.22943115234375
    vertex 28.32282447814941 21.21623802185059 49.26000213623047
  endloop
endfacet
facet normal 0.6366937756538391 1.554075055310022e-07 0.7711167335510254
  outer loop
    vertex 28.35984992980957 20.60614395141602 49.22943115234375
    vertex 26.54925537109375 21.21623802185059 50.72439956665039
    vertex 28.93971824645996 15.84687995910645 48.75064849853516
  endloop
endfacet
facet normal 0.6366937756538391 1.554075055310022e-07 0.7711167335510254
  outer loop
    vertex 28.35984992980957 20.60614395141602 49.22943115234375
    vertex 28.93971824645996 15.84687995910645 48.75064849853516
    vertex 28.47001457214355 20.01107215881348 49.13846969604492
  endloop
endfacet
facet normal 0.6366937756538391 1.554075055310022e-07 0.7711167335510254
  outer loop
    vertex 28.47001457214355 20.01107215881348 49.13846969604492
    vertex 28.93971824645996 15.84687995910645 48.75064849853516
    vertex 28.65060615539551 19.44567489624023 48.98936080932617
  endloop
endfacet
facet normal 0.6366937756538391 1.554075055310022e-07 0.7711167335510254
  outer loop
    vertex 28.65060615539551 19.44567489624023 48.98936080932617
    vertex 28.93971824645996 15.84687995910645 48.75064849853516
    vertex 28.89717864990234 18.92387580871582 48.78577423095703
  endloop
endfacet
facet normal 0.6366937756538391 1.554075055310022e-07 0.7711167335510254
  outer loop
    vertex 28.89717864990234 18.92387580871582 48.78577423095703
    vertex 28.93971824645996 15.84687995910645 48.75064849853516
    vertex 29.20365905761719 18.45852088928223 48.53271865844727
  endloop
endfacet
facet normal 0.6366937756538391 1.554075055310022e-07 0.7711167335510254
  outer loop
    vertex 29.20365905761719 18.45852088928223 48.53271865844727
    vertex 28.93971824645996 15.84687995910645 48.75064849853516
    vertex 29.56250190734863 18.06107139587402 48.23643112182617
  endloop
endfacet
facet normal 0.6366937756538391 1.554075055310022e-07 0.7711167335510254
  outer loop
    vertex 29.56250190734863 18.06107139587402 48.23643112182617
    vertex 28.93971824645996 15.84687995910645 48.75064849853516
    vertex 29.96486854553223 17.74131202697754 47.90420532226563
  endloop
endfacet
facet normal 0.6366937756538391 1.554075055310022e-07 0.7711167335510254
  outer loop
    vertex 29.96486854553223 17.74131202697754 47.90420532226563
    vertex 28.93971824645996 15.84687995910645 48.75064849853516
    vertex 30.40085601806641 17.50711822509766 47.54421997070313
  endloop
endfacet
facet normal 0.6366937756538391 1.554075055310022e-07 0.7711167335510254
  outer loop
    vertex 30.40085601806641 17.50711822509766 47.54421997070313
    vertex 28.93971824645996 15.84687995910645 48.75064849853516
    vertex 33.72064208984375 15.84687995910645 44.80314636230469
  endloop
endfacet
facet normal 0.6366937756538391 1.554075055310022e-07 0.7711167335510254
  outer loop
    vertex 30.40085601806641 17.50711822509766 47.54421997070313
    vertex 33.72064208984375 15.84687995910645 44.80314636230469
    vertex 30.85972595214844 17.36425399780273 47.16534042358398
  endloop
endfacet
facet normal 0.6366937756538391 1.554075055310022e-07 0.7711167335510254
  outer loop
    vertex 30.85972595214844 17.36425399780273 47.16534042358398
    vertex 33.72064208984375 15.84687995910645 44.80314636230469
    vertex 31.33017921447754 17.31623840332031 46.77689743041992
  endloop
endfacet
facet normal 0.6366937756538391 1.554075055310022e-07 0.7711167335510254
  outer loop
    vertex 31.33017921447754 17.31623840332031 46.77689743041992
    vertex 33.72064208984375 15.84687995910645 44.80314636230469
    vertex 31.80063438415527 17.36425399780273 46.38845443725586
  endloop
endfacet
facet normal 0.6366937756538391 1.554075055310022e-07 0.7711167335510254
  outer loop
    vertex 31.80063438415527 17.36425399780273 46.38845443725586
    vertex 33.72064208984375 15.84687995910645 44.80314636230469
    vertex 32.25950241088867 17.50711822509766 46.00957489013672
  endloop
endfacet
facet normal 0.6366937756538391 1.554075055310022e-07 0.7711167335510254
  outer loop
    vertex 32.25950241088867 17.50711822509766 46.00957489013672
    vertex 33.72064208984375 15.84687995910645 44.80314636230469
    vertex 32.69549179077148 17.74131202697754 45.64958953857422
  endloop
endfacet
facet normal 0.6366937756538391 1.554075055310022e-07 0.7711167335510254
  outer loop
    vertex 32.69549179077148 17.74131202697754 45.64958953857422
    vertex 33.72064208984375 15.84687995910645 44.80314636230469
    vertex 33.09785842895508 18.06107139587402 45.31736373901367
  endloop
endfacet
facet normal 0.6366937756538391 1.554075055310022e-07 0.7711167335510254
  outer loop
    vertex 33.09785842895508 18.06107139587402 45.31736373901367
    vertex 33.72064208984375 15.84687995910645 44.80314636230469
    vertex 33.45670318603516 18.45852088928223 45.02107620239258
  endloop
endfacet
facet normal 0.6366937756538391 1.554075055310022e-07 0.7711167335510254
  outer loop
    vertex 33.45670318603516 18.45852088928223 45.02107620239258
    vertex 33.72064208984375 15.84687995910645 44.80314636230469
    vertex 33.76317977905273 18.92387580871582 44.76802444458008
  endloop
endfacet
facet normal 0.6366937756538391 1.554075055310022e-07 0.7711167335510254
  outer loop
    vertex 33.76317977905273 18.92387580871582 44.76802444458008
    vertex 33.72064208984375 15.84687995910645 44.80314636230469
    vertex 36.11110305786133 21.21623802185059 42.82939529418945
  endloop
endfacet
facet normal 0.6366937756538391 1.554075055310022e-07 0.7711167335510254
  outer loop
    vertex 33.76317977905273 18.92387580871582 44.76802444458008
    vertex 36.11110305786133 21.21623802185059 42.82939529418945
    vertex 34.0097541809082 19.44567489624023 44.56443405151367
  endloop
endfacet
facet normal 0.6366937756538391 1.554075055310022e-07 0.7711167335510254
  outer loop
    vertex 34.0097541809082 19.44567489624023 44.56443405151367
    vertex 36.11110305786133 21.21623802185059 42.82939529418945
    vertex 34.19034576416016 20.01107215881348 44.41532516479492
  endloop
endfacet
facet normal 0.6366937756538391 1.554075055310022e-07 0.7711167335510254
  outer loop
    vertex 34.19034576416016 20.01107215881348 44.41532516479492
    vertex 36.11110305786133 21.21623802185059 42.82939529418945
    vertex 34.30051040649414 20.60614395141602 44.32436370849609
  endloop
endfacet
facet normal 0.6366937756538391 1.554075055310022e-07 0.7711167335510254
  outer loop
    vertex 34.30051040649414 20.60614395141602 44.32436370849609
    vertex 36.11110305786133 21.21623802185059 42.82939529418945
    vertex 34.3375358581543 21.21623802185059 44.29379272460938
  endloop
endfacet
facet normal 0.6366937756538391 1.554075055310022e-07 0.7711167335510254
  outer loop
    vertex 26.54925537109375 21.21623802185059 50.72439956665039
    vertex 28.35984992980957 21.82633209228516 49.22943115234375
    vertex 28.93971824645996 26.58559608459473 48.75064849853516
  endloop
endfacet
facet normal 0.6366937756538391 1.554075055310022e-07 0.7711167335510254
  outer loop
    vertex 28.35984992980957 21.82633209228516 49.22943115234375
    vertex 26.54925537109375 21.21623802185059 50.72439956665039
    vertex 28.32282447814941 21.21623802185059 49.26000213623047
  endloop
endfacet
facet normal 0.6366937756538391 1.554075055310022e-07 0.7711167335510254
  outer loop
    vertex 28.93971824645996 26.58559608459473 48.75064849853516
    vertex 28.35984992980957 21.82633209228516 49.22943115234375
    vertex 28.47001457214355 22.4214038848877 49.13846969604492
  endloop
endfacet
facet normal 0.6366937756538391 1.554075055310022e-07 0.7711167335510254
  outer loop
    vertex 28.93971824645996 26.58559608459473 48.75064849853516
    vertex 28.47001457214355 22.4214038848877 49.13846969604492
    vertex 28.65060615539551 22.98680114746094 48.98936080932617
  endloop
endfacet
facet normal 0.6366937756538391 1.554075055310022e-07 0.7711167335510254
  outer loop
    vertex 28.93971824645996 26.58559608459473 48.75064849853516
    vertex 28.65060615539551 22.98680114746094 48.98936080932617
    vertex 28.89717864990234 23.50860023498535 48.78577041625977
  endloop
endfacet
facet normal 0.6366937756538391 1.554075055310022e-07 0.7711167335510254
  outer loop
    vertex 28.93971824645996 26.58559608459473 48.75064849853516
    vertex 28.89717864990234 23.50860023498535 48.78577041625977
    vertex 29.20365905761719 23.97395515441895 48.53271865844727
  endloop
endfacet
facet normal 0.6366937756538391 1.554075055310022e-07 0.7711167335510254
  outer loop
    vertex 28.93971824645996 26.58559608459473 48.75064849853516
    vertex 29.20365905761719 23.97395515441895 48.53271865844727
    vertex 29.5625 24.37140464782715 48.23643112182617
  endloop
endfacet
facet normal 0.6366937756538391 1.554075055310022e-07 0.7711167335510254
  outer loop
    vertex 28.93971824645996 26.58559608459473 48.75064849853516
    vertex 29.5625 24.37140464782715 48.23643112182617
    vertex 29.96486854553223 24.69116401672363 47.90420150756836
  endloop
endfacet
facet normal 0.6366937756538391 1.554075055310022e-07 0.7711167335510254
  outer loop
    vertex 28.93971824645996 26.58559608459473 48.75064849853516
    vertex 29.96486854553223 24.69116401672363 47.90420150756836
    vertex 30.40085601806641 24.92535781860352 47.54421997070313
  endloop
endfacet
facet normal 0.6366937756538391 1.554075055310022e-07 0.7711167335510254
  outer loop
    vertex 28.93971824645996 26.58559608459473 48.75064849853516
    vertex 30.40085601806641 24.92535781860352 47.54421997070313
    vertex 33.72064208984375 26.58559608459473 44.80314636230469
  endloop
endfacet
facet normal 0.6366937756538391 1.554075055310022e-07 0.7711167335510254
  outer loop
    vertex 33.72064208984375 26.58559608459473 44.80314636230469
    vertex 30.40085601806641 24.92535781860352 47.54421997070313
    vertex 30.85972595214844 25.06822204589844 47.16534042358398
  endloop
endfacet
facet normal 0.6366937756538391 1.554075055310022e-07 0.7711167335510254
  outer loop
    vertex 33.72064208984375 26.58559608459473 44.80314636230469
    vertex 30.85972595214844 25.06822204589844 47.16534042358398
    vertex 31.33017921447754 25.11623764038086 46.77689743041992
  endloop
endfacet
facet normal 0.6366937756538391 1.554075055310022e-07 0.7711167335510254
  outer loop
    vertex 33.72064208984375 26.58559608459473 44.80314636230469
    vertex 31.33017921447754 25.11623764038086 46.77689743041992
    vertex 31.80063247680664 25.06822204589844 46.38845443725586
  endloop
endfacet
facet normal 0.6366937756538391 1.554075055310022e-07 0.7711167335510254
  outer loop
    vertex 33.72064208984375 26.58559608459473 44.80314636230469
    vertex 31.80063247680664 25.06822204589844 46.38845443725586
    vertex 32.25950241088867 24.92535781860352 46.00957489013672
  endloop
endfacet
facet normal 0.6366937756538391 1.554075055310022e-07 0.7711167335510254
  outer loop
    vertex 33.72064208984375 26.58559608459473 44.80314636230469
    vertex 32.25950241088867 24.92535781860352 46.00957489013672
    vertex 32.69549179077148 24.69116401672363 45.64958953857422
  endloop
endfacet
facet normal 0.6366937756538391 1.554075055310022e-07 0.7711167335510254
  outer loop
    vertex 33.72064208984375 26.58559608459473 44.80314636230469
    vertex 32.69549179077148 24.69116401672363 45.64958953857422
    vertex 33.09785842895508 24.37140464782715 45.31736373901367
  endloop
endfacet
facet normal 0.6366937756538391 1.554075055310022e-07 0.7711167335510254
  outer loop
    vertex 33.72064208984375 26.58559608459473 44.80314636230469
    vertex 33.09785842895508 24.37140464782715 45.31736373901367
    vertex 33.45669937133789 23.97395515441895 45.02107620239258
  endloop
endfacet
facet normal 0.6366937756538391 1.554075055310022e-07 0.7711167335510254
  outer loop
    vertex 33.72064208984375 26.58559608459473 44.80314636230469
    vertex 33.45669937133789 23.97395515441895 45.02107620239258
    vertex 33.76317977905273 23.50860023498535 44.76802062988281
  endloop
endfacet
facet normal 0.6366937756538391 1.554075055310022e-07 0.7711167335510254
  outer loop
    vertex 33.72064208984375 26.58559608459473 44.80314636230469
    vertex 33.76317977905273 23.50860023498535 44.76802062988281
    vertex 36.11110305786133 21.21623802185059 42.82939529418945
  endloop
endfacet
facet normal 0.6366937756538391 1.554075055310022e-07 0.7711167335510254
  outer loop
    vertex 36.11110305786133 21.21623802185059 42.82939529418945
    vertex 33.76317977905273 23.50860023498535 44.76802062988281
    vertex 34.0097541809082 22.98680114746094 44.56443405151367
  endloop
endfacet
facet normal 0.6366937756538391 1.554075055310022e-07 0.7711167335510254
  outer loop
    vertex 36.11110305786133 21.21623802185059 42.82939529418945
    vertex 34.0097541809082 22.98680114746094 44.56443405151367
    vertex 34.19034576416016 22.4214038848877 44.41532516479492
  endloop
endfacet
facet normal 0.6366937756538391 1.554075055310022e-07 0.7711167335510254
  outer loop
    vertex 36.11110305786133 21.21623802185059 42.82939529418945
    vertex 34.19034576416016 22.4214038848877 44.41532516479492
    vertex 34.30051040649414 21.82633209228516 44.32436370849609
  endloop
endfacet
facet normal 0.6366937756538391 1.554075055310022e-07 0.7711167335510254
  outer loop
    vertex 36.11110305786133 21.21623802185059 42.82939529418945
    vertex 34.30051040649414 21.82633209228516 44.32436370849609
    vertex 34.3375358581543 21.21623802185059 44.29379272460938
  endloop
endfacet
facet normal 0.6678066253662109 0.5 -0.5513930320739746
  outer loop
    vertex 31.42854309082031 26.58559417724609 42.02712631225586
    vertex 36.11110305786133 21.21623802185059 42.82939529418945
    vertex 33.81900405883789 21.21623802185059 40.05337524414063
  endloop
endfacet
facet normal 0.6678066253662109 0.5 -0.5513930320739746
  outer loop
    vertex 36.11110305786133 21.21623802185059 42.82939529418945
    vertex 31.42854309082031 26.58559417724609 42.02712631225586
    vertex 33.72064208984375 26.58559608459473 44.80314636230469
  endloop
endfacet
facet normal -9.894699815049535e-08 1 -1.198373382749196e-07
  outer loop
    vertex 26.64761924743652 26.58559417724609 45.97462844848633
    vertex 33.72064208984375 26.58559608459473 44.80314636230469
    vertex 31.42854309082031 26.58559417724609 42.02712631225586
  endloop
endfacet
facet normal -9.894699815049535e-08 1 -1.198373382749196e-07
  outer loop
    vertex 33.72064208984375 26.58559608459473 44.80314636230469
    vertex 26.64761924743652 26.58559417724609 45.97462844848633
    vertex 28.93971824645996 26.58559608459473 48.75064849853516
  endloop
endfacet
facet normal -0.6678067445755005 0.5 0.5513929128646851
  outer loop
    vertex 26.54925537109375 21.21623802185059 50.72439956665039
    vertex 26.64761924743652 26.58559417724609 45.97462844848633
    vertex 24.25715827941895 21.21623802185059 47.94837951660156
  endloop
endfacet
facet normal -0.6678067445755005 0.5 0.5513929128646851
  outer loop
    vertex 26.64761924743652 26.58559417724609 45.97462844848633
    vertex 26.54925537109375 21.21623802185059 50.72439956665039
    vertex 28.93971824645996 26.58559608459473 48.75064849853516
  endloop
endfacet
facet normal 0.6678067445755005 -0.5 -0.5513929128646851
  outer loop
    vertex 33.81900405883789 21.21623802185059 40.05337524414063
    vertex 33.72064208984375 15.84687995910645 44.80314636230469
    vertex 31.42854499816895 15.84687995910645 42.02712631225586
  endloop
endfacet
facet normal 0.6678067445755005 -0.5 -0.5513929128646851
  outer loop
    vertex 33.72064208984375 15.84687995910645 44.80314636230469
    vertex 33.81900405883789 21.21623802185059 40.05337524414063
    vertex 36.11110305786133 21.21623802185059 42.82939529418945
  endloop
endfacet
facet normal 9.894699815049535e-08 -1 1.198373382749196e-07
  outer loop
    vertex 33.72064208984375 15.84687995910645 44.80314636230469
    vertex 26.64762115478516 15.84687995910645 45.97462844848633
    vertex 31.42854499816895 15.84687995910645 42.02712631225586
  endloop
endfacet
facet normal 9.894699815049535e-08 -1 1.198373382749196e-07
  outer loop
    vertex 26.64762115478516 15.84687995910645 45.97462844848633
    vertex 33.72064208984375 15.84687995910645 44.80314636230469
    vertex 28.93971824645996 15.84687995910645 48.75064849853516
  endloop
endfacet
facet normal -0.6678066253662109 -0.5 0.5513930320739746
  outer loop
    vertex 28.93971824645996 15.84687995910645 48.75064849853516
    vertex 24.25715827941895 21.21623802185059 47.94837951660156
    vertex 26.64762115478516 15.84687995910645 45.97462844848633
  endloop
endfacet
facet normal -0.6678066253662109 -0.5 0.5513930320739746
  outer loop
    vertex 24.25715827941895 21.21623802185059 47.94837951660156
    vertex 28.93971824645996 15.84687995910645 48.75064849853516
    vertex 26.54925537109375 21.21623802185059 50.72439956665039
  endloop
endfacet
facet normal -0.6366937756538391 -1.554075055310022e-07 -0.7711167335510254
  outer loop
    vertex 26.64761924743652 26.58559417724609 45.97462844848633
    vertex 26.64762115478516 15.84687995910645 45.97462844848633
    vertex 24.25715827941895 21.21623802185059 47.94837951660156
  endloop
endfacet
facet normal -0.6366937756538391 -1.554075055310022e-07 -0.7711167335510254
  outer loop
    vertex 26.64762115478516 15.84687995910645 45.97462844848633
    vertex 26.64761924743652 26.58559417724609 45.97462844848633
    vertex 31.42854309082031 26.58559417724609 42.02712631225586
  endloop
endfacet
facet normal -0.6366937756538391 -1.554075055310022e-07 -0.7711167335510254
  outer loop
    vertex 26.64762115478516 15.84687995910645 45.97462844848633
    vertex 31.42854309082031 26.58559417724609 42.02712631225586
    vertex 31.42854499816895 15.84687995910645 42.02712631225586
  endloop
endfacet
facet normal -0.6366937756538391 -1.554075055310022e-07 -0.7711167335510254
  outer loop
    vertex 31.42854499816895 15.84687995910645 42.02712631225586
    vertex 31.42854309082031 26.58559417724609 42.02712631225586
    vertex 33.81900405883789 21.21623802185059 40.05337524414063
  endloop
endfacet
facet normal 0.5008001923561096 0.760405957698822 -0.4134996235370636
  outer loop
    vertex 33.09785842895508 24.37140464782715 45.31736373901367
    vertex 77.21762847900391 23.97396469116211 98.02109527587891
    vertex 33.45669937133789 23.97395515441895 45.02107620239258
  endloop
endfacet
facet normal 0.5008001923561096 0.760405957698822 -0.4134996235370636
  outer loop
    vertex 77.21762847900391 23.97396469116211 98.02109527587891
    vertex 33.09785842895508 24.37140464782715 45.31736373901367
    vertex 76.85878753662109 24.37141418457031 98.3173828125
  endloop
endfacet
facet normal 0.768739640712738 0.07845909893512726 -0.6347310543060303
  outer loop
    vertex 34.30051040649414 21.82633209228516 44.32436370849609
    vertex 78.09845733642578 21.21624946594238 97.29380798339844
    vertex 34.3375358581543 21.21623802185059 44.29379272460938
  endloop
endfacet
facet normal 0.768739640712738 0.07845909893512726 -0.6347310543060303
  outer loop
    vertex 78.09845733642578 21.21624946594238 97.29380798339844
    vertex 34.30051040649414 21.82633209228516 44.32436370849609
    vertex 78.06143188476563 21.82634353637695 97.32437896728516
  endloop
endfacet
facet normal 0.7498107552528381 -0.2334453612565994 -0.619101881980896
  outer loop
    vertex 34.30051040649414 20.60614395141602 44.32436370849609
    vertex 77.95127105712891 20.01108169555664 97.41534423828125
    vertex 34.19034576416016 20.01107215881348 44.41532516479492
  endloop
endfacet
facet normal 0.7498107552528381 -0.2334453612565994 -0.619101881980896
  outer loop
    vertex 77.95127105712891 20.01108169555664 97.41534423828125
    vertex 34.30051040649414 20.60614395141602 44.32436370849609
    vertex 78.06143188476563 20.60615348815918 97.32437896728516
  endloop
endfacet
facet normal 0.2950935065746307 0.9238795042037964 -0.243652269244194
  outer loop
    vertex 32.25950241088867 24.92535781860352 46.00957489013672
    vertex 76.45641326904297 24.6911735534668 98.64961242675781
    vertex 32.69549179077148 24.69116401672363 45.64958953857422
  endloop
endfacet
facet normal 0.2950935065746307 0.9238795042037964 -0.243652269244194
  outer loop
    vertex 76.45641326904297 24.6911735534668 98.64961242675781
    vertex 32.25950241088867 24.92535781860352 46.00957489013672
    vertex 76.02043151855469 24.92536926269531 99.00959777832031
  endloop
endfacet
facet normal 0.768739640712738 -0.07845909893512726 -0.6347310543060303
  outer loop
    vertex 34.3375358581543 21.21623802185059 44.29379272460938
    vertex 78.06143188476563 20.60615348815918 97.32437896728516
    vertex 34.30051040649414 20.60614395141602 44.32436370849609
  endloop
endfacet
facet normal 0.768739640712738 -0.07845909893512726 -0.6347310543060303
  outer loop
    vertex 78.06143188476563 20.60615348815918 97.32437896728516
    vertex 34.3375358581543 21.21623802185059 44.29379272460938
    vertex 78.09845733642578 21.21624946594238 97.29380798339844
  endloop
endfacet
facet normal 0.7124190330505371 -0.3826834261417389 -0.5882282853126526
  outer loop
    vertex 34.19034576416016 20.01107215881348 44.41532516479492
    vertex 77.77067565917969 19.44568634033203 97.564453125
    vertex 34.0097541809082 19.44567489624023 44.56443405151367
  endloop
endfacet
facet normal 0.7124190330505371 -0.3826834261417389 -0.5882282853126526
  outer loop
    vertex 77.77067565917969 19.44568634033203 97.564453125
    vertex 34.19034576416016 20.01107215881348 44.41532516479492
    vertex 77.95127105712891 20.01108169555664 97.41534423828125
  endloop
endfacet
facet normal -0.06050122156739235 0.9969173073768616 0.04995429888367653
  outer loop
    vertex 30.85972595214844 25.06822204589844 47.16534042358398
    vertex 75.09110260009766 25.11624908447266 99.77691650390625
    vertex 31.33017921447754 25.11623764038086 46.77689743041992
  endloop
endfacet
facet normal -0.06050122156739235 0.9969173073768616 0.04995429888367653
  outer loop
    vertex 75.09110260009766 25.11624908447266 99.77691650390625
    vertex 30.85972595214844 25.06822204589844 47.16534042358398
    vertex 74.62065124511719 25.06823348999023 100.1653594970703
  endloop
endfacet
facet normal 0.06050102412700653 0.9969173073768616 -0.04995453730225563
  outer loop
    vertex 31.33017921447754 25.11623764038086 46.77689743041992
    vertex 75.56156158447266 25.06823348999023 99.38847351074219
    vertex 31.80063247680664 25.06822204589844 46.38845443725586
  endloop
endfacet
facet normal 0.06050102412700653 0.9969173073768616 -0.04995453730225563
  outer loop
    vertex 75.56156158447266 25.06823348999023 99.38847351074219
    vertex 31.33017921447754 25.11623764038086 46.77689743041992
    vertex 75.09110260009766 25.11624908447266 99.77691650390625
  endloop
endfacet
facet normal 0.4029073119163513 0.8526401519775391 -0.3326717019081116
  outer loop
    vertex 32.69549179077148 24.69116401672363 45.64958953857422
    vertex 76.85878753662109 24.37141418457031 98.3173828125
    vertex 33.09785842895508 24.37140464782715 45.31736373901367
  endloop
endfacet
facet normal 0.4029073119163513 0.8526401519775391 -0.3326717019081116
  outer loop
    vertex 76.85878753662109 24.37141418457031 98.3173828125
    vertex 32.69549179077148 24.69116401672363 45.64958953857422
    vertex 76.45641326904297 24.6911735534668 98.64961242675781
  endloop
endfacet
facet normal 0.6574850678443909 0.5224985480308533 -0.5428707599639893
  outer loop
    vertex 33.76317977905273 23.50860023498535 44.76802062988281
    vertex 77.77067565917969 22.9868106842041 97.564453125
    vertex 34.0097541809082 22.98680114746094 44.56443405151367
  endloop
endfacet
facet normal 0.6574850678443909 0.5224985480308533 -0.5428707599639893
  outer loop
    vertex 77.77067565917969 22.9868106842041 97.564453125
    vertex 33.76317977905273 23.50860023498535 44.76802062988281
    vertex 77.52410888671875 23.50861167907715 97.76804351806641
  endloop
endfacet
facet normal 0.7124189138412476 0.3826834261417389 -0.5882284045219421
  outer loop
    vertex 34.0097541809082 22.98680114746094 44.56443405151367
    vertex 77.95127105712891 22.42141532897949 97.41534423828125
    vertex 34.19034576416016 22.4214038848877 44.41532516479492
  endloop
endfacet
facet normal 0.7124189138412476 0.3826834261417389 -0.5882284045219421
  outer loop
    vertex 77.95127105712891 22.42141532897949 97.41534423828125
    vertex 34.0097541809082 22.98680114746094 44.56443405151367
    vertex 77.77067565917969 22.9868106842041 97.564453125
  endloop
endfacet
facet normal 0.1800135374069214 0.972369909286499 -0.1486333310604095
  outer loop
    vertex 31.80063247680664 25.06822204589844 46.38845443725586
    vertex 76.02043151855469 24.92536926269531 99.00959777832031
    vertex 32.25950241088867 24.92535781860352 46.00957489013672
  endloop
endfacet
facet normal 0.1800135374069214 0.972369909286499 -0.1486333310604095
  outer loop
    vertex 76.02043151855469 24.92536926269531 99.00959777832031
    vertex 31.80063247680664 25.06822204589844 46.38845443725586
    vertex 75.56156158447266 25.06823348999023 99.38847351074219
  endloop
endfacet
facet normal 0.5863617062568665 0.649448037147522 -0.4841458201408386
  outer loop
    vertex 33.45669937133789 23.97395515441895 45.02107620239258
    vertex 77.52410888671875 23.50861167907715 97.76804351806641
    vertex 33.76317977905273 23.50860023498535 44.76802062988281
  endloop
endfacet
facet normal 0.5863617062568665 0.649448037147522 -0.4841458201408386
  outer loop
    vertex 77.52410888671875 23.50861167907715 97.76804351806641
    vertex 33.45669937133789 23.97395515441895 45.02107620239258
    vertex 77.21762847900391 23.97396469116211 98.02109527587891
  endloop
endfacet
facet normal 0.7498106956481934 0.2334453612565994 -0.619101881980896
  outer loop
    vertex 34.19034576416016 22.4214038848877 44.41532516479492
    vertex 78.06143188476563 21.82634353637695 97.32437896728516
    vertex 34.30051040649414 21.82633209228516 44.32436370849609
  endloop
endfacet
facet normal 0.7498106956481934 0.2334453612565994 -0.619101881980896
  outer loop
    vertex 78.06143188476563 21.82634353637695 97.32437896728516
    vertex 34.19034576416016 22.4214038848877 44.41532516479492
    vertex 77.95127105712891 22.42141532897949 97.41534423828125
  endloop
endfacet
facet normal 0.2950936853885651 -0.9238795042037964 -0.2436520457267761
  outer loop
    vertex 76.45641326904297 17.74132347106934 98.64961242675781
    vertex 32.25950241088867 17.50711822509766 46.00957489013672
    vertex 32.69549179077148 17.74131202697754 45.64958953857422
  endloop
endfacet
facet normal 0.2950936853885651 -0.9238795042037964 -0.2436520457267761
  outer loop
    vertex 32.25950241088867 17.50711822509766 46.00957489013672
    vertex 76.45641326904297 17.74132347106934 98.64961242675781
    vertex 76.02043151855469 17.50712776184082 99.00959777832031
  endloop
endfacet
facet normal 0.1800137311220169 -0.972369909286499 -0.1486330926418304
  outer loop
    vertex 76.02043151855469 17.50712776184082 99.00959777832031
    vertex 31.80063438415527 17.36425399780273 46.38845443725586
    vertex 32.25950241088867 17.50711822509766 46.00957489013672
  endloop
endfacet
facet normal 0.1800137311220169 -0.972369909286499 -0.1486330926418304
  outer loop
    vertex 31.80063438415527 17.36425399780273 46.38845443725586
    vertex 76.02043151855469 17.50712776184082 99.00959777832031
    vertex 75.56156158447266 17.3642635345459 99.38847351074219
  endloop
endfacet
facet normal 0.06050122156739235 -0.9969173073768616 -0.04995429888367653
  outer loop
    vertex 75.56156158447266 17.3642635345459 99.38847351074219
    vertex 31.33017921447754 17.31623840332031 46.77689743041992
    vertex 31.80063438415527 17.36425399780273 46.38845443725586
  endloop
endfacet
facet normal 0.06050122156739235 -0.9969173073768616 -0.04995429888367653
  outer loop
    vertex 31.33017921447754 17.31623840332031 46.77689743041992
    vertex 75.56156158447266 17.3642635345459 99.38847351074219
    vertex 75.09110260009766 17.31624794006348 99.77691650390625
  endloop
endfacet
facet normal -0.06050102412700653 -0.9969173073768616 0.04995453730225563
  outer loop
    vertex 75.09110260009766 17.31624794006348 99.77691650390625
    vertex 30.85972595214844 17.36425399780273 47.16534042358398
    vertex 31.33017921447754 17.31623840332031 46.77689743041992
  endloop
endfacet
facet normal -0.06050102412700653 -0.9969173073768616 0.04995453730225563
  outer loop
    vertex 30.85972595214844 17.36425399780273 47.16534042358398
    vertex 75.09110260009766 17.31624794006348 99.77691650390625
    vertex 74.62065124511719 17.3642635345459 100.1653594970703
  endloop
endfacet
facet normal -0.5008001923561096 -0.760405957698822 0.4134996235370636
  outer loop
    vertex 73.32342529296875 18.06108283996582 101.2364501953125
    vertex 29.20365905761719 18.45852088928223 48.53271865844727
    vertex 29.56250190734863 18.06107139587402 48.23643112182617
  endloop
endfacet
facet normal -0.5008001923561096 -0.760405957698822 0.4134996235370636
  outer loop
    vertex 29.20365905761719 18.45852088928223 48.53271865844727
    vertex 73.32342529296875 18.06108283996582 101.2364501953125
    vertex 72.96458435058594 18.45853233337402 101.5327377319336
  endloop
endfacet
facet normal -0.7498106956481934 -0.2334453612565994 0.619101881980896
  outer loop
    vertex 72.23094177246094 20.01108169555664 102.1384887695313
    vertex 28.35984992980957 20.60614395141602 49.22943115234375
    vertex 28.47001457214355 20.01107215881348 49.13846969604492
  endloop
endfacet
facet normal -0.7498106956481934 -0.2334453612565994 0.619101881980896
  outer loop
    vertex 28.35984992980957 20.60614395141602 49.22943115234375
    vertex 72.23094177246094 20.01108169555664 102.1384887695313
    vertex 72.12077331542969 20.60615348815918 102.2294540405273
  endloop
endfacet
facet normal -0.7498107552528381 0.2334453612565994 0.619101881980896
  outer loop
    vertex 72.12077331542969 21.82634353637695 102.2294540405273
    vertex 28.47001457214355 22.4214038848877 49.13846969604492
    vertex 28.35984992980957 21.82633209228516 49.22943115234375
  endloop
endfacet
facet normal -0.7498107552528381 0.2334453612565994 0.619101881980896
  outer loop
    vertex 28.47001457214355 22.4214038848877 49.13846969604492
    vertex 72.12077331542969 21.82634353637695 102.2294540405273
    vertex 72.23094177246094 22.42141532897949 102.1384887695313
  endloop
endfacet
facet normal -0.768739640712738 -0.07845909893512726 0.6347310543060303
  outer loop
    vertex 72.12077331542969 20.60615348815918 102.2294540405273
    vertex 28.32282447814941 21.21623802185059 49.26000213623047
    vertex 28.35984992980957 20.60614395141602 49.22943115234375
  endloop
endfacet
facet normal -0.768739640712738 -0.07845909893512726 0.6347310543060303
  outer loop
    vertex 28.32282447814941 21.21623802185059 49.26000213623047
    vertex 72.12077331542969 20.60615348815918 102.2294540405273
    vertex 72.08374786376953 21.21624755859375 102.2600250244141
  endloop
endfacet
facet normal -0.7124190330505371 0.3826834261417389 0.5882282853126526
  outer loop
    vertex 72.23094177246094 22.42141532897949 102.1384887695313
    vertex 28.65060615539551 22.98680114746094 48.98936080932617
    vertex 28.47001457214355 22.4214038848877 49.13846969604492
  endloop
endfacet
facet normal -0.7124190330505371 0.3826834261417389 0.5882282853126526
  outer loop
    vertex 28.65060615539551 22.98680114746094 48.98936080932617
    vertex 72.23094177246094 22.42141532897949 102.1384887695313
    vertex 72.41152954101563 22.9868106842041 101.9893798828125
  endloop
endfacet
facet normal -0.6574851274490356 0.5224985480308533 0.5428706407546997
  outer loop
    vertex 72.41152954101563 22.9868106842041 101.9893798828125
    vertex 28.89717864990234 23.50860023498535 48.78577041625977
    vertex 28.65060615539551 22.98680114746094 48.98936080932617
  endloop
endfacet
facet normal -0.6574851274490356 0.5224985480308533 0.5428706407546997
  outer loop
    vertex 28.89717864990234 23.50860023498535 48.78577041625977
    vertex 72.41152954101563 22.9868106842041 101.9893798828125
    vertex 72.65810394287109 23.50861167907715 101.7857894897461
  endloop
endfacet
facet normal -0.586361825466156 0.649448037147522 0.4841456711292267
  outer loop
    vertex 28.89717864990234 23.50860023498535 48.78577041625977
    vertex 72.96458435058594 23.97396469116211 101.5327377319336
    vertex 29.20365905761719 23.97395515441895 48.53271865844727
  endloop
endfacet
facet normal -0.586361825466156 0.649448037147522 0.4841456711292267
  outer loop
    vertex 72.96458435058594 23.97396469116211 101.5327377319336
    vertex 28.89717864990234 23.50860023498535 48.78577041625977
    vertex 72.65810394287109 23.50861167907715 101.7857894897461
  endloop
endfacet
facet normal -0.5008003115653992 0.760405957698822 0.4134994447231293
  outer loop
    vertex 29.20365905761719 23.97395515441895 48.53271865844727
    vertex 73.32342529296875 24.37141418457031 101.2364501953125
    vertex 29.5625 24.37140464782715 48.23643112182617
  endloop
endfacet
facet normal -0.5008003115653992 0.760405957698822 0.4134994447231293
  outer loop
    vertex 73.32342529296875 24.37141418457031 101.2364501953125
    vertex 29.20365905761719 23.97395515441895 48.53271865844727
    vertex 72.96458435058594 23.97396469116211 101.5327377319336
  endloop
endfacet
facet normal -0.4029074609279633 0.8526401519775391 0.3326714932918549
  outer loop
    vertex 29.5625 24.37140464782715 48.23643112182617
    vertex 73.72579193115234 24.6911735534668 100.9042205810547
    vertex 29.96486854553223 24.69116401672363 47.90420150756836
  endloop
endfacet
facet normal -0.4029074609279633 0.8526401519775391 0.3326714932918549
  outer loop
    vertex 73.72579193115234 24.6911735534668 100.9042205810547
    vertex 29.5625 24.37140464782715 48.23643112182617
    vertex 73.32342529296875 24.37141418457031 101.2364501953125
  endloop
endfacet
facet normal -0.2950936853885651 0.9238795042037964 0.2436520457267761
  outer loop
    vertex 29.96486854553223 24.69116401672363 47.90420150756836
    vertex 74.16178131103516 24.92536926269531 100.5442352294922
    vertex 30.40085601806641 24.92535781860352 47.54421997070313
  endloop
endfacet
facet normal -0.2950936853885651 0.9238795042037964 0.2436520457267761
  outer loop
    vertex 74.16178131103516 24.92536926269531 100.5442352294922
    vertex 29.96486854553223 24.69116401672363 47.90420150756836
    vertex 73.72579193115234 24.6911735534668 100.9042205810547
  endloop
endfacet
facet normal 0.586361825466156 -0.649448037147522 -0.4841456711292267
  outer loop
    vertex 77.52410888671875 18.92388534545898 97.76804351806641
    vertex 33.45670318603516 18.45852088928223 45.02107620239258
    vertex 33.76317977905273 18.92387580871582 44.76802444458008
  endloop
endfacet
facet normal 0.586361825466156 -0.649448037147522 -0.4841456711292267
  outer loop
    vertex 33.45670318603516 18.45852088928223 45.02107620239258
    vertex 77.52410888671875 18.92388534545898 97.76804351806641
    vertex 77.21762847900391 18.45853233337402 98.02109527587891
  endloop
endfacet
facet normal -0.7124189138412476 -0.3826834261417389 0.5882284045219421
  outer loop
    vertex 72.41152954101563 19.44568634033203 101.9893798828125
    vertex 28.47001457214355 20.01107215881348 49.13846969604492
    vertex 28.65060615539551 19.44567489624023 48.98936080932617
  endloop
endfacet
facet normal -0.7124189138412476 -0.3826834261417389 0.5882284045219421
  outer loop
    vertex 28.47001457214355 20.01107215881348 49.13846969604492
    vertex 72.41152954101563 19.44568634033203 101.9893798828125
    vertex 72.23094177246094 20.01108169555664 102.1384887695313
  endloop
endfacet
facet normal -0.6574850678443909 -0.5224985480308533 0.5428707599639893
  outer loop
    vertex 72.65810394287109 18.92388534545898 101.7857894897461
    vertex 28.65060615539551 19.44567489624023 48.98936080932617
    vertex 28.89717864990234 18.92387580871582 48.78577423095703
  endloop
endfacet
facet normal -0.6574850678443909 -0.5224985480308533 0.5428707599639893
  outer loop
    vertex 28.65060615539551 19.44567489624023 48.98936080932617
    vertex 72.65810394287109 18.92388534545898 101.7857894897461
    vertex 72.41152954101563 19.44568634033203 101.9893798828125
  endloop
endfacet
facet normal -0.4029073119163513 -0.8526401519775391 0.3326717019081116
  outer loop
    vertex 73.72579193115234 17.74132347106934 100.9042205810547
    vertex 29.56250190734863 18.06107139587402 48.23643112182617
    vertex 29.96486854553223 17.74131202697754 47.90420532226563
  endloop
endfacet
facet normal -0.4029073119163513 -0.8526401519775391 0.3326717019081116
  outer loop
    vertex 29.56250190734863 18.06107139587402 48.23643112182617
    vertex 73.72579193115234 17.74132347106934 100.9042205810547
    vertex 73.32342529296875 18.06108283996582 101.2364501953125
  endloop
endfacet
facet normal -0.5863617062568665 -0.649448037147522 0.4841458201408386
  outer loop
    vertex 72.96458435058594 18.45853233337402 101.5327377319336
    vertex 28.89717864990234 18.92387580871582 48.78577423095703
    vertex 29.20365905761719 18.45852088928223 48.53271865844727
  endloop
endfacet
facet normal -0.5863617062568665 -0.649448037147522 0.4841458201408386
  outer loop
    vertex 28.89717864990234 18.92387580871582 48.78577423095703
    vertex 72.96458435058594 18.45853233337402 101.5327377319336
    vertex 72.65810394287109 18.92388534545898 101.7857894897461
  endloop
endfacet
facet normal -0.1800135374069214 -0.972369909286499 0.1486333310604095
  outer loop
    vertex 74.62065124511719 17.3642635345459 100.1653594970703
    vertex 30.40085601806641 17.50711822509766 47.54421997070313
    vertex 30.85972595214844 17.36425399780273 47.16534042358398
  endloop
endfacet
facet normal -0.1800135374069214 -0.972369909286499 0.1486333310604095
  outer loop
    vertex 30.40085601806641 17.50711822509766 47.54421997070313
    vertex 74.62065124511719 17.3642635345459 100.1653594970703
    vertex 74.16178131103516 17.50712776184082 100.5442352294922
  endloop
endfacet
facet normal -0.2950935065746307 -0.9238795042037964 0.243652269244194
  outer loop
    vertex 74.16178131103516 17.50712776184082 100.5442352294922
    vertex 29.96486854553223 17.74131202697754 47.90420532226563
    vertex 30.40085601806641 17.50711822509766 47.54421997070313
  endloop
endfacet
facet normal -0.2950935065746307 -0.9238795042037964 0.243652269244194
  outer loop
    vertex 29.96486854553223 17.74131202697754 47.90420532226563
    vertex 74.16178131103516 17.50712776184082 100.5442352294922
    vertex 73.72579193115234 17.74132347106934 100.9042205810547
  endloop
endfacet
facet normal -0.768739640712738 0.07845909893512726 0.6347310543060303
  outer loop
    vertex 72.08374786376953 21.21624755859375 102.2600250244141
    vertex 28.35984992980957 21.82633209228516 49.22943115234375
    vertex 28.32282447814941 21.21623802185059 49.26000213623047
  endloop
endfacet
facet normal -0.768739640712738 0.07845909893512726 0.6347310543060303
  outer loop
    vertex 28.35984992980957 21.82633209228516 49.22943115234375
    vertex 72.08374786376953 21.21624755859375 102.2600250244141
    vertex 72.12077331542969 21.82634353637695 102.2294540405273
  endloop
endfacet
facet normal 0.6574851274490356 -0.5224985480308533 -0.5428706407546997
  outer loop
    vertex 34.0097541809082 19.44567489624023 44.56443405151367
    vertex 77.52410888671875 18.92388534545898 97.76804351806641
    vertex 33.76317977905273 18.92387580871582 44.76802444458008
  endloop
endfacet
facet normal 0.6574851274490356 -0.5224985480308533 -0.5428706407546997
  outer loop
    vertex 77.52410888671875 18.92388534545898 97.76804351806641
    vertex 34.0097541809082 19.44567489624023 44.56443405151367
    vertex 77.77067565917969 19.44568634033203 97.564453125
  endloop
endfacet
facet normal 0.4029074609279633 -0.8526401519775391 -0.3326714932918549
  outer loop
    vertex 76.85878753662109 18.06108283996582 98.3173828125
    vertex 32.69549179077148 17.74131202697754 45.64958953857422
    vertex 33.09785842895508 18.06107139587402 45.31736373901367
  endloop
endfacet
facet normal 0.4029074609279633 -0.8526401519775391 -0.3326714932918549
  outer loop
    vertex 32.69549179077148 17.74131202697754 45.64958953857422
    vertex 76.85878753662109 18.06108283996582 98.3173828125
    vertex 76.45641326904297 17.74132347106934 98.64961242675781
  endloop
endfacet
facet normal 0.5008003115653992 -0.760405957698822 -0.4134994447231293
  outer loop
    vertex 77.21762847900391 18.45853233337402 98.02109527587891
    vertex 33.09785842895508 18.06107139587402 45.31736373901367
    vertex 33.45670318603516 18.45852088928223 45.02107620239258
  endloop
endfacet
facet normal 0.5008003115653992 -0.760405957698822 -0.4134994447231293
  outer loop
    vertex 33.09785842895508 18.06107139587402 45.31736373901367
    vertex 77.21762847900391 18.45853233337402 98.02109527587891
    vertex 76.85878753662109 18.06108283996582 98.3173828125
  endloop
endfacet
facet normal -0.1800137311220169 0.972369909286499 0.1486330926418304
  outer loop
    vertex 30.40085601806641 24.92535781860352 47.54421997070313
    vertex 74.62065124511719 25.06823348999023 100.1653594970703
    vertex 30.85972595214844 25.06822204589844 47.16534042358398
  endloop
endfacet
facet normal -0.1800137311220169 0.972369909286499 0.1486330926418304
  outer loop
    vertex 74.62065124511719 25.06823348999023 100.1653594970703
    vertex 30.40085601806641 24.92535781860352 47.54421997070313
    vertex 74.16178131103516 24.92536926269531 100.5442352294922
  endloop
endfacet
endsolid 8B09
