solid 5A9B
facet normal 3.640380441538582e-07 -0.5556890964508057 0.8313902020454407
  outer loop
    vertex 145.5273895263672 49.39047622680664 216.1362152099609
    vertex 145.5272979736328 49.88056182861328 216.4637908935547
    vertex 140.7843170166016 49.39047622680664 216.1362152099609
  endloop
endfacet
facet normal 8.197947920507431e-08 1 -8.054605018514849e-07
  outer loop
    vertex 145.5261993408203 47.30137634277344 220.0779571533203
    vertex 147.940185546875 47.30137634277344 217.5316619873047
    vertex 145.5269622802734 47.30137634277344 217.5316619873047
  endloop
endfacet
facet normal 2.406773319307831e-06 0.5556920766830444 -0.8313881754875183
  outer loop
    vertex 153.0384063720703 47.74370193481445 221.1462860107422
    vertex 147.9389953613281 48.23378753662109 221.4738464355469
    vertex 153.0383148193359 48.23378372192383 221.4738616943359
  endloop
endfacet
facet normal -3.313683976102766e-07 0.5556794404983521 -0.8313966393470764
  outer loop
    vertex 147.9390869140625 47.74370574951172 221.1462860107422
    vertex 145.5258636474609 47.74370574951172 221.1462860107422
    vertex 145.5257720947266 48.23378753662109 221.4738311767578
  endloop
endfacet
facet normal 1.527219978925132e-06 0.5556857585906982 -0.8313924074172974
  outer loop
    vertex 147.9390869140625 47.74370574951172 221.1462860107422
    vertex 145.5257720947266 48.23378753662109 221.4738311767578
    vertex 147.9389953613281 48.23378753662109 221.4738464355469
  endloop
endfacet
facet normal 8.197947920507431e-08 1 -8.054605018514849e-07
  outer loop
    vertex 153.0387573242188 47.30137634277344 220.0779724121094
    vertex 153.0395050048828 47.30137634277344 217.5316619873047
    vertex 147.9394226074219 47.30137634277344 220.0779571533203
  endloop
endfacet
facet normal -8.197947920507431e-08 -1 8.054605018514849e-07
  outer loop
    vertex 153.0387420654297 50.3228874206543 220.0784301757813
    vertex 147.9394073486328 50.3228874206543 220.0784149169922
    vertex 147.940185546875 50.3228874206543 217.5321350097656
  endloop
endfacet
facet normal 8.197947920507431e-08 1 -8.054605018514849e-07
  outer loop
    vertex 145.5261993408203 47.30137634277344 220.0779571533203
    vertex 145.5269622802734 47.30137634277344 217.5316619873047
    vertex 140.7831420898438 47.30137634277344 220.0779418945313
  endloop
endfacet
facet normal 8.197947920507431e-08 1 -8.054605018514849e-07
  outer loop
    vertex 147.9394226074219 47.30137634277344 220.0779571533203
    vertex 147.940185546875 47.30137634277344 217.5316619873047
    vertex 145.5261993408203 47.30137634277344 220.0779571533203
  endloop
endfacet
facet normal 1.527219978925132e-06 0.5556857585906982 -0.8313924074172974
  outer loop
    vertex 153.0384063720703 47.74370193481445 221.1462860107422
    vertex 147.9390869140625 47.74370574951172 221.1462860107422
    vertex 147.9389953613281 48.23378753662109 221.4738464355469
  endloop
endfacet
facet normal -9.222006269737903e-07 0.831377387046814 0.5557081699371338
  outer loop
    vertex 145.5271453857422 47.41646194458008 216.9535522460938
    vertex 147.9405212402344 47.7440299987793 216.4634857177734
    vertex 145.5272979736328 47.7440299987793 216.4634857177734
  endloop
endfacet
facet normal -8.197947920507431e-08 -1 8.054605018514849e-07
  outer loop
    vertex 153.0387420654297 50.3228874206543 220.0784301757813
    vertex 147.940185546875 50.3228874206543 217.5321350097656
    vertex 153.0395202636719 50.3228874206543 217.5321350097656
  endloop
endfacet
facet normal -3.419281711103395e-07 -0.8313830494880676 -0.5556997656822205
  outer loop
    vertex 145.5258636474609 49.8802375793457 221.1466064453125
    vertex 140.782958984375 50.20780563354492 220.6565246582031
    vertex 145.5260314941406 50.20780181884766 220.6565246582031
  endloop
endfacet
facet normal 8.197947920507431e-08 1 -8.054605018514849e-07
  outer loop
    vertex 147.9394226074219 47.30137634277344 220.0779571533203
    vertex 153.0395050048828 47.30137634277344 217.5316619873047
    vertex 147.940185546875 47.30137634277344 217.5316619873047
  endloop
endfacet
facet normal -8.197947920507431e-08 -1 8.054605018514849e-07
  outer loop
    vertex 147.9394073486328 50.3228874206543 220.0784149169922
    vertex 145.5261840820313 50.3228874206543 220.0784149169922
    vertex 145.5269775390625 50.3228874206543 217.5321350097656
  endloop
endfacet
facet normal -8.197947920507431e-08 -1 8.054605018514849e-07
  outer loop
    vertex 147.9394073486328 50.3228874206543 220.0784149169922
    vertex 145.5269775390625 50.3228874206543 217.5321350097656
    vertex 147.940185546875 50.3228874206543 217.5321350097656
  endloop
endfacet
facet normal -1.527237373011303e-06 -0.5556701421737671 0.8314028382301331
  outer loop
    vertex 153.0399322509766 49.39047241210938 216.1362457275391
    vertex 153.0398406982422 49.88055801391602 216.4637908935547
    vertex 147.9406127929688 49.39047241210938 216.13623046875
  endloop
endfacet
facet normal -2.472877895343117e-06 -0.5556701421737671 0.8314028382301331
  outer loop
    vertex 145.5272979736328 49.88056182861328 216.4637908935547
    vertex 140.7842254638672 49.88056182861328 216.4637756347656
    vertex 140.7843170166016 49.39047622680664 216.1362152099609
  endloop
endfacet
facet normal -0.9999999403953552 0.0002629262453410774 0.0001116069906856865
  outer loop
    vertex 147.9406127929688 48.23419570922852 216.1360626220703
    vertex 147.9398040771484 45.01078033447266 216.4715270996094
    vertex 147.9405212402344 47.7440299987793 216.4634857177734
  endloop
endfacet
facet normal 2.186367964895908e-06 -0.8313717842102051 -0.5557166337966919
  outer loop
    vertex 145.5258636474609 49.8802375793457 221.1466064453125
    vertex 140.7827911376953 49.8802375793457 221.1465911865234
    vertex 140.782958984375 50.20780563354492 220.6565246582031
  endloop
endfacet
facet normal -6.476570320046449e-07 -0.5556764602661133 0.831398606300354
  outer loop
    vertex 153.0398406982422 49.88055801391602 216.4637908935547
    vertex 147.9405212402344 49.88056182861328 216.4637908935547
    vertex 147.9406127929688 49.39047241210938 216.13623046875
  endloop
endfacet
facet normal -3.342913998949371e-07 0.831377387046814 0.5557081699371338
  outer loop
    vertex 153.0396881103516 47.41646194458008 216.9535522460938
    vertex 153.0398406982422 47.74402618408203 216.4634857177734
    vertex 147.9403686523438 47.41646194458008 216.9535522460938
  endloop
endfacet
facet normal -9.222006269737903e-07 0.831377387046814 0.5557081699371338
  outer loop
    vertex 147.9403686523438 47.41646194458008 216.9535522460938
    vertex 147.9405212402344 47.7440299987793 216.4634857177734
    vertex 145.5271453857422 47.41646194458008 216.9535522460938
  endloop
endfacet
facet normal -3.342913998949371e-07 0.831377387046814 0.5557081699371338
  outer loop
    vertex 147.9403686523438 47.41646194458008 216.9535522460938
    vertex 153.0398406982422 47.74402618408203 216.4634857177734
    vertex 147.9405212402344 47.7440299987793 216.4634857177734
  endloop
endfacet
facet normal 2.675428447673767e-07 -0.9807559251785278 -0.195237934589386
  outer loop
    vertex 153.0385589599609 50.20780181884766 220.6565399169922
    vertex 147.9392547607422 50.20780181884766 220.6565399169922
    vertex 147.9394073486328 50.3228874206543 220.0784149169922
  endloop
endfacet
facet normal -2.67545971155414e-07 0.9807555675506592 0.1952396929264069
  outer loop
    vertex 145.5269622802734 47.30137634277344 217.5316619873047
    vertex 147.9403686523438 47.41646194458008 216.9535522460938
    vertex 145.5271453857422 47.41646194458008 216.9535522460938
  endloop
endfacet
facet normal -6.340595746223698e-07 -0.9808146357536316 0.1949426531791687
  outer loop
    vertex 153.0395202636719 50.3228874206543 217.5321350097656
    vertex 147.9403533935547 50.20797729492188 216.9539642333984
    vertex 153.0396881103516 50.20797729492188 216.9539794921875
  endloop
endfacet
facet normal 1.76385140093771e-06 0.1952668875455856 -0.9807501435279846
  outer loop
    vertex 147.9389953613281 48.23378753662109 221.4738464355469
    vertex 145.5257415771484 48.81190490722656 221.5889434814453
    vertex 147.93896484375 48.81190490722656 221.5889434814453
  endloop
endfacet
facet normal -4.278130347756814e-07 -0.9808157086372375 0.1949374079704285
  outer loop
    vertex 147.940185546875 50.3228874206543 217.5321350097656
    vertex 145.5269775390625 50.3228874206543 217.5321350097656
    vertex 145.5271453857422 50.20797729492188 216.9539642333984
  endloop
endfacet
facet normal 1.73197656749835e-06 -0.1949454843997955 -0.9808140993118286
  outer loop
    vertex 147.93896484375 48.81190490722656 221.5889434814453
    vertex 145.5257415771484 48.81190490722656 221.5889434814453
    vertex 145.5257720947266 49.39006805419922 221.4740295410156
  endloop
endfacet
facet normal 2.675428447673767e-07 -0.9807559251785278 -0.195237934589386
  outer loop
    vertex 147.9392547607422 50.20780181884766 220.6565399169922
    vertex 145.5261840820313 50.3228874206543 220.0784149169922
    vertex 147.9394073486328 50.3228874206543 220.0784149169922
  endloop
endfacet
facet normal -0.9999999403953552 -0.0002422245888737962 8.076717494986951e-05
  outer loop
    vertex 147.9398193359375 52.77756118774414 216.4715270996094
    vertex 147.9406127929688 49.39047241210938 216.13623046875
    vertex 147.9405212402344 49.88056182861328 216.4637908935547
  endloop
endfacet
facet normal 4.278363974208332e-07 0.9808130860328674 -0.1949506253004074
  outer loop
    vertex 147.9392547607422 47.41629028320313 220.6560974121094
    vertex 153.0387573242188 47.30137634277344 220.0779724121094
    vertex 147.9394226074219 47.30137634277344 220.0779571533203
  endloop
endfacet
facet normal 2.675428447673767e-07 -0.9807559251785278 -0.195237934589386
  outer loop
    vertex 153.0385589599609 50.20780181884766 220.6565399169922
    vertex 147.9394073486328 50.3228874206543 220.0784149169922
    vertex 153.0387420654297 50.3228874206543 220.0784301757813
  endloop
endfacet
facet normal 6.943292873984319e-07 -0.1949454843997955 -0.9808140993118286
  outer loop
    vertex 153.0383148193359 49.39006423950195 221.4740295410156
    vertex 153.0382843017578 48.81190490722656 221.5889434814453
    vertex 147.9389953613281 49.39006805419922 221.4740295410156
  endloop
endfacet
facet normal 4.278363974208332e-07 0.9808130860328674 -0.1949506253004074
  outer loop
    vertex 145.5260314941406 47.41629028320313 220.6560974121094
    vertex 147.9394226074219 47.30137634277344 220.0779571533203
    vertex 145.5261993408203 47.30137634277344 220.0779571533203
  endloop
endfacet
facet normal 4.278363974208332e-07 0.9808130860328674 -0.1949506253004074
  outer loop
    vertex 147.9392547607422 47.41629028320313 220.6560974121094
    vertex 147.9394226074219 47.30137634277344 220.0779571533203
    vertex 145.5260314941406 47.41629028320313 220.6560974121094
  endloop
endfacet
facet normal -1 -7.76220258558169e-05 1.354327741864836e-05
  outer loop
    vertex 147.9398803710938 52.77753067016602 180.8591156005859
    vertex 147.9406585693359 48.81235504150391 216.0211486816406
    vertex 147.9406127929688 49.39047241210938 216.13623046875
  endloop
endfacet
facet normal -1.763861064318917e-06 -0.1952316761016846 0.9807571768760681
  outer loop
    vertex 153.0399322509766 49.39047241210938 216.1362457275391
    vertex 147.9406127929688 49.39047241210938 216.13623046875
    vertex 147.9406585693359 48.81235504150391 216.0211486816406
  endloop
endfacet
facet normal -1.763861064318917e-06 -0.1952316761016846 0.9807571768760681
  outer loop
    vertex 153.0399780273438 48.81235504150391 216.0211639404297
    vertex 153.0399322509766 49.39047241210938 216.1362457275391
    vertex 147.9406585693359 48.81235504150391 216.0211486816406
  endloop
endfacet
facet normal -6.099235605461217e-08 0.9807555675506592 0.1952396929264069
  outer loop
    vertex 153.0395050048828 47.30137634277344 217.5316619873047
    vertex 153.0396881103516 47.41646194458008 216.9535522460938
    vertex 147.940185546875 47.30137634277344 217.5316619873047
  endloop
endfacet
facet normal 2.675428447673767e-07 -0.9807559251785278 -0.195237934589386
  outer loop
    vertex 147.9392547607422 50.20780181884766 220.6565399169922
    vertex 145.5260314941406 50.20780181884766 220.6565246582031
    vertex 145.5261840820313 50.3228874206543 220.0784149169922
  endloop
endfacet
facet normal -1.731979864416644e-06 0.1949379146099091 0.980815589427948
  outer loop
    vertex 153.0399780273438 48.81235504150391 216.0211639404297
    vertex 147.9406585693359 48.81235504150391 216.0211486816406
    vertex 147.9406127929688 48.23419570922852 216.1360626220703
  endloop
endfacet
facet normal 1.73197656749835e-06 -0.1949454843997955 -0.9808140993118286
  outer loop
    vertex 147.9389953613281 49.39006805419922 221.4740295410156
    vertex 147.93896484375 48.81190490722656 221.5889434814453
    vertex 145.5257720947266 49.39006805419922 221.4740295410156
  endloop
endfacet
facet normal -4.278130347756814e-07 -0.9808157086372375 0.1949374079704285
  outer loop
    vertex 147.940185546875 50.3228874206543 217.5321350097656
    vertex 145.5271453857422 50.20797729492188 216.9539642333984
    vertex 147.9403533935547 50.20797729492188 216.9539642333984
  endloop
endfacet
facet normal 2.801428536258754e-06 0.1952668875455856 -0.9807501435279846
  outer loop
    vertex 153.0383148193359 48.23378372192383 221.4738616943359
    vertex 147.9389953613281 48.23378753662109 221.4738464355469
    vertex 147.93896484375 48.81190490722656 221.5889434814453
  endloop
endfacet
facet normal 7.262732992785459e-07 0.1952492892742157 -0.9807536602020264
  outer loop
    vertex 153.0383148193359 48.23378372192383 221.4738616943359
    vertex 147.93896484375 48.81190490722656 221.5889434814453
    vertex 153.0382843017578 48.81190490722656 221.5889434814453
  endloop
endfacet
facet normal 6.943292873984319e-07 -0.1949454843997955 -0.9808140993118286
  outer loop
    vertex 153.0382843017578 48.81190490722656 221.5889434814453
    vertex 147.93896484375 48.81190490722656 221.5889434814453
    vertex 147.9389953613281 49.39006805419922 221.4740295410156
  endloop
endfacet
facet normal -6.099235605461217e-08 0.9807555675506592 0.1952396929264069
  outer loop
    vertex 147.940185546875 47.30137634277344 217.5316619873047
    vertex 153.0396881103516 47.41646194458008 216.9535522460938
    vertex 147.9403686523438 47.41646194458008 216.9535522460938
  endloop
endfacet
facet normal 6.340780487334996e-07 0.9808133840560913 -0.1949488818645477
  outer loop
    vertex 153.0385589599609 47.41629028320313 220.6561126708984
    vertex 153.0387573242188 47.30137634277344 220.0779724121094
    vertex 147.9392547607422 47.41629028320313 220.6560974121094
  endloop
endfacet
facet normal -2.67545971155414e-07 0.9807555675506592 0.1952396929264069
  outer loop
    vertex 147.940185546875 47.30137634277344 217.5316619873047
    vertex 147.9403686523438 47.41646194458008 216.9535522460938
    vertex 145.5269622802734 47.30137634277344 217.5316619873047
  endloop
endfacet
facet normal -1.534916371781492e-08 -0.9808157086372375 0.1949374079704285
  outer loop
    vertex 147.940185546875 50.3228874206543 217.5321350097656
    vertex 147.9403533935547 50.20797729492188 216.9539642333984
    vertex 153.0395202636719 50.3228874206543 217.5321350097656
  endloop
endfacet
facet normal -1.731979864416644e-06 0.1949379146099091 0.980815589427948
  outer loop
    vertex 153.0399780273438 48.81235504150391 216.0211639404297
    vertex 147.9406127929688 48.23419570922852 216.1360626220703
    vertex 153.0399322509766 48.23419570922852 216.1360778808594
  endloop
endfacet
facet normal 1.76385140093771e-06 0.1952668875455856 -0.9807501435279846
  outer loop
    vertex 147.9389953613281 48.23378753662109 221.4738464355469
    vertex 145.5257720947266 48.23378753662109 221.4738311767578
    vertex 145.5257415771484 48.81190490722656 221.5889434814453
  endloop
endfacet
facet normal -1.645662791815994e-06 -0.8315582275390625 0.5554375648498535
  outer loop
    vertex 153.0396881103516 50.20797729492188 216.9539794921875
    vertex 147.9403533935547 50.20797729492188 216.9539642333984
    vertex 147.9405212402344 49.88056182861328 216.4637908935547
  endloop
endfacet
facet normal -5.566755021391145e-07 0.5554538369178772 0.8315473794937134
  outer loop
    vertex 153.0399322509766 48.23419570922852 216.1360778808594
    vertex 147.9405212402344 47.7440299987793 216.4634857177734
    vertex 153.0398406982422 47.74402618408203 216.4634857177734
  endloop
endfacet
facet normal -1.058042585100338e-06 -0.8315582275390625 0.5554375648498535
  outer loop
    vertex 147.9403533935547 50.20797729492188 216.9539642333984
    vertex 145.5271453857422 50.20797729492188 216.9539642333984
    vertex 145.5272979736328 49.88056182861328 216.4637908935547
  endloop
endfacet
facet normal -1.058042585100338e-06 -0.8315582275390625 0.5554375648498535
  outer loop
    vertex 147.9403533935547 50.20797729492188 216.9539642333984
    vertex 145.5272979736328 49.88056182861328 216.4637908935547
    vertex 147.9405212402344 49.88056182861328 216.4637908935547
  endloop
endfacet
facet normal -1 7.787621871102601e-05 1.404841896146536e-05
  outer loop
    vertex 147.9406585693359 48.81235504150391 216.0211486816406
    vertex 147.9398651123047 45.01074981689453 180.859130859375
    vertex 147.9406127929688 48.23419570922852 216.1360626220703
  endloop
endfacet
facet normal 1 -8.21657692995359e-08 -0.000231283251196146
  outer loop
    vertex 145.5265960693359 52.77755737304688 212.4101867675781
    vertex 145.5274353027344 48.81235504150391 216.0211486816406
    vertex 145.5265960693359 45.01077651977539 212.4102020263672
  endloop
endfacet
facet normal -1.436399088561302e-06 0.5554601550102234 0.8315431475639343
  outer loop
    vertex 153.0399322509766 48.23419570922852 216.1360778808594
    vertex 147.9406127929688 48.23419570922852 216.1360626220703
    vertex 147.9405212402344 47.7440299987793 216.4634857177734
  endloop
endfacet
facet normal -0.9999999403953552 0.0002511258062440902 -1.7823521147875e-06
  outer loop
    vertex 147.9406127929688 48.23419570922852 216.1360626220703
    vertex 147.9398651123047 45.01074981689453 180.859130859375
    vertex 147.9398040771484 45.01078033447266 216.4715270996094
  endloop
endfacet
facet normal 1 0.0001145661080954596 -0.0001053877203958109
  outer loop
    vertex 145.5265960693359 52.77755737304688 212.4101867675781
    vertex 145.5273895263672 49.39047622680664 216.1362152099609
    vertex 145.5274353027344 48.81235504150391 216.0211486816406
  endloop
endfacet
facet normal 1 -0.0001232679933309555 -0.0001015941306832246
  outer loop
    vertex 145.5274353027344 48.81235504150391 216.0211486816406
    vertex 145.5273742675781 48.23419952392578 216.1360473632813
    vertex 145.5265960693359 45.01077651977539 212.4102020263672
  endloop
endfacet
facet normal 1.645664610805397e-06 0.8315584063529968 -0.5554373264312744
  outer loop
    vertex 147.9390869140625 47.74370574951172 221.1462860107422
    vertex 153.0385589599609 47.41629028320313 220.6561126708984
    vertex 147.9392547607422 47.41629028320313 220.6560974121094
  endloop
endfacet
facet normal 1 2.802965173032135e-05 -3.365751126693795e-07
  outer loop
    vertex 153.7872772216797 46.62593460083008 220.0780639648438
    vertex 153.7873229980469 45.01077270507813 216.4715423583984
    vertex 153.7872772216797 46.62593460083008 217.5317840576172
  endloop
endfacet
facet normal 1.058034854395373e-06 0.8315612077713013 -0.5554330945014954
  outer loop
    vertex 145.5258636474609 47.74370574951172 221.1462860107422
    vertex 147.9392547607422 47.41629028320313 220.6560974121094
    vertex 145.5260314941406 47.41629028320313 220.6560974121094
  endloop
endfacet
facet normal 1 0.0001905189419630915 -3.634408130892552e-05
  outer loop
    vertex 145.5265960693359 52.77755737304688 212.4101867675781
    vertex 145.5272979736328 49.88056182861328 216.4637908935547
    vertex 145.5273895263672 49.39047622680664 216.1362152099609
  endloop
endfacet
facet normal 0.9999999403953552 -0.0002566755283623934 4.54023137308468e-07
  outer loop
    vertex 145.5272979736328 47.7440299987793 216.4634857177734
    vertex 145.5265960693359 45.01078033447266 216.4715270996094
    vertex 145.5265960693359 45.01077651977539 212.4102020263672
  endloop
endfacet
facet normal -2.281431761730346e-06 -0.5554664731025696 -0.8315389156341553
  outer loop
    vertex 147.9391021728516 49.8802375793457 221.1465911865234
    vertex 147.9389953613281 49.39006805419922 221.4740295410156
    vertex 145.5258636474609 49.8802375793457 221.1466064453125
  endloop
endfacet
facet normal -1.836426690715598e-07 0.8315584063529968 -0.5554373264312744
  outer loop
    vertex 145.5258636474609 47.74370574951172 221.1462860107422
    vertex 147.9390869140625 47.74370574951172 221.1462860107422
    vertex 147.9392547607422 47.41629028320313 220.6560974121094
  endloop
endfacet
facet normal 1.058049406310602e-06 0.8315556049346924 -0.5554415583610535
  outer loop
    vertex 153.0384063720703 47.74370193481445 221.1462860107422
    vertex 153.0385589599609 47.41629028320313 220.6561126708984
    vertex 147.9390869140625 47.74370574951172 221.1462860107422
  endloop
endfacet
facet normal 1.436399088561302e-06 -0.5554601550102234 -0.8315431475639343
  outer loop
    vertex 153.0384063720703 49.88023376464844 221.1466064453125
    vertex 153.0383148193359 49.39006423950195 221.4740295410156
    vertex 147.9391021728516 49.8802375793457 221.1465911865234
  endloop
endfacet
facet normal 1 1.844103462644853e-05 -1.051168965204852e-06
  outer loop
    vertex 153.7872924804688 47.26649475097656 215.9860229492188
    vertex 153.7872924804688 46.79247665405273 216.6952209472656
    vertex 153.7873229980469 45.01077270507813 216.4715423583984
  endloop
endfacet
facet normal 1 2.03130239242455e-05 3.119273287666147e-06
  outer loop
    vertex 153.7872772216797 46.62593460083008 220.0780639648438
    vertex 153.7873077392578 45.01078033447266 224.5406951904297
    vertex 153.7873229980469 45.01077270507813 216.4715423583984
  endloop
endfacet
facet normal 1 1.898583286674693e-05 1.479997422393353e-06
  outer loop
    vertex 153.7872924804688 47.26649475097656 215.9860229492188
    vertex 153.7873229980469 45.01077270507813 216.4715423583984
    vertex 153.7873840332031 45.01074600219727 180.7606353759766
  endloop
endfacet
facet normal 1 1.069828522304306e-05 -3.605727272315562e-07
  outer loop
    vertex 153.7872772216797 46.79222869873047 220.9147033691406
    vertex 153.7873077392578 45.01078033447266 224.5406951904297
    vertex 153.7872772216797 46.62593460083008 220.0780639648438
  endloop
endfacet
facet normal 1.436407046639943e-06 -0.5554538369178772 -0.8315473794937134
  outer loop
    vertex 147.9389953613281 49.39006805419922 221.4740295410156
    vertex 145.5257720947266 49.39006805419922 221.4740295410156
    vertex 145.5258636474609 49.8802375793457 221.1466064453125
  endloop
endfacet
facet normal 1 1.289578904106747e-05 7.190611768237432e-07
  outer loop
    vertex 153.7872772216797 47.26602935791016 221.6240386962891
    vertex 153.7873077392578 45.01078033447266 224.5406951904297
    vertex 153.7872772216797 46.79222869873047 220.9147033691406
  endloop
endfacet
facet normal 1 -2.064341373397838e-07 -9.411993232788518e-06
  outer loop
    vertex 153.7872772216797 47.97521591186523 222.0980834960938
    vertex 153.7873077392578 45.01078033447266 224.5406951904297
    vertex 153.7872772216797 47.26602935791016 221.6240386962891
  endloop
endfacet
facet normal 1 6.169407697598217e-06 3.7080113202137e-07
  outer loop
    vertex 153.7872619628906 52.77756500244141 224.5406951904297
    vertex 153.7873077392578 45.01078033447266 224.5406951904297
    vertex 153.7872772216797 48.81180572509766 222.2646331787109
  endloop
endfacet
facet normal 1 6.607657724089222e-06 1.78214452262182e-06
  outer loop
    vertex 153.7872619628906 52.77755737304688 216.4715270996094
    vertex 153.7872924804688 50.35823440551758 215.9864959716797
    vertex 153.7873382568359 52.77753067016602 180.7606353759766
  endloop
endfacet
facet normal 1 1.688667225607787e-06 -7.112034381862031e-06
  outer loop
    vertex 153.7872772216797 48.81180572509766 222.2646331787109
    vertex 153.7873077392578 45.01078033447266 224.5406951904297
    vertex 153.7872772216797 47.97521591186523 222.0980834960938
  endloop
endfacet
facet normal -1 -0.0002340829960303381 -1.478988338021736e-06
  outer loop
    vertex 147.9398193359375 52.77756118774414 216.4715270996094
    vertex 147.9398803710938 52.77753067016602 180.8591156005859
    vertex 147.9406127929688 49.39047241210938 216.13623046875
  endloop
endfacet
facet normal -4.704153866441629e-07 -0.8315638899803162 0.5554291009902954
  outer loop
    vertex 153.0396881103516 50.20797729492188 216.9539794921875
    vertex 147.9405212402344 49.88056182861328 216.4637908935547
    vertex 153.0398406982422 49.88055801391602 216.4637908935547
  endloop
endfacet
facet normal 1 0.0002420077653368935 4.536214532890881e-07
  outer loop
    vertex 145.5265960693359 52.77756118774414 216.4715118408203
    vertex 145.5272979736328 49.88056182861328 216.4637908935547
    vertex 145.5265960693359 52.77755737304688 212.4101867675781
  endloop
endfacet
facet normal 1 -0.0001866128150140867 -4.67913669126574e-05
  outer loop
    vertex 145.5273742675781 48.23419952392578 216.1360473632813
    vertex 145.5272979736328 47.7440299987793 216.4634857177734
    vertex 145.5265960693359 45.01077651977539 212.4102020263672
  endloop
endfacet
facet normal 5.566683398683381e-07 -0.5554664731025696 -0.8315389156341553
  outer loop
    vertex 153.0383148193359 49.39006423950195 221.4740295410156
    vertex 147.9389953613281 49.39006805419922 221.4740295410156
    vertex 147.9391021728516 49.8802375793457 221.1465911865234
  endloop
endfacet
facet normal 1 1.204636737384135e-05 1.782140202521987e-06
  outer loop
    vertex 153.7872619628906 52.77756500244141 224.5406951904297
    vertex 153.7872772216797 50.99832534790039 220.0787353515625
    vertex 153.7872619628906 52.77755737304688 216.4715270996094
  endloop
endfacet
facet normal -0.9999999403953552 0.0002975126262754202 -0.0002983975573442876
  outer loop
    vertex 140.7831420898438 47.30137634277344 220.0779418945313
    vertex 140.7838897705078 47.30137634277344 217.5316467285156
    vertex 140.7835388183594 45.01078033447266 216.4715270996094
  endloop
endfacet
facet normal -1 8.216336055966167e-08 0.000228295917622745
  outer loop
    vertex 140.7835388183594 52.77755737304688 212.4101867675781
    vertex 140.7835388183594 45.01077651977539 212.4101867675781
    vertex 140.7843627929688 48.81235885620117 216.0211334228516
  endloop
endfacet
facet normal -1 0.0002243342896690592 -1.782330514288333e-06
  outer loop
    vertex 140.7840728759766 47.41646194458008 216.9535369873047
    vertex 140.7835388183594 45.01077651977539 212.4101867675781
    vertex 140.7835388183594 45.01078033447266 216.4715270996094
  endloop
endfacet
facet normal 1 -2.778951738946489e-06 7.693832230870612e-06
  outer loop
    vertex 153.7872619628906 52.77756500244141 224.5406951904297
    vertex 153.7872772216797 50.83178329467773 220.9153137207031
    vertex 153.7872772216797 50.99832534790039 220.0787353515625
  endloop
endfacet
facet normal 1 9.402614523423836e-06 -1.215912016050424e-05
  outer loop
    vertex 153.7872619628906 52.77755737304688 216.4715270996094
    vertex 153.7872924804688 50.83203125 216.69580078125
    vertex 153.7872924804688 50.35823440551758 215.9864959716797
  endloop
endfacet
facet normal 1 7.484779871447245e-06 1.842384790506912e-06
  outer loop
    vertex 153.7873382568359 52.77753067016602 180.7606353759766
    vertex 153.7872924804688 50.35823440551758 215.9864959716797
    vertex 153.7872924804688 49.6490478515625 215.5125122070313
  endloop
endfacet
facet normal 1 5.066113430984842e-07 2.663362693056115e-06
  outer loop
    vertex 153.7872924804688 47.97580718994141 215.5122528076172
    vertex 153.7872924804688 47.26649475097656 215.9860229492188
    vertex 153.7873840332031 45.01074600219727 180.7606353759766
  endloop
endfacet
facet normal 1 1.606267869647127e-05 1.789363886928186e-05
  outer loop
    vertex 153.7872924804688 46.79247665405273 216.6952209472656
    vertex 153.7872772216797 46.62593460083008 217.5317840576172
    vertex 153.7873229980469 45.01077270507813 216.4715423583984
  endloop
endfacet
facet normal -0.9999999403953552 -0.0002563591697253287 -0.0002494095824658871
  outer loop
    vertex 140.7835388183594 52.77756118774414 216.4715118408203
    vertex 140.7840728759766 50.20797729492188 216.9539642333984
    vertex 140.7838897705078 50.3228874206543 217.5321197509766
  endloop
endfacet
facet normal -1 8.248994708992541e-05 0.0001781008613761514
  outer loop
    vertex 140.7835235595703 52.77756500244141 224.5406799316406
    vertex 140.7826995849609 49.39006805419922 221.4740142822266
    vertex 140.7826690673828 48.81190490722656 221.5889282226563
  endloop
endfacet
facet normal -1 0.0002118743286700919 3.518049197737128e-05
  outer loop
    vertex 140.7835235595703 52.77756500244141 224.5406799316406
    vertex 140.7827911376953 49.8802375793457 221.1465911865234
    vertex 140.7826995849609 49.39006805419922 221.4740142822266
  endloop
endfacet
facet normal 1 1.62471169460332e-05 -2.517657776479609e-06
  outer loop
    vertex 153.7872619628906 52.77756500244141 224.5406951904297
    vertex 153.7872924804688 50.35776901245117 221.62451171875
    vertex 153.7872772216797 50.83178329467773 220.9153137207031
  endloop
endfacet
facet normal 1 1.204636737384135e-05 1.782140202521987e-06
  outer loop
    vertex 153.7872619628906 52.77755737304688 216.4715270996094
    vertex 153.7872772216797 50.99832534790039 220.0787353515625
    vertex 153.7872924804688 50.99832534790039 217.5324249267578
  endloop
endfacet
facet normal -0.9999999403953552 0.0002732700668275356 -0.000246016716118902
  outer loop
    vertex 140.7840728759766 47.41646194458008 216.9535369873047
    vertex 140.7835388183594 45.01078033447266 216.4715270996094
    vertex 140.7838897705078 47.30137634277344 217.5316467285156
  endloop
endfacet
facet normal -1 -0.0001705445756670088 -1.113443090616784e-06
  outer loop
    vertex 140.7831420898438 47.30137634277344 220.0779418945313
    vertex 140.7835388183594 45.01078033447266 216.4715270996094
    vertex 140.7835235595703 45.01078414916992 224.5406799316406
  endloop
endfacet
facet normal -0.9999999403953552 -0.0003804215521086007 -8.880834502633661e-05
  outer loop
    vertex 140.7827911376953 47.74370574951172 221.1462707519531
    vertex 140.782958984375 47.41629409790039 220.6560974121094
    vertex 140.7835235595703 45.01078414916992 224.5406799316406
  endloop
endfacet
facet normal 1 6.107155513745965e-06 4.792681806975452e-07
  outer loop
    vertex 153.7872619628906 52.77756500244141 224.5406951904297
    vertex 153.7872772216797 48.81180572509766 222.2646331787109
    vertex 153.7872772216797 49.64845275878906 222.0983276367188
  endloop
endfacet
facet normal -0.9999999403953552 0.000356513453880325 -7.177075167419389e-05
  outer loop
    vertex 140.7842254638672 47.7440299987793 216.4634704589844
    vertex 140.7835388183594 45.01077651977539 212.4101867675781
    vertex 140.7840728759766 47.41646194458008 216.9535369873047
  endloop
endfacet
facet normal 1 -6.240554284886457e-06 3.239041234337492e-06
  outer loop
    vertex 153.7872924804688 48.81245422363281 215.3459777832031
    vertex 153.7872924804688 47.97580718994141 215.5122528076172
    vertex 153.7873840332031 45.01074600219727 180.7606353759766
  endloop
endfacet
facet normal -0.9999998211860657 -0.000569416384678334 -0.0002058423269772902
  outer loop
    vertex 140.782958984375 47.41629409790039 220.6560974121094
    vertex 140.7831420898438 47.30137634277344 220.0779418945313
    vertex 140.7835235595703 45.01078414916992 224.5406799316406
  endloop
endfacet
facet normal -1 -0.000196161781786941 2.831873098330107e-05
  outer loop
    vertex 140.7835388183594 52.77755737304688 212.4101867675781
    vertex 140.7843170166016 49.39047622680664 216.1362152099609
    vertex 140.7842254638672 49.88056182861328 216.4637756347656
  endloop
endfacet
facet normal -0.9999999403953552 0.0003601272765081376 -9.13739058887586e-05
  outer loop
    vertex 140.7835235595703 52.77756500244141 224.5406799316406
    vertex 140.782958984375 50.20780563354492 220.6565246582031
    vertex 140.7827911376953 49.8802375793457 221.1465911865234
  endloop
endfacet
facet normal -0.9999999403953552 -0.0003460062725935131 -7.877132156863809e-05
  outer loop
    vertex 140.7835388183594 52.77755737304688 212.4101867675781
    vertex 140.7842254638672 49.88056182861328 216.4637756347656
    vertex 140.7840728759766 50.20797729492188 216.9539642333984
  endloop
endfacet
facet normal -1 -0.0002098662807838991 -1.781980813575501e-06
  outer loop
    vertex 140.7835388183594 52.77756118774414 216.4715118408203
    vertex 140.7835388183594 52.77755737304688 212.4101867675781
    vertex 140.7840728759766 50.20797729492188 216.9539642333984
  endloop
endfacet
facet normal 1 6.169408152345568e-06 1.874906843113422e-06
  outer loop
    vertex 153.7873382568359 52.77753067016602 180.7606353759766
    vertex 153.7872924804688 48.81245422363281 215.3459777832031
    vertex 153.7873840332031 45.01074600219727 180.7606353759766
  endloop
endfacet
facet normal 1 1.076126955013024e-05 -3.730979187821504e-07
  outer loop
    vertex 153.7872619628906 52.77755737304688 216.4715270996094
    vertex 153.7872924804688 50.99832534790039 217.5324249267578
    vertex 153.7872924804688 50.83203125 216.69580078125
  endloop
endfacet
facet normal -0.9999999403953552 8.221210379133481e-08 0.0002888150920625776
  outer loop
    vertex 140.7835235595703 52.77756500244141 224.5406799316406
    vertex 140.7826690673828 48.81190490722656 221.5889282226563
    vertex 140.7835235595703 45.01078414916992 224.5406799316406
  endloop
endfacet
facet normal -1 0.0001150630341726355 0.0001072445520549081
  outer loop
    vertex 140.7843627929688 48.81235885620117 216.0211334228516
    vertex 140.7835388183594 45.01077651977539 212.4101867675781
    vertex 140.7843170166016 48.23419952392578 216.1360473632813
  endloop
endfacet
facet normal 1 3.944766291397173e-08 1.172130964732787e-06
  outer loop
    vertex 153.7873382568359 52.77753067016602 180.7606353759766
    vertex 153.7872924804688 49.6490478515625 215.5125122070313
    vertex 153.7872924804688 48.81245422363281 215.3459777832031
  endloop
endfacet
facet normal 1 -5.893221441510832e-06 1.585391873959452e-05
  outer loop
    vertex 153.7872619628906 52.77756500244141 224.5406951904297
    vertex 153.7872772216797 49.64845275878906 222.0983276367188
    vertex 153.7872924804688 50.35776901245117 221.62451171875
  endloop
endfacet
facet normal -0.9999998211860657 0.0005413847975432873 -0.0002112943475367501
  outer loop
    vertex 140.7835235595703 52.77756500244141 224.5406799316406
    vertex 140.7831420898438 50.3228874206543 220.0783996582031
    vertex 140.782958984375 50.20780563354492 220.6565246582031
  endloop
endfacet
facet normal -1 0.0001999493397306651 3.380529233254492e-05
  outer loop
    vertex 140.7843170166016 48.23419952392578 216.1360473632813
    vertex 140.7835388183594 45.01077651977539 212.4101867675781
    vertex 140.7842254638672 47.7440299987793 216.4634704589844
  endloop
endfacet
facet normal -1 -0.0001140812964877114 0.0001029323902912438
  outer loop
    vertex 140.7835388183594 52.77755737304688 212.4101867675781
    vertex 140.7843627929688 48.81235885620117 216.0211334228516
    vertex 140.7843170166016 49.39047622680664 216.1362152099609
  endloop
endfacet
facet normal -8.197947920507431e-08 -1 8.054605018514849e-07
  outer loop
    vertex 140.7835388183594 45.01077651977539 212.4101867675781
    vertex 140.6187896728516 45.01077651977539 212.4101867675781
    vertex 140.6188354492188 45.01074981689453 180.8591156005859
  endloop
endfacet
facet normal 1.782362460289733e-06 0.002669581910595298 -0.9999964237213135
  outer loop
    vertex 147.9405212402344 49.88056182861328 216.4637908935547
    vertex 145.5272979736328 49.88056182861328 216.4637908935547
    vertex 145.5265960693359 52.77756118774414 216.4715118408203
  endloop
endfacet
facet normal -1.782149979590031e-06 8.054606723817415e-07 1
  outer loop
    vertex 140.7835388183594 52.77755737304688 212.4101867675781
    vertex 140.6187896728516 45.01077651977539 212.4101867675781
    vertex 140.7835388183594 45.01077651977539 212.4101867675781
  endloop
endfacet
facet normal -8.197947920507431e-08 -1 8.054605018514849e-07
  outer loop
    vertex 145.5265960693359 45.01077651977539 212.4102020263672
    vertex 140.7835388183594 45.01077651977539 212.4101867675781
    vertex 145.5266571044922 45.01074981689453 180.8657073974609
  endloop
endfacet
facet normal 1.689785904090968e-06 0.8315612077713013 -0.5554330945014954
  outer loop
    vertex 145.5258636474609 47.74370574951172 221.1462860107422
    vertex 145.5260314941406 47.41629028320313 220.6560974121094
    vertex 140.7827911376953 47.74370574951172 221.1462707519531
  endloop
endfacet
facet normal 8.197947920507431e-08 1 -8.054605018514849e-07
  outer loop
    vertex 140.7835235595703 52.77756500244141 224.5406799316406
    vertex 145.5265960693359 52.77756118774414 216.4715118408203
    vertex 140.7835388183594 52.77756118774414 216.4715118408203
  endloop
endfacet
facet normal 8.197947920507431e-08 1 -8.054605018514849e-07
  outer loop
    vertex 145.5265960693359 52.77755737304688 212.4101867675781
    vertex 145.5266571044922 52.77753067016602 180.8656921386719
    vertex 140.7835388183594 52.77755737304688 212.4101867675781
  endloop
endfacet
facet normal 8.197947920507431e-08 1 -8.054605018514849e-07
  outer loop
    vertex 145.5265960693359 52.77756118774414 216.4715118408203
    vertex 140.7835388183594 52.77755737304688 212.4101867675781
    vertex 140.7835388183594 52.77756118774414 216.4715118408203
  endloop
endfacet
facet normal -8.197947920507431e-08 -1 8.054605018514849e-07
  outer loop
    vertex 145.5266571044922 45.01074981689453 180.8657073974609
    vertex 140.6188354492188 45.01074981689453 180.8591156005859
    vertex 140.6188507080078 45.0107421875 170.5106964111328
  endloop
endfacet
facet normal 8.197947920507431e-08 1 -8.054605018514849e-07
  outer loop
    vertex 145.5265808105469 52.77756500244141 224.5406951904297
    vertex 145.5265960693359 52.77756118774414 216.4715118408203
    vertex 140.7835235595703 52.77756500244141 224.5406799316406
  endloop
endfacet
facet normal 2.323544322280213e-05 1 -8.054232125687122e-07
  outer loop
    vertex 140.7835388183594 52.77755737304688 212.4101867675781
    vertex 140.6188354492188 52.77753448486328 180.8591156005859
    vertex 140.6187896728516 52.77756118774414 212.4101867675781
  endloop
endfacet
facet normal -8.197947920507431e-08 -1 8.054605018514849e-07
  outer loop
    vertex 145.5266571044922 45.01074981689453 180.8657073974609
    vertex 146.5295257568359 45.0107421875 170.5107116699219
    vertex 147.9398651123047 45.01074981689453 180.859130859375
  endloop
endfacet
facet normal 1.782362460289733e-06 0.002669581910595298 -0.9999964237213135
  outer loop
    vertex 147.9405212402344 49.88056182861328 216.4637908935547
    vertex 145.5265960693359 52.77756118774414 216.4715118408203
    vertex 147.9398193359375 52.77756118774414 216.4715270996094
  endloop
endfacet
facet normal 8.197947920507431e-08 1 -8.054605018514849e-07
  outer loop
    vertex 145.5265960693359 52.77756118774414 216.4715118408203
    vertex 145.5265960693359 52.77755737304688 212.4101867675781
    vertex 140.7835388183594 52.77755737304688 212.4101867675781
  endloop
endfacet
facet normal -2.054757857195e-07 0.8315527439117432 -0.5554457902908325
  outer loop
    vertex 140.7827911376953 47.74370574951172 221.1462707519531
    vertex 145.5260314941406 47.41629028320313 220.6560974121094
    vertex 140.782958984375 47.41629409790039 220.6560974121094
  endloop
endfacet
facet normal 1 -8.197804390874808e-08 1.782149979590031e-06
  outer loop
    vertex 145.5265960693359 52.77755737304688 212.4101867675781
    vertex 145.5265960693359 45.01077651977539 212.4102020263672
    vertex 145.5266571044922 52.77753067016602 180.8656921386719
  endloop
endfacet
facet normal 1 -8.197804390874808e-08 1.782149979590031e-06
  outer loop
    vertex 145.5266571044922 52.77753067016602 180.8656921386719
    vertex 145.5265960693359 45.01077651977539 212.4102020263672
    vertex 145.5266571044922 45.01074981689453 180.8657073974609
  endloop
endfacet
facet normal 8.590911875216989e-07 1 -6.886118057991553e-07
  outer loop
    vertex 140.7835388183594 52.77755737304688 212.4101867675781
    vertex 145.5266571044922 52.77753067016602 180.8656921386719
    vertex 140.6188354492188 52.77753448486328 180.8591156005859
  endloop
endfacet
facet normal 8.59247961670917e-07 1 -8.054586828620813e-07
  outer loop
    vertex 145.5266571044922 52.77753067016602 180.8656921386719
    vertex 140.6188507080078 52.77752685546875 170.5106964111328
    vertex 140.6188354492188 52.77753448486328 180.8591156005859
  endloop
endfacet
facet normal -8.197947920507431e-08 -1 8.054605018514849e-07
  outer loop
    vertex 140.7835388183594 45.01077651977539 212.4101867675781
    vertex 140.6188354492188 45.01074981689453 180.8591156005859
    vertex 145.5266571044922 45.01074981689453 180.8657073974609
  endloop
endfacet
facet normal -1 -0.0002025751600740477 5.437956133391708e-05
  outer loop
    vertex 140.7826995849609 48.23378753662109 221.4738311767578
    vertex 140.7827911376953 47.74370574951172 221.1462707519531
    vertex 140.7835235595703 45.01078414916992 224.5406799316406
  endloop
endfacet
facet normal -4.262799109255866e-07 -0.8315638899803162 0.5554291009902954
  outer loop
    vertex 145.5271453857422 50.20797729492188 216.9539642333984
    vertex 140.7840728759766 50.20797729492188 216.9539642333984
    vertex 140.7842254638672 49.88056182861328 216.4637756347656
  endloop
endfacet
facet normal -1.782149979590031e-06 8.054606723817415e-07 1
  outer loop
    vertex 140.7835388183594 52.77755737304688 212.4101867675781
    vertex 140.6187896728516 52.77756118774414 212.4101867675781
    vertex 140.6187896728516 45.01077651977539 212.4101867675781
  endloop
endfacet
facet normal -4.905990635961643e-07 0.5554538369178772 0.8315473794937134
  outer loop
    vertex 145.5273742675781 48.23419952392578 216.1360473632813
    vertex 140.7843170166016 48.23419952392578 216.1360473632813
    vertex 140.7842254638672 47.7440299987793 216.4634704589844
  endloop
endfacet
facet normal -2.382187176408479e-06 0.5554664731025696 0.8315389156341553
  outer loop
    vertex 145.5273742675781 48.23419952392578 216.1360473632813
    vertex 140.7842254638672 47.7440299987793 216.4634704589844
    vertex 145.5272979736328 47.7440299987793 216.4634857177734
  endloop
endfacet
facet normal -8.197947920507431e-08 -1 8.054605018514849e-07
  outer loop
    vertex 145.5261840820313 50.3228874206543 220.0784149169922
    vertex 140.7838897705078 50.3228874206543 217.5321197509766
    vertex 145.5269775390625 50.3228874206543 217.5321350097656
  endloop
endfacet
facet normal 2.847558562280028e-06 -0.1949454843997955 -0.9808140993118286
  outer loop
    vertex 145.5257720947266 49.39006805419922 221.4740295410156
    vertex 145.5257415771484 48.81190490722656 221.5889434814453
    vertex 140.7826995849609 49.39006805419922 221.4740142822266
  endloop
endfacet
facet normal -4.896184577773965e-07 0.9807552099227905 0.1952414363622665
  outer loop
    vertex 140.7838897705078 47.30137634277344 217.5316467285156
    vertex 145.5271453857422 47.41646194458008 216.9535522460938
    vertex 140.7840728759766 47.41646194458008 216.9535369873047
  endloop
endfacet
facet normal -7.116811389096256e-07 0.9807555675506592 0.1952396929264069
  outer loop
    vertex 145.5269622802734 47.30137634277344 217.5316619873047
    vertex 145.5271453857422 47.41646194458008 216.9535522460938
    vertex 140.7838897705078 47.30137634277344 217.5316467285156
  endloop
endfacet
facet normal -2.060908315115739e-07 -0.9808157086372375 0.1949374079704285
  outer loop
    vertex 145.5269775390625 50.3228874206543 217.5321350097656
    vertex 140.7840728759766 50.20797729492188 216.9539642333984
    vertex 145.5271453857422 50.20797729492188 216.9539642333984
  endloop
endfacet
facet normal -3.99491045754985e-06 -0.1952140778303146 0.9807606339454651
  outer loop
    vertex 145.5274353027344 48.81235504150391 216.0211486816406
    vertex 145.5273895263672 49.39047622680664 216.1362152099609
    vertex 140.7843627929688 48.81235885620117 216.0211334228516
  endloop
endfacet
facet normal -3.963134531659307e-06 0.1949555277824402 0.9808120727539063
  outer loop
    vertex 145.5274353027344 48.81235504150391 216.0211486816406
    vertex 140.7843627929688 48.81235885620117 216.0211334228516
    vertex 140.7843170166016 48.23419952392578 216.1360473632813
  endloop
endfacet
facet normal 6.483406309598649e-07 0.1952492892742157 -0.9807536602020264
  outer loop
    vertex 145.5257720947266 48.23378753662109 221.4738311767578
    vertex 140.7826995849609 48.23378753662109 221.4738311767578
    vertex 140.7826690673828 48.81190490722656 221.5889282226563
  endloop
endfacet
facet normal 2.382200136707979e-06 -0.5554601550102234 -0.8315431475639343
  outer loop
    vertex 145.5257720947266 49.39006805419922 221.4740295410156
    vertex 140.7826995849609 49.39006805419922 221.4740142822266
    vertex 140.7827911376953 49.8802375793457 221.1465911865234
  endloop
endfacet
facet normal -1.563760676503989e-08 0.9808130860328674 -0.1949506253004074
  outer loop
    vertex 140.782958984375 47.41629409790039 220.6560974121094
    vertex 145.5260314941406 47.41629028320313 220.6560974121094
    vertex 145.5261993408203 47.30137634277344 220.0779571533203
  endloop
endfacet
facet normal 2.847558562280028e-06 -0.1949454843997955 -0.9808140993118286
  outer loop
    vertex 145.5257415771484 48.81190490722656 221.5889434814453
    vertex 140.7826690673828 48.81190490722656 221.5889282226563
    vertex 140.7826995849609 49.39006805419922 221.4740142822266
  endloop
endfacet
facet normal 2.879360408769571e-06 0.1952668875455856 -0.9807501435279846
  outer loop
    vertex 145.5257720947266 48.23378753662109 221.4738311767578
    vertex 140.7826690673828 48.81190490722656 221.5889282226563
    vertex 145.5257415771484 48.81190490722656 221.5889434814453
  endloop
endfacet
facet normal -6.163953116811172e-07 0.1949291080236435 0.9808173179626465
  outer loop
    vertex 145.5274353027344 48.81235504150391 216.0211486816406
    vertex 140.7843170166016 48.23419952392578 216.1360473632813
    vertex 145.5273742675781 48.23419952392578 216.1360473632813
  endloop
endfacet
facet normal 3.32802096636442e-06 -0.5554538369178772 -0.8315473794937134
  outer loop
    vertex 145.5258636474609 49.8802375793457 221.1466064453125
    vertex 145.5257720947266 49.39006805419922 221.4740295410156
    vertex 140.7827911376953 49.8802375793457 221.1465911865234
  endloop
endfacet
facet normal 4.671723843330255e-07 -0.1952492892742157 0.9807536602020264
  outer loop
    vertex 145.5273895263672 49.39047622680664 216.1362152099609
    vertex 140.7843170166016 49.39047622680664 216.1362152099609
    vertex 140.7843627929688 48.81235885620117 216.0211334228516
  endloop
endfacet
facet normal 7.116760230019281e-07 -0.9807559251785278 -0.195237934589386
  outer loop
    vertex 145.5260314941406 50.20780181884766 220.6565246582031
    vertex 140.7831420898438 50.3228874206543 220.0783996582031
    vertex 145.5261840820313 50.3228874206543 220.0784149169922
  endloop
endfacet
facet normal -8.197947920507431e-08 -1 8.054605018514849e-07
  outer loop
    vertex 145.5261840820313 50.3228874206543 220.0784149169922
    vertex 140.7831420898438 50.3228874206543 220.0783996582031
    vertex 140.7838897705078 50.3228874206543 217.5321197509766
  endloop
endfacet
facet normal 6.495588991128898e-07 0.9808140993118286 -0.1949453800916672
  outer loop
    vertex 140.782958984375 47.41629409790039 220.6560974121094
    vertex 145.5261993408203 47.30137634277344 220.0779571533203
    vertex 140.7831420898438 47.30137634277344 220.0779418945313
  endloop
endfacet
facet normal -8.712781323083618e-07 -0.9808146357536316 0.1949426531791687
  outer loop
    vertex 145.5269775390625 50.3228874206543 217.5321350097656
    vertex 140.7838897705078 50.3228874206543 217.5321197509766
    vertex 140.7840728759766 50.20797729492188 216.9539642333984
  endloop
endfacet
facet normal 2.472836740707862e-06 0.5556920766830444 -0.8313881754875183
  outer loop
    vertex 145.5258636474609 47.74370574951172 221.1462860107422
    vertex 140.7827911376953 47.74370574951172 221.1462707519531
    vertex 140.7826995849609 48.23378753662109 221.4738311767578
  endloop
endfacet
facet normal -1.689798750703631e-06 -0.8315582275390625 0.5554375648498535
  outer loop
    vertex 145.5271453857422 50.20797729492188 216.9539642333984
    vertex 140.7842254638672 49.88056182861328 216.4637756347656
    vertex 145.5272979736328 49.88056182861328 216.4637908935547
  endloop
endfacet
facet normal -1.765849901858019e-07 -0.9807572960853577 -0.1952309310436249
  outer loop
    vertex 140.782958984375 50.20780563354492 220.6565246582031
    vertex 140.7831420898438 50.3228874206543 220.0783996582031
    vertex 145.5260314941406 50.20780181884766 220.6565246582031
  endloop
endfacet
facet normal 5.815913937112782e-07 0.5556794404983521 -0.8313966393470764
  outer loop
    vertex 145.5258636474609 47.74370574951172 221.1462860107422
    vertex 140.7826995849609 48.23378753662109 221.4738311767578
    vertex 145.5257720947266 48.23378753662109 221.4738311767578
  endloop
endfacet
facet normal 8.197947920507431e-08 1 -8.054605018514849e-07
  outer loop
    vertex 140.7831420898438 47.30137634277344 220.0779418945313
    vertex 145.5269622802734 47.30137634277344 217.5316619873047
    vertex 140.7838897705078 47.30137634277344 217.5316467285156
  endloop
endfacet
facet normal -1.554266191305942e-06 0.831377387046814 0.5557081699371338
  outer loop
    vertex 145.5271453857422 47.41646194458008 216.9535522460938
    vertex 145.5272979736328 47.7440299987793 216.4634857177734
    vertex 140.7840728759766 47.41646194458008 216.9535369873047
  endloop
endfacet
facet normal -1.554266191305942e-06 0.831377387046814 0.5557081699371338
  outer loop
    vertex 140.7840728759766 47.41646194458008 216.9535369873047
    vertex 145.5272979736328 47.7440299987793 216.4634857177734
    vertex 140.7842254638672 47.7440299987793 216.4634704589844
  endloop
endfacet
facet normal 0.6631750464439392 0.7340572476387024 0.1461463868618011
  outer loop
    vertex 153.7872772216797 46.62593460083008 217.5317840576172
    vertex 153.7872924804688 46.79247665405273 216.6952209472656
    vertex 153.0396881103516 47.41646194458008 216.9535522460938
  endloop
endfacet
facet normal 0.6631826162338257 0.1458548754453659 0.7341084480285645
  outer loop
    vertex 153.7872924804688 47.97580718994141 215.5122528076172
    vertex 153.0399780273438 48.81235504150391 216.0211639404297
    vertex 153.0399322509766 48.23419570922852 216.1360778808594
  endloop
endfacet
facet normal 0.6632116436958313 0.6222407817840576 0.4158926606178284
  outer loop
    vertex 153.0398406982422 47.74402618408203 216.4634857177734
    vertex 153.7872924804688 46.79247665405273 216.6952209472656
    vertex 153.7872924804688 47.26649475097656 215.9860229492188
  endloop
endfacet
facet normal 0.6631821990013123 -0.1461155414581299 0.7340569496154785
  outer loop
    vertex 153.7872924804688 48.81245422363281 215.3459777832031
    vertex 153.7872924804688 49.6490478515625 215.5125122070313
    vertex 153.0399322509766 49.39047241210938 216.1362457275391
  endloop
endfacet
facet normal 0.6632046103477478 -0.1460710316896439 0.7340455651283264
  outer loop
    vertex 153.7872924804688 48.81245422363281 215.3459777832031
    vertex 153.0399322509766 49.39047241210938 216.1362457275391
    vertex 153.0399780273438 48.81235504150391 216.0211639404297
  endloop
endfacet
facet normal 0.6632166504859924 -0.4157975316047668 0.6222990751266479
  outer loop
    vertex 153.0398406982422 49.88055801391602 216.4637908935547
    vertex 153.0399322509766 49.39047241210938 216.1362457275391
    vertex 153.7872924804688 49.6490478515625 215.5125122070313
  endloop
endfacet
facet normal 0.663164496421814 -0.4159033894538879 0.6222838759422302
  outer loop
    vertex 153.7872924804688 50.35823440551758 215.9864959716797
    vertex 153.0398406982422 49.88055801391602 216.4637908935547
    vertex 153.7872924804688 49.6490478515625 215.5125122070313
  endloop
endfacet
facet normal 0.6631081104278564 0.6222106218338013 0.4161028265953064
  outer loop
    vertex 153.0398406982422 47.74402618408203 216.4634857177734
    vertex 153.0396881103516 47.41646194458008 216.9535522460938
    vertex 153.7872924804688 46.79247665405273 216.6952209472656
  endloop
endfacet
facet normal 0.6631374955177307 -0.6224128007888794 0.4157534837722778
  outer loop
    vertex 153.7872924804688 50.83203125 216.69580078125
    vertex 153.0396881103516 50.20797729492188 216.9539794921875
    vertex 153.7872924804688 50.35823440551758 215.9864959716797
  endloop
endfacet
facet normal 0.6630752086639404 0.7341079115867615 0.1463447660207748
  outer loop
    vertex 153.7872772216797 46.62593460083008 217.5317840576172
    vertex 153.0396881103516 47.41646194458008 216.9535522460938
    vertex 153.0395050048828 47.30137634277344 217.5316619873047
  endloop
endfacet
facet normal 0.6631709933280945 0.41565802693367 0.6224408149719238
  outer loop
    vertex 153.0399322509766 48.23419570922852 216.1360778808594
    vertex 153.0398406982422 47.74402618408203 216.4634857177734
    vertex 153.7872924804688 47.26649475097656 215.9860229492188
  endloop
endfacet
facet normal 0.6632016897201538 0.145886167883873 0.7340849637985229
  outer loop
    vertex 153.7872924804688 48.81245422363281 215.3459777832031
    vertex 153.0399780273438 48.81235504150391 216.0211639404297
    vertex 153.7872924804688 47.97580718994141 215.5122528076172
  endloop
endfacet
facet normal 0.663210928440094 0.4156997501850128 0.6223704218864441
  outer loop
    vertex 153.0399322509766 48.23419570922852 216.1360778808594
    vertex 153.7872924804688 47.26649475097656 215.9860229492188
    vertex 153.7872924804688 47.97580718994141 215.5122528076172
  endloop
endfacet
facet normal -1 0.0001593034685356542 -1.113708776756539e-06
  outer loop
    vertex 140.7835235595703 52.77756500244141 224.5406799316406
    vertex 140.7835388183594 52.77756118774414 216.4715118408203
    vertex 140.7831420898438 50.3228874206543 220.0783996582031
  endloop
endfacet
facet normal -0.9999999403953552 -0.000277526443824172 -0.0002983996237162501
  outer loop
    vertex 140.7835388183594 52.77756118774414 216.4715118408203
    vertex 140.7838897705078 50.3228874206543 217.5321197509766
    vertex 140.7831420898438 50.3228874206543 220.0783996582031
  endloop
endfacet
facet normal 8.197947920507431e-08 1 -8.054605018514849e-07
  outer loop
    vertex 134.8970184326172 52.77755355834961 203.8368530273438
    vertex 134.9667663574219 52.77754974365234 199.6539764404297
    vertex 127.3880920410156 52.77754974365234 199.6539611816406
  endloop
endfacet
facet normal 1.782149865903193e-06 -8.054606723817415e-07 -1
  outer loop
    vertex 137.5990600585938 52.7774658203125 92.81797027587891
    vertex 137.5990600585938 45.01068115234375 92.81797790527344
    vertex 134.9572906494141 52.7774658203125 92.81796264648438
  endloop
endfacet
facet normal 1.782149865903193e-06 -8.054606723817415e-07 -1
  outer loop
    vertex 134.9572906494141 52.77746963500977 96.86865997314453
    vertex 134.9572906494141 45.01068496704102 96.86866760253906
    vertex 127.5390777587891 52.77746963500977 96.86865234375
  endloop
endfacet
facet normal -1 8.19775038962689e-08 -2.448059603921138e-06
  outer loop
    vertex 134.9572906494141 52.77746963500977 96.86865997314453
    vertex 134.9572906494141 52.7774658203125 92.81796264648438
    vertex 134.9572906494141 45.01068115234375 92.81797027587891
  endloop
endfacet
facet normal 5.197546784074802e-07 1 -9.302542594014085e-07
  outer loop
    vertex 151.2064666748047 52.77748870849609 127.3427886962891
    vertex 146.5483551025391 52.77747344970703 111.0021438598633
    vertex 134.9669494628906 52.77746963500977 100.942741394043
  endloop
endfacet
facet normal 0.9616890549659729 -2.996497698859457e-07 -0.2741425633430481
  outer loop
    vertex 146.5483551025391 52.77747344970703 111.0021438598633
    vertex 151.2064666748047 45.01070785522461 127.3427963256836
    vertex 146.5483551025391 45.01069259643555 111.0021514892578
  endloop
endfacet
facet normal 8.197947920507431e-08 1 -8.054605018514849e-07
  outer loop
    vertex 134.9669494628906 52.77746963500977 100.942741394043
    vertex 134.9572906494141 52.77746963500977 96.86865997314453
    vertex 127.5390701293945 52.77747344970703 100.9427261352539
  endloop
endfacet
facet normal 0.8972278237342834 -4.292197957056487e-07 -0.4415679275989532
  outer loop
    vertex 146.5483551025391 52.77747344970703 111.0021438598633
    vertex 146.5483551025391 45.01069259643555 111.0021514892578
    vertex 137.5990600585938 52.7774658203125 92.81797027587891
  endloop
endfacet
facet normal 8.197947920507431e-08 1 -8.054605018514849e-07
  outer loop
    vertex 127.5390701293945 52.77747344970703 100.9427261352539
    vertex 134.9572906494141 52.77746963500977 96.86865997314453
    vertex 127.5390777587891 52.77746963500977 96.86865234375
  endloop
endfacet
facet normal 8.197947920507431e-08 1 -8.054605018514849e-07
  outer loop
    vertex 134.8970184326172 52.77755355834961 203.8368530273438
    vertex 127.3880920410156 52.77754974365234 199.6539611816406
    vertex 127.3880844116211 52.77755355834961 203.8368377685547
  endloop
endfacet
facet normal 1.781901119102258e-06 -0.002941704820841551 -0.9999956488609314
  outer loop
    vertex 147.9405212402344 47.7440299987793 216.4634857177734
    vertex 145.5265960693359 45.01078033447266 216.4715270996094
    vertex 145.5272979736328 47.7440299987793 216.4634857177734
  endloop
endfacet
facet normal 0.9616890549659729 -2.996497698859457e-07 -0.2741425633430481
  outer loop
    vertex 151.2064666748047 52.77748870849609 127.3427886962891
    vertex 151.2064666748047 45.01070785522461 127.3427963256836
    vertex 146.5483551025391 52.77747344970703 111.0021438598633
  endloop
endfacet
facet normal 0.8972278237342834 -4.292197957056487e-07 -0.4415679275989532
  outer loop
    vertex 137.5990600585938 52.7774658203125 92.81797027587891
    vertex 146.5483551025391 45.01069259643555 111.0021514892578
    vertex 137.5990600585938 45.01068115234375 92.81797790527344
  endloop
endfacet
facet normal 8.197947920507431e-08 1 -8.054605018514849e-07
  outer loop
    vertex 134.8970184326172 52.77756118774414 212.4101715087891
    vertex 136.7023620605469 52.77756118774414 212.4101715087891
    vertex 134.8970184326172 52.77755355834961 203.8368530273438
  endloop
endfacet
facet normal 8.197947920507431e-08 1 -8.054605018514849e-07
  outer loop
    vertex 134.9572906494141 52.77746963500977 96.86865997314453
    vertex 137.5990600585938 52.7774658203125 92.81797027587891
    vertex 134.9572906494141 52.7774658203125 92.81796264648438
  endloop
endfacet
facet normal -4.536201743121637e-07 -0.002939730416983366 -0.9999957084655762
  outer loop
    vertex 147.9405212402344 47.7440299987793 216.4634857177734
    vertex 147.9398040771484 45.01078033447266 216.4715270996094
    vertex 145.5265960693359 45.01078033447266 216.4715270996094
  endloop
endfacet
facet normal -8.197947920507431e-08 -1 8.054605018514849e-07
  outer loop
    vertex 145.5266571044922 45.01074981689453 180.8657073974609
    vertex 140.6188507080078 45.0107421875 170.5106964111328
    vertex 146.5295257568359 45.0107421875 170.5107116699219
  endloop
endfacet
facet normal 8.197947920507431e-08 1 -8.054605018514849e-07
  outer loop
    vertex 134.9669494628906 52.77746963500977 100.942741394043
    vertex 137.5990600585938 52.7774658203125 92.81797027587891
    vertex 134.9572906494141 52.77746963500977 96.86865997314453
  endloop
endfacet
facet normal -1 8.19775038962689e-08 -2.448059603921138e-06
  outer loop
    vertex 134.9572906494141 52.77746963500977 96.86865997314453
    vertex 134.9572906494141 45.01068115234375 92.81797027587891
    vertex 134.9572906494141 45.01068496704102 96.86866760253906
  endloop
endfacet
facet normal -1.782149865903193e-06 8.054606723817415e-07 1
  outer loop
    vertex 140.6187896728516 45.01077651977539 212.4101867675781
    vertex 136.7023620605469 52.77756118774414 212.4101715087891
    vertex 136.7023468017578 45.01077651977539 212.4101867675781
  endloop
endfacet
facet normal 3.390301799299777e-07 1 -7.221860300887784e-07
  outer loop
    vertex 146.5483551025391 52.77747344970703 111.0021438598633
    vertex 137.5990600585938 52.7774658203125 92.81797027587891
    vertex 134.9669494628906 52.77746963500977 100.942741394043
  endloop
endfacet
facet normal 1.782149865903193e-06 -8.054606723817415e-07 -1
  outer loop
    vertex 134.9572906494141 45.01068496704102 96.86866760253906
    vertex 127.5390777587891 45.01068496704102 96.86865234375
    vertex 127.5390777587891 52.77746963500977 96.86865234375
  endloop
endfacet
facet normal 1.782149865903193e-06 -8.054606723817415e-07 -1
  outer loop
    vertex 137.5990600585938 45.01068115234375 92.81797790527344
    vertex 134.9572906494141 45.01068115234375 92.81797027587891
    vertex 134.9572906494141 52.7774658203125 92.81796264648438
  endloop
endfacet
facet normal 0.9988348484039307 6.156868948892225e-06 -0.04825917631387711
  outer loop
    vertex 153.7873382568359 52.77753067016602 180.7606353759766
    vertex 153.7873840332031 45.01074600219727 180.7606353759766
    vertex 151.2064666748047 45.01070785522461 127.3427963256836
  endloop
endfacet
facet normal 0.6626355648040771 0.4162572622299194 -0.6226106286048889
  outer loop
    vertex 153.0383148193359 48.23378372192383 221.4738616943359
    vertex 153.7872772216797 47.97521591186523 222.0980834960938
    vertex 153.0384063720703 47.74370193481445 221.1462860107422
  endloop
endfacet
facet normal 0.6627627611160278 0.7344620227813721 -0.1459830552339554
  outer loop
    vertex 153.7872772216797 46.79222869873047 220.9147033691406
    vertex 153.7872772216797 46.62593460083008 220.0780639648438
    vertex 153.0387573242188 47.30137634277344 220.0779724121094
  endloop
endfacet
facet normal 0.6631976366043091 -0.7340470552444458 0.1460953503847122
  outer loop
    vertex 153.0395202636719 50.3228874206543 217.5321350097656
    vertex 153.0396881103516 50.20797729492188 216.9539794921875
    vertex 153.7872924804688 50.83203125 216.69580078125
  endloop
endfacet
facet normal 0.669929563999176 0.7424246668815613 0.0001993071928154677
  outer loop
    vertex 153.7872772216797 46.62593460083008 220.0780639648438
    vertex 153.0395050048828 47.30137634277344 217.5316619873047
    vertex 153.0387573242188 47.30137634277344 220.0779724121094
  endloop
endfacet
facet normal 0.6626689434051514 -0.7345008850097656 -0.1462133079767227
  outer loop
    vertex 153.7872772216797 50.83178329467773 220.9153137207031
    vertex 153.0385589599609 50.20780181884766 220.6565399169922
    vertex 153.7872772216797 50.99832534790039 220.0787353515625
  endloop
endfacet
facet normal 0.6627793908119202 -0.7344449162483215 -0.1459936201572418
  outer loop
    vertex 153.0385589599609 50.20780181884766 220.6565399169922
    vertex 153.0387420654297 50.3228874206543 220.0784301757813
    vertex 153.7872772216797 50.99832534790039 220.0787353515625
  endloop
endfacet
facet normal 0.6626380085945129 -0.6226564049720764 -0.4161848723888397
  outer loop
    vertex 153.7872772216797 50.83178329467773 220.9153137207031
    vertex 153.7872924804688 50.35776901245117 221.62451171875
    vertex 153.0384063720703 49.88023376464844 221.1466064453125
  endloop
endfacet
facet normal 0.6627256274223328 -0.6226821541786194 -0.416006863117218
  outer loop
    vertex 153.7872772216797 50.83178329467773 220.9153137207031
    vertex 153.0384063720703 49.88023376464844 221.1466064453125
    vertex 153.0385589599609 50.20780181884766 220.6565399169922
  endloop
endfacet
facet normal 0.6626356840133667 -0.4160204529762268 -0.622768759727478
  outer loop
    vertex 153.7872924804688 50.35776901245117 221.62451171875
    vertex 153.7872772216797 49.64845275878906 222.0983276367188
    vertex 153.0383148193359 49.39006423950195 221.4740295410156
  endloop
endfacet
facet normal 0.6703027486801147 -0.7420877814292908 1.792302441572247e-06
  outer loop
    vertex 153.7872772216797 50.99832534790039 220.0787353515625
    vertex 153.0395202636719 50.3228874206543 217.5321350097656
    vertex 153.7872924804688 50.99832534790039 217.5324249267578
  endloop
endfacet
facet normal 0.6626458764076233 0.1462644636631012 -0.7345114946365356
  outer loop
    vertex 153.7872772216797 48.81180572509766 222.2646331787109
    vertex 153.0383148193359 48.23378372192383 221.4738616943359
    vertex 153.0382843017578 48.81190490722656 221.5889434814453
  endloop
endfacet
facet normal 0.6627082228660583 0.6227371692657471 -0.4159522354602814
  outer loop
    vertex 153.0385589599609 47.41629028320313 220.6561126708984
    vertex 153.7872772216797 47.26602935791016 221.6240386962891
    vertex 153.7872772216797 46.79222869873047 220.9147033691406
  endloop
endfacet
facet normal 0.6626662611961365 0.1462239325046539 -0.7345011830329895
  outer loop
    vertex 153.7872772216797 47.97521591186523 222.0980834960938
    vertex 153.0383148193359 48.23378372192383 221.4738616943359
    vertex 153.7872772216797 48.81180572509766 222.2646331787109
  endloop
endfacet
facet normal 0.6630958914756775 -0.7341721653938293 0.1459282040596008
  outer loop
    vertex 153.7872924804688 50.99832534790039 217.5324249267578
    vertex 153.0395202636719 50.3228874206543 217.5321350097656
    vertex 153.7872924804688 50.83203125 216.69580078125
  endloop
endfacet
facet normal 0.6699246764183044 -0.7424290776252747 0.0002033413184108213
  outer loop
    vertex 153.7872772216797 50.99832534790039 220.0787353515625
    vertex 153.0387420654297 50.3228874206543 220.0784301757813
    vertex 153.0395202636719 50.3228874206543 217.5321350097656
  endloop
endfacet
facet normal 0.6703049540519714 0.7420857548713684 -8.233135986301932e-07
  outer loop
    vertex 153.7872772216797 46.62593460083008 220.0780639648438
    vertex 153.7872772216797 46.62593460083008 217.5317840576172
    vertex 153.0395050048828 47.30137634277344 217.5316619873047
  endloop
endfacet
facet normal 0.6626734733581543 0.416180282831192 -0.6226217150688171
  outer loop
    vertex 153.7872772216797 47.97521591186523 222.0980834960938
    vertex 153.7872772216797 47.26602935791016 221.6240386962891
    vertex 153.0384063720703 47.74370193481445 221.1462860107422
  endloop
endfacet
facet normal 0.6626832485198975 -0.4160703122615814 -0.6226848363876343
  outer loop
    vertex 153.7872924804688 50.35776901245117 221.62451171875
    vertex 153.0383148193359 49.39006423950195 221.4740295410156
    vertex 153.0384063720703 49.88023376464844 221.1466064453125
  endloop
endfacet
facet normal 0.6626443266868591 0.7346075177192688 -0.1457886248826981
  outer loop
    vertex 153.7872772216797 46.79222869873047 220.9147033691406
    vertex 153.0387573242188 47.30137634277344 220.0779724121094
    vertex 153.0385589599609 47.41629028320313 220.6561126708984
  endloop
endfacet
facet normal 0.6626195311546326 0.6228935122489929 -0.4158593714237213
  outer loop
    vertex 153.0384063720703 47.74370193481445 221.1462860107422
    vertex 153.7872772216797 47.26602935791016 221.6240386962891
    vertex 153.0385589599609 47.41629028320313 220.6561126708984
  endloop
endfacet
facet normal 0.6626498699188232 -0.1460092961788177 -0.734558641910553
  outer loop
    vertex 153.7872772216797 48.81180572509766 222.2646331787109
    vertex 153.0382843017578 48.81190490722656 221.5889434814453
    vertex 153.7872772216797 49.64845275878906 222.0983276367188
  endloop
endfacet
facet normal -1 8.197797995990186e-08 -1.864128421402711e-06
  outer loop
    vertex 134.9667663574219 52.77754974365234 199.6539764404297
    vertex 134.9669494628906 52.77746963500977 100.942741394043
    vertex 134.9669494628906 45.01068496704102 100.9427490234375
  endloop
endfacet
facet normal -1 8.197910972285172e-08 -4.579746075705771e-07
  outer loop
    vertex 127.5390701293945 52.77747344970703 100.9427261352539
    vertex 127.5390777587891 52.77746963500977 96.86865234375
    vertex 127.5390777587891 45.01068496704102 96.86865234375
  endloop
endfacet
facet normal -1 8.197804390874808e-08 -1.782149979590031e-06
  outer loop
    vertex 127.3880844116211 52.77755355834961 203.8368377685547
    vertex 127.3880920410156 52.77754974365234 199.6539611816406
    vertex 127.3880844116211 45.01076507568359 199.6539764404297
  endloop
endfacet
facet normal -1 8.197804390874808e-08 -1.782149979590031e-06
  outer loop
    vertex 127.3880844116211 52.77755355834961 203.8368377685547
    vertex 127.3880844116211 45.01076507568359 199.6539764404297
    vertex 127.3880767822266 45.01076889038086 203.8368377685547
  endloop
endfacet
facet normal -3.21904917655047e-06 8.054607860685792e-07 1
  outer loop
    vertex 134.8970184326172 52.77755355834961 203.8368530273438
    vertex 127.3880767822266 45.01076889038086 203.8368377685547
    vertex 134.8970184326172 45.01076889038086 203.8368682861328
  endloop
endfacet
facet normal 1.070311327566742e-06 -8.054606155383226e-07 -1
  outer loop
    vertex 134.9667663574219 45.01076507568359 199.6539764404297
    vertex 127.3880844116211 45.01076507568359 199.6539764404297
    vertex 127.3880920410156 52.77754974365234 199.6539611816406
  endloop
endfacet
facet normal -1 8.197797995990186e-08 -1.864128421402711e-06
  outer loop
    vertex 134.9667663574219 52.77754974365234 199.6539764404297
    vertex 134.9669494628906 45.01068496704102 100.9427490234375
    vertex 134.9667663574219 45.01076507568359 199.6539764404297
  endloop
endfacet
facet normal -1 8.197854839409047e-08 -1.152895833911316e-06
  outer loop
    vertex 134.8970184326172 52.77756118774414 212.4101715087891
    vertex 134.8970184326172 45.01076889038086 203.8368682861328
    vertex 134.8970184326172 45.01077651977539 212.4101867675781
  endloop
endfacet
facet normal -1.782149865903193e-06 8.054606723817415e-07 1
  outer loop
    vertex 134.9669494628906 52.77746963500977 100.942741394043
    vertex 127.5390701293945 45.01068878173828 100.9427337646484
    vertex 134.9669494628906 45.01068496704102 100.9427490234375
  endloop
endfacet
facet normal 0.6626614928245544 -0.1460283994674683 -0.7345443367958069
  outer loop
    vertex 153.7872772216797 49.64845275878906 222.0983276367188
    vertex 153.0382843017578 48.81190490722656 221.5889434814453
    vertex 153.0383148193359 49.39006423950195 221.4740295410156
  endloop
endfacet
facet normal -3.21904917655047e-06 8.054607860685792e-07 1
  outer loop
    vertex 134.8970184326172 52.77755355834961 203.8368530273438
    vertex 127.3880844116211 52.77755355834961 203.8368377685547
    vertex 127.3880767822266 45.01076889038086 203.8368377685547
  endloop
endfacet
facet normal -1 8.197910972285172e-08 -4.579746075705771e-07
  outer loop
    vertex 127.5390701293945 52.77747344970703 100.9427261352539
    vertex 127.5390777587891 45.01068496704102 96.86865234375
    vertex 127.5390701293945 45.01068878173828 100.9427337646484
  endloop
endfacet
facet normal -1.782149865903193e-06 8.054606723817415e-07 1
  outer loop
    vertex 134.9669494628906 52.77746963500977 100.942741394043
    vertex 127.5390701293945 52.77747344970703 100.9427261352539
    vertex 127.5390701293945 45.01068878173828 100.9427337646484
  endloop
endfacet
facet normal -1 8.197854839409047e-08 -1.152895833911316e-06
  outer loop
    vertex 134.8970184326172 52.77756118774414 212.4101715087891
    vertex 134.8970184326172 52.77755355834961 203.8368530273438
    vertex 134.8970184326172 45.01076889038086 203.8368682861328
  endloop
endfacet
facet normal 9.222006269737903e-07 -0.831377387046814 -0.5557081699371338
  outer loop
    vertex 153.0384063720703 49.88023376464844 221.1466064453125
    vertex 147.9391021728516 49.8802375793457 221.1465911865234
    vertex 147.9392547607422 50.20780181884766 220.6565399169922
  endloop
endfacet
facet normal 9.222006269737903e-07 -0.831377387046814 -0.5557081699371338
  outer loop
    vertex 153.0384063720703 49.88023376464844 221.1466064453125
    vertex 147.9392547607422 50.20780181884766 220.6565399169922
    vertex 153.0385589599609 50.20780181884766 220.6565399169922
  endloop
endfacet
facet normal 0.9988349080085754 -1.20754094723452e-07 -0.04825826361775398
  outer loop
    vertex 153.7873382568359 52.77753067016602 180.7606353759766
    vertex 151.2064666748047 45.01070785522461 127.3427963256836
    vertex 151.2064666748047 52.77748870849609 127.3427886962891
  endloop
endfacet
facet normal 1.070311327566742e-06 -8.054606155383226e-07 -1
  outer loop
    vertex 134.9667663574219 52.77754974365234 199.6539764404297
    vertex 134.9667663574219 45.01076507568359 199.6539764404297
    vertex 127.3880920410156 52.77754974365234 199.6539611816406
  endloop
endfacet
facet normal 0.6632193326950073 -0.6222683191299438 0.4158391952514648
  outer loop
    vertex 153.7872924804688 50.35823440551758 215.9864959716797
    vertex 153.0396881103516 50.20797729492188 216.9539794921875
    vertex 153.0398406982422 49.88055801391602 216.4637908935547
  endloop
endfacet
facet normal -8.197947920507431e-08 -1 8.054605018514849e-07
  outer loop
    vertex 134.8970184326172 45.01077651977539 212.4101867675781
    vertex 134.8970184326172 45.01076889038086 203.8368682861328
    vertex 136.7023468017578 45.01077651977539 212.4101867675781
  endloop
endfacet
facet normal -1 7.766130920572323e-07 2.238418528577313e-05
  outer loop
    vertex 147.9398803710938 52.77753067016602 180.8591156005859
    vertex 147.9398651123047 45.01074981689453 180.859130859375
    vertex 147.9406585693359 48.81235504150391 216.0211486816406
  endloop
endfacet
facet normal -8.197947920507431e-08 -1 8.054605018514849e-07
  outer loop
    vertex 147.9397888183594 45.01078414916992 224.5406951904297
    vertex 145.5265960693359 45.01078033447266 216.4715270996094
    vertex 147.9398040771484 45.01078033447266 216.4715270996094
  endloop
endfacet
facet normal 4.53381147735854e-07 1.108570089058958e-07 1
  outer loop
    vertex 147.9398040771484 52.77756500244141 224.5406951904297
    vertex 145.5265808105469 45.01078414916992 224.5406951904297
    vertex 147.9397888183594 45.01078414916992 224.5406951904297
  endloop
endfacet
facet normal -1.782149865903193e-06 8.054606723817415e-07 1
  outer loop
    vertex 147.9398040771484 52.77756500244141 224.5406951904297
    vertex 145.5265808105469 52.77756500244141 224.5406951904297
    vertex 145.5265808105469 45.01078414916992 224.5406951904297
  endloop
endfacet
facet normal -8.197947920507431e-08 -1 8.054605018514849e-07
  outer loop
    vertex 140.6187896728516 45.01077651977539 212.4101867675781
    vertex 136.7023468017578 45.01077651977539 212.4101867675781
    vertex 134.8970184326172 45.01076889038086 203.8368682861328
  endloop
endfacet
facet normal 8.197947920507431e-08 1 -8.054605018514849e-07
  outer loop
    vertex 153.7872619628906 52.77756500244141 224.5406951904297
    vertex 147.9398193359375 52.77756118774414 216.4715270996094
    vertex 147.9398040771484 52.77756500244141 224.5406951904297
  endloop
endfacet
facet normal -8.197947920507431e-08 -1 8.054605018514849e-07
  outer loop
    vertex 145.5265808105469 45.01078414916992 224.5406951904297
    vertex 140.7835388183594 45.01078033447266 216.4715270996094
    vertex 145.5265960693359 45.01078033447266 216.4715270996094
  endloop
endfacet
facet normal 9.222006269737903e-07 -0.831377387046814 -0.5557081699371338
  outer loop
    vertex 147.9391021728516 49.8802375793457 221.1465911865234
    vertex 145.5260314941406 50.20780181884766 220.6565246582031
    vertex 147.9392547607422 50.20780181884766 220.6565399169922
  endloop
endfacet
facet normal -1.782149865903193e-06 8.054606723817415e-07 1
  outer loop
    vertex 145.5265808105469 52.77756500244141 224.5406951904297
    vertex 140.7835235595703 52.77756500244141 224.5406799316406
    vertex 140.7835235595703 45.01078414916992 224.5406799316406
  endloop
endfacet
facet normal -1.782149865903193e-06 8.054606723817415e-07 1
  outer loop
    vertex 145.5265808105469 52.77756500244141 224.5406951904297
    vertex 140.7835235595703 45.01078414916992 224.5406799316406
    vertex 145.5265808105469 45.01078414916992 224.5406951904297
  endloop
endfacet
facet normal -1.562358193041291e-06 -0.8313830494880676 -0.5556997656822205
  outer loop
    vertex 145.5258636474609 49.8802375793457 221.1466064453125
    vertex 145.5260314941406 50.20780181884766 220.6565246582031
    vertex 147.9391021728516 49.8802375793457 221.1465911865234
  endloop
endfacet
facet normal 1.206091383210151e-06 8.054603881646472e-07 1
  outer loop
    vertex 136.7023620605469 52.77756118774414 212.4101715087891
    vertex 134.8970184326172 52.77756118774414 212.4101715087891
    vertex 134.8970184326172 45.01077651977539 212.4101867675781
  endloop
endfacet
facet normal -1 -9.053038957063109e-05 0.0001721290755085647
  outer loop
    vertex 140.7826690673828 48.81190490722656 221.5889282226563
    vertex 140.7826995849609 48.23378753662109 221.4738311767578
    vertex 140.7835235595703 45.01078414916992 224.5406799316406
  endloop
endfacet
facet normal -8.197947920507431e-08 -1 8.054605018514849e-07
  outer loop
    vertex 140.7835388183594 45.01078033447266 216.4715270996094
    vertex 140.7835388183594 45.01077651977539 212.4101867675781
    vertex 145.5265960693359 45.01077651977539 212.4102020263672
  endloop
endfacet
facet normal -8.197947920507431e-08 -1 8.054605018514849e-07
  outer loop
    vertex 145.5265960693359 45.01078033447266 216.4715270996094
    vertex 140.7835388183594 45.01078033447266 216.4715270996094
    vertex 145.5265960693359 45.01077651977539 212.4102020263672
  endloop
endfacet
facet normal -8.595705480729521e-07 1.108678873151803e-07 1
  outer loop
    vertex 153.7873077392578 45.01078033447266 224.5406951904297
    vertex 153.7872619628906 52.77756500244141 224.5406951904297
    vertex 147.9397888183594 45.01078414916992 224.5406951904297
  endloop
endfacet
facet normal -7.343419383687433e-07 -1 8.054584554884059e-07
  outer loop
    vertex 153.7873077392578 45.01078033447266 224.5406951904297
    vertex 147.9397888183594 45.01078414916992 224.5406951904297
    vertex 153.7873229980469 45.01077270507813 216.4715423583984
  endloop
endfacet
facet normal -8.197947920507431e-08 -1 8.054605018514849e-07
  outer loop
    vertex 145.5265808105469 45.01078414916992 224.5406951904297
    vertex 140.7835235595703 45.01078414916992 224.5406799316406
    vertex 140.7835388183594 45.01078033447266 216.4715270996094
  endloop
endfacet
facet normal -7.343407446569472e-07 -1 8.054593649831077e-07
  outer loop
    vertex 147.9397888183594 45.01078414916992 224.5406951904297
    vertex 147.9398040771484 45.01078033447266 216.4715270996094
    vertex 153.7873229980469 45.01077270507813 216.4715423583984
  endloop
endfacet
facet normal 8.197947920507431e-08 1 -8.054605018514849e-07
  outer loop
    vertex 153.7872619628906 52.77756500244141 224.5406951904297
    vertex 153.7872619628906 52.77755737304688 216.4715270996094
    vertex 147.9398193359375 52.77756118774414 216.4715270996094
  endloop
endfacet
facet normal 1.206091383210151e-06 8.054603881646472e-07 1
  outer loop
    vertex 136.7023620605469 52.77756118774414 212.4101715087891
    vertex 134.8970184326172 45.01077651977539 212.4101867675781
    vertex 136.7023468017578 45.01077651977539 212.4101867675781
  endloop
endfacet
facet normal -8.595598615102062e-07 1.108598510768388e-07 1
  outer loop
    vertex 153.7872619628906 52.77756500244141 224.5406951904297
    vertex 147.9398040771484 52.77756500244141 224.5406951904297
    vertex 147.9397888183594 45.01078414916992 224.5406951904297
  endloop
endfacet
facet normal -8.197947920507431e-08 -1 8.054605018514849e-07
  outer loop
    vertex 145.5265808105469 45.01078414916992 224.5406951904297
    vertex 145.5265960693359 45.01078033447266 216.4715270996094
    vertex 147.9397888183594 45.01078414916992 224.5406951904297
  endloop
endfacet
facet normal 7.273711730704235e-07 1 -7.429550805682084e-07
  outer loop
    vertex 145.5266571044922 52.77753067016602 180.8656921386719
    vertex 146.5295257568359 52.77752304077148 170.5107116699219
    vertex 140.6188507080078 52.77752685546875 170.5106964111328
  endloop
endfacet
facet normal 8.197947920507431e-08 1 -8.054605018514849e-07
  outer loop
    vertex 153.7873382568359 52.77753067016602 180.7606353759766
    vertex 151.2064666748047 52.77748870849609 127.3427886962891
    vertex 146.5295257568359 52.77752304077148 170.5107116699219
  endloop
endfacet
facet normal 0.002723308047279716 1.497937660133175e-06 0.9999963045120239
  outer loop
    vertex 147.9398803710938 52.77753067016602 180.8591156005859
    vertex 145.5266571044922 52.77753067016602 180.8656921386719
    vertex 147.9398651123047 45.01074981689453 180.859130859375
  endloop
endfacet
facet normal 1.325785547123814e-06 8.054603881646472e-07 1
  outer loop
    vertex 142.354736328125 52.77749633789063 134.9291534423828
    vertex 140.6189270019531 45.01071166992188 134.9291687011719
    vertex 142.354736328125 45.01071166992188 134.9291687011719
  endloop
endfacet
facet normal 1.325785547123814e-06 8.054603881646472e-07 1
  outer loop
    vertex 142.354736328125 52.77749633789063 134.9291534423828
    vertex 140.6189270019531 52.77749633789063 134.9291687011719
    vertex 140.6189270019531 45.01071166992188 134.9291687011719
  endloop
endfacet
facet normal -8.197947920507431e-08 -1 8.054605018514849e-07
  outer loop
    vertex 127.3880767822266 45.01076889038086 203.8368377685547
    vertex 127.3880844116211 45.01076507568359 199.6539764404297
    vertex 134.9667663574219 45.01076507568359 199.6539764404297
  endloop
endfacet
facet normal -0.9931870698928833 1.752819258626914e-07 0.1165308058261871
  outer loop
    vertex 146.5295257568359 52.77752304077148 170.5107116699219
    vertex 142.354736328125 45.01071166992188 134.9291687011719
    vertex 146.5295257568359 45.0107421875 170.5107116699219
  endloop
endfacet
facet normal 8.197947920507431e-08 1 -8.054605018514849e-07
  outer loop
    vertex 140.6187896728516 52.77756118774414 212.4101867675781
    vertex 134.9667663574219 52.77754974365234 199.6539764404297
    vertex 134.8970184326172 52.77755355834961 203.8368530273438
  endloop
endfacet
facet normal -8.197947920507431e-08 -1 8.054605018514849e-07
  outer loop
    vertex 140.6187896728516 45.01077651977539 212.4101867675781
    vertex 134.9667663574219 45.01076507568359 199.6539764404297
    vertex 140.6188354492188 45.01074981689453 180.8591156005859
  endloop
endfacet
facet normal -8.197947920507431e-08 -1 8.054605018514849e-07
  outer loop
    vertex 146.5295257568359 45.0107421875 170.5107116699219
    vertex 142.354736328125 45.01071166992188 134.9291687011719
    vertex 151.2064666748047 45.01070785522461 127.3427963256836
  endloop
endfacet
facet normal -8.197947920507431e-08 -1 8.054605018514849e-07
  outer loop
    vertex 134.8970184326172 45.01076889038086 203.8368682861328
    vertex 127.3880767822266 45.01076889038086 203.8368377685547
    vertex 134.9667663574219 45.01076507568359 199.6539764404297
  endloop
endfacet
facet normal -5.378269634093158e-07 -1 7.560725521216227e-07
  outer loop
    vertex 153.7873840332031 45.01074600219727 180.7606353759766
    vertex 146.5295257568359 45.0107421875 170.5107116699219
    vertex 151.2064666748047 45.01070785522461 127.3427963256836
  endloop
endfacet
facet normal 1.782149865903193e-06 -8.054606723817415e-07 -1
  outer loop
    vertex 146.5295257568359 52.77752304077148 170.5107116699219
    vertex 146.5295257568359 45.0107421875 170.5107116699219
    vertex 140.6188507080078 52.77752685546875 170.5106964111328
  endloop
endfacet
facet normal -8.197947920507431e-08 -1 8.054605018514849e-07
  outer loop
    vertex 140.6187896728516 45.01077651977539 212.4101867675781
    vertex 134.8970184326172 45.01076889038086 203.8368682861328
    vertex 134.9667663574219 45.01076507568359 199.6539764404297
  endloop
endfacet
facet normal -8.197947920507431e-08 -1 8.054605018514849e-07
  outer loop
    vertex 134.9669494628906 45.01068496704102 100.9427490234375
    vertex 127.5390777587891 45.01068496704102 96.86865234375
    vertex 134.9572906494141 45.01068496704102 96.86866760253906
  endloop
endfacet
facet normal 1 -8.197797995990186e-08 1.857958864093234e-06
  outer loop
    vertex 140.6188507080078 52.77752685546875 170.5106964111328
    vertex 140.6189270019531 45.01071166992188 134.9291687011719
    vertex 140.6189270019531 52.77749633789063 134.9291687011719
  endloop
endfacet
facet normal -0.9931870698928833 1.752819258626914e-07 0.1165308058261871
  outer loop
    vertex 146.5295257568359 52.77752304077148 170.5107116699219
    vertex 142.354736328125 52.77749633789063 134.9291534423828
    vertex 142.354736328125 45.01071166992188 134.9291687011719
  endloop
endfacet
facet normal 8.197947920507431e-08 1 -8.054605018514849e-07
  outer loop
    vertex 145.5266571044922 52.77753067016602 180.8656921386719
    vertex 147.9398803710938 52.77753067016602 180.8591156005859
    vertex 146.5295257568359 52.77752304077148 170.5107116699219
  endloop
endfacet
facet normal 1 -8.197797995990186e-08 1.857958864093234e-06
  outer loop
    vertex 140.6188507080078 52.77752685546875 170.5106964111328
    vertex 140.6188507080078 45.0107421875 170.5106964111328
    vertex 140.6189270019531 45.01071166992188 134.9291687011719
  endloop
endfacet
facet normal 0.002721078461036086 8.052344355746754e-07 0.9999963045120239
  outer loop
    vertex 147.9398651123047 45.01074981689453 180.859130859375
    vertex 145.5266571044922 52.77753067016602 180.8656921386719
    vertex 145.5266571044922 45.01074981689453 180.8657073974609
  endloop
endfacet
facet normal 1.782149865903193e-06 -8.054606723817415e-07 -1
  outer loop
    vertex 146.5295257568359 45.0107421875 170.5107116699219
    vertex 140.6188507080078 45.0107421875 170.5106964111328
    vertex 140.6188507080078 52.77752685546875 170.5106964111328
  endloop
endfacet
facet normal 8.197947920507431e-08 1 -8.054605018514849e-07
  outer loop
    vertex 140.6187896728516 52.77756118774414 212.4101867675781
    vertex 140.6188354492188 52.77753448486328 180.8591156005859
    vertex 134.9667663574219 52.77754974365234 199.6539764404297
  endloop
endfacet
facet normal 5.570466896642756e-07 1 -7.539902071584947e-07
  outer loop
    vertex 146.5295257568359 52.77752304077148 170.5107116699219
    vertex 151.2064666748047 52.77748870849609 127.3427886962891
    vertex 142.354736328125 52.77749633789063 134.9291534423828
  endloop
endfacet
facet normal 8.197947920507431e-08 1 -8.054605018514849e-07
  outer loop
    vertex 134.9667663574219 52.77754974365234 199.6539764404297
    vertex 140.6189270019531 52.77749633789063 134.9291687011719
    vertex 134.9669494628906 52.77746963500977 100.942741394043
  endloop
endfacet
facet normal 4.03917397306941e-07 1 -8.589990443397255e-07
  outer loop
    vertex 140.6189270019531 52.77749633789063 134.9291687011719
    vertex 151.2064666748047 52.77748870849609 127.3427886962891
    vertex 134.9669494628906 52.77746963500977 100.942741394043
  endloop
endfacet
facet normal -8.197947920507431e-08 -1 8.054605018514849e-07
  outer loop
    vertex 140.6189270019531 45.01071166992188 134.9291687011719
    vertex 151.2064666748047 45.01070785522461 127.3427963256836
    vertex 142.354736328125 45.01071166992188 134.9291687011719
  endloop
endfacet
facet normal -8.197947920507431e-08 -1 8.054605018514849e-07
  outer loop
    vertex 134.9667663574219 45.01076507568359 199.6539764404297
    vertex 140.6189270019531 45.01071166992188 134.9291687011719
    vertex 140.6188507080078 45.0107421875 170.5106964111328
  endloop
endfacet
facet normal -8.197947920507431e-08 -1 8.054605018514849e-07
  outer loop
    vertex 146.5483551025391 45.01069259643555 111.0021514892578
    vertex 134.9669494628906 45.01068496704102 100.9427490234375
    vertex 137.5990600585938 45.01068115234375 92.81797790527344
  endloop
endfacet
facet normal 8.197947920507431e-08 1 -8.054605018514849e-07
  outer loop
    vertex 134.9667663574219 52.77754974365234 199.6539764404297
    vertex 140.6188507080078 52.77752685546875 170.5106964111328
    vertex 140.6189270019531 52.77749633789063 134.9291687011719
  endloop
endfacet
facet normal -8.197947920507431e-08 -1 8.054605018514849e-07
  outer loop
    vertex 134.9667663574219 45.01076507568359 199.6539764404297
    vertex 140.6188507080078 45.0107421875 170.5106964111328
    vertex 140.6188354492188 45.01074981689453 180.8591156005859
  endloop
endfacet
facet normal 8.197947920507431e-08 1 -8.054605018514849e-07
  outer loop
    vertex 147.9398040771484 52.77756500244141 224.5406951904297
    vertex 147.9398193359375 52.77756118774414 216.4715270996094
    vertex 145.5265808105469 52.77756500244141 224.5406951904297
  endloop
endfacet
facet normal -1.782149865903193e-06 8.054606723817415e-07 1
  outer loop
    vertex 140.6187896728516 52.77756118774414 212.4101867675781
    vertex 136.7023620605469 52.77756118774414 212.4101715087891
    vertex 140.6187896728516 45.01077651977539 212.4101867675781
  endloop
endfacet
facet normal 8.197947920507431e-08 1 -8.054605018514849e-07
  outer loop
    vertex 140.6187896728516 52.77756118774414 212.4101867675781
    vertex 134.8970184326172 52.77755355834961 203.8368530273438
    vertex 136.7023620605469 52.77756118774414 212.4101715087891
  endloop
endfacet
facet normal 8.197947920507431e-08 1 -8.054605018514849e-07
  outer loop
    vertex 145.5265808105469 52.77756500244141 224.5406951904297
    vertex 147.9398193359375 52.77756118774414 216.4715270996094
    vertex 145.5265960693359 52.77756118774414 216.4715118408203
  endloop
endfacet
facet normal 8.197947920507431e-08 1 -8.054605018514849e-07
  outer loop
    vertex 147.9398193359375 52.77756118774414 216.4715270996094
    vertex 153.7873382568359 52.77753067016602 180.7606353759766
    vertex 147.9398803710938 52.77753067016602 180.8591156005859
  endloop
endfacet
facet normal -8.197947920507431e-08 -1 8.054605018514849e-07
  outer loop
    vertex 134.9669494628906 45.01068496704102 100.9427490234375
    vertex 127.5390701293945 45.01068878173828 100.9427337646484
    vertex 127.5390777587891 45.01068496704102 96.86865234375
  endloop
endfacet
facet normal -8.197947920507431e-08 -1 8.054605018514849e-07
  outer loop
    vertex 134.9572906494141 45.01068496704102 96.86866760253906
    vertex 134.9572906494141 45.01068115234375 92.81797027587891
    vertex 137.5990600585938 45.01068115234375 92.81797790527344
  endloop
endfacet
facet normal -8.197947920507431e-08 -1 8.054605018514849e-07
  outer loop
    vertex 140.6189270019531 45.01071166992188 134.9291687011719
    vertex 134.9669494628906 45.01068496704102 100.9427490234375
    vertex 146.5483551025391 45.01069259643555 111.0021514892578
  endloop
endfacet
facet normal -7.328476954171492e-07 -1 8.941646001403569e-07
  outer loop
    vertex 147.9398651123047 45.01074981689453 180.859130859375
    vertex 146.5295257568359 45.0107421875 170.5107116699219
    vertex 153.7873840332031 45.01074600219727 180.7606353759766
  endloop
endfacet
facet normal -8.197947920507431e-08 -1 8.054605018514849e-07
  outer loop
    vertex 134.9669494628906 45.01068496704102 100.9427490234375
    vertex 134.9572906494141 45.01068496704102 96.86866760253906
    vertex 137.5990600585938 45.01068115234375 92.81797790527344
  endloop
endfacet
facet normal 8.197947920507431e-08 1 -8.054605018514849e-07
  outer loop
    vertex 153.7872619628906 52.77755737304688 216.4715270996094
    vertex 153.7873382568359 52.77753067016602 180.7606353759766
    vertex 147.9398193359375 52.77756118774414 216.4715270996094
  endloop
endfacet
facet normal 8.197947920507431e-08 1 -8.054605018514849e-07
  outer loop
    vertex 134.9667663574219 52.77754974365234 199.6539764404297
    vertex 140.6188354492188 52.77753448486328 180.8591156005859
    vertex 140.6188507080078 52.77752685546875 170.5106964111328
  endloop
endfacet
facet normal -7.343407446569472e-07 -1 8.054595355133642e-07
  outer loop
    vertex 153.7873229980469 45.01077270507813 216.4715423583984
    vertex 147.9398040771484 45.01078033447266 216.4715270996094
    vertex 153.7873840332031 45.01074600219727 180.7606353759766
  endloop
endfacet
facet normal -7.343419383687433e-07 -1 8.054593649831077e-07
  outer loop
    vertex 147.9398040771484 45.01078033447266 216.4715270996094
    vertex 147.9398651123047 45.01074981689453 180.859130859375
    vertex 153.7873840332031 45.01074600219727 180.7606353759766
  endloop
endfacet
facet normal 8.19788112949027e-08 1 -1.308296987190261e-06
  outer loop
    vertex 140.6189270019531 52.77749633789063 134.9291687011719
    vertex 142.354736328125 52.77749633789063 134.9291534423828
    vertex 151.2064666748047 52.77748870849609 127.3427886962891
  endloop
endfacet
facet normal -8.197947920507431e-08 -1 8.054605018514849e-07
  outer loop
    vertex 134.9667663574219 45.01076507568359 199.6539764404297
    vertex 134.9669494628906 45.01068496704102 100.9427490234375
    vertex 140.6189270019531 45.01071166992188 134.9291687011719
  endloop
endfacet
facet normal 8.197947920507431e-08 1 -8.054605018514849e-07
  outer loop
    vertex 147.9398803710938 52.77753067016602 180.8591156005859
    vertex 153.7873382568359 52.77753067016602 180.7606353759766
    vertex 146.5295257568359 52.77752304077148 170.5107116699219
  endloop
endfacet
facet normal -8.197947920507431e-08 -1 8.054605018514849e-07
  outer loop
    vertex 140.6189270019531 45.01071166992188 134.9291687011719
    vertex 146.5483551025391 45.01069259643555 111.0021514892578
    vertex 151.2064666748047 45.01070785522461 127.3427963256836
  endloop
endfacet
endsolid 5A9B
