solid F33F
facet normal 5.512719170042146e-08 -1.483399728385848e-06 -1
  outer loop
    vertex 97.32582855224609 140.8273773193359 0.01036345493048429
    vertex 108.2977752685547 120.2995147705078 0.01039451081305742
    vertex 102.5393218994141 120.2717132568359 0.01039423514157534
  endloop
endfacet
facet normal -0.9871571660041809 -0.1597521007061005 -1.551033648183875e-07
  outer loop
    vertex 5.684341886080801e-14 190.7144317626953 7.499967575073242
    vertex 11.38881778717041 120.3394546508789 0.01037460379302502
    vertex 11.38881874084473 120.3394393920898 7.499983310699463
  endloop
endfacet
facet normal -0.9871571660041809 -0.1597521156072617 -4.725852420506271e-08
  outer loop
    vertex 3.592609232327959e-07 190.7144317626953 0.01035875733941793
    vertex 11.38881778717041 120.3394546508789 0.01037460379302502
    vertex 5.684341886080801e-14 190.7144317626953 7.499967575073242
  endloop
endfacet
facet normal 0.03336898982524872 -0.9994431138038635 2.184589620313204e-09
  outer loop
    vertex 17.68123245239258 120.5495452880859 0.01037490554153919
    vertex 17.68123054504395 120.5495452880859 7.499983787536621
    vertex 11.38881778717041 120.3394546508789 0.01037460379302502
  endloop
endfacet
facet normal 0.03337140753865242 -0.999442994594574 -2.029551978921518e-06
  outer loop
    vertex 11.38881778717041 120.3394546508789 0.01037460379302502
    vertex 17.68123054504395 120.5495452880859 7.499983787536621
    vertex 11.38881874084473 120.3394393920898 7.499983310699463
  endloop
endfacet
facet normal -0.9974451065063477 0.07143706828355789 -7.885675586294383e-06
  outer loop
    vertex 17.68123245239258 120.5495452880859 0.01037490554153919
    vertex 17.39950561523438 116.6159286499023 0.0103748943656683
    vertex 17.39944648742676 116.6159210205078 7.499983787536621
  endloop
endfacet
facet normal -0.9974440336227417 0.07145190984010696 -4.78870525455477e-08
  outer loop
    vertex 17.68123245239258 120.5495452880859 0.01037490554153919
    vertex 17.39944648742676 116.6159210205078 7.499983787536621
    vertex 17.68123054504395 120.5495452880859 7.499983787536621
  endloop
endfacet
facet normal -0.7760739326477051 0.6306419968605042 2.203650865340023e-06
  outer loop
    vertex 15.41565895080566 114.1745910644531 0.01037480030208826
    vertex 15.41558647155762 114.1744766235352 7.499983787536621
    vertex 17.39950561523438 116.6159286499023 0.0103748943656683
  endloop
endfacet
facet normal -0.7760847806930542 0.6306285858154297 -5.050859272159869e-06
  outer loop
    vertex 17.39950561523438 116.6159286499023 0.0103748943656683
    vertex 15.41558647155762 114.1744766235352 7.499983787536621
    vertex 17.39944648742676 116.6159210205078 7.499983787536621
  endloop
endfacet
facet normal -0.04341332241892815 -0.9990571737289429 -6.851284979347838e-06
  outer loop
    vertex 28.85446548461914 113.5906143188477 0.01037544570863247
    vertex 28.85427856445313 113.590576171875 7.499984264373779
    vertex 15.41565895080566 114.1745910644531 0.01037480030208826
  endloop
endfacet
facet normal -0.04340835288167 -0.999057412147522 -1.578522278578021e-05
  outer loop
    vertex 15.41565895080566 114.1745910644531 0.01037480030208826
    vertex 28.85427856445313 113.590576171875 7.499984264373779
    vertex 15.41558647155762 114.1744766235352 7.499983787536621
  endloop
endfacet
facet normal 0.8587774634361267 0.5123487114906311 2.351578950765543e-05
  outer loop
    vertex 27.34404563903809 116.1219787597656 7.499984264373779
    vertex 28.85446548461914 113.5906143188477 0.01037544570863247
    vertex 27.34432983398438 116.1218414306641 0.01037537213414907
  endloop
endfacet
facet normal 0.858778715133667 0.5123466849327087 2.445970312692225e-05
  outer loop
    vertex 27.34404563903809 116.1219787597656 7.499984264373779
    vertex 28.85427856445313 113.590576171875 7.499984264373779
    vertex 28.85446548461914 113.5906143188477 0.01037544570863247
  endloop
endfacet
facet normal 0.9973104596138 -0.07329311221837997 3.759862374863587e-05
  outer loop
    vertex 27.63991737365723 120.1478042602539 7.499984264373779
    vertex 27.34432983398438 116.1218414306641 0.01037537213414907
    vertex 27.64019203186035 120.1476821899414 0.01036012452095747
  endloop
endfacet
facet normal 0.9973102807998657 -0.07329564541578293 3.896721682394855e-05
  outer loop
    vertex 27.63991737365723 120.1478042602539 7.499984264373779
    vertex 27.34404563903809 116.1219787597656 7.499984264373779
    vertex 27.34432983398438 116.1218414306641 0.01037537213414907
  endloop
endfacet
facet normal 0.09055619686841965 -0.9958913326263428 4.925664764954263e-09
  outer loop
    vertex 33.70013427734375 120.6988525390625 0.01036041509360075
    vertex 33.70013046264648 120.6988525390625 7.499984264373779
    vertex 27.63991737365723 120.1478042602539 7.499984264373779
  endloop
endfacet
facet normal 0.09057920426130295 -0.9958892464637756 1.877575050457381e-05
  outer loop
    vertex 33.70013427734375 120.6988525390625 0.01036041509360075
    vertex 27.63991737365723 120.1478042602539 7.499984264373779
    vertex 27.64019203186035 120.1476821899414 0.01036012452095747
  endloop
endfacet
facet normal -4.796790875616352e-08 5.842742401007683e-10 1
  outer loop
    vertex 15.41558647155762 114.1744766235352 7.499983787536621
    vertex 28.85427856445313 113.590576171875 7.499984264373779
    vertex 17.39944648742676 116.6159210205078 7.499983787536621
  endloop
endfacet
facet normal -4.796790875616352e-08 5.842742401007683e-10 1
  outer loop
    vertex 17.39944648742676 116.6159210205078 7.499983787536621
    vertex 28.85427856445313 113.590576171875 7.499984264373779
    vertex 27.34404563903809 116.1219787597656 7.499984264373779
  endloop
endfacet
facet normal -4.796790875616352e-08 5.842742401007683e-10 1
  outer loop
    vertex 17.39944648742676 116.6159210205078 7.499983787536621
    vertex 27.34404563903809 116.1219787597656 7.499984264373779
    vertex 17.68123054504395 120.5495452880859 7.499983787536621
  endloop
endfacet
facet normal -4.796790875616352e-08 5.842742401007683e-10 1
  outer loop
    vertex 17.68123054504395 120.5495452880859 7.499983787536621
    vertex 27.34404563903809 116.1219787597656 7.499984264373779
    vertex 27.63991737365723 120.1478042602539 7.499984264373779
  endloop
endfacet
facet normal -4.796790875616352e-08 5.842742401007683e-10 1
  outer loop
    vertex 59.86542892456055 167.0205688476563 7.499970436096191
    vertex 69.33170318603516 144.0851745605469 7.49997091293335
    vertex 77.05104827880859 151.8010559082031 7.499971389770508
  endloop
endfacet
facet normal 4.796790875616352e-08 -5.842742401007683e-10 -1
  outer loop
    vertex 17.39950561523438 116.6159286499023 0.0103748943656683
    vertex 27.34432983398438 116.1218414306641 0.01037537213414907
    vertex 28.85446548461914 113.5906143188477 0.01037544570863247
  endloop
endfacet
facet normal 4.796790875616352e-08 -5.842742401007683e-10 -1
  outer loop
    vertex 15.41565895080566 114.1745910644531 0.01037480030208826
    vertex 17.39950561523438 116.6159286499023 0.0103748943656683
    vertex 28.85446548461914 113.5906143188477 0.01037544570863247
  endloop
endfacet
facet normal -1.632157477615692e-06 -3.66732297152339e-06 -1
  outer loop
    vertex 17.68123245239258 120.5495452880859 0.01037490554153919
    vertex 27.64019203186035 120.1476821899414 0.01036012452095747
    vertex 27.34432983398438 116.1218414306641 0.01037537213414907
  endloop
endfacet
facet normal 4.796790875616352e-08 -5.842742401007683e-10 -1
  outer loop
    vertex 17.39950561523438 116.6159286499023 0.0103748943656683
    vertex 17.68123245239258 120.5495452880859 0.01037490554153919
    vertex 27.34432983398438 116.1218414306641 0.01037537213414907
  endloop
endfacet
facet normal 1.300598881925907e-07 1.53037012751156e-06 1
  outer loop
    vertex 69.33170318603516 144.0851745605469 7.49997091293335
    vertex 102.5392837524414 120.2717437744141 7.500002861022949
    vertex 97.32582855224609 140.8273773193359 7.499972343444824
  endloop
endfacet
facet normal 4.796790875616352e-08 -5.842742401007683e-10 -1
  outer loop
    vertex 108.2977752685547 120.2995147705078 0.01039451081305742
    vertex 116.9842529296875 119.7786407470703 0.01039492804557085
    vertex 116.7077560424805 115.7569274902344 0.01039491686969995
  endloop
endfacet
facet normal 4.796790875616352e-08 -5.842742401007683e-10 -1
  outer loop
    vertex 108.0340728759766 116.3698348999023 0.0103945005685091
    vertex 108.2977752685547 120.2995147705078 0.01039451081305742
    vertex 116.7077560424805 115.7569274902344 0.01039491686969995
  endloop
endfacet
facet normal 4.796790875616352e-08 -5.842742401007683e-10 -1
  outer loop
    vertex 108.0340728759766 116.3698348999023 0.0103945005685091
    vertex 116.7077560424805 115.7569274902344 0.01039491686969995
    vertex 118.0136489868164 113.2079925537109 0.0103949811309576
  endloop
endfacet
facet normal 4.796790875616352e-08 -5.842742401007683e-10 -1
  outer loop
    vertex 106.2922134399414 113.9525527954102 0.01039441861212254
    vertex 108.0340728759766 116.3698348999023 0.0103945005685091
    vertex 118.0136489868164 113.2079925537109 0.0103949811309576
  endloop
endfacet
facet normal -4.796790875616352e-08 5.842742401007683e-10 1
  outer loop
    vertex 108.0340118408203 116.3698272705078 7.500003337860107
    vertex 116.7075119018555 115.7570419311523 7.500003814697266
    vertex 108.2977752685547 120.2995147705078 7.500003337860107
  endloop
endfacet
facet normal -4.796790875616352e-08 5.842742401007683e-10 1
  outer loop
    vertex 108.2977752685547 120.2995147705078 7.500003337860107
    vertex 116.7075119018555 115.7570419311523 7.500003814697266
    vertex 116.9839782714844 119.7787857055664 7.500003814697266
  endloop
endfacet
facet normal -4.796790875616352e-08 5.842742401007683e-10 1
  outer loop
    vertex 106.2921447753906 113.9524459838867 7.500003337860107
    vertex 118.0134735107422 113.2079544067383 7.500003814697266
    vertex 108.0340118408203 116.3698272705078 7.500003337860107
  endloop
endfacet
facet normal -4.796790875616352e-08 5.842742401007683e-10 1
  outer loop
    vertex 108.0340118408203 116.3698272705078 7.500003337860107
    vertex 118.0134735107422 113.2079544067383 7.500003814697266
    vertex 116.7075119018555 115.7570419311523 7.500003814697266
  endloop
endfacet
facet normal 0.9976449012756348 -0.06859008222818375 3.825184103334323e-05
  outer loop
    vertex 116.9839782714844 119.7787857055664 7.500003814697266
    vertex 116.7077560424805 115.7569274902344 0.01039491686969995
    vertex 116.9842529296875 119.7786407470703 0.01039492804557085
  endloop
endfacet
facet normal 0.9976456165313721 -0.06858039647340775 3.302469121990725e-05
  outer loop
    vertex 116.9839782714844 119.7787857055664 7.500003814697266
    vertex 116.7075119018555 115.7570419311523 7.500003814697266
    vertex 116.7077560424805 115.7569274902344 0.01039491686969995
  endloop
endfacet
facet normal 0.8899940252304077 0.4559721648693085 2.117642179655377e-05
  outer loop
    vertex 116.7075119018555 115.7570419311523 7.500003814697266
    vertex 118.0136489868164 113.2079925537109 0.0103949811309576
    vertex 116.7077560424805 115.7569274902344 0.01039491686969995
  endloop
endfacet
facet normal 0.8899973630905151 0.4559656977653503 2.396491072431672e-05
  outer loop
    vertex 116.7075119018555 115.7570419311523 7.500003814697266
    vertex 118.0134735107422 113.2079544067383 7.500003814697266
    vertex 118.0136489868164 113.2079925537109 0.0103949811309576
  endloop
endfacet
facet normal -0.06339298188686371 -0.9979886412620544 -7.172146979428362e-06
  outer loop
    vertex 118.0136489868164 113.2079925537109 0.0103949811309576
    vertex 118.0134735107422 113.2079544067383 7.500003814697266
    vertex 106.2922134399414 113.9525527954102 0.01039441861212254
  endloop
endfacet
facet normal -0.06338807940483093 -0.9979889392852783 -1.487131885369308e-05
  outer loop
    vertex 106.2922134399414 113.9525527954102 0.01039441861212254
    vertex 118.0134735107422 113.2079544067383 7.500003814697266
    vertex 106.2921447753906 113.9524459838867 7.500003337860107
  endloop
endfacet
facet normal -0.8113095164299011 0.5846168398857117 8.535823212696414e-07
  outer loop
    vertex 108.0340728759766 116.3698348999023 0.0103945005685091
    vertex 106.2922134399414 113.9525527954102 0.01039441861212254
    vertex 106.2921447753906 113.9524459838867 7.500003337860107
  endloop
endfacet
facet normal -0.8113187551498413 0.584604024887085 -5.420995876193047e-06
  outer loop
    vertex 108.0340728759766 116.3698348999023 0.0103945005685091
    vertex 106.2921447753906 113.9524459838867 7.500003337860107
    vertex 108.0340118408203 116.3698272705078 7.500003337860107
  endloop
endfacet
facet normal -0.9977559447288513 0.06695564091205597 -7.896628630987834e-06
  outer loop
    vertex 108.2977752685547 120.2995147705078 0.01039451081305742
    vertex 108.0340728759766 116.3698348999023 0.0103945005685091
    vertex 108.0340118408203 116.3698272705078 7.500003337860107
  endloop
endfacet
facet normal -0.9977549314498901 0.06697052717208862 -4.789934848759003e-08
  outer loop
    vertex 108.2977752685547 120.2995147705078 0.01039451081305742
    vertex 108.0340118408203 116.3698272705078 7.500003337860107
    vertex 108.2977752685547 120.2995147705078 7.500003337860107
  endloop
endfacet
facet normal -4.412890319827056e-08 -1.536451236461289e-06 -1
  outer loop
    vertex 97.32582855224609 140.8273773193359 0.01036345493048429
    vertex 116.9842529296875 119.7786407470703 0.01039492804557085
    vertex 108.2977752685547 120.2995147705078 0.01039451081305742
  endloop
endfacet
facet normal 0.004823384806513786 -0.9999883770942688 8.15635115003488e-10
  outer loop
    vertex 108.2977752685547 120.2995147705078 0.01039451081305742
    vertex 108.2977752685547 120.2995147705078 7.500003337860107
    vertex 102.5392837524414 120.2717437744141 7.500002861022949
  endloop
endfacet
facet normal 0.004828113131225109 -0.999988317489624 3.636484052549349e-06
  outer loop
    vertex 108.2977752685547 120.2995147705078 0.01039451081305742
    vertex 102.5392837524414 120.2717437744141 7.500002861022949
    vertex 102.5393218994141 120.2717132568359 0.01039423514157534
  endloop
endfacet
facet normal 0.9685962200164795 0.2486389726400375 4.631626282503021e-08
  outer loop
    vertex 101.7218856811523 192.6555023193359 7.499972343444824
    vertex 120.8352203369141 118.1977233886719 7.500003814697266
    vertex 101.7218856811523 192.6555023193359 0.01036363560706377
  endloop
endfacet
facet normal 0.9685962796211243 0.2486387491226196 -2.261932877445361e-06
  outer loop
    vertex 101.7218856811523 192.6555023193359 0.01036363560706377
    vertex 120.8352203369141 118.1977233886719 7.500003814697266
    vertex 120.8352127075195 118.1977081298828 0.01039511431008577
  endloop
endfacet
facet normal -0.3797731995582581 -0.9250796437263489 2.744573748714174e-06
  outer loop
    vertex 120.8352127075195 118.1977081298828 0.01039511431008577
    vertex 120.8352203369141 118.1977233886719 7.500003814697266
    vertex 116.9842529296875 119.7786407470703 0.01039492804557085
  endloop
endfacet
facet normal -0.3797753751277924 -0.9250787496566772 4.062200787302572e-06
  outer loop
    vertex 116.9842529296875 119.7786407470703 0.01039492804557085
    vertex 120.8352203369141 118.1977233886719 7.500003814697266
    vertex 116.9839782714844 119.7787857055664 7.500003814697266
  endloop
endfacet
facet normal -5.512019995990158e-08 1.483403480051493e-06 1
  outer loop
    vertex 97.32582855224609 140.8273773193359 7.499972343444824
    vertex 102.5392837524414 120.2717437744141 7.500002861022949
    vertex 108.2977752685547 120.2995147705078 7.500003337860107
  endloop
endfacet
facet normal 1.471111886530707e-06 -1.212951445950239e-07 -1
  outer loop
    vertex 97.32582855224609 140.8273773193359 0.01036345493048429
    vertex 101.7218856811523 192.6555023193359 0.01036363560706377
    vertex 116.9842529296875 119.7786407470703 0.01039492804557085
  endloop
endfacet
facet normal 1.401159011038544e-07 4.587296302815957e-07 1
  outer loop
    vertex 101.7218856811523 192.6555023193359 7.499972343444824
    vertex 116.9839782714844 119.7787857055664 7.500003814697266
    vertex 120.8352203369141 118.1977233886719 7.500003814697266
  endloop
endfacet
facet normal -1.401144089641093e-07 -4.58729118690826e-07 -1
  outer loop
    vertex 101.7218856811523 192.6555023193359 0.01036363560706377
    vertex 120.8352127075195 118.1977081298828 0.01039511431008577
    vertex 116.9842529296875 119.7786407470703 0.01039492804557085
  endloop
endfacet
facet normal -1.471131099606282e-06 1.212967788433161e-07 1
  outer loop
    vertex 97.32582855224609 140.8273773193359 7.499972343444824
    vertex 116.9839782714844 119.7787857055664 7.500003814697266
    vertex 101.7218856811523 192.6555023193359 7.499972343444824
  endloop
endfacet
facet normal -0.5827560424804688 -0.8126471042633057 2.93908442472457e-07
  outer loop
    vertex 69.33170318603516 144.0851745605469 0.01036211103200912
    vertex 102.5393218994141 120.2717132568359 0.01039423514157534
    vertex 102.5392837524414 120.2717437744141 7.500002861022949
  endloop
endfacet
facet normal -0.5827560424804688 -0.8126471638679504 -2.747877836384305e-08
  outer loop
    vertex 69.33170318603516 144.0851745605469 0.01036211103200912
    vertex 102.5392837524414 120.2717437744141 7.500002861022949
    vertex 69.33170318603516 144.0851745605469 7.49997091293335
  endloop
endfacet
facet normal -7.439778642037709e-07 1.217089504734759e-07 -1
  outer loop
    vertex 17.68123245239258 120.5495452880859 0.01037490554153919
    vertex 40.48968124389648 143.4802093505859 0.01036072708666325
    vertex 38.73480987548828 132.1160278320313 0.01036064978688955
  endloop
endfacet
facet normal -1.428953737558913e-06 1.368517700939265e-06 -1
  outer loop
    vertex 17.68123245239258 120.5495452880859 0.01037490554153919
    vertex 38.73480987548828 132.1160278320313 0.01036064978688955
    vertex 27.64019203186035 120.1476821899414 0.01036012452095747
  endloop
endfacet
facet normal -1.3005967502977e-07 -1.530368308522156e-06 -1
  outer loop
    vertex 69.33170318603516 144.0851745605469 0.01036211103200912
    vertex 97.32582855224609 140.8273773193359 0.01036345493048429
    vertex 102.5393218994141 120.2717132568359 0.01039423514157534
  endloop
endfacet
facet normal 1.610042432709236e-09 1.229558165505296e-06 1
  outer loop
    vertex 17.68123054504395 120.5495452880859 7.499983787536621
    vertex 27.63991737365723 120.1478042602539 7.499984264373779
    vertex 38.73467636108398 132.1161041259766 7.499969482421875
  endloop
endfacet
facet normal 7.439897444783128e-07 -1.217207739045989e-07 1
  outer loop
    vertex 17.68123054504395 120.5495452880859 7.499983787536621
    vertex 38.73467636108398 132.1161041259766 7.499969482421875
    vertex 40.48968124389648 143.4802093505859 7.499969482421875
  endloop
endfacet
facet normal 0.9882861375808716 -0.1526123434305191 4.749518467406233e-08
  outer loop
    vertex 40.48968124389648 143.4802093505859 7.499969482421875
    vertex 38.73480987548828 132.1160278320313 0.01036064978688955
    vertex 40.48968124389648 143.4802093505859 0.01036072708666325
  endloop
endfacet
facet normal 0.9882842302322388 -0.1526245176792145 1.894622437248472e-05
  outer loop
    vertex 40.48968124389648 143.4802093505859 7.499969482421875
    vertex 38.73467636108398 132.1161041259766 7.499969482421875
    vertex 38.73480987548828 132.1160278320313 0.01036064978688955
  endloop
endfacet
facet normal 4.796790875616352e-08 -5.842742401007683e-10 -1
  outer loop
    vertex 27.64019203186035 120.1476821899414 0.01036012452095747
    vertex 38.73480987548828 132.1160278320313 0.01036064978688955
    vertex 33.70013427734375 120.6988525390625 0.01036041509360075
  endloop
endfacet
facet normal 2.141996219506836e-06 5.718083571082389e-07 1
  outer loop
    vertex 5.684341886080801e-14 190.7144317626953 7.499967575073242
    vertex 11.38881874084473 120.3394393920898 7.499983310699463
    vertex 8.621783256530762 157.6601715087891 7.4999680519104
  endloop
endfacet
facet normal -6.15858866126473e-08 4.0843022475201e-07 1
  outer loop
    vertex 11.38881874084473 120.3394393920898 7.499983310699463
    vertex 17.68123054504395 120.5495452880859 7.499983787536621
    vertex 8.621783256530762 157.6601715087891 7.4999680519104
  endloop
endfacet
facet normal 6.158490606367195e-08 -4.084304805473948e-07 -1
  outer loop
    vertex 11.38881778717041 120.3394546508789 0.01037460379302502
    vertex 8.621783256530762 157.6601715087891 0.01035919040441513
    vertex 17.68123245239258 120.5495452880859 0.01037490554153919
  endloop
endfacet
facet normal -2.141996901627863e-06 -5.718085276384954e-07 -1
  outer loop
    vertex 3.592609232327959e-07 190.7144317626953 0.01035875733941793
    vertex 8.621783256530762 157.6601715087891 0.01035919040441513
    vertex 11.38881778717041 120.3394546508789 0.01037460379302502
  endloop
endfacet
facet normal 0.9843839406967163 -0.1760348528623581 4.732169145427179e-08
  outer loop
    vertex 44.40095901489258 165.3520050048828 7.499969482421875
    vertex 40.48968124389648 143.4802093505859 7.499969482421875
    vertex 40.48968124389648 143.4802093505859 0.01036072708666325
  endloop
endfacet
facet normal 0.9843838810920715 -0.1760351806879044 1.025055325953872e-06
  outer loop
    vertex 44.40095901489258 165.3520050048828 7.499969482421875
    vertex 40.48968124389648 143.4802093505859 0.01036072708666325
    vertex 44.40096664428711 165.3520050048828 0.01036090217530727
  endloop
endfacet
facet normal -4.796790875616352e-08 5.842742401007683e-10 1
  outer loop
    vertex 32.20991134643555 155.0673370361328 7.499969005584717
    vertex 40.48968124389648 143.4802093505859 7.499969482421875
    vertex 44.40095901489258 165.3520050048828 7.499969482421875
  endloop
endfacet
facet normal -4.796790875616352e-08 5.842742401007683e-10 1
  outer loop
    vertex 30.80048370361328 147.4295654296875 7.499969005584717
    vertex 40.48968124389648 143.4802093505859 7.499969482421875
    vertex 32.20991134643555 155.0673370361328 7.499969005584717
  endloop
endfacet
facet normal 4.796790875616352e-08 -5.842742401007683e-10 -1
  outer loop
    vertex 30.80048370361328 147.4295654296875 0.01036026049405336
    vertex 32.20991897583008 155.0673522949219 0.01036032382398844
    vertex 40.48968124389648 143.4802093505859 0.01036072708666325
  endloop
endfacet
facet normal 4.796790875616352e-08 -5.842742401007683e-10 -1
  outer loop
    vertex 32.20991897583008 155.0673522949219 0.01036032382398844
    vertex 44.40096664428711 165.3520050048828 0.01036090217530727
    vertex 40.48968124389648 143.4802093505859 0.01036072708666325
  endloop
endfacet
facet normal 4.796790875616352e-08 -5.842742401007683e-10 -1
  outer loop
    vertex 8.621783256530762 157.6601715087891 0.01035919040441513
    vertex 13.87810897827148 157.1596527099609 0.01035944279283285
    vertex 19.31285667419434 132.7639770507813 0.01035971753299236
  endloop
endfacet
facet normal -2.170903599107987e-06 -9.534257401355717e-07 -1
  outer loop
    vertex 8.621783256530762 157.6601715087891 0.01035919040441513
    vertex 19.31285667419434 132.7639770507813 0.01035971753299236
    vertex 17.68123245239258 120.5495452880859 0.01037490554153919
  endloop
endfacet
facet normal 4.796790875616352e-08 -5.842742401007683e-10 -1
  outer loop
    vertex 3.592609232327959e-07 190.7144317626953 0.01035875733941793
    vertex 8.637154579162598 179.7592926025391 0.01035917829722166
    vertex 13.87810897827148 157.1596527099609 0.01035944279283285
  endloop
endfacet
facet normal 4.796790875616352e-08 -5.842742401007683e-10 -1
  outer loop
    vertex 3.592609232327959e-07 190.7144317626953 0.01035875733941793
    vertex 13.87810897827148 157.1596527099609 0.01035944279283285
    vertex 8.621783256530762 157.6601715087891 0.01035919040441513
  endloop
endfacet
facet normal -1.136579271587834e-06 1.460027618804816e-07 1
  outer loop
    vertex 8.621783256530762 157.6601715087891 7.4999680519104
    vertex 17.68123054504395 120.5495452880859 7.499983787536621
    vertex 19.31285667419434 132.7639770507813 7.499983787536621
  endloop
endfacet
facet normal 1.288136619592706e-08 6.396112439688295e-07 1
  outer loop
    vertex 8.621783256530762 157.6601715087891 7.4999680519104
    vertex 19.31285667419434 132.7639770507813 7.499983787536621
    vertex 13.87810897827148 157.1596527099609 7.4999680519104
  endloop
endfacet
facet normal -4.796790875616352e-08 5.842742401007683e-10 1
  outer loop
    vertex 5.684341886080801e-14 190.7144317626953 7.499967575073242
    vertex 8.621783256530762 157.6601715087891 7.4999680519104
    vertex 13.87810897827148 157.1596527099609 7.4999680519104
  endloop
endfacet
facet normal -4.796790875616352e-08 5.842742401007683e-10 1
  outer loop
    vertex 5.684341886080801e-14 190.7144317626953 7.499967575073242
    vertex 13.87810897827148 157.1596527099609 7.4999680519104
    vertex 8.637153625488281 179.7592926025391 7.4999680519104
  endloop
endfacet
facet normal 1.450207918196611e-07 4.740556391880091e-07 1
  outer loop
    vertex 17.68123054504395 120.5495452880859 7.499983787536621
    vertex 40.48968124389648 143.4802093505859 7.499969482421875
    vertex 30.80048370361328 147.4295654296875 7.499969005584717
  endloop
endfacet
facet normal 1.553403649268148e-06 -2.133295566864035e-07 1
  outer loop
    vertex 17.68123054504395 120.5495452880859 7.499983787536621
    vertex 30.80048370361328 147.4295654296875 7.499969005584717
    vertex 19.31285667419434 132.7639770507813 7.499983787536621
  endloop
endfacet
facet normal 1.970696757780388e-06 -1.506667445028143e-06 -1
  outer loop
    vertex 17.68123245239258 120.5495452880859 0.01037490554153919
    vertex 19.31285667419434 132.7639770507813 0.01035971753299236
    vertex 30.80048370361328 147.4295654296875 0.01036026049405336
  endloop
endfacet
facet normal -1.450207918196611e-07 -4.740556391880091e-07 -1
  outer loop
    vertex 17.68123245239258 120.5495452880859 0.01037490554153919
    vertex 30.80048370361328 147.4295654296875 0.01036026049405336
    vertex 40.48968124389648 143.4802093505859 0.01036072708666325
  endloop
endfacet
facet normal 0.9760726690292358 0.2174446582794189 4.669311692850897e-08
  outer loop
    vertex 13.87810897827148 157.1596527099609 7.4999680519104
    vertex 19.31285667419434 132.7639770507813 0.01035971753299236
    vertex 13.87810897827148 157.1596527099609 0.01035944279283285
  endloop
endfacet
facet normal 0.9760726690292358 0.2174446582794189 4.669311692850897e-08
  outer loop
    vertex 13.87810897827148 157.1596527099609 7.4999680519104
    vertex 19.31285667419434 132.7639770507813 7.499983787536621
    vertex 19.31285667419434 132.7639770507813 0.01035971753299236
  endloop
endfacet
facet normal -0.7872388362884521 0.6166481971740723 -3.812249360635178e-08
  outer loop
    vertex 30.80048370361328 147.4295654296875 0.01036026049405336
    vertex 19.31285667419434 132.7639770507813 0.01035971753299236
    vertex 30.80048370361328 147.4295654296875 7.499969005584717
  endloop
endfacet
facet normal -0.7872388362884521 0.6166481971740723 -3.812249360635178e-08
  outer loop
    vertex 30.80048370361328 147.4295654296875 7.499969005584717
    vertex 19.31285667419434 132.7639770507813 0.01035971753299236
    vertex 19.31285667419434 132.7639770507813 7.499983787536621
  endloop
endfacet
facet normal -0.9833964109420776 0.181470513343811 -4.409129985560867e-07
  outer loop
    vertex 32.20991897583008 155.0673522949219 0.01036032382398844
    vertex 30.80048370361328 147.4295654296875 0.01036026049405336
    vertex 32.20991134643555 155.0673370361328 7.499969005584717
  endloop
endfacet
facet normal -0.9833964705467224 0.1814701408147812 -4.727749924882119e-08
  outer loop
    vertex 32.20991134643555 155.0673370361328 7.499969005584717
    vertex 30.80048370361328 147.4295654296875 0.01036026049405336
    vertex 30.80048370361328 147.4295654296875 7.499969005584717
  endloop
endfacet
facet normal 0.9741483330726624 0.2259092181921005 4.659586494426549e-08
  outer loop
    vertex 8.637153625488281 179.7592926025391 7.4999680519104
    vertex 13.87810897827148 157.1596527099609 0.01035944279283285
    vertex 8.637154579162598 179.7592926025391 0.01035917829722166
  endloop
endfacet
facet normal 0.9741483330726624 0.2259092181921005 4.659586494426549e-08
  outer loop
    vertex 8.637153625488281 179.7592926025391 7.4999680519104
    vertex 13.87810897827148 157.1596527099609 7.4999680519104
    vertex 13.87810897827148 157.1596527099609 0.01035944279283285
  endloop
endfacet
facet normal -1.623151092644548e-06 -9.975725561162108e-07 -1
  outer loop
    vertex 17.95059585571289 203.1847381591797 0.01034435257315636
    vertex 24.34814071655273 207.7662658691406 0.01032939832657576
    vertex 19.46072578430176 200.6535034179688 0.01034442614763975
  endloop
endfacet
facet normal 3.954629335112259e-07 -3.816319804172963e-06 -1
  outer loop
    vertex 17.95059585571289 203.1847381591797 0.01034435257315636
    vertex 18.2464714050293 207.2105865478516 0.01032910589128733
    vertex 24.34814071655273 207.7662658691406 0.01032939832657576
  endloop
endfacet
facet normal 4.796790875616352e-08 -5.842742401007683e-10 -1
  outer loop
    vertex 2.48630690574646 207.4713439941406 0.01034360844641924
    vertex 8.287483215332031 207.6124420166016 0.01034388691186905
    vertex 8.005759239196777 203.6788177490234 0.01034387573599815
  endloop
endfacet
facet normal 4.796790875616352e-08 -5.842742401007683e-10 -1
  outer loop
    vertex 2.48630690574646 207.4713439941406 0.01034360844641924
    vertex 8.005759239196777 203.6788177490234 0.01034387573599815
    vertex 6.021918296813965 201.2374877929688 0.01034378167241812
  endloop
endfacet
facet normal -4.796790875616352e-08 5.842742401007683e-10 1
  outer loop
    vertex 17.95031356811523 203.1848602294922 7.499953269958496
    vertex 24.3481273651123 207.7662353515625 7.499953269958496
    vertex 18.24618148803711 207.2107086181641 7.499953269958496
  endloop
endfacet
facet normal -3.072322897423874e-06 4.224046278977767e-06 1
  outer loop
    vertex 17.95031356811523 203.1848602294922 7.499953269958496
    vertex 19.46053314208984 200.6534423828125 7.499968528747559
    vertex 24.3481273651123 207.7662353515625 7.499953269958496
  endloop
endfacet
facet normal -4.796790875616352e-08 5.842742401007683e-10 1
  outer loop
    vertex 2.486300706863403 207.4713287353516 7.49995231628418
    vertex 6.021853446960449 201.2373657226563 7.49995231628418
    vertex 8.005709648132324 203.6788330078125 7.499952793121338
  endloop
endfacet
facet normal -4.796790875616352e-08 5.842742401007683e-10 1
  outer loop
    vertex 2.486300706863403 207.4713287353516 7.49995231628418
    vertex 8.005709648132324 203.6788330078125 7.499952793121338
    vertex 8.287482261657715 207.6124420166016 7.499952793121338
  endloop
endfacet
facet normal -0.0906936451792717 0.9958788156509399 -1.976434759853873e-05
  outer loop
    vertex 18.2464714050293 207.2105865478516 0.01032910589128733
    vertex 18.24618148803711 207.2107086181641 7.499953269958496
    vertex 24.34814071655273 207.7662658691406 0.01032939832657576
  endloop
endfacet
facet normal -0.0906645879149437 0.9958814978599548 4.103152605239302e-06
  outer loop
    vertex 24.34814071655273 207.7662658691406 0.01032939832657576
    vertex 18.24618148803711 207.2107086181641 7.499953269958496
    vertex 24.3481273651123 207.7662353515625 7.499953269958496
  endloop
endfacet
facet normal -0.9973103404045105 0.07329428941011429 -3.878398274537176e-05
  outer loop
    vertex 18.24618148803711 207.2107086181641 7.499953269958496
    vertex 17.95059585571289 203.1847381591797 0.01034435257315636
    vertex 17.95031356811523 203.1848602294922 7.499953269958496
  endloop
endfacet
facet normal -0.9973102211952209 0.07329614460468292 -3.978598033427261e-05
  outer loop
    vertex 18.24618148803711 207.2107086181641 7.499953269958496
    vertex 18.2464714050293 207.2105865478516 0.01032910589128733
    vertex 17.95059585571289 203.1847381591797 0.01034435257315636
  endloop
endfacet
facet normal -0.8587822318077087 -0.512340784072876 -2.666059481271077e-05
  outer loop
    vertex 17.95031356811523 203.1848602294922 7.499953269958496
    vertex 19.46072578430176 200.6535034179688 0.01034442614763975
    vertex 19.46053314208984 200.6534423828125 7.499968528747559
  endloop
endfacet
facet normal -0.858778715133667 -0.5123467445373535 -2.394092371105216e-05
  outer loop
    vertex 17.95031356811523 203.1848602294922 7.499953269958496
    vertex 17.95059585571289 203.1847381591797 0.01034435257315636
    vertex 19.46072578430176 200.6535034179688 0.01034442614763975
  endloop
endfacet
facet normal 0.04341020062565804 0.9990573525428772 1.563210025778972e-05
  outer loop
    vertex 6.021918296813965 201.2374877929688 0.01034378167241812
    vertex 6.021853446960449 201.2373657226563 7.49995231628418
    vertex 19.46053314208984 200.6534423828125 7.499968528747559
  endloop
endfacet
facet normal 0.04341332241892815 0.9990571737289429 1.002566659735749e-05
  outer loop
    vertex 6.021918296813965 201.2374877929688 0.01034378167241812
    vertex 19.46053314208984 200.6534423828125 7.499968528747559
    vertex 19.46072578430176 200.6535034179688 0.01034442614763975
  endloop
endfacet
facet normal 0.7760891318321228 -0.6306232213973999 7.234173153847223e-06
  outer loop
    vertex 8.005759239196777 203.6788177490234 0.01034387573599815
    vertex 8.005709648132324 203.6788330078125 7.499952793121338
    vertex 6.021853446960449 201.2373657226563 7.49995231628418
  endloop
endfacet
facet normal 0.7760738730430603 -0.6306419968605042 -2.920734004874248e-06
  outer loop
    vertex 8.005759239196777 203.6788177490234 0.01034387573599815
    vertex 6.021853446960449 201.2373657226563 7.49995231628418
    vertex 6.021918296813965 201.2374877929688 0.01034378167241812
  endloop
endfacet
facet normal 0.9974442720413208 -0.07144914567470551 4.788705965097506e-08
  outer loop
    vertex 8.287482261657715 207.6124420166016 7.499952793121338
    vertex 8.005709648132324 203.6788330078125 7.499952793121338
    vertex 8.287483215332031 207.6124420166016 0.01034388691186905
  endloop
endfacet
facet normal 0.9974451661109924 -0.07143638283014297 6.787624442949891e-06
  outer loop
    vertex 8.287483215332031 207.6124420166016 0.01034388691186905
    vertex 8.005709648132324 203.6788330078125 7.499952793121338
    vertex 8.005759239196777 203.6788177490234 0.01034387573599815
  endloop
endfacet
facet normal -0.02431846223771572 0.9997042417526245 2.113150685545406e-06
  outer loop
    vertex 2.48630690574646 207.4713439941406 0.01034360844641924
    vertex 2.486300706863403 207.4713287353516 7.49995231628418
    vertex 8.287482261657715 207.6124420166016 7.499952793121338
  endloop
endfacet
facet normal -0.0243157334625721 0.9997043013572693 -1.750476319450911e-09
  outer loop
    vertex 2.48630690574646 207.4713439941406 0.01034360844641924
    vertex 8.287482261657715 207.6124420166016 7.499952793121338
    vertex 8.287483215332031 207.6124420166016 0.01034388691186905
  endloop
endfacet
facet normal -0.1594810038805008 0.9872009754180908 2.133560428774217e-06
  outer loop
    vertex 72.43199920654297 208.9994506835938 0.0103622218593955
    vertex 72.43201446533203 208.9994354248047 7.49997091293335
    vertex 78.64732360839844 210.0035095214844 7.499971389770508
  endloop
endfacet
facet normal -0.159478485584259 0.9872013926506042 -8.226646031062046e-09
  outer loop
    vertex 72.43199920654297 208.9994506835938 0.0103622218593955
    vertex 78.64732360839844 210.0035095214844 7.499971389770508
    vertex 78.64732360839844 210.0035095214844 0.01036251895129681
  endloop
endfacet
facet normal 0.998472273349762 0.05525457486510277 4.786234342191165e-08
  outer loop
    vertex 78.64732360839844 210.0035095214844 7.499971389770508
    vertex 78.865234375 206.0658569335938 7.499971389770508
    vertex 78.64732360839844 210.0035095214844 0.01036251895129681
  endloop
endfacet
facet normal 0.9984716176986694 0.05526731535792351 6.766433671145933e-06
  outer loop
    vertex 78.64732360839844 210.0035095214844 0.01036251895129681
    vertex 78.865234375 206.0658569335938 7.499971389770508
    vertex 78.86528778076172 206.0658569335938 0.01036253198981285
  endloop
endfacet
facet normal 0.8496038913726807 -0.5274212956428528 6.513484549941495e-06
  outer loop
    vertex 78.865234375 206.0658569335938 7.499971389770508
    vertex 77.20603942871094 203.3931274414063 7.499971389770508
    vertex 78.86528778076172 206.0658569335938 0.01036253198981285
  endloop
endfacet
facet normal 0.8495934009552002 -0.527438223361969 -1.863460738604772e-06
  outer loop
    vertex 78.86528778076172 206.0658569335938 0.01036253198981285
    vertex 77.20603942871094 203.3931274414063 7.499971389770508
    vertex 77.20608520507813 203.3932189941406 0.01036245375871658
  endloop
endfacet
facet normal -0.0832681879401207 0.9965271949768066 1.238777986145578e-05
  outer loop
    vertex 77.20608520507813 203.3932189941406 0.01036245375871658
    vertex 77.20603942871094 203.3931274414063 7.499971389770508
    vertex 90.61067199707031 204.5131988525391 7.499971866607666
  endloop
endfacet
facet normal -0.08326729387044907 0.9965272545814514 1.076864282367751e-05
  outer loop
    vertex 77.20608520507813 203.3932189941406 0.01036245375871658
    vertex 90.61067199707031 204.5131988525391 7.499971866607666
    vertex 90.61084747314453 204.5132904052734 0.01036309637129307
  endloop
endfacet
facet normal -0.7871021032333374 -0.6168227791786194 -2.617404607008211e-05
  outer loop
    vertex 88.79245758056641 206.8333587646484 7.499971866607666
    vertex 90.61084747314453 204.5132904052734 0.01036309637129307
    vertex 90.61067199707031 204.5131988525391 7.499971866607666
  endloop
endfacet
facet normal -0.787101149559021 -0.6168239712715149 -2.556866638769861e-05
  outer loop
    vertex 88.79245758056641 206.8333587646484 7.499971866607666
    vertex 88.79277038574219 206.8332672119141 0.01036300789564848
    vertex 90.61084747314453 204.5132904052734 0.01036309637129307
  endloop
endfacet
facet normal -0.9985730648040771 -0.05340202152729034 -4.110688678338192e-05
  outer loop
    vertex 88.57688903808594 210.8643035888672 7.499971866607666
    vertex 88.79277038574219 206.8332672119141 0.01036300789564848
    vertex 88.79245758056641 206.8333587646484 7.499971866607666
  endloop
endfacet
facet normal -0.9985728859901428 -0.05340558663010597 -3.91825451515615e-05
  outer loop
    vertex 88.57688903808594 210.8643035888672 7.499971866607666
    vertex 88.57718658447266 210.8642120361328 0.01036299485713243
    vertex 88.79277038574219 206.8332672119141 0.01036300789564848
  endloop
endfacet
facet normal -0.138727679848671 0.9903305768966675 -1.95445645658765e-05
  outer loop
    vertex 88.57718658447266 210.8642120361328 0.01036299485713243
    vertex 88.57688903808594 210.8643035888672 7.499971866607666
    vertex 89.87559509277344 211.0460968017578 0.01036305725574493
  endloop
endfacet
facet normal -0.1386171728372574 0.9903460144996643 -7.227809462051482e-09
  outer loop
    vertex 89.87559509277344 211.0460968017578 0.01036305725574493
    vertex 88.57688903808594 210.8643035888672 7.499971866607666
    vertex 89.87559509277344 211.0460968017578 7.499971866607666
  endloop
endfacet
facet normal -4.796790875616352e-08 5.842742401007683e-10 1
  outer loop
    vertex 72.43201446533203 208.9994354248047 7.49997091293335
    vertex 77.20603942871094 203.3931274414063 7.499971389770508
    vertex 78.865234375 206.0658569335938 7.499971389770508
  endloop
endfacet
facet normal -4.796790875616352e-08 5.842742401007683e-10 1
  outer loop
    vertex 72.43201446533203 208.9994354248047 7.49997091293335
    vertex 78.865234375 206.0658569335938 7.499971389770508
    vertex 78.64732360839844 210.0035095214844 7.499971389770508
  endloop
endfacet
facet normal -4.796790875616352e-08 5.842742401007683e-10 1
  outer loop
    vertex 88.79245758056641 206.8333587646484 7.499971866607666
    vertex 89.87559509277344 211.0460968017578 7.499971866607666
    vertex 88.57688903808594 210.8643035888672 7.499971866607666
  endloop
endfacet
facet normal -4.796790875616352e-08 5.842742401007683e-10 1
  outer loop
    vertex 88.79245758056641 206.8333587646484 7.499971866607666
    vertex 90.61067199707031 204.5131988525391 7.499971866607666
    vertex 89.87559509277344 211.0460968017578 7.499971866607666
  endloop
endfacet
facet normal 4.796790875616352e-08 -5.842742401007683e-10 -1
  outer loop
    vertex 72.43199920654297 208.9994506835938 0.0103622218593955
    vertex 78.64732360839844 210.0035095214844 0.01036251895129681
    vertex 78.86528778076172 206.0658569335938 0.01036253198981285
  endloop
endfacet
facet normal 4.796790875616352e-08 -5.842742401007683e-10 -1
  outer loop
    vertex 72.43199920654297 208.9994506835938 0.0103622218593955
    vertex 78.86528778076172 206.0658569335938 0.01036253198981285
    vertex 77.20608520507813 203.3932189941406 0.01036245375871658
  endloop
endfacet
facet normal 4.796790875616352e-08 -5.842742401007683e-10 -1
  outer loop
    vertex 88.79277038574219 206.8332672119141 0.01036300789564848
    vertex 89.87559509277344 211.0460968017578 0.01036305725574493
    vertex 90.61084747314453 204.5132904052734 0.01036309637129307
  endloop
endfacet
facet normal 4.796790875616352e-08 -5.842742401007683e-10 -1
  outer loop
    vertex 88.79277038574219 206.8332672119141 0.01036300789564848
    vertex 88.57718658447266 210.8642120361328 0.01036299485713243
    vertex 89.87559509277344 211.0460968017578 0.01036305725574493
  endloop
endfacet
facet normal -0.9891709089279175 0.1467682868242264 -4.753421123382395e-08
  outer loop
    vertex 2.48630690574646 207.4713439941406 0.01034360844641924
    vertex 3.592609232327959e-07 190.7144317626953 0.01035875733941793
    vertex 5.684341886080801e-14 190.7144317626953 7.499967575073242
  endloop
endfacet
facet normal -0.9891709089279175 0.1467680782079697 -5.198404551265412e-07
  outer loop
    vertex 2.48630690574646 207.4713439941406 0.01034360844641924
    vertex 5.684341886080801e-14 190.7144317626953 7.499967575073242
    vertex 2.486300706863403 207.4713287353516 7.49995231628418
  endloop
endfacet
facet normal 0.8867672681808472 0.4622161686420441 -2.597410002636025e-06
  outer loop
    vertex 91.95675659179688 211.3900299072266 7.499971866607666
    vertex 101.7218856811523 192.6555023193359 7.499972343444824
    vertex 91.95674133300781 211.3900146484375 0.01036315690726042
  endloop
endfacet
facet normal 0.8867668509483337 0.4622170031070709 4.226629002346272e-08
  outer loop
    vertex 91.95674133300781 211.3900146484375 0.01036315690726042
    vertex 101.7218856811523 192.6555023193359 7.499972343444824
    vertex 101.7218856811523 192.6555023193359 0.01036363560706377
  endloop
endfacet
facet normal -0.1630502045154572 0.9866177439689636 -8.397632811352196e-09
  outer loop
    vertex 89.87559509277344 211.0460968017578 0.01036305725574493
    vertex 89.87559509277344 211.0460968017578 7.499971866607666
    vertex 91.95675659179688 211.3900299072266 7.499971866607666
  endloop
endfacet
facet normal -0.1630434840917587 0.9866188764572144 -1.927868424900225e-06
  outer loop
    vertex 89.87559509277344 211.0460968017578 0.01036305725574493
    vertex 91.95675659179688 211.3900299072266 7.499971866607666
    vertex 91.95674133300781 211.3900146484375 0.01036315690726042
  endloop
endfacet
facet normal -0.02563854306936264 0.9996712803840637 1.862148451436951e-06
  outer loop
    vertex 72.43199920654297 208.9994506835938 0.0103622218593955
    vertex 24.3481273651123 207.7662353515625 7.499953269958496
    vertex 72.43201446533203 208.9994354248047 7.49997091293335
  endloop
endfacet
facet normal -0.02563817426562309 0.9996712803840637 4.225742941343924e-06
  outer loop
    vertex 24.34814071655273 207.7662658691406 0.01032939832657576
    vertex 24.3481273651123 207.7662353515625 7.499953269958496
    vertex 72.43199920654297 208.9994506835938 0.0103622218593955
  endloop
endfacet
facet normal 0.08875635266304016 0.9960533380508423 3.675488358112489e-09
  outer loop
    vertex 46.57930755615234 172.3239135742188 2.849876636901172e-07
    vertex 49.77187728881836 172.0394287109375 7.479416370391846
    vertex 49.77187728881836 172.0394287109375 4.382948191050673e-07
  endloop
endfacet
facet normal 0.08875635266304016 0.9960533380508423 3.675488358112489e-09
  outer loop
    vertex 46.57930755615234 172.3239135742188 2.849876636901172e-07
    vertex 46.57930755615234 172.3239135742188 7.479401111602783
    vertex 49.77187728881836 172.0394287109375 7.479416370391846
  endloop
endfacet
facet normal 0.46317058801651 0.8862691521644592 2.169950086283734e-08
  outer loop
    vertex 43.73866271972656 173.8084564208984 1.478604900739811e-07
    vertex 46.57930755615234 172.3239135742188 7.479401111602783
    vertex 46.57930755615234 172.3239135742188 2.849876636901172e-07
  endloop
endfacet
facet normal 0.46317058801651 0.8862691521644592 2.169950086283734e-08
  outer loop
    vertex 43.73866271972656 173.8084564208984 1.478604900739811e-07
    vertex 43.73866271972656 173.8084564208984 7.479415893554688
    vertex 46.57930755615234 172.3239135742188 7.479401111602783
  endloop
endfacet
facet normal 0.7670696377754211 0.6415638327598572 3.641987689206871e-08
  outer loop
    vertex 41.68230438232422 176.26708984375 4.778474504973929e-08
    vertex 43.73866271972656 173.8084564208984 7.479415893554688
    vertex 43.73866271972656 173.8084564208984 1.478604900739811e-07
  endloop
endfacet
facet normal 0.7670696377754211 0.6415638327598572 3.641987689206871e-08
  outer loop
    vertex 41.68230438232422 176.26708984375 7.479400634765625
    vertex 43.73866271972656 173.8084564208984 7.479415893554688
    vertex 41.68230438232422 176.26708984375 4.778474504973929e-08
  endloop
endfacet
facet normal 0.9541975855827332 0.2991771697998047 4.559606026077745e-08
  outer loop
    vertex 40.72338104248047 179.3254852294922 2.442490654175344e-13
    vertex 41.68230438232422 176.26708984375 7.479400634765625
    vertex 41.68230438232422 176.26708984375 4.778474504973929e-08
  endloop
endfacet
facet normal 0.9541975855827332 0.2991771697998047 4.559606026077745e-08
  outer loop
    vertex 40.72338104248047 179.3254852294922 7.479415893554688
    vertex 41.68230438232422 176.26708984375 7.479400634765625
    vertex 40.72338104248047 179.3254852294922 2.442490654175344e-13
  endloop
endfacet
facet normal 0.9960540533065796 -0.08874845504760742 4.783048268564016e-08
  outer loop
    vertex 41.00783920288086 182.51806640625 1.177981889810553e-08
    vertex 40.72338104248047 179.3254852294922 7.479415893554688
    vertex 40.72338104248047 179.3254852294922 2.442490654175344e-13
  endloop
endfacet
facet normal 0.9960540533065796 -0.08874845504760742 4.783048268564016e-08
  outer loop
    vertex 41.00783920288086 182.51806640625 7.479400634765625
    vertex 40.72338104248047 179.3254852294922 7.479415893554688
    vertex 41.00783920288086 182.51806640625 1.177981889810553e-08
  endloop
endfacet
facet normal 0.8862661123275757 -0.463176429271698 4.278295406834332e-08
  outer loop
    vertex 42.49240875244141 185.3587188720703 8.133184792313841e-08
    vertex 41.00783920288086 182.51806640625 7.479400634765625
    vertex 41.00783920288086 182.51806640625 1.177981889810553e-08
  endloop
endfacet
facet normal 0.8862661123275757 -0.463176429271698 4.278295406834332e-08
  outer loop
    vertex 42.49240875244141 185.3587188720703 7.479400634765625
    vertex 41.00783920288086 182.51806640625 7.479400634765625
    vertex 42.49240875244141 185.3587188720703 8.133184792313841e-08
  endloop
endfacet
facet normal 0.6415536999702454 -0.7670781016349792 3.122217506756897e-08
  outer loop
    vertex 44.95105743408203 187.4150390625 1.980665160772332e-07
    vertex 42.49240875244141 185.3587188720703 7.479400634765625
    vertex 42.49240875244141 185.3587188720703 8.133184792313841e-08
  endloop
endfacet
facet normal 0.6415536999702454 -0.7670781016349792 3.122217506756897e-08
  outer loop
    vertex 44.95105743408203 187.4150390625 1.980665160772332e-07
    vertex 44.95105743408203 187.4150390625 7.479415893554688
    vertex 42.49240875244141 185.3587188720703 7.479400634765625
  endloop
endfacet
facet normal 0.2991865277290344 -0.9541946649551392 1.49088634771033e-08
  outer loop
    vertex 48.00944137573242 188.3739929199219 3.442106049078575e-07
    vertex 44.95105743408203 187.4150390625 7.479415893554688
    vertex 44.95105743408203 187.4150390625 1.980665160772332e-07
  endloop
endfacet
facet normal 0.2991865277290344 -0.9541946649551392 1.49088634771033e-08
  outer loop
    vertex 48.00944137573242 188.3739929199219 3.442106049078575e-07
    vertex 48.00944137573242 188.3739929199219 7.479401111602783
    vertex 44.95105743408203 187.4150390625 7.479415893554688
  endloop
endfacet
facet normal -0.08875797688961029 -0.9960532188415527 -3.675566073724212e-09
  outer loop
    vertex 51.20198822021484 188.0895080566406 4.975165097675927e-07
    vertex 48.00944137573242 188.3739929199219 7.479401111602783
    vertex 48.00944137573242 188.3739929199219 3.442106049078575e-07
  endloop
endfacet
facet normal -0.08875797688961029 -0.9960532188415527 -3.675566073724212e-09
  outer loop
    vertex 51.20198822021484 188.0895080566406 4.975165097675927e-07
    vertex 51.20198822021484 188.0895080566406 7.479416370391846
    vertex 48.00944137573242 188.3739929199219 7.479401111602783
  endloop
endfacet
facet normal -0.4631629884243011 -0.8862731456756592 -2.169913315697158e-08
  outer loop
    vertex 54.04268264770508 186.6049652099609 6.346460281747568e-07
    vertex 51.20198822021484 188.0895080566406 7.479416370391846
    vertex 51.20198822021484 188.0895080566406 4.975165097675927e-07
  endloop
endfacet
facet normal -0.4631623923778534 -0.8862734436988831 2.616532981392083e-07
  outer loop
    vertex 54.04268264770508 186.6049652099609 6.346460281747568e-07
    vertex 54.04268646240234 186.6049652099609 7.479401111602783
    vertex 51.20198822021484 188.0895080566406 7.479416370391846
  endloop
endfacet
facet normal -0.7670730352401733 -0.6415597796440125 3.876517382650491e-07
  outer loop
    vertex 54.04268264770508 186.6049652099609 6.346460281747568e-07
    vertex 56.09900665283203 184.1463470458984 7.34720231321262e-07
    vertex 54.04268646240234 186.6049652099609 7.479401111602783
  endloop
endfacet
facet normal -0.7670736908912659 -0.6415590047836304 -3.642007229132105e-08
  outer loop
    vertex 54.04268646240234 186.6049652099609 7.479401111602783
    vertex 56.09900665283203 184.1463470458984 7.34720231321262e-07
    vertex 56.09900665283203 184.1463470458984 7.479416847229004
  endloop
endfacet
facet normal -0.9541984796524048 -0.2991742789745331 -4.559610644605527e-08
  outer loop
    vertex 56.09900665283203 184.1463470458984 7.34720231321262e-07
    vertex 57.05792999267578 181.0879211425781 7.825047418918984e-07
    vertex 56.09900665283203 184.1463470458984 7.479416847229004
  endloop
endfacet
facet normal -0.9541984796524048 -0.2991742789745331 -4.559610644605527e-08
  outer loop
    vertex 56.09900665283203 184.1463470458984 7.479416847229004
    vertex 57.05792999267578 181.0879211425781 7.825047418918984e-07
    vertex 57.05792999267578 181.0879211425781 7.479401588439941
  endloop
endfacet
facet normal -0.9960538148880005 0.08875146508216858 -4.783047202749913e-08
  outer loop
    vertex 57.05792999267578 181.0879211425781 7.825047418918984e-07
    vertex 56.77346420288086 177.8953704833984 7.707247959842789e-07
    vertex 57.05792999267578 181.0879211425781 7.479401588439941
  endloop
endfacet
facet normal -0.9960538148880005 0.08875146508216858 -4.783047202749913e-08
  outer loop
    vertex 57.05792999267578 181.0879211425781 7.479401588439941
    vertex 56.77346420288086 177.8953704833984 7.707247959842789e-07
    vertex 56.77346420288086 177.8953704833984 7.479416847229004
  endloop
endfacet
facet normal -0.8862724900245667 0.4631641507148743 -4.278325249629233e-08
  outer loop
    vertex 56.77346420288086 177.8953704833984 7.707247959842789e-07
    vertex 55.28892135620117 175.0546722412109 7.01174144523975e-07
    vertex 56.77346420288086 177.8953704833984 7.479416847229004
  endloop
endfacet
facet normal -0.8862724900245667 0.4631641507148743 -4.278325249629233e-08
  outer loop
    vertex 56.77346420288086 177.8953704833984 7.479416847229004
    vertex 55.28892135620117 175.0546722412109 7.01174144523975e-07
    vertex 55.28892135620117 175.0546722412109 7.479416370391846
  endloop
endfacet
facet normal -0.6415552496910095 0.767076849937439 -3.122224612184255e-08
  outer loop
    vertex 52.83028793334961 172.9983520507813 5.844399879606499e-07
    vertex 55.28892135620117 175.0546722412109 7.479416370391846
    vertex 55.28892135620117 175.0546722412109 7.01174144523975e-07
  endloop
endfacet
facet normal -0.641552209854126 0.7670793533325195 -1.727520384520176e-06
  outer loop
    vertex 52.83028793334961 172.9983520507813 5.844399879606499e-07
    vertex 52.83028411865234 172.9983673095703 7.479401111602783
    vertex 55.28892135620117 175.0546722412109 7.479416370391846
  endloop
endfacet
facet normal -0.2991765141487122 0.9541977643966675 -2.015817017309018e-06
  outer loop
    vertex 49.77187728881836 172.0394287109375 4.382948191050673e-07
    vertex 52.83028411865234 172.9983673095703 7.479401111602783
    vertex 52.83028793334961 172.9983520507813 5.844399879606499e-07
  endloop
endfacet
facet normal -0.2991809546947479 0.9541963934898376 -1.490859702357739e-08
  outer loop
    vertex 49.77187728881836 172.0394287109375 4.382948191050673e-07
    vertex 49.77187728881836 172.0394287109375 7.479416370391846
    vertex 52.83028411865234 172.9983673095703 7.479401111602783
  endloop
endfacet
facet normal 0.0004950098227709532 -0.0005993391387164593 0.9999997019767761
  outer loop
    vertex 19.46053314208984 200.6534423828125 7.499968528747559
    vertex 42.49240875244141 185.3587188720703 7.479400634765625
    vertex 44.95105743408203 187.4150390625 7.479415893554688
  endloop
endfacet
facet normal 0.0005950243212282658 -0.0004067613917868584 0.9999997615814209
  outer loop
    vertex 19.46053314208984 200.6534423828125 7.499968528747559
    vertex 44.95105743408203 187.4150390625 7.479415893554688
    vertex 24.3481273651123 207.7662353515625 7.499953269958496
  endloop
endfacet
facet normal -0.0002998878480866551 0.0002039501123363152 -0.9999999403953552
  outer loop
    vertex 19.46072578430176 200.6535034179688 0.01034442614763975
    vertex 24.34814071655273 207.7662658691406 0.01032939832657576
    vertex 44.95105743408203 187.4150390625 1.980665160772332e-07
  endloop
endfacet
facet normal -0.000250332202995196 0.0002993681991938502 -0.9999999403953552
  outer loop
    vertex 19.46072578430176 200.6535034179688 0.01034442614763975
    vertex 44.95105743408203 187.4150390625 1.980665160772332e-07
    vertex 42.49240875244141 185.3587188720703 8.133184792313841e-08
  endloop
endfacet
facet normal 1.224671791533183e-06 7.223546276691195e-07 1
  outer loop
    vertex 5.684341886080801e-14 190.7144317626953 7.499967575073242
    vertex 6.021853446960449 201.2373657226563 7.49995231628418
    vertex 2.486300706863403 207.4713287353516 7.49995231628418
  endloop
endfacet
facet normal -1.094380195354461e-06 2.049455588348792e-06 1
  outer loop
    vertex 5.684341886080801e-14 190.7144317626953 7.499967575073242
    vertex 19.46053314208984 200.6534423828125 7.499968528747559
    vertex 6.021853446960449 201.2373657226563 7.49995231628418
  endloop
endfacet
facet normal 0.0006431846995837986 0.0001966893032658845 0.9999997615814209
  outer loop
    vertex 8.637153625488281 179.7592926025391 7.4999680519104
    vertex 41.68230438232422 176.26708984375 7.479400634765625
    vertex 40.72338104248047 179.3254852294922 7.479415893554688
  endloop
endfacet
facet normal 0.0006647151312790811 -0.0003443533787503839 0.9999997019767761
  outer loop
    vertex 8.637153625488281 179.7592926025391 7.4999680519104
    vertex 41.00783920288086 182.51806640625 7.479400634765625
    vertex 19.46053314208984 200.6534423828125 7.499968528747559
  endloop
endfacet
facet normal 0.0004377322329673916 0.0008274071733467281 0.9999995827674866
  outer loop
    vertex 32.20991134643555 155.0673370361328 7.499969005584717
    vertex 46.57930755615234 172.3239135742188 7.479401111602783
    vertex 43.73866271972656 173.8084564208984 7.479415893554688
  endloop
endfacet
facet normal 0.000751225627027452 0.0006345590809360147 0.9999995231628418
  outer loop
    vertex 32.20991134643555 155.0673370361328 7.499969005584717
    vertex 43.73866271972656 173.8084564208984 7.479415893554688
    vertex 41.68230438232422 176.26708984375 7.479400634765625
  endloop
endfacet
facet normal 0.0002439282980049029 -0.000762200215831399 0.9999997019767761
  outer loop
    vertex 24.3481273651123 207.7662353515625 7.499953269958496
    vertex 44.95105743408203 187.4150390625 7.479415893554688
    vertex 48.00944137573242 188.3739929199219 7.479401111602783
  endloop
endfacet
facet normal -0.0003321525000501424 -0.0006457687122747302 0.9999997615814209
  outer loop
    vertex 51.20198822021484 188.0895080566406 7.479416370391846
    vertex 54.04268646240234 186.6049652099609 7.479401111602783
    vertex 72.43201446533203 208.9994354248047 7.49997091293335
  endloop
endfacet
facet normal -0.0005491477786563337 -0.0004675819654949009 0.9999997615814209
  outer loop
    vertex 54.04268646240234 186.6049652099609 7.479401111602783
    vertex 77.20603942871094 203.3931274414063 7.499971389770508
    vertex 72.43201446533203 208.9994354248047 7.49997091293335
  endloop
endfacet
facet normal -0.000555707432795316 -0.0004585312854032964 0.9999997615814209
  outer loop
    vertex 54.04268646240234 186.6049652099609 7.479401111602783
    vertex 56.09900665283203 184.1463470458984 7.479416847229004
    vertex 77.20603942871094 203.3931274414063 7.499971389770508
  endloop
endfacet
facet normal -0.0007537833880633116 -0.000241310684941709 0.9999997019767761
  outer loop
    vertex 56.09900665283203 184.1463470458984 7.479416847229004
    vertex 57.05792999267578 181.0879211425781 7.479401588439941
    vertex 77.20603942871094 203.3931274414063 7.499971389770508
  endloop
endfacet
facet normal -4.796790875616352e-08 5.842742401007683e-10 1
  outer loop
    vertex 89.87559509277344 211.0460968017578 7.499971866607666
    vertex 90.61067199707031 204.5131988525391 7.499971866607666
    vertex 101.7218856811523 192.6555023193359 7.499972343444824
  endloop
endfacet
facet normal -4.796790875616352e-08 5.842742401007683e-10 1
  outer loop
    vertex 89.87559509277344 211.0460968017578 7.499971866607666
    vertex 101.7218856811523 192.6555023193359 7.499972343444824
    vertex 91.95675659179688 211.3900299072266 7.499971866607666
  endloop
endfacet
facet normal -1.224637685481866e-06 -7.223585498650209e-07 -1
  outer loop
    vertex 3.592609232327959e-07 190.7144317626953 0.01035875733941793
    vertex 2.48630690574646 207.4713439941406 0.01034360844641924
    vertex 6.021918296813965 201.2374877929688 0.01034378167241812
  endloop
endfacet
facet normal -1.351348810629815e-08 -1.415436486240651e-06 -1
  outer loop
    vertex 3.592609232327959e-07 190.7144317626953 0.01035875733941793
    vertex 6.021918296813965 201.2374877929688 0.01034378167241812
    vertex 19.46072578430176 200.6535034179688 0.01034442614763975
  endloop
endfacet
facet normal -0.0003347345045767725 0.0001726923364913091 -0.9999999403953552
  outer loop
    vertex 8.637154579162598 179.7592926025391 0.01035917829722166
    vertex 19.46072578430176 200.6535034179688 0.01034442614763975
    vertex 41.00783920288086 182.51806640625 1.177981889810553e-08
  endloop
endfacet
facet normal -0.0003334078355692327 0.0001742685999488458 -0.9999999403953552
  outer loop
    vertex 19.46072578430176 200.6535034179688 0.01034442614763975
    vertex 42.49240875244141 185.3587188720703 8.133184792313841e-08
    vertex 41.00783920288086 182.51806640625 1.177981889810553e-08
  endloop
endfacet
facet normal -4.796790875616352e-08 5.842742401007683e-10 1
  outer loop
    vertex 5.684341886080801e-14 190.7144317626953 7.499967575073242
    vertex 8.637153625488281 179.7592926025391 7.4999680519104
    vertex 19.46053314208984 200.6534423828125 7.499968528747559
  endloop
endfacet
facet normal -0.0003224658430553973 2.873540870496072e-05 -0.9999999403953552
  outer loop
    vertex 8.637154579162598 179.7592926025391 0.01035917829722166
    vertex 41.00783920288086 182.51806640625 1.177981889810553e-08
    vertex 40.72338104248047 179.3254852294922 2.442490654175344e-13
  endloop
endfacet
facet normal -0.0003486658388283104 -0.0003329088212922215 -0.9999998807907104
  outer loop
    vertex 8.637154579162598 179.7592926025391 0.01035917829722166
    vertex 41.68230438232422 176.26708984375 4.778474504973929e-08
    vertex 32.20991897583008 155.0673522949219 0.01036032382398844
  endloop
endfacet
facet normal -0.0001207603272632696 0.0003852929221466184 -0.9999999403953552
  outer loop
    vertex 24.34814071655273 207.7662658691406 0.01032939832657576
    vertex 48.00944137573242 188.3739929199219 3.442106049078575e-07
    vertex 44.95105743408203 187.4150390625 1.980665160772332e-07
  endloop
endfacet
facet normal 0.000169225488207303 0.0003237245546188205 -0.9999999403953552
  outer loop
    vertex 51.20198822021484 188.0895080566406 4.975165097675927e-07
    vertex 72.43199920654297 208.9994506835938 0.0103622218593955
    vertex 54.04268264770508 186.6049652099609 6.346460281747568e-07
  endloop
endfacet
facet normal 0.0002763552474789321 0.0002352936280658469 -0.9999999403953552
  outer loop
    vertex 56.09900665283203 184.1463470458984 7.34720231321262e-07
    vertex 72.43199920654297 208.9994506835938 0.0103622218593955
    vertex 77.20608520507813 203.3932189941406 0.01036245375871658
  endloop
endfacet
facet normal 0.0002791660372167826 0.0002334464516025037 -0.9999999403953552
  outer loop
    vertex 54.04268264770508 186.6049652099609 6.346460281747568e-07
    vertex 72.43199920654297 208.9994506835938 0.0103622218593955
    vertex 56.09900665283203 184.1463470458984 7.34720231321262e-07
  endloop
endfacet
facet normal 0.0003817757533397526 0.0001196843004436232 -0.9999999403953552
  outer loop
    vertex 56.09900665283203 184.1463470458984 7.34720231321262e-07
    vertex 77.20608520507813 203.3932189941406 0.01036245375871658
    vertex 57.05792999267578 181.0879211425781 7.825047418918984e-07
  endloop
endfacet
facet normal 4.796790875616352e-08 -5.842742401007683e-10 -1
  outer loop
    vertex 89.87559509277344 211.0460968017578 0.01036305725574493
    vertex 91.95674133300781 211.3900146484375 0.01036315690726042
    vertex 101.7218856811523 192.6555023193359 0.01036363560706377
  endloop
endfacet
facet normal 4.796790875616352e-08 -5.842742401007683e-10 -1
  outer loop
    vertex 89.87559509277344 211.0460968017578 0.01036305725574493
    vertex 101.7218856811523 192.6555023193359 0.01036363560706377
    vertex 90.61084747314453 204.5132904052734 0.01036309637129307
  endloop
endfacet
facet normal 4.796790875616352e-08 -5.842742401007683e-10 -1
  outer loop
    vertex 90.26784515380859 194.2130126953125 0.01036308519542217
    vertex 101.7218856811523 192.6555023193359 0.01036363560706377
    vertex 97.32582855224609 140.8273773193359 0.01036345493048429
  endloop
endfacet
facet normal 4.796790875616352e-08 -5.842742401007683e-10 -1
  outer loop
    vertex 90.26784515380859 194.2130126953125 0.01036308519542217
    vertex 90.61084747314453 204.5132904052734 0.01036309637129307
    vertex 101.7218856811523 192.6555023193359 0.01036363560706377
  endloop
endfacet
facet normal -4.796790875616352e-08 5.842742401007683e-10 1
  outer loop
    vertex 90.26774597167969 194.2129211425781 7.499971866607666
    vertex 101.7218856811523 192.6555023193359 7.499972343444824
    vertex 90.61067199707031 204.5131988525391 7.499971866607666
  endloop
endfacet
facet normal -4.796790875616352e-08 5.842742401007683e-10 1
  outer loop
    vertex 90.26774597167969 194.2129211425781 7.499971866607666
    vertex 97.32582855224609 140.8273773193359 7.499972343444824
    vertex 101.7218856811523 192.6555023193359 7.499972343444824
  endloop
endfacet
facet normal 4.796790875616352e-08 -5.842742401007683e-10 -1
  outer loop
    vertex 70.61708068847656 191.8423156738281 0.01036214455962181
    vertex 90.61084747314453 204.5132904052734 0.01036309637129307
    vertex 90.26784515380859 194.2130126953125 0.01036308519542217
  endloop
endfacet
facet normal 4.796790875616352e-08 -5.842742401007683e-10 -1
  outer loop
    vertex 70.61708068847656 191.8423156738281 0.01036214455962181
    vertex 77.20608520507813 203.3932189941406 0.01036245375871658
    vertex 90.61084747314453 204.5132904052734 0.01036309637129307
  endloop
endfacet
facet normal -4.796790875616352e-08 5.842742401007683e-10 1
  outer loop
    vertex 70.61705017089844 191.8422546386719 7.49997091293335
    vertex 90.61067199707031 204.5131988525391 7.499971866607666
    vertex 77.20603942871094 203.3931274414063 7.499971389770508
  endloop
endfacet
facet normal -4.796790875616352e-08 5.842742401007683e-10 1
  outer loop
    vertex 70.61705017089844 191.8422546386719 7.49997091293335
    vertex 90.26774597167969 194.2129211425781 7.499971866607666
    vertex 90.61067199707031 204.5131988525391 7.499971866607666
  endloop
endfacet
facet normal 4.796790875616352e-08 -5.842742401007683e-10 -1
  outer loop
    vertex 69.33170318603516 144.0851745605469 0.01036211103200912
    vertex 77.05104827880859 151.8010559082031 0.01036247611045837
    vertex 97.32582855224609 140.8273773193359 0.01036345493048429
  endloop
endfacet
facet normal -4.796790875616352e-08 5.842742401007683e-10 1
  outer loop
    vertex 69.33170318603516 144.0851745605469 7.49997091293335
    vertex 97.32582855224609 140.8273773193359 7.499972343444824
    vertex 77.05104827880859 151.8010559082031 7.499971389770508
  endloop
endfacet
facet normal -0.9913732409477234 -0.1310691684484482 -4.747752058165133e-08
  outer loop
    vertex 90.26774597167969 194.2129211425781 7.499971866607666
    vertex 97.32582855224609 140.8273773193359 0.01036345493048429
    vertex 97.32582855224609 140.8273773193359 7.499972343444824
  endloop
endfacet
facet normal -0.9913735389709473 -0.1310670226812363 -1.561596764076967e-05
  outer loop
    vertex 90.26784515380859 194.2130126953125 0.01036308519542217
    vertex 97.32582855224609 140.8273773193359 0.01036345493048429
    vertex 90.26774597167969 194.2129211425781 7.499971866607666
  endloop
endfacet
facet normal 0.1197713986039162 -0.9928014874458313 -1.202446946990676e-05
  outer loop
    vertex 90.26784515380859 194.2130126953125 0.01036308519542217
    vertex 90.26774597167969 194.2129211425781 7.499971866607666
    vertex 70.61705017089844 191.8422546386719 7.49997091293335
  endloop
endfacet
facet normal 0.1197736486792564 -0.9928012490272522 -6.034686521161348e-06
  outer loop
    vertex 90.26784515380859 194.2130126953125 0.01036308519542217
    vertex 70.61705017089844 191.8422546386719 7.49997091293335
    vertex 70.61708068847656 191.8423156738281 0.01036214455962181
  endloop
endfacet
facet normal 0.4759981036186218 0.8794463276863098 2.231879570047113e-08
  outer loop
    vertex 77.05104827880859 151.8010559082031 0.01036247611045837
    vertex 97.32582855224609 140.8273773193359 7.499972343444824
    vertex 97.32582855224609 140.8273773193359 0.01036345493048429
  endloop
endfacet
facet normal 0.4759981036186218 0.8794463276863098 2.231879570047113e-08
  outer loop
    vertex 77.05104827880859 151.8010559082031 0.01036247611045837
    vertex 77.05104827880859 151.8010559082031 7.499971389770508
    vertex 97.32582855224609 140.8273773193359 7.499972343444824
  endloop
endfacet
facet normal -0.7233092188835144 -0.6905242800712585 -3.429217443340349e-08
  outer loop
    vertex 8.637154579162598 179.7592926025391 0.01035917829722166
    vertex 32.20991134643555 155.0673370361328 7.499969005584717
    vertex 8.637153625488281 179.7592926025391 7.4999680519104
  endloop
endfacet
facet normal -0.7233088612556458 -0.6905246376991272 -2.082933633573703e-06
  outer loop
    vertex 8.637154579162598 179.7592926025391 0.01035917829722166
    vertex 32.20991897583008 155.0673522949219 0.01036032382398844
    vertex 32.20991134643555 155.0673370361328 7.499969005584717
  endloop
endfacet
facet normal 0.1072735115885735 -0.9942295551300049 5.726588536703048e-09
  outer loop
    vertex 59.86542892456055 167.0205688476563 0.01036164350807667
    vertex 59.86542892456055 167.0205688476563 7.499970436096191
    vertex 44.40095901489258 165.3520050048828 7.499969482421875
  endloop
endfacet
facet normal 0.1072735115885735 -0.9942295551300049 5.726588536703048e-09
  outer loop
    vertex 59.86542892456055 167.0205688476563 0.01036164350807667
    vertex 44.40095901489258 165.3520050048828 7.499969482421875
    vertex 44.40096664428711 165.3520050048828 0.01036090217530727
  endloop
endfacet
facet normal -0.0003808120673056692 -0.000318545353366062 -0.9999998807907104
  outer loop
    vertex 32.20991897583008 155.0673522949219 0.01036032382398844
    vertex 41.68230438232422 176.26708984375 4.778474504973929e-08
    vertex 43.73866271972656 173.8084564208984 1.478604900739811e-07
  endloop
endfacet
facet normal 0.0007305757026188076 -0.0008734575822018087 -0.9999993443489075
  outer loop
    vertex 52.83028793334961 172.9983520507813 5.844399879606499e-07
    vertex 55.28892135620117 175.0546722412109 7.01174144523975e-07
    vertex 59.86542892456055 167.0205688476563 0.01036164350807667
  endloop
endfacet
facet normal 0.001395519939251244 -0.0007960210205055773 -0.9999986886978149
  outer loop
    vertex 57.05792999267578 181.0879211425781 7.825047418918984e-07
    vertex 77.20608520507813 203.3932189941406 0.01036245375871658
    vertex 70.61708068847656 191.8423156738281 0.01036214455962181
  endloop
endfacet
facet normal 0.001180740189738572 -0.0006170278647914529 -0.9999991059303284
  outer loop
    vertex 55.28892135620117 175.0546722412109 7.01174144523975e-07
    vertex 56.77346420288086 177.8953704833984 7.707247959842789e-07
    vertex 59.86542892456055 167.0205688476563 0.01036164350807667
  endloop
endfacet
facet normal -0.0003242289822082967 -0.0001016737223835662 -0.9999999403953552
  outer loop
    vertex 8.637154579162598 179.7592926025391 0.01035917829722166
    vertex 40.72338104248047 179.3254852294922 2.442490654175344e-13
    vertex 41.68230438232422 176.26708984375 4.778474504973929e-08
  endloop
endfacet
facet normal 0.001702455221675336 -0.002017971593886614 -0.999996542930603
  outer loop
    vertex 32.20991897583008 155.0673522949219 0.01036032382398844
    vertex 46.57930755615234 172.3239135742188 2.849876636901172e-07
    vertex 44.40096664428711 165.3520050048828 0.01036090217530727
  endloop
endfacet
facet normal -0.0001287854393012822 -0.001445812056772411 -0.999998927116394
  outer loop
    vertex 44.40096664428711 165.3520050048828 0.01036090217530727
    vertex 46.57930755615234 172.3239135742188 2.849876636901172e-07
    vertex 49.77187728881836 172.0394287109375 4.382948191050673e-07
  endloop
endfacet
facet normal 4.796790875616352e-08 -5.842742401007683e-10 -1
  outer loop
    vertex 59.86542892456055 167.0205688476563 0.01036164350807667
    vertex 77.05104827880859 151.8010559082031 0.01036247611045837
    vertex 69.33170318603516 144.0851745605469 0.01036211103200912
  endloop
endfacet
facet normal 0.0008222679025493562 -7.326291961362585e-05 -0.9999996423721313
  outer loop
    vertex 56.77346420288086 177.8953704833984 7.707247959842789e-07
    vertex 57.05792999267578 181.0879211425781 7.825047418918984e-07
    vertex 70.61708068847656 191.8423156738281 0.01036214455962181
  endloop
endfacet
facet normal 0.000165982884936966 -0.001537914271466434 -0.9999988079071045
  outer loop
    vertex 44.40096664428711 165.3520050048828 0.01036090217530727
    vertex 52.83028793334961 172.9983520507813 5.844399879606499e-07
    vertex 59.86542892456055 167.0205688476563 0.01036164350807667
  endloop
endfacet
facet normal 0.0006492935353890061 -0.002070713555440307 -0.999997615814209
  outer loop
    vertex 44.40096664428711 165.3520050048828 0.01036090217530727
    vertex 49.77187728881836 172.0394287109375 4.382948191050673e-07
    vertex 52.83028793334961 172.9983520507813 5.844399879606499e-07
  endloop
endfacet
facet normal -5.11027678840037e-07 -4.413024328187021e-07 -1
  outer loop
    vertex 3.592609232327959e-07 190.7144317626953 0.01035875733941793
    vertex 19.46072578430176 200.6535034179688 0.01034442614763975
    vertex 8.637154579162598 179.7592926025391 0.01035917829722166
  endloop
endfacet
facet normal -0.001453461591154337 0.001730371033772826 0.9999974370002747
  outer loop
    vertex 52.83028411865234 172.9983673095703 7.479401111602783
    vertex 59.86542892456055 167.0205688476563 7.499970436096191
    vertex 55.28892135620117 175.0546722412109 7.479416370391846
  endloop
endfacet
facet normal -0.002770439721643925 0.001580322626978159 0.9999949336051941
  outer loop
    vertex 57.05792999267578 181.0879211425781 7.479401588439941
    vertex 70.61705017089844 191.8422546386719 7.49997091293335
    vertex 77.20603942871094 203.3931274414063 7.499971389770508
  endloop
endfacet
facet normal -0.002342298859730363 0.001224055886268616 0.9999964833259583
  outer loop
    vertex 55.28892135620117 175.0546722412109 7.479416370391846
    vertex 59.86542892456055 167.0205688476563 7.499970436096191
    vertex 56.77346420288086 177.8953704833984 7.479416847229004
  endloop
endfacet
facet normal -0.0002185808843933046 -0.0004183432320132852 -0.9999998807907104
  outer loop
    vertex 32.20991897583008 155.0673522949219 0.01036032382398844
    vertex 43.73866271972656 173.8084564208984 1.478604900739811e-07
    vertex 46.57930755615234 172.3239135742188 2.849876636901172e-07
  endloop
endfacet
facet normal -0.003379766596481204 0.004006188362836838 0.9999862909317017
  outer loop
    vertex 32.20991134643555 155.0673370361328 7.499969005584717
    vertex 44.40095901489258 165.3520050048828 7.499969482421875
    vertex 46.57930755615234 172.3239135742188 7.479401111602783
  endloop
endfacet
facet normal 0.0002510706253815442 0.002871773671358824 0.9999958276748657
  outer loop
    vertex 44.40095901489258 165.3520050048828 7.499969482421875
    vertex 49.77187728881836 172.0394287109375 7.479416370391846
    vertex 46.57930755615234 172.3239135742188 7.479401111602783
  endloop
endfacet
facet normal 4.41051497546141e-08 1.536438503535464e-06 1
  outer loop
    vertex 97.32582855224609 140.8273773193359 7.499972343444824
    vertex 108.2977752685547 120.2995147705078 7.500003337860107
    vertex 116.9839782714844 119.7787857055664 7.500003814697266
  endloop
endfacet
facet normal -0.001636460307054222 0.0001505894470028579 0.9999986290931702
  outer loop
    vertex 56.77346420288086 177.8953704833984 7.479416847229004
    vertex 70.61705017089844 191.8422546386719 7.49997091293335
    vertex 57.05792999267578 181.0879211425781 7.479401588439941
  endloop
endfacet
facet normal -0.0003294720663689077 0.003053160617128015 0.9999952912330627
  outer loop
    vertex 44.40095901489258 165.3520050048828 7.499969482421875
    vertex 59.86542892456055 167.0205688476563 7.499970436096191
    vertex 52.83028411865234 172.9983673095703 7.479401111602783
  endloop
endfacet
facet normal -0.00128137250430882 0.004102520644664764 0.9999907612800598
  outer loop
    vertex 44.40095901489258 165.3520050048828 7.499969482421875
    vertex 52.83028411865234 172.9983673095703 7.479401111602783
    vertex 49.77187728881836 172.0394287109375 7.479416370391846
  endloop
endfacet
facet normal 0.9942293763160706 0.1072752997279167 4.762842564787206e-08
  outer loop
    vertex 44.36743927001953 199.1296234130859 1.632270425488969e-07
    vertex 44.8216667175293 194.9198303222656 7.479400634765625
    vertex 44.8216667175293 194.9198303222656 1.874750523711555e-07
  endloop
endfacet
facet normal 0.9942293763160706 0.1072752997279167 4.762842564787206e-08
  outer loop
    vertex 44.36743927001953 199.1296234130859 7.479400634765625
    vertex 44.8216667175293 194.9198303222656 7.479400634765625
    vertex 44.36743927001953 199.1296234130859 1.632270425488969e-07
  endloop
endfacet
facet normal 0.1072735115885735 -0.9942295551300049 5.726588536703048e-09
  outer loop
    vertex 52.20169448852539 199.9749145507813 5.385260806178849e-07
    vertex 44.36743927001953 199.1296234130859 7.479400634765625
    vertex 44.36743927001953 199.1296234130859 1.632270425488969e-07
  endloop
endfacet
facet normal 0.1072735115885735 -0.9942295551300049 5.726588536703048e-09
  outer loop
    vertex 52.20169448852539 199.9749145507813 5.385260806178849e-07
    vertex 52.20169448852539 199.9749145507813 7.479401111602783
    vertex 44.36743927001953 199.1296234130859 7.479400634765625
  endloop
endfacet
facet normal -0.9942296743392944 -0.1072726100683212 -4.762843985872678e-08
  outer loop
    vertex 52.20169448852539 199.9749145507813 5.385260806178849e-07
    vertex 52.655029296875 195.7733001708984 5.627264272334287e-07
    vertex 52.20169448852539 199.9749145507813 7.479401111602783
  endloop
endfacet
facet normal -0.9942296743392944 -0.1072726100683212 -4.762843985872678e-08
  outer loop
    vertex 52.20169448852539 199.9749145507813 7.479401111602783
    vertex 52.655029296875 195.7733001708984 5.627264272334287e-07
    vertex 52.655029296875 195.7733001708984 7.479401111602783
  endloop
endfacet
facet normal -0.1083111837506294 0.9941170215606689 -5.776297662407615e-09
  outer loop
    vertex 44.8216667175293 194.9198303222656 1.874750523711555e-07
    vertex 44.8216667175293 194.9198303222656 7.479400634765625
    vertex 52.655029296875 195.7733001708984 7.479401111602783
  endloop
endfacet
facet normal -0.1083111837506294 0.9941170215606689 -5.776297662407615e-09
  outer loop
    vertex 44.8216667175293 194.9198303222656 1.874750523711555e-07
    vertex 52.655029296875 195.7733001708984 7.479401111602783
    vertex 52.655029296875 195.7733001708984 5.627264272334287e-07
  endloop
endfacet
facet normal 0.0005997707485221326 -0.0001134110207203776 -0.9999998211860657
  outer loop
    vertex 51.20198822021484 188.0895080566406 4.975165097675927e-07
    vertex 52.655029296875 195.7733001708984 5.627264272334287e-07
    vertex 72.43199920654297 208.9994506835938 0.0103622218593955
  endloop
endfacet
facet normal -0.0005411565070971847 -5.839543518959545e-05 -0.9999998807907104
  outer loop
    vertex 24.34814071655273 207.7662658691406 0.01032939832657576
    vertex 44.36743927001953 199.1296234130859 1.632270425488969e-07
    vertex 44.8216667175293 194.9198303222656 1.874750523711555e-07
  endloop
endfacet
facet normal 0.0004886686219833791 5.271923873806372e-05 -0.9999998807907104
  outer loop
    vertex 52.655029296875 195.7733001708984 5.627264272334287e-07
    vertex 52.20169448852539 199.9749145507813 5.385260806178849e-07
    vertex 72.43199920654297 208.9994506835938 0.0103622218593955
  endloop
endfacet
facet normal -0.0007265396998263896 -0.0003538432356435806 -0.9999997019767761
  outer loop
    vertex 24.34814071655273 207.7662658691406 0.01032939832657576
    vertex 44.8216667175293 194.9198303222656 1.874750523711555e-07
    vertex 48.00944137573242 188.3739929199219 3.442106049078575e-07
  endloop
endfacet
facet normal -3.051850580959581e-05 0.001216579461470246 -0.9999992847442627
  outer loop
    vertex 24.34814071655273 207.7662658691406 0.01032939832657576
    vertex 72.43199920654297 208.9994506835938 0.0103622218593955
    vertex 52.20169448852539 199.9749145507813 5.385260806178849e-07
  endloop
endfacet
facet normal -0.0001031866850098595 0.0009567961096763611 -0.9999995231628418
  outer loop
    vertex 24.34814071655273 207.7662658691406 0.01032939832657576
    vertex 52.20169448852539 199.9749145507813 5.385260806178849e-07
    vertex 44.36743927001953 199.1296234130859 1.632270425488969e-07
  endloop
endfacet
facet normal 4.796790875616352e-08 -5.842742401007683e-10 -1
  outer loop
    vertex 48.00944137573242 188.3739929199219 3.442106049078575e-07
    vertex 52.655029296875 195.7733001708984 5.627264272334287e-07
    vertex 51.20198822021484 188.0895080566406 4.975165097675927e-07
  endloop
endfacet
facet normal 4.796790875616352e-08 -5.842742401007683e-10 -1
  outer loop
    vertex 44.8216667175293 194.9198303222656 1.874750523711555e-07
    vertex 52.655029296875 195.7733001708984 5.627264272334287e-07
    vertex 48.00944137573242 188.3739929199219 3.442106049078575e-07
  endloop
endfacet
facet normal -0.00119217939209193 0.0002274241560371593 0.9999992847442627
  outer loop
    vertex 51.20198822021484 188.0895080566406 7.479416370391846
    vertex 72.43201446533203 208.9994354248047 7.49997091293335
    vertex 52.655029296875 195.7733001708984 7.479401111602783
  endloop
endfacet
facet normal 0.001076763728633523 0.0001161863547167741 0.9999994039535522
  outer loop
    vertex 24.3481273651123 207.7662353515625 7.499953269958496
    vertex 44.8216667175293 194.9198303222656 7.479400634765625
    vertex 44.36743927001953 199.1296234130859 7.479400634765625
  endloop
endfacet
facet normal -0.0009700920199975371 -0.00010466251114849 0.9999995231628418
  outer loop
    vertex 52.655029296875 195.7733001708984 7.479401111602783
    vertex 72.43201446533203 208.9994354248047 7.49997091293335
    vertex 52.20169448852539 199.9749145507813 7.479401111602783
  endloop
endfacet
facet normal 0.001445610541850328 0.000704025209415704 0.9999986886978149
  outer loop
    vertex 24.3481273651123 207.7662353515625 7.499953269958496
    vertex 48.00944137573242 188.3739929199219 7.479401111602783
    vertex 44.8216667175293 194.9198303222656 7.479400634765625
  endloop
endfacet
facet normal 6.163588841445744e-05 -0.002417485229671001 0.999997079372406
  outer loop
    vertex 24.3481273651123 207.7662353515625 7.499953269958496
    vertex 52.20169448852539 199.9749145507813 7.479401111602783
    vertex 72.43201446533203 208.9994354248047 7.49997091293335
  endloop
endfacet
facet normal 0.0002053542120847851 -0.001903702621348202 0.999998152256012
  outer loop
    vertex 24.3481273651123 207.7662353515625 7.499953269958496
    vertex 44.36743927001953 199.1296234130859 7.479400634765625
    vertex 52.20169448852539 199.9749145507813 7.479401111602783
  endloop
endfacet
facet normal -4.574244485411327e-06 2.842365347532905e-06 1
  outer loop
    vertex 48.00944137573242 188.3739929199219 7.479401111602783
    vertex 51.20198822021484 188.0895080566406 7.479416370391846
    vertex 52.655029296875 195.7733001708984 7.479401111602783
  endloop
endfacet
facet normal -4.796790875616352e-08 5.842742401007683e-10 1
  outer loop
    vertex 44.8216667175293 194.9198303222656 7.479400634765625
    vertex 48.00944137573242 188.3739929199219 7.479401111602783
    vertex 52.655029296875 195.7733001708984 7.479401111602783
  endloop
endfacet
facet normal 0.9821876287460327 -0.1879028081893921 -3.854276542369917e-07
  outer loop
    vertex 70.61705017089844 191.8422546386719 7.49997091293335
    vertex 66.72348022460938 171.4901733398438 7.49997091293335
    vertex 66.72348785400391 171.490234375 0.01036196947097778
  endloop
endfacet
facet normal 0.9821873307228088 -0.1879042237997055 3.619574272306636e-06
  outer loop
    vertex 70.61708068847656 191.8423156738281 0.01036214455962181
    vertex 70.61705017089844 191.8422546386719 7.49997091293335
    vertex 66.72348785400391 171.490234375 0.01036196947097778
  endloop
endfacet
facet normal 0.8855684399604797 0.4645089507102966 4.220746419036914e-08
  outer loop
    vertex 66.72348022460938 171.4901733398438 7.49997091293335
    vertex 77.05104827880859 151.8010559082031 7.499971389770508
    vertex 77.05104827880859 151.8010559082031 0.01036247611045837
  endloop
endfacet
facet normal 0.8855692148208618 0.4645074903964996 4.926913334202254e-06
  outer loop
    vertex 66.72348785400391 171.490234375 0.01036196947097778
    vertex 66.72348022460938 171.4901733398438 7.49997091293335
    vertex 77.05104827880859 151.8010559082031 0.01036247611045837
  endloop
endfacet
facet normal 0.0009271478047594428 -0.0001773659023456275 -0.9999995827674866
  outer loop
    vertex 56.77346420288086 177.8953704833984 7.707247959842789e-07
    vertex 70.61708068847656 191.8423156738281 0.01036214455962181
    vertex 66.72348785400391 171.490234375 0.01036196947097778
  endloop
endfacet
facet normal 0.0005239045131020248 -0.0008037821389734745 -0.9999995231628418
  outer loop
    vertex 56.77346420288086 177.8953704833984 7.707247959842789e-07
    vertex 66.72348785400391 171.490234375 0.01036196947097778
    vertex 59.86542892456055 167.0205688476563 0.01036164350807667
  endloop
endfacet
facet normal 4.796790875616352e-08 -5.842742401007683e-10 -1
  outer loop
    vertex 59.86542892456055 167.0205688476563 0.01036164350807667
    vertex 66.72348785400391 171.490234375 0.01036196947097778
    vertex 77.05104827880859 151.8010559082031 0.01036247611045837
  endloop
endfacet
facet normal -0.001839227043092251 0.0003518548328429461 0.9999982714653015
  outer loop
    vertex 56.77346420288086 177.8953704833984 7.479416847229004
    vertex 66.72348022460938 171.4901733398438 7.49997091293335
    vertex 70.61705017089844 191.8422546386719 7.49997091293335
  endloop
endfacet
facet normal -0.001039261929690838 0.001594543224200606 0.9999982118606567
  outer loop
    vertex 56.77346420288086 177.8953704833984 7.479416847229004
    vertex 59.86542892456055 167.0205688476563 7.499970436096191
    vertex 66.72348022460938 171.4901733398438 7.49997091293335
  endloop
endfacet
facet normal -4.796790875616352e-08 5.842742401007683e-10 1
  outer loop
    vertex 59.86542892456055 167.0205688476563 7.499970436096191
    vertex 77.05104827880859 151.8010559082031 7.499971389770508
    vertex 66.72348022460938 171.4901733398438 7.49997091293335
  endloop
endfacet
facet normal 0.0006398193072527647 -5.223216430749744e-05 0.9999998211860657
  outer loop
    vertex 8.637153625488281 179.7592926025391 7.4999680519104
    vertex 40.72338104248047 179.3254852294922 7.479415893554688
    vertex 41.00783920288086 182.51806640625 7.479400634765625
  endloop
endfacet
facet normal 0.0006629255367442966 -0.0003464796754997224 0.9999997019767761
  outer loop
    vertex 19.46053314208984 200.6534423828125 7.499968528747559
    vertex 41.00783920288086 182.51806640625 7.479400634765625
    vertex 42.49240875244141 185.3587188720703 7.479400634765625
  endloop
endfacet
facet normal 0.0006922436296008527 0.0006609132396988571 0.9999995231628418
  outer loop
    vertex 8.637153625488281 179.7592926025391 7.4999680519104
    vertex 32.20991134643555 155.0673370361328 7.499969005584717
    vertex 41.68230438232422 176.26708984375 7.479400634765625
  endloop
endfacet
facet normal -0.9243614673614502 -0.3815178275108337 -4.411677423377114e-08
  outer loop
    vertex 59.86542892456055 167.0205688476563 0.01036164350807667
    vertex 69.33170318603516 144.0851745605469 0.01036211103200912
    vertex 59.86542892456055 167.0205688476563 7.499970436096191
  endloop
endfacet
facet normal -0.9243614673614502 -0.3815178275108337 -4.411677423377114e-08
  outer loop
    vertex 59.86542892456055 167.0205688476563 7.499970436096191
    vertex 69.33170318603516 144.0851745605469 0.01036211103200912
    vertex 69.33170318603516 144.0851745605469 7.49997091293335
  endloop
endfacet
facet normal -1.745688962273562e-07 1.392878061778902e-06 1
  outer loop
    vertex 27.63991737365723 120.1478042602539 7.499984264373779
    vertex 33.70013046264648 120.6988525390625 7.499984264373779
    vertex 38.73467636108398 132.1161041259766 7.499969482421875
  endloop
endfacet
facet normal 0.9149861931800842 -0.4034851789474487 2.026918627962004e-05
  outer loop
    vertex 38.73467636108398 132.1161041259766 7.499969482421875
    vertex 33.70013427734375 120.6988525390625 0.01036041509360075
    vertex 38.73480987548828 132.1160278320313 0.01036064978688955
  endloop
endfacet
facet normal 0.9149910807609558 -0.4034740626811981 4.41259473404898e-08
  outer loop
    vertex 38.73467636108398 132.1161041259766 7.499969482421875
    vertex 33.70013046264648 120.6988525390625 7.499984264373779
    vertex 33.70013427734375 120.6988525390625 0.01036041509360075
  endloop
endfacet
endsolid F33F
