solid 2D0E
facet normal 0.003109863959252834 -3.144422953482717e-05 0.9999951720237732
  outer loop
    vertex 49.23426818847656 52.76865005493164 14.30576992034912
    vertex 49.15857315063477 45.2794189453125 14.30576992034912
    vertex 60.80970764160156 45.16165542602539 14.26953315734863
  endloop
endfacet
facet normal 0.003109863959252834 -3.144422953482717e-05 0.9999951720237732
  outer loop
    vertex 49.23426818847656 52.76865005493164 14.30576992034912
    vertex 60.80970764160156 45.16165542602539 14.26953315734863
    vertex 60.88539886474609 52.65088653564453 14.26953315734863
  endloop
endfacet
facet normal -0.8353407382965088 0.008443291299045086 -0.5496676564216614
  outer loop
    vertex 47.4075813293457 45.29712677001953 42.62900924682617
    vertex 56.79850387573242 52.69219970703125 28.47103309631348
    vertex 56.72280502319336 45.20297241210938 28.47103309631348
  endloop
endfacet
facet normal -0.8353448510169983 0.008460826240479946 -0.5496612191200256
  outer loop
    vertex 47.48335647583008 52.78635787963867 42.62913131713867
    vertex 56.79850387573242 52.69219970703125 28.47103309631348
    vertex 47.4075813293457 45.29712677001953 42.62900924682617
  endloop
endfacet
facet normal -0.9609452486038208 0.009712847881019115 -0.2765680551528931
  outer loop
    vertex 56.79850387573242 52.69219970703125 28.47103309631348
    vertex 60.88539886474609 52.65088653564453 14.26953315734863
    vertex 56.72280502319336 45.20297241210938 28.47103309631348
  endloop
endfacet
facet normal -0.9609451293945313 0.00971186812967062 -0.2765685319900513
  outer loop
    vertex 56.72280502319336 45.20297241210938 28.47103309631348
    vertex 60.88539886474609 52.65088653564453 14.26953315734863
    vertex 60.80970764160156 45.16165542602539 14.26953315734863
  endloop
endfacet
facet normal 0.9999467730522156 -0.01010705623775721 0.00206838920712471
  outer loop
    vertex 17.49909400939941 53.08941268920898 2.304255723953247
    vertex 17.42816162109375 45.60013198852539 2.557953848736361e-13
    vertex 17.50386047363281 53.0893669128418 8.22859931304265e-08
  endloop
endfacet
facet normal 0.9999467730522156 -0.01010705623775721 0.00206838920712471
  outer loop
    vertex 17.49909400939941 53.08941268920898 2.304255723953247
    vertex 17.42339515686035 45.60018157958984 2.304255723953247
    vertex 17.42816162109375 45.60013198852539 2.557953848736361e-13
  endloop
endfacet
facet normal 0.8559622764587402 -0.008651725016534328 0.5169658660888672
  outer loop
    vertex 15.91116905212402 53.10546112060547 4.933719158172607
    vertex 17.42339515686035 45.60018157958984 2.304255723953247
    vertex 17.49909400939941 53.08941268920898 2.304255723953247
  endloop
endfacet
facet normal 0.855964720249176 -0.00864982046186924 0.5169618725776672
  outer loop
    vertex 15.83547878265381 45.61623001098633 4.933733940124512
    vertex 17.42339515686035 45.60018157958984 2.304255723953247
    vertex 15.91116905212402 53.10546112060547 4.933719158172607
  endloop
endfacet
facet normal 0.002879668492823839 -3.112682315986603e-05 -0.9999958276748657
  outer loop
    vertex 15.91116905212402 53.10546112060547 4.933719158172607
    vertex 31.38861083984375 52.94902420043945 4.978293895721436
    vertex 15.83547878265381 45.61623001098633 4.933733940124512
  endloop
endfacet
facet normal 0.002877738093957305 -2.703252539504319e-05 -0.9999958872795105
  outer loop
    vertex 31.38861083984375 52.94902420043945 4.978293895721436
    vertex 31.31292152404785 45.45979690551758 4.978278636932373
    vertex 15.83547878265381 45.61623001098633 4.933733940124512
  endloop
endfacet
facet normal -0.8804336190223694 0.008897202089428902 0.4740859270095825
  outer loop
    vertex 31.38861083984375 52.94902420043945 4.978293895721436
    vertex 29.94955635070801 52.96356582641602 2.305525779724121
    vertex 31.31292152404785 45.45979690551758 4.978278636932373
  endloop
endfacet
facet normal -0.880430281162262 0.008899987675249577 0.474092036485672
  outer loop
    vertex 31.31292152404785 45.45979690551758 4.978278636932373
    vertex 29.94955635070801 52.96356582641602 2.305525779724121
    vertex 29.87385940551758 45.47434234619141 2.305541038513184
  endloop
endfacet
facet normal -0.9999467730522156 0.01010704599320889 -0.002065914683043957
  outer loop
    vertex 29.87385940551758 45.47434234619141 2.305541038513184
    vertex 29.94955635070801 52.96356582641602 2.305525779724121
    vertex 29.95422172546387 52.96352005004883 0.04733699187636375
  endloop
endfacet
facet normal -0.9999467730522156 0.01010705623775721 -0.002065879758447409
  outer loop
    vertex 29.87385940551758 45.47434234619141 2.305541038513184
    vertex 29.95422172546387 52.96352005004883 0.04733699187636375
    vertex 29.87852478027344 45.47429275512695 0.04733690991997719
  endloop
endfacet
facet normal 0.01010605879127979 0.9999489188194275 1.41547555898569e-08
  outer loop
    vertex 29.94955635070801 52.96356582641602 2.305525779724121
    vertex 31.38861083984375 52.94902420043945 4.978293895721436
    vertex 29.95422172546387 52.96352005004883 0.04733699187636375
  endloop
endfacet
facet normal -0.01010605879127979 -0.9999489188194275 -1.41547555898569e-08
  outer loop
    vertex 29.87385940551758 45.47434234619141 2.305541038513184
    vertex 29.87852478027344 45.47429275512695 0.04733690991997719
    vertex 31.31292152404785 45.45979690551758 4.978278636932373
  endloop
endfacet
facet normal 0.01010605879127979 0.9999489188194275 1.41547555898569e-08
  outer loop
    vertex 15.91116905212402 53.10546112060547 4.933719158172607
    vertex 17.49909400939941 53.08941268920898 2.304255723953247
    vertex 17.50386047363281 53.0893669128418 8.22859931304265e-08
  endloop
endfacet
facet normal -0.0101084690541029 -0.9999489188194275 -1.914053626705936e-08
  outer loop
    vertex 15.83547878265381 45.61623001098633 4.933733940124512
    vertex 17.42816162109375 45.60013198852539 2.557953848736361e-13
    vertex 17.42339515686035 45.60018157958984 2.304255723953247
  endloop
endfacet
facet normal -0.01010323874652386 -0.9999489784240723 1.637760760786477e-06
  outer loop
    vertex 57.27375030517578 45.19740676879883 4.9878830909729
    vertex 58.79244995117188 45.18205261230469 0.08544602245092392
    vertex 58.78765106201172 45.18210601806641 2.402900695800781
  endloop
endfacet
facet normal 0.01010605879127979 0.9999489188194275 1.41547555898569e-08
  outer loop
    vertex 57.34944534301758 52.6866340637207 4.9878830909729
    vertex 58.86335754394531 52.67133331298828 2.402900695800781
    vertex 58.86814117431641 52.67128372192383 0.08544612675905228
  endloop
endfacet
facet normal -0.01010605879127979 -0.9999489188194275 -1.41547555898569e-08
  outer loop
    vertex 71.27814483642578 45.05585479736328 2.373208284378052
    vertex 71.28277587890625 45.05580902099609 0.132857009768486
    vertex 72.68180847167969 45.04166793823242 5.001255512237549
  endloop
endfacet
facet normal 0.01010605879127979 0.9999489188194275 1.41547555898569e-08
  outer loop
    vertex 71.35385131835938 52.54508972167969 2.373208284378052
    vertex 72.75751495361328 52.53090286254883 5.001255989074707
    vertex 71.35846710205078 52.54504013061523 0.1328571140766144
  endloop
endfacet
facet normal -0.9999467730522156 0.01010807510465384 -0.002059449441730976
  outer loop
    vertex 71.35385131835938 52.54508972167969 2.373208284378052
    vertex 71.35846710205078 52.54504013061523 0.1328571140766144
    vertex 71.27814483642578 45.05585479736328 2.373208284378052
  endloop
endfacet
facet normal -0.9999467730522156 0.01010603737086058 -0.002066260203719139
  outer loop
    vertex 71.27814483642578 45.05585479736328 2.373208284378052
    vertex 71.35846710205078 52.54504013061523 0.1328571140766144
    vertex 71.28277587890625 45.05580902099609 0.132857009768486
  endloop
endfacet
facet normal -0.8820139169692993 0.008915932849049568 0.4711390435695648
  outer loop
    vertex 72.68180847167969 45.04166793823242 5.001255512237549
    vertex 72.75751495361328 52.53090286254883 5.001255989074707
    vertex 71.35385131835938 52.54508972167969 2.373208284378052
  endloop
endfacet
facet normal -0.8820139169692993 0.008915932849049568 0.4711390435695648
  outer loop
    vertex 72.68180847167969 45.04166793823242 5.001255512237549
    vertex 71.35385131835938 52.54508972167969 2.373208284378052
    vertex 71.27814483642578 45.05585479736328 2.373208284378052
  endloop
endfacet
facet normal 0.0008678158046677709 -8.760542186792009e-06 -0.9999996423721313
  outer loop
    vertex 57.34944534301758 52.6866340637207 4.9878830909729
    vertex 72.75751495361328 52.53090286254883 5.001255989074707
    vertex 57.27375030517578 45.19740676879883 4.9878830909729
  endloop
endfacet
facet normal 0.000867817725520581 -8.764613994571846e-06 -0.9999996423721313
  outer loop
    vertex 72.75751495361328 52.53090286254883 5.001255989074707
    vertex 72.68180847167969 45.04166793823242 5.001255512237549
    vertex 57.27375030517578 45.19740676879883 4.9878830909729
  endloop
endfacet
facet normal 0.8628501296043396 -0.008722221478819847 0.5053845643997192
  outer loop
    vertex 57.34944534301758 52.6866340637207 4.9878830909729
    vertex 58.78765106201172 45.18210601806641 2.402900695800781
    vertex 58.86335754394531 52.67133331298828 2.402900695800781
  endloop
endfacet
facet normal 0.8628512620925903 -0.008721355348825455 0.5053826570510864
  outer loop
    vertex 57.27375030517578 45.19740676879883 4.9878830909729
    vertex 58.78765106201172 45.18210601806641 2.402900695800781
    vertex 57.34944534301758 52.6866340637207 4.9878830909729
  endloop
endfacet
facet normal 0.9999467730522156 -0.01010603737086058 0.002065232954919338
  outer loop
    vertex 58.86335754394531 52.67133331298828 2.402900695800781
    vertex 58.79244995117188 45.18205261230469 0.08544602245092392
    vertex 58.86814117431641 52.67128372192383 0.08544612675905228
  endloop
endfacet
facet normal 0.9999467730522156 -0.01010807510465384 0.002071817172691226
  outer loop
    vertex 58.78765106201172 45.18210601806641 2.402900695800781
    vertex 58.79244995117188 45.18205261230469 0.08544602245092392
    vertex 58.86335754394531 52.67133331298828 2.402900695800781
  endloop
endfacet
facet normal 0.001317884773015976 -1.330514623987256e-05 -0.9999991059303284
  outer loop
    vertex 29.95422172546387 52.96352005004883 0.04733699187636375
    vertex 58.86814117431641 52.67128372192383 0.08544612675905228
    vertex 58.79244995117188 45.18205261230469 0.08544602245092392
  endloop
endfacet
facet normal 0.001317883492447436 -1.330964460066753e-05 -0.9999991059303284
  outer loop
    vertex 29.95422172546387 52.96352005004883 0.04733699187636375
    vertex 58.79244995117188 45.18205261230469 0.08544602245092392
    vertex 29.87852478027344 45.47429275512695 0.04733690991997719
  endloop
endfacet
facet normal -0.007396630942821503 7.680618000449613e-05 -0.9999726414680481
  outer loop
    vertex 77.13470458984375 52.48664855957031 0.09014198929071426
    vertex 77.05901336669922 44.99741744995117 0.09012662619352341
    vertex 71.28277587890625 45.05580902099609 0.132857009768486
  endloop
endfacet
facet normal -0.007394010666757822 7.474228186765686e-05 -0.9999726414680481
  outer loop
    vertex 71.35846710205078 52.54504013061523 0.1328571140766144
    vertex 77.13470458984375 52.48664855957031 0.09014198929071426
    vertex 71.28277587890625 45.05580902099609 0.132857009768486
  endloop
endfacet
facet normal 0.01010869536548853 0.9999489188194275 -7.433743576257257e-07
  outer loop
    vertex 71.35846710205078 52.54504013061523 0.1328571140766144
    vertex 72.75751495361328 52.53090286254883 5.001255989074707
    vertex 77.13470458984375 52.48664855957031 0.09014198929071426
  endloop
endfacet
facet normal -0.0101080359891057 -0.9999489188194275 5.539854441849457e-07
  outer loop
    vertex 71.28277587890625 45.05580902099609 0.132857009768486
    vertex 77.05901336669922 44.99741744995117 0.09012662619352341
    vertex 72.68180847167969 45.04166793823242 5.001255512237549
  endloop
endfacet
facet normal 0.01010655425488949 0.9999489188194275 4.450724588878074e-07
  outer loop
    vertex 49.23426818847656 52.76865005493164 14.30576992034912
    vertex 72.75751495361328 52.53090286254883 5.001255989074707
    vertex 57.34944534301758 52.6866340637207 4.9878830909729
  endloop
endfacet
facet normal 0.01010671630501747 0.9999489188194275 8.562959123992187e-07
  outer loop
    vertex 49.23426818847656 52.76865005493164 14.30576992034912
    vertex 60.88539886474609 52.65088653564453 14.26953315734863
    vertex 72.75751495361328 52.53090286254883 5.001255989074707
  endloop
endfacet
facet normal -0.01010704785585403 -0.9999489188194275 -1.28507645058562e-06
  outer loop
    vertex 49.15857315063477 45.2794189453125 14.30576992034912
    vertex 57.27375030517578 45.19740676879883 4.9878830909729
    vertex 72.68180847167969 45.04166793823242 5.001255512237549
  endloop
endfacet
facet normal -0.01010704506188631 -0.9999489188194275 -1.277364049201424e-06
  outer loop
    vertex 49.15857315063477 45.2794189453125 14.30576992034912
    vertex 72.68180847167969 45.04166793823242 5.001255512237549
    vertex 60.80970764160156 45.16165542602539 14.26953315734863
  endloop
endfacet
facet normal 0.01010737847536802 0.9999489188194275 1.142470296144893e-06
  outer loop
    vertex 0.09664252400398254 53.26530838012695 6.787113189697266
    vertex 11.66762542724609 53.14835739135742 0.0138031467795372
    vertex 0.07569817453622818 53.26552581787109 0.04985632002353668
  endloop
endfacet
facet normal 0.01010721363127232 0.9999489188194275 8.597342002758523e-07
  outer loop
    vertex 0.09664252400398254 53.26530838012695 6.787113189697266
    vertex 6.659494400024414 53.19897079467773 6.850594520568848
    vertex 11.66762542724609 53.14835739135742 0.0138031467795372
  endloop
endfacet
facet normal -0.01010663621127605 -0.9999489188194275 -4.369504722490092e-07
  outer loop
    vertex 0.02095205336809158 45.77607727050781 6.787113189697266
    vertex 11.59192657470703 45.65913009643555 0.01380306389182806
    vertex 6.583803653717041 45.70974731445313 6.850533485412598
  endloop
endfacet
facet normal -0.01010638847947121 -0.9999489188194275 -1.313135911118479e-08
  outer loop
    vertex 0 45.77629089355469 0.04985623806715012
    vertex 11.59192657470703 45.65913009643555 0.01380306389182806
    vertex 0.02095205336809158 45.77607727050781 6.787113189697266
  endloop
endfacet
facet normal -0.9999440908432007 0.01010601036250591 0.003108890494331717
  outer loop
    vertex 0.02095205336809158 45.77607727050781 6.787113189697266
    vertex 0.09664252400398254 53.26530838012695 6.787113189697266
    vertex 0.07569817453622818 53.26552581787109 0.04985632002353668
  endloop
endfacet
facet normal -0.9999440908432007 0.01010702922940254 0.00311002298258245
  outer loop
    vertex 0.02095205336809158 45.77607727050781 6.787113189697266
    vertex 0.07569817453622818 53.26552581787109 0.04985632002353668
    vertex 0 45.77629089355469 0.04985623806715012
  endloop
endfacet
facet normal -0.9998668432235718 0.01010526902973652 0.01281464286148548
  outer loop
    vertex 0.4847655892372131 53.26137542724609 50.85188293457031
    vertex 0.1532314866781235 53.26473617553711 24.98117828369141
    vertex 0.07754112035036087 45.77550506591797 24.98120880126953
  endloop
endfacet
facet normal -0.9998668432235718 0.01010013651102781 0.01281612925231457
  outer loop
    vertex 0.4847655892372131 53.26137542724609 50.85188293457031
    vertex 0.07754112035036087 45.77550506591797 24.98120880126953
    vertex 0.4091131389141083 45.77213668823242 50.85188293457031
  endloop
endfacet
facet normal -0.1235722377896309 0.001249007065780461 0.99233478307724
  outer loop
    vertex 0.2819716036319733 53.26342010498047 74.09112548828125
    vertex 6.989043712615967 45.70563125610352 74.93584442138672
    vertex 7.064741611480713 53.19485092163086 74.93584442138672
  endloop
endfacet
facet normal -0.1235722377896309 0.001249007065780461 0.99233478307724
  outer loop
    vertex 0.2819716036319733 53.26342010498047 74.09112548828125
    vertex 0.2062734812498093 45.77418518066406 74.09112548828125
    vertex 6.989043712615967 45.70563125610352 74.93584442138672
  endloop
endfacet
facet normal -0.003109863959252834 3.144422953482717e-05 -0.9999951720237732
  outer loop
    vertex 0.07569817453622818 53.26552581787109 0.04985632002353668
    vertex 11.66762542724609 53.14835739135742 0.0138031467795372
    vertex 11.59192657470703 45.65913009643555 0.01380306389182806
  endloop
endfacet
facet normal -0.003109863959252834 3.144422953482717e-05 -0.9999951720237732
  outer loop
    vertex 0.07569817453622818 53.26552581787109 0.04985632002353668
    vertex 11.59192657470703 45.65913009643555 0.01380306389182806
    vertex 0 45.77629089355469 0.04985623806715012
  endloop
endfacet
facet normal 0.01010652165859938 0.9999489188194275 -7.564913744317892e-07
  outer loop
    vertex 0.2819716036319733 53.26342010498047 74.09112548828125
    vertex 7.186390399932861 53.19363021850586 68.33557891845703
    vertex 4.659328937530518 53.21916961669922 66.81868743896484
  endloop
endfacet
facet normal 0.01010796055197716 0.9999489188194275 1.096622597174246e-07
  outer loop
    vertex 0.2819716036319733 53.26342010498047 74.09112548828125
    vertex 4.659328937530518 53.21916961669922 66.81868743896484
    vertex 0.6329127550125122 53.25987243652344 67.10372924804688
  endloop
endfacet
facet normal 0.01010622642934322 0.9999489188194275 2.445379777782364e-06
  outer loop
    vertex 0.2578454911708832 53.26365661621094 57.14369583129883
    vertex 4.191977977752686 53.22389602661133 56.87255096435547
    vertex 0.4847655892372131 53.26137542724609 50.85188293457031
  endloop
endfacet
facet normal 0.0101074269041419 0.9999489188194275 1.706420675873233e-06
  outer loop
    vertex 0.4847655892372131 53.26137542724609 50.85188293457031
    vertex 4.191977977752686 53.22389602661133 56.87255096435547
    vertex 6.638550758361816 53.19916915893555 54.895263671875
  endloop
endfacet
facet normal -0.01010605879127979 -0.9999489188194275 -1.41547555898569e-08
  outer loop
    vertex 0.2062734812498093 45.77418518066406 74.09112548828125
    vertex 0.5570764541625977 45.7706413269043 67.10345458984375
    vertex 4.583530426025391 45.72994613647461 66.81838226318359
  endloop
endfacet
facet normal -0.01010827627032995 -0.9999489188194275 -1.348902060271939e-06
  outer loop
    vertex 0.2062734812498093 45.77418518066406 74.09112548828125
    vertex 4.583530426025391 45.72994613647461 66.81838226318359
    vertex 7.110767841339111 45.70439529418945 68.33539581298828
  endloop
endfacet
facet normal -0.01010710000991821 -0.9999489188194275 6.268903121053881e-07
  outer loop
    vertex 0.4091131389141083 45.77213668823242 50.85188293457031
    vertex 6.562951564788818 45.70993804931641 54.89520263671875
    vertex 4.116295337677002 45.73466873168945 56.87248611450195
  endloop
endfacet
facet normal -0.01010698918253183 -0.9999489188194275 5.585870326285658e-07
  outer loop
    vertex 0.1821474730968475 45.77443313598633 57.14369583129883
    vertex 0.4091131389141083 45.77213668823242 50.85188293457031
    vertex 4.116295337677002 45.73466873168945 56.87248611450195
  endloop
endfacet
facet normal -0.9986910820007324 0.01009436417371035 -0.0501425676047802
  outer loop
    vertex 0.2819716036319733 53.26342010498047 74.09112548828125
    vertex 0.5570764541625977 45.7706413269043 67.10345458984375
    vertex 0.2062734812498093 45.77418518066406 74.09112548828125
  endloop
endfacet
facet normal -0.9986897706985474 0.01011461578309536 -0.05016423389315605
  outer loop
    vertex 0.2819716036319733 53.26342010498047 74.09112548828125
    vertex 0.6329127550125122 53.25987243652344 67.10372924804688
    vertex 0.5570764541625977 45.7706413269043 67.10345458984375
  endloop
endfacet
facet normal -0.07061656564474106 0.0007553243776783347 -0.9975032210350037
  outer loop
    vertex 4.659328937530518 53.21916961669922 66.81868743896484
    vertex 4.583530426025391 45.72994613647461 66.81838226318359
    vertex 0.5570764541625977 45.7706413269043 67.10345458984375
  endloop
endfacet
facet normal -0.07060971856117249 0.0007515333127230406 -0.9975037574768066
  outer loop
    vertex 0.6329127550125122 53.25987243652344 67.10372924804688
    vertex 4.659328937530518 53.21916961669922 66.81868743896484
    vertex 0.5570764541625977 45.7706413269043 67.10345458984375
  endloop
endfacet
facet normal 0.5146191716194153 -0.005175358615815639 -0.8574032783508301
  outer loop
    vertex 7.186390399932861 53.19363021850586 68.33557891845703
    vertex 7.110767841339111 45.70439529418945 68.33539581298828
    vertex 4.583530426025391 45.72994613647461 66.81838226318359
  endloop
endfacet
facet normal 0.5146151781082153 -0.005173489917069674 -0.8574056625366211
  outer loop
    vertex 7.186390399932861 53.19363021850586 68.33557891845703
    vertex 4.583530426025391 45.72994613647461 66.81838226318359
    vertex 4.659328937530518 53.21916961669922 66.81868743896484
  endloop
endfacet
facet normal -0.9991194009780884 0.01008515246212482 0.04072782397270203
  outer loop
    vertex 7.110767841339111 45.70439529418945 68.33539581298828
    vertex 6.638550758361816 53.19916915893555 54.895263671875
    vertex 6.562951564788818 45.70993804931641 54.89520263671875
  endloop
endfacet
facet normal -0.9991192817687988 0.01008759159594774 0.04072918370366096
  outer loop
    vertex 7.186390399932861 53.19363021850586 68.33557891845703
    vertex 6.638550758361816 53.19916915893555 54.895263671875
    vertex 7.110767841339111 45.70439529418945 68.33539581298828
  endloop
endfacet
facet normal 0.6285046339035034 -0.006357757374644279 0.7777798771858215
  outer loop
    vertex 4.191977977752686 53.22389602661133 56.87255096435547
    vertex 4.116295337677002 45.73466873168945 56.87248611450195
    vertex 6.562951564788818 45.70993804931641 54.89520263671875
  endloop
endfacet
facet normal 0.6285176873207092 -0.006350872572511435 0.7777693271636963
  outer loop
    vertex 4.191977977752686 53.22389602661133 56.87255096435547
    vertex 6.562951564788818 45.70993804931641 54.89520263671875
    vertex 6.638550758361816 53.19916915893555 54.895263671875
  endloop
endfacet
facet normal 0.06876703351736069 -0.0006950802053324878 0.9976325035095215
  outer loop
    vertex 0.2578454911708832 53.26365661621094 57.14369583129883
    vertex 0.1821474730968475 45.77443313598633 57.14369583129883
    vertex 4.116295337677002 45.73466873168945 56.87248611450195
  endloop
endfacet
facet normal 0.06875180453062057 -0.0007029246189631522 0.9976335763931274
  outer loop
    vertex 0.2578454911708832 53.26365661621094 57.14369583129883
    vertex 4.116295337677002 45.73466873168945 56.87248611450195
    vertex 4.191977977752686 53.22389602661133 56.87255096435547
  endloop
endfacet
facet normal -0.9992989301681519 0.01009440049529076 -0.03605157136917114
  outer loop
    vertex 0.1821474730968475 45.77443313598633 57.14369583129883
    vertex 0.4847655892372131 53.26137542724609 50.85188293457031
    vertex 0.4091131389141083 45.77213668823242 50.85188293457031
  endloop
endfacet
facet normal -0.999299168586731 0.01010051090270281 -0.03604431077837944
  outer loop
    vertex 0.2578454911708832 53.26365661621094 57.14369583129883
    vertex 0.4847655892372131 53.26137542724609 50.85188293457031
    vertex 0.1821474730968475 45.77443313598633 57.14369583129883
  endloop
endfacet
facet normal -0.9999440908432007 0.01010601036250591 0.003113712416961789
  outer loop
    vertex 0.02739061415195465 45.77601623535156 8.85500431060791
    vertex 0.09664252400398254 53.26530838012695 6.787113189697266
    vertex 0.02095205336809158 45.77607727050781 6.787113189697266
  endloop
endfacet
facet normal -0.9999440908432007 0.01010601036250591 0.003113712416961789
  outer loop
    vertex 0.02739061415195465 45.77601623535156 8.85500431060791
    vertex 0.103081040084362 53.26524353027344 8.85500431060791
    vertex 0.09664252400398254 53.26530838012695 6.787113189697266
  endloop
endfacet
facet normal 0.003109863959252834 -3.144422953482717e-05 0.9999951720237732
  outer loop
    vertex 0.103081040084362 53.26524353027344 8.85500431060791
    vertex 0.02739061415195465 45.77601623535156 8.85500431060791
    vertex 4.008040904998779 45.73578262329102 8.842623710632324
  endloop
endfacet
facet normal 0.003109863959252834 -3.144422953482717e-05 0.9999951720237732
  outer loop
    vertex 0.103081040084362 53.26524353027344 8.85500431060791
    vertex 4.008040904998779 45.73578262329102 8.842623710632324
    vertex 4.083762168884277 53.22500991821289 8.842623710632324
  endloop
endfacet
facet normal 0.6117290258407593 -0.006184979341924191 0.791043221950531
  outer loop
    vertex 4.083762168884277 53.22500991821289 8.842623710632324
    vertex 4.008040904998779 45.73578262329102 8.842623710632324
    vertex 6.583803653717041 45.70974731445313 6.850533485412598
  endloop
endfacet
facet normal 0.6117217540740967 -0.006188885308802128 0.7910488247871399
  outer loop
    vertex 4.083762168884277 53.22500991821289 8.842623710632324
    vertex 6.583803653717041 45.70974731445313 6.850533485412598
    vertex 6.659494400024414 53.19897079467773 6.850594520568848
  endloop
endfacet
facet normal -0.9999440908432007 0.01010601036250591 0.00311002298258245
  outer loop
    vertex 6.625632286071777 45.70932006835938 20.30087661743164
    vertex 6.659494400024414 53.19897079467773 6.850594520568848
    vertex 6.583803653717041 45.70974731445313 6.850533485412598
  endloop
endfacet
facet normal -0.9999440908432007 0.01010601036250591 0.00311002298258245
  outer loop
    vertex 6.701323509216309 53.19854354858398 20.30105972290039
    vertex 6.659494400024414 53.19897079467773 6.850594520568848
    vertex 6.625632286071777 45.70932006835938 20.30087661743164
  endloop
endfacet
facet normal 0.5281701683998108 -0.005317259579896927 -0.8491218686103821
  outer loop
    vertex 6.701323509216309 53.19854354858398 20.30105972290039
    vertex 6.625632286071777 45.70932006835938 20.30087661743164
    vertex 4.217818737030029 45.73366165161133 18.80301856994629
  endloop
endfacet
facet normal 0.528239369392395 -0.005348954815417528 -0.8490786552429199
  outer loop
    vertex 4.293653964996338 53.22288131713867 18.80301856994629
    vertex 6.701323509216309 53.19854354858398 20.30105972290039
    vertex 4.217818737030029 45.73366165161133 18.80301856994629
  endloop
endfacet
facet normal -0.003109863959252834 3.144422953482717e-05 -0.9999951720237732
  outer loop
    vertex 4.293653964996338 53.22288131713867 18.80301856994629
    vertex 4.217818737030029 45.73366165161133 18.80301856994629
    vertex 0.05836792662739754 45.77569961547852 18.81595420837402
  endloop
endfacet
facet normal -0.003109863959252834 3.144422953482717e-05 -0.9999951720237732
  outer loop
    vertex 0.1340584754943848 53.26493835449219 18.81595420837402
    vertex 4.293653964996338 53.22288131713867 18.80301856994629
    vertex 0.05836792662739754 45.77569961547852 18.81595420837402
  endloop
endfacet
facet normal -0.9999440908432007 0.01010601036250591 0.00311002298258245
  outer loop
    vertex 0.07754112035036087 45.77550506591797 24.98120880126953
    vertex 0.1532314866781235 53.26473617553711 24.98117828369141
    vertex 0.05836792662739754 45.77569961547852 18.81595420837402
  endloop
endfacet
facet normal -0.9999440908432007 0.01010601036250591 0.00311002298258245
  outer loop
    vertex 0.1532314866781235 53.26473617553711 24.98117828369141
    vertex 0.1340584754943848 53.26493835449219 18.81595420837402
    vertex 0.05836792662739754 45.77569961547852 18.81595420837402
  endloop
endfacet
facet normal -0.01010665111243725 -0.9999489188194275 1.134849185291387e-06
  outer loop
    vertex 0.02095205336809158 45.77607727050781 6.787113189697266
    vertex 6.583803653717041 45.70974731445313 6.850533485412598
    vertex 4.008040904998779 45.73578262329102 8.842623710632324
  endloop
endfacet
facet normal -0.01010701153427362 -0.9999489188194275 1.833539045037469e-06
  outer loop
    vertex 0.02095205336809158 45.77607727050781 6.787113189697266
    vertex 4.008040904998779 45.73578262329102 8.842623710632324
    vertex 0.02739061415195465 45.77601623535156 8.85500431060791
  endloop
endfacet
facet normal -0.01010605879127979 -0.9999489188194275 -1.41547555898569e-08
  outer loop
    vertex 0.07754112035036087 45.77550506591797 24.98120880126953
    vertex 0.05836792662739754 45.77569961547852 18.81595420837402
    vertex 4.217818737030029 45.73366165161133 18.80301856994629
  endloop
endfacet
facet normal -0.01010829489678144 -0.9999489188194275 -1.51280653426511e-06
  outer loop
    vertex 0.07754112035036087 45.77550506591797 24.98120880126953
    vertex 4.217818737030029 45.73366165161133 18.80301856994629
    vertex 6.625632286071777 45.70932006835938 20.30087661743164
  endloop
endfacet
facet normal 0.01010605879127979 0.9999489188194275 1.41547555898569e-08
  outer loop
    vertex 0.09664252400398254 53.26530838012695 6.787113189697266
    vertex 0.103081040084362 53.26524353027344 8.85500431060791
    vertex 4.083762168884277 53.22500991821289 8.842623710632324
  endloop
endfacet
facet normal 0.0101072434335947 0.9999489188194275 -2.283913318024133e-06
  outer loop
    vertex 0.09664252400398254 53.26530838012695 6.787113189697266
    vertex 4.083762168884277 53.22500991821289 8.842623710632324
    vertex 6.659494400024414 53.19897079467773 6.850594520568848
  endloop
endfacet
facet normal 0.01010883785784245 0.9999489188194275 6.413571327357204e-07
  outer loop
    vertex 0.1532314866781235 53.26473617553711 24.98117828369141
    vertex 6.701323509216309 53.19854354858398 20.30105972290039
    vertex 4.293653964996338 53.22288131713867 18.80301856994629
  endloop
endfacet
facet normal 0.0101097309961915 0.9999489188194275 1.240223696186149e-06
  outer loop
    vertex 0.1532314866781235 53.26473617553711 24.98117828369141
    vertex 4.293653964996338 53.22288131713867 18.80301856994629
    vertex 0.1340584754943848 53.26493835449219 18.81595420837402
  endloop
endfacet
facet normal 0.947394073009491 -0.009575878269970417 0.3199262022972107
  outer loop
    vertex 37.37382125854492 52.8885383605957 49.43157196044922
    vertex 49.15857315063477 45.2794189453125 14.30576992034912
    vertex 49.23426818847656 52.76865005493164 14.30576992034912
  endloop
endfacet
facet normal 0.947393000125885 -0.009590159170329571 0.3199289441108704
  outer loop
    vertex 37.37382125854492 52.8885383605957 49.43157196044922
    vertex 37.29806137084961 45.39930725097656 49.43141937255859
    vertex 49.15857315063477 45.2794189453125 14.30576992034912
  endloop
endfacet
facet normal 0.003109822748228908 -3.551867484929971e-05 0.9999951720237732
  outer loop
    vertex 20.77650260925293 53.05628967285156 14.39427947998047
    vertex 20.7008113861084 45.56705474853516 14.39424896240234
    vertex 36.32613372802734 52.89912033081055 14.34591674804688
  endloop
endfacet
facet normal 0.00310790166258812 -3.142439891234972e-05 0.9999951720237732
  outer loop
    vertex 36.32613372802734 52.89912033081055 14.34591674804688
    vertex 20.7008113861084 45.56705474853516 14.39424896240234
    vertex 36.25044250488281 45.40989685058594 14.34591674804688
  endloop
endfacet
facet normal -0.9544398188591003 0.009646122343838215 -0.2982475757598877
  outer loop
    vertex 23.65731620788574 53.02716827392578 54.89229202270508
    vertex 36.32613372802734 52.89912033081055 14.34591674804688
    vertex 36.25044250488281 45.40989685058594 14.34591674804688
  endloop
endfacet
facet normal -0.9544397592544556 0.009647092781960964 -0.2982477247714996
  outer loop
    vertex 23.65731620788574 53.02716827392578 54.89229202270508
    vertex 36.25044250488281 45.40989685058594 14.34591674804688
    vertex 23.58161735534668 45.53793334960938 54.89229202270508
  endloop
endfacet
facet normal 0.3756242096424103 -0.003796647069975734 -0.9267642498016357
  outer loop
    vertex 23.65731620788574 53.02716827392578 54.89229202270508
    vertex 23.58161735534668 45.53793334960938 54.89229202270508
    vertex 16.16048049926758 53.10293579101563 51.85345840454102
  endloop
endfacet
facet normal 0.3756242096424103 -0.003796647069975734 -0.9267642498016357
  outer loop
    vertex 16.16048049926758 53.10293579101563 51.85345840454102
    vertex 23.58161735534668 45.53793334960938 54.89229202270508
    vertex 16.08478164672852 45.61370468139648 51.85345840454102
  endloop
endfacet
facet normal 0.9924413561820984 -0.01003069616854191 0.122309222817421
  outer loop
    vertex 16.08478164672852 45.61370468139648 51.85345840454102
    vertex 20.7008113861084 45.56705474853516 14.39424896240234
    vertex 20.77650260925293 53.05628967285156 14.39427947998047
  endloop
endfacet
facet normal 0.9924413561820984 -0.0100311953574419 0.1223091259598732
  outer loop
    vertex 16.08478164672852 45.61370468139648 51.85345840454102
    vertex 20.77650260925293 53.05628967285156 14.39427947998047
    vertex 16.16048049926758 53.10293579101563 51.85345840454102
  endloop
endfacet
facet normal -0.01010783202946186 -0.9999489188194275 -6.993036549829412e-08
  outer loop
    vertex 36.25044250488281 45.40989685058594 14.34591674804688
    vertex 49.15857315063477 45.2794189453125 14.30576992034912
    vertex 37.29806137084961 45.39930725097656 49.43141937255859
  endloop
endfacet
facet normal -0.01010610163211823 -0.9999489188194275 -1.216031790818306e-07
  outer loop
    vertex 23.58161735534668 45.53793334960938 54.89229202270508
    vertex 36.25044250488281 45.40989685058594 14.34591674804688
    vertex 37.29806137084961 45.39930725097656 49.43141937255859
  endloop
endfacet
facet normal 0.0101059740409255 0.9999489188194275 -2.007410841997626e-07
  outer loop
    vertex 23.65731620788574 53.02716827392578 54.89229202270508
    vertex 37.37382125854492 52.8885383605957 49.43157196044922
    vertex 36.32613372802734 52.89912033081055 14.34591674804688
  endloop
endfacet
facet normal 0.01010724063962698 0.9999489188194275 -2.38571089994366e-07
  outer loop
    vertex 36.32613372802734 52.89912033081055 14.34591674804688
    vertex 37.37382125854492 52.8885383605957 49.43157196044922
    vertex 49.23426818847656 52.76865005493164 14.30576992034912
  endloop
endfacet
facet normal -0.0101067190989852 -0.9999489188194275 5.593794867309043e-07
  outer loop
    vertex 29.87852478027344 45.47429275512695 0.04733690991997719
    vertex 58.79244995117188 45.18205261230469 0.08544602245092392
    vertex 57.27375030517578 45.19740676879883 4.9878830909729
  endloop
endfacet
facet normal -0.01010664645582438 -0.9999489188194275 1.568420202602283e-07
  outer loop
    vertex 29.87852478027344 45.47429275512695 0.04733690991997719
    vertex 57.27375030517578 45.19740676879883 4.9878830909729
    vertex 31.31292152404785 45.45979690551758 4.978278636932373
  endloop
endfacet
facet normal -0.01010664645582438 -0.9999489188194275 -9.351495009468636e-07
  outer loop
    vertex 31.31292152404785 45.45979690551758 4.978278636932373
    vertex 57.27375030517578 45.19740676879883 4.9878830909729
    vertex 49.15857315063477 45.2794189453125 14.30576992034912
  endloop
endfacet
facet normal -0.01010630279779434 -0.9999489188194275 5.214945417719719e-07
  outer loop
    vertex 20.7008113861084 45.56705474853516 14.39424896240234
    vertex 31.31292152404785 45.45979690551758 4.978278636932373
    vertex 36.25044250488281 45.40989685058594 14.34591674804688
  endloop
endfacet
facet normal -0.01010782830417156 -0.9999489188194275 1.325472112512216e-06
  outer loop
    vertex 31.31292152404785 45.45979690551758 4.978278636932373
    vertex 49.15857315063477 45.2794189453125 14.30576992034912
    vertex 36.25044250488281 45.40989685058594 14.34591674804688
  endloop
endfacet
facet normal 0.0101065868511796 0.9999489188194275 1.77570669279703e-07
  outer loop
    vertex 29.95422172546387 52.96352005004883 0.04733699187636375
    vertex 57.34944534301758 52.6866340637207 4.9878830909729
    vertex 58.86814117431641 52.67128372192383 0.08544612675905228
  endloop
endfacet
facet normal 0.01010664645582438 0.9999489188194275 -1.568404996987738e-07
  outer loop
    vertex 29.95422172546387 52.96352005004883 0.04733699187636375
    vertex 31.38861083984375 52.94902420043945 4.978293895721436
    vertex 57.34944534301758 52.6866340637207 4.9878830909729
  endloop
endfacet
facet normal 0.01010664645582438 0.9999489188194275 5.258863779999956e-07
  outer loop
    vertex 31.38861083984375 52.94902420043945 4.978293895721436
    vertex 49.23426818847656 52.76865005493164 14.30576992034912
    vertex 57.34944534301758 52.6866340637207 4.9878830909729
  endloop
endfacet
facet normal 0.01010703854262829 0.9999489188194275 -5.022237132834562e-07
  outer loop
    vertex 20.77650260925293 53.05628967285156 14.39427947998047
    vertex 36.32613372802734 52.89912033081055 14.34591674804688
    vertex 31.38861083984375 52.94902420043945 4.978293895721436
  endloop
endfacet
facet normal 0.01010723877698183 0.9999489188194275 -6.078942647036456e-07
  outer loop
    vertex 31.38861083984375 52.94902420043945 4.978293895721436
    vertex 36.32613372802734 52.89912033081055 14.34591674804688
    vertex 49.23426818847656 52.76865005493164 14.30576992034912
  endloop
endfacet
facet normal -0.01010679826140404 -0.9999489188194275 -3.715240382007323e-08
  outer loop
    vertex 15.83547878265381 45.61623001098633 4.933733940124512
    vertex 31.31292152404785 45.45979690551758 4.978278636932373
    vertex 20.7008113861084 45.56705474853516 14.39424896240234
  endloop
endfacet
facet normal 0.01010704599320889 0.9999489188194275 -4.936073878525349e-07
  outer loop
    vertex 15.91116905212402 53.10546112060547 4.933719158172607
    vertex 20.77650260925293 53.05628967285156 14.39427947998047
    vertex 31.38861083984375 52.94902420043945 4.978293895721436
  endloop
endfacet
facet normal -0.01010669209063053 -0.9999489188194275 5.521180810319493e-07
  outer loop
    vertex 0.2062734812498093 45.77418518066406 74.09112548828125
    vertex 7.110767841339111 45.70439529418945 68.33539581298828
    vertex 6.989043712615967 45.70563125610352 74.93584442138672
  endloop
endfacet
facet normal 0.01010815985500813 0.9999489188194275 1.208798153129464e-06
  outer loop
    vertex 0.2819716036319733 53.26342010498047 74.09112548828125
    vertex 7.064741611480713 53.19485092163086 74.93584442138672
    vertex 7.186390399932861 53.19363021850586 68.33557891845703
  endloop
endfacet
facet normal 0.3314037621021271 -0.003349370323121548 0.9434831142425537
  outer loop
    vertex 42.00671005249023 52.81796646118164 64.43887329101563
    vertex 21.07675743103027 53.02948760986328 71.79138946533203
    vertex 41.93130111694336 45.35665893554688 64.43887329101563
  endloop
endfacet
facet normal 0.3314036428928375 -0.003349705133587122 0.9434831142425537
  outer loop
    vertex 21.07675743103027 53.02948760986328 71.79138946533203
    vertex 21.00134086608887 45.56818771362305 71.79138946533203
    vertex 41.93130111694336 45.35665893554688 64.43887329101563
  endloop
endfacet
facet normal 0.5532993078231812 -0.005593099631369114 0.8329637050628662
  outer loop
    vertex 42.00671005249023 52.81796646118164 64.43887329101563
    vertex 59.65766143798828 45.17751312255859 52.66285705566406
    vertex 59.73308563232422 52.6388053894043 52.66285705566406
  endloop
endfacet
facet normal 0.5532996654510498 -0.005591976456344128 0.8329635262489319
  outer loop
    vertex 42.00671005249023 52.81796646118164 64.43887329101563
    vertex 41.93130111694336 45.35665893554688 64.43887329101563
    vertex 59.65766143798828 45.17751312255859 52.66285705566406
  endloop
endfacet
facet normal 0.8393957614898682 -0.008483423851430416 0.5434544682502747
  outer loop
    vertex 59.73308563232422 52.6388053894043 52.66285705566406
    vertex 71.46977233886719 45.05812835693359 34.41656112670898
    vertex 71.54517364501953 52.51943206787109 34.41656112670898
  endloop
endfacet
facet normal 0.8393954038619995 -0.00848513375967741 0.5434550046920776
  outer loop
    vertex 59.65766143798828 45.17751312255859 52.66285705566406
    vertex 71.46977233886719 45.05812835693359 34.41656112670898
    vertex 59.73308563232422 52.6388053894043 52.66285705566406
  endloop
endfacet
facet normal 0.9680641293525696 -0.009783816523849964 0.2505116760730743
  outer loop
    vertex 71.54517364501953 52.51943206787109 34.41656112670898
    vertex 75.58806610107422 45.01650619506836 18.50041580200195
    vertex 75.66346740722656 52.47780990600586 18.50041580200195
  endloop
endfacet
facet normal 0.9680641293525696 -0.009783816523849964 0.2505116760730743
  outer loop
    vertex 71.46977233886719 45.05812835693359 34.41656112670898
    vertex 75.58806610107422 45.01650619506836 18.50041580200195
    vertex 71.54517364501953 52.51943206787109 34.41656112670898
  endloop
endfacet
facet normal 0.2189401537179947 -0.002212968887761235 0.9757357835769653
  outer loop
    vertex 7.064741611480713 53.19485092163086 74.93584442138672
    vertex 6.989043712615967 45.70563125610352 74.93584442138672
    vertex 21.07675743103027 53.02948760986328 71.79138946533203
  endloop
endfacet
facet normal 0.2189401537179947 -0.00221296981908381 0.9757357835769653
  outer loop
    vertex 21.07675743103027 53.02948760986328 71.79138946533203
    vertex 6.989043712615967 45.70563125610352 74.93584442138672
    vertex 21.00134086608887 45.56818771362305 71.79138946533203
  endloop
endfacet
facet normal 0.9967719316482544 -0.01007395144551992 0.07965102791786194
  outer loop
    vertex 75.58806610107422 45.01650619506836 18.50041580200195
    vertex 77.13470458984375 52.48664855957031 0.09014198929071426
    vertex 75.66346740722656 52.47780990600586 18.50041580200195
  endloop
endfacet
facet normal 0.9967719316482544 -0.01007412001490593 0.07965096086263657
  outer loop
    vertex 75.58806610107422 45.01650619506836 18.50041580200195
    vertex 77.05901336669922 44.99741744995117 0.09012662619352341
    vertex 77.13470458984375 52.48664855957031 0.09014198929071426
  endloop
endfacet
facet normal -0.009952281601727009 -0.9999504685401917 0.0002308406692463905
  outer loop
    vertex 37.29806137084961 45.39930725097656 49.43141937255859
    vertex 59.65766143798828 45.17751312255859 52.66285705566406
    vertex 41.93130111694336 45.35665893554688 64.43887329101563
  endloop
endfacet
facet normal -0.009952142834663391 -0.9999504685401917 0.0002298758481629193
  outer loop
    vertex 37.29806137084961 45.39930725097656 49.43141937255859
    vertex 47.4075813293457 45.29712677001953 42.62900924682617
    vertex 59.65766143798828 45.17751312255859 52.66285705566406
  endloop
endfacet
facet normal 0.01098077464848757 0.9999388456344604 0.001299012801609933
  outer loop
    vertex 37.37382125854492 52.8885383605957 49.43157196044922
    vertex 59.73308563232422 52.6388053894043 52.66285705566406
    vertex 47.48335647583008 52.78635787963867 42.62913131713867
  endloop
endfacet
facet normal 0.01097873132675886 0.9999388456344604 0.001313148532062769
  outer loop
    vertex 37.37382125854492 52.8885383605957 49.43157196044922
    vertex 42.00671005249023 52.81796646118164 64.43887329101563
    vertex 59.73308563232422 52.6388053894043 52.66285705566406
  endloop
endfacet
facet normal -0.01000738609582186 -0.9999498724937439 0.000247854448389262
  outer loop
    vertex 23.58161735534668 45.53793334960938 54.89229202270508
    vertex 37.29806137084961 45.39930725097656 49.43141937255859
    vertex 41.93130111694336 45.35665893554688 64.43887329101563
  endloop
endfacet
facet normal -0.01020088233053684 -0.9999479651451111 0.0002326843241462484
  outer loop
    vertex 16.08478164672852 45.61370468139648 51.85345840454102
    vertex 23.58161735534668 45.53793334960938 54.89229202270508
    vertex 21.00134086608887 45.56818771362305 71.79138946533203
  endloop
endfacet
facet normal -0.010014315135777 -0.9999498128890991 0.0002611741074360907
  outer loop
    vertex 21.00134086608887 45.56818771362305 71.79138946533203
    vertex 23.58161735534668 45.53793334960938 54.89229202270508
    vertex 41.93130111694336 45.35665893554688 64.43887329101563
  endloop
endfacet
facet normal 0.01066707447171211 0.9999421238899231 0.001409374992363155
  outer loop
    vertex 23.65731620788574 53.02716827392578 54.89229202270508
    vertex 42.00671005249023 52.81796646118164 64.43887329101563
    vertex 37.37382125854492 52.8885383605957 49.43157196044922
  endloop
endfacet
facet normal 0.009569451212882996 0.9999533295631409 0.001323941396549344
  outer loop
    vertex 16.16048049926758 53.10293579101563 51.85345840454102
    vertex 21.07675743103027 53.02948760986328 71.79138946533203
    vertex 23.65731620788574 53.02716827392578 54.89229202270508
  endloop
endfacet
facet normal 0.01062746997922659 0.999942421913147 0.001485506538301706
  outer loop
    vertex 21.07675743103027 53.02948760986328 71.79138946533203
    vertex 42.00671005249023 52.81796646118164 64.43887329101563
    vertex 23.65731620788574 53.02716827392578 54.89229202270508
  endloop
endfacet
facet normal -0.009826261550188065 -0.9999516606330872 0.0002517196116968989
  outer loop
    vertex 72.68180847167969 45.04166793823242 5.001255512237549
    vertex 77.05901336669922 44.99741744995117 0.09012662619352341
    vertex 75.58806610107422 45.01650619506836 18.50041580200195
  endloop
endfacet
facet normal -0.009897571057081223 -0.9999510049819946 0.0002670731628313661
  outer loop
    vertex 60.80970764160156 45.16165542602539 14.26953315734863
    vertex 72.68180847167969 45.04166793823242 5.001255512237549
    vertex 75.58806610107422 45.01650619506836 18.50041580200195
  endloop
endfacet
facet normal -0.009843087755143642 -0.9999515414237976 7.674565858906135e-05
  outer loop
    vertex 56.72280502319336 45.20297241210938 28.47103309631348
    vertex 60.80970764160156 45.16165542602539 14.26953315734863
    vertex 75.58806610107422 45.01650619506836 18.50041580200195
  endloop
endfacet
facet normal -0.009848419576883316 -0.9999514818191528 6.665667751803994e-05
  outer loop
    vertex 56.72280502319336 45.20297241210938 28.47103309631348
    vertex 75.58806610107422 45.01650619506836 18.50041580200195
    vertex 71.46977233886719 45.05812835693359 34.41656112670898
  endloop
endfacet
facet normal -0.009881363250315189 -0.999951183795929 0.0001483777159592137
  outer loop
    vertex 47.4075813293457 45.29712677001953 42.62900924682617
    vertex 56.72280502319336 45.20297241210938 28.47103309631348
    vertex 71.46977233886719 45.05812835693359 34.41656112670898
  endloop
endfacet
facet normal -0.009882549755275249 -0.999951183795929 0.0001449028932256624
  outer loop
    vertex 47.4075813293457 45.29712677001953 42.62900924682617
    vertex 71.46977233886719 45.05812835693359 34.41656112670898
    vertex 59.65766143798828 45.17751312255859 52.66285705566406
  endloop
endfacet
facet normal 0.01169658452272415 0.9999306201934814 0.001414681086316705
  outer loop
    vertex 72.75751495361328 52.53090286254883 5.001255989074707
    vertex 75.66346740722656 52.47780990600586 18.50041580200195
    vertex 77.13470458984375 52.48664855957031 0.09014198929071426
  endloop
endfacet
facet normal 0.0112802917137742 0.9999352693557739 0.001504314481280744
  outer loop
    vertex 60.88539886474609 52.65088653564453 14.26953315734863
    vertex 75.66346740722656 52.47780990600586 18.50041580200195
    vertex 72.75751495361328 52.53090286254883 5.001255989074707
  endloop
endfacet
facet normal 0.01158890500664711 0.9999327659606934 0.0004262558359187096
  outer loop
    vertex 56.79850387573242 52.69219970703125 28.47103309631348
    vertex 75.66346740722656 52.47780990600586 18.50041580200195
    vertex 60.88539886474609 52.65088653564453 14.26953315734863
  endloop
endfacet
facet normal 0.01156288012862206 0.9999330639839172 0.0003770071780309081
  outer loop
    vertex 56.79850387573242 52.69219970703125 28.47103309631348
    vertex 71.54517364501953 52.51943206787109 34.41656112670898
    vertex 75.66346740722656 52.47780990600586 18.50041580200195
  endloop
endfacet
facet normal 0.01137791387736797 0.9999349117279053 0.0008358309278264642
  outer loop
    vertex 47.48335647583008 52.78635787963867 42.62913131713867
    vertex 71.54517364501953 52.51943206787109 34.41656112670898
    vertex 56.79850387573242 52.69219970703125 28.47103309631348
  endloop
endfacet
facet normal 0.01137268077582121 0.99993497133255 0.0008204951300285757
  outer loop
    vertex 47.48335647583008 52.78635787963867 42.62913131713867
    vertex 59.73308563232422 52.6388053894043 52.66285705566406
    vertex 71.54517364501953 52.51943206787109 34.41656112670898
  endloop
endfacet
facet normal -0.003109863959252834 3.144422953482717e-05 -0.9999951720237732
  outer loop
    vertex 13.31239223480225 53.13173294067383 0.008687595836818218
    vertex 11.59192657470703 45.65913009643555 0.01380306389182806
    vertex 11.66762542724609 53.14835739135742 0.0138031467795372
  endloop
endfacet
facet normal -0.003109863959252834 3.144422953482717e-05 -0.9999951720237732
  outer loop
    vertex 13.31239223480225 53.13173294067383 0.008687595836818218
    vertex 13.2366943359375 45.64250946044922 0.008687513880431652
    vertex 11.59192657470703 45.65913009643555 0.01380306389182806
  endloop
endfacet
facet normal -0.002072450006380677 2.09584704862209e-05 -0.9999978542327881
  outer loop
    vertex 13.31239223480225 53.13173294067383 0.008687595836818218
    vertex 17.42816162109375 45.60013198852539 2.557953848736361e-13
    vertex 13.2366943359375 45.64250946044922 0.008687513880431652
  endloop
endfacet
facet normal -0.002072450006380677 2.09584704862209e-05 -0.9999978542327881
  outer loop
    vertex 13.31239223480225 53.13173294067383 0.008687595836818218
    vertex 17.50386047363281 53.0893669128418 8.22859931304265e-08
    vertex 17.42816162109375 45.60013198852539 2.557953848736361e-13
  endloop
endfacet
facet normal -0.01010970026254654 -0.9999489188194275 -4.164259905792278e-07
  outer loop
    vertex 13.2366943359375 45.64250946044922 0.008687513880431652
    vertex 17.42816162109375 45.60013198852539 2.557953848736361e-13
    vertex 15.83547878265381 45.61623001098633 4.933733940124512
  endloop
endfacet
facet normal 0.01010788045823574 0.9999489188194275 6.021471676831425e-07
  outer loop
    vertex 13.31239223480225 53.13173294067383 0.008687595836818218
    vertex 15.91116905212402 53.10546112060547 4.933719158172607
    vertex 17.50386047363281 53.0893669128418 8.22859931304265e-08
  endloop
endfacet
facet normal -0.01010751724243164 -0.9999489188194275 -1.082405788110918e-06
  outer loop
    vertex 6.583803653717041 45.70974731445313 6.850533485412598
    vertex 11.59192657470703 45.65913009643555 0.01380306389182806
    vertex 15.83547878265381 45.61623001098633 4.933733940124512
  endloop
endfacet
facet normal -0.01010606624186039 -0.9999489188194275 -2.333998963877093e-06
  outer loop
    vertex 11.59192657470703 45.65913009643555 0.01380306389182806
    vertex 13.2366943359375 45.64250946044922 0.008687513880431652
    vertex 15.83547878265381 45.61623001098633 4.933733940124512
  endloop
endfacet
facet normal 0.01010606437921524 0.9999489188194275 1.560722353133315e-06
  outer loop
    vertex 11.66762542724609 53.14835739135742 0.0138031467795372
    vertex 15.91116905212402 53.10546112060547 4.933719158172607
    vertex 13.31239223480225 53.13173294067383 0.008687595836818218
  endloop
endfacet
facet normal 0.01010703109204769 0.9999489188194275 7.263209909069701e-07
  outer loop
    vertex 6.659494400024414 53.19897079467773 6.850594520568848
    vertex 15.91116905212402 53.10546112060547 4.933719158172607
    vertex 11.66762542724609 53.14835739135742 0.0138031467795372
  endloop
endfacet
facet normal -0.01010686717927456 -0.9999489188194275 -1.882864308910825e-09
  outer loop
    vertex 6.625632286071777 45.70932006835938 20.30087661743164
    vertex 15.83547878265381 45.61623001098633 4.933733940124512
    vertex 20.7008113861084 45.56705474853516 14.39424896240234
  endloop
endfacet
facet normal -0.01010735426098108 -0.9999489188194275 -2.937411238690402e-07
  outer loop
    vertex 6.625632286071777 45.70932006835938 20.30087661743164
    vertex 6.583803653717041 45.70974731445313 6.850533485412598
    vertex 15.83547878265381 45.61623001098633 4.933733940124512
  endloop
endfacet
facet normal 0.01010700035840273 0.9999489188194275 5.78448180021951e-07
  outer loop
    vertex 6.701323509216309 53.19854354858398 20.30105972290039
    vertex 15.91116905212402 53.10546112060547 4.933719158172607
    vertex 6.659494400024414 53.19897079467773 6.850594520568848
  endloop
endfacet
facet normal 0.01010605879127979 0.9999489188194275 1.41547555898569e-08
  outer loop
    vertex 6.701323509216309 53.19854354858398 20.30105972290039
    vertex 20.77650260925293 53.05628967285156 14.39427947998047
    vertex 15.91116905212402 53.10546112060547 4.933719158172607
  endloop
endfacet
facet normal -0.01010637171566486 -0.9999489188194275 1.178819729830138e-06
  outer loop
    vertex 0.07754112035036087 45.77550506591797 24.98120880126953
    vertex 6.625632286071777 45.70932006835938 20.30087661743164
    vertex 20.7008113861084 45.56705474853516 14.39424896240234
  endloop
endfacet
facet normal 0.01010274514555931 0.9999489784240723 -7.883159923949279e-06
  outer loop
    vertex 0.1532314866781235 53.26473617553711 24.98117828369141
    vertex 20.77650260925293 53.05628967285156 14.39427947998047
    vertex 6.701323509216309 53.19854354858398 20.30105972290039
  endloop
endfacet
facet normal -0.01010735426098108 -0.9999489188194275 -7.348226063186303e-07
  outer loop
    vertex 0.07754112035036087 45.77550506591797 24.98120880126953
    vertex 20.7008113861084 45.56705474853516 14.39424896240234
    vertex 0.4091131389141083 45.77213668823242 50.85188293457031
  endloop
endfacet
facet normal -0.01010629441589117 -0.9999489188194275 -1.44948742786255e-07
  outer loop
    vertex 0.4091131389141083 45.77213668823242 50.85188293457031
    vertex 20.7008113861084 45.56705474853516 14.39424896240234
    vertex 16.08478164672852 45.61370468139648 51.85345840454102
  endloop
endfacet
facet normal 0.01010701153427362 0.9999489188194275 3.352494388764171e-07
  outer loop
    vertex 0.4847655892372131 53.26137542724609 50.85188293457031
    vertex 16.16048049926758 53.10293579101563 51.85345840454102
    vertex 20.77650260925293 53.05628967285156 14.39427947998047
  endloop
endfacet
facet normal 0.01010694447904825 0.9999489188194275 2.977124893277505e-07
  outer loop
    vertex 0.1532314866781235 53.26473617553711 24.98117828369141
    vertex 0.4847655892372131 53.26137542724609 50.85188293457031
    vertex 20.77650260925293 53.05628967285156 14.39427947998047
  endloop
endfacet
facet normal -0.01010626181960106 -0.9999489188194275 -6.489684665211826e-07
  outer loop
    vertex 0.4091131389141083 45.77213668823242 50.85188293457031
    vertex 16.08478164672852 45.61370468139648 51.85345840454102
    vertex 6.562951564788818 45.70993804931641 54.89520263671875
  endloop
endfacet
facet normal 0.01010686997324228 0.9999489188194275 2.55338272836525e-06
  outer loop
    vertex 0.4847655892372131 53.26137542724609 50.85188293457031
    vertex 6.638550758361816 53.19916915893555 54.895263671875
    vertex 16.16048049926758 53.10293579101563 51.85345840454102
  endloop
endfacet
facet normal -0.009806890971958637 -0.9999518990516663 6.081568244553637e-06
  outer loop
    vertex 6.989043712615967 45.70563125610352 74.93584442138672
    vertex 7.110767841339111 45.70439529418945 68.33539581298828
    vertex 21.00134086608887 45.56818771362305 71.79138946533203
  endloop
endfacet
facet normal -0.01010614819824696 -0.9999489188194275 -2.94334171258015e-07
  outer loop
    vertex 6.562951564788818 45.70993804931641 54.89520263671875
    vertex 16.08478164672852 45.61370468139648 51.85345840454102
    vertex 7.110767841339111 45.70439529418945 68.33539581298828
  endloop
endfacet
facet normal -0.009841196238994598 -0.9999515414237976 0.0001439800689695403
  outer loop
    vertex 7.110767841339111 45.70439529418945 68.33539581298828
    vertex 16.08478164672852 45.61370468139648 51.85345840454102
    vertex 21.00134086608887 45.56818771362305 71.79138946533203
  endloop
endfacet
facet normal 0.0118081346154213 0.9999302625656128 3.254433613619767e-05
  outer loop
    vertex 7.064741611480713 53.19485092163086 74.93584442138672
    vertex 21.07675743103027 53.02948760986328 71.79138946533203
    vertex 7.186390399932861 53.19363021850586 68.33557891845703
  endloop
endfacet
facet normal 0.01010605879127979 0.9999489188194275 1.41547555898569e-08
  outer loop
    vertex 6.638550758361816 53.19916915893555 54.895263671875
    vertex 7.186390399932861 53.19363021850586 68.33557891845703
    vertex 16.16048049926758 53.10293579101563 51.85345840454102
  endloop
endfacet
facet normal 0.01161220483481884 0.9999322295188904 0.0008201634627766907
  outer loop
    vertex 7.186390399932861 53.19363021850586 68.33557891845703
    vertex 21.07675743103027 53.02948760986328 71.79138946533203
    vertex 16.16048049926758 53.10293579101563 51.85345840454102
  endloop
endfacet
facet normal -0.5582109093666077 0.005663646385073662 -0.8296797871589661
  outer loop
    vertex 37.37382125854492 52.8885383605957 49.43157196044922
    vertex 47.4075813293457 45.29712677001953 42.62900924682617
    vertex 37.29806137084961 45.39930725097656 49.43141937255859
  endloop
endfacet
facet normal -0.5582121014595032 0.005661402363330126 -0.829679012298584
  outer loop
    vertex 37.37382125854492 52.8885383605957 49.43157196044922
    vertex 47.48335647583008 52.78635787963867 42.62913131713867
    vertex 47.4075813293457 45.29712677001953 42.62900924682617
  endloop
endfacet
endsolid 2D0E
