solid D196
facet normal -1 -8.705414984433446e-07 1.356075586045336e-06
  outer loop
    vertex 61.96232604980469 47.27938079833984 23.33263969421387
    vertex 61.96234130859375 47.27938079833984 34.58480834960938
    vertex 61.96232604980469 64.80731201171875 34.58480834960938
  endloop
endfacet
facet normal -1 0 -0
  outer loop
    vertex 61.96232604980469 47.27938079833984 23.33263969421387
    vertex 61.96232604980469 64.80731201171875 34.58480834960938
    vertex 61.96232604980469 64.80731201171875 23.33263969421387
  endloop
endfacet
facet normal 1 0 0
  outer loop
    vertex 54.45127868652344 64.80731201171875 23.33263969421387
    vertex 54.45127868652344 47.27938079833984 34.58480834960938
    vertex 54.45127868652344 47.27938079833984 23.33263969421387
  endloop
endfacet
facet normal 1 0 0
  outer loop
    vertex 54.45127868652344 64.80731201171875 23.33263969421387
    vertex 54.45127868652344 64.80731201171875 34.58480834960938
    vertex 54.45127868652344 47.27938079833984 34.58480834960938
  endloop
endfacet
facet normal 0 -7.216449660063518e-16 -1
  outer loop
    vertex 61.96232604980469 64.80731201171875 34.58480834960938
    vertex 61.96234130859375 47.27938079833984 34.58480834960938
    vertex 54.45127868652344 64.80731201171875 34.58480834960938
  endloop
endfacet
facet normal 0 -7.216449660063518e-16 -1
  outer loop
    vertex 54.45127868652344 64.80731201171875 34.58480834960938
    vertex 61.96234130859375 47.27938079833984 34.58480834960938
    vertex 54.45127868652344 47.27938079833984 34.58480834960938
  endloop
endfacet
facet normal 0 -7.216449660063518e-16 -1
  outer loop
    vertex 14.97026824951172 64.80731201171875 34.58480834960938
    vertex 14.97026824951172 47.27938079833984 34.58480834960938
    vertex 7.459213256835938 64.80731201171875 34.58480834960938
  endloop
endfacet
facet normal 0 -7.216449660063518e-16 -1
  outer loop
    vertex 7.459213256835938 64.80731201171875 34.58480834960938
    vertex 14.97026824951172 47.27938079833984 34.58480834960938
    vertex 7.459213256835938 47.27938079833984 34.58480834960938
  endloop
endfacet
facet normal 1 0 0
  outer loop
    vertex 7.459213256835938 64.80731201171875 23.33263969421387
    vertex 7.459213256835938 47.27938079833984 34.58480834960938
    vertex 7.459213256835938 47.27938079833984 23.33263969421387
  endloop
endfacet
facet normal 1 0 0
  outer loop
    vertex 7.459213256835938 64.80731201171875 23.33263969421387
    vertex 7.459213256835938 64.80731201171875 34.58480834960938
    vertex 7.459213256835938 47.27938079833984 34.58480834960938
  endloop
endfacet
facet normal -1 5.424097017555201e-22 6.780377930226678e-07
  outer loop
    vertex 14.97026062011719 47.27938079833984 23.33263969421387
    vertex 14.97026824951172 47.27938079833984 34.58480834960938
    vertex 14.97026824951172 64.80731201171875 34.58480834960938
  endloop
endfacet
facet normal -1 4.352707492216723e-07 7.378250571274392e-14
  outer loop
    vertex 14.97026062011719 47.27938079833984 23.33263969421387
    vertex 14.97026824951172 64.80731201171875 34.58480834960938
    vertex 14.97026824951172 64.80731201171875 23.33263969421387
  endloop
endfacet
facet normal 0 1 -7.216449660063518e-16
  outer loop
    vertex 14.97026824951172 64.80731201171875 17.51025199890137
    vertex 7.459213256835938 64.80731201171875 23.33263969421387
    vertex 14.97026824951172 64.80731201171875 23.33263969421387
  endloop
endfacet
facet normal 0 1 -7.216449660063518e-16
  outer loop
    vertex 14.97026824951172 64.80731201171875 17.51025199890137
    vertex 7.459213256835938 64.80731201171875 17.51025199890137
    vertex 7.459213256835938 64.80731201171875 23.33263969421387
  endloop
endfacet
facet normal 0 -1 -8.189718414541858e-08
  outer loop
    vertex 14.97026062011719 47.27938079833984 23.33263969421387
    vertex 7.459213256835938 47.27938079833984 23.33263969421387
    vertex 7.459213256835938 47.27938079833984 17.51025199890137
  endloop
endfacet
facet normal 0 -1 -8.189718414541858e-08
  outer loop
    vertex 14.97026062011719 47.27938079833984 23.33263969421387
    vertex 7.459213256835938 47.27938079833984 17.51025199890137
    vertex 14.97026062011719 47.27938079833984 17.51025199890137
  endloop
endfacet
facet normal 8.438655729010857e-24 -1 -8.189718414541858e-08
  outer loop
    vertex 61.96232604980469 47.27938079833984 23.33263969421387
    vertex 54.45127868652344 47.27938079833984 23.33263969421387
    vertex 54.45127868652344 47.27938079833984 17.51025199890137
  endloop
endfacet
facet normal 0 -1 -8.189718414541858e-08
  outer loop
    vertex 61.96232604980469 47.27938079833984 23.33263969421387
    vertex 54.45127868652344 47.27938079833984 17.51025199890137
    vertex 61.96232604980469 47.27938079833984 17.51025199890137
  endloop
endfacet
facet normal 0 1 -7.216449660063518e-16
  outer loop
    vertex 61.96232604980469 64.80731201171875 17.51025199890137
    vertex 54.45127868652344 64.80731201171875 23.33263969421387
    vertex 61.96232604980469 64.80731201171875 23.33263969421387
  endloop
endfacet
facet normal 0 1 -7.216449660063518e-16
  outer loop
    vertex 61.96232604980469 64.80731201171875 17.51025199890137
    vertex 54.45127868652344 64.80731201171875 17.51025199890137
    vertex 54.45127868652344 64.80731201171875 23.33263969421387
  endloop
endfacet
facet normal 0 -7.216449660063518e-16 -1
  outer loop
    vertex 61.96232604980469 64.80731201171875 17.51025199890137
    vertex 61.96232604980469 47.27938079833984 17.51025199890137
    vertex 54.45127868652344 47.27938079833984 17.51025199890137
  endloop
endfacet
facet normal 0 -7.216449660063518e-16 -1
  outer loop
    vertex 61.96232604980469 64.80731201171875 17.51025199890137
    vertex 54.45127868652344 47.27938079833984 17.51025199890137
    vertex 54.45127868652344 64.80731201171875 17.51025199890137
  endloop
endfacet
facet normal 0 -7.216449660063518e-16 -1
  outer loop
    vertex 14.97026824951172 64.80731201171875 17.51025199890137
    vertex 14.97026062011719 47.27938079833984 17.51025199890137
    vertex 7.459213256835938 47.27938079833984 17.51025199890137
  endloop
endfacet
facet normal 0 -7.216449660063518e-16 -1
  outer loop
    vertex 14.97026824951172 64.80731201171875 17.51025199890137
    vertex 7.459213256835938 47.27938079833984 17.51025199890137
    vertex 7.459213256835938 64.80731201171875 17.51025199890137
  endloop
endfacet
facet normal 0 -7.216449660063518e-16 -1
  outer loop
    vertex 14.97026824951172 64.80731201171875 17.51025199890137
    vertex 54.45127868652344 47.27938079833984 17.51025199890137
    vertex 14.97026062011719 47.27938079833984 17.51025199890137
  endloop
endfacet
facet normal 0 -7.216449660063518e-16 -1
  outer loop
    vertex 54.45127868652344 64.80731201171875 17.51025199890137
    vertex 54.45127868652344 47.27938079833984 17.51025199890137
    vertex 14.97026824951172 64.80731201171875 17.51025199890137
  endloop
endfacet
facet normal 0 -7.216449660063518e-16 -1
  outer loop
    vertex 69.42153930664063 64.80731201171875 17.51025199890137
    vertex 61.96232604980469 47.27938079833984 17.51025199890137
    vertex 61.96232604980469 64.80731201171875 17.51025199890137
  endloop
endfacet
facet normal 0 -7.216449660063518e-16 -1
  outer loop
    vertex 69.42153930664063 64.80731201171875 17.51025199890137
    vertex 69.42153930664063 47.27938079833984 17.51025199890137
    vertex 61.96232604980469 47.27938079833984 17.51025199890137
  endloop
endfacet
facet normal 0 -7.216449660063518e-16 -1
  outer loop
    vertex 7.459213256835938 64.80731201171875 17.51025199890137
    vertex 7.459213256835938 47.27938079833984 17.51025199890137
    vertex 7.105427357601002e-15 47.27938079833984 17.51025199890137
  endloop
endfacet
facet normal 0 -7.216449660063518e-16 -1
  outer loop
    vertex 7.459213256835938 64.80731201171875 17.51025199890137
    vertex 7.105427357601002e-15 47.27938079833984 17.51025199890137
    vertex 7.105427357601002e-15 64.80731201171875 17.51025199890137
  endloop
endfacet
facet normal -0.9904890656471252 8.051629175314382e-17 0.1375914216041565
  outer loop
    vertex 7.105427357601002e-15 47.27938079833984 17.51025199890137
    vertex 3.788734436035156 47.27938079833984 44.78448486328125
    vertex 7.105427357601002e-15 64.80731201171875 17.51025199890137
  endloop
endfacet
facet normal -0.9904890656471252 9.929215345757467e-17 0.1375914216041565
  outer loop
    vertex 7.105427357601002e-15 64.80731201171875 17.51025199890137
    vertex 3.788734436035156 47.27938079833984 44.78448486328125
    vertex 3.788734436035156 64.80731201171875 44.78448486328125
  endloop
endfacet
facet normal 0.99048912525177 1.180678166386585e-16 0.1375911384820938
  outer loop
    vertex 69.42153930664063 64.80731201171875 17.51025199890137
    vertex 65.6328125 64.80731201171875 44.78448486328125
    vertex 69.42153930664063 47.27938079833984 17.51025199890137
  endloop
endfacet
facet normal 0.99048912525177 1.180678166386585e-16 0.1375911384820938
  outer loop
    vertex 69.42153930664063 47.27938079833984 17.51025199890137
    vertex 65.6328125 64.80731201171875 44.78448486328125
    vertex 65.6328125 47.27938079833984 44.78448486328125
  endloop
endfacet
facet normal 0 7.216449660063518e-16 1
  outer loop
    vertex 52.38688659667969 64.80731201171875 48.99603271484375
    vertex 49.62529754638672 60.69027709960938 48.99603271484375
    vertex 50.43910980224609 55.71228408813477 48.99603271484375
  endloop
endfacet
facet normal 0 7.216449660063518e-16 1
  outer loop
    vertex 49.58896636962891 64.80731201171875 48.99603271484375
    vertex 49.62529754638672 60.69027709960938 48.99603271484375
    vertex 52.38688659667969 64.80731201171875 48.99603271484375
  endloop
endfacet
facet normal 0 7.216449660063518e-16 1
  outer loop
    vertex 49.85448455810547 49.26194763183594 48.99603271484375
    vertex 49.85448455810547 47.31804656982422 48.99603271484375
    vertex 52.38687896728516 47.27938079833984 48.99603271484375
  endloop
endfacet
facet normal 0 7.216449660063518e-16 1
  outer loop
    vertex 52.38688659667969 64.80731201171875 48.99603271484375
    vertex 50.43910980224609 55.71228408813477 48.99603271484375
    vertex 52.38687896728516 47.27938079833984 48.99603271484375
  endloop
endfacet
facet normal 0 7.216449660063518e-16 1
  outer loop
    vertex 50.43910980224609 55.71228408813477 48.99603271484375
    vertex 49.85448455810547 49.26194763183594 48.99603271484375
    vertex 52.38687896728516 47.27938079833984 48.99603271484375
  endloop
endfacet
facet normal 0 7.216449660063518e-16 1
  outer loop
    vertex 17.03466033935547 64.80731201171875 48.99603271484375
    vertex 18.98242950439453 55.71228408813477 48.99603271484375
    vertex 19.79624176025391 60.69027709960938 48.99603271484375
  endloop
endfacet
facet normal 0 7.216449660063518e-16 1
  outer loop
    vertex 17.03466033935547 64.80731201171875 48.99603271484375
    vertex 19.79624176025391 60.69027709960938 48.99603271484375
    vertex 19.83257293701172 64.80731201171875 48.99603271484375
  endloop
endfacet
facet normal 0 7.216449660063518e-16 1
  outer loop
    vertex 19.56705474853516 49.26194763183594 48.99603271484375
    vertex 17.03466033935547 47.27938079833984 48.99603271484375
    vertex 19.56705474853516 47.31804656982422 48.99603271484375
  endloop
endfacet
facet normal 0 7.216449660063518e-16 1
  outer loop
    vertex 18.98242950439453 55.71228408813477 48.99603271484375
    vertex 17.03466033935547 47.27938079833984 48.99603271484375
    vertex 19.56705474853516 49.26194763183594 48.99603271484375
  endloop
endfacet
facet normal 0 7.216449660063518e-16 1
  outer loop
    vertex 17.03466033935547 64.80731201171875 48.99603271484375
    vertex 17.03466033935547 47.27938079833984 48.99603271484375
    vertex 18.98242950439453 55.71228408813477 48.99603271484375
  endloop
endfacet
facet normal 0.9931637644767761 0.09001524746417999 0.07431679964065552
  outer loop
    vertex 19.56705474853516 64.8128662109375 30.16018486022949
    vertex 18.98242950439453 55.71228408813477 48.99603271484375
    vertex 19.56705474853516 49.26194763183594 48.99603271484375
  endloop
endfacet
facet normal 0.9857957363128662 -0.1611599177122116 -0.04726775735616684
  outer loop
    vertex 19.56705474853516 64.8128662109375 30.16018486022949
    vertex 19.79624176025391 60.69027709960938 48.99603271484375
    vertex 18.98242950439453 55.71228408813477 48.99603271484375
  endloop
endfacet
facet normal 0.9998617172241211 -0.00882338359951973 -0.01409708522260189
  outer loop
    vertex 19.56705474853516 64.8128662109375 30.16018486022949
    vertex 19.83257293701172 64.80731201171875 48.99603271484375
    vertex 19.79624176025391 60.69027709960938 48.99603271484375
  endloop
endfacet
facet normal -0.9931637644767761 0.09001524746417999 0.07431679964065552
  outer loop
    vertex 49.85448455810547 64.8128662109375 30.16018486022949
    vertex 49.85448455810547 49.26194763183594 48.99603271484375
    vertex 50.43910980224609 55.71228408813477 48.99603271484375
  endloop
endfacet
facet normal -0.9857957363128662 -0.1611599177122116 -0.04726775735616684
  outer loop
    vertex 49.85448455810547 64.8128662109375 30.16018486022949
    vertex 50.43910980224609 55.71228408813477 48.99603271484375
    vertex 49.62529754638672 60.69027709960938 48.99603271484375
  endloop
endfacet
facet normal -0.9998617172241211 -0.00882338359951973 -0.01409708522260189
  outer loop
    vertex 49.85448455810547 64.8128662109375 30.16018486022949
    vertex 49.62529754638672 60.69027709960938 48.99603271484375
    vertex 49.58896636962891 64.80731201171875 48.99603271484375
  endloop
endfacet
facet normal 8.556343520878064e-24 -1 -8.189718414541858e-08
  outer loop
    vertex 69.42153930664063 47.27938079833984 17.51025199890137
    vertex 61.96232604980469 47.27938079833984 23.33263969421387
    vertex 61.96232604980469 47.27938079833984 17.51025199890137
  endloop
endfacet
facet normal 0 1 -7.216449660063518e-16
  outer loop
    vertex 69.42153930664063 64.80731201171875 17.51025199890137
    vertex 61.96232604980469 64.80731201171875 17.51025199890137
    vertex 61.96232604980469 64.80731201171875 23.33263969421387
  endloop
endfacet
facet normal -8.556343520878064e-24 -1 -8.189718414541858e-08
  outer loop
    vertex 7.459213256835938 47.27938079833984 23.33263969421387
    vertex 7.105427357601002e-15 47.27938079833984 17.51025199890137
    vertex 7.459213256835938 47.27938079833984 17.51025199890137
  endloop
endfacet
facet normal 0 1 -7.216449660063518e-16
  outer loop
    vertex 7.459213256835938 64.80731201171875 17.51025199890137
    vertex 7.105427357601002e-15 64.80731201171875 17.51025199890137
    vertex 7.459213256835938 64.80731201171875 23.33263969421387
  endloop
endfacet
facet normal -1.221680287707967e-24 -1 -8.189718414541858e-08
  outer loop
    vertex 54.45127868652344 47.27938079833984 23.33263969421387
    vertex 14.97026062011719 47.27938079833984 23.33263969421387
    vertex 14.97026062011719 47.27938079833984 17.51025199890137
  endloop
endfacet
facet normal 0 -1 -8.189718414541858e-08
  outer loop
    vertex 54.45127868652344 47.27938079833984 23.33263969421387
    vertex 14.97026062011719 47.27938079833984 17.51025199890137
    vertex 54.45127868652344 47.27938079833984 17.51025199890137
  endloop
endfacet
facet normal 1.291772290460147e-19 -0.9999947547912598 0.003235619748011231
  outer loop
    vertex 54.45127868652344 47.27938079833984 23.33263969421387
    vertex 49.85448455810547 47.31805038452148 35.28302001953125
    vertex 19.56705474853516 47.31805038452148 35.28302001953125
  endloop
endfacet
facet normal 0 -0.9999947547912598 0.003235619748011231
  outer loop
    vertex 54.45127868652344 47.27938079833984 23.33263969421387
    vertex 19.56705474853516 47.31805038452148 35.28302001953125
    vertex 14.97026062011719 47.27938079833984 23.33263969421387
  endloop
endfacet
facet normal -0.00841167289763689 -0.9999645948410034 -8.475172563748856e-08
  outer loop
    vertex 54.45127868652344 47.27938079833984 34.58480834960938
    vertex 49.85448455810547 47.31805038452148 35.28302001953125
    vertex 54.45127868652344 47.27938079833984 23.33263969421387
  endloop
endfacet
facet normal 0.008411687798798084 -0.9999645948410034 -9.045516691230659e-08
  outer loop
    vertex 19.56705474853516 47.31805038452148 35.28302001953125
    vertex 14.97026824951172 47.27938079833984 34.58480834960938
    vertex 14.97026062011719 47.27938079833984 23.33263969421387
  endloop
endfacet
facet normal 0 1 -7.216449660063518e-16
  outer loop
    vertex 54.45127868652344 64.80731201171875 17.51025199890137
    vertex 14.97026824951172 64.80731201171875 17.51025199890137
    vertex 54.45127868652344 64.80731201171875 23.33263969421387
  endloop
endfacet
facet normal 0 1 -7.216449660063518e-16
  outer loop
    vertex 54.45127868652344 64.80731201171875 23.33263969421387
    vertex 14.97026824951172 64.80731201171875 17.51025199890137
    vertex 14.97026824951172 64.80731201171875 23.33263969421387
  endloop
endfacet
facet normal -1.45562865955949e-20 0.9999996423721313 -0.0008140571881085634
  outer loop
    vertex 54.45127868652344 64.80731201171875 23.33263969421387
    vertex 14.97026824951172 64.80731201171875 23.33263969421387
    vertex 19.56705474853516 64.8128662109375 30.16018486022949
  endloop
endfacet
facet normal -2.473445161178867e-20 0.9999996423721313 -0.0008140571881085634
  outer loop
    vertex 54.45127868652344 64.80731201171875 23.33263969421387
    vertex 19.56705474853516 64.8128662109375 30.16018486022949
    vertex 49.85448455810547 64.8128662109375 30.16018486022949
  endloop
endfacet
facet normal -0.001209359499625862 0.9999992847442627 1.695093345688292e-07
  outer loop
    vertex 19.56705474853516 64.8128662109375 30.16018486022949
    vertex 14.97026824951172 64.80731201171875 23.33263969421387
    vertex 14.97026824951172 64.80731201171875 34.58480834960938
  endloop
endfacet
facet normal -2.230490014909492e-09 -1 -8.475472412783347e-08
  outer loop
    vertex 69.42153930664063 47.27938079833984 17.51025199890137
    vertex 61.96234130859375 47.27938079833984 34.58480834960938
    vertex 61.96232604980469 47.27938079833984 23.33263969421387
  endloop
endfacet
facet normal -1.220016088154807e-08 -1 -8.911008109180329e-08
  outer loop
    vertex 69.42153930664063 47.27938079833984 17.51025199890137
    vertex 65.6328125 47.27938079833984 44.78448486328125
    vertex 61.96234130859375 47.27938079833984 34.58480834960938
  endloop
endfacet
facet normal -1.402079305989901e-07 1 5.045565032446575e-08
  outer loop
    vertex 69.42153930664063 64.80731201171875 17.51025199890137
    vertex 61.96232604980469 64.80731201171875 34.58480834960938
    vertex 65.6328125 64.80731201171875 44.78448486328125
  endloop
endfacet
facet normal 1.323128486774294e-07 1 1.695094482556669e-07
  outer loop
    vertex 69.42153930664063 64.80731201171875 17.51025199890137
    vertex 61.96232604980469 64.80731201171875 23.33263969421387
    vertex 61.96232604980469 64.80731201171875 34.58480834960938
  endloop
endfacet
facet normal 1.220013601255232e-08 -1 -8.911008109180329e-08
  outer loop
    vertex 7.459213256835938 47.27938079833984 34.58480834960938
    vertex 3.788734436035156 47.27938079833984 44.78448486328125
    vertex 7.105427357601002e-15 47.27938079833984 17.51025199890137
  endloop
endfacet
facet normal 2.230492457400146e-09 -1 -8.475472412783347e-08
  outer loop
    vertex 7.459213256835938 47.27938079833984 34.58480834960938
    vertex 7.105427357601002e-15 47.27938079833984 17.51025199890137
    vertex 7.459213256835938 47.27938079833984 23.33263969421387
  endloop
endfacet
facet normal -1.323128486774294e-07 1 1.695094482556669e-07
  outer loop
    vertex 7.459213256835938 64.80731201171875 23.33263969421387
    vertex 7.105427357601002e-15 64.80731201171875 17.51025199890137
    vertex 7.459213256835938 64.80731201171875 34.58480834960938
  endloop
endfacet
facet normal 1.402080584966825e-07 1 5.045559348104689e-08
  outer loop
    vertex 7.459213256835938 64.80731201171875 34.58480834960938
    vertex 7.105427357601002e-15 64.80731201171875 17.51025199890137
    vertex 3.788734436035156 64.80731201171875 44.78448486328125
  endloop
endfacet
facet normal -0.01526762545108795 -0.9998834133148193 -8.692137498655939e-08
  outer loop
    vertex 52.38687896728516 47.27938079833984 48.99603271484375
    vertex 49.85448455810547 47.31804656982422 48.99603271484375
    vertex 49.85448455810547 47.31805038452148 35.28302001953125
  endloop
endfacet
facet normal -0.008598747663199902 -0.9999622702598572 -0.001231856760568917
  outer loop
    vertex 54.45127868652344 47.27938079833984 34.58480834960938
    vertex 52.38687896728516 47.27938079833984 48.99603271484375
    vertex 49.85448455810547 47.31805038452148 35.28302001953125
  endloop
endfacet
facet normal -2.023956779950709e-09 -1 -9.128165601168803e-08
  outer loop
    vertex 65.6328125 47.27938079833984 44.78448486328125
    vertex 52.38687896728516 47.27938079833984 48.99603271484375
    vertex 54.45127868652344 47.27938079833984 34.58480834960938
  endloop
endfacet
facet normal -2.199839135088117e-23 -1 -9.350044649636402e-08
  outer loop
    vertex 65.6328125 47.27938079833984 44.78448486328125
    vertex 54.45127868652344 47.27938079833984 34.58480834960938
    vertex 61.96234130859375 47.27938079833984 34.58480834960938
  endloop
endfacet
facet normal 0.01526762545108795 -0.9998834133148193 -8.692137498655939e-08
  outer loop
    vertex 19.56705474853516 47.31804656982422 48.99603271484375
    vertex 17.03466033935547 47.27938079833984 48.99603271484375
    vertex 19.56705474853516 47.31805038452148 35.28302001953125
  endloop
endfacet
facet normal 2.199843552709186e-23 -1 -9.350044649636402e-08
  outer loop
    vertex 14.97026824951172 47.27938079833984 34.58480834960938
    vertex 3.788734436035156 47.27938079833984 44.78448486328125
    vertex 7.459213256835938 47.27938079833984 34.58480834960938
  endloop
endfacet
facet normal 2.023957668129128e-09 -1 -9.128165601168803e-08
  outer loop
    vertex 17.03466033935547 47.27938079833984 48.99603271484375
    vertex 3.788734436035156 47.27938079833984 44.78448486328125
    vertex 14.97026824951172 47.27938079833984 34.58480834960938
  endloop
endfacet
facet normal 0.008598761633038521 -0.9999622702598572 -0.001231854199431837
  outer loop
    vertex 19.56705474853516 47.31805038452148 35.28302001953125
    vertex 17.03466033935547 47.27938079833984 48.99603271484375
    vertex 14.97026824951172 47.27938079833984 34.58480834960938
  endloop
endfacet
facet normal 0 0.9999999403953552 0.0002951776550617069
  outer loop
    vertex 52.38688659667969 64.80731201171875 48.99603271484375
    vertex 49.85448455810547 64.8128662109375 30.16018486022949
    vertex 49.58896636962891 64.80731201171875 48.99603271484375
  endloop
endfacet
facet normal 0.001062956638634205 0.9999994039535522 0.00015226737014018
  outer loop
    vertex 54.45127868652344 64.80731201171875 34.58480834960938
    vertex 49.85448455810547 64.8128662109375 30.16018486022949
    vertex 52.38688659667969 64.80731201171875 48.99603271484375
  endloop
endfacet
facet normal 0 1 -7.216449660063518e-16
  outer loop
    vertex 65.6328125 64.80731201171875 44.78448486328125
    vertex 54.45127868652344 64.80731201171875 34.58480834960938
    vertex 52.38688659667969 64.80731201171875 48.99603271484375
  endloop
endfacet
facet normal 0 1 -7.216449660063518e-16
  outer loop
    vertex 65.6328125 64.80731201171875 44.78448486328125
    vertex 61.96232604980469 64.80731201171875 34.58480834960938
    vertex 54.45127868652344 64.80731201171875 34.58480834960938
  endloop
endfacet
facet normal 0 0.9999999403953552 0.0002951776550617069
  outer loop
    vertex 19.83257293701172 64.80731201171875 48.99603271484375
    vertex 19.56705474853516 64.8128662109375 30.16018486022949
    vertex 17.03466033935547 64.80731201171875 48.99603271484375
  endloop
endfacet
facet normal 0 1 -7.216449660063518e-16
  outer loop
    vertex 14.97026824951172 64.80731201171875 34.58480834960938
    vertex 7.459213256835938 64.80731201171875 34.58480834960938
    vertex 3.788734436035156 64.80731201171875 44.78448486328125
  endloop
endfacet
facet normal 0 1 -7.216449660063518e-16
  outer loop
    vertex 17.03466033935547 64.80731201171875 48.99603271484375
    vertex 14.97026824951172 64.80731201171875 34.58480834960938
    vertex 3.788734436035156 64.80731201171875 44.78448486328125
  endloop
endfacet
facet normal -0.001062958152033389 0.9999994039535522 0.0001522675884189084
  outer loop
    vertex 19.56705474853516 64.8128662109375 30.16018486022949
    vertex 14.97026824951172 64.80731201171875 34.58480834960938
    vertex 17.03466033935547 64.80731201171875 48.99603271484375
  endloop
endfacet
facet normal 0 7.216449660063518e-16 1
  outer loop
    vertex 19.56705474853516 49.26194763183594 48.99603271484375
    vertex 49.85448455810547 47.31804656982422 48.99603271484375
    vertex 49.85448455810547 49.26194763183594 48.99603271484375
  endloop
endfacet
facet normal 0 7.216449660063518e-16 1
  outer loop
    vertex 19.56705474853516 49.26194763183594 48.99603271484375
    vertex 19.56705474853516 47.31804656982422 48.99603271484375
    vertex 49.85448455810547 47.31804656982422 48.99603271484375
  endloop
endfacet
facet normal -4.10598559437032e-17 0.771145224571228 0.6366593241691589
  outer loop
    vertex 49.85448455810547 64.8128662109375 30.16018486022949
    vertex 19.56705474853516 64.8128662109375 30.16018486022949
    vertex 49.85448455810547 49.26194763183594 48.99603271484375
  endloop
endfacet
facet normal -4.10598559437032e-17 0.771145224571228 0.6366593241691589
  outer loop
    vertex 49.85448455810547 49.26194763183594 48.99603271484375
    vertex 19.56705474853516 64.8128662109375 30.16018486022949
    vertex 19.56705474853516 49.26194763183594 48.99603271484375
  endloop
endfacet
facet normal -5.987780464611788e-24 -1 -8.693150732597132e-08
  outer loop
    vertex 49.85448455810547 47.31804656982422 48.99603271484375
    vertex 19.56705474853516 47.31804656982422 48.99603271484375
    vertex 19.56705474853516 47.31805038452148 35.28302001953125
  endloop
endfacet
facet normal 2.993890232305894e-24 -1 -8.693150732597132e-08
  outer loop
    vertex 49.85448455810547 47.31804656982422 48.99603271484375
    vertex 19.56705474853516 47.31805038452148 35.28302001953125
    vertex 49.85448455810547 47.31805038452148 35.28302001953125
  endloop
endfacet
facet normal 0.001209357404150069 0.9999992847442627 1.695093345688292e-07
  outer loop
    vertex 54.45127868652344 64.80731201171875 23.33263969421387
    vertex 49.85448455810547 64.8128662109375 30.16018486022949
    vertex 54.45127868652344 64.80731201171875 34.58480834960938
  endloop
endfacet
facet normal 0 7.216449660063518e-16 1
  outer loop
    vertex 54.45127868652344 64.80731201171875 23.33263969421387
    vertex 54.45127868652344 47.27938079833984 23.33263969421387
    vertex 61.96232604980469 64.80731201171875 23.33263969421387
  endloop
endfacet
facet normal 0 7.216449660063518e-16 1
  outer loop
    vertex 61.96232604980469 64.80731201171875 23.33263969421387
    vertex 54.45127868652344 47.27938079833984 23.33263969421387
    vertex 61.96232604980469 47.27938079833984 23.33263969421387
  endloop
endfacet
facet normal 0 7.216449660063518e-16 1
  outer loop
    vertex 14.97026824951172 64.80731201171875 23.33263969421387
    vertex 7.459213256835938 47.27938079833984 23.33263969421387
    vertex 14.97026062011719 47.27938079833984 23.33263969421387
  endloop
endfacet
facet normal 0 7.216449660063518e-16 1
  outer loop
    vertex 7.459213256835938 64.80731201171875 23.33263969421387
    vertex 7.459213256835938 47.27938079833984 23.33263969421387
    vertex 14.97026824951172 64.80731201171875 23.33263969421387
  endloop
endfacet
facet normal 0.1950836926698685 0.9807866215705872 8.153240571573406e-08
  outer loop
    vertex 58.88954162597656 51.23938369750977 35.67474365234375
    vertex 58.26994323730469 51.36262512207031 35.67474365234375
    vertex 58.26994323730469 51.36262512207031 47.14688110351563
  endloop
endfacet
facet normal 0.1950837075710297 0.9807866215705872 8.301979903535539e-08
  outer loop
    vertex 58.88954162597656 51.23938369750977 35.67474365234375
    vertex 58.26994323730469 51.36262512207031 47.14688110351563
    vertex 58.88954162597656 51.23938369750977 46.94134521484375
  endloop
endfacet
facet normal 0.5555802583694458 0.8314629197120667 6.825617759886882e-08
  outer loop
    vertex 58.26994323730469 51.36262512207031 35.67474365234375
    vertex 57.74468994140625 51.71360015869141 35.67474365234375
    vertex 57.74468994140625 51.71359634399414 47.29193115234375
  endloop
endfacet
facet normal 0.5555802583694458 0.8314629197120667 6.911918859486832e-08
  outer loop
    vertex 58.26994323730469 51.36262512207031 35.67474365234375
    vertex 57.74468994140625 51.71359634399414 47.29193115234375
    vertex 58.26994323730469 51.36262512207031 47.14688110351563
  endloop
endfacet
facet normal 0.8314625024795532 0.5555809140205383 4.522883756408191e-08
  outer loop
    vertex 57.39370727539063 52.23886871337891 35.67474365234375
    vertex 57.39370727539063 52.23886489868164 47.38946533203125
    vertex 57.74468994140625 51.71360015869141 35.67474365234375
  endloop
endfacet
facet normal 0.8314625024795532 0.5555809140205383 4.560856226021315e-08
  outer loop
    vertex 57.74468994140625 51.71360015869141 35.67474365234375
    vertex 57.39370727539063 52.23886489868164 47.38946533203125
    vertex 57.74468994140625 51.71359634399414 47.29193115234375
  endloop
endfacet
facet normal 0.9807848930358887 0.1950922459363937 1.579103070525889e-08
  outer loop
    vertex 57.27046203613281 52.85845565795898 35.67474365234375
    vertex 57.27046203613281 52.85845565795898 47.45703125
    vertex 57.39370727539063 52.23886871337891 35.67474365234375
  endloop
endfacet
facet normal 0.9807848930358887 0.1950922310352325 1.588210629677178e-08
  outer loop
    vertex 57.39370727539063 52.23886871337891 35.67474365234375
    vertex 57.27046203613281 52.85845565795898 47.45703125
    vertex 57.39370727539063 52.23886489868164 47.38946533203125
  endloop
endfacet
facet normal 0.9807854890823364 -0.1950893551111221 -1.588203701885504e-08
  outer loop
    vertex 57.39370727539063 53.47805404663086 35.67474365234375
    vertex 57.39370727539063 53.47805404663086 47.38934326171875
    vertex 57.27046203613281 52.85845565795898 35.67474365234375
  endloop
endfacet
facet normal 0.9807854890823364 -0.1950893551111221 -1.579079622615609e-08
  outer loop
    vertex 57.27046203613281 52.85845565795898 35.67474365234375
    vertex 57.39370727539063 53.47805404663086 47.38934326171875
    vertex 57.27046203613281 52.85845565795898 47.45703125
  endloop
endfacet
facet normal 0.8314580321311951 -0.5555875301361084 -4.563056421602596e-08
  outer loop
    vertex 57.74468994140625 54.00331497192383 35.67474365234375
    vertex 57.74468994140625 54.00331497192383 47.28646850585938
    vertex 57.39370727539063 53.47805404663086 35.67474365234375
  endloop
endfacet
facet normal 0.8314580321311951 -0.5555875301361084 -4.522985008748037e-08
  outer loop
    vertex 57.39370727539063 53.47805404663086 35.67474365234375
    vertex 57.74468994140625 54.00331497192383 47.28646850585938
    vertex 57.39370727539063 53.47805404663086 47.38934326171875
  endloop
endfacet
facet normal 0.5555797219276428 -0.8314632773399353 -6.926754991809503e-08
  outer loop
    vertex 58.26994323730469 54.35428619384766 47.122314453125
    vertex 57.74468994140625 54.00331497192383 35.67474365234375
    vertex 58.26994323730469 54.35428619384766 35.67474365234375
  endloop
endfacet
facet normal 0.5555797219276428 -0.8314632773399353 -6.82883225522346e-08
  outer loop
    vertex 58.26994323730469 54.35428619384766 47.122314453125
    vertex 57.74468994140625 54.00331497192383 47.28646850585938
    vertex 57.74468994140625 54.00331497192383 35.67474365234375
  endloop
endfacet
facet normal 0.1950982064008713 -0.9807837009429932 -8.312582622238551e-08
  outer loop
    vertex 58.88954162597656 54.47753524780273 46.92694091796875
    vertex 58.26994323730469 54.35428619384766 35.67474365234375
    vertex 58.88954162597656 54.47753524780273 35.67474365234375
  endloop
endfacet
facet normal 0.1950981765985489 -0.9807837009429932 -8.170713527988482e-08
  outer loop
    vertex 58.88954162597656 54.47753524780273 46.92694091796875
    vertex 58.26994323730469 54.35428619384766 47.122314453125
    vertex 58.26994323730469 54.35428619384766 35.67474365234375
  endloop
endfacet
facet normal -0.1950982064008713 -0.9807837009429932 -8.457668343453406e-08
  outer loop
    vertex 59.50914001464844 54.35428619384766 46.73391723632813
    vertex 58.88954162597656 54.47753524780273 35.67474365234375
    vertex 59.50914001464844 54.35428619384766 35.67474365234375
  endloop
endfacet
facet normal -0.1950982362031937 -0.9807837009429932 -8.312582622238551e-08
  outer loop
    vertex 59.50914001464844 54.35428619384766 46.73391723632813
    vertex 58.88954162597656 54.47753524780273 46.92694091796875
    vertex 58.88954162597656 54.47753524780273 35.67474365234375
  endloop
endfacet
facet normal -0.5555797219276428 -0.8314632773399353 -7.287625436447343e-08
  outer loop
    vertex 60.03439331054688 54.00331497192383 46.55545043945313
    vertex 59.50914001464844 54.35428619384766 35.67474365234375
    vertex 60.03439331054688 54.00331497192383 35.67474365234375
  endloop
endfacet
facet normal -0.5555797219276428 -0.8314632773399353 -7.170022087166217e-08
  outer loop
    vertex 60.03439331054688 54.00331497192383 46.55545043945313
    vertex 59.50914001464844 54.35428619384766 46.73391723632813
    vertex 59.50914001464844 54.35428619384766 35.67474365234375
  endloop
endfacet
facet normal -0.8314580321311951 -0.5555875301361084 -4.911571593879671e-08
  outer loop
    vertex 60.3853759765625 53.47805404663086 35.67474365234375
    vertex 60.3853759765625 53.47805404663086 46.4625244140625
    vertex 60.03439331054688 54.00331497192383 35.67474365234375
  endloop
endfacet
facet normal -0.8314580321311951 -0.5555875301361084 -4.869624348202706e-08
  outer loop
    vertex 60.03439331054688 54.00331497192383 35.67474365234375
    vertex 60.3853759765625 53.47805404663086 46.4625244140625
    vertex 60.03439331054688 54.00331497192383 46.55545043945313
  endloop
endfacet
facet normal -0.9807854890823364 -0.1950893551111221 -1.728868070927092e-08
  outer loop
    vertex 60.50862121582031 52.85845565795898 35.67474365234375
    vertex 60.50862121582031 52.85845565795898 46.43621826171875
    vertex 60.3853759765625 53.47805404663086 35.67474365234375
  endloop
endfacet
facet normal -0.9807854890823364 -0.1950893551111221 -1.724652243240143e-08
  outer loop
    vertex 60.3853759765625 53.47805404663086 35.67474365234375
    vertex 60.50862121582031 52.85845565795898 46.43621826171875
    vertex 60.3853759765625 53.47805404663086 46.4625244140625
  endloop
endfacet
facet normal -0.9807848930358887 0.1950922459363937 8.618244784486251e-09
  outer loop
    vertex 60.3853759765625 52.23886871337891 35.67474365234375
    vertex 60.3853759765625 52.23886489868164 46.46896362304688
    vertex 60.50862121582031 52.85845565795898 35.67474365234375
  endloop
endfacet
facet normal -0.9807848930358887 0.1950923800468445 1.728895071551051e-08
  outer loop
    vertex 60.50862121582031 52.85845565795898 35.67474365234375
    vertex 60.3853759765625 52.23886489868164 46.46896362304688
    vertex 60.50862121582031 52.85845565795898 46.43621826171875
  endloop
endfacet
facet normal -0.8314625024795532 0.5555809140205383 4.860609692514117e-08
  outer loop
    vertex 60.03439331054688 51.71360015869141 35.67474365234375
    vertex 60.03439331054688 51.71359634399414 46.57550048828125
    vertex 60.3853759765625 52.23886871337891 35.67474365234375
  endloop
endfacet
facet normal -0.8314626812934875 0.5555805563926697 2.454289926845377e-08
  outer loop
    vertex 60.3853759765625 52.23886871337891 35.67474365234375
    vertex 60.03439331054688 51.71359634399414 46.57550048828125
    vertex 60.3853759765625 52.23886489868164 46.46896362304688
  endloop
endfacet
facet normal -0.5555802583694458 0.8314629197120667 7.149815672846671e-08
  outer loop
    vertex 60.03439331054688 51.71360015869141 35.67474365234375
    vertex 59.50914001464844 51.36262512207031 35.67474365234375
    vertex 59.50914001464844 51.36262512207031 46.76516723632813
  endloop
endfacet
facet normal -0.555580198764801 0.8314629197120667 7.274218205566285e-08
  outer loop
    vertex 60.03439331054688 51.71360015869141 35.67474365234375
    vertex 59.50914001464844 51.36262512207031 46.76516723632813
    vertex 60.03439331054688 51.71359634399414 46.57550048828125
  endloop
endfacet
facet normal -0.1950836926698685 0.9807866215705872 8.301979903535539e-08
  outer loop
    vertex 59.50914001464844 51.36262512207031 35.67474365234375
    vertex 58.88954162597656 51.23938369750977 35.67474365234375
    vertex 58.88954162597656 51.23938369750977 46.94134521484375
  endloop
endfacet
facet normal -0.1950836628675461 0.9807866215705872 8.433861609091764e-08
  outer loop
    vertex 59.50914001464844 51.36262512207031 35.67474365234375
    vertex 58.88954162597656 51.23938369750977 46.94134521484375
    vertex 59.50914001464844 51.36262512207031 46.76516723632813
  endloop
endfacet
facet normal 0 7.216449660063518e-16 1
  outer loop
    vertex 58.26994323730469 54.35428619384766 35.67474365234375
    vertex 57.74468994140625 54.00331497192383 35.67474365234375
    vertex 60.03439331054688 54.00331497192383 35.67474365234375
  endloop
endfacet
facet normal 0 7.216449660063518e-16 1
  outer loop
    vertex 58.26994323730469 54.35428619384766 35.67474365234375
    vertex 60.03439331054688 54.00331497192383 35.67474365234375
    vertex 59.50914001464844 54.35428619384766 35.67474365234375
  endloop
endfacet
facet normal 0 7.216449660063518e-16 1
  outer loop
    vertex 58.88954162597656 54.47753524780273 35.67474365234375
    vertex 58.26994323730469 54.35428619384766 35.67474365234375
    vertex 59.50914001464844 54.35428619384766 35.67474365234375
  endloop
endfacet
facet normal 0 7.216449660063518e-16 1
  outer loop
    vertex 57.74468994140625 51.71360015869141 35.67474365234375
    vertex 58.26994323730469 51.36262512207031 35.67474365234375
    vertex 58.88954162597656 51.23938369750977 35.67474365234375
  endloop
endfacet
facet normal 0 7.216449660063518e-16 1
  outer loop
    vertex 60.03439331054688 51.71360015869141 35.67474365234375
    vertex 58.88954162597656 51.23938369750977 35.67474365234375
    vertex 59.50914001464844 51.36262512207031 35.67474365234375
  endloop
endfacet
facet normal 0 7.216449660063518e-16 1
  outer loop
    vertex 57.74468994140625 54.00331497192383 35.67474365234375
    vertex 57.39370727539063 53.47805404663086 35.67474365234375
    vertex 57.27046203613281 52.85845565795898 35.67474365234375
  endloop
endfacet
facet normal 0 7.216449660063518e-16 1
  outer loop
    vertex 60.03439331054688 54.00331497192383 35.67474365234375
    vertex 60.50862121582031 52.85845565795898 35.67474365234375
    vertex 60.3853759765625 53.47805404663086 35.67474365234375
  endloop
endfacet
facet normal 0 7.216449660063518e-16 1
  outer loop
    vertex 57.39370727539063 52.23886871337891 35.67474365234375
    vertex 57.74468994140625 51.71360015869141 35.67474365234375
    vertex 58.88954162597656 51.23938369750977 35.67474365234375
  endloop
endfacet
facet normal 0 7.216449660063518e-16 1
  outer loop
    vertex 60.3853759765625 52.23886871337891 35.67474365234375
    vertex 58.88954162597656 51.23938369750977 35.67474365234375
    vertex 60.03439331054688 51.71360015869141 35.67474365234375
  endloop
endfacet
facet normal 0 7.216449660063518e-16 1
  outer loop
    vertex 57.74468994140625 54.00331497192383 35.67474365234375
    vertex 57.27046203613281 52.85845565795898 35.67474365234375
    vertex 57.39370727539063 52.23886871337891 35.67474365234375
  endloop
endfacet
facet normal 0 7.216449660063518e-16 1
  outer loop
    vertex 60.03439331054688 54.00331497192383 35.67474365234375
    vertex 60.3853759765625 52.23886871337891 35.67474365234375
    vertex 60.50862121582031 52.85845565795898 35.67474365234375
  endloop
endfacet
facet normal 0 7.216449660063518e-16 1
  outer loop
    vertex 57.74468994140625 54.00331497192383 35.67474365234375
    vertex 60.3853759765625 52.23886871337891 35.67474365234375
    vertex 60.03439331054688 54.00331497192383 35.67474365234375
  endloop
endfacet
facet normal 0 7.216449660063518e-16 1
  outer loop
    vertex 57.74468994140625 54.00331497192383 35.67474365234375
    vertex 57.39370727539063 52.23886871337891 35.67474365234375
    vertex 58.88954162597656 51.23938369750977 35.67474365234375
  endloop
endfacet
facet normal 0 7.216449660063518e-16 1
  outer loop
    vertex 57.74468994140625 54.00331497192383 35.67474365234375
    vertex 58.88954162597656 51.23938369750977 35.67474365234375
    vertex 60.3853759765625 52.23886871337891 35.67474365234375
  endloop
endfacet
facet normal 0 7.216449660063518e-16 1
  outer loop
    vertex 9.301078796386719 54.00331497192383 35.67474365234375
    vertex 10.44593811035156 51.23938369750977 35.67474365234375
    vertex 11.94176483154297 52.23886871337891 35.67474365234375
  endloop
endfacet
facet normal 0 7.216449660063518e-16 1
  outer loop
    vertex 9.301078796386719 54.00331497192383 35.67474365234375
    vertex 8.950103759765625 52.23886871337891 35.67474365234375
    vertex 10.44593811035156 51.23938369750977 35.67474365234375
  endloop
endfacet
facet normal 0 7.216449660063518e-16 1
  outer loop
    vertex 9.301078796386719 54.00331497192383 35.67474365234375
    vertex 11.94176483154297 52.23886871337891 35.67474365234375
    vertex 11.59078979492188 54.00331497192383 35.67474365234375
  endloop
endfacet
facet normal 0 7.216449660063518e-16 1
  outer loop
    vertex 11.59078979492188 54.00331497192383 35.67474365234375
    vertex 11.94176483154297 52.23886871337891 35.67474365234375
    vertex 12.06501007080078 52.85845565795898 35.67474365234375
  endloop
endfacet
facet normal 0 7.216449660063518e-16 1
  outer loop
    vertex 9.301078796386719 54.00331497192383 35.67474365234375
    vertex 8.826866149902344 52.85845565795898 35.67474365234375
    vertex 8.950103759765625 52.23886871337891 35.67474365234375
  endloop
endfacet
facet normal 0 7.216449660063518e-16 1
  outer loop
    vertex 11.94176483154297 52.23886871337891 35.67474365234375
    vertex 10.44593811035156 51.23938369750977 35.67474365234375
    vertex 11.59078979492188 51.71360015869141 35.67474365234375
  endloop
endfacet
facet normal 0 7.216449660063518e-16 1
  outer loop
    vertex 8.950103759765625 52.23886871337891 35.67474365234375
    vertex 9.301078796386719 51.71360015869141 35.67474365234375
    vertex 10.44593811035156 51.23938369750977 35.67474365234375
  endloop
endfacet
facet normal 0 7.216449660063518e-16 1
  outer loop
    vertex 11.59078979492188 54.00331497192383 35.67474365234375
    vertex 12.06501007080078 52.85845565795898 35.67474365234375
    vertex 11.94176483154297 53.47805404663086 35.67474365234375
  endloop
endfacet
facet normal 0 7.216449660063518e-16 1
  outer loop
    vertex 9.301078796386719 54.00331497192383 35.67474365234375
    vertex 8.950103759765625 53.47805404663086 35.67474365234375
    vertex 8.826866149902344 52.85845565795898 35.67474365234375
  endloop
endfacet
facet normal 0 7.216449660063518e-16 1
  outer loop
    vertex 11.59078979492188 51.71360015869141 35.67474365234375
    vertex 10.44593811035156 51.23938369750977 35.67474365234375
    vertex 11.06552886962891 51.36262512207031 35.67474365234375
  endloop
endfacet
facet normal 0 7.216449660063518e-16 1
  outer loop
    vertex 9.301078796386719 51.71360015869141 35.67474365234375
    vertex 9.826347351074219 51.36262512207031 35.67474365234375
    vertex 10.44593811035156 51.23938369750977 35.67474365234375
  endloop
endfacet
facet normal 0 7.216449660063518e-16 1
  outer loop
    vertex 10.44593811035156 54.47753524780273 35.67474365234375
    vertex 9.826347351074219 54.35428619384766 35.67474365234375
    vertex 11.06552886962891 54.35428619384766 35.67474365234375
  endloop
endfacet
facet normal 0 7.216449660063518e-16 1
  outer loop
    vertex 9.826347351074219 54.35428619384766 35.67474365234375
    vertex 11.59078979492188 54.00331497192383 35.67474365234375
    vertex 11.06552886962891 54.35428619384766 35.67474365234375
  endloop
endfacet
facet normal 0 7.216449660063518e-16 1
  outer loop
    vertex 9.826347351074219 54.35428619384766 35.67474365234375
    vertex 9.301078796386719 54.00331497192383 35.67474365234375
    vertex 11.59078979492188 54.00331497192383 35.67474365234375
  endloop
endfacet
facet normal -0.1950860023498535 0.980786144733429 8.308254706435036e-08
  outer loop
    vertex 11.06552886962891 51.36262512207031 35.67474365234375
    vertex 10.44593811035156 51.23938369750977 35.67474365234375
    vertex 10.44593811035156 51.23938369750977 46.93283081054688
  endloop
endfacet
facet normal -0.1950860172510147 0.980786144733429 8.161247677662686e-08
  outer loop
    vertex 11.06552886962891 51.36262512207031 35.67474365234375
    vertex 10.44593811035156 51.23938369750977 46.93283081054688
    vertex 11.06552886962891 51.36262512207031 47.1356201171875
  endloop
endfacet
facet normal -0.5555746555328369 0.8314666748046875 6.9187414908356e-08
  outer loop
    vertex 11.59078979492188 51.71360015869141 35.67474365234375
    vertex 11.06552886962891 51.36262512207031 35.67474365234375
    vertex 11.06552886962891 51.36262512207031 47.1356201171875
  endloop
endfacet
facet normal -0.5555746555328369 0.8314666748046875 6.836765464868222e-08
  outer loop
    vertex 11.59078979492188 51.71360015869141 35.67474365234375
    vertex 11.06552886962891 51.36262512207031 47.1356201171875
    vertex 11.59078979492188 51.71359634399414 47.27304077148438
  endloop
endfacet
facet normal -0.8314680457115173 0.5555725693702698 4.568216027678318e-08
  outer loop
    vertex 11.59078979492188 51.71360015869141 35.67474365234375
    vertex 11.59078979492188 51.71359634399414 47.27304077148438
    vertex 11.94176483154297 52.23886871337891 35.67474365234375
  endloop
endfacet
facet normal -0.8314680457115173 0.5555725693702698 4.517907825629663e-08
  outer loop
    vertex 11.94176483154297 52.23886871337891 35.67474365234375
    vertex 11.59078979492188 51.71359634399414 47.27304077148438
    vertex 11.94176483154297 52.23886489868164 47.40219116210938
  endloop
endfacet
facet normal -0.9807848930358887 0.1950922459363937 1.586487208271592e-08
  outer loop
    vertex 11.94176483154297 52.23886871337891 35.67474365234375
    vertex 11.94176483154297 52.23886489868164 47.40219116210938
    vertex 12.06501007080078 52.85845565795898 35.67474365234375
  endloop
endfacet
facet normal -0.9807848930358887 0.1950922310352325 1.576819919080208e-08
  outer loop
    vertex 12.06501007080078 52.85845565795898 35.67474365234375
    vertex 11.94176483154297 52.23886489868164 47.40219116210938
    vertex 12.06501007080078 52.85845565795898 47.47409057617188
  endloop
endfacet
facet normal -0.9807854890823364 -0.1950893551111221 -1.576796648805612e-08
  outer loop
    vertex 12.06501007080078 52.85845565795898 35.67474365234375
    vertex 12.06501007080078 52.85845565795898 47.47409057617188
    vertex 11.94176483154297 53.47805404663086 35.67474365234375
  endloop
endfacet
facet normal -0.9807854890823364 -0.1950893551111221 -1.588625764270546e-08
  outer loop
    vertex 11.94176483154297 53.47805404663086 35.67474365234375
    vertex 12.06501007080078 52.85845565795898 47.47409057617188
    vertex 11.94176483154297 53.47805404663086 47.38623046875
  endloop
endfacet
facet normal -0.831463634967804 -0.5555791854858398 -4.52411903495431e-08
  outer loop
    vertex 11.94176483154297 53.47805404663086 35.67474365234375
    vertex 11.94176483154297 53.47805404663086 47.38623046875
    vertex 11.59078979492188 54.00331497192383 35.67474365234375
  endloop
endfacet
facet normal -0.831463634967804 -0.5555791854858398 -4.58212348064535e-08
  outer loop
    vertex 11.59078979492188 54.00331497192383 35.67474365234375
    vertex 11.94176483154297 53.47805404663086 47.38623046875
    vertex 11.59078979492188 54.00331497192383 47.23797607421875
  endloop
endfacet
facet normal -0.5555741190910339 -0.8314669728279114 -6.857500522983173e-08
  outer loop
    vertex 11.59078979492188 54.00331497192383 47.23797607421875
    vertex 11.06552886962891 54.35428619384766 35.67474365234375
    vertex 11.59078979492188 54.00331497192383 35.67474365234375
  endloop
endfacet
facet normal -0.5555741190910339 -0.8314670324325562 -6.947176700577984e-08
  outer loop
    vertex 11.59078979492188 54.00331497192383 47.23797607421875
    vertex 11.06552886962891 54.35428619384766 47.08871459960938
    vertex 11.06552886962891 54.35428619384766 35.67474365234375
  endloop
endfacet
facet normal -0.1951005160808563 -0.980783224105835 -8.194762557423019e-08
  outer loop
    vertex 11.06552886962891 54.35428619384766 47.08871459960938
    vertex 10.44593811035156 54.47753524780273 35.67474365234375
    vertex 11.06552886962891 54.35428619384766 35.67474365234375
  endloop
endfacet
facet normal -0.1951004862785339 -0.9807832837104797 -8.340833090869637e-08
  outer loop
    vertex 11.06552886962891 54.35428619384766 47.08871459960938
    vertex 10.44593811035156 54.47753524780273 46.88882446289063
    vertex 10.44593811035156 54.47753524780273 35.67474365234375
  endloop
endfacet
facet normal 0.1951005160808563 -0.980783224105835 -8.340833090869637e-08
  outer loop
    vertex 10.44593811035156 54.47753524780273 46.88882446289063
    vertex 9.826347351074219 54.35428619384766 35.67474365234375
    vertex 10.44593811035156 54.47753524780273 35.67474365234375
  endloop
endfacet
facet normal 0.1951005458831787 -0.980783224105835 -8.473775636730352e-08
  outer loop
    vertex 10.44593811035156 54.47753524780273 46.88882446289063
    vertex 9.826347351074219 54.35428619384766 46.712890625
    vertex 9.826347351074219 54.35428619384766 35.67474365234375
  endloop
endfacet
facet normal 0.5555685758590698 -0.8314707279205322 -7.183744799021952e-08
  outer loop
    vertex 9.826347351074219 54.35428619384766 46.712890625
    vertex 9.301078796386719 54.00331497192383 35.67474365234375
    vertex 9.826347351074219 54.35428619384766 35.67474365234375
  endloop
endfacet
facet normal 0.5555685758590698 -0.8314707279205322 -7.291433234968281e-08
  outer loop
    vertex 9.826347351074219 54.35428619384766 46.712890625
    vertex 9.301078796386719 54.00331497192383 46.54986572265625
    vertex 9.301078796386719 54.00331497192383 35.67474365234375
  endloop
endfacet
facet normal 0.831463634967804 -0.5555791854858398 -4.87205191745943e-08
  outer loop
    vertex 9.301078796386719 54.00331497192383 35.67474365234375
    vertex 9.301078796386719 54.00331497192383 46.54986572265625
    vertex 8.950103759765625 53.47805404663086 35.67474365234375
  endloop
endfacet
facet normal 0.831463634967804 -0.5555791854858398 -4.904352479684349e-08
  outer loop
    vertex 8.950103759765625 53.47805404663086 35.67474365234375
    vertex 9.301078796386719 54.00331497192383 46.54986572265625
    vertex 8.950103759765625 53.47805404663086 46.47824096679688
  endloop
endfacet
facet normal 0.9807878136634827 -0.1950777322053909 -1.722040643414857e-08
  outer loop
    vertex 8.950103759765625 53.47805404663086 35.67474365234375
    vertex 8.950103759765625 53.47805404663086 46.47824096679688
    vertex 8.826866149902344 52.85845565795898 35.67474365234375
  endloop
endfacet
facet normal 0.9807878136634827 -0.1950777322053909 -1.72830443290195e-08
  outer loop
    vertex 8.826866149902344 52.85845565795898 35.67474365234375
    vertex 8.950103759765625 53.47805404663086 46.47824096679688
    vertex 8.826866149902344 52.85845565795898 46.4390869140625
  endloop
endfacet
facet normal 0.9807872176170349 0.1950806230306625 1.728330012440438e-08
  outer loop
    vertex 8.826866149902344 52.85845565795898 35.67474365234375
    vertex 8.826866149902344 52.85845565795898 46.4390869140625
    vertex 8.950103759765625 52.23886871337891 35.67474365234375
  endloop
endfacet
facet normal 0.9807871580123901 0.1950807720422745 8.620101965561844e-09
  outer loop
    vertex 8.950103759765625 52.23886871337891 35.67474365234375
    vertex 8.826866149902344 52.85845565795898 46.4390869140625
    vertex 8.950103759765625 52.23886489868164 46.46600341796875
  endloop
endfacet
facet normal 0.8314680457115173 0.5555725693702698 2.454927816586405e-08
  outer loop
    vertex 8.950103759765625 52.23886871337891 35.67474365234375
    vertex 8.950103759765625 52.23886489868164 46.46600341796875
    vertex 9.301078796386719 51.71360015869141 35.67474365234375
  endloop
endfacet
facet normal 0.8314682841300964 0.5555722117424011 4.858561197806921e-08
  outer loop
    vertex 9.301078796386719 51.71360015869141 35.67474365234375
    vertex 8.950103759765625 52.23886489868164 46.46600341796875
    vertex 9.301078796386719 51.71359634399414 46.57992553710938
  endloop
endfacet
facet normal 0.555569052696228 0.8314703702926636 7.271331980973628e-08
  outer loop
    vertex 9.826347351074219 51.36262512207031 35.67474365234375
    vertex 9.301078796386719 51.71360015869141 35.67474365234375
    vertex 9.301078796386719 51.71359634399414 46.57992553710938
  endloop
endfacet
facet normal 0.555569052696228 0.8314703702926636 7.149919412086092e-08
  outer loop
    vertex 9.826347351074219 51.36262512207031 35.67474365234375
    vertex 9.301078796386719 51.71359634399414 46.57992553710938
    vertex 9.826347351074219 51.36262512207031 46.76510620117188
  endloop
endfacet
facet normal 0.1950860023498535 0.980786144733429 8.43390424165591e-08
  outer loop
    vertex 10.44593811035156 51.23938369750977 35.67474365234375
    vertex 9.826347351074219 51.36262512207031 35.67474365234375
    vertex 9.826347351074219 51.36262512207031 46.76510620117188
  endloop
endfacet
facet normal 0.1950859725475311 0.980786144733429 8.308254706435036e-08
  outer loop
    vertex 10.44593811035156 51.23938369750977 35.67474365234375
    vertex 9.826347351074219 51.36262512207031 46.76510620117188
    vertex 10.44593811035156 51.23938369750977 46.93283081054688
  endloop
endfacet
facet normal 0.2906027138233185 0.01653531193733215 0.9567009210586548
  outer loop
    vertex 57.39370727539063 52.23886489868164 47.38946533203125
    vertex 52.38687896728516 47.27938079833984 48.99603271484375
    vertex 57.74468994140625 51.71359634399414 47.29193115234375
  endloop
endfacet
facet normal 0.2827308177947998 0.02686239033937454 0.9588230848312378
  outer loop
    vertex 57.74468994140625 51.71359634399414 47.29193115234375
    vertex 52.38687896728516 47.27938079833984 48.99603271484375
    vertex 58.26994323730469 51.36262512207031 47.14688110351563
  endloop
endfacet
facet normal 0.3114786148071289 -0.01851964183151722 0.950072705745697
  outer loop
    vertex 58.26994323730469 51.36262512207031 47.14688110351563
    vertex 52.38687896728516 47.27938079833984 48.99603271484375
    vertex 58.88954162597656 51.23938369750977 46.94134521484375
  endloop
endfacet
facet normal 0.3030018210411072 -0.003088944358751178 0.9529849886894226
  outer loop
    vertex 58.88954162597656 51.23938369750977 46.94134521484375
    vertex 52.38687896728516 47.27938079833984 48.99603271484375
    vertex 65.6328125 47.27938079833984 44.78448486328125
  endloop
endfacet
facet normal 0.2812038958072662 -0.04330406710505486 0.9586704969406128
  outer loop
    vertex 59.50914001464844 51.36262512207031 46.76516723632813
    vertex 58.88954162597656 51.23938369750977 46.94134521484375
    vertex 65.6328125 47.27938079833984 44.78448486328125
  endloop
endfacet
facet normal 0.3236964046955109 0.02667266689240932 0.9457849860191345
  outer loop
    vertex 60.03439331054688 51.71359634399414 46.57550048828125
    vertex 59.50914001464844 51.36262512207031 46.76516723632813
    vertex 65.6328125 47.27938079833984 44.78448486328125
  endloop
endfacet
facet normal 0.2997861504554749 -0.006826021708548069 0.9539819955825806
  outer loop
    vertex 60.3853759765625 52.23886489868164 46.46896362304688
    vertex 60.03439331054688 51.71359634399414 46.57550048828125
    vertex 65.6328125 47.27938079833984 44.78448486328125
  endloop
endfacet
facet normal 0.2909985482692719 -0.007073542568832636 0.9566973447799683
  outer loop
    vertex 52.38688659667969 64.80731201171875 48.99603271484375
    vertex 57.39370727539063 53.47805404663086 47.38934326171875
    vertex 57.74468994140625 54.00331497192383 47.28646850585938
  endloop
endfacet
facet normal 0.2760880291461945 0.01446528919041157 0.9610235095024109
  outer loop
    vertex 65.6328125 64.80731201171875 44.78448486328125
    vertex 60.03439331054688 54.00331497192383 46.55545043945313
    vertex 60.3853759765625 53.47805404663086 46.4625244140625
  endloop
endfacet
facet normal 0.2997125089168549 -0.002329623326659203 0.9540266990661621
  outer loop
    vertex 52.38688659667969 64.80731201171875 48.99603271484375
    vertex 57.74468994140625 54.00331497192383 47.28646850585938
    vertex 58.26994323730469 54.35428619384766 47.122314453125
  endloop
endfacet
facet normal 0.3165670037269592 -0.008557760156691074 0.9485315680503845
  outer loop
    vertex 65.6328125 64.80731201171875 44.78448486328125
    vertex 59.50914001464844 54.35428619384766 46.73391723632813
    vertex 60.03439331054688 54.00331497192383 46.55545043945313
  endloop
endfacet
facet normal 0.3010032474994659 -0.001530616427771747 0.9536218643188477
  outer loop
    vertex 52.38688659667969 64.80731201171875 48.99603271484375
    vertex 58.26994323730469 54.35428619384766 47.122314453125
    vertex 58.88954162597656 54.47753524780273 46.92694091796875
  endloop
endfacet
facet normal 0.2980483770370483 0.00341236568056047 0.9545446634292603
  outer loop
    vertex 65.6328125 64.80731201171875 44.78448486328125
    vertex 58.88954162597656 54.47753524780273 46.92694091796875
    vertex 59.50914001464844 54.35428619384766 46.73391723632813
  endloop
endfacet
facet normal 0.3030034005641937 -0.000144826844916679 0.9529894590377808
  outer loop
    vertex 52.38688659667969 64.80731201171875 48.99603271484375
    vertex 58.88954162597656 54.47753524780273 46.92694091796875
    vertex 65.6328125 64.80731201171875 44.78448486328125
  endloop
endfacet
facet normal 0.3370867967605591 -0.03554263338446617 0.9408024549484253
  outer loop
    vertex 57.27046203613281 52.85845565795898 47.45703125
    vertex 52.38687896728516 47.27938079833984 48.99603271484375
    vertex 57.39370727539063 52.23886489868164 47.38946533203125
  endloop
endfacet
facet normal 0.298051118850708 -0.008840769529342651 0.9545089602470398
  outer loop
    vertex 60.50862121582031 52.85845565795898 46.43621826171875
    vertex 60.3853759765625 52.23886489868164 46.46896362304688
    vertex 65.6328125 47.27938079833984 44.78448486328125
  endloop
endfacet
facet normal 0.2387492209672928 0.05840366706252098 0.9693233966827393
  outer loop
    vertex 57.39370727539063 53.47805404663086 47.38934326171875
    vertex 52.38687896728516 47.27938079833984 48.99603271484375
    vertex 57.27046203613281 52.85845565795898 47.45703125
  endloop
endfacet
facet normal 0.3055528402328491 -1.329981955677795e-07 0.9521751403808594
  outer loop
    vertex 52.38688659667969 64.80731201171875 48.99603271484375
    vertex 52.38687896728516 47.27938079833984 48.99603271484375
    vertex 57.39370727539063 53.47805404663086 47.38934326171875
  endloop
endfacet
facet normal 0.3045879900455475 6.873554311751624e-16 0.9524841904640198
  outer loop
    vertex 65.6328125 64.80731201171875 44.78448486328125
    vertex 60.3853759765625 53.47805404663086 46.4625244140625
    vertex 65.6328125 47.27938079833984 44.78448486328125
  endloop
endfacet
facet normal 0.3322891592979431 0.02606712840497494 0.9428172707557678
  outer loop
    vertex 60.3853759765625 53.47805404663086 46.4625244140625
    vertex 60.50862121582031 52.85845565795898 46.43621826171875
    vertex 65.6328125 47.27938079833984 44.78448486328125
  endloop
endfacet
facet normal -0.3093607127666473 -0.0004650107002817094 0.9509446620941162
  outer loop
    vertex 8.950103759765625 52.23886489868164 46.46600341796875
    vertex 3.788734436035156 47.27938079833984 44.78448486328125
    vertex 9.301078796386719 51.71359634399414 46.57992553710938
  endloop
endfacet
facet normal -0.3221687078475952 0.01724657416343689 0.9465251564979553
  outer loop
    vertex 9.301078796386719 51.71359634399414 46.57992553710938
    vertex 3.788734436035156 47.27938079833984 44.78448486328125
    vertex 9.826347351074219 51.36262512207031 46.76510620117188
  endloop
endfacet
facet normal -0.2724195420742035 -0.06290830671787262 0.9601198434829712
  outer loop
    vertex 9.826347351074219 51.36262512207031 46.76510620117188
    vertex 3.788734436035156 47.27938079833984 44.78448486328125
    vertex 10.44593811035156 51.23938369750977 46.93283081054688
  endloop
endfacet
facet normal -0.3029946088790894 -0.007624929305166006 0.9529617428779602
  outer loop
    vertex 10.44593811035156 51.23938369750977 46.93283081054688
    vertex 3.788734436035156 47.27938079833984 44.78448486328125
    vertex 17.03466033935547 47.27938079833984 48.99603271484375
  endloop
endfacet
facet normal -0.3079890608787537 -0.01683134585618973 0.9512410163879395
  outer loop
    vertex 11.06552886962891 51.36262512207031 47.1356201171875
    vertex 10.44593811035156 51.23938369750977 46.93283081054688
    vertex 17.03466033935547 47.27938079833984 48.99603271484375
  endloop
endfacet
facet normal -0.2751156985759735 0.03555889427661896 0.960753321647644
  outer loop
    vertex 11.59078979492188 51.71359634399414 47.27304077148438
    vertex 11.06552886962891 51.36262512207031 47.1356201171875
    vertex 17.03466033935547 47.27938079833984 48.99603271484375
  endloop
endfacet
facet normal -0.3172745704650879 -0.02111655473709106 0.9480985999107361
  outer loop
    vertex 11.94176483154297 52.23886489868164 47.40219116210938
    vertex 11.59078979492188 51.71359634399414 47.27304077148438
    vertex 17.03466033935547 47.27938079833984 48.99603271484375
  endloop
endfacet
facet normal -0.2463966012001038 0.03255868330597878 0.9686220288276672
  outer loop
    vertex 3.788734436035156 64.80731201171875 44.78448486328125
    vertex 8.950103759765625 53.47805404663086 46.47824096679688
    vertex 9.301078796386719 54.00331497192383 46.54986572265625
  endloop
endfacet
facet normal -0.3548028767108917 0.02670233324170113 0.9345597624778748
  outer loop
    vertex 17.03466033935547 64.80731201171875 48.99603271484375
    vertex 11.59078979492188 54.00331497192383 47.23797607421875
    vertex 11.94176483154297 53.47805404663086 47.38623046875
  endloop
endfacet
facet normal -0.2986038625240326 0.003593106754124165 0.954370379447937
  outer loop
    vertex 3.788734436035156 64.80731201171875 44.78448486328125
    vertex 9.301078796386719 54.00331497192383 46.54986572265625
    vertex 9.826347351074219 54.35428619384766 46.712890625
  endloop
endfacet
facet normal -0.2819757461547852 -0.01402238756418228 0.9593190550804138
  outer loop
    vertex 17.03466033935547 64.80731201171875 48.99603271484375
    vertex 11.06552886962891 54.35428619384766 47.08871459960938
    vertex 11.59078979492188 54.00331497192383 47.23797607421875
  endloop
endfacet
facet normal -0.2763573527336121 0.01764588244259357 0.960892915725708
  outer loop
    vertex 3.788734436035156 64.80731201171875 44.78448486328125
    vertex 9.826347351074219 54.35428619384766 46.712890625
    vertex 10.44593811035156 54.47753524780273 46.88882446289063
  endloop
endfacet
facet normal -0.3067618608474731 0.001506248023360968 0.9517850875854492
  outer loop
    vertex 17.03466033935547 64.80731201171875 48.99603271484375
    vertex 10.44593811035156 54.47753524780273 46.88882446289063
    vertex 11.06552886962891 54.35428619384766 47.08871459960938
  endloop
endfacet
facet normal -0.3030032217502594 -0.001136709004640579 0.952988862991333
  outer loop
    vertex 3.788734436035156 64.80731201171875 44.78448486328125
    vertex 10.44593811035156 54.47753524780273 46.88882446289063
    vertex 17.03466033935547 64.80731201171875 48.99603271484375
  endloop
endfacet
facet normal -0.2947997748851776 -0.01713111065328121 0.9554054737091064
  outer loop
    vertex 8.826866149902344 52.85845565795898 46.4390869140625
    vertex 3.788734436035156 47.27938079833984 44.78448486328125
    vertex 8.950103759765625 52.23886489868164 46.46600341796875
  endloop
endfacet
facet normal -0.335778683423996 -0.04240423813462257 0.9409859776496887
  outer loop
    vertex 12.06501007080078 52.85845565795898 47.47409057617188
    vertex 11.94176483154297 52.23886489868164 47.40219116210938
    vertex 17.03466033935547 47.27938079833984 48.99603271484375
  endloop
endfacet
facet normal -0.3146082162857056 0.002591723809018731 0.9492180943489075
  outer loop
    vertex 8.950103759765625 53.47805404663086 46.47824096679688
    vertex 3.788734436035156 47.27938079833984 44.78448486328125
    vertex 8.826866149902344 52.85845565795898 46.4390869140625
  endloop
endfacet
facet normal -0.311800628900528 6.89598427359051e-16 0.9501475691795349
  outer loop
    vertex 3.788734436035156 64.80731201171875 44.78448486328125
    vertex 3.788734436035156 47.27938079833984 44.78448486328125
    vertex 8.950103759765625 53.47805404663086 46.47824096679688
  endloop
endfacet
facet normal -0.3013900220394135 6.880891734657214e-16 0.9535009264945984
  outer loop
    vertex 17.03466033935547 64.80731201171875 48.99603271484375
    vertex 11.94176483154297 53.47805404663086 47.38623046875
    vertex 17.03466033935547 47.27938079833984 48.99603271484375
  endloop
endfacet
facet normal -0.1850647926330566 0.101791113615036 0.9774402976036072
  outer loop
    vertex 11.94176483154297 53.47805404663086 47.38623046875
    vertex 12.06501007080078 52.85845565795898 47.47409057617188
    vertex 17.03466033935547 47.27938079833984 48.99603271484375
  endloop
endfacet
endsolid D196
