solid A2E7
facet normal 3.222422328974517e-14 6.812898618591134e-07 1
  outer loop
    vertex 61.96232223510742 37.23886489868164 34.5848274230957
    vertex 54.58209991455078 64.80731201171875 34.58480834960938
    vertex 54.58209609985352 37.23886489868164 34.5848274230957
  endloop
endfacet
facet normal 3.222422328974517e-14 6.812898618591134e-07 1
  outer loop
    vertex 61.96232604980469 64.80731201171875 34.58480834960938
    vertex 54.58209991455078 64.80731201171875 34.58480834960938
    vertex 61.96232223510742 37.23886489868164 34.5848274230957
  endloop
endfacet
facet normal -1 9.57866248540995e-08 -3.303423412094088e-14
  outer loop
    vertex 54.58209609985352 37.23886489868164 34.5848274230957
    vertex 54.58209991455078 64.80731201171875 34.58480834960938
    vertex 54.58209991455078 64.80730438232422 23.38632011413574
  endloop
endfacet
facet normal -1 9.57866248540995e-08 -3.303423412094088e-14
  outer loop
    vertex 54.58209609985352 37.23885345458984 23.3863697052002
    vertex 54.58209609985352 37.23886489868164 34.5848274230957
    vertex 54.58209991455078 64.80730438232422 23.38632011413574
  endloop
endfacet
facet normal -4.135046310693724e-06 -6.812894639551814e-07 -1
  outer loop
    vertex 61.96232223510742 37.23885726928711 23.38633918762207
    vertex 54.58209609985352 37.23885345458984 23.3863697052002
    vertex 61.96232604980469 64.80730438232422 23.38632011413574
  endloop
endfacet
facet normal -1.382575965606231e-13 -1.788264626156888e-06 -1
  outer loop
    vertex 61.96232604980469 64.80730438232422 23.38632011413574
    vertex 54.58209609985352 37.23885345458984 23.3863697052002
    vertex 54.58209991455078 64.80730438232422 23.38632011413574
  endloop
endfacet
facet normal 1 -9.57866248540995e-08 3.303423412094088e-14
  outer loop
    vertex 61.96232223510742 37.23886489868164 34.5848274230957
    vertex 61.96232223510742 37.23885726928711 23.38633918762207
    vertex 61.96232604980469 64.80731201171875 34.58480834960938
  endloop
endfacet
facet normal 1 -9.57866248540995e-08 3.303423412094088e-14
  outer loop
    vertex 61.96232223510742 37.23885726928711 23.38633918762207
    vertex 61.96232604980469 64.80730438232422 23.38632011413574
    vertex 61.96232604980469 64.80731201171875 34.58480834960938
  endloop
endfacet
facet normal 3.542270405887393e-07 1 -6.812898618591134e-07
  outer loop
    vertex 54.58209991455078 64.80730438232422 23.38632011413574
    vertex 54.58209991455078 64.80731201171875 34.58480834960938
    vertex 61.96232604980469 64.80731201171875 34.58480834960938
  endloop
endfacet
facet normal 9.57866248540995e-08 1 -5.109678795633954e-07
  outer loop
    vertex 54.58209991455078 64.80730438232422 23.38632011413574
    vertex 61.96232604980469 64.80731201171875 34.58480834960938
    vertex 61.96232604980469 64.80730438232422 23.38632011413574
  endloop
endfacet
facet normal -0.9903591275215149 -0.1380539238452911 0.01139935292303562
  outer loop
    vertex 55.58996963500977 8.53581428527832 16.08817100524902
    vertex 54.86861801147461 15.23201656341553 34.51382446289063
    vertex 54.44812393188477 16.90614891052246 18.25680541992188
  endloop
endfacet
facet normal -0.9698742628097534 -0.2436060607433319 -1.484246183736104e-07
  outer loop
    vertex 54.86861801147461 15.23201656341553 34.51382446289063
    vertex 54.44812393188477 16.9061393737793 34.51382446289063
    vertex 54.44812393188477 16.90614891052246 18.25680541992188
  endloop
endfacet
facet normal -0.8850370049476624 -0.4655206501483917 -2.836329713318264e-07
  outer loop
    vertex 54.44812393188477 16.9061393737793 34.51382446289063
    vertex 50.57162094116211 24.27606391906738 20.17165756225586
    vertex 54.44812393188477 16.90614891052246 18.25680541992188
  endloop
endfacet
facet normal -0.8850383162498474 -0.4655181467533112 1.358103531856614e-06
  outer loop
    vertex 54.44812393188477 16.9061393737793 34.51382446289063
    vertex 50.5716438293457 24.27606201171875 34.51382064819336
    vertex 50.57162094116211 24.27606391906738 20.17165756225586
  endloop
endfacet
facet normal -0.2072547823190689 -0.9782869815826416 2.166399895031645e-07
  outer loop
    vertex 50.57162094116211 24.27606391906738 20.17165756225586
    vertex 50.5716438293457 24.27606201171875 34.51382064819336
    vertex 43.28165817260742 25.82047653198242 20.54970741271973
  endloop
endfacet
facet normal -0.207252025604248 -0.9782875776290894 -1.285793814531644e-06
  outer loop
    vertex 43.28165817260742 25.82047653198242 20.54970741271973
    vertex 50.5716438293457 24.27606201171875 34.51382064819336
    vertex 43.28168869018555 25.8204517364502 34.51382064819336
  endloop
endfacet
facet normal -0.009608326479792595 -0.9999538660049438 -1.756237907102332e-06
  outer loop
    vertex 34.66973495483398 25.90322875976563 20.07659339904785
    vertex 43.28165817260742 25.82047653198242 20.54970741271973
    vertex 43.28168869018555 25.8204517364502 34.51382064819336
  endloop
endfacet
facet normal 0.2164523899555206 -0.9669617414474487 -0.1346601396799088
  outer loop
    vertex 34.66973495483398 25.90322875976563 20.07659339904785
    vertex 43.28168869018555 25.8204517364502 34.51382064819336
    vertex 34.66973495483398 23.8926887512207 34.51379013061523
  endloop
endfacet
facet normal -1.232608903833921e-09 -0.005477557424455881 0.9999849796295166
  outer loop
    vertex 61.96232223510742 37.23886489868164 34.5848274230957
    vertex 54.58209609985352 37.23886489868164 34.5848274230957
    vertex 50.5716438293457 24.27606201171875 34.51382064819336
  endloop
endfacet
facet normal -0.001089187804609537 -0.005140590015798807 0.9999861717224121
  outer loop
    vertex 54.58209609985352 37.23886489868164 34.5848274230957
    vertex 43.28168869018555 25.8204517364502 34.51382064819336
    vertex 50.5716438293457 24.27606201171875 34.51382064819336
  endloop
endfacet
facet normal -0.003899937262758613 -0.002050632843747735 0.9999902844429016
  outer loop
    vertex 61.96232223510742 37.23886489868164 34.5848274230957
    vertex 50.5716438293457 24.27606201171875 34.51382064819336
    vertex 54.44812393188477 16.9061393737793 34.51382446289063
  endloop
endfacet
facet normal -0.005626489873975515 -0.001412539975717664 0.9999831914901733
  outer loop
    vertex 61.96232223510742 37.23886489868164 34.5848274230957
    vertex 54.44812393188477 16.9061393737793 34.51382446289063
    vertex 54.86861801147461 15.23201656341553 34.51382446289063
  endloop
endfacet
facet normal 0.001783741405233741 -0.007983705960214138 0.999966561794281
  outer loop
    vertex 54.58209609985352 37.23886489868164 34.5848274230957
    vertex 34.66973495483398 23.8926887512207 34.51379013061523
    vertex 43.28168869018555 25.8204517364502 34.51382064819336
  endloop
endfacet
facet normal -0.004753705579787493 -0.9961355328559875 -0.08770080655813217
  outer loop
    vertex 34.66973495483398 26.8905200958252 8.862604141235352
    vertex 43.28165817260742 25.82047653198242 20.54970741271973
    vertex 34.66973495483398 25.90322875976563 20.07659339904785
  endloop
endfacet
facet normal -0.1233035624027252 -0.9923689961433411 3.521786027249618e-07
  outer loop
    vertex 34.66973495483398 26.8905200958252 8.862604141235352
    vertex 43.28165817260742 25.82047271728516 8.862634658813477
    vertex 43.28165817260742 25.82047653198242 20.54970741271973
  endloop
endfacet
facet normal -0.2072547823190689 -0.9782869815826416 3.471810714472667e-07
  outer loop
    vertex 43.28165817260742 25.82047271728516 8.862634658813477
    vertex 50.57162094116211 24.27606391906738 20.17165756225586
    vertex 43.28165817260742 25.82047653198242 20.54970741271973
  endloop
endfacet
facet normal -0.2072552591562271 -0.9782869219779968 6.664969873781956e-07
  outer loop
    vertex 43.28165817260742 25.82047271728516 8.862634658813477
    vertex 50.57162094116211 24.27605628967285 8.862635612487793
    vertex 50.57162094116211 24.27606391906738 20.17165756225586
  endloop
endfacet
facet normal -0.8850369453430176 -0.4655207693576813 3.171546154590033e-07
  outer loop
    vertex 54.44812393188477 16.90614891052246 18.25680541992188
    vertex 50.57162094116211 24.27606391906738 20.17165756225586
    vertex 50.57162094116211 24.27605628967285 8.862635612487793
  endloop
endfacet
facet normal -0.9144072532653809 -0.3997490406036377 0.06371914595365524
  outer loop
    vertex 54.44812393188477 15.40873432159424 8.862611770629883
    vertex 54.44812393188477 16.90614891052246 18.25680541992188
    vertex 50.57162094116211 24.27605628967285 8.862635612487793
  endloop
endfacet
facet normal -0.9897781610488892 -0.1408375352621078 0.02244921401143074
  outer loop
    vertex 55.58996963500977 8.53581428527832 16.08817100524902
    vertex 54.44812393188477 16.90614891052246 18.25680541992188
    vertex 54.44812393188477 15.40873432159424 8.862611770629883
  endloop
endfacet
facet normal -0.9864785671234131 -0.1638901978731155 1.981818655849565e-07
  outer loop
    vertex 55.58996963500977 8.535805702209473 8.862616539001465
    vertex 55.58996963500977 8.53581428527832 16.08817100524902
    vertex 54.44812393188477 15.40873432159424 8.862611770629883
  endloop
endfacet
facet normal -6.795351623622992e-07 1 -8.1261612194794e-07
  outer loop
    vertex 61.96232223510742 37.23884582519531 8.86259651184082
    vertex 54.58209609985352 37.23885345458984 23.3863697052002
    vertex 61.96232223510742 37.23885726928711 23.38633918762207
  endloop
endfacet
facet normal -4.210941995097528e-07 1 -6.812898618591134e-07
  outer loop
    vertex 54.58209609985352 37.23884582519531 8.86259651184082
    vertex 54.58209609985352 37.23885345458984 23.3863697052002
    vertex 61.96232223510742 37.23884582519531 8.86259651184082
  endloop
endfacet
facet normal 9.591347898199598e-13 -3.035535200979211e-06 -1
  outer loop
    vertex 61.96232223510742 37.23884582519531 8.86259651184082
    vertex 50.57162094116211 24.27605628967285 8.862635612487793
    vertex 54.58209609985352 37.23884582519531 8.86259651184082
  endloop
endfacet
facet normal -4.68079207394112e-07 -2.890718633352662e-06 -1
  outer loop
    vertex 54.58209609985352 37.23884582519531 8.86259651184082
    vertex 50.57162094116211 24.27605628967285 8.862635612487793
    vertex 43.28165817260742 25.82047271728516 8.862634658813477
  endloop
endfacet
facet normal -4.404487754072761e-06 8.347904554284469e-07 -1
  outer loop
    vertex 61.96232223510742 37.23884582519531 8.86259651184082
    vertex 54.44812393188477 15.40873432159424 8.862611770629883
    vertex 50.57162094116211 24.27605628967285 8.862635612487793
  endloop
endfacet
facet normal 2.859883124983753e-06 -6.184308858792065e-06 -1
  outer loop
    vertex 54.58209609985352 37.23884582519531 8.86259651184082
    vertex 43.28165817260742 25.82047271728516 8.862634658813477
    vertex 34.66973495483398 26.8905200958252 8.862604141235352
  endloop
endfacet
facet normal 8.311950239203725e-08 0.8677570819854736 0.4969886243343353
  outer loop
    vertex 54.44812393188477 17.8390998840332 3.051758176297881e-05
    vertex 54.44812393188477 15.40649223327637 4.247437953948975
    vertex 61.93181991577148 15.40649127960205 4.247437953948975
  endloop
endfacet
facet normal 8.311950239203725e-08 0.8677570819854736 0.4969886243343353
  outer loop
    vertex 54.44812393188477 17.8390998840332 3.051758176297881e-05
    vertex 61.93181991577148 15.40649127960205 4.247437953948975
    vertex 61.93181991577148 17.8390998840332 3.051758176297881e-05
  endloop
endfacet
facet normal -7.966048087837407e-08 -0.8316448926925659 0.5553078055381775
  outer loop
    vertex 61.93181610107422 7.105427357601002e-15 4.267117765266448e-05
    vertex 54.4481201171875 2.836045980453491 4.247385501861572
    vertex 54.4481201171875 7.168379738686781e-07 4.267117765266448e-05
  endloop
endfacet
facet normal -7.966048087837407e-08 -0.8316448926925659 0.5553078055381775
  outer loop
    vertex 61.93181610107422 7.105427357601002e-15 4.267117765266448e-05
    vertex 61.93181610107422 2.836045265197754 4.247385501861572
    vertex 54.4481201171875 2.836045980453491 4.247385501861572
  endloop
endfacet
facet normal -9.57866248540995e-08 -1 -1.447959334655025e-07
  outer loop
    vertex 61.93181610107422 2.836045265197754 4.247385501861572
    vertex 54.4481201171875 2.836045265197754 8.86518383026123
    vertex 54.4481201171875 2.836045980453491 4.247385501861572
  endloop
endfacet
facet normal -9.57866248540995e-08 -1 -1.447959334655025e-07
  outer loop
    vertex 61.93181610107422 2.836045265197754 4.247385501861572
    vertex 61.93181610107422 2.836044549942017 8.86518383026123
    vertex 54.4481201171875 2.836045265197754 8.86518383026123
  endloop
endfacet
facet normal -0.9805179834365845 0.1964294463396072 2.844213931041395e-08
  outer loop
    vertex 54.4481201171875 2.836045265197754 8.86518383026123
    vertex 55.58996963500977 8.535805702209473 8.862616539001465
    vertex 54.4481201171875 2.836045980453491 4.247385501861572
  endloop
endfacet
facet normal -0.9864785671234131 -0.1638901978731155 7.962928066262975e-05
  outer loop
    vertex 55.58996963500977 8.535805702209473 8.862616539001465
    vertex 54.44812393188477 15.40873432159424 8.862611770629883
    vertex 54.44812393188477 15.40649223327637 4.247437953948975
  endloop
endfacet
facet normal 1 -9.57866248540995e-08 3.303423412094088e-14
  outer loop
    vertex 61.93181610107422 7.105427357601002e-15 4.267117765266448e-05
    vertex 61.93181991577148 17.8390998840332 3.051758176297881e-05
    vertex 61.93181991577148 15.40649127960205 4.247437953948975
  endloop
endfacet
facet normal 1 -9.57866248540995e-08 3.303423412094088e-14
  outer loop
    vertex 61.93181610107422 7.105427357601002e-15 4.267117765266448e-05
    vertex 61.93181991577148 15.40649127960205 4.247437953948975
    vertex 61.93181610107422 2.836045265197754 4.247385501861572
  endloop
endfacet
facet normal 1 -9.57866248540995e-08 3.303423412094088e-14
  outer loop
    vertex 61.93181610107422 2.836044549942017 8.86518383026123
    vertex 61.93181610107422 2.836045265197754 4.247385501861572
    vertex 61.93181991577148 15.40649127960205 4.247437953948975
  endloop
endfacet
facet normal 1 -9.57866248540995e-08 3.303423412094088e-14
  outer loop
    vertex 61.93181610107422 2.836044549942017 8.86518383026123
    vertex 61.93181991577148 15.40649127960205 4.247437953948975
    vertex 61.93181991577148 15.40648651123047 8.864900588989258
  endloop
endfacet
facet normal 0.9999977946281433 -1.431107392591002e-07 -0.002100426703691483
  outer loop
    vertex 61.93181610107422 2.836044549942017 8.86518383026123
    vertex 61.93181991577148 15.40648651123047 8.864900588989258
    vertex 61.96232223510742 37.23885726928711 23.38633918762207
  endloop
endfacet
facet normal 9.578661064324479e-08 0.9999998807907104 -0.0004858693573623896
  outer loop
    vertex 61.93181991577148 15.40649127960205 4.247437953948975
    vertex 54.44812393188477 15.40649223327637 4.247437953948975
    vertex 54.44812393188477 15.40873432159424 8.862611770629883
  endloop
endfacet
facet normal 0.0003003288293257356 0.9999999403953552 9.710017820907524e-07
  outer loop
    vertex 61.93181991577148 15.40649127960205 4.247437953948975
    vertex 54.44812393188477 15.40873432159424 8.862611770629883
    vertex 61.93181991577148 15.40648651123047 8.864900588989258
  endloop
endfacet
facet normal 0.0003058090223930776 -0.0001059446149156429 -0.9999999403953552
  outer loop
    vertex 61.96232223510742 37.23884582519531 8.86259651184082
    vertex 61.93181991577148 15.40648651123047 8.864900588989258
    vertex 54.44812393188477 15.40873432159424 8.862611770629883
  endloop
endfacet
facet normal 0.9999990463256836 -0.001397209474816918 1.135350147229985e-09
  outer loop
    vertex 61.93181991577148 15.40648651123047 8.864900588989258
    vertex 61.96232223510742 37.23884582519531 8.86259651184082
    vertex 61.96232223510742 37.23885726928711 23.38633918762207
  endloop
endfacet
facet normal -0.9999990463256836 -0.001397018320858479 5.265314939606469e-07
  outer loop
    vertex 7.407633781433105 15.40649604797363 8.864870071411133
    vertex 7.377140998840332 37.23886108398438 23.38630867004395
    vertex 7.377133369445801 37.23884963989258 8.862565994262695
  endloop
endfacet
facet normal -0.0003058087604586035 -0.0001059445858118124 -0.9999999403953552
  outer loop
    vertex 14.89133739471436 15.4087381362915 8.862581253051758
    vertex 7.407633781433105 15.40649604797363 8.864870071411133
    vertex 7.377133369445801 37.23884963989258 8.862565994262695
  endloop
endfacet
facet normal -4.139471911912551e-07 0.9999998807907104 -0.0004850428085774183
  outer loop
    vertex 7.407633781433105 15.40649700164795 4.24740743637085
    vertex 14.89133739471436 15.4087381362915 8.862581253051758
    vertex 14.89133739471436 15.4064998626709 4.24740743637085
  endloop
endfacet
facet normal -0.0002996274561155587 0.9999999403953552 1.448559885375289e-07
  outer loop
    vertex 7.407633781433105 15.40649700164795 4.24740743637085
    vertex 7.407633781433105 15.40649604797363 8.864870071411133
    vertex 14.89133739471436 15.4087381362915 8.862581253051758
  endloop
endfacet
facet normal -0.9999977946281433 4.847392176543508e-08 -0.002099901437759399
  outer loop
    vertex 7.407632827758789 2.836053609848022 8.865153312683105
    vertex 7.377140998840332 37.23886108398438 23.38630867004395
    vertex 7.407633781433105 15.40649604797363 8.864870071411133
  endloop
endfacet
facet normal -1 9.57866248540995e-08 -3.303423412094088e-14
  outer loop
    vertex 7.407632827758789 2.836053609848022 8.865153312683105
    vertex 7.407633781433105 15.40649700164795 4.24740743637085
    vertex 7.407632827758789 2.836050510406494 4.247354984283447
  endloop
endfacet
facet normal -1 9.57866248540995e-08 -3.303423412094088e-14
  outer loop
    vertex 7.407632827758789 2.836053609848022 8.865153312683105
    vertex 7.407633781433105 15.40649604797363 8.864870071411133
    vertex 7.407633781433105 15.40649700164795 4.24740743637085
  endloop
endfacet
facet normal -1 9.57866248540995e-08 -3.303423412094088e-14
  outer loop
    vertex 7.407632350921631 5.222666914050933e-06 1.215359952766448e-05
    vertex 7.407633781433105 15.40649700164795 4.24740743637085
    vertex 7.407634258270264 17.83910751342773 8.526512829121202e-14
  endloop
endfacet
facet normal -1 9.57866248540995e-08 -3.303423412094088e-14
  outer loop
    vertex 7.407632350921631 5.222666914050933e-06 1.215359952766448e-05
    vertex 7.407632827758789 2.836050510406494 4.247354984283447
    vertex 7.407633781433105 15.40649700164795 4.24740743637085
  endloop
endfacet
facet normal 0.9864783883094788 -0.163891464471817 7.949433347675949e-05
  outer loop
    vertex 13.74948310852051 8.535809516906738 8.86258602142334
    vertex 14.89133739471436 15.4064998626709 4.24740743637085
    vertex 14.89133739471436 15.4087381362915 8.862581253051758
  endloop
endfacet
facet normal 0.9805176854133606 0.1964307725429535 -2.960950666874851e-07
  outer loop
    vertex 14.89133644104004 2.836049795150757 4.247354984283447
    vertex 13.74948310852051 8.535809516906738 8.86258602142334
    vertex 14.89133644104004 2.836056709289551 8.865153312683105
  endloop
endfacet
facet normal -9.57866248540995e-08 -1 1.507375714027148e-06
  outer loop
    vertex 14.89133644104004 2.836049795150757 4.247354984283447
    vertex 14.89133644104004 2.836056709289551 8.865153312683105
    vertex 7.407632827758789 2.836050510406494 4.247354984283447
  endloop
endfacet
facet normal 4.13947248034674e-07 -1 6.812898618591134e-07
  outer loop
    vertex 7.407632827758789 2.836050510406494 4.247354984283447
    vertex 14.89133644104004 2.836056709289551 8.865153312683105
    vertex 7.407632827758789 2.836053609848022 8.865153312683105
  endloop
endfacet
facet normal -7.966048087837407e-08 -0.8316448926925659 0.5553078055381775
  outer loop
    vertex 14.89133548736572 4.50582820121781e-06 1.215359952766448e-05
    vertex 14.89133644104004 2.836049795150757 4.247354984283447
    vertex 7.407632350921631 5.222666914050933e-06 1.215359952766448e-05
  endloop
endfacet
facet normal -7.966048087837407e-08 -0.8316448926925659 0.5553078055381775
  outer loop
    vertex 7.407632350921631 5.222666914050933e-06 1.215359952766448e-05
    vertex 14.89133644104004 2.836049795150757 4.247354984283447
    vertex 7.407632827758789 2.836050510406494 4.247354984283447
  endloop
endfacet
facet normal -3.592055577428255e-07 0.8677572011947632 0.4969883263111115
  outer loop
    vertex 14.89133739471436 17.8391056060791 2.486899575160351e-13
    vertex 7.407633781433105 15.40649700164795 4.24740743637085
    vertex 14.89133739471436 15.4064998626709 4.24740743637085
  endloop
endfacet
facet normal 8.311948818118253e-08 0.8677569031715393 0.4969889223575592
  outer loop
    vertex 14.89133739471436 17.8391056060791 2.486899575160351e-13
    vertex 7.407634258270264 17.83910751342773 8.526512829121202e-14
    vertex 7.407633781433105 15.40649700164795 4.24740743637085
  endloop
endfacet
facet normal 3.155601689286414e-06 2.441719288981403e-06 -1
  outer loop
    vertex 34.66973495483398 26.8905200958252 8.862604141235352
    vertex 26.05780410766602 25.82047653198242 8.862573623657227
    vertex 14.75736713409424 37.23884963989258 8.862565994262695
  endloop
endfacet
facet normal -3.222422328974517e-14 -6.812898618591134e-07 -1
  outer loop
    vertex 18.76784133911133 24.27606010437012 8.862574577331543
    vertex 14.89133739471436 15.4087381362915 8.862581253051758
    vertex 7.377133369445801 37.23884963989258 8.862565994262695
  endloop
endfacet
facet normal -3.222422328974517e-14 -6.812898618591134e-07 -1
  outer loop
    vertex 18.76784133911133 24.27606010437012 8.862574577331543
    vertex 7.377133369445801 37.23884963989258 8.862565994262695
    vertex 14.75736713409424 37.23884963989258 8.862565994262695
  endloop
endfacet
facet normal -3.222422328974517e-14 -6.812898618591134e-07 -1
  outer loop
    vertex 26.05780410766602 25.82047653198242 8.862573623657227
    vertex 18.76784133911133 24.27606010437012 8.862574577331543
    vertex 14.75736713409424 37.23884963989258 8.862565994262695
  endloop
endfacet
facet normal 8.711086820767378e-07 1 -8.782796498962853e-07
  outer loop
    vertex 7.377133369445801 37.23884963989258 8.862565994262695
    vertex 7.377140998840332 37.23886108398438 23.38630867004395
    vertex 14.75736713409424 37.23885726928711 23.38633918762207
  endloop
endfacet
facet normal 2.250066870601586e-07 1 -5.499638859873812e-07
  outer loop
    vertex 7.377133369445801 37.23884963989258 8.862565994262695
    vertex 14.75736713409424 37.23885726928711 23.38633918762207
    vertex 14.75736713409424 37.23884963989258 8.862565994262695
  endloop
endfacet
facet normal 0.9897779822349548 -0.1408386528491974 0.02244936116039753
  outer loop
    vertex 13.74948310852051 8.535818099975586 16.0881404876709
    vertex 14.89133739471436 15.4087381362915 8.862581253051758
    vertex 14.89133739471436 16.90615272521973 18.25677490234375
  endloop
endfacet
facet normal 0.9864783883094788 -0.163891464471817 1.981832156161545e-07
  outer loop
    vertex 13.74948310852051 8.535809516906738 8.86258602142334
    vertex 14.89133739471436 15.4087381362915 8.862581253051758
    vertex 13.74948310852051 8.535818099975586 16.0881404876709
  endloop
endfacet
facet normal 0.885036826133728 -0.4655210077762604 1.601281667262811e-07
  outer loop
    vertex 14.89133739471436 16.90615272521973 18.25677490234375
    vertex 18.76784133911133 24.27606010437012 8.862574577331543
    vertex 18.76784133911133 24.27606391906738 20.17162704467773
  endloop
endfacet
facet normal 0.9144072532653809 -0.3997489511966705 0.06371910870075226
  outer loop
    vertex 14.89133739471436 15.4087381362915 8.862581253051758
    vertex 18.76784133911133 24.27606010437012 8.862574577331543
    vertex 14.89133739471436 16.90615272521973 18.25677490234375
  endloop
endfacet
facet normal 0.2072550803422928 -0.9782869219779968 3.471818956768402e-07
  outer loop
    vertex 26.05780410766602 25.82047653198242 8.862573623657227
    vertex 26.05780410766602 25.82048034667969 20.5496768951416
    vertex 18.76784133911133 24.27606391906738 20.17162704467773
  endloop
endfacet
facet normal 0.2072550654411316 -0.9782869219779968 3.365074690009351e-07
  outer loop
    vertex 26.05780410766602 25.82047653198242 8.862573623657227
    vertex 18.76784133911133 24.27606391906738 20.17162704467773
    vertex 18.76784133911133 24.27606010437012 8.862574577331543
  endloop
endfacet
facet normal 0.004753600805997849 -0.9961355328559875 -0.08770080655813217
  outer loop
    vertex 34.66973495483398 26.8905200958252 8.862604141235352
    vertex 34.66973495483398 25.90322875976563 20.07659339904785
    vertex 26.05780410766602 25.82048034667969 20.5496768951416
  endloop
endfacet
facet normal 0.123303048312664 -0.9923690557479858 3.521794553762447e-07
  outer loop
    vertex 26.05780410766602 25.82047653198242 8.862573623657227
    vertex 34.66973495483398 26.8905200958252 8.862604141235352
    vertex 26.05780410766602 25.82048034667969 20.5496768951416
  endloop
endfacet
facet normal -0.001793610746972263 -0.007996143773198128 0.9999664425849915
  outer loop
    vertex 34.66973495483398 23.8926887512207 34.51379013061523
    vertex 14.75736713409424 37.23886871337891 34.58479690551758
    vertex 26.05777359008789 25.8204517364502 34.51375961303711
  endloop
endfacet
facet normal 0.006043936125934124 -0.001259762095287442 0.9999809265136719
  outer loop
    vertex 14.89133739471436 16.9061450958252 34.51376342773438
    vertex 7.377140998840332 37.23886871337891 34.58479690551758
    vertex 14.54759502410889 15.25786876678467 34.51376342773438
  endloop
endfacet
facet normal 0.003896989626809955 -0.002053224015980959 0.9999902844429016
  outer loop
    vertex 18.76781845092773 24.27606582641602 34.51379013061523
    vertex 7.377140998840332 37.23886871337891 34.58479690551758
    vertex 14.89133739471436 16.9061450958252 34.51376342773438
  endloop
endfacet
facet normal 1.831894080872587e-10 -0.00547755928710103 0.9999849796295166
  outer loop
    vertex 18.76781845092773 24.27606582641602 34.51379013061523
    vertex 14.75736713409424 37.23886871337891 34.58479690551758
    vertex 7.377140998840332 37.23886871337891 34.58479690551758
  endloop
endfacet
facet normal 0.00109311321284622 -0.00513937696814537 0.9999861717224121
  outer loop
    vertex 26.05777359008789 25.8204517364502 34.51375961303711
    vertex 14.75736713409424 37.23886871337891 34.58479690551758
    vertex 18.76781845092773 24.27606582641602 34.51379013061523
  endloop
endfacet
facet normal 0.009607890620827675 -0.9999538660049438 -2.029410552495392e-06
  outer loop
    vertex 34.66973495483398 25.90322875976563 20.07659339904785
    vertex 26.05777359008789 25.8204517364502 34.51375961303711
    vertex 26.05780410766602 25.82048034667969 20.5496768951416
  endloop
endfacet
facet normal -0.2164512872695923 -0.9669619798660278 -0.1346601843833923
  outer loop
    vertex 34.66973495483398 25.90322875976563 20.07659339904785
    vertex 34.66973495483398 23.8926887512207 34.51379013061523
    vertex 26.05777359008789 25.8204517364502 34.51375961303711
  endloop
endfacet
facet normal 0.2072550803422928 -0.9782869219779968 4.768434109791997e-07
  outer loop
    vertex 18.76784133911133 24.27606391906738 20.17162704467773
    vertex 26.05780410766602 25.82048034667969 20.5496768951416
    vertex 18.76781845092773 24.27606582641602 34.51379013061523
  endloop
endfacet
facet normal 0.2072513550519943 -0.9782877564430237 -1.553047241031891e-06
  outer loop
    vertex 26.05780410766602 25.82048034667969 20.5496768951416
    vertex 26.05777359008789 25.8204517364502 34.51375961303711
    vertex 18.76781845092773 24.27606582641602 34.51379013061523
  endloop
endfacet
facet normal 0.8850368857383728 -0.4655209183692932 -2.290169334173697e-07
  outer loop
    vertex 14.89133739471436 16.9061450958252 34.51376342773438
    vertex 14.89133739471436 16.90615272521973 18.25677490234375
    vertex 18.76784133911133 24.27606391906738 20.17162704467773
  endloop
endfacet
facet normal 0.8850382566452026 -0.4655183255672455 1.481921117374441e-06
  outer loop
    vertex 14.89133739471436 16.9061450958252 34.51376342773438
    vertex 18.76784133911133 24.27606391906738 20.17162704467773
    vertex 18.76781845092773 24.27606582641602 34.51379013061523
  endloop
endfacet
facet normal 0.9905518889427185 -0.1369566917419434 0.007058586925268173
  outer loop
    vertex 13.74948310852051 8.535818099975586 16.0881404876709
    vertex 14.89133739471436 16.90615272521973 18.25677490234375
    vertex 14.54759502410889 15.25786876678467 34.51376342773438
  endloop
endfacet
facet normal 0.9789386987686157 -0.2041545212268829 -1.004354857059298e-07
  outer loop
    vertex 14.54759502410889 15.25786876678467 34.51376342773438
    vertex 14.89133739471436 16.90615272521973 18.25677490234375
    vertex 14.89133739471436 16.9061450958252 34.51376342773438
  endloop
endfacet
facet normal -4.210936594972736e-07 1 -5.109674248160445e-07
  outer loop
    vertex 14.75736999511719 64.80730438232422 23.38632011413574
    vertex 7.37713623046875 64.80731201171875 34.58477783203125
    vertex 14.75736999511719 64.80731201171875 34.58477783203125
  endloop
endfacet
facet normal 3.54226756371645e-07 1 -6.882976339402279e-20
  outer loop
    vertex 14.75736999511719 64.80730438232422 23.38632011413574
    vertex 7.37713623046875 64.80731201171875 23.38632011413574
    vertex 7.37713623046875 64.80731201171875 34.58477783203125
  endloop
endfacet
facet normal -1 -1.809571443800451e-07 8.480516229579863e-14
  outer loop
    vertex 7.377140998840332 37.23886871337891 34.58479690551758
    vertex 7.37713623046875 64.80731201171875 34.58477783203125
    vertex 7.377140998840332 37.23886108398438 23.38630867004395
  endloop
endfacet
facet normal -1 -1.809571017474809e-07 -3.303423412094088e-14
  outer loop
    vertex 7.377140998840332 37.23886108398438 23.38630867004395
    vertex 7.37713623046875 64.80731201171875 34.58477783203125
    vertex 7.37713623046875 64.80731201171875 23.38632011413574
  endloop
endfacet
facet normal 4.135047220188426e-06 4.256857835116534e-07 -1
  outer loop
    vertex 14.75736713409424 37.23885726928711 23.38633918762207
    vertex 7.377140998840332 37.23886108398438 23.38630867004395
    vertex 7.37713623046875 64.80731201171875 23.38632011413574
  endloop
endfacet
facet normal -3.222422328974517e-14 -6.812898618591134e-07 -1
  outer loop
    vertex 14.75736713409424 37.23885726928711 23.38633918762207
    vertex 7.37713623046875 64.80731201171875 23.38632011413574
    vertex 14.75736999511719 64.80730438232422 23.38632011413574
  endloop
endfacet
facet normal 1 -9.57866248540995e-08 3.303423412094088e-14
  outer loop
    vertex 14.75736713409424 37.23885726928711 23.38633918762207
    vertex 14.75736999511719 64.80730438232422 23.38632011413574
    vertex 14.75736713409424 37.23886871337891 34.58479690551758
  endloop
endfacet
facet normal 1 -9.57866248540995e-08 3.303423412094088e-14
  outer loop
    vertex 14.75736713409424 37.23886871337891 34.58479690551758
    vertex 14.75736999511719 64.80730438232422 23.38632011413574
    vertex 14.75736999511719 64.80731201171875 34.58477783203125
  endloop
endfacet
facet normal 3.222422328974517e-14 6.812898618591134e-07 1
  outer loop
    vertex 14.75736999511719 64.80731201171875 34.58477783203125
    vertex 7.377140998840332 37.23886871337891 34.58479690551758
    vertex 14.75736713409424 37.23886871337891 34.58479690551758
  endloop
endfacet
facet normal 3.222422328974517e-14 6.812898618591134e-07 1
  outer loop
    vertex 14.75736999511719 64.80731201171875 34.58477783203125
    vertex 7.37713623046875 64.80731201171875 34.58477783203125
    vertex 7.377140998840332 37.23886871337891 34.58479690551758
  endloop
endfacet
facet normal -0.999999463558197 -0.0009963945485651493 0.0002608189242891967
  outer loop
    vertex 7.407632827758789 2.836053609848022 8.865153312683105
    vertex 7.407633304595947 9.558109283447266 34.54758071899414
    vertex 7.377140998840332 37.23886108398438 23.38630867004395
  endloop
endfacet
facet normal -0.9999994039535522 -0.00110156019218266 4.690596244749656e-10
  outer loop
    vertex 7.407633304595947 9.558109283447266 34.54758071899414
    vertex 7.377140998840332 37.23886871337891 34.58479690551758
    vertex 7.377140998840332 37.23886108398438 23.38630867004395
  endloop
endfacet
facet normal 0.999999463558197 -0.0009957081638276577 0.0002582140441518277
  outer loop
    vertex 61.93181610107422 2.836044549942017 8.86518383026123
    vertex 61.96232223510742 37.23885726928711 23.38633918762207
    vertex 61.93181991577148 9.532259941101074 34.68420791625977
  endloop
endfacet
facet normal 0.9999994039535522 -0.00110099941957742 4.688053834023265e-10
  outer loop
    vertex 61.93181991577148 9.532259941101074 34.68420791625977
    vertex 61.96232223510742 37.23885726928711 23.38633918762207
    vertex 61.96232223510742 37.23886489868164 34.5848274230957
  endloop
endfacet
facet normal -0.02120435424149036 0.003609535051509738 0.9997686743736267
  outer loop
    vertex 61.96232223510742 37.23886489868164 34.5848274230957
    vertex 54.86861801147461 15.23201656341553 34.51382446289063
    vertex 61.93181991577148 9.532259941101074 34.68420791625977
  endloop
endfacet
facet normal 0.005804323125630617 -0.001337930909357965 0.9999822378158569
  outer loop
    vertex 14.54759502410889 15.25786876678467 34.51376342773438
    vertex 7.377140998840332 37.23886871337891 34.58479690551758
    vertex 7.407633304595947 9.558109283447266 34.54758071899414
  endloop
endfacet
facet normal -3.222422328974517e-14 -6.812898618591134e-07 -1
  outer loop
    vertex 61.93181610107422 7.105427357601002e-15 4.267117765266448e-05
    vertex 55.5899772644043 8.53580379486084 3.685582487378269e-05
    vertex 61.93181991577148 17.8390998840332 3.051758176297881e-05
  endloop
endfacet
facet normal -3.222422328974517e-14 -6.812898618591134e-07 -1
  outer loop
    vertex 61.93181991577148 17.8390998840332 3.051758176297881e-05
    vertex 55.5899772644043 8.53580379486084 3.685582487378269e-05
    vertex 54.44812393188477 17.8390998840332 3.051758176297881e-05
  endloop
endfacet
facet normal -3.222422328974517e-14 -6.812898618591134e-07 -1
  outer loop
    vertex 61.93181610107422 7.105427357601002e-15 4.267117765266448e-05
    vertex 54.4481201171875 7.168379738686781e-07 4.267117765266448e-05
    vertex 55.5899772644043 8.53580379486084 3.685582487378269e-05
  endloop
endfacet
facet normal -0.9864697456359863 -0.1639433354139328 -1.654547872931289e-06
  outer loop
    vertex 55.58996963500977 8.535805702209473 8.862616539001465
    vertex 54.44812393188477 15.40649223327637 4.247437953948975
    vertex 55.5899772644043 8.535806655883789 4.247412204742432
  endloop
endfacet
facet normal -0.9805176854133606 0.1964307129383087 -1.592360604263376e-06
  outer loop
    vertex 54.4481201171875 2.836045980453491 4.247385501861572
    vertex 55.58996963500977 8.535805702209473 8.862616539001465
    vertex 55.5899772644043 8.535806655883789 4.247412204742432
  endloop
endfacet
facet normal -0.9864697456359863 -0.1639433354139328 1.116929695399449e-07
  outer loop
    vertex 55.5899772644043 8.53580379486084 3.685582487378269e-05
    vertex 55.5899772644043 8.535806655883789 4.247412204742432
    vertex 54.44812393188477 15.40649223327637 4.247437953948975
  endloop
endfacet
facet normal -0.9901448488235474 -0.1215267777442932 -0.06960182636976242
  outer loop
    vertex 55.5899772644043 8.53580379486084 3.685582487378269e-05
    vertex 54.44812393188477 15.40649223327637 4.247437953948975
    vertex 54.44812393188477 17.8390998840332 3.051758176297881e-05
  endloop
endfacet
facet normal -0.972190797328949 0.1947631537914276 -0.130047619342804
  outer loop
    vertex 54.4481201171875 7.168379738686781e-07 4.267117765266448e-05
    vertex 54.4481201171875 2.836045980453491 4.247385501861572
    vertex 55.5899772644043 8.535806655883789 4.247412204742432
  endloop
endfacet
facet normal -0.9911708235740662 0.1325912177562714 -9.033302461602943e-08
  outer loop
    vertex 54.4481201171875 7.168379738686781e-07 4.267117765266448e-05
    vertex 55.5899772644043 8.535806655883789 4.247412204742432
    vertex 55.5899772644043 8.53580379486084 3.685582487378269e-05
  endloop
endfacet
facet normal 0.9864697456359863 -0.1639434397220612 1.116929695399449e-07
  outer loop
    vertex 13.74948310852051 8.535807609558105 6.338243565551238e-06
    vertex 14.89133739471436 15.4064998626709 4.24740743637085
    vertex 13.74948310852051 8.535810470581055 4.247381687164307
  endloop
endfacet
facet normal 0.9901448488235474 -0.1215269491076469 -0.06960175931453705
  outer loop
    vertex 13.74948310852051 8.535807609558105 6.338243565551238e-06
    vertex 14.89133739471436 17.8391056060791 2.486899575160351e-13
    vertex 14.89133739471436 15.4064998626709 4.24740743637085
  endloop
endfacet
facet normal 0.972190797328949 0.1947629600763321 -0.130047619342804
  outer loop
    vertex 14.89133548736572 4.50582820121781e-06 1.215359952766448e-05
    vertex 13.74948310852051 8.535810470581055 4.247381687164307
    vertex 14.89133644104004 2.836049795150757 4.247354984283447
  endloop
endfacet
facet normal 0.9911708235740662 0.1325910240411758 -9.033296066718322e-08
  outer loop
    vertex 14.89133548736572 4.50582820121781e-06 1.215359952766448e-05
    vertex 13.74948310852051 8.535807609558105 6.338243565551238e-06
    vertex 13.74948310852051 8.535810470581055 4.247381687164307
  endloop
endfacet
facet normal 0.9864697456359863 -0.1639434397220612 -2.381441710497256e-08
  outer loop
    vertex 13.74948310852051 8.535809516906738 8.86258602142334
    vertex 13.74948310852051 8.535810470581055 4.247381687164307
    vertex 14.89133739471436 15.4064998626709 4.24740743637085
  endloop
endfacet
facet normal 0.9805177450180054 0.1964305192232132 2.853358971321995e-08
  outer loop
    vertex 14.89133644104004 2.836049795150757 4.247354984283447
    vertex 13.74948310852051 8.535810470581055 4.247381687164307
    vertex 13.74948310852051 8.535809516906738 8.86258602142334
  endloop
endfacet
facet normal -3.222422328974517e-14 -6.812898618591134e-07 -1
  outer loop
    vertex 13.74948310852051 8.535807609558105 6.338243565551238e-06
    vertex 7.407632350921631 5.222666914050933e-06 1.215359952766448e-05
    vertex 7.407634258270264 17.83910751342773 8.526512829121202e-14
  endloop
endfacet
facet normal -3.222422328974517e-14 -6.812898618591134e-07 -1
  outer loop
    vertex 14.89133739471436 17.8391056060791 2.486899575160351e-13
    vertex 13.74948310852051 8.535807609558105 6.338243565551238e-06
    vertex 7.407634258270264 17.83910751342773 8.526512829121202e-14
  endloop
endfacet
facet normal -3.222422328974517e-14 -6.812898618591134e-07 -1
  outer loop
    vertex 14.89133548736572 4.50582820121781e-06 1.215359952766448e-05
    vertex 7.407632350921631 5.222666914050933e-06 1.215359952766448e-05
    vertex 13.74948310852051 8.535807609558105 6.338243565551238e-06
  endloop
endfacet
facet normal -0.02080687694251537 0.004102286417037249 0.9997751116752625
  outer loop
    vertex 61.93181991577148 9.532259941101074 34.68420791625977
    vertex 54.86861801147461 15.23201656341553 34.51382446289063
    vertex 55.65426254272461 9.532259941101074 34.55356216430664
  endloop
endfacet
facet normal -9.268929801464765e-08 -0.9676641821861267 0.2522419691085815
  outer loop
    vertex 61.93181610107422 2.836044549942017 8.86518383026123
    vertex 55.65426254272461 9.532259941101074 34.55356216430664
    vertex 54.4481201171875 2.836045265197754 8.86518383026123
  endloop
endfacet
facet normal -0.005224671214818954 -0.9679619073867798 0.2510428130626678
  outer loop
    vertex 61.93181610107422 2.836044549942017 8.86518383026123
    vertex 61.93181991577148 9.532259941101074 34.68420791625977
    vertex 55.65426254272461 9.532259941101074 34.55356216430664
  endloop
endfacet
facet normal -0.9805179834365845 0.1964294463396072 -2.375292922351946e-07
  outer loop
    vertex 54.4481201171875 2.836045265197754 8.86518383026123
    vertex 55.58996963500977 8.53581428527832 16.08817100524902
    vertex 55.58996963500977 8.535805702209473 8.862616539001465
  endloop
endfacet
facet normal -0.9785652160644531 0.2057932019233704 -0.00769801577553153
  outer loop
    vertex 54.4481201171875 2.836045265197754 8.86518383026123
    vertex 55.65426254272461 9.532259941101074 34.55356216430664
    vertex 55.58996963500977 8.53581428527832 16.08817100524902
  endloop
endfacet
facet normal -0.9905858635902405 -0.1364651471376419 0.01081308536231518
  outer loop
    vertex 55.58996963500977 8.53581428527832 16.08817100524902
    vertex 55.65426254272461 9.532259941101074 34.55356216430664
    vertex 54.86861801147461 15.23201656341553 34.51382446289063
  endloop
endfacet
facet normal -0.0009362855344079435 0.007105831988155842 0.9999743103981018
  outer loop
    vertex 14.54759502410889 15.25786876678467 34.51376342773438
    vertex 7.407633304595947 9.558109283447266 34.54758071899414
    vertex 13.76338386535645 9.558113098144531 34.55353164672852
  endloop
endfacet
facet normal -0.0002365915715927258 -0.9674118161201477 0.2532079815864563
  outer loop
    vertex 7.407632827758789 2.836053609848022 8.865153312683105
    vertex 13.76338386535645 9.558113098144531 34.55353164672852
    vertex 7.407633304595947 9.558109283447266 34.54758071899414
  endloop
endfacet
facet normal 4.0046350591183e-07 -0.9674262404441833 0.2531531155109406
  outer loop
    vertex 14.89133644104004 2.836056709289551 8.865153312683105
    vertex 13.76338386535645 9.558113098144531 34.55353164672852
    vertex 7.407632827758789 2.836053609848022 8.865153312683105
  endloop
endfacet
facet normal 0.9805176854133606 0.1964307725429535 -2.375310543811793e-07
  outer loop
    vertex 14.89133644104004 2.836056709289551 8.865153312683105
    vertex 13.74948310852051 8.535809516906738 8.86258602142334
    vertex 13.74948310852051 8.535818099975586 16.0881404876709
  endloop
endfacet
facet normal 0.9772862195968628 0.2115579098463058 -0.01244812645018101
  outer loop
    vertex 14.89133644104004 2.836056709289551 8.865153312683105
    vertex 13.74948310852051 8.535818099975586 16.0881404876709
    vertex 13.76338386535645 9.558113098144531 34.55353164672852
  endloop
endfacet
facet normal 0.9906507730484009 -0.1362529546022415 0.00679756561294198
  outer loop
    vertex 13.74948310852051 8.535818099975586 16.0881404876709
    vertex 14.54759502410889 15.25786876678467 34.51376342773438
    vertex 13.76338386535645 9.558113098144531 34.55353164672852
  endloop
endfacet
facet normal 4.789331242704975e-08 1 -1.021934849632089e-06
  outer loop
    vertex 14.75736713409424 37.23885726928711 23.38633918762207
    vertex 54.58209609985352 37.23886489868164 34.5848274230957
    vertex 54.58209609985352 37.23885345458984 23.3863697052002
  endloop
endfacet
facet normal 4.789331242704975e-08 1 -1.021934849632089e-06
  outer loop
    vertex 14.75736713409424 37.23885726928711 23.38633918762207
    vertex 14.75736713409424 37.23886871337891 34.58479690551758
    vertex 54.58209609985352 37.23886489868164 34.5848274230957
  endloop
endfacet
facet normal 9.57866248540995e-08 1 -6.812898618591134e-07
  outer loop
    vertex 14.75736713409424 37.23884963989258 8.862565994262695
    vertex 54.58209609985352 37.23885345458984 23.3863697052002
    vertex 54.58209609985352 37.23884582519531 8.86259651184082
  endloop
endfacet
facet normal 4.789295005025451e-08 1 -5.499638859873812e-07
  outer loop
    vertex 14.75736713409424 37.23884963989258 8.862565994262695
    vertex 14.75736713409424 37.23885726928711 23.38633918762207
    vertex 54.58209609985352 37.23885345458984 23.3863697052002
  endloop
endfacet
facet normal 7.662969778721163e-07 -2.155807123926934e-06 -1
  outer loop
    vertex 54.58209609985352 37.23884582519531 8.86259651184082
    vertex 34.66973495483398 26.8905200958252 8.862604141235352
    vertex 14.75736713409424 37.23884963989258 8.862565994262695
  endloop
endfacet
facet normal -7.665411771995423e-07 -0.005321341101080179 0.9999858140945435
  outer loop
    vertex 54.58209609985352 37.23886489868164 34.5848274230957
    vertex 14.75736713409424 37.23886871337891 34.58479690551758
    vertex 34.66973495483398 23.8926887512207 34.51379013061523
  endloop
endfacet
endsolid A2E7
