solid 748D
facet normal -0.9999650120735168 0.001618161448277533 -0.008203728124499321
  outer loop
    vertex 26.75600624084473 83.28353118896484 31.03597068786621
    vertex 26.74538612365723 84.30941009521484 32.53224563598633
    vertex 26.75600624084473 84.77913665771484 31.33345603942871
  endloop
endfacet
facet normal -0.9999650120735168 0.001618161448277533 -0.008203728124499321
  outer loop
    vertex 26.74538612365723 84.30941009521484 32.53224563598633
    vertex 26.75600624084473 83.28353118896484 31.03597068786621
    vertex 26.74538612365723 83.28353118896484 32.33351516723633
  endloop
endfacet
facet normal -0.0004302308370824903 -0.5555698871612549 0.8314697742462158
  outer loop
    vertex 26.75600624084473 80.21175384521484 42.36030960083008
    vertex 34.44842147827148 77.60518646240234 40.62263870239258
    vertex 34.44842147827148 80.21041107177734 42.36336135864258
  endloop
endfacet
facet normal -0.0004302308370824903 -0.5555698871612549 0.8314697742462158
  outer loop
    vertex 34.44842147827148 77.60518646240234 40.62263870239258
    vertex 26.75600624084473 80.21175384521484 42.36030960083008
    vertex 26.75600624084473 77.60762786865234 40.62025833129883
  endloop
endfacet
facet normal -0.9999650716781616 -0.001616198453120887 0.008202572353184223
  outer loop
    vertex 26.74538612365723 82.25765228271484 37.35634231567383
    vertex 26.75600624084473 83.28353118896484 38.85261917114258
    vertex 26.74538612365723 83.28353118896484 37.55507278442383
  endloop
endfacet
facet normal -0.9999650716781616 -0.001616198453120887 0.008202572353184223
  outer loop
    vertex 26.75600624084473 83.28353118896484 38.85261917114258
    vertex 26.74538612365723 82.25765228271484 37.35634231567383
    vertex 26.75600242614746 81.78792572021484 38.55513381958008
  endloop
endfacet
facet normal -6.703826379176399e-16 -0.1901817321777344 -0.9817488789558411
  outer loop
    vertex 17.40767860412598 83.28353118896484 37.55507278442383
    vertex 26.74538612365723 84.30941009521484 37.35634231567383
    vertex 26.74538612365723 83.28353118896484 37.55507278442383
  endloop
endfacet
facet normal -6.703826379176399e-16 -0.1901817321777344 -0.9817488789558411
  outer loop
    vertex 26.74538612365723 84.30941009521484 37.35634231567383
    vertex 17.40767860412598 83.28353118896484 37.55507278442383
    vertex 17.40767860412598 84.30941009521484 37.35634231567383
  endloop
endfacet
facet normal -3.524958103184872e-15 -1 8.326672684688674e-16
  outer loop
    vertex 26.75600624084473 83.28353118896484 38.85261917114258
    vertex 17.40767860412598 83.28353118896484 37.55507278442383
    vertex 26.74538612365723 83.28353118896484 37.55507278442383
  endloop
endfacet
facet normal -3.524958103184872e-15 -1 8.326672684688674e-16
  outer loop
    vertex 17.40767860412598 83.28353118896484 37.55507278442383
    vertex 26.75600624084473 83.28353118896484 38.85261917114258
    vertex 17.40767860412598 83.28353118896484 38.37825393676758
  endloop
endfacet
facet normal -3.524958103184872e-15 -1 8.326672684688674e-16
  outer loop
    vertex 17.40767860412598 83.28353118896484 38.37825393676758
    vertex 26.75600624084473 83.28353118896484 38.85261917114258
    vertex 17.76047706604004 83.28353118896484 38.66774368286133
  endloop
endfacet
facet normal -3.524958103184872e-15 -1 8.326672684688674e-16
  outer loop
    vertex 17.76047706604004 83.28353118896484 38.66774368286133
    vertex 26.75600624084473 83.28353118896484 38.85261917114258
    vertex 18.71529579162598 83.28353118896484 38.85261917114258
  endloop
endfacet
facet normal -3.524958103184872e-15 -1 8.326672684688674e-16
  outer loop
    vertex 17.76047706604004 83.28353118896484 38.66774368286133
    vertex 18.71529579162598 83.28353118896484 38.85261917114258
    vertex 18.27143669128418 83.28353118896484 38.97731399536133
  endloop
endfacet
facet normal -3.524958103184872e-15 -1 8.326672684688674e-16
  outer loop
    vertex 18.27143669128418 83.28353118896484 38.97731399536133
    vertex 18.71529579162598 83.28353118896484 38.85261917114258
    vertex 18.68597221374512 83.28353118896484 39.13637161254883
  endloop
endfacet
facet normal 0.0251225121319294 -0.9348070621490479 -0.3542663753032684
  outer loop
    vertex 17.40767860412598 84.30941009521484 32.53224563598633
    vertex 17.40767860412598 84.59761810302734 31.77174949645996
    vertex 17.76047706604004 84.70845794677734 31.50429344177246
  endloop
endfacet
facet normal -6.303547706920654e-05 0.9238618016242981 0.3827262818813324
  outer loop
    vertex 18.27143669128418 81.74019622802734 38.67036819458008
    vertex 18.71529579162598 81.78792572021484 38.55513381958008
    vertex 17.76047706604004 81.85860443115234 38.38429641723633
  endloop
endfacet
facet normal -6.303547706920654e-05 0.9238618016242981 0.3827262818813324
  outer loop
    vertex 18.71529579162598 81.78792572021484 38.55513381958008
    vertex 18.27143669128418 81.74019622802734 38.67036819458008
    vertex 18.68597221374512 81.67928314208984 38.81727981567383
  endloop
endfacet
facet normal -0.0004286992480047047 0.9807850122451782 0.1950912475585938
  outer loop
    vertex 26.75600624084473 90.69954681396484 38.01607131958008
    vertex 34.44842529296875 91.31392669677734 34.94429397583008
    vertex 26.75600624084473 91.31050872802734 34.94429397583008
  endloop
endfacet
facet normal -0.0004286992480047047 0.9807850122451782 0.1950912475585938
  outer loop
    vertex 34.44842529296875 91.31392669677734 34.94429397583008
    vertex 26.75600624084473 90.69954681396484 38.01607131958008
    vertex 34.44842529296875 90.70259857177734 38.01735305786133
  endloop
endfacet
facet normal -0.000427925493568182 -0.9807853698730469 0.1950893700122833
  outer loop
    vertex 34.44842147827148 75.86446380615234 38.01735305786133
    vertex 26.75600624084473 75.25655364990234 34.94429397583008
    vertex 34.44842147827148 75.25313568115234 34.94429397583008
  endloop
endfacet
facet normal -0.000427925493568182 -0.9807853698730469 0.1950893700122833
  outer loop
    vertex 26.75600624084473 75.25655364990234 34.94429397583008
    vertex 34.44842147827148 75.86446380615234 38.01735305786133
    vertex 26.75600624084473 75.86751556396484 38.01613235473633
  endloop
endfacet
facet normal 3.281249995359102e-15 0.9310755133628845 0.364826500415802
  outer loop
    vertex 18.71529579162598 81.78792572021484 38.55513381958008
    vertex 26.74538612365723 82.25765228271484 37.35634231567383
    vertex 17.40767860412598 82.25765228271484 37.35634231567383
  endloop
endfacet
facet normal 3.281249995359102e-15 0.9310755133628845 0.364826500415802
  outer loop
    vertex 26.74538612365723 82.25765228271484 37.35634231567383
    vertex 18.71529579162598 81.78792572021484 38.55513381958008
    vertex 26.75600242614746 81.78792572021484 38.55513381958008
  endloop
endfacet
facet normal -0.0003700704837683588 -0.8480166792869568 0.5299693942070007
  outer loop
    vertex 34.44842147827148 75.25313568115234 34.94429397583008
    vertex 26.75600242614746 62.45650100708008 14.46272754669189
    vertex 34.44842147827148 62.45320510864258 14.46272754669189
  endloop
endfacet
facet normal -0.0003700704837683588 -0.8480166792869568 0.5299693942070007
  outer loop
    vertex 26.75600242614746 62.45650100708008 14.46272754669189
    vertex 34.44842147827148 75.25313568115234 34.94429397583008
    vertex 26.75600624084473 75.25655364990234 34.94429397583008
  endloop
endfacet
facet normal 0.004538118839263916 0.9327374696731567 0.3605276346206665
  outer loop
    vertex 18.71529579162598 81.78792572021484 38.55513381958008
    vertex 17.40767860412598 82.25765228271484 37.35634231567383
    vertex 17.76047706604004 81.85860443115234 38.38429641723633
  endloop
endfacet
facet normal -6.303584086708724e-05 -0.9238618016242981 -0.3827262818813324
  outer loop
    vertex 18.71529579162598 84.77913665771484 31.33345603942871
    vertex 18.27144050598145 84.82686614990234 31.21822166442871
    vertex 18.68597602844238 84.88777923583984 31.07131004333496
  endloop
endfacet
facet normal -6.303584086708724e-05 -0.9238618016242981 -0.3827262818813324
  outer loop
    vertex 18.27144050598145 84.82686614990234 31.21822166442871
    vertex 18.71529579162598 84.77913665771484 31.33345603942871
    vertex 17.76047706604004 84.70845794677734 31.50429344177246
  endloop
endfacet
facet normal -0.0004269172495696694 -0.8314682841300964 0.5555720925331116
  outer loop
    vertex 34.44842147827148 75.86446380615234 38.01735305786133
    vertex 26.75600624084473 77.60762786865234 40.62025833129883
    vertex 26.75600624084473 75.86751556396484 38.01613235473633
  endloop
endfacet
facet normal -0.0004269172495696694 -0.8314682841300964 0.5555720925331116
  outer loop
    vertex 26.75600624084473 77.60762786865234 40.62025833129883
    vertex 34.44842147827148 75.86446380615234 38.01735305786133
    vertex 34.44842147827148 77.60518646240234 40.62263870239258
  endloop
endfacet
facet normal 3.524958103184872e-15 1 -8.326672684688674e-16
  outer loop
    vertex 18.27143669128418 83.28353118896484 30.91127586364746
    vertex 18.71529579162598 83.28353118896484 31.03597068786621
    vertex 18.68597221374512 83.28353118896484 30.75221824645996
  endloop
endfacet
facet normal 3.524958103184872e-15 1 -8.326672684688674e-16
  outer loop
    vertex 18.71529579162598 83.28353118896484 31.03597068786621
    vertex 18.27143669128418 83.28353118896484 30.91127586364746
    vertex 17.76047706604004 83.28353118896484 31.22084617614746
  endloop
endfacet
facet normal 3.524958103184872e-15 1 -8.326672684688674e-16
  outer loop
    vertex 18.71529579162598 83.28353118896484 31.03597068786621
    vertex 17.76047706604004 83.28353118896484 31.22084617614746
    vertex 26.75600624084473 83.28353118896484 31.03597068786621
  endloop
endfacet
facet normal 3.524958103184872e-15 1 -8.326672684688674e-16
  outer loop
    vertex 26.75600624084473 83.28353118896484 31.03597068786621
    vertex 17.76047706604004 83.28353118896484 31.22084617614746
    vertex 26.74538612365723 83.28353118896484 32.33351516723633
  endloop
endfacet
facet normal 3.524958103184872e-15 1 -8.326672684688674e-16
  outer loop
    vertex 26.74538612365723 83.28353118896484 32.33351516723633
    vertex 17.76047706604004 83.28353118896484 31.22084617614746
    vertex 17.40767860412598 83.28353118896484 31.51033592224121
  endloop
endfacet
facet normal 3.524958103184872e-15 1 -8.326672684688674e-16
  outer loop
    vertex 26.74538612365723 83.28353118896484 32.33351516723633
    vertex 17.40767860412598 83.28353118896484 31.51033592224121
    vertex 17.40767860412598 83.28353118896484 32.33351516723633
  endloop
endfacet
facet normal -7.549645381997965e-32 -8.326672684688674e-16 -1
  outer loop
    vertex 26.75600242614746 62.45650100708008 7.357930183410645
    vertex 34.44842147827148 78.95821380615234 7.357930183410645
    vertex 34.44842147827148 62.45320510864258 7.357930183410645
  endloop
endfacet
facet normal -7.549645381997965e-32 -8.326672684688674e-16 -1
  outer loop
    vertex 34.44842147827148 78.95821380615234 7.357930183410645
    vertex 26.75600242614746 62.45650100708008 7.357930183410645
    vertex 26.75600624084473 78.96150970458984 7.357930183410645
  endloop
endfacet
facet normal 0.004538118839263916 -0.9327374696731567 -0.3605276346206665
  outer loop
    vertex 17.40767860412598 84.30941009521484 32.53224563598633
    vertex 17.76047706604004 84.70845794677734 31.50429344177246
    vertex 18.71529579162598 84.77913665771484 31.33345603942871
  endloop
endfacet
facet normal -0.0004216913075651973 0.1950893700122833 0.9807853698730469
  outer loop
    vertex 26.75600624084473 86.35530853271484 42.36030960083008
    vertex 34.44842147827148 83.28353118896484 42.97462844848633
    vertex 34.44842529296875 86.35665130615234 42.36336135864258
  endloop
endfacet
facet normal -0.0004216913075651973 0.1950893700122833 0.9807853698730469
  outer loop
    vertex 34.44842147827148 83.28353118896484 42.97462844848633
    vertex 26.75600624084473 86.35530853271484 42.36030960083008
    vertex 26.75600624084473 83.28353118896484 42.97133255004883
  endloop
endfacet
facet normal -0.0004302306333556771 0.5555698871612549 0.8314697742462158
  outer loop
    vertex 26.75600624084473 88.95943450927734 40.62025833129883
    vertex 34.44842529296875 86.35665130615234 42.36336135864258
    vertex 34.44842529296875 88.96187591552734 40.62263870239258
  endloop
endfacet
facet normal -0.0004302306333556771 0.5555698871612549 0.8314697742462158
  outer loop
    vertex 34.44842529296875 86.35665130615234 42.36336135864258
    vertex 26.75600624084473 88.95943450927734 40.62025833129883
    vertex 26.75600624084473 86.35530853271484 42.36030960083008
  endloop
endfacet
facet normal -3.282754325873425e-15 -0.9310755133628845 -0.364826500415802
  outer loop
    vertex 26.74538612365723 84.30941009521484 32.53224563598633
    vertex 18.71529579162598 84.77913665771484 31.33345603942871
    vertex 26.75600624084473 84.77913665771484 31.33345603942871
  endloop
endfacet
facet normal -3.282754325873425e-15 -0.9310755133628845 -0.364826500415802
  outer loop
    vertex 18.71529579162598 84.77913665771484 31.33345603942871
    vertex 26.74538612365723 84.30941009521484 32.53224563598633
    vertex 17.40767860412598 84.30941009521484 32.53224563598633
  endloop
endfacet
facet normal 7.549645381997965e-32 8.326672684688674e-16 1
  outer loop
    vertex 26.75600242614746 62.45650100708008 14.46272754669189
    vertex 34.44841766357422 54.69270706176758 14.46272754669189
    vertex 34.44842147827148 62.45320510864258 14.46272754669189
  endloop
endfacet
facet normal 7.549645381997965e-32 8.326672684688674e-16 1
  outer loop
    vertex 34.44841766357422 54.69270706176758 14.46272754669189
    vertex 26.75600242614746 62.45650100708008 14.46272754669189
    vertex 26.75600242614746 54.69600296020508 14.46272754669189
  endloop
endfacet
facet normal -1 5.065307959739584e-07 -2.012669799975364e-22
  outer loop
    vertex 26.74538612365723 85.76033782958984 33.94520950317383
    vertex 26.74538612365723 85.76033782958984 35.94337844848633
    vertex 26.74538612365723 85.96431732177734 34.94429397583008
  endloop
endfacet
facet normal -1 5.065307959739584e-07 -2.012669799975364e-22
  outer loop
    vertex 26.74538612365723 85.76033782958984 35.94337844848633
    vertex 26.74538612365723 85.76033782958984 33.94520950317383
    vertex 26.74538612365723 85.17916107177734 33.09816360473633
  endloop
endfacet
facet normal -1 5.065307959739584e-07 -2.012669799975364e-22
  outer loop
    vertex 26.74538612365723 85.76033782958984 35.94337844848633
    vertex 26.74538612365723 85.17916107177734 33.09816360473633
    vertex 26.74538612365723 85.17916107177734 36.79042434692383
  endloop
endfacet
facet normal -1 5.065307959739584e-07 -2.012669799975364e-22
  outer loop
    vertex 26.74538612365723 85.17916107177734 36.79042434692383
    vertex 26.74538612365723 85.17916107177734 33.09816360473633
    vertex 26.74538612365723 84.30941009521484 32.53224563598633
  endloop
endfacet
facet normal -1 5.065307959739584e-07 -2.012669799975364e-22
  outer loop
    vertex 26.74538612365723 85.17916107177734 36.79042434692383
    vertex 26.74538612365723 84.30941009521484 32.53224563598633
    vertex 26.74538612365723 84.30941009521484 37.35634231567383
  endloop
endfacet
facet normal -1 5.065307959739584e-07 -2.012669799975364e-22
  outer loop
    vertex 26.74538612365723 84.30941009521484 37.35634231567383
    vertex 26.74538612365723 84.30941009521484 32.53224563598633
    vertex 26.74538612365723 83.28353118896484 32.33351516723633
  endloop
endfacet
facet normal -1 5.065307959739584e-07 -2.012669799975364e-22
  outer loop
    vertex 26.74538612365723 84.30941009521484 37.35634231567383
    vertex 26.74538612365723 83.28353118896484 32.33351516723633
    vertex 26.74538612365723 83.28353118896484 37.55507278442383
  endloop
endfacet
facet normal -1 5.065307959739584e-07 -2.012669799975364e-22
  outer loop
    vertex 26.74538612365723 83.28353118896484 37.55507278442383
    vertex 26.74538612365723 83.28353118896484 32.33351516723633
    vertex 26.74538612365723 82.25765228271484 32.53224563598633
  endloop
endfacet
facet normal -1 5.065307959739584e-07 -2.012669799975364e-22
  outer loop
    vertex 26.74538612365723 83.28353118896484 37.55507278442383
    vertex 26.74538612365723 82.25765228271484 32.53224563598633
    vertex 26.74538612365723 82.25765228271484 37.35634231567383
  endloop
endfacet
facet normal -1 5.065307959739584e-07 -2.012669799975364e-22
  outer loop
    vertex 26.74538612365723 82.25765228271484 37.35634231567383
    vertex 26.74538612365723 82.25765228271484 32.53224563598633
    vertex 26.74538612365723 81.38790130615234 33.09816360473633
  endloop
endfacet
facet normal -1 5.065307959739584e-07 -2.012669799975364e-22
  outer loop
    vertex 26.74538612365723 82.25765228271484 37.35634231567383
    vertex 26.74538612365723 81.38790130615234 33.09816360473633
    vertex 26.74538612365723 81.38790130615234 36.79042434692383
  endloop
endfacet
facet normal -1 5.065307959739584e-07 -2.012669799975364e-22
  outer loop
    vertex 26.74538612365723 81.38790130615234 36.79042434692383
    vertex 26.74538612365723 81.38790130615234 33.09816360473633
    vertex 26.74538230895996 80.80672454833984 33.94520950317383
  endloop
endfacet
facet normal -1 5.065307959739584e-07 -2.012669799975364e-22
  outer loop
    vertex 26.74538612365723 81.38790130615234 36.79042434692383
    vertex 26.74538230895996 80.80672454833984 33.94520950317383
    vertex 26.74538230895996 80.80672454833984 35.94337844848633
  endloop
endfacet
facet normal -1 5.065307959739584e-07 -2.012669799975364e-22
  outer loop
    vertex 26.74538230895996 80.80672454833984 35.94337844848633
    vertex 26.74538230895996 80.80672454833984 33.94520950317383
    vertex 26.74538230895996 80.60274505615234 34.94429397583008
  endloop
endfacet
facet normal -1 1.209871953733455e-07 1.227030743677915e-08
  outer loop
    vertex 26.75600624084473 87.33736419677734 0.3125200271606445
    vertex 26.75600624084473 86.89437103271484 33.44862747192383
    vertex 26.75600624084473 87.19185638427734 34.94429397583008
  endloop
endfacet
facet normal -1 1.209871953733455e-07 1.227030743677915e-08
  outer loop
    vertex 26.75600624084473 86.89437103271484 33.44862747192383
    vertex 26.75600624084473 87.33736419677734 0.3125200271606445
    vertex 26.75600624084473 78.96150970458984 0.3125200271606445
  endloop
endfacet
facet normal -1 1.209871953733455e-07 1.227030743677915e-08
  outer loop
    vertex 26.75600624084473 86.89437103271484 33.44862747192383
    vertex 26.75600624084473 78.96150970458984 0.3125200271606445
    vertex 26.75600624084473 86.04720306396484 32.18068313598633
  endloop
endfacet
facet normal -1 1.209871953733455e-07 1.227030743677915e-08
  outer loop
    vertex 26.75600624084473 86.04720306396484 32.18068313598633
    vertex 26.75600624084473 78.96150970458984 0.3125200271606445
    vertex 26.75600624084473 84.77913665771484 31.33345603942871
  endloop
endfacet
facet normal -1 1.209871953733455e-07 1.227030743677915e-08
  outer loop
    vertex 26.75600624084473 84.77913665771484 31.33345603942871
    vertex 26.75600624084473 78.96150970458984 0.3125200271606445
    vertex 26.75600624084473 83.28353118896484 31.03597068786621
  endloop
endfacet
facet normal -1 1.209871953733455e-07 1.227030743677915e-08
  outer loop
    vertex 26.75600624084473 83.28353118896484 31.03597068786621
    vertex 26.75600624084473 78.96150970458984 0.3125200271606445
    vertex 26.75600242614746 81.78792572021484 31.33345603942871
  endloop
endfacet
facet normal -1 1.209871953733455e-07 1.227030743677915e-08
  outer loop
    vertex 26.75600242614746 81.78792572021484 31.33345603942871
    vertex 26.75600624084473 78.96150970458984 0.3125200271606445
    vertex 26.75600242614746 80.51985931396484 32.18068313598633
  endloop
endfacet
facet normal -1 1.209871953733455e-07 1.227030743677915e-08
  outer loop
    vertex 26.75600242614746 80.51985931396484 32.18068313598633
    vertex 26.75600624084473 78.96150970458984 0.3125200271606445
    vertex 26.75600242614746 79.67269134521484 33.44862747192383
  endloop
endfacet
facet normal -1 1.209871953733455e-07 1.227030743677915e-08
  outer loop
    vertex 26.75600242614746 79.67269134521484 33.44862747192383
    vertex 26.75600624084473 78.96150970458984 0.3125200271606445
    vertex 26.75600242614746 79.37520599365234 34.94429397583008
  endloop
endfacet
facet normal -1 1.209871953733455e-07 1.227030743677915e-08
  outer loop
    vertex 26.75600242614746 54.69600296020508 0.2842607498168945
    vertex 26.75600242614746 62.45650100708008 7.357930183410645
    vertex 26.75600242614746 62.45650100708008 0.2842607498168945
  endloop
endfacet
facet normal -1 1.209871953733455e-07 1.227030743677915e-08
  outer loop
    vertex 26.75600242614746 62.45650100708008 7.357930183410645
    vertex 26.75600242614746 54.69600296020508 0.2842607498168945
    vertex 26.75600242614746 62.45650100708008 14.46272754669189
  endloop
endfacet
facet normal -1 1.209871953733455e-07 1.227030743677915e-08
  outer loop
    vertex 26.75600242614746 62.45650100708008 14.46272754669189
    vertex 26.75600242614746 54.69600296020508 0.2842607498168945
    vertex 26.75600242614746 54.69600296020508 14.46272754669189
  endloop
endfacet
facet normal -1 1.209871953733455e-07 1.227030743677915e-08
  outer loop
    vertex 26.75600624084473 87.33736419677734 0.3125200271606445
    vertex 26.75600624084473 90.69954681396484 38.01607131958008
    vertex 26.75600624084473 91.31050872802734 34.94429397583008
  endloop
endfacet
facet normal -1 1.209871953733455e-07 1.227030743677915e-08
  outer loop
    vertex 26.75600624084473 90.69954681396484 38.01607131958008
    vertex 26.75600624084473 87.33736419677734 0.3125200271606445
    vertex 26.75600624084473 88.95943450927734 40.62025833129883
  endloop
endfacet
facet normal -1 1.209871953733455e-07 1.227030743677915e-08
  outer loop
    vertex 26.75600624084473 88.95943450927734 40.62025833129883
    vertex 26.75600624084473 87.33736419677734 0.3125200271606445
    vertex 26.75600624084473 87.19185638427734 34.94429397583008
  endloop
endfacet
facet normal -1 1.209871953733455e-07 1.227030743677915e-08
  outer loop
    vertex 26.75600624084473 88.95943450927734 40.62025833129883
    vertex 26.75600624084473 87.19185638427734 34.94429397583008
    vertex 26.75600624084473 86.35530853271484 42.36030960083008
  endloop
endfacet
facet normal -1 1.209871953733455e-07 1.227030743677915e-08
  outer loop
    vertex 26.75600624084473 86.35530853271484 42.36030960083008
    vertex 26.75600624084473 87.19185638427734 34.94429397583008
    vertex 26.75600624084473 86.89437103271484 36.43996047973633
  endloop
endfacet
facet normal -1 1.209871953733455e-07 1.227030743677915e-08
  outer loop
    vertex 26.75600624084473 86.35530853271484 42.36030960083008
    vertex 26.75600624084473 86.89437103271484 36.43996047973633
    vertex 26.75600624084473 86.04720306396484 37.70790481567383
  endloop
endfacet
facet normal -1 1.209871953733455e-07 1.227030743677915e-08
  outer loop
    vertex 26.75600624084473 86.35530853271484 42.36030960083008
    vertex 26.75600624084473 86.04720306396484 37.70790481567383
    vertex 26.75600624084473 83.28353118896484 42.97133255004883
  endloop
endfacet
facet normal -1 1.209871953733455e-07 1.227030743677915e-08
  outer loop
    vertex 26.75600624084473 83.28353118896484 42.97133255004883
    vertex 26.75600624084473 86.04720306396484 37.70790481567383
    vertex 26.75600624084473 84.77913665771484 38.55513381958008
  endloop
endfacet
facet normal -1 1.209871953733455e-07 1.227030743677915e-08
  outer loop
    vertex 26.75600624084473 83.28353118896484 42.97133255004883
    vertex 26.75600624084473 84.77913665771484 38.55513381958008
    vertex 26.75600624084473 83.28353118896484 38.85261917114258
  endloop
endfacet
facet normal -1 1.209871953733455e-07 1.227030743677915e-08
  outer loop
    vertex 26.75600624084473 83.28353118896484 42.97133255004883
    vertex 26.75600624084473 83.28353118896484 38.85261917114258
    vertex 26.75600242614746 81.78792572021484 38.55513381958008
  endloop
endfacet
facet normal -1 1.209871953733455e-07 1.227030743677915e-08
  outer loop
    vertex 26.75600624084473 83.28353118896484 42.97133255004883
    vertex 26.75600242614746 81.78792572021484 38.55513381958008
    vertex 26.75600624084473 80.21175384521484 42.36030960083008
  endloop
endfacet
facet normal -1 1.209871953733455e-07 1.227030743677915e-08
  outer loop
    vertex 26.75600624084473 80.21175384521484 42.36030960083008
    vertex 26.75600242614746 81.78792572021484 38.55513381958008
    vertex 26.75600242614746 80.51985931396484 37.70790481567383
  endloop
endfacet
facet normal -1 1.209871953733455e-07 1.227030743677915e-08
  outer loop
    vertex 26.75600624084473 80.21175384521484 42.36030960083008
    vertex 26.75600242614746 80.51985931396484 37.70790481567383
    vertex 26.75600242614746 79.67269134521484 36.43996047973633
  endloop
endfacet
facet normal -1 1.209871953733455e-07 1.227030743677915e-08
  outer loop
    vertex 26.75600624084473 80.21175384521484 42.36030960083008
    vertex 26.75600242614746 79.67269134521484 36.43996047973633
    vertex 26.75600624084473 77.60762786865234 40.62025833129883
  endloop
endfacet
facet normal -1 1.209871953733455e-07 1.227030743677915e-08
  outer loop
    vertex 26.75600624084473 77.60762786865234 40.62025833129883
    vertex 26.75600242614746 79.67269134521484 36.43996047973633
    vertex 26.75600242614746 79.37520599365234 34.94429397583008
  endloop
endfacet
facet normal -1 1.209871953733455e-07 1.227030743677915e-08
  outer loop
    vertex 26.75600624084473 77.60762786865234 40.62025833129883
    vertex 26.75600242614746 79.37520599365234 34.94429397583008
    vertex 26.75600624084473 78.96150970458984 7.357930183410645
  endloop
endfacet
facet normal -1 1.209871953733455e-07 1.227030743677915e-08
  outer loop
    vertex 26.75600624084473 78.96150970458984 7.357930183410645
    vertex 26.75600242614746 79.37520599365234 34.94429397583008
    vertex 26.75600624084473 78.96150970458984 0.3125200271606445
  endloop
endfacet
facet normal -1 1.209871953733455e-07 1.227030743677915e-08
  outer loop
    vertex 26.75600624084473 77.60762786865234 40.62025833129883
    vertex 26.75600624084473 78.96150970458984 7.357930183410645
    vertex 26.75600624084473 75.25655364990234 34.94429397583008
  endloop
endfacet
facet normal -1 1.209871953733455e-07 1.227030743677915e-08
  outer loop
    vertex 26.75600624084473 75.25655364990234 34.94429397583008
    vertex 26.75600624084473 78.96150970458984 7.357930183410645
    vertex 26.75600242614746 62.45650100708008 7.357930183410645
  endloop
endfacet
facet normal -1 1.209871953733455e-07 1.227030743677915e-08
  outer loop
    vertex 26.75600624084473 77.60762786865234 40.62025833129883
    vertex 26.75600624084473 75.25655364990234 34.94429397583008
    vertex 26.75600624084473 75.86751556396484 38.01613235473633
  endloop
endfacet
facet normal -1 1.209871953733455e-07 1.227030743677915e-08
  outer loop
    vertex 26.75600624084473 75.25655364990234 34.94429397583008
    vertex 26.75600242614746 62.45650100708008 7.357930183410645
    vertex 26.75600242614746 62.45650100708008 14.46272754669189
  endloop
endfacet
facet normal -0.0004216914239805192 -0.1950893700122833 0.9807853698730469
  outer loop
    vertex 26.75600624084473 83.28353118896484 42.97133255004883
    vertex 34.44842147827148 80.21041107177734 42.36336135864258
    vertex 34.44842147827148 83.28353118896484 42.97462844848633
  endloop
endfacet
facet normal -0.0004216914239805192 -0.1950893700122833 0.9807853698730469
  outer loop
    vertex 34.44842147827148 80.21041107177734 42.36336135864258
    vertex 26.75600624084473 83.28353118896484 42.97133255004883
    vertex 26.75600624084473 80.21175384521484 42.36030960083008
  endloop
endfacet
facet normal 0.0251225121319294 0.9348070621490479 0.3542663753032684
  outer loop
    vertex 17.76047706604004 81.85860443115234 38.38429641723633
    vertex 17.40767860412598 82.25765228271484 37.35634231567383
    vertex 17.40767860412598 81.96944427490234 38.11684036254883
  endloop
endfacet
facet normal -0.0004291211371310055 0.8314712643623352 0.5555676221847534
  outer loop
    vertex 26.75600624084473 88.95943450927734 40.62025833129883
    vertex 34.44842529296875 90.70259857177734 38.01735305786133
    vertex 26.75600624084473 90.69954681396484 38.01607131958008
  endloop
endfacet
facet normal -0.0004291211371310055 0.8314712643623352 0.5555676221847534
  outer loop
    vertex 34.44842529296875 90.70259857177734 38.01735305786133
    vertex 26.75600624084473 88.95943450927734 40.62025833129883
    vertex 34.44842529296875 88.96187591552734 40.62263870239258
  endloop
endfacet
facet normal -3.457236336744233e-15 -0.9807879328727722 -0.1950769424438477
  outer loop
    vertex 26.75600242614746 79.37520599365234 34.94429397583008
    vertex 18.71529579162598 79.67269134521484 33.44862747192383
    vertex 26.75600242614746 79.67269134521484 33.44862747192383
  endloop
endfacet
facet normal -3.457236336744233e-15 -0.9807879328727722 -0.1950769424438477
  outer loop
    vertex 18.71529579162598 79.67269134521484 33.44862747192383
    vertex 26.75600242614746 79.37520599365234 34.94429397583008
    vertex 18.71529579162598 79.37520599365234 34.94429397583008
  endloop
endfacet
facet normal -0.0004284606548026204 -0.9999998807907104 8.326615509964734e-16
  outer loop
    vertex 34.44841766357422 54.69270706176758 14.46272754669189
    vertex 26.75600242614746 54.69600296020508 0.2842607498168945
    vertex 34.44841766357422 54.69270706176758 0.2842607498168945
  endloop
endfacet
facet normal -0.0004284606548026204 -0.9999998807907104 8.326615509964734e-16
  outer loop
    vertex 26.75600242614746 54.69600296020508 0.2842607498168945
    vertex 34.44841766357422 54.69270706176758 14.46272754669189
    vertex 26.75600242614746 54.69600296020508 14.46272754669189
  endloop
endfacet
facet normal -6.859484565102138e-16 -0.1950846016407013 -0.9807864427566528
  outer loop
    vertex 26.75600242614746 81.78792572021484 31.33345603942871
    vertex 18.71529579162598 83.28353118896484 31.03597068786621
    vertex 26.75600624084473 83.28353118896484 31.03597068786621
  endloop
endfacet
facet normal -6.859484565102138e-16 -0.1950846016407013 -0.9807864427566528
  outer loop
    vertex 18.71529579162598 83.28353118896484 31.03597068786621
    vertex 26.75600242614746 81.78792572021484 31.33345603942871
    vertex 18.71529579162598 81.78792572021484 31.33345603942871
  endloop
endfacet
facet normal 3.457236336744233e-15 0.9807879328727722 -0.1950769424438477
  outer loop
    vertex 18.71529579162598 87.19185638427734 34.94429397583008
    vertex 26.75600624084473 86.89437103271484 33.44862747192383
    vertex 18.71529579162598 86.89437103271484 33.44862747192383
  endloop
endfacet
facet normal 3.457236336744233e-15 0.9807879328727722 -0.1950769424438477
  outer loop
    vertex 26.75600624084473 86.89437103271484 33.44862747192383
    vertex 18.71529579162598 87.19185638427734 34.94429397583008
    vertex 26.75600624084473 87.19185638427734 34.94429397583008
  endloop
endfacet
facet normal -7.549645381997965e-32 -8.326672684688674e-16 -1
  outer loop
    vertex 26.75600242614746 54.69600296020508 0.2842607498168945
    vertex 34.44842147827148 62.45320510864258 0.2842607498168945
    vertex 34.44841766357422 54.69270706176758 0.2842607498168945
  endloop
endfacet
facet normal -7.549645381997965e-32 -8.326672684688674e-16 -1
  outer loop
    vertex 34.44842147827148 62.45320510864258 0.2842607498168945
    vertex 26.75600242614746 54.69600296020508 0.2842607498168945
    vertex 26.75600242614746 62.45650100708008 0.2842607498168945
  endloop
endfacet
facet normal 1 -6.916576467119739e-08 -1.870720822694238e-08
  outer loop
    vertex 34.44842147827148 77.60518646240234 40.62263870239258
    vertex 34.44842147827148 78.95821380615234 7.357930183410645
    vertex 34.44842147827148 80.21041107177734 42.36336135864258
  endloop
endfacet
facet normal 1 -6.916576467119739e-08 -1.870720822694238e-08
  outer loop
    vertex 34.44842147827148 78.95821380615234 7.357930183410645
    vertex 34.44842147827148 77.60518646240234 40.62263870239258
    vertex 34.44842147827148 75.25313568115234 34.94429397583008
  endloop
endfacet
facet normal 1 -6.916576467119739e-08 -1.870720822694238e-08
  outer loop
    vertex 34.44842147827148 78.95821380615234 7.357930183410645
    vertex 34.44842147827148 75.25313568115234 34.94429397583008
    vertex 34.44842147827148 62.45320510864258 7.357930183410645
  endloop
endfacet
facet normal 1 -6.916576467119739e-08 -1.870720822694238e-08
  outer loop
    vertex 34.44842147827148 75.25313568115234 34.94429397583008
    vertex 34.44842147827148 77.60518646240234 40.62263870239258
    vertex 34.44842147827148 75.86446380615234 38.01735305786133
  endloop
endfacet
facet normal 1 -6.916576467119739e-08 -1.870720822694238e-08
  outer loop
    vertex 34.44842147827148 62.45320510864258 7.357930183410645
    vertex 34.44842147827148 75.25313568115234 34.94429397583008
    vertex 34.44842147827148 62.45320510864258 14.46272754669189
  endloop
endfacet
facet normal 1 -6.916576467119739e-08 -1.870720822694238e-08
  outer loop
    vertex 34.44842147827148 62.45320510864258 7.357930183410645
    vertex 34.44842147827148 62.45320510864258 14.46272754669189
    vertex 34.44841766357422 54.69270706176758 14.46272754669189
  endloop
endfacet
facet normal 1 -6.916576467119739e-08 -1.870720822694238e-08
  outer loop
    vertex 34.44842147827148 62.45320510864258 7.357930183410645
    vertex 34.44841766357422 54.69270706176758 14.46272754669189
    vertex 34.44842147827148 62.45320510864258 0.2842607498168945
  endloop
endfacet
facet normal 1 -6.916576467119739e-08 -1.870720822694238e-08
  outer loop
    vertex 34.44842147827148 62.45320510864258 0.2842607498168945
    vertex 34.44841766357422 54.69270706176758 14.46272754669189
    vertex 34.44841766357422 54.69270706176758 0.2842607498168945
  endloop
endfacet
facet normal 1 -6.916576467119739e-08 -1.870720822694238e-08
  outer loop
    vertex 34.44842529296875 90.70259857177734 38.01735305786133
    vertex 34.44842147827148 87.33406829833984 0.3125200271606445
    vertex 34.44842529296875 91.31392669677734 34.94429397583008
  endloop
endfacet
facet normal 1 -6.916576467119739e-08 -1.870720822694238e-08
  outer loop
    vertex 34.44842147827148 87.33406829833984 0.3125200271606445
    vertex 34.44842529296875 90.70259857177734 38.01735305786133
    vertex 34.44842529296875 88.96187591552734 40.62263870239258
  endloop
endfacet
facet normal 1 -6.916576467119739e-08 -1.870720822694238e-08
  outer loop
    vertex 34.44842147827148 87.33406829833984 0.3125200271606445
    vertex 34.44842529296875 88.96187591552734 40.62263870239258
    vertex 34.44842529296875 86.35665130615234 42.36336135864258
  endloop
endfacet
facet normal 1 -6.916576467119739e-08 -1.870720822694238e-08
  outer loop
    vertex 34.44842147827148 87.33406829833984 0.3125200271606445
    vertex 34.44842529296875 86.35665130615234 42.36336135864258
    vertex 34.44842147827148 78.95821380615234 0.3125200271606445
  endloop
endfacet
facet normal 1 -6.916576467119739e-08 -1.870720822694238e-08
  outer loop
    vertex 34.44842147827148 78.95821380615234 0.3125200271606445
    vertex 34.44842529296875 86.35665130615234 42.36336135864258
    vertex 34.44842147827148 83.28353118896484 42.97462844848633
  endloop
endfacet
facet normal 1 -6.916576467119739e-08 -1.870720822694238e-08
  outer loop
    vertex 34.44842147827148 78.95821380615234 0.3125200271606445
    vertex 34.44842147827148 83.28353118896484 42.97462844848633
    vertex 34.44842147827148 80.21041107177734 42.36336135864258
  endloop
endfacet
facet normal 1 -6.916576467119739e-08 -1.870720822694238e-08
  outer loop
    vertex 34.44842147827148 78.95821380615234 0.3125200271606445
    vertex 34.44842147827148 80.21041107177734 42.36336135864258
    vertex 34.44842147827148 78.95821380615234 7.357930183410645
  endloop
endfacet
facet normal 1.958256529548401e-15 0.5555403828620911 0.8314895629882813
  outer loop
    vertex 18.71529579162598 86.04720306396484 37.70790481567383
    vertex 26.75600624084473 84.77913665771484 38.55513381958008
    vertex 26.75600624084473 86.04720306396484 37.70790481567383
  endloop
endfacet
facet normal 1.958256529548401e-15 0.5555403828620911 0.8314895629882813
  outer loop
    vertex 26.75600624084473 84.77913665771484 38.55513381958008
    vertex 18.71529579162598 86.04720306396484 37.70790481567383
    vertex 18.71529579162598 84.77913665771484 38.55513381958008
  endloop
endfacet
facet normal -7.882773388701025e-06 0.9934723973274231 -0.114072822034359
  outer loop
    vertex 26.75600624084473 91.31050872802734 34.94429397583008
    vertex 34.44842147827148 87.33406829833984 0.3125200271606445
    vertex 26.75600624084473 87.33736419677734 0.3125200271606445
  endloop
endfacet
facet normal -7.882773388701025e-06 0.9934723973274231 -0.114072822034359
  outer loop
    vertex 34.44842147827148 87.33406829833984 0.3125200271606445
    vertex 26.75600624084473 91.31050872802734 34.94429397583008
    vertex 34.44842529296875 91.31392669677734 34.94429397583008
  endloop
endfacet
facet normal 6.876650217173838e-16 0.1950846016407013 0.9807864427566528
  outer loop
    vertex 18.71529579162598 84.77913665771484 38.55513381958008
    vertex 26.75600624084473 83.28353118896484 38.85261917114258
    vertex 26.75600624084473 84.77913665771484 38.55513381958008
  endloop
endfacet
facet normal 6.876650217173838e-16 0.1950846016407013 0.9807864427566528
  outer loop
    vertex 26.75600624084473 83.28353118896484 38.85261917114258
    vertex 18.71529579162598 84.77913665771484 38.55513381958008
    vertex 18.71529579162598 83.28353118896484 38.85261917114258
  endloop
endfacet
facet normal -2.935752455954124e-15 -0.8314833641052246 0.555549681186676
  outer loop
    vertex 26.75600242614746 80.51985931396484 37.70790481567383
    vertex 18.71529579162598 79.67269134521484 36.43996047973633
    vertex 26.75600242614746 79.67269134521484 36.43996047973633
  endloop
endfacet
facet normal -2.935752455954124e-15 -0.8314833641052246 0.555549681186676
  outer loop
    vertex 18.71529579162598 79.67269134521484 36.43996047973633
    vertex 26.75600242614746 80.51985931396484 37.70790481567383
    vertex 18.71529579162598 80.51985931396484 37.70790481567383
  endloop
endfacet
facet normal -7.549645381997965e-32 -8.326672684688674e-16 -1
  outer loop
    vertex 26.75600624084473 78.96150970458984 0.3125200271606445
    vertex 34.44842147827148 87.33406829833984 0.3125200271606445
    vertex 34.44842147827148 78.95821380615234 0.3125200271606445
  endloop
endfacet
facet normal -7.549645381997965e-32 -8.326672684688674e-16 -1
  outer loop
    vertex 34.44842147827148 87.33406829833984 0.3125200271606445
    vertex 26.75600624084473 78.96150970458984 0.3125200271606445
    vertex 26.75600624084473 87.33736419677734 0.3125200271606445
  endloop
endfacet
facet normal -2.935752455954124e-15 -0.8314833641052246 -0.555549681186676
  outer loop
    vertex 26.75600242614746 79.67269134521484 33.44862747192383
    vertex 18.71529579162598 80.51985931396484 32.18068313598633
    vertex 26.75600242614746 80.51985931396484 32.18068313598633
  endloop
endfacet
facet normal -2.935752455954124e-15 -0.8314833641052246 -0.555549681186676
  outer loop
    vertex 18.71529579162598 80.51985931396484 32.18068313598633
    vertex 26.75600242614746 79.67269134521484 33.44862747192383
    vertex 18.71529579162598 79.67269134521484 33.44862747192383
  endloop
endfacet
facet normal -0.0004284608876332641 -0.9999998807907104 8.326672155293082e-16
  outer loop
    vertex 34.44842147827148 78.95821380615234 7.357930183410645
    vertex 26.75600624084473 78.96150970458984 0.3125200271606445
    vertex 34.44842147827148 78.95821380615234 0.3125200271606445
  endloop
endfacet
facet normal -0.0004284608876332641 -0.9999998807907104 8.326672155293082e-16
  outer loop
    vertex 26.75600624084473 78.96150970458984 0.3125200271606445
    vertex 34.44842147827148 78.95821380615234 7.357930183410645
    vertex 26.75600624084473 78.96150970458984 7.357930183410645
  endloop
endfacet
facet normal 1.958256529548401e-15 0.5555403828620911 -0.8314895629882813
  outer loop
    vertex 18.71529579162598 84.77913665771484 31.33345603942871
    vertex 26.75600624084473 86.04720306396484 32.18068313598633
    vertex 26.75600624084473 84.77913665771484 31.33345603942871
  endloop
endfacet
facet normal 1.958256529548401e-15 0.5555403828620911 -0.8314895629882813
  outer loop
    vertex 26.75600624084473 86.04720306396484 32.18068313598633
    vertex 18.71529579162598 84.77913665771484 31.33345603942871
    vertex 18.71529579162598 86.04720306396484 32.18068313598633
  endloop
endfacet
facet normal 0.9944955110549927 0.02043948136270046 0.1027662605047226
  outer loop
    vertex 18.68597221374512 83.28353118896484 39.13637161254883
    vertex 18.71529579162598 84.77913665771484 38.55513381958008
    vertex 18.68597602844238 84.88777923583984 38.81727981567383
  endloop
endfacet
facet normal 0.9944955110549927 0.02043948136270046 0.1027662605047226
  outer loop
    vertex 18.71529579162598 84.77913665771484 38.55513381958008
    vertex 18.68597221374512 83.28353118896484 39.13637161254883
    vertex 18.71529579162598 83.28353118896484 38.85261917114258
  endloop
endfacet
facet normal 2.930944061670798e-15 0.8314833641052246 -0.555549681186676
  outer loop
    vertex 18.71529579162598 86.89437103271484 33.44862747192383
    vertex 26.75600624084473 86.04720306396484 32.18068313598633
    vertex 18.71529579162598 86.04720306396484 32.18068313598633
  endloop
endfacet
facet normal 2.930944061670798e-15 0.8314833641052246 -0.555549681186676
  outer loop
    vertex 26.75600624084473 86.04720306396484 32.18068313598633
    vertex 18.71529579162598 86.89437103271484 33.44862747192383
    vertex 26.75600624084473 86.89437103271484 33.44862747192383
  endloop
endfacet
facet normal 0.0004284606548026204 0.9999998807907104 -8.326672155293082e-16
  outer loop
    vertex 26.75600242614746 62.45650100708008 7.357930183410645
    vertex 34.44842147827148 62.45320510864258 0.2842607498168945
    vertex 26.75600242614746 62.45650100708008 0.2842607498168945
  endloop
endfacet
facet normal 0.0004284606548026204 0.9999998807907104 -8.326672155293082e-16
  outer loop
    vertex 34.44842147827148 62.45320510864258 0.2842607498168945
    vertex 26.75600242614746 62.45650100708008 7.357930183410645
    vertex 34.44842147827148 62.45320510864258 7.357930183410645
  endloop
endfacet
facet normal 3.457236336744233e-15 0.9807879328727722 0.1950769424438477
  outer loop
    vertex 18.71529579162598 86.89437103271484 36.43996047973633
    vertex 26.75600624084473 87.19185638427734 34.94429397583008
    vertex 18.71529579162598 87.19185638427734 34.94429397583008
  endloop
endfacet
facet normal 3.457236336744233e-15 0.9807879328727722 0.1950769424438477
  outer loop
    vertex 26.75600624084473 87.19185638427734 34.94429397583008
    vertex 18.71529579162598 86.89437103271484 36.43996047973633
    vertex 26.75600624084473 86.89437103271484 36.43996047973633
  endloop
endfacet
facet normal -1.958256529548401e-15 -0.5555403828620911 -0.8314895629882813
  outer loop
    vertex 18.71529579162598 80.51985931396484 32.18068313598633
    vertex 26.75600242614746 81.78792572021484 31.33345603942871
    vertex 26.75600242614746 80.51985931396484 32.18068313598633
  endloop
endfacet
facet normal -1.958256529548401e-15 -0.5555403828620911 -0.8314895629882813
  outer loop
    vertex 26.75600242614746 81.78792572021484 31.33345603942871
    vertex 18.71529579162598 80.51985931396484 32.18068313598633
    vertex 18.71529579162598 81.78792572021484 31.33345603942871
  endloop
endfacet
facet normal 0.9944953918457031 0.05821223556995392 0.08712190389633179
  outer loop
    vertex 18.68597602844238 84.88777923583984 38.81727981567383
    vertex 18.71529579162598 86.04720306396484 37.70790481567383
    vertex 18.68597602844238 86.24776458740234 37.90852737426758
  endloop
endfacet
facet normal 0.9944953918457031 0.05821223556995392 0.08712190389633179
  outer loop
    vertex 18.71529579162598 86.04720306396484 37.70790481567383
    vertex 18.68597602844238 84.88777923583984 38.81727981567383
    vertex 18.71529579162598 84.77913665771484 38.55513381958008
  endloop
endfacet
facet normal 0.9944936633110046 0.1027835234999657 0.02044379152357578
  outer loop
    vertex 18.68597602844238 87.15645599365234 36.54854202270508
    vertex 18.71529579162598 87.19185638427734 34.94429397583008
    vertex 18.68597602844238 87.47554779052734 34.94429397583008
  endloop
endfacet
facet normal 0.9944936633110046 0.1027835234999657 0.02044379152357578
  outer loop
    vertex 18.71529579162598 87.19185638427734 34.94429397583008
    vertex 18.68597602844238 87.15645599365234 36.54854202270508
    vertex 18.71529579162598 86.89437103271484 36.43996047973633
  endloop
endfacet
facet normal 0.9944936633110046 0.1027835234999657 -0.02044379152357578
  outer loop
    vertex 18.71529579162598 87.19185638427734 34.94429397583008
    vertex 18.68597602844238 87.15645599365234 33.34004592895508
    vertex 18.68597602844238 87.47554779052734 34.94429397583008
  endloop
endfacet
facet normal 0.9944936633110046 0.1027835234999657 -0.02044379152357578
  outer loop
    vertex 18.68597602844238 87.15645599365234 33.34004592895508
    vertex 18.71529579162598 87.19185638427734 34.94429397583008
    vertex 18.71529579162598 86.89437103271484 33.44862747192383
  endloop
endfacet
facet normal 0.99449223279953 -0.1027967482805252 0.0204464215785265
  outer loop
    vertex 18.68597221374512 79.41060638427734 36.54854202270508
    vertex 18.71529579162598 79.37520599365234 34.94429397583008
    vertex 18.71529579162598 79.67269134521484 36.43996047973633
  endloop
endfacet
facet normal 0.99449223279953 -0.1027967482805252 0.0204464215785265
  outer loop
    vertex 18.71529579162598 79.37520599365234 34.94429397583008
    vertex 18.68597221374512 79.41060638427734 36.54854202270508
    vertex 18.68597221374512 79.09151458740234 34.94429397583008
  endloop
endfacet
facet normal 0.9944939613342285 -0.05821972340345383 0.08713310956954956
  outer loop
    vertex 18.68597221374512 81.67928314208984 38.81727981567383
    vertex 18.71529579162598 80.51985931396484 37.70790481567383
    vertex 18.71529579162598 81.78792572021484 38.55513381958008
  endloop
endfacet
facet normal 0.9944939613342285 -0.05821972340345383 0.08713310956954956
  outer loop
    vertex 18.71529579162598 80.51985931396484 37.70790481567383
    vertex 18.68597221374512 81.67928314208984 38.81727981567383
    vertex 18.68597221374512 80.31929779052734 37.90852737426758
  endloop
endfacet
facet normal 0.9944934248924255 0.08713828027248383 0.05822174623608589
  outer loop
    vertex 18.68597602844238 86.24776458740234 37.90852737426758
    vertex 18.71529579162598 86.89437103271484 36.43996047973633
    vertex 18.68597602844238 87.15645599365234 36.54854202270508
  endloop
endfacet
facet normal 0.9944934248924255 0.08713828027248383 0.05822174623608589
  outer loop
    vertex 18.71529579162598 86.89437103271484 36.43996047973633
    vertex 18.68597602844238 86.24776458740234 37.90852737426758
    vertex 18.71529579162598 86.04720306396484 37.70790481567383
  endloop
endfacet
facet normal -0.3520616888999939 -0.7782372236251831 0.5199994444847107
  outer loop
    vertex 18.68597221374512 79.41060638427734 36.54854202270508
    vertex 18.27143669128418 80.43172454833984 37.79610061645508
    vertex 18.27143669128418 79.55745697021484 36.48768997192383
  endloop
endfacet
facet normal -0.3520616888999939 -0.7782372236251831 0.5199994444847107
  outer loop
    vertex 18.27143669128418 80.43172454833984 37.79610061645508
    vertex 18.68597221374512 79.41060638427734 36.54854202270508
    vertex 18.68597221374512 80.31929779052734 37.90852737426758
  endloop
endfacet
facet normal -0.3519948422908783 -0.9180173277854919 0.1826029419898987
  outer loop
    vertex 18.68597221374512 79.41060638427734 36.54854202270508
    vertex 18.27143669128418 79.25045013427734 34.94429397583008
    vertex 18.68597221374512 79.09151458740234 34.94429397583008
  endloop
endfacet
facet normal -0.3519948422908783 -0.9180173277854919 0.1826029419898987
  outer loop
    vertex 18.27143669128418 79.25045013427734 34.94429397583008
    vertex 18.68597221374512 79.41060638427734 36.54854202270508
    vertex 18.27143669128418 79.55745697021484 36.48768997192383
  endloop
endfacet
facet normal -0.3520616888999939 -0.7782372236251831 -0.5199994444847107
  outer loop
    vertex 18.68597221374512 79.41060638427734 33.34004592895508
    vertex 18.27143669128418 80.43172454833984 32.09248733520508
    vertex 18.68597221374512 80.31929779052734 31.98006248474121
  endloop
endfacet
facet normal -0.3520616888999939 -0.7782372236251831 -0.5199994444847107
  outer loop
    vertex 18.27143669128418 80.43172454833984 32.09248733520508
    vertex 18.68597221374512 79.41060638427734 33.34004592895508
    vertex 18.27143669128418 79.55745697021484 33.40089797973633
  endloop
endfacet
facet normal -0.3521454334259033 -0.5199864506721497 -0.7782080173492432
  outer loop
    vertex 18.27143669128418 80.43172454833984 32.09248733520508
    vertex 18.68597221374512 81.67928314208984 31.07131004333496
    vertex 18.68597221374512 80.31929779052734 31.98006248474121
  endloop
endfacet
facet normal -0.3521454334259033 -0.5199864506721497 -0.7782080173492432
  outer loop
    vertex 18.68597221374512 81.67928314208984 31.07131004333496
    vertex 18.27143669128418 80.43172454833984 32.09248733520508
    vertex 18.27143669128418 81.74019622802734 31.21822166442871
  endloop
endfacet
facet normal 0.99449223279953 -0.1027967482805252 -0.0204464215785265
  outer loop
    vertex 18.71529579162598 79.37520599365234 34.94429397583008
    vertex 18.68597221374512 79.41060638427734 33.34004592895508
    vertex 18.71529579162598 79.67269134521484 33.44862747192383
  endloop
endfacet
facet normal 0.99449223279953 -0.1027967482805252 -0.0204464215785265
  outer loop
    vertex 18.68597221374512 79.41060638427734 33.34004592895508
    vertex 18.71529579162598 79.37520599365234 34.94429397583008
    vertex 18.68597221374512 79.09151458740234 34.94429397583008
  endloop
endfacet
facet normal 0.9944953918457031 0.05821223556995392 -0.08712190389633179
  outer loop
    vertex 18.71529579162598 86.04720306396484 32.18068313598633
    vertex 18.68597602844238 84.88777923583984 31.07131004333496
    vertex 18.68597602844238 86.24776458740234 31.98006057739258
  endloop
endfacet
facet normal 0.9944953918457031 0.05821223556995392 -0.08712190389633179
  outer loop
    vertex 18.68597602844238 84.88777923583984 31.07131004333496
    vertex 18.71529579162598 86.04720306396484 32.18068313598633
    vertex 18.71529579162598 84.77913665771484 31.33345603942871
  endloop
endfacet
facet normal 0.9944919943809509 -0.0871494933962822 0.0582292377948761
  outer loop
    vertex 18.68597221374512 80.31929779052734 37.90852737426758
    vertex 18.71529579162598 79.67269134521484 36.43996047973633
    vertex 18.71529579162598 80.51985931396484 37.70790481567383
  endloop
endfacet
facet normal 0.9944919943809509 -0.0871494933962822 0.0582292377948761
  outer loop
    vertex 18.71529579162598 79.67269134521484 36.43996047973633
    vertex 18.68597221374512 80.31929779052734 37.90852737426758
    vertex 18.68597221374512 79.41060638427734 36.54854202270508
  endloop
endfacet
facet normal 0.9944919943809509 -0.0871494933962822 -0.0582292377948761
  outer loop
    vertex 18.71529579162598 79.67269134521484 33.44862747192383
    vertex 18.68597221374512 80.31929779052734 31.98006248474121
    vertex 18.71529579162598 80.51985931396484 32.18068313598633
  endloop
endfacet
facet normal 0.9944919943809509 -0.0871494933962822 -0.0582292377948761
  outer loop
    vertex 18.68597221374512 80.31929779052734 31.98006248474121
    vertex 18.71529579162598 79.67269134521484 33.44862747192383
    vertex 18.68597221374512 79.41060638427734 33.34004592895508
  endloop
endfacet
facet normal -3.457236336744233e-15 -0.9807879328727722 0.1950769424438477
  outer loop
    vertex 26.75600242614746 79.67269134521484 36.43996047973633
    vertex 18.71529579162598 79.37520599365234 34.94429397583008
    vertex 26.75600242614746 79.37520599365234 34.94429397583008
  endloop
endfacet
facet normal -3.457236336744233e-15 -0.9807879328727722 0.1950769424438477
  outer loop
    vertex 18.71529579162598 79.37520599365234 34.94429397583008
    vertex 26.75600242614746 79.67269134521484 36.43996047973633
    vertex 18.71529579162598 79.67269134521484 36.43996047973633
  endloop
endfacet
facet normal -0.3521454334259033 0.5199864506721497 -0.7782080173492432
  outer loop
    vertex 18.27144050598145 84.82686614990234 31.21822166442871
    vertex 18.68597602844238 86.24776458740234 31.98006057739258
    vertex 18.68597602844238 84.88777923583984 31.07131004333496
  endloop
endfacet
facet normal -0.3521454334259033 0.5199864506721497 -0.7782080173492432
  outer loop
    vertex 18.68597602844238 86.24776458740234 31.98006057739258
    vertex 18.27144050598145 84.82686614990234 31.21822166442871
    vertex 18.27144050598145 86.13533782958984 32.09248733520508
  endloop
endfacet
facet normal 0.9944947957992554 -0.02044201269745827 -0.102772630751133
  outer loop
    vertex 18.71529579162598 81.78792572021484 31.33345603942871
    vertex 18.68597221374512 83.28353118896484 30.75221824645996
    vertex 18.71529579162598 83.28353118896484 31.03597068786621
  endloop
endfacet
facet normal 0.9944947957992554 -0.02044201269745827 -0.102772630751133
  outer loop
    vertex 18.68597221374512 83.28353118896484 30.75221824645996
    vertex 18.71529579162598 81.78792572021484 31.33345603942871
    vertex 18.68597221374512 81.67928314208984 31.07131004333496
  endloop
endfacet
facet normal -0.5109964609146118 -0.843064546585083 -0.167704313993454
  outer loop
    vertex 18.27143669128418 79.25045013427734 34.94429397583008
    vertex 17.76047706604004 79.84358978271484 33.51942825317383
    vertex 18.27143669128418 79.55745697021484 33.40089797973633
  endloop
endfacet
facet normal -0.5109964609146118 -0.843064546585083 -0.167704313993454
  outer loop
    vertex 17.76047706604004 79.84358978271484 33.51942825317383
    vertex 18.27143669128418 79.25045013427734 34.94429397583008
    vertex 17.76047706604004 79.56014251708984 34.94429397583008
  endloop
endfacet
facet normal -0.3521454334259033 -0.5199864506721497 0.7782080173492432
  outer loop
    vertex 18.27143669128418 81.74019622802734 38.67036819458008
    vertex 18.68597221374512 80.31929779052734 37.90852737426758
    vertex 18.68597221374512 81.67928314208984 38.81727981567383
  endloop
endfacet
facet normal -0.3521454334259033 -0.5199864506721497 0.7782080173492432
  outer loop
    vertex 18.68597221374512 80.31929779052734 37.90852737426758
    vertex 18.27143669128418 81.74019622802734 38.67036819458008
    vertex 18.27143669128418 80.43172454833984 37.79610061645508
  endloop
endfacet
facet normal -0.3521842360496521 -0.182575598359108 -0.9179500937461853
  outer loop
    vertex 18.27143669128418 81.74019622802734 31.21822166442871
    vertex 18.68597221374512 83.28353118896484 30.75221824645996
    vertex 18.68597221374512 81.67928314208984 31.07131004333496
  endloop
endfacet
facet normal -0.3521842360496521 -0.182575598359108 -0.9179500937461853
  outer loop
    vertex 18.68597221374512 83.28353118896484 30.75221824645996
    vertex 18.27143669128418 81.74019622802734 31.21822166442871
    vertex 18.27143669128418 83.28353118896484 30.91127586364746
  endloop
endfacet
facet normal -0.3519948422908783 -0.9180173277854919 -0.1826029419898987
  outer loop
    vertex 18.68597221374512 79.09151458740234 34.94429397583008
    vertex 18.27143669128418 79.55745697021484 33.40089797973633
    vertex 18.68597221374512 79.41060638427734 33.34004592895508
  endloop
endfacet
facet normal -0.3519948422908783 -0.9180173277854919 -0.1826029419898987
  outer loop
    vertex 18.27143669128418 79.55745697021484 33.40089797973633
    vertex 18.68597221374512 79.09151458740234 34.94429397583008
    vertex 18.27143669128418 79.25045013427734 34.94429397583008
  endloop
endfacet
facet normal 0.9944934248924255 0.08713828027248383 -0.05822174623608589
  outer loop
    vertex 18.71529579162598 86.89437103271484 33.44862747192383
    vertex 18.68597602844238 86.24776458740234 31.98006057739258
    vertex 18.68597602844238 87.15645599365234 33.34004592895508
  endloop
endfacet
facet normal 0.9944934248924255 0.08713828027248383 -0.05822174623608589
  outer loop
    vertex 18.68597602844238 86.24776458740234 31.98006057739258
    vertex 18.71529579162598 86.89437103271484 33.44862747192383
    vertex 18.71529579162598 86.04720306396484 32.18068313598633
  endloop
endfacet
facet normal -1.963064923831727e-15 -0.5555403828620911 0.8314895629882813
  outer loop
    vertex 18.71529579162598 81.78792572021484 38.55513381958008
    vertex 26.75600242614746 80.51985931396484 37.70790481567383
    vertex 26.75600242614746 81.78792572021484 38.55513381958008
  endloop
endfacet
facet normal -1.963064923831727e-15 -0.5555403828620911 0.8314895629882813
  outer loop
    vertex 26.75600242614746 80.51985931396484 37.70790481567383
    vertex 18.71529579162598 81.78792572021484 38.55513381958008
    vertex 18.71529579162598 80.51985931396484 37.70790481567383
  endloop
endfacet
facet normal 0.9944939613342285 -0.05821972340345383 -0.08713310956954956
  outer loop
    vertex 18.71529579162598 80.51985931396484 32.18068313598633
    vertex 18.68597221374512 81.67928314208984 31.07131004333496
    vertex 18.71529579162598 81.78792572021484 31.33345603942871
  endloop
endfacet
facet normal 0.9944939613342285 -0.05821972340345383 -0.08713310956954956
  outer loop
    vertex 18.68597221374512 81.67928314208984 31.07131004333496
    vertex 18.71529579162598 80.51985931396484 32.18068313598633
    vertex 18.68597221374512 80.31929779052734 31.98006248474121
  endloop
endfacet
facet normal 2.930944061670798e-15 0.8314833641052246 0.555549681186676
  outer loop
    vertex 18.71529579162598 86.04720306396484 37.70790481567383
    vertex 26.75600624084473 86.89437103271484 36.43996047973633
    vertex 18.71529579162598 86.89437103271484 36.43996047973633
  endloop
endfacet
facet normal 2.930944061670798e-15 0.8314833641052246 0.555549681186676
  outer loop
    vertex 26.75600624084473 86.89437103271484 36.43996047973633
    vertex 18.71529579162598 86.04720306396484 37.70790481567383
    vertex 26.75600624084473 86.04720306396484 37.70790481567383
  endloop
endfacet
facet normal -0.3519948422908783 0.9180173277854919 0.1826029419898987
  outer loop
    vertex 18.27144050598145 87.00960540771484 36.48768997192383
    vertex 18.68597602844238 87.47554779052734 34.94429397583008
    vertex 18.27144050598145 87.31661224365234 34.94429397583008
  endloop
endfacet
facet normal -0.3519948422908783 0.9180173277854919 0.1826029419898987
  outer loop
    vertex 18.68597602844238 87.47554779052734 34.94429397583008
    vertex 18.27144050598145 87.00960540771484 36.48768997192383
    vertex 18.68597602844238 87.15645599365234 36.54854202270508
  endloop
endfacet
facet normal -0.5108980536460876 0.4775945246219635 -0.714763343334198
  outer loop
    vertex 17.76047706604004 84.70845794677734 31.50429344177246
    vertex 18.27144050598145 86.13533782958984 32.09248733520508
    vertex 18.27144050598145 84.82686614990234 31.21822166442871
  endloop
endfacet
facet normal -0.5108980536460876 0.4775945246219635 -0.714763343334198
  outer loop
    vertex 18.27144050598145 86.13533782958984 32.09248733520508
    vertex 17.76047706604004 84.70845794677734 31.50429344177246
    vertex 17.76047706604004 85.91634368896484 32.31142044067383
  endloop
endfacet
facet normal -0.5108700394630432 -0.167701929807663 -0.8431416749954224
  outer loop
    vertex 17.76047706604004 81.85860443115234 31.50429344177246
    vertex 18.27143669128418 83.28353118896484 30.91127586364746
    vertex 18.27143669128418 81.74019622802734 31.21822166442871
  endloop
endfacet
facet normal -0.5108700394630432 -0.167701929807663 -0.8431416749954224
  outer loop
    vertex 18.27143669128418 83.28353118896484 30.91127586364746
    vertex 17.76047706604004 81.85860443115234 31.50429344177246
    vertex 17.76047706604004 83.28353118896484 31.22084617614746
  endloop
endfacet
facet normal -0.5109822750091553 0.714726448059082 0.4775596857070923
  outer loop
    vertex 17.76047706604004 85.91634368896484 37.57716751098633
    vertex 18.27144050598145 87.00960540771484 36.48768997192383
    vertex 17.76047706604004 86.72347259521484 36.36915969848633
  endloop
endfacet
facet normal -0.5109822750091553 0.714726448059082 0.4775596857070923
  outer loop
    vertex 18.27144050598145 87.00960540771484 36.48768997192383
    vertex 17.76047706604004 85.91634368896484 37.57716751098633
    vertex 18.27144050598145 86.13533782958984 37.79610061645508
  endloop
endfacet
facet normal -0.6268405914306641 -0.6478443145751953 0.4328609704971313
  outer loop
    vertex 17.76047706604004 79.84358978271484 36.36915969848633
    vertex 17.40767860412598 80.85530853271484 37.37245559692383
    vertex 17.40767860412598 80.11092376708984 36.25838088989258
  endloop
endfacet
facet normal -0.6268405914306641 -0.6478443145751953 0.4328609704971313
  outer loop
    vertex 17.40767860412598 80.85530853271484 37.37245559692383
    vertex 17.76047706604004 79.84358978271484 36.36915969848633
    vertex 17.76047706604004 80.65071868896484 37.57716751098633
  endloop
endfacet
facet normal -0.3519948422908783 0.9180173277854919 -0.1826029419898987
  outer loop
    vertex 18.27144050598145 87.00960540771484 33.40089797973633
    vertex 18.68597602844238 87.47554779052734 34.94429397583008
    vertex 18.68597602844238 87.15645599365234 33.34004592895508
  endloop
endfacet
facet normal -0.3519948422908783 0.9180173277854919 -0.1826029419898987
  outer loop
    vertex 18.68597602844238 87.47554779052734 34.94429397583008
    vertex 18.27144050598145 87.00960540771484 33.40089797973633
    vertex 18.27144050598145 87.31661224365234 34.94429397583008
  endloop
endfacet
facet normal -0.5109009146690369 -0.4775936007499695 -0.7147619128227234
  outer loop
    vertex 17.76047706604004 80.65071868896484 32.31142044067383
    vertex 18.27143669128418 81.74019622802734 31.21822166442871
    vertex 18.27143669128418 80.43172454833984 32.09248733520508
  endloop
endfacet
facet normal -0.5109009146690369 -0.4775936007499695 -0.7147619128227234
  outer loop
    vertex 18.27143669128418 81.74019622802734 31.21822166442871
    vertex 17.76047706604004 80.65071868896484 32.31142044067383
    vertex 17.76047706604004 81.85860443115234 31.50429344177246
  endloop
endfacet
facet normal -0.6269538998603821 -0.4328190982341766 0.6477625966072083
  outer loop
    vertex 17.40767860412598 81.96944427490234 38.11684036254883
    vertex 17.76047706604004 80.65071868896484 37.57716751098633
    vertex 17.76047706604004 81.85860443115234 38.38429641723633
  endloop
endfacet
facet normal -0.6269538998603821 -0.4328190982341766 0.6477625966072083
  outer loop
    vertex 17.76047706604004 80.65071868896484 37.57716751098633
    vertex 17.40767860412598 81.96944427490234 38.11684036254883
    vertex 17.40767860412598 80.85530853271484 37.37245559692383
  endloop
endfacet
facet normal -0.3521842360496521 0.1825764179229736 0.9179499745368958
  outer loop
    vertex 18.27144050598145 84.82686614990234 38.67036819458008
    vertex 18.68597221374512 83.28353118896484 39.13637161254883
    vertex 18.68597602844238 84.88777923583984 38.81727981567383
  endloop
endfacet
facet normal -0.3521842360496521 0.1825764179229736 0.9179499745368958
  outer loop
    vertex 18.68597221374512 83.28353118896484 39.13637161254883
    vertex 18.27144050598145 84.82686614990234 38.67036819458008
    vertex 18.27143669128418 83.28353118896484 38.97731399536133
  endloop
endfacet
facet normal -0.5109822750091553 0.714726448059082 -0.4775596857070923
  outer loop
    vertex 17.76047706604004 85.91634368896484 32.31142044067383
    vertex 18.27144050598145 87.00960540771484 33.40089797973633
    vertex 18.27144050598145 86.13533782958984 32.09248733520508
  endloop
endfacet
facet normal -0.5109822750091553 0.714726448059082 -0.4775596857070923
  outer loop
    vertex 18.27144050598145 87.00960540771484 33.40089797973633
    vertex 17.76047706604004 85.91634368896484 32.31142044067383
    vertex 17.76047706604004 86.72347259521484 33.51942825317383
  endloop
endfacet
facet normal -0.5108980536460876 0.4775945246219635 0.714763343334198
  outer loop
    vertex 17.76047706604004 85.91634368896484 37.57716751098633
    vertex 18.27144050598145 84.82686614990234 38.67036819458008
    vertex 18.27144050598145 86.13533782958984 37.79610061645508
  endloop
endfacet
facet normal -0.5108980536460876 0.4775945246219635 0.714763343334198
  outer loop
    vertex 18.27144050598145 84.82686614990234 38.67036819458008
    vertex 17.76047706604004 85.91634368896484 37.57716751098633
    vertex 17.76047706604004 84.70845794677734 38.38429641723633
  endloop
endfacet
facet normal -0.3521454334259033 0.5199864506721497 0.7782080173492432
  outer loop
    vertex 18.27144050598145 86.13533782958984 37.79610061645508
    vertex 18.68597602844238 84.88777923583984 38.81727981567383
    vertex 18.68597602844238 86.24776458740234 37.90852737426758
  endloop
endfacet
facet normal -0.3521454334259033 0.5199864506721497 0.7782080173492432
  outer loop
    vertex 18.68597602844238 84.88777923583984 38.81727981567383
    vertex 18.27144050598145 86.13533782958984 37.79610061645508
    vertex 18.27144050598145 84.82686614990234 38.67036819458008
  endloop
endfacet
facet normal -0.5109936594963074 0.8430662155151367 0.1677046418190002
  outer loop
    vertex 17.76047706604004 86.72347259521484 36.36915969848633
    vertex 18.27144050598145 87.31661224365234 34.94429397583008
    vertex 17.76047706604004 87.00691986083984 34.94429397583008
  endloop
endfacet
facet normal -0.5109936594963074 0.8430662155151367 0.1677046418190002
  outer loop
    vertex 18.27144050598145 87.31661224365234 34.94429397583008
    vertex 17.76047706604004 86.72347259521484 36.36915969848633
    vertex 18.27144050598145 87.00960540771484 36.48768997192383
  endloop
endfacet
facet normal -0.5109936594963074 0.8430662155151367 -0.1677046418190002
  outer loop
    vertex 17.76047706604004 86.72347259521484 33.51942825317383
    vertex 18.27144050598145 87.31661224365234 34.94429397583008
    vertex 18.27144050598145 87.00960540771484 33.40089797973633
  endloop
endfacet
facet normal -0.5109936594963074 0.8430662155151367 -0.1677046418190002
  outer loop
    vertex 18.27144050598145 87.31661224365234 34.94429397583008
    vertex 17.76047706604004 86.72347259521484 33.51942825317383
    vertex 17.76047706604004 87.00691986083984 34.94429397583008
  endloop
endfacet
facet normal -0.5109850764274597 -0.7147250175476074 -0.4775587618350983
  outer loop
    vertex 18.27143669128418 79.55745697021484 33.40089797973633
    vertex 17.76047706604004 80.65071868896484 32.31142044067383
    vertex 18.27143669128418 80.43172454833984 32.09248733520508
  endloop
endfacet
facet normal -0.5109850764274597 -0.7147250175476074 -0.4775587618350983
  outer loop
    vertex 17.76047706604004 80.65071868896484 32.31142044067383
    vertex 18.27143669128418 79.55745697021484 33.40089797973633
    vertex 17.76047706604004 79.84358978271484 33.51942825317383
  endloop
endfacet
facet normal -0.3520616888999939 0.7782372236251831 -0.5199994444847107
  outer loop
    vertex 18.27144050598145 86.13533782958984 32.09248733520508
    vertex 18.68597602844238 87.15645599365234 33.34004592895508
    vertex 18.68597602844238 86.24776458740234 31.98006057739258
  endloop
endfacet
facet normal -0.3520616888999939 0.7782372236251831 -0.5199994444847107
  outer loop
    vertex 18.68597602844238 87.15645599365234 33.34004592895508
    vertex 18.27144050598145 86.13533782958984 32.09248733520508
    vertex 18.27144050598145 87.00960540771484 33.40089797973633
  endloop
endfacet
facet normal -0.5109850764274597 -0.7147250175476074 0.4775587618350983
  outer loop
    vertex 18.27143669128418 79.55745697021484 36.48768997192383
    vertex 17.76047706604004 80.65071868896484 37.57716751098633
    vertex 17.76047706604004 79.84358978271484 36.36915969848633
  endloop
endfacet
facet normal -0.5109850764274597 -0.7147250175476074 0.4775587618350983
  outer loop
    vertex 17.76047706604004 80.65071868896484 37.57716751098633
    vertex 18.27143669128418 79.55745697021484 36.48768997192383
    vertex 18.27143669128418 80.43172454833984 37.79610061645508
  endloop
endfacet
facet normal -0.5109964609146118 -0.843064546585083 0.167704313993454
  outer loop
    vertex 18.27143669128418 79.55745697021484 36.48768997192383
    vertex 17.76047706604004 79.56014251708984 34.94429397583008
    vertex 18.27143669128418 79.25045013427734 34.94429397583008
  endloop
endfacet
facet normal -0.5109964609146118 -0.843064546585083 0.167704313993454
  outer loop
    vertex 17.76047706604004 79.56014251708984 34.94429397583008
    vertex 18.27143669128418 79.55745697021484 36.48768997192383
    vertex 17.76047706604004 79.84358978271484 36.36915969848633
  endloop
endfacet
facet normal -0.3520616888999939 0.7782372236251831 0.5199994444847107
  outer loop
    vertex 18.27144050598145 86.13533782958984 37.79610061645508
    vertex 18.68597602844238 87.15645599365234 36.54854202270508
    vertex 18.27144050598145 87.00960540771484 36.48768997192383
  endloop
endfacet
facet normal -0.3520616888999939 0.7782372236251831 0.5199994444847107
  outer loop
    vertex 18.68597602844238 87.15645599365234 36.54854202270508
    vertex 18.27144050598145 86.13533782958984 37.79610061645508
    vertex 18.68597602844238 86.24776458740234 37.90852737426758
  endloop
endfacet
facet normal -0.5109009146690369 -0.4775936007499695 0.7147619128227234
  outer loop
    vertex 17.76047706604004 81.85860443115234 38.38429641723633
    vertex 18.27143669128418 80.43172454833984 37.79610061645508
    vertex 18.27143669128418 81.74019622802734 38.67036819458008
  endloop
endfacet
facet normal -0.5109009146690369 -0.4775936007499695 0.7147619128227234
  outer loop
    vertex 18.27143669128418 80.43172454833984 37.79610061645508
    vertex 17.76047706604004 81.85860443115234 38.38429641723633
    vertex 17.76047706604004 80.65071868896484 37.57716751098633
  endloop
endfacet
facet normal -0.5108686685562134 0.1677027493715286 0.8431423306465149
  outer loop
    vertex 17.76047706604004 84.70845794677734 38.38429641723633
    vertex 18.27143669128418 83.28353118896484 38.97731399536133
    vertex 18.27144050598145 84.82686614990234 38.67036819458008
  endloop
endfacet
facet normal -0.5108686685562134 0.1677027493715286 0.8431423306465149
  outer loop
    vertex 18.27143669128418 83.28353118896484 38.97731399536133
    vertex 17.76047706604004 84.70845794677734 38.38429641723633
    vertex 17.76047706604004 83.28353118896484 38.66774368286133
  endloop
endfacet
facet normal -0.6268466114997864 0.7641721963882446 -0.1520006954669952
  outer loop
    vertex 17.40767860412598 86.45613861083984 33.63020706176758
    vertex 17.76047706604004 87.00691986083984 34.94429397583008
    vertex 17.76047706604004 86.72347259521484 33.51942825317383
  endloop
endfacet
facet normal -0.6268466114997864 0.7641721963882446 -0.1520006954669952
  outer loop
    vertex 17.76047706604004 87.00691986083984 34.94429397583008
    vertex 17.40767860412598 86.45613861083984 33.63020706176758
    vertex 17.40767860412598 86.71749114990234 34.94429397583008
  endloop
endfacet
facet normal -0.6268405914306641 -0.6478443145751953 -0.4328609704971313
  outer loop
    vertex 17.76047706604004 79.84358978271484 33.51942825317383
    vertex 17.40767860412598 80.85530853271484 32.51613235473633
    vertex 17.76047706604004 80.65071868896484 32.31142044067383
  endloop
endfacet
facet normal -0.6268405914306641 -0.6478443145751953 -0.4328609704971313
  outer loop
    vertex 17.40767860412598 80.85530853271484 32.51613235473633
    vertex 17.76047706604004 79.84358978271484 33.51942825317383
    vertex 17.40767860412598 80.11092376708984 33.63020706176758
  endloop
endfacet
facet normal -0.6269538998603821 0.4328190982341766 -0.6477625966072083
  outer loop
    vertex 17.40767860412598 84.59761810302734 31.77174949645996
    vertex 17.76047706604004 85.91634368896484 32.31142044067383
    vertex 17.76047706604004 84.70845794677734 31.50429344177246
  endloop
endfacet
facet normal -0.6269538998603821 0.4328190982341766 -0.6477625966072083
  outer loop
    vertex 17.76047706604004 85.91634368896484 32.31142044067383
    vertex 17.40767860412598 84.59761810302734 31.77174949645996
    vertex 17.40767860412598 85.71175384521484 32.51613235473633
  endloop
endfacet
facet normal -0.6268405914306641 0.6478443145751953 0.4328609704971313
  outer loop
    vertex 17.40767860412598 85.71175384521484 37.37245559692383
    vertex 17.76047706604004 86.72347259521484 36.36915969848633
    vertex 17.40767860412598 86.45613861083984 36.25838088989258
  endloop
endfacet
facet normal -0.6268405914306641 0.6478443145751953 0.4328609704971313
  outer loop
    vertex 17.76047706604004 86.72347259521484 36.36915969848633
    vertex 17.40767860412598 85.71175384521484 37.37245559692383
    vertex 17.76047706604004 85.91634368896484 37.57716751098633
  endloop
endfacet
facet normal -0.6269749402999878 -0.1519928574562073 -0.7640684843063354
  outer loop
    vertex 17.40767860412598 81.96944427490234 31.77174949645996
    vertex 17.76047706604004 83.28353118896484 31.22084617614746
    vertex 17.76047706604004 81.85860443115234 31.50429344177246
  endloop
endfacet
facet normal -0.6269749402999878 -0.1519928574562073 -0.7640684843063354
  outer loop
    vertex 17.76047706604004 83.28353118896484 31.22084617614746
    vertex 17.40767860412598 81.96944427490234 31.77174949645996
    vertex 17.40767860412598 83.28353118896484 31.51033592224121
  endloop
endfacet
facet normal -0.6268445253372192 -0.7641736268997192 -0.152001827955246
  outer loop
    vertex 17.76047706604004 79.56014251708984 34.94429397583008
    vertex 17.40767860412598 80.11092376708984 33.63020706176758
    vertex 17.76047706604004 79.84358978271484 33.51942825317383
  endloop
endfacet
facet normal -0.6268445253372192 -0.7641736268997192 -0.152001827955246
  outer loop
    vertex 17.40767860412598 80.11092376708984 33.63020706176758
    vertex 17.76047706604004 79.56014251708984 34.94429397583008
    vertex 17.40767478942871 79.84957122802734 34.94429397583008
  endloop
endfacet
facet normal -0.6268466114997864 0.7641721963882446 0.1520006954669952
  outer loop
    vertex 17.40767860412598 86.45613861083984 36.25838088989258
    vertex 17.76047706604004 87.00691986083984 34.94429397583008
    vertex 17.40767860412598 86.71749114990234 34.94429397583008
  endloop
endfacet
facet normal -0.6268466114997864 0.7641721963882446 0.1520006954669952
  outer loop
    vertex 17.76047706604004 87.00691986083984 34.94429397583008
    vertex 17.40767860412598 86.45613861083984 36.25838088989258
    vertex 17.76047706604004 86.72347259521484 36.36915969848633
  endloop
endfacet
facet normal -1.922445670604384e-15 -0.5453811287879944 -0.8381881713867188
  outer loop
    vertex 17.40767860412598 84.30941009521484 37.35634231567383
    vertex 26.74538612365723 85.17916107177734 36.79042434692383
    vertex 26.74538612365723 84.30941009521484 37.35634231567383
  endloop
endfacet
facet normal -1.922445670604384e-15 -0.5453811287879944 -0.8381881713867188
  outer loop
    vertex 26.74538612365723 85.17916107177734 36.79042434692383
    vertex 17.40767860412598 84.30941009521484 37.35634231567383
    vertex 17.40767860412598 85.17916107177734 36.79042434692383
  endloop
endfacet
facet normal -3.453710773859524e-15 -0.9797877669334412 0.2000397592782974
  outer loop
    vertex 26.74538612365723 85.96431732177734 34.94429397583008
    vertex 17.40767860412598 85.76033782958984 33.94520950317383
    vertex 26.74538612365723 85.76033782958984 33.94520950317383
  endloop
endfacet
facet normal -3.453710773859524e-15 -0.9797877669334412 0.2000397592782974
  outer loop
    vertex 17.40767860412598 85.76033782958984 33.94520950317383
    vertex 26.74538612365723 85.96431732177734 34.94429397583008
    vertex 17.40767860412598 85.96431732177734 34.94429397583008
  endloop
endfacet
facet normal -0.6268445253372192 -0.7641736268997192 0.152001827955246
  outer loop
    vertex 17.76047706604004 79.84358978271484 36.36915969848633
    vertex 17.40767478942871 79.84957122802734 34.94429397583008
    vertex 17.76047706604004 79.56014251708984 34.94429397583008
  endloop
endfacet
facet normal -0.6268445253372192 -0.7641736268997192 0.152001827955246
  outer loop
    vertex 17.40767478942871 79.84957122802734 34.94429397583008
    vertex 17.76047706604004 79.84358978271484 36.36915969848633
    vertex 17.40767860412598 80.11092376708984 36.25838088989258
  endloop
endfacet
facet normal 1.922445670604384e-15 0.5453811287879944 -0.8381881713867188
  outer loop
    vertex 17.40767860412598 81.38790130615234 36.79042434692383
    vertex 26.74538612365723 82.25765228271484 37.35634231567383
    vertex 26.74538612365723 81.38790130615234 36.79042434692383
  endloop
endfacet
facet normal 1.922445670604384e-15 0.5453811287879944 -0.8381881713867188
  outer loop
    vertex 26.74538612365723 82.25765228271484 37.35634231567383
    vertex 17.40767860412598 81.38790130615234 36.79042434692383
    vertex 17.40767860412598 82.25765228271484 37.35634231567383
  endloop
endfacet
facet normal 6.703826379176399e-16 0.1901817321777344 0.9817488789558411
  outer loop
    vertex 17.40767860412598 83.28353118896484 32.33351516723633
    vertex 26.74538612365723 82.25765228271484 32.53224563598633
    vertex 26.74538612365723 83.28353118896484 32.33351516723633
  endloop
endfacet
facet normal 6.703826379176399e-16 0.1901817321777344 0.9817488789558411
  outer loop
    vertex 26.74538612365723 82.25765228271484 32.53224563598633
    vertex 17.40767860412598 83.28353118896484 32.33351516723633
    vertex 17.40767860412598 82.25765228271484 32.53224563598633
  endloop
endfacet
facet normal -0.6268405914306641 0.6478443145751953 -0.4328609704971313
  outer loop
    vertex 17.40767860412598 85.71175384521484 32.51613235473633
    vertex 17.76047706604004 86.72347259521484 33.51942825317383
    vertex 17.76047706604004 85.91634368896484 32.31142044067383
  endloop
endfacet
facet normal -0.6268405914306641 0.6478443145751953 -0.4328609704971313
  outer loop
    vertex 17.76047706604004 86.72347259521484 33.51942825317383
    vertex 17.40767860412598 85.71175384521484 32.51613235473633
    vertex 17.40767860412598 86.45613861083984 33.63020706176758
  endloop
endfacet
facet normal -0.6269749402999878 0.1519928574562073 0.7640684843063354
  outer loop
    vertex 17.40767860412598 84.59761810302734 38.11684036254883
    vertex 17.76047706604004 83.28353118896484 38.66774368286133
    vertex 17.76047706604004 84.70845794677734 38.38429641723633
  endloop
endfacet
facet normal -0.6269749402999878 0.1519928574562073 0.7640684843063354
  outer loop
    vertex 17.76047706604004 83.28353118896484 38.66774368286133
    vertex 17.40767860412598 84.59761810302734 38.11684036254883
    vertex 17.40767860412598 83.28353118896484 38.37825393676758
  endloop
endfacet
facet normal -2.906581911800107e-15 -0.8245720267295837 0.5657569766044617
  outer loop
    vertex 26.74538612365723 85.76033782958984 33.94520950317383
    vertex 17.40767860412598 85.17916107177734 33.09816360473633
    vertex 26.74538612365723 85.17916107177734 33.09816360473633
  endloop
endfacet
facet normal -2.906581911800107e-15 -0.8245720267295837 0.5657569766044617
  outer loop
    vertex 17.40767860412598 85.17916107177734 33.09816360473633
    vertex 26.74538612365723 85.76033782958984 33.94520950317383
    vertex 17.40767860412598 85.76033782958984 33.94520950317383
  endloop
endfacet
facet normal -3.453710773859524e-15 -0.9797877669334412 -0.2000397592782974
  outer loop
    vertex 26.74538612365723 85.76033782958984 35.94337844848633
    vertex 17.40767860412598 85.96431732177734 34.94429397583008
    vertex 26.74538612365723 85.96431732177734 34.94429397583008
  endloop
endfacet
facet normal -3.453710773859524e-15 -0.9797877669334412 -0.2000397592782974
  outer loop
    vertex 17.40767860412598 85.96431732177734 34.94429397583008
    vertex 26.74538612365723 85.76033782958984 35.94337844848633
    vertex 17.40767860412598 85.76033782958984 35.94337844848633
  endloop
endfacet
facet normal 2.904859046785392e-15 0.8245720267295837 0.5657569766044617
  outer loop
    vertex 17.40767860412598 80.80672454833984 33.94520950317383
    vertex 26.74538612365723 81.38790130615234 33.09816360473633
    vertex 17.40767860412598 81.38790130615234 33.09816360473633
  endloop
endfacet
facet normal 2.904859046785392e-15 0.8245720267295837 0.5657569766044617
  outer loop
    vertex 26.74538612365723 81.38790130615234 33.09816360473633
    vertex 17.40767860412598 80.80672454833984 33.94520950317383
    vertex 26.74538230895996 80.80672454833984 33.94520950317383
  endloop
endfacet
facet normal 3.453710773859524e-15 0.9797877669334412 0.2000397592782974
  outer loop
    vertex 17.40767860412598 80.60274505615234 34.94429397583008
    vertex 26.74538230895996 80.80672454833984 33.94520950317383
    vertex 17.40767860412598 80.80672454833984 33.94520950317383
  endloop
endfacet
facet normal 3.453710773859524e-15 0.9797877669334412 0.2000397592782974
  outer loop
    vertex 26.74538230895996 80.80672454833984 33.94520950317383
    vertex 17.40767860412598 80.60274505615234 34.94429397583008
    vertex 26.74538230895996 80.60274505615234 34.94429397583008
  endloop
endfacet
facet normal -1 3.696311807743768e-07 3.952498417447714e-08
  outer loop
    vertex 17.40767860412598 81.96944427490234 31.77174949645996
    vertex 17.40767860412598 83.28353118896484 32.33351516723633
    vertex 17.40767860412598 83.28353118896484 31.51033592224121
  endloop
endfacet
facet normal -1 3.696311807743768e-07 3.952498417447714e-08
  outer loop
    vertex 17.40767860412598 83.28353118896484 32.33351516723633
    vertex 17.40767860412598 81.96944427490234 31.77174949645996
    vertex 17.40767860412598 82.25765228271484 32.53224563598633
  endloop
endfacet
facet normal -1 3.696311807743768e-07 3.952498417447714e-08
  outer loop
    vertex 17.40767860412598 82.25765228271484 32.53224563598633
    vertex 17.40767860412598 81.96944427490234 31.77174949645996
    vertex 17.40767860412598 81.38790130615234 33.09816360473633
  endloop
endfacet
facet normal -1 3.696311807743768e-07 3.952498417447714e-08
  outer loop
    vertex 17.40767860412598 81.38790130615234 33.09816360473633
    vertex 17.40767860412598 81.96944427490234 31.77174949645996
    vertex 17.40767860412598 80.85530853271484 32.51613235473633
  endloop
endfacet
facet normal -1 3.696311807743768e-07 3.952498417447714e-08
  outer loop
    vertex 17.40767860412598 81.38790130615234 33.09816360473633
    vertex 17.40767860412598 80.85530853271484 32.51613235473633
    vertex 17.40767860412598 80.80672454833984 33.94520950317383
  endloop
endfacet
facet normal -1 3.696311807743768e-07 3.952498417447714e-08
  outer loop
    vertex 17.40767860412598 80.80672454833984 33.94520950317383
    vertex 17.40767860412598 80.85530853271484 32.51613235473633
    vertex 17.40767860412598 80.11092376708984 33.63020706176758
  endloop
endfacet
facet normal -1 3.696311807743768e-07 3.952498417447714e-08
  outer loop
    vertex 17.40767860412598 80.80672454833984 33.94520950317383
    vertex 17.40767860412598 80.11092376708984 33.63020706176758
    vertex 17.40767860412598 80.60274505615234 34.94429397583008
  endloop
endfacet
facet normal -1 3.696311807743768e-07 3.952498417447714e-08
  outer loop
    vertex 17.40767860412598 81.38790130615234 36.79042434692383
    vertex 17.40767860412598 81.96944427490234 38.11684036254883
    vertex 17.40767860412598 82.25765228271484 37.35634231567383
  endloop
endfacet
facet normal -1 3.696311807743768e-07 3.952498417447714e-08
  outer loop
    vertex 17.40767860412598 81.96944427490234 38.11684036254883
    vertex 17.40767860412598 81.38790130615234 36.79042434692383
    vertex 17.40767860412598 80.85530853271484 37.37245559692383
  endloop
endfacet
facet normal -1 3.696311807743768e-07 3.952498417447714e-08
  outer loop
    vertex 17.40767860412598 80.85530853271484 37.37245559692383
    vertex 17.40767860412598 81.38790130615234 36.79042434692383
    vertex 17.40767860412598 80.80672454833984 35.94337844848633
  endloop
endfacet
facet normal -1 3.696311807743768e-07 3.952498417447714e-08
  outer loop
    vertex 17.40767860412598 80.85530853271484 37.37245559692383
    vertex 17.40767860412598 80.80672454833984 35.94337844848633
    vertex 17.40767860412598 80.11092376708984 36.25838088989258
  endloop
endfacet
facet normal -1 3.696311807743768e-07 3.952498417447714e-08
  outer loop
    vertex 17.40767860412598 80.11092376708984 36.25838088989258
    vertex 17.40767860412598 80.80672454833984 35.94337844848633
    vertex 17.40767860412598 80.60274505615234 34.94429397583008
  endloop
endfacet
facet normal -1 3.696311807743768e-07 3.952498417447714e-08
  outer loop
    vertex 17.40767860412598 80.11092376708984 36.25838088989258
    vertex 17.40767860412598 80.60274505615234 34.94429397583008
    vertex 17.40767860412598 80.11092376708984 33.63020706176758
  endloop
endfacet
facet normal -1 3.696311807743768e-07 3.952498417447714e-08
  outer loop
    vertex 17.40767860412598 80.11092376708984 36.25838088989258
    vertex 17.40767860412598 80.11092376708984 33.63020706176758
    vertex 17.40767478942871 79.84957122802734 34.94429397583008
  endloop
endfacet
facet normal -1 3.524958103184872e-15 -2.859620781426168e-30
  outer loop
    vertex 17.40767860412598 86.45613861083984 33.63020706176758
    vertex 17.40767860412598 86.45613861083984 36.25838088989258
    vertex 17.40767860412598 86.71749114990234 34.94429397583008
  endloop
endfacet
facet normal -1 3.524958103184872e-15 -2.859620781426168e-30
  outer loop
    vertex 17.40767860412598 86.45613861083984 36.25838088989258
    vertex 17.40767860412598 86.45613861083984 33.63020706176758
    vertex 17.40767860412598 85.71175384521484 32.51613235473633
  endloop
endfacet
facet normal -1 3.524958103184872e-15 -2.859620781426168e-30
  outer loop
    vertex 17.40767860412598 86.45613861083984 36.25838088989258
    vertex 17.40767860412598 85.71175384521484 32.51613235473633
    vertex 17.40767860412598 85.96431732177734 34.94429397583008
  endloop
endfacet
facet normal -1 3.524958103184872e-15 -2.859620781426168e-30
  outer loop
    vertex 17.40767860412598 85.96431732177734 34.94429397583008
    vertex 17.40767860412598 85.71175384521484 32.51613235473633
    vertex 17.40767860412598 85.76033782958984 33.94520950317383
  endloop
endfacet
facet normal -1 3.524958103184872e-15 -2.859620781426168e-30
  outer loop
    vertex 17.40767860412598 85.76033782958984 33.94520950317383
    vertex 17.40767860412598 85.71175384521484 32.51613235473633
    vertex 17.40767860412598 85.17916107177734 33.09816360473633
  endloop
endfacet
facet normal -1 3.524958103184872e-15 -2.859620781426168e-30
  outer loop
    vertex 17.40767860412598 85.17916107177734 33.09816360473633
    vertex 17.40767860412598 85.71175384521484 32.51613235473633
    vertex 17.40767860412598 84.59761810302734 31.77174949645996
  endloop
endfacet
facet normal -1 3.524958103184872e-15 -2.859620781426168e-30
  outer loop
    vertex 17.40767860412598 85.17916107177734 33.09816360473633
    vertex 17.40767860412598 84.59761810302734 31.77174949645996
    vertex 17.40767860412598 84.30941009521484 32.53224563598633
  endloop
endfacet
facet normal -1 3.524958103184872e-15 -2.859620781426168e-30
  outer loop
    vertex 17.40767860412598 85.96431732177734 34.94429397583008
    vertex 17.40767860412598 85.71175384521484 37.37245559692383
    vertex 17.40767860412598 86.45613861083984 36.25838088989258
  endloop
endfacet
facet normal -1 3.524958103184872e-15 -2.859620781426168e-30
  outer loop
    vertex 17.40767860412598 85.71175384521484 37.37245559692383
    vertex 17.40767860412598 85.96431732177734 34.94429397583008
    vertex 17.40767860412598 85.76033782958984 35.94337844848633
  endloop
endfacet
facet normal -1 3.524958103184872e-15 -2.859620781426168e-30
  outer loop
    vertex 17.40767860412598 85.71175384521484 37.37245559692383
    vertex 17.40767860412598 85.76033782958984 35.94337844848633
    vertex 17.40767860412598 85.17916107177734 36.79042434692383
  endloop
endfacet
facet normal -1 3.524958103184872e-15 -2.859620781426168e-30
  outer loop
    vertex 17.40767860412598 85.71175384521484 37.37245559692383
    vertex 17.40767860412598 85.17916107177734 36.79042434692383
    vertex 17.40767860412598 84.59761810302734 38.11684036254883
  endloop
endfacet
facet normal -1 3.524958103184872e-15 -2.859620781426168e-30
  outer loop
    vertex 17.40767860412598 84.59761810302734 38.11684036254883
    vertex 17.40767860412598 85.17916107177734 36.79042434692383
    vertex 17.40767860412598 84.30941009521484 37.35634231567383
  endloop
endfacet
facet normal -1 3.524958103184872e-15 -2.859620781426168e-30
  outer loop
    vertex 17.40767860412598 84.59761810302734 38.11684036254883
    vertex 17.40767860412598 84.30941009521484 37.35634231567383
    vertex 17.40767860412598 83.28353118896484 38.37825393676758
  endloop
endfacet
facet normal -1 3.524958103184872e-15 -2.859620781426168e-30
  outer loop
    vertex 17.40767860412598 83.28353118896484 38.37825393676758
    vertex 17.40767860412598 84.30941009521484 37.35634231567383
    vertex 17.40767860412598 83.28353118896484 37.55507278442383
  endloop
endfacet
facet normal -0.6269538998603821 -0.4328190982341766 -0.6477625966072083
  outer loop
    vertex 17.40767860412598 80.85530853271484 32.51613235473633
    vertex 17.76047706604004 81.85860443115234 31.50429344177246
    vertex 17.76047706604004 80.65071868896484 32.31142044067383
  endloop
endfacet
facet normal -0.6269538998603821 -0.4328190982341766 -0.6477625966072083
  outer loop
    vertex 17.76047706604004 81.85860443115234 31.50429344177246
    vertex 17.40767860412598 80.85530853271484 32.51613235473633
    vertex 17.40767860412598 81.96944427490234 31.77174949645996
  endloop
endfacet
facet normal -0.6269538998603821 0.4328190982341766 0.6477625966072083
  outer loop
    vertex 17.40767860412598 85.71175384521484 37.37245559692383
    vertex 17.76047706604004 84.70845794677734 38.38429641723633
    vertex 17.76047706604004 85.91634368896484 37.57716751098633
  endloop
endfacet
facet normal -0.6269538998603821 0.4328190982341766 0.6477625966072083
  outer loop
    vertex 17.76047706604004 84.70845794677734 38.38429641723633
    vertex 17.40767860412598 85.71175384521484 37.37245559692383
    vertex 17.40767860412598 84.59761810302734 38.11684036254883
  endloop
endfacet
facet normal -1.922445670604384e-15 -0.5453811287879944 0.8381881713867188
  outer loop
    vertex 17.40767860412598 85.17916107177734 33.09816360473633
    vertex 26.74538612365723 84.30941009521484 32.53224563598633
    vertex 26.74538612365723 85.17916107177734 33.09816360473633
  endloop
endfacet
facet normal -1.922445670604384e-15 -0.5453811287879944 0.8381881713867188
  outer loop
    vertex 26.74538612365723 84.30941009521484 32.53224563598633
    vertex 17.40767860412598 85.17916107177734 33.09816360473633
    vertex 17.40767860412598 84.30941009521484 32.53224563598633
  endloop
endfacet
facet normal 1.922445670604384e-15 0.5453811287879944 0.8381881713867188
  outer loop
    vertex 17.40767860412598 82.25765228271484 32.53224563598633
    vertex 26.74538612365723 81.38790130615234 33.09816360473633
    vertex 26.74538612365723 82.25765228271484 32.53224563598633
  endloop
endfacet
facet normal 1.922445670604384e-15 0.5453811287879944 0.8381881713867188
  outer loop
    vertex 26.74538612365723 81.38790130615234 33.09816360473633
    vertex 17.40767860412598 82.25765228271484 32.53224563598633
    vertex 17.40767860412598 81.38790130615234 33.09816360473633
  endloop
endfacet
facet normal 2.907504965954377e-15 0.8245720267295837 -0.5657569766044617
  outer loop
    vertex 17.40767860412598 81.38790130615234 36.79042434692383
    vertex 26.74538230895996 80.80672454833984 35.94337844848633
    vertex 17.40767860412598 80.80672454833984 35.94337844848633
  endloop
endfacet
facet normal 2.907504965954377e-15 0.8245720267295837 -0.5657569766044617
  outer loop
    vertex 26.74538230895996 80.80672454833984 35.94337844848633
    vertex 17.40767860412598 81.38790130615234 36.79042434692383
    vertex 26.74538612365723 81.38790130615234 36.79042434692383
  endloop
endfacet
facet normal -2.906581911800107e-15 -0.8245720267295837 -0.5657569766044617
  outer loop
    vertex 26.74538612365723 85.17916107177734 36.79042434692383
    vertex 17.40767860412598 85.76033782958984 35.94337844848633
    vertex 26.74538612365723 85.76033782958984 35.94337844848633
  endloop
endfacet
facet normal -2.906581911800107e-15 -0.8245720267295837 -0.5657569766044617
  outer loop
    vertex 17.40767860412598 85.76033782958984 35.94337844848633
    vertex 26.74538612365723 85.17916107177734 36.79042434692383
    vertex 17.40767860412598 85.17916107177734 36.79042434692383
  endloop
endfacet
facet normal 3.453710773859524e-15 0.9797877669334412 -0.2000397592782974
  outer loop
    vertex 17.40767860412598 80.80672454833984 35.94337844848633
    vertex 26.74538230895996 80.60274505615234 34.94429397583008
    vertex 17.40767860412598 80.60274505615234 34.94429397583008
  endloop
endfacet
facet normal 3.453710773859524e-15 0.9797877669334412 -0.2000397592782974
  outer loop
    vertex 26.74538230895996 80.60274505615234 34.94429397583008
    vertex 17.40767860412598 80.80672454833984 35.94337844848633
    vertex 26.74538230895996 80.80672454833984 35.94337844848633
  endloop
endfacet
endsolid 748D
