solid FAE
facet normal -0.08612162619829178 -0.9962846040725708 2.500597020116402e-06
  outer loop
    vertex 50.97431564331055 54.38650894165039 99.88397979736328
    vertex 50.44989395141602 54.43183517456055 98.37574005126953
    vertex 50.97431564331055 54.38650894165039 98.37574005126953
  endloop
endfacet
facet normal -0.08612162619829178 -0.9962846040725708 2.500597020116402e-06
  outer loop
    vertex 50.44989395141602 54.43183517456055 98.37574005126953
    vertex 50.97431564331055 54.38650894165039 99.88397979736328
    vertex 50.44989395141602 54.43184280395508 99.88397979736328
  endloop
endfacet
facet normal -0.9796238541603088 0.200841024518013 1.781410077122336e-33
  outer loop
    vertex 73.12245178222656 54.77986526489258 101.3637161254883
    vertex 72.77617645263672 53.09087371826172 99.88397979736328
    vertex 72.77617645263672 53.09087371826172 101.3637161254883
  endloop
endfacet
facet normal -0.9796238541603088 0.200841024518013 1.781410077122336e-33
  outer loop
    vertex 72.77617645263672 53.09087371826172 99.88397979736328
    vertex 73.12245178222656 54.77986526489258 101.3637161254883
    vertex 73.12245178222656 54.77986526489258 99.88397979736328
  endloop
endfacet
facet normal -0.6447237730026245 0.7644156217575073 3.121244305458738e-32
  outer loop
    vertex 51.25446319580078 51.91030883789063 99.88397979736328
    vertex 51.65686416625977 52.24969863891602 98.37574005126953
    vertex 51.25446319580078 51.91030883789063 98.37574005126953
  endloop
endfacet
facet normal -0.6447237730026245 0.7644156217575073 3.121244305458738e-32
  outer loop
    vertex 51.65686416625977 52.24969863891602 98.37574005126953
    vertex 51.25446319580078 51.91030883789063 99.88397979736328
    vertex 51.65686416625977 52.24969863891602 99.88397979736328
  endloop
endfacet
facet normal -0.2044890522956848 -0.978868842124939 -4.813010779311183e-32
  outer loop
    vertex 77.72030639648438 54.30145645141602 101.3637161254883
    vertex 77.20505523681641 54.40909576416016 98.37580108642578
    vertex 77.72030639648438 54.30145645141602 98.37580108642578
  endloop
endfacet
facet normal -0.2044890522956848 -0.978868842124939 -4.813010779311183e-32
  outer loop
    vertex 77.20505523681641 54.40909576416016 98.37580108642578
    vertex 77.72030639648438 54.30145645141602 101.3637161254883
    vertex 77.20505523681641 54.40909576416016 101.3637161254883
  endloop
endfacet
facet normal -0.996284008026123 0.08612876385450363 -3.801024166205223e-33
  outer loop
    vertex 51.94310760498047 53.24216842651367 99.88397979736328
    vertex 51.89776992797852 52.71775054931641 98.37574005126953
    vertex 51.89776992797852 52.71775054931641 99.88397979736328
  endloop
endfacet
facet normal -0.996284008026123 0.08612876385450363 -3.801024166205223e-33
  outer loop
    vertex 51.89776992797852 52.71775054931641 98.37574005126953
    vertex 51.94310760498047 53.24216842651367 99.88397979736328
    vertex 51.94310760498047 53.24216842651367 98.37574005126953
  endloop
endfacet
facet normal 0.5532252192497253 -0.8330317139625549 8.681057011017401e-07
  outer loop
    vertex 76.68833160400391 54.30873870849609 101.3637161254883
    vertex 76.25028228759766 54.01781845092773 98.37580108642578
    vertex 76.68833160400391 54.30873107910156 98.37580108642578
  endloop
endfacet
facet normal 0.5532252192497253 -0.8330317139625549 8.681057011017401e-07
  outer loop
    vertex 76.25028228759766 54.01781845092773 98.37580108642578
    vertex 76.68833160400391 54.30873870849609 101.3637161254883
    vertex 76.25028228759766 54.01781845092773 101.3637161254883
  endloop
endfacet
facet normal -0.9529967308044434 -0.3029805421829224 -2.19462121048873e-32
  outer loop
    vertex 46.19337463378906 52.59223556518555 99.88397979736328
    vertex 46.71575164794922 50.94914627075195 98.37580108642578
    vertex 46.71575164794922 50.94914627075195 99.88397979736328
  endloop
endfacet
facet normal -0.9529967308044434 -0.3029805421829224 -2.19462121048873e-32
  outer loop
    vertex 46.71575164794922 50.94914627075195 98.37580108642578
    vertex 46.19337463378906 52.59223556518555 99.88397979736328
    vertex 46.19337463378906 52.59223556518555 98.37580108642578
  endloop
endfacet
facet normal 0.2044890522956848 0.978868842124939 4.813010779311183e-32
  outer loop
    vertex 76.67075347900391 51.81679534912109 101.3637161254883
    vertex 77.18600463867188 51.70915603637695 98.37580108642578
    vertex 76.67075347900391 51.81679534912109 98.37580108642578
  endloop
endfacet
facet normal 0.2044890522956848 0.978868842124939 4.813010779311183e-32
  outer loop
    vertex 77.18600463867188 51.70915603637695 98.37580108642578
    vertex 76.67075347900391 51.81679534912109 101.3637161254883
    vertex 77.18600463867188 51.70915603637695 101.3637161254883
  endloop
endfacet
facet normal 0.8347811698913574 0.5505818724632263 1.069100997786614e-17
  outer loop
    vertex 80.34373474121094 56.15813064575195 98.37580108642578
    vertex 81.29077911376953 54.72224426269531 101.3637161254883
    vertex 81.29077911376953 54.72224426269531 98.37580108642578
  endloop
endfacet
facet normal 0.8347811698913574 0.5505818724632263 1.069100997786614e-17
  outer loop
    vertex 81.29077911376953 54.72224426269531 101.3637161254883
    vertex 80.34373474121094 56.15813064575195 98.37580108642578
    vertex 80.34373474121094 56.15813064575195 101.3637161254883
  endloop
endfacet
facet normal 0.828117311000824 -0.5605548024177551 -2.383733090027818e-06
  outer loop
    vertex 81.26691436767578 51.33954238891602 98.37580108642578
    vertex 80.29966735839844 49.91059875488281 101.3637161254883
    vertex 80.29966735839844 49.91059875488281 98.37580108642578
  endloop
endfacet
facet normal 0.828117311000824 -0.5605548024177551 -2.383733090027818e-06
  outer loop
    vertex 80.29966735839844 49.91059875488281 101.3637161254883
    vertex 81.26691436767578 51.33954238891602 98.37580108642578
    vertex 81.26692962646484 51.33953857421875 101.3637161254883
  endloop
endfacet
facet normal -7.922788578188031e-33 -4.751401063269473e-32 1
  outer loop
    vertex 46.71575164794922 50.94914627075195 99.88397979736328
    vertex 46.33545684814453 54.31049728393555 99.88397979736328
    vertex 46.19337463378906 52.59223556518555 99.88397979736328
  endloop
endfacet
facet normal -7.922788578188031e-33 -4.751401063269473e-32 1
  outer loop
    vertex 46.33545684814453 54.31049728393555 99.88397979736328
    vertex 46.71575164794922 50.94914627075195 99.88397979736328
    vertex 47.13238906860352 55.83894729614258 99.88397979736328
  endloop
endfacet
facet normal -7.922788578188031e-33 -4.751401063269473e-32 1
  outer loop
    vertex 47.13238906860352 55.83894729614258 99.88397979736328
    vertex 46.71575164794922 50.94914627075195 99.88397979736328
    vertex 47.83474731445313 49.63086318969727 99.88397979736328
  endloop
endfacet
facet normal -7.922788578188031e-33 -4.751401063269473e-32 1
  outer loop
    vertex 47.13238906860352 55.83894729614258 99.88397979736328
    vertex 47.83474731445313 49.63086318969727 99.88397979736328
    vertex 48.44416046142578 56.95721054077148 99.88397979736328
  endloop
endfacet
facet normal -7.922788578188031e-33 -4.751401063269473e-32 1
  outer loop
    vertex 48.44416046142578 56.95721054077148 99.88397979736328
    vertex 47.83474731445313 49.63086318969727 99.88397979736328
    vertex 49.36246109008789 48.8404426574707 99.88397979736328
  endloop
endfacet
facet normal -7.922788578188031e-33 -4.751401063269473e-32 1
  outer loop
    vertex 48.44416046142578 56.95721054077148 99.88397979736328
    vertex 49.36246109008789 48.8404426574707 99.88397979736328
    vertex 49.26220703125 52.93885803222656 99.88397979736328
  endloop
endfacet
facet normal -7.922788578188031e-33 -4.751401063269473e-32 1
  outer loop
    vertex 49.26220703125 52.93885803222656 99.88397979736328
    vertex 49.36246109008789 48.8404426574707 99.88397979736328
    vertex 49.42156982421875 52.43759918212891 99.88397979736328
  endloop
endfacet
facet normal -7.922788578188031e-33 -4.751401063269473e-32 1
  outer loop
    vertex 49.42156982421875 52.43759918212891 99.88397979736328
    vertex 49.36246109008789 48.8404426574707 99.88397979736328
    vertex 51.08146286010742 48.69185256958008 99.88397979736328
  endloop
endfacet
facet normal -7.922788578188031e-33 -4.751401063269473e-32 1
  outer loop
    vertex 49.42156982421875 52.43759918212891 99.88397979736328
    vertex 51.08146286010742 48.69185256958008 99.88397979736328
    vertex 49.76294708251953 52.03542327880859 99.88397979736328
  endloop
endfacet
facet normal -7.922788578188031e-33 -4.751401063269473e-32 1
  outer loop
    vertex 49.76294708251953 52.03542327880859 99.88397979736328
    vertex 51.08146286010742 48.69185256958008 99.88397979736328
    vertex 50.22900390625 51.79428863525391 99.88397979736328
  endloop
endfacet
facet normal -7.922788578188031e-33 -4.751401063269473e-32 1
  outer loop
    vertex 50.22900390625 51.79428863525391 99.88397979736328
    vertex 51.08146286010742 48.69185256958008 99.88397979736328
    vertex 50.75342559814453 51.74895858764648 99.88397979736328
  endloop
endfacet
facet normal -7.922788578188031e-33 -4.751401063269473e-32 1
  outer loop
    vertex 50.75342559814453 51.74895858764648 99.88397979736328
    vertex 51.08146286010742 48.69185256958008 99.88397979736328
    vertex 51.25446319580078 51.91030883789063 99.88397979736328
  endloop
endfacet
facet normal -7.922788578188031e-33 -4.751401063269473e-32 1
  outer loop
    vertex 51.25446319580078 51.91030883789063 99.88397979736328
    vertex 51.08146286010742 48.69185256958008 99.88397979736328
    vertex 77.16346740722656 48.63463592529297 99.88397979736328
  endloop
endfacet
facet normal -7.922788578188031e-33 -4.751401063269473e-32 1
  outer loop
    vertex 51.25446319580078 51.91030883789063 99.88397979736328
    vertex 77.16346740722656 48.63463592529297 99.88397979736328
    vertex 51.65686416625977 52.24969863891602 99.88397979736328
  endloop
endfacet
facet normal -7.922788578188031e-33 -4.751401063269473e-32 1
  outer loop
    vertex 51.65686416625977 52.24969863891602 99.88397979736328
    vertex 77.16346740722656 48.63463592529297 99.88397979736328
    vertex 51.89776992797852 52.71775054931641 99.88397979736328
  endloop
endfacet
facet normal -7.922788578188031e-33 -4.751401063269473e-32 1
  outer loop
    vertex 51.89776992797852 52.71775054931641 99.88397979736328
    vertex 77.16346740722656 48.63463592529297 99.88397979736328
    vertex 51.94310760498047 53.24216842651367 99.88397979736328
  endloop
endfacet
facet normal -7.922788578188031e-33 -4.751401063269473e-32 1
  outer loop
    vertex 51.94310760498047 53.24216842651367 99.88397979736328
    vertex 77.16346740722656 48.63463592529297 99.88397979736328
    vertex 75.47451019287109 48.98746490478516 99.88397979736328
  endloop
endfacet
facet normal -7.922788578188031e-33 -4.751401063269473e-32 1
  outer loop
    vertex 51.94310760498047 53.24216842651367 99.88397979736328
    vertex 75.47451019287109 48.98746490478516 99.88397979736328
    vertex 74.05213165283203 49.95466613769531 99.88397979736328
  endloop
endfacet
facet normal -7.922788578188031e-33 -4.751401063269473e-32 1
  outer loop
    vertex 51.94310760498047 53.24216842651367 99.88397979736328
    vertex 74.05213165283203 49.95466613769531 99.88397979736328
    vertex 73.09858703613281 51.39715576171875 99.88397979736328
  endloop
endfacet
facet normal -7.922788578188031e-33 -4.751401063269473e-32 1
  outer loop
    vertex 51.94310760498047 53.24216842651367 99.88397979736328
    vertex 73.09858703613281 51.39715576171875 99.88397979736328
    vertex 72.77617645263672 53.09087371826172 99.88397979736328
  endloop
endfacet
facet normal -7.922788578188031e-33 -4.751401063269473e-32 1
  outer loop
    vertex 48.44416046142578 56.95721054077148 99.88397979736328
    vertex 49.30555725097656 53.46305084228516 99.88397979736328
    vertex 50.08650970458984 57.48608779907227 99.88397979736328
  endloop
endfacet
facet normal -7.922788578188031e-33 -4.751401063269473e-32 1
  outer loop
    vertex 49.30555725097656 53.46305084228516 99.88397979736328
    vertex 48.44416046142578 56.95721054077148 99.88397979736328
    vertex 49.26220703125 52.93885803222656 99.88397979736328
  endloop
endfacet
facet normal -7.922788578188031e-33 -4.751401063269473e-32 1
  outer loop
    vertex 50.08650970458984 57.48608779907227 99.88397979736328
    vertex 49.30555725097656 53.46305084228516 99.88397979736328
    vertex 49.54867935180664 53.92934417724609 99.88397979736328
  endloop
endfacet
facet normal -7.922788578188031e-33 -4.751401063269473e-32 1
  outer loop
    vertex 50.08650970458984 57.48608779907227 99.88397979736328
    vertex 49.54867935180664 53.92934417724609 99.88397979736328
    vertex 49.94885635375977 54.2704963684082 99.88397979736328
  endloop
endfacet
facet normal -7.922788578188031e-33 -4.751401063269473e-32 1
  outer loop
    vertex 50.08650970458984 57.48608779907227 99.88397979736328
    vertex 49.94885635375977 54.2704963684082 99.88397979736328
    vertex 50.44989395141602 54.43184280395508 99.88397979736328
  endloop
endfacet
facet normal -7.922788578188031e-33 -4.751401063269473e-32 1
  outer loop
    vertex 50.08650970458984 57.48608779907227 99.88397979736328
    vertex 50.44989395141602 54.43184280395508 99.88397979736328
    vertex 77.22589111328125 57.48475646972656 99.88397979736328
  endloop
endfacet
facet normal -7.922788578188031e-33 -4.751401063269473e-32 1
  outer loop
    vertex 77.22589111328125 57.48475646972656 99.88397979736328
    vertex 50.44989395141602 54.43184280395508 99.88397979736328
    vertex 50.97431564331055 54.38650894165039 99.88397979736328
  endloop
endfacet
facet normal -7.922788578188031e-33 -4.751401063269473e-32 1
  outer loop
    vertex 77.22589111328125 57.48475646972656 99.88397979736328
    vertex 50.97431564331055 54.38650894165039 99.88397979736328
    vertex 51.44259262084961 54.14361572265625 99.88397979736328
  endloop
endfacet
facet normal -7.922788578188031e-33 -4.751401063269473e-32 1
  outer loop
    vertex 77.22589111328125 57.48475646972656 99.88397979736328
    vertex 51.44259262084961 54.14361572265625 99.88397979736328
    vertex 51.78175735473633 53.74320220947266 99.88397979736328
  endloop
endfacet
facet normal -7.922788578188031e-33 -4.751401063269473e-32 1
  outer loop
    vertex 77.22589111328125 57.48475646972656 99.88397979736328
    vertex 51.78175735473633 53.74320220947266 99.88397979736328
    vertex 51.94310760498047 53.24216842651367 99.88397979736328
  endloop
endfacet
facet normal -7.922788578188031e-33 -4.751401063269473e-32 1
  outer loop
    vertex 77.22589111328125 57.48475646972656 99.88397979736328
    vertex 51.94310760498047 53.24216842651367 99.88397979736328
    vertex 75.53213500976563 57.15579986572266 99.88397979736328
  endloop
endfacet
facet normal -7.922788578188031e-33 -4.751401063269473e-32 1
  outer loop
    vertex 75.53213500976563 57.15579986572266 99.88397979736328
    vertex 51.94310760498047 53.24216842651367 99.88397979736328
    vertex 74.09619903564453 56.20219802856445 99.88397979736328
  endloop
endfacet
facet normal -7.922788578188031e-33 -4.751401063269473e-32 1
  outer loop
    vertex 74.09619903564453 56.20219802856445 99.88397979736328
    vertex 51.94310760498047 53.24216842651367 99.88397979736328
    vertex 73.12245178222656 54.77986526489258 99.88397979736328
  endloop
endfacet
facet normal -7.922788578188031e-33 -4.751401063269473e-32 1
  outer loop
    vertex 73.12245178222656 54.77986526489258 99.88397979736328
    vertex 51.94310760498047 53.24216842651367 99.88397979736328
    vertex 72.77617645263672 53.09087371826172 99.88397979736328
  endloop
endfacet
facet normal 0.4595247805118561 0.8881649374961853 6.026737082720501e-07
  outer loop
    vertex 49.76294708251953 52.03542327880859 99.88397979736328
    vertex 50.22901153564453 51.79428482055664 98.37574005126953
    vertex 49.76294708251953 52.03542327880859 98.37574005126953
  endloop
endfacet
facet normal 0.4595247805118561 0.8881649374961853 6.026737082720501e-07
  outer loop
    vertex 50.22901153564453 51.79428482055664 98.37574005126953
    vertex 49.76294708251953 52.03542327880859 99.88397979736328
    vertex 50.22900390625 51.79428863525391 99.88397979736328
  endloop
endfacet
facet normal -1.8441376368638e-31 6.33277010354368e-33 1
  outer loop
    vertex 73.09858703613281 51.39715576171875 101.3637161254883
    vertex 73.12245178222656 54.77986526489258 101.3637161254883
    vertex 72.77617645263672 53.09087371826172 101.3637161254883
  endloop
endfacet
facet normal -1.8441376368638e-31 6.33277010354368e-33 1
  outer loop
    vertex 73.12245178222656 54.77986526489258 101.3637161254883
    vertex 73.09858703613281 51.39715576171875 101.3637161254883
    vertex 74.05213165283203 49.95466613769531 101.3637161254883
  endloop
endfacet
facet normal -1.8441376368638e-31 6.33277010354368e-33 1
  outer loop
    vertex 73.12245178222656 54.77986526489258 101.3637161254883
    vertex 74.05213165283203 49.95466613769531 101.3637161254883
    vertex 74.09619903564453 56.20219802856445 101.3637161254883
  endloop
endfacet
facet normal -1.8441376368638e-31 6.33277010354368e-33 1
  outer loop
    vertex 74.09619903564453 56.20219802856445 101.3637161254883
    vertex 74.05213165283203 49.95466613769531 101.3637161254883
    vertex 75.47451019287109 48.98746490478516 101.3637161254883
  endloop
endfacet
facet normal -1.8441376368638e-31 6.33277010354368e-33 1
  outer loop
    vertex 74.09619903564453 56.20219802856445 101.3637161254883
    vertex 75.47451019287109 48.98746490478516 101.3637161254883
    vertex 75.53213500976563 57.15579986572266 101.3637161254883
  endloop
endfacet
facet normal -1.8441376368638e-31 6.33277010354368e-33 1
  outer loop
    vertex 75.53213500976563 57.15579986572266 101.3637161254883
    vertex 75.47451019287109 48.98746490478516 101.3637161254883
    vertex 75.84757232666016 53.06863021850586 101.3637161254883
  endloop
endfacet
facet normal -1.8441376368638e-31 6.33277010354368e-33 1
  outer loop
    vertex 75.84757232666016 53.06863021850586 101.3637161254883
    vertex 75.47451019287109 48.98746490478516 101.3637161254883
    vertex 75.94593048095703 52.55192947387695 101.3637161254883
  endloop
endfacet
facet normal -1.8441376368638e-31 6.33277010354368e-33 1
  outer loop
    vertex 75.94593048095703 52.55192947387695 101.3637161254883
    vertex 75.47451019287109 48.98746490478516 101.3637161254883
    vertex 77.16346740722656 48.63463592529297 101.3637161254883
  endloop
endfacet
facet normal -1.8441376368638e-31 6.33277010354368e-33 1
  outer loop
    vertex 75.94593048095703 52.55192947387695 101.3637161254883
    vertex 77.16346740722656 48.63463592529297 101.3637161254883
    vertex 76.23682403564453 52.11186599731445 101.3637161254883
  endloop
endfacet
facet normal -1.8441376368638e-31 6.33277010354368e-33 1
  outer loop
    vertex 76.23682403564453 52.11186599731445 101.3637161254883
    vertex 77.16346740722656 48.63463592529297 101.3637161254883
    vertex 76.67075347900391 51.81679534912109 101.3637161254883
  endloop
endfacet
facet normal -1.8441376368638e-31 6.33277010354368e-33 1
  outer loop
    vertex 76.67075347900391 51.81679534912109 101.3637161254883
    vertex 77.16346740722656 48.63463592529297 101.3637161254883
    vertex 77.18600463867188 51.70915603637695 101.3637161254883
  endloop
endfacet
facet normal -1.8441376368638e-31 6.33277010354368e-33 1
  outer loop
    vertex 77.18600463867188 51.70915603637695 101.3637161254883
    vertex 77.16346740722656 48.63463592529297 101.3637161254883
    vertex 78.85723114013672 48.96360015869141 101.3637161254883
  endloop
endfacet
facet normal -1.8441376368638e-31 6.33277010354368e-33 1
  outer loop
    vertex 77.18600463867188 51.70915603637695 101.3637161254883
    vertex 78.85723114013672 48.96360015869141 101.3637161254883
    vertex 77.70272827148438 51.80952072143555 101.3637161254883
  endloop
endfacet
facet normal -1.8441376368638e-31 6.33277010354368e-33 1
  outer loop
    vertex 77.70272827148438 51.80952072143555 101.3637161254883
    vertex 78.85723114013672 48.96360015869141 101.3637161254883
    vertex 78.14277648925781 52.09842300415039 101.3637161254883
  endloop
endfacet
facet normal -1.8441376368638e-31 6.33277010354368e-33 1
  outer loop
    vertex 78.14277648925781 52.09842300415039 101.3637161254883
    vertex 78.85723114013672 48.96360015869141 101.3637161254883
    vertex 78.4378662109375 52.53435516357422 101.3637161254883
  endloop
endfacet
facet normal -1.8441376368638e-31 6.33277010354368e-33 1
  outer loop
    vertex 78.4378662109375 52.53435516357422 101.3637161254883
    vertex 78.85723114013672 48.96360015869141 101.3637161254883
    vertex 78.54549407958984 53.04960632324219 101.3637161254883
  endloop
endfacet
facet normal -1.8441376368638e-31 6.33277010354368e-33 1
  outer loop
    vertex 75.53213500976563 57.15579986572266 101.3637161254883
    vertex 75.95320129394531 53.58390426635742 101.3637161254883
    vertex 77.22589111328125 57.48476409912109 101.3637161254883
  endloop
endfacet
facet normal -1.8441376368638e-31 6.33277010354368e-33 1
  outer loop
    vertex 75.95320129394531 53.58390426635742 101.3637161254883
    vertex 75.53213500976563 57.15579986572266 101.3637161254883
    vertex 75.84757232666016 53.06863021850586 101.3637161254883
  endloop
endfacet
facet normal -1.8441376368638e-31 6.33277010354368e-33 1
  outer loop
    vertex 77.22589111328125 57.48476409912109 101.3637161254883
    vertex 75.95320129394531 53.58390426635742 101.3637161254883
    vertex 76.25028228759766 54.01781845092773 101.3637161254883
  endloop
endfacet
facet normal -1.8441376368638e-31 6.33277010354368e-33 1
  outer loop
    vertex 77.22589111328125 57.48476409912109 101.3637161254883
    vertex 76.25028228759766 54.01781845092773 101.3637161254883
    vertex 76.68833160400391 54.30873870849609 101.3637161254883
  endloop
endfacet
facet normal -1.8441376368638e-31 6.33277010354368e-33 1
  outer loop
    vertex 77.22589111328125 57.48476409912109 101.3637161254883
    vertex 76.68833160400391 54.30873870849609 101.3637161254883
    vertex 77.20505523681641 54.40909576416016 101.3637161254883
  endloop
endfacet
facet normal -1.8441376368638e-31 6.33277010354368e-33 1
  outer loop
    vertex 77.22589111328125 57.48476409912109 101.3637161254883
    vertex 77.20505523681641 54.40909576416016 101.3637161254883
    vertex 77.72030639648438 54.30145645141602 101.3637161254883
  endloop
endfacet
facet normal -1.8441376368638e-31 6.33277010354368e-33 1
  outer loop
    vertex 77.22589111328125 57.48476409912109 101.3637161254883
    vertex 77.72030639648438 54.30145645141602 101.3637161254883
    vertex 78.91485595703125 57.13194274902344 101.3637161254883
  endloop
endfacet
facet normal -1.8441376368638e-31 6.33277010354368e-33 1
  outer loop
    vertex 78.91485595703125 57.13194274902344 101.3637161254883
    vertex 77.72030639648438 54.30145645141602 101.3637161254883
    vertex 78.15621948242188 54.00437164306641 101.3637161254883
  endloop
endfacet
facet normal -1.8441376368638e-31 6.33277010354368e-33 1
  outer loop
    vertex 78.91485595703125 57.13194274902344 101.3637161254883
    vertex 78.15621948242188 54.00437164306641 101.3637161254883
    vertex 78.44514465332031 53.56631851196289 101.3637161254883
  endloop
endfacet
facet normal -1.8441376368638e-31 6.33277010354368e-33 1
  outer loop
    vertex 78.91485595703125 57.13194274902344 101.3637161254883
    vertex 78.44514465332031 53.56631851196289 101.3637161254883
    vertex 78.54549407958984 53.04960632324219 101.3637161254883
  endloop
endfacet
facet normal -1.8441376368638e-31 6.33277010354368e-33 1
  outer loop
    vertex 78.91485595703125 57.13194274902344 101.3637161254883
    vertex 78.54549407958984 53.04960632324219 101.3637161254883
    vertex 78.85723114013672 48.96360015869141 101.3637161254883
  endloop
endfacet
facet normal -1.8441376368638e-31 6.33277010354368e-33 1
  outer loop
    vertex 78.91485595703125 57.13194274902344 101.3637161254883
    vertex 78.85723114013672 48.96360015869141 101.3637161254883
    vertex 80.29966735839844 49.91059875488281 101.3637161254883
  endloop
endfacet
facet normal -1.8441376368638e-31 6.33277010354368e-33 1
  outer loop
    vertex 78.91485595703125 57.13194274902344 101.3637161254883
    vertex 80.29966735839844 49.91059875488281 101.3637161254883
    vertex 80.34373474121094 56.15813064575195 101.3637161254883
  endloop
endfacet
facet normal -1.8441376368638e-31 6.33277010354368e-33 1
  outer loop
    vertex 80.34373474121094 56.15813064575195 101.3637161254883
    vertex 80.29966735839844 49.91059875488281 101.3637161254883
    vertex 81.26692962646484 51.33953857421875 101.3637161254883
  endloop
endfacet
facet normal -1.8441376368638e-31 6.33277010354368e-33 1
  outer loop
    vertex 80.34373474121094 56.15813064575195 101.3637161254883
    vertex 81.26692962646484 51.33953857421875 101.3637161254883
    vertex 81.29077911376953 54.72224426269531 101.3637161254883
  endloop
endfacet
facet normal -1.8441376368638e-31 6.33277010354368e-33 1
  outer loop
    vertex 81.29077911376953 54.72224426269531 101.3637161254883
    vertex 81.26692962646484 51.33953857421875 101.3637161254883
    vertex 81.61973571777344 53.02848434448242 101.3637161254883
  endloop
endfacet
facet normal -0.9518600702285767 -0.3065329492092133 -2.210599558262663e-32
  outer loop
    vertex 51.78175735473633 53.74320220947266 99.88397979736328
    vertex 51.94310760498047 53.24216842651367 98.37574005126953
    vertex 51.94310760498047 53.24216842651367 99.88397979736328
  endloop
endfacet
facet normal -0.9518600702285767 -0.3065329492092133 -2.210599558262663e-32
  outer loop
    vertex 51.94310760498047 53.24216842651367 98.37574005126953
    vertex 51.78175735473633 53.74320220947266 99.88397979736328
    vertex 51.78175735473633 53.74320220947266 98.37574005126953
  endloop
endfacet
facet normal -0.8347737193107605 -0.5505931377410889 -3.277462508832029e-32
  outer loop
    vertex 78.15621948242188 54.00437164306641 101.3637161254883
    vertex 78.44514465332031 53.56631851196289 98.37580108642578
    vertex 78.44514465332031 53.56631851196289 101.3637161254883
  endloop
endfacet
facet normal -0.8347737193107605 -0.5505931377410889 -3.277462508832029e-32
  outer loop
    vertex 78.44514465332031 53.56631851196289 98.37580108642578
    vertex 78.15621948242188 54.00437164306641 101.3637161254883
    vertex 78.15621948242188 54.00437164306641 98.37580108642578
  endloop
endfacet
facet normal -0.5532185435295105 0.8330361843109131 3.519785673403053e-32
  outer loop
    vertex 74.09619903564453 56.20219802856445 101.3637161254883
    vertex 75.53213500976563 57.15579986572266 99.88397979736328
    vertex 74.09619903564453 56.20219802856445 99.88397979736328
  endloop
endfacet
facet normal -0.5532185435295105 0.8330361843109131 3.519785673403053e-32
  outer loop
    vertex 75.53213500976563 57.15579986572266 99.88397979736328
    vertex 74.09619903564453 56.20219802856445 101.3637161254883
    vertex 75.53213500976563 57.15579986572266 101.3637161254883
  endloop
endfacet
facet normal 0.1906571835279465 -0.9816566705703735 3.251233762156849e-31
  outer loop
    vertex 78.85723114013672 48.96360015869141 101.3637161254883
    vertex 77.16346740722656 48.63463592529297 98.37580108642578
    vertex 78.85723114013672 48.96360015869141 98.37580108642578
  endloop
endfacet
facet normal 0.1906571835279465 -0.9816566705703735 3.251233762156849e-31
  outer loop
    vertex 77.16346740722656 48.63463592529297 98.37580108642578
    vertex 78.85723114013672 48.96360015869141 101.3637161254883
    vertex 77.16346740722656 48.63463592529297 99.88397979736328
  endloop
endfacet
facet normal 0.1906571835279465 -0.9816566705703735 3.251233762156849e-31
  outer loop
    vertex 77.16346740722656 48.63463592529297 99.88397979736328
    vertex 78.85723114013672 48.96360015869141 101.3637161254883
    vertex 77.16346740722656 48.63463592529297 101.3637161254883
  endloop
endfacet
facet normal 0.8342193365097046 0.5514327883720398 3.2810127956451e-32
  outer loop
    vertex 75.94593048095703 52.55192947387695 98.37580108642578
    vertex 76.23682403564453 52.11186599731445 101.3637161254883
    vertex 76.23682403564453 52.11186599731445 98.37580108642578
  endloop
endfacet
facet normal 0.8342193365097046 0.5514327883720398 3.2810127956451e-32
  outer loop
    vertex 76.23682403564453 52.11186599731445 101.3637161254883
    vertex 75.94593048095703 52.55192947387695 98.37580108642578
    vertex 75.94593048095703 52.55192947387695 101.3637161254883
  endloop
endfacet
facet normal -0.5488150715827942 0.8359437584877014 3.537089537994332e-32
  outer loop
    vertex 77.70272827148438 51.80952072143555 101.3637161254883
    vertex 78.14277648925781 52.09842300415039 98.37580108642578
    vertex 77.70272827148438 51.80952072143555 98.37580108642578
  endloop
endfacet
facet normal -0.5488150715827942 0.8359437584877014 3.537089537994332e-32
  outer loop
    vertex 78.14277648925781 52.09842300415039 98.37580108642578
    vertex 77.70272827148438 51.80952072143555 101.3637161254883
    vertex 78.14277648925781 52.09842300415039 101.3637161254883
  endloop
endfacet
facet normal -0.9816589951515198 -0.1906453818082809 -1.683580331193319e-32
  outer loop
    vertex 78.44514465332031 53.56631851196289 101.3637161254883
    vertex 78.54549407958984 53.04960632324219 98.37580108642578
    vertex 78.54549407958984 53.04960632324219 101.3637161254883
  endloop
endfacet
facet normal -0.9816589951515198 -0.1906453818082809 -1.683580331193319e-32
  outer loop
    vertex 78.54549407958984 53.04960632324219 98.37580108642578
    vertex 78.44514465332031 53.56631851196289 101.3637161254883
    vertex 78.44514465332031 53.56631851196289 98.37580108642578
  endloop
endfacet
facet normal -0.08612040430307388 -0.9962847232818604 -4.801979940323067e-32
  outer loop
    vertex 51.08146286010742 48.69185256958008 99.88397979736328
    vertex 49.36246109008789 48.8404426574707 98.37580108642578
    vertex 51.08146286010742 48.69185256958008 98.37580108642578
  endloop
endfacet
facet normal -0.08612040430307388 -0.9962847232818604 -4.801979940323067e-32
  outer loop
    vertex 49.36246109008789 48.8404426574707 98.37580108642578
    vertex 51.08146286010742 48.69185256958008 99.88397979736328
    vertex 49.36246109008789 48.8404426574707 99.88397979736328
  endloop
endfacet
facet normal -0.4595255553722382 -0.8881645202636719 -4.584098535915103e-32
  outer loop
    vertex 49.36246109008789 48.8404426574707 99.88397979736328
    vertex 47.83474731445313 49.63086318969727 98.37580108642578
    vertex 49.36246109008789 48.8404426574707 98.37580108642578
  endloop
endfacet
facet normal -0.4595255553722382 -0.8881645202636719 -4.584098535915103e-32
  outer loop
    vertex 47.83474731445313 49.63086318969727 98.37580108642578
    vertex 49.36246109008789 48.8404426574707 99.88397979736328
    vertex 47.83474731445313 49.63086318969727 99.88397979736328
  endloop
endfacet
facet normal -0.6487442851066589 0.7610064744949341 3.101860697487266e-32
  outer loop
    vertex 47.13238906860352 55.83894729614258 99.88397979736328
    vertex 48.44416046142578 56.95721054077148 98.37580108642578
    vertex 47.13238906860352 55.83894729614258 98.37580108642578
  endloop
endfacet
facet normal -0.6487442851066589 0.7610064744949341 3.101860697487266e-32
  outer loop
    vertex 48.44416046142578 56.95721054077148 98.37580108642578
    vertex 47.13238906860352 55.83894729614258 99.88397979736328
    vertex 48.44416046142578 56.95721054077148 99.88397979736328
  endloop
endfacet
facet normal 0.9529954195022583 0.3029846251010895 2.194639577587961e-32
  outer loop
    vertex 49.26220703125 52.93885803222656 98.37574005126953
    vertex 49.42156982421875 52.43759918212891 99.88397979736328
    vertex 49.42156982421875 52.43759918212891 98.37574005126953
  endloop
endfacet
facet normal 0.9529954195022583 0.3029846251010895 2.194639577587961e-32
  outer loop
    vertex 49.42156982421875 52.43759918212891 99.88397979736328
    vertex 49.26220703125 52.93885803222656 98.37574005126953
    vertex 49.26220703125 52.93885803222656 99.88397979736328
  endloop
endfacet
facet normal 0.5488182902336121 -0.8359416723251343 -2.366858374248404e-17
  outer loop
    vertex 80.29966735839844 49.91059875488281 101.3637161254883
    vertex 78.85723114013672 48.96360015869141 98.37580108642578
    vertex 80.29966735839844 49.91059875488281 98.37580108642578
  endloop
endfacet
facet normal 0.5488182902336121 -0.8359416723251343 -2.366858374248404e-17
  outer loop
    vertex 78.85723114013672 48.96360015869141 98.37580108642578
    vertex 80.29966735839844 49.91059875488281 101.3637161254883
    vertex 78.85723114013672 48.96360015869141 101.3637161254883
  endloop
endfacet
facet normal 0.08611340075731277 0.9962853193283081 -3.795716168042418e-07
  outer loop
    vertex 50.22900390625 51.79428863525391 99.88397979736328
    vertex 50.75342559814453 51.74895858764648 98.37574005126953
    vertex 50.22901153564453 51.79428482055664 98.37574005126953
  endloop
endfacet
facet normal 0.08611340075731277 0.9962853193283081 -3.795716168042418e-07
  outer loop
    vertex 50.75342559814453 51.74895858764648 98.37574005126953
    vertex 50.22900390625 51.79428863525391 99.88397979736328
    vertex 50.75342559814453 51.74895858764648 99.88397979736328
  endloop
endfacet
facet normal -0.4604407250881195 -0.8876904845237732 -4.58257098100621e-32
  outer loop
    vertex 51.44259262084961 54.14361572265625 99.88397979736328
    vertex 50.97431564331055 54.38650894165039 98.37574005126953
    vertex 51.44259262084961 54.14361572265625 98.37574005126953
  endloop
endfacet
facet normal -0.4604407250881195 -0.8876904845237732 -4.58257098100621e-32
  outer loop
    vertex 50.97431564331055 54.38650894165039 98.37574005126953
    vertex 51.44259262084961 54.14361572265625 99.88397979736328
    vertex 50.97431564331055 54.38650894165039 99.88397979736328
  endloop
endfacet
facet normal -0.8251509666442871 0.5649122595787048 2.030375115383292e-32
  outer loop
    vertex 74.09619903564453 56.20219802856445 101.3637161254883
    vertex 73.12245178222656 54.77986526489258 99.88397979736328
    vertex 73.12245178222656 54.77986526489258 101.3637161254883
  endloop
endfacet
facet normal -0.8251509666442871 0.5649122595787048 2.030375115383292e-32
  outer loop
    vertex 73.12245178222656 54.77986526489258 99.88397979736328
    vertex 74.09619903564453 56.20219802856445 101.3637161254883
    vertex 74.09619903564453 56.20219802856445 99.88397979736328
  endloop
endfacet
facet normal -0.9823600649833679 -0.1869990676641464 -1.666810581847694e-32
  outer loop
    vertex 72.77617645263672 53.09087371826172 101.3637161254883
    vertex 73.09858703613281 51.39715576171875 99.88397979736328
    vertex 73.09858703613281 51.39715576171875 101.3637161254883
  endloop
endfacet
facet normal -0.9823600649833679 -0.1869990676641464 -1.666810581847694e-32
  outer loop
    vertex 73.09858703613281 51.39715576171875 99.88397979736328
    vertex 72.77617645263672 53.09087371826172 101.3637161254883
    vertex 72.77617645263672 53.09087371826172 99.88397979736328
  endloop
endfacet
facet normal 0.5623003840446472 0.8269330859184265 4.374589296147284e-32
  outer loop
    vertex 76.23682403564453 52.11186599731445 101.3637161254883
    vertex 76.67075347900391 51.81679534912109 98.37580108642578
    vertex 76.23682403564453 52.11186599731445 98.37580108642578
  endloop
endfacet
facet normal 0.5623003840446472 0.8269330859184265 4.374589296147284e-32
  outer loop
    vertex 76.67075347900391 51.81679534912109 98.37580108642578
    vertex 76.23682403564453 52.11186599731445 101.3637161254883
    vertex 76.67075347900391 51.81679534912109 101.3637161254883
  endloop
endfacet
facet normal 0.2044838666915894 0.9788699150085449 -2.544522430980578e-06
  outer loop
    vertex 77.22589111328125 57.48475646972656 99.88397979736328
    vertex 78.91485595703125 57.13193511962891 98.37580108642578
    vertex 77.22589111328125 57.48475646972656 98.37580108642578
  endloop
endfacet
facet normal 0.2044838666915894 0.9788699150085449 -2.544522430980578e-06
  outer loop
    vertex 78.91485595703125 57.13193511962891 98.37580108642578
    vertex 77.22589111328125 57.48475646972656 99.88397979736328
    vertex 78.91485595703125 57.13194274902344 101.3637161254883
  endloop
endfacet
facet normal 0.2044838666915894 0.9788699150085449 -2.544522430980578e-06
  outer loop
    vertex 78.91485595703125 57.13194274902344 101.3637161254883
    vertex 77.22589111328125 57.48475646972656 99.88397979736328
    vertex 77.22589111328125 57.48476409912109 101.3637161254883
  endloop
endfacet
facet normal -0.5623046159744263 -0.8269301652908325 -4.374579010571714e-32
  outer loop
    vertex 75.47451019287109 48.98746490478516 101.3637161254883
    vertex 74.05213165283203 49.95466613769531 99.88397979736328
    vertex 75.47451019287109 48.98746490478516 99.88397979736328
  endloop
endfacet
facet normal -0.5623046159744263 -0.8269301652908325 -4.374579010571714e-32
  outer loop
    vertex 74.05213165283203 49.95466613769531 99.88397979736328
    vertex 75.47451019287109 48.98746490478516 101.3637161254883
    vertex 74.05213165283203 49.95466613769531 101.3637161254883
  endloop
endfacet
facet normal -0.9965987205505371 0.08240782469511032 -3.980314238012485e-33
  outer loop
    vertex 46.33545684814453 54.31049728393555 99.88397979736328
    vertex 46.19337463378906 52.59223556518555 98.37580108642578
    vertex 46.19337463378906 52.59223556518555 99.88397979736328
  endloop
endfacet
facet normal -0.9965987205505371 0.08240782469511032 -3.980314238012485e-33
  outer loop
    vertex 46.19337463378906 52.59223556518555 98.37580108642578
    vertex 46.33545684814453 54.31049728393555 99.88397979736328
    vertex 46.33545684814453 54.31049728393555 98.37580108642578
  endloop
endfacet
facet normal -0.002193604363128543 -0.999997615814209 -4.753127570597243e-32
  outer loop
    vertex 77.16346740722656 48.63463592529297 99.88397979736328
    vertex 51.08146286010742 48.69185256958008 98.37580108642578
    vertex 77.16346740722656 48.63463592529297 98.37580108642578
  endloop
endfacet
facet normal -0.002193604363128543 -0.999997615814209 -4.753127570597243e-32
  outer loop
    vertex 51.08146286010742 48.69185256958008 98.37580108642578
    vertex 77.16346740722656 48.63463592529297 99.88397979736328
    vertex 51.08146286010742 48.69185256958008 99.88397979736328
  endloop
endfacet
facet normal 0.5631656646728516 0.8263440132141113 -1.184723828373535e-06
  outer loop
    vertex 78.91485595703125 57.13194274902344 101.3637161254883
    vertex 80.34373474121094 56.15813064575195 98.37580108642578
    vertex 78.91485595703125 57.13193511962891 98.37580108642578
  endloop
endfacet
facet normal 0.5631656646728516 0.8263440132141113 -1.184723828373535e-06
  outer loop
    vertex 80.34373474121094 56.15813064575195 98.37580108642578
    vertex 78.91485595703125 57.13194274902344 101.3637161254883
    vertex 80.34373474121094 56.15813064575195 101.3637161254883
  endloop
endfacet
facet normal 1.102660235119401e-06 4.673802678212269e-08 -1
  outer loop
    vertex 48.44416046142578 56.95721054077148 98.37580108642578
    vertex 49.30555725097656 53.46305084228516 98.37574005126953
    vertex 49.26220703125 52.93885803222656 98.37574005126953
  endloop
endfacet
facet normal 1.102660235119401e-06 4.673802678212269e-08 -1
  outer loop
    vertex 49.30555725097656 53.46305084228516 98.37574005126953
    vertex 48.44416046142578 56.95721054077148 98.37580108642578
    vertex 50.08650970458984 57.48608779907227 98.37580108642578
  endloop
endfacet
facet normal 1.102660235119401e-06 4.673802678212269e-08 -1
  outer loop
    vertex 49.30555725097656 53.46305084228516 98.37574005126953
    vertex 50.08650970458984 57.48608779907227 98.37580108642578
    vertex 49.54867935180664 53.92934417724609 98.37574005126953
  endloop
endfacet
facet normal 1.102660235119401e-06 4.673802678212269e-08 -1
  outer loop
    vertex 49.54867935180664 53.92934417724609 98.37574005126953
    vertex 50.08650970458984 57.48608779907227 98.37580108642578
    vertex 49.94885635375977 54.2704963684082 98.37574005126953
  endloop
endfacet
facet normal 1.102660235119401e-06 4.673802678212269e-08 -1
  outer loop
    vertex 49.94885635375977 54.2704963684082 98.37574005126953
    vertex 50.08650970458984 57.48608779907227 98.37580108642578
    vertex 50.44989395141602 54.43183517456055 98.37574005126953
  endloop
endfacet
facet normal 1.102660235119401e-06 4.673802678212269e-08 -1
  outer loop
    vertex 50.44989395141602 54.43183517456055 98.37574005126953
    vertex 50.08650970458984 57.48608779907227 98.37580108642578
    vertex 77.22589111328125 57.48475646972656 98.37580108642578
  endloop
endfacet
facet normal 1.102660235119401e-06 4.673802678212269e-08 -1
  outer loop
    vertex 50.44989395141602 54.43183517456055 98.37574005126953
    vertex 77.22589111328125 57.48475646972656 98.37580108642578
    vertex 50.97431564331055 54.38650894165039 98.37574005126953
  endloop
endfacet
facet normal 1.102660235119401e-06 4.673802678212269e-08 -1
  outer loop
    vertex 50.97431564331055 54.38650894165039 98.37574005126953
    vertex 77.22589111328125 57.48475646972656 98.37580108642578
    vertex 51.44259262084961 54.14361572265625 98.37574005126953
  endloop
endfacet
facet normal 1.102660235119401e-06 4.673802678212269e-08 -1
  outer loop
    vertex 51.44259262084961 54.14361572265625 98.37574005126953
    vertex 77.22589111328125 57.48475646972656 98.37580108642578
    vertex 51.78175735473633 53.74320220947266 98.37574005126953
  endloop
endfacet
facet normal 1.102660235119401e-06 4.673802678212269e-08 -1
  outer loop
    vertex 51.78175735473633 53.74320220947266 98.37574005126953
    vertex 77.22589111328125 57.48475646972656 98.37580108642578
    vertex 51.94310760498047 53.24216842651367 98.37574005126953
  endloop
endfacet
facet normal 1.102660235119401e-06 4.673802678212269e-08 -1
  outer loop
    vertex 51.94310760498047 53.24216842651367 98.37574005126953
    vertex 77.22589111328125 57.48475646972656 98.37580108642578
    vertex 75.95321655273438 53.58390426635742 98.37580108642578
  endloop
endfacet
facet normal 1.102660235119401e-06 4.673802678212269e-08 -1
  outer loop
    vertex 51.94310760498047 53.24216842651367 98.37574005126953
    vertex 75.95321655273438 53.58390426635742 98.37580108642578
    vertex 75.84757232666016 53.06863021850586 98.37580108642578
  endloop
endfacet
facet normal 1.102660235119401e-06 4.673802678212269e-08 -1
  outer loop
    vertex 75.95321655273438 53.58390426635742 98.37580108642578
    vertex 77.22589111328125 57.48475646972656 98.37580108642578
    vertex 76.25028228759766 54.01781845092773 98.37580108642578
  endloop
endfacet
facet normal 1.102660235119401e-06 4.673802678212269e-08 -1
  outer loop
    vertex 76.25028228759766 54.01781845092773 98.37580108642578
    vertex 77.22589111328125 57.48475646972656 98.37580108642578
    vertex 76.68833160400391 54.30873107910156 98.37580108642578
  endloop
endfacet
facet normal 1.102660235119401e-06 4.673802678212269e-08 -1
  outer loop
    vertex 76.68833160400391 54.30873107910156 98.37580108642578
    vertex 77.22589111328125 57.48475646972656 98.37580108642578
    vertex 77.20505523681641 54.40909576416016 98.37580108642578
  endloop
endfacet
facet normal 1.102660235119401e-06 4.673802678212269e-08 -1
  outer loop
    vertex 77.20505523681641 54.40909576416016 98.37580108642578
    vertex 77.22589111328125 57.48475646972656 98.37580108642578
    vertex 77.72030639648438 54.30145645141602 98.37580108642578
  endloop
endfacet
facet normal 1.102660235119401e-06 4.673802678212269e-08 -1
  outer loop
    vertex 77.72030639648438 54.30145645141602 98.37580108642578
    vertex 77.22589111328125 57.48475646972656 98.37580108642578
    vertex 78.91485595703125 57.13193511962891 98.37580108642578
  endloop
endfacet
facet normal 1.102660235119401e-06 4.673802678212269e-08 -1
  outer loop
    vertex 77.72030639648438 54.30145645141602 98.37580108642578
    vertex 78.91485595703125 57.13193511962891 98.37580108642578
    vertex 78.15621948242188 54.00437164306641 98.37580108642578
  endloop
endfacet
facet normal 1.102660235119401e-06 4.673802678212269e-08 -1
  outer loop
    vertex 78.15621948242188 54.00437164306641 98.37580108642578
    vertex 78.91485595703125 57.13193511962891 98.37580108642578
    vertex 78.44514465332031 53.56631851196289 98.37580108642578
  endloop
endfacet
facet normal 1.102660235119401e-06 4.673802678212269e-08 -1
  outer loop
    vertex 78.44514465332031 53.56631851196289 98.37580108642578
    vertex 78.91485595703125 57.13193511962891 98.37580108642578
    vertex 78.54549407958984 53.04960632324219 98.37580108642578
  endloop
endfacet
facet normal 1.102660235119401e-06 4.673802678212269e-08 -1
  outer loop
    vertex 78.54549407958984 53.04960632324219 98.37580108642578
    vertex 78.91485595703125 57.13193511962891 98.37580108642578
    vertex 78.85723114013672 48.96360015869141 98.37580108642578
  endloop
endfacet
facet normal 1.102660235119401e-06 4.673802678212269e-08 -1
  outer loop
    vertex 78.85723114013672 48.96360015869141 98.37580108642578
    vertex 78.91485595703125 57.13193511962891 98.37580108642578
    vertex 80.29966735839844 49.91059875488281 98.37580108642578
  endloop
endfacet
facet normal 1.102660235119401e-06 4.673802678212269e-08 -1
  outer loop
    vertex 80.29966735839844 49.91059875488281 98.37580108642578
    vertex 78.91485595703125 57.13193511962891 98.37580108642578
    vertex 80.34373474121094 56.15813064575195 98.37580108642578
  endloop
endfacet
facet normal 1.102660235119401e-06 4.673802678212269e-08 -1
  outer loop
    vertex 80.29966735839844 49.91059875488281 98.37580108642578
    vertex 80.34373474121094 56.15813064575195 98.37580108642578
    vertex 81.26691436767578 51.33954238891602 98.37580108642578
  endloop
endfacet
facet normal 1.102660235119401e-06 4.673802678212269e-08 -1
  outer loop
    vertex 81.26691436767578 51.33954238891602 98.37580108642578
    vertex 80.34373474121094 56.15813064575195 98.37580108642578
    vertex 81.29077911376953 54.72224426269531 98.37580108642578
  endloop
endfacet
facet normal 1.102660235119401e-06 4.673802678212269e-08 -1
  outer loop
    vertex 81.26691436767578 51.33954238891602 98.37580108642578
    vertex 81.29077911376953 54.72224426269531 98.37580108642578
    vertex 81.61973571777344 53.02848434448242 98.37580108642578
  endloop
endfacet
facet normal 1.102660235119401e-06 4.673802678212269e-08 -1
  outer loop
    vertex 46.33545684814453 54.31049728393555 98.37580108642578
    vertex 46.71575164794922 50.94914627075195 98.37580108642578
    vertex 46.19337463378906 52.59223556518555 98.37580108642578
  endloop
endfacet
facet normal 1.102660235119401e-06 4.673802678212269e-08 -1
  outer loop
    vertex 46.71575164794922 50.94914627075195 98.37580108642578
    vertex 46.33545684814453 54.31049728393555 98.37580108642578
    vertex 47.13238906860352 55.83894729614258 98.37580108642578
  endloop
endfacet
facet normal 1.102660235119401e-06 4.673802678212269e-08 -1
  outer loop
    vertex 46.71575164794922 50.94914627075195 98.37580108642578
    vertex 47.13238906860352 55.83894729614258 98.37580108642578
    vertex 47.83474731445313 49.63086318969727 98.37580108642578
  endloop
endfacet
facet normal 1.102660235119401e-06 4.673802678212269e-08 -1
  outer loop
    vertex 47.83474731445313 49.63086318969727 98.37580108642578
    vertex 47.13238906860352 55.83894729614258 98.37580108642578
    vertex 48.44416046142578 56.95721054077148 98.37580108642578
  endloop
endfacet
facet normal 1.102660235119401e-06 4.673802678212269e-08 -1
  outer loop
    vertex 47.83474731445313 49.63086318969727 98.37580108642578
    vertex 48.44416046142578 56.95721054077148 98.37580108642578
    vertex 49.36246109008789 48.8404426574707 98.37580108642578
  endloop
endfacet
facet normal 1.102660235119401e-06 4.673802678212269e-08 -1
  outer loop
    vertex 49.36246109008789 48.8404426574707 98.37580108642578
    vertex 48.44416046142578 56.95721054077148 98.37580108642578
    vertex 49.26220703125 52.93885803222656 98.37574005126953
  endloop
endfacet
facet normal 1.102660235119401e-06 4.673802678212269e-08 -1
  outer loop
    vertex 49.36246109008789 48.8404426574707 98.37580108642578
    vertex 49.26220703125 52.93885803222656 98.37574005126953
    vertex 49.42156982421875 52.43759918212891 98.37574005126953
  endloop
endfacet
facet normal 1.102660235119401e-06 4.673802678212269e-08 -1
  outer loop
    vertex 49.36246109008789 48.8404426574707 98.37580108642578
    vertex 49.42156982421875 52.43759918212891 98.37574005126953
    vertex 51.08146286010742 48.69185256958008 98.37580108642578
  endloop
endfacet
facet normal 1.102660235119401e-06 4.673802678212269e-08 -1
  outer loop
    vertex 51.08146286010742 48.69185256958008 98.37580108642578
    vertex 49.42156982421875 52.43759918212891 98.37574005126953
    vertex 49.76294708251953 52.03542327880859 98.37574005126953
  endloop
endfacet
facet normal 1.102660235119401e-06 4.673802678212269e-08 -1
  outer loop
    vertex 51.08146286010742 48.69185256958008 98.37580108642578
    vertex 49.76294708251953 52.03542327880859 98.37574005126953
    vertex 50.22901153564453 51.79428482055664 98.37574005126953
  endloop
endfacet
facet normal 1.102660235119401e-06 4.673802678212269e-08 -1
  outer loop
    vertex 51.08146286010742 48.69185256958008 98.37580108642578
    vertex 50.22901153564453 51.79428482055664 98.37574005126953
    vertex 50.75342559814453 51.74895858764648 98.37574005126953
  endloop
endfacet
facet normal 1.102660235119401e-06 4.673802678212269e-08 -1
  outer loop
    vertex 51.08146286010742 48.69185256958008 98.37580108642578
    vertex 50.75342559814453 51.74895858764648 98.37574005126953
    vertex 51.25446319580078 51.91030883789063 98.37574005126953
  endloop
endfacet
facet normal 1.102660235119401e-06 4.673802678212269e-08 -1
  outer loop
    vertex 51.08146286010742 48.69185256958008 98.37580108642578
    vertex 51.25446319580078 51.91030883789063 98.37574005126953
    vertex 77.16346740722656 48.63463592529297 98.37580108642578
  endloop
endfacet
facet normal 1.102660235119401e-06 4.673802678212269e-08 -1
  outer loop
    vertex 77.16346740722656 48.63463592529297 98.37580108642578
    vertex 51.25446319580078 51.91030883789063 98.37574005126953
    vertex 51.65686416625977 52.24969863891602 98.37574005126953
  endloop
endfacet
facet normal 1.102660235119401e-06 4.673802678212269e-08 -1
  outer loop
    vertex 77.16346740722656 48.63463592529297 98.37580108642578
    vertex 51.65686416625977 52.24969863891602 98.37574005126953
    vertex 51.89776992797852 52.71775054931641 98.37574005126953
  endloop
endfacet
facet normal 1.102660235119401e-06 4.673802678212269e-08 -1
  outer loop
    vertex 77.16346740722656 48.63463592529297 98.37580108642578
    vertex 51.89776992797852 52.71775054931641 98.37574005126953
    vertex 51.94310760498047 53.24216842651367 98.37574005126953
  endloop
endfacet
facet normal 1.102660235119401e-06 4.673802678212269e-08 -1
  outer loop
    vertex 77.16346740722656 48.63463592529297 98.37580108642578
    vertex 51.94310760498047 53.24216842651367 98.37574005126953
    vertex 75.94593048095703 52.55192947387695 98.37580108642578
  endloop
endfacet
facet normal 1.102660235119401e-06 4.673802678212269e-08 -1
  outer loop
    vertex 75.94593048095703 52.55192947387695 98.37580108642578
    vertex 51.94310760498047 53.24216842651367 98.37574005126953
    vertex 75.84757232666016 53.06863021850586 98.37580108642578
  endloop
endfacet
facet normal 1.102660235119401e-06 4.673802678212269e-08 -1
  outer loop
    vertex 77.16346740722656 48.63463592529297 98.37580108642578
    vertex 75.94593048095703 52.55192947387695 98.37580108642578
    vertex 76.23682403564453 52.11186599731445 98.37580108642578
  endloop
endfacet
facet normal 1.102660235119401e-06 4.673802678212269e-08 -1
  outer loop
    vertex 77.16346740722656 48.63463592529297 98.37580108642578
    vertex 76.23682403564453 52.11186599731445 98.37580108642578
    vertex 76.67075347900391 51.81679534912109 98.37580108642578
  endloop
endfacet
facet normal 1.102660235119401e-06 4.673802678212269e-08 -1
  outer loop
    vertex 77.16346740722656 48.63463592529297 98.37580108642578
    vertex 76.67075347900391 51.81679534912109 98.37580108642578
    vertex 77.18600463867188 51.70915603637695 98.37580108642578
  endloop
endfacet
facet normal 1.102660235119401e-06 4.673802678212269e-08 -1
  outer loop
    vertex 77.16346740722656 48.63463592529297 98.37580108642578
    vertex 77.18600463867188 51.70915603637695 98.37580108642578
    vertex 78.85723114013672 48.96360015869141 98.37580108642578
  endloop
endfacet
facet normal 1.102660235119401e-06 4.673802678212269e-08 -1
  outer loop
    vertex 78.85723114013672 48.96360015869141 98.37580108642578
    vertex 77.18600463867188 51.70915603637695 98.37580108642578
    vertex 77.70272827148438 51.80952072143555 98.37580108642578
  endloop
endfacet
facet normal 1.102660235119401e-06 4.673802678212269e-08 -1
  outer loop
    vertex 78.85723114013672 48.96360015869141 98.37580108642578
    vertex 77.70272827148438 51.80952072143555 98.37580108642578
    vertex 78.14277648925781 52.09842300415039 98.37580108642578
  endloop
endfacet
facet normal 1.102660235119401e-06 4.673802678212269e-08 -1
  outer loop
    vertex 78.85723114013672 48.96360015869141 98.37580108642578
    vertex 78.14277648925781 52.09842300415039 98.37580108642578
    vertex 78.4378662109375 52.53435516357422 98.37580108642578
  endloop
endfacet
facet normal 1.102660235119401e-06 4.673802678212269e-08 -1
  outer loop
    vertex 78.85723114013672 48.96360015869141 98.37580108642578
    vertex 78.4378662109375 52.53435516357422 98.37580108642578
    vertex 78.54549407958984 53.04960632324219 98.37580108642578
  endloop
endfacet
facet normal -0.1906552016735077 0.981657087802887 -2.344678250665311e-06
  outer loop
    vertex 75.53213500976563 57.15579986572266 101.3637161254883
    vertex 77.22589111328125 57.48475646972656 99.88397979736328
    vertex 75.53213500976563 57.15579986572266 99.88397979736328
  endloop
endfacet
facet normal -0.1906552016735077 0.981657087802887 -2.344678250665311e-06
  outer loop
    vertex 77.22589111328125 57.48475646972656 99.88397979736328
    vertex 75.53213500976563 57.15579986572266 101.3637161254883
    vertex 77.22589111328125 57.48476409912109 101.3637161254883
  endloop
endfacet
facet normal 0.9965978264808655 -0.08241827785968781 3.979810612151555e-33
  outer loop
    vertex 49.30555725097656 53.46305084228516 98.37574005126953
    vertex 49.26220703125 52.93885803222656 99.88397979736328
    vertex 49.26220703125 52.93885803222656 98.37574005126953
  endloop
endfacet
facet normal 0.9965978264808655 -0.08241827785968781 3.979810612151555e-33
  outer loop
    vertex 49.26220703125 52.93885803222656 99.88397979736328
    vertex 49.30555725097656 53.46305084228516 98.37574005126953
    vertex 49.30555725097656 53.46305084228516 99.88397979736328
  endloop
endfacet
facet normal 0.8867114782333374 -0.4623231887817383 -1.494160289881052e-32
  outer loop
    vertex 49.54867935180664 53.92934417724609 98.37574005126953
    vertex 49.30555725097656 53.46305084228516 99.88397979736328
    vertex 49.30555725097656 53.46305084228516 98.37574005126953
  endloop
endfacet
facet normal 0.8867114782333374 -0.4623231887817383 -1.494160289881052e-32
  outer loop
    vertex 49.30555725097656 53.46305084228516 99.88397979736328
    vertex 49.54867935180664 53.92934417724609 98.37574005126953
    vertex 49.54867935180664 53.92934417724609 99.88397979736328
  endloop
endfacet
facet normal -0.1906653493642807 0.9816551208496094 4.513177141373355e-32
  outer loop
    vertex 77.18600463867188 51.70915603637695 101.3637161254883
    vertex 77.70272827148438 51.80952072143555 98.37580108642578
    vertex 77.18600463867188 51.70915603637695 98.37580108642578
  endloop
endfacet
facet normal -0.1906653493642807 0.9816551208496094 4.513177141373355e-32
  outer loop
    vertex 77.70272827148438 51.80952072143555 98.37580108642578
    vertex 77.18600463867188 51.70915603637695 101.3637161254883
    vertex 77.70272827148438 51.80952072143555 101.3637161254883
  endloop
endfacet
facet normal 0.9823600053787231 0.1869994848966599 1.666812638962808e-32
  outer loop
    vertex 75.84757232666016 53.06863021850586 98.37580108642578
    vertex 75.94593048095703 52.55192947387695 101.3637161254883
    vertex 75.94593048095703 52.55192947387695 98.37580108642578
  endloop
endfacet
facet normal 0.9823600053787231 0.1869994848966599 1.666812638962808e-32
  outer loop
    vertex 75.94593048095703 52.55192947387695 101.3637161254883
    vertex 75.84757232666016 53.06863021850586 98.37580108642578
    vertex 75.84757232666016 53.06863021850586 101.3637161254883
  endloop
endfacet
facet normal -0.8867084980010986 0.4623288810253143 1.494189677239823e-32
  outer loop
    vertex 47.13238906860352 55.83894729614258 99.88397979736328
    vertex 46.33545684814453 54.31049728393555 98.37580108642578
    vertex 46.33545684814453 54.31049728393555 99.88397979736328
  endloop
endfacet
facet normal -0.8867084980010986 0.4623288810253143 1.494189677239823e-32
  outer loop
    vertex 46.33545684814453 54.31049728393555 98.37580108642578
    vertex 47.13238906860352 55.83894729614258 99.88397979736328
    vertex 47.13238906860352 55.83894729614258 98.37580108642578
  endloop
endfacet
facet normal 0.8251442313194275 -0.5649220943450928 2.38659413298592e-06
  outer loop
    vertex 76.25028228759766 54.01781845092773 98.37580108642578
    vertex 75.95320129394531 53.58390426635742 101.3637161254883
    vertex 75.95321655273438 53.58390426635742 98.37580108642578
  endloop
endfacet
facet normal 0.8251442313194275 -0.5649220943450928 2.38659413298592e-06
  outer loop
    vertex 75.95320129394531 53.58390426635742 101.3637161254883
    vertex 76.25028228759766 54.01781845092773 98.37580108642578
    vertex 76.25028228759766 54.01781845092773 101.3637161254883
  endloop
endfacet
facet normal 0.7623854875564575 0.6471231579780579 3.678763643638487e-32
  outer loop
    vertex 49.42156982421875 52.43759918212891 98.37574005126953
    vertex 49.76294708251953 52.03542327880859 99.88397979736328
    vertex 49.76294708251953 52.03542327880859 98.37574005126953
  endloop
endfacet
facet normal 0.7623854875564575 0.6471231579780579 3.678763643638487e-32
  outer loop
    vertex 49.76294708251953 52.03542327880859 99.88397979736328
    vertex 49.42156982421875 52.43759918212891 98.37574005126953
    vertex 49.42156982421875 52.43759918212891 99.88397979736328
  endloop
endfacet
facet normal 0.9816566705703735 0.1906571835279465 -9.970093949885348e-18
  outer loop
    vertex 81.29077911376953 54.72224426269531 98.37580108642578
    vertex 81.61973571777344 53.02848434448242 101.3637161254883
    vertex 81.61973571777344 53.02848434448242 98.37580108642578
  endloop
endfacet
facet normal 0.9816566705703735 0.1906571835279465 -9.970093949885348e-18
  outer loop
    vertex 81.61973571777344 53.02848434448242 101.3637161254883
    vertex 81.29077911376953 54.72224426269531 98.37580108642578
    vertex 81.29077911376953 54.72224426269531 101.3637161254883
  endloop
endfacet
facet normal -0.9788718223571777 0.2044748663902283 1.960026994742759e-33
  outer loop
    vertex 78.54549407958984 53.04960632324219 101.3637161254883
    vertex 78.4378662109375 52.53435516357422 98.37580108642578
    vertex 78.4378662109375 52.53435516357422 101.3637161254883
  endloop
endfacet
facet normal -0.9788718223571777 0.2044748663902283 1.960026994742759e-33
  outer loop
    vertex 78.4378662109375 52.53435516357422 98.37580108642578
    vertex 78.54549407958984 53.04960632324219 101.3637161254883
    vertex 78.54549407958984 53.04960632324219 98.37580108642578
  endloop
endfacet
facet normal -0.7623795866966248 -0.6471301317214966 -3.678792149376494e-32
  outer loop
    vertex 46.71575164794922 50.94914627075195 99.88397979736328
    vertex 47.83474731445313 49.63086318969727 98.37580108642578
    vertex 47.83474731445313 49.63086318969727 99.88397979736328
  endloop
endfacet
facet normal -0.7623795866966248 -0.6471301317214966 -3.678792149376494e-32
  outer loop
    vertex 47.83474731445313 49.63086318969727 98.37580108642578
    vertex 46.71575164794922 50.94914627075195 99.88397979736328
    vertex 46.71575164794922 50.94914627075195 98.37580108642578
  endloop
endfacet
facet normal 0.3065198659896851 -0.9518642425537109 2.158353026970872e-06
  outer loop
    vertex 50.44989395141602 54.43184280395508 99.88397979736328
    vertex 49.94885635375977 54.2704963684082 98.37574005126953
    vertex 50.44989395141602 54.43183517456055 98.37574005126953
  endloop
endfacet
facet normal 0.3065198659896851 -0.9518642425537109 2.158353026970872e-06
  outer loop
    vertex 49.94885635375977 54.2704963684082 98.37574005126953
    vertex 50.44989395141602 54.43184280395508 99.88397979736328
    vertex 49.94885635375977 54.2704963684082 99.88397979736328
  endloop
endfacet
facet normal -0.8891362547874451 0.457642525434494 1.469999325931045e-32
  outer loop
    vertex 51.89776992797852 52.71775054931641 99.88397979736328
    vertex 51.65686416625977 52.24969863891602 98.37574005126953
    vertex 51.65686416625977 52.24969863891602 99.88397979736328
  endloop
endfacet
facet normal -0.8891362547874451 0.457642525434494 1.469999325931045e-32
  outer loop
    vertex 51.65686416625977 52.24969863891602 98.37574005126953
    vertex 51.89776992797852 52.71775054931641 99.88397979736328
    vertex 51.89776992797852 52.71775054931641 98.37574005126953
  endloop
endfacet
facet normal -0.306525319814682 0.9518625140190125 4.279827112929333e-32
  outer loop
    vertex 48.44416046142578 56.95721054077148 99.88397979736328
    vertex 50.08650970458984 57.48608779907227 98.37580108642578
    vertex 48.44416046142578 56.95721054077148 98.37580108642578
  endloop
endfacet
facet normal -0.306525319814682 0.9518625140190125 4.279827112929333e-32
  outer loop
    vertex 50.08650970458984 57.48608779907227 98.37580108642578
    vertex 48.44416046142578 56.95721054077148 99.88397979736328
    vertex 50.08650970458984 57.48608779907227 99.88397979736328
  endloop
endfacet
facet normal 0.648751437664032 -0.761000394821167 -3.101826020403917e-32
  outer loop
    vertex 49.94885635375977 54.2704963684082 99.88397979736328
    vertex 49.54867935180664 53.92934417724609 98.37574005126953
    vertex 49.94885635375977 54.2704963684082 98.37574005126953
  endloop
endfacet
facet normal 0.648751437664032 -0.761000394821167 -3.101826020403917e-32
  outer loop
    vertex 49.54867935180664 53.92934417724609 98.37574005126953
    vertex 49.94885635375977 54.2704963684082 99.88397979736328
    vertex 49.54867935180664 53.92934417724609 99.88397979736328
  endloop
endfacet
facet normal 4.916374746244401e-05 1 4.751440148456638e-32
  outer loop
    vertex 50.08650970458984 57.48608779907227 99.88397979736328
    vertex 77.22589111328125 57.48475646972656 98.37580108642578
    vertex 50.08650970458984 57.48608779907227 98.37580108642578
  endloop
endfacet
facet normal 4.916374746244401e-05 1 4.751440148456638e-32
  outer loop
    vertex 77.22589111328125 57.48475646972656 98.37580108642578
    vertex 50.08650970458984 57.48608779907227 99.88397979736328
    vertex 77.22589111328125 57.48475646972656 99.88397979736328
  endloop
endfacet
facet normal -0.5631696581840515 -0.8263412714004517 -4.372466353349699e-32
  outer loop
    vertex 78.15621948242188 54.00437164306641 101.3637161254883
    vertex 77.72030639648438 54.30145645141602 98.37580108642578
    vertex 78.15621948242188 54.00437164306641 98.37580108642578
  endloop
endfacet
facet normal -0.5631696581840515 -0.8263412714004517 -4.372466353349699e-32
  outer loop
    vertex 77.72030639648438 54.30145645141602 98.37580108642578
    vertex 78.15621948242188 54.00437164306641 101.3637161254883
    vertex 77.72030639648438 54.30145645141602 101.3637161254883
  endloop
endfacet
facet normal 0.9796263575553894 -0.2008286863565445 2.551884108470404e-06
  outer loop
    vertex 75.95321655273438 53.58390426635742 98.37580108642578
    vertex 75.84757232666016 53.06863021850586 101.3637161254883
    vertex 75.84757232666016 53.06863021850586 98.37580108642578
  endloop
endfacet
facet normal 0.9796263575553894 -0.2008286863565445 2.551884108470404e-06
  outer loop
    vertex 75.84757232666016 53.06863021850586 101.3637161254883
    vertex 75.95321655273438 53.58390426635742 98.37580108642578
    vertex 75.95320129394531 53.58390426635742 101.3637161254883
  endloop
endfacet
facet normal -0.2044882774353027 -0.9788690209388733 -4.813011073184771e-32
  outer loop
    vertex 77.16346740722656 48.63463592529297 101.3637161254883
    vertex 75.47451019287109 48.98746490478516 99.88397979736328
    vertex 77.16346740722656 48.63463592529297 99.88397979736328
  endloop
endfacet
facet normal -0.2044882774353027 -0.9788690209388733 -4.813011073184771e-32
  outer loop
    vertex 75.47451019287109 48.98746490478516 99.88397979736328
    vertex 77.16346740722656 48.63463592529297 101.3637161254883
    vertex 75.47451019287109 48.98746490478516 101.3637161254883
  endloop
endfacet
facet normal 0.9788699746131897 -0.204483687877655 -2.552157866375637e-06
  outer loop
    vertex 81.26691436767578 51.33954238891602 98.37580108642578
    vertex 81.61973571777344 53.02848434448242 101.3637161254883
    vertex 81.26692962646484 51.33953857421875 101.3637161254883
  endloop
endfacet
facet normal 0.9788699746131897 -0.204483687877655 -2.552157866375637e-06
  outer loop
    vertex 81.61973571777344 53.02848434448242 101.3637161254883
    vertex 81.26691436767578 51.33954238891602 98.37580108642578
    vertex 81.61973571777344 53.02848434448242 98.37580108642578
  endloop
endfacet
facet normal -0.763054370880127 -0.6463342905044556 -3.675545140105935e-32
  outer loop
    vertex 51.44259262084961 54.14361572265625 99.88397979736328
    vertex 51.78175735473633 53.74320220947266 98.37574005126953
    vertex 51.78175735473633 53.74320220947266 99.88397979736328
  endloop
endfacet
facet normal -0.763054370880127 -0.6463342905044556 -3.675545140105935e-32
  outer loop
    vertex 51.78175735473633 53.74320220947266 98.37574005126953
    vertex 51.44259262084961 54.14361572265625 99.88397979736328
    vertex 51.44259262084961 54.14361572265625 98.37574005126953
  endloop
endfacet
facet normal -0.828113853931427 0.5605599880218506 2.00734820960824e-32
  outer loop
    vertex 78.4378662109375 52.53435516357422 101.3637161254883
    vertex 78.14277648925781 52.09842300415039 98.37580108642578
    vertex 78.14277648925781 52.09842300415039 101.3637161254883
  endloop
endfacet
facet normal -0.828113853931427 0.5605599880218506 2.00734820960824e-32
  outer loop
    vertex 78.14277648925781 52.09842300415039 98.37580108642578
    vertex 78.4378662109375 52.53435516357422 101.3637161254883
    vertex 78.4378662109375 52.53435516357422 98.37580108642578
  endloop
endfacet
facet normal -0.8342086672782898 -0.5514488816261292 -3.28108068044386e-32
  outer loop
    vertex 73.09858703613281 51.39715576171875 101.3637161254883
    vertex 74.05213165283203 49.95466613769531 99.88397979736328
    vertex 74.05213165283203 49.95466613769531 101.3637161254883
  endloop
endfacet
facet normal -0.8342086672782898 -0.5514488816261292 -3.28108068044386e-32
  outer loop
    vertex 74.05213165283203 49.95466613769531 99.88397979736328
    vertex 73.09858703613281 51.39715576171875 101.3637161254883
    vertex 73.09858703613281 51.39715576171875 99.88397979736328
  endloop
endfacet
facet normal -0.3065257370471954 0.9518623948097229 4.279825937434982e-32
  outer loop
    vertex 50.75342559814453 51.74895858764648 99.88397979736328
    vertex 51.25446319580078 51.91030883789063 98.37574005126953
    vertex 50.75342559814453 51.74895858764648 98.37574005126953
  endloop
endfacet
facet normal -0.3065257370471954 0.9518623948097229 4.279825937434982e-32
  outer loop
    vertex 51.25446319580078 51.91030883789063 98.37574005126953
    vertex 50.75342559814453 51.74895858764648 99.88397979736328
    vertex 51.25446319580078 51.91030883789063 99.88397979736328
  endloop
endfacet
facet normal 0.1906588822603226 -0.9816563725471497 1.161177465291985e-06
  outer loop
    vertex 77.20505523681641 54.40909576416016 101.3637161254883
    vertex 76.68833160400391 54.30873107910156 98.37580108642578
    vertex 77.20505523681641 54.40909576416016 98.37580108642578
  endloop
endfacet
facet normal 0.1906588822603226 -0.9816563725471497 1.161177465291985e-06
  outer loop
    vertex 76.68833160400391 54.30873107910156 98.37580108642578
    vertex 77.20505523681641 54.40909576416016 101.3637161254883
    vertex 76.68833160400391 54.30873870849609 101.3637161254883
  endloop
endfacet
endsolid FAE
