solid 9717
facet normal -0.9999929666519165 0.003753637429326773 -2.486412994426483e-20
  outer loop
    vertex 34.61200332641602 81.61600494384766 7.357930183410645
    vertex 34.60200500488281 78.95200347900391 0.2119299024343491
    vertex 34.60200500488281 78.95200347900391 7.357930183410645
  endloop
endfacet
facet normal -0.9999929666519165 0.003753637429326773 -2.486412994426483e-20
  outer loop
    vertex 34.60200500488281 78.95200347900391 0.2119299024343491
    vertex 34.61200332641602 81.61600494384766 7.357930183410645
    vertex 34.61200332641602 81.61600494384766 0.2119299024343491
  endloop
endfacet
facet normal 0.627402126789093 0.7782662510871887 0.02585109323263168
  outer loop
    vertex 15.08200263977051 9.974002838134766 8.589929580688477
    vertex 15.43800163269043 9.69000244140625 8.499929428100586
    vertex 13.23600196838379 11.50800132751465 7.209930419921875
  endloop
endfacet
facet normal -0.6089786887168884 -0.7890393137931824 0.08100564777851105
  outer loop
    vertex 12.06600189208984 5.168003082275391 18.73592948913574
    vertex 11.38200187683105 4.890003204345703 10.88593006134033
    vertex 11.73800277709961 4.606002807617188 10.79592990875244
  endloop
endfacet
facet normal 0.6453286409378052 0.7639050483703613 -1.354842764895299e-17
  outer loop
    vertex 13.23600196838379 11.50800132751465 18.73592948913574
    vertex 14.57600212097168 10.37600135803223 10.14993000030518
    vertex 13.23600196838379 11.50800132751465 7.209930419921875
  endloop
endfacet
facet normal -0.007588570471853018 0.008485034108161926 -0.9999352097511292
  outer loop
    vertex 27.0780029296875 40.32200241088867 0.06592988967895508
    vertex 11.12000274658203 26.05000305175781 0.06592988967895508
    vertex 11.30600166320801 43.42200469970703 0.2119299024343491
  endloop
endfacet
facet normal 0.6474285125732422 0.7608649730682373 -0.04382738843560219
  outer loop
    vertex 16.09800148010254 9.162002563476563 8.849929809570313
    vertex 18.3280029296875 7.170001983642578 7.209930419921875
    vertex 15.79600143432617 9.404001235961914 8.589929580688477
  endloop
endfacet
facet normal -0.6320022344589233 -0.7705779075622559 0.0823579803109169
  outer loop
    vertex 12.06600189208984 5.168003082275391 18.73592948913574
    vertex 11.02400207519531 5.174003601074219 10.79592990875244
    vertex 11.38200187683105 4.890003204345703 10.88593006134033
  endloop
endfacet
facet normal 0.6666093468666077 -0.7454072833061218 -2.294647161133749e-17
  outer loop
    vertex 43.03600311279297 54.59200286865234 7.209930419921875
    vertex 27.0780029296875 40.32200241088867 0.06592988967895508
    vertex 43.03600311279297 54.59200286865234 0.06592988967895508
  endloop
endfacet
facet normal 0.6666093468666077 -0.7454072833061218 -2.294647161133749e-17
  outer loop
    vertex 27.0780029296875 40.32200241088867 0.06592988967895508
    vertex 43.03600311279297 54.59200286865234 7.209930419921875
    vertex 11.12000274658203 26.05000305175781 0.06592988967895508
  endloop
endfacet
facet normal 0.6666093468666077 -0.7454072833061218 -2.294647161133749e-17
  outer loop
    vertex 11.12000274658203 26.05000305175781 0.06592988967895508
    vertex 43.03600311279297 54.59200286865234 7.209930419921875
    vertex 11.12000274658203 26.05000305175781 7.209930419921875
  endloop
endfacet
facet normal 0.6666093468666077 -0.7454072833061218 -2.294647161133749e-17
  outer loop
    vertex 11.12000274658203 26.05000305175781 7.209930419921875
    vertex 43.03600311279297 54.59200286865234 7.209930419921875
    vertex 27.0780029296875 40.32200241088867 7.209930419921875
  endloop
endfacet
facet normal -0.7325842380523682 -0.6799222826957703 -0.03203263133764267
  outer loop
    vertex 5.994003295898438 10.55000305175781 7.209930419921875
    vertex 10.5200023651123 5.5780029296875 9.235929489135742
    vertex 10.44800186157227 5.634002685546875 9.693929672241211
  endloop
endfacet
facet normal 0.5424486994743347 0.8398170471191406 0.02137200720608234
  outer loop
    vertex 23.24800300598145 3.952003479003906 8.785929679870605
    vertex 20.97200202941895 5.476001739501953 6.667930126190186
    vertex 18.3280029296875 7.170001983642578 7.209930419921875
  endloop
endfacet
facet normal -0.0170164443552494 0.01902931928634644 -0.9996740818023682
  outer loop
    vertex 43.03600311279297 54.59200286865234 0.06592988967895508
    vertex 27.0780029296875 40.32200241088867 0.06592988967895508
    vertex 34.60200500488281 54.72000503540039 0.2119299024343491
  endloop
endfacet
facet normal -0.2803892493247986 -0.9286174774169922 0.2430050671100616
  outer loop
    vertex 10.5200023651123 5.5780029296875 9.235929489135742
    vertex 10.12200164794922 5.168003082275391 7.209930419921875
    vertex 10.72200202941895 5.416000366210938 8.849929809570313
  endloop
endfacet
facet normal -0.6080029606819153 -0.7939239144325256 -0.004147426690906286
  outer loop
    vertex 12.31400108337402 4.146003723144531 9.693929672241211
    vertex 12.2440013885498 4.202003479003906 9.235929489135742
    vertex 17.7340030670166 0 8.785929679870605
  endloop
endfacet
facet normal -0.7498568296432495 -0.660548985004425 0.03727955743670464
  outer loop
    vertex 5.994003295898438 10.55000305175781 7.209930419921875
    vertex 10.44800186157227 5.634002685546875 9.693929672241211
    vertex 10.5200023651123 5.5780029296875 10.14993000030518
  endloop
endfacet
facet normal 0.5394695401191711 0.8420051336288452 1.615594578518145e-17
  outer loop
    vertex 18.3280029296875 7.170001983642578 7.209930419921875
    vertex 20.97200202941895 5.476001739501953 0.06592988967895508
    vertex 18.3280029296875 7.170001983642578 0.06592988967895508
  endloop
endfacet
facet normal 0.5394695401191711 0.8420051336288452 1.615594578518145e-17
  outer loop
    vertex 20.97200202941895 5.476001739501953 0.06592988967895508
    vertex 18.3280029296875 7.170001983642578 7.209930419921875
    vertex 20.97200202941895 5.476001739501953 6.667930126190186
  endloop
endfacet
facet normal 0.6662431955337524 0.7456978559494019 -0.007392843719571829
  outer loop
    vertex 16.37000274658203 8.944002151489258 9.693929672241211
    vertex 18.3280029296875 7.170001983642578 7.209930419921875
    vertex 16.30000305175781 9.002002716064453 9.235929489135742
  endloop
endfacet
facet normal -0.608227014541626 -0.7931281924247742 -0.03174189850687981
  outer loop
    vertex 12.04000282287598 4.364002227783203 8.849929809570313
    vertex 11.73800277709961 4.606002807617188 8.589929580688477
    vertex 17.7340030670166 0 8.785929679870605
  endloop
endfacet
facet normal 0.6344163417816162 0.7687858939170837 -0.08052465319633484
  outer loop
    vertex 15.79600143432617 9.404001235961914 8.589929580688477
    vertex 18.3280029296875 7.170001983642578 7.209930419921875
    vertex 15.43800163269043 9.69000244140625 8.499929428100586
  endloop
endfacet
facet normal 0.6347270011901855 0.7726449370384216 0.01189525797963142
  outer loop
    vertex 14.57600212097168 10.37600135803223 9.235929489135742
    vertex 14.77800178527832 10.21600151062012 8.849929809570313
    vertex 13.23600196838379 11.50800132751465 7.209930419921875
  endloop
endfacet
facet normal -0.6199694871902466 -0.6281435489654541 0.4701845943927765
  outer loop
    vertex 11.73800277709961 4.606002807617188 8.589929580688477
    vertex 11.38200187683105 4.890003204345703 8.499929428100586
    vertex 10.12200164794922 5.168003082275391 7.209930419921875
  endloop
endfacet
facet normal -0.5661033391952515 -0.8067063689231873 0.1695637702941895
  outer loop
    vertex 20.37800216674805 0.2360000610351563 18.73592948913574
    vertex 12.04000282287598 4.364002227783203 10.53792953491211
    vertex 17.7340030670166 0 8.785929679870605
  endloop
endfacet
facet normal 0.6703384518623352 0.7420555353164673 5.745922443954676e-18
  outer loop
    vertex 18.3280029296875 7.170001983642578 18.73592948913574
    vertex 18.3280029296875 7.170001983642578 7.209930419921875
    vertex 16.30000305175781 9.002002716064453 10.14993000030518
  endloop
endfacet
facet normal -0.6967827677726746 -0.7130606770515442 -0.0777059867978096
  outer loop
    vertex 15.38400268554688 1.868000030517578 6.667930126190186
    vertex 12.25400161743164 5.646003723144531 0.06592988967895508
    vertex 15.84600257873535 2.136001586914063 0.06592988967895508
  endloop
endfacet
facet normal -0.7433322668075562 -0.6618446707725525 0.09705046564340591
  outer loop
    vertex 7.274002075195313 10.55000305175781 18.73592948913574
    vertex 11.02400207519531 5.174003601074219 10.79592990875244
    vertex 12.06600189208984 5.168003082275391 18.73592948913574
  endloop
endfacet
facet normal 0.6481197476387024 0.7607715129852295 -0.03416875749826431
  outer loop
    vertex 15.43800163269043 9.69000244140625 8.499929428100586
    vertex 18.3280029296875 7.170001983642578 7.209930419921875
    vertex 13.23600196838379 11.50800132751465 7.209930419921875
  endloop
endfacet
facet normal -0.6071001887321472 -0.7946131825447083 0.00438885111361742
  outer loop
    vertex 12.2440013885498 4.202003479003906 10.14993000030518
    vertex 12.31400108337402 4.146003723144531 9.693929672241211
    vertex 17.7340030670166 0 8.785929679870605
  endloop
endfacet
facet normal -0.7596239447593689 -0.6448682546615601 0.08435864746570587
  outer loop
    vertex 5.994003295898438 10.55000305175781 7.209930419921875
    vertex 10.72200202941895 5.416000366210938 10.53792953491211
    vertex 7.274002075195313 10.55000305175781 18.73592948913574
  endloop
endfacet
facet normal 0.6266968846321106 0.779247522354126 -0.004930614028126001
  outer loop
    vertex 13.23600196838379 11.50800132751465 18.73592948913574
    vertex 14.77800178527832 10.21600151062012 10.53792953491211
    vertex 14.57600212097168 10.37600135803223 10.14993000030518
  endloop
endfacet
facet normal -0.9169509410858154 0.398999959230423 -2.689962897009374e-17
  outer loop
    vertex 26.75600242614746 78.92800903320313 7.357930183410645
    vertex 11.30600166320801 43.42200469970703 3.785930156707764
    vertex 11.30600166320801 43.42200469970703 7.357930183410645
  endloop
endfacet
facet normal -0.9169509410858154 0.398999959230423 -2.689962897009374e-17
  outer loop
    vertex 11.30600166320801 43.42200469970703 3.785930156707764
    vertex 26.75600242614746 78.92800903320313 7.357930183410645
    vertex 11.30600166320801 43.42200469970703 0.2119299024343491
  endloop
endfacet
facet normal -0.9169509410858154 0.398999959230423 -2.689962897009374e-17
  outer loop
    vertex 11.30600166320801 43.42200469970703 0.2119299024343491
    vertex 26.75600242614746 78.92800903320313 7.357930183410645
    vertex 26.75600242614746 78.92800903320313 0.2119299024343491
  endloop
endfacet
facet normal 0.4259738028049469 -0.3601254522800446 0.8299735188484192
  outer loop
    vertex 15.08200263977051 9.974002838134766 8.589929580688477
    vertex 10.72200202941895 5.416000366210938 8.849929809570313
    vertex 11.02400207519531 5.174003601074219 8.589929580688477
  endloop
endfacet
facet normal -0.5727415680885315 -0.7296885251998901 0.3735260963439941
  outer loop
    vertex 17.7340030670166 0 8.785929679870605
    vertex 11.73800277709961 4.606002807617188 8.589929580688477
    vertex 10.12200164794922 5.168003082275391 7.209930419921875
  endloop
endfacet
facet normal 0.03881342709064484 -0.9992464780807495 1.372171148407431e-13
  outer loop
    vertex 45.1300048828125 75.26400756835938 7.401930332183838
    vertex 38.18200302124023 74.99400329589844 0.2579298913478851
    vertex 45.1300048828125 75.26400756835938 0.2579298913478851
  endloop
endfacet
facet normal 0.03881342709064484 -0.9992464780807495 1.372171148407431e-13
  outer loop
    vertex 38.18200302124023 74.99400329589844 0.2579298913478851
    vertex 45.1300048828125 75.26400756835938 7.401930332183838
    vertex 38.18200302124023 74.99400329589844 7.401930332183838
  endloop
endfacet
facet normal 0.03881342709064484 -0.9992464780807495 1.372171148407431e-13
  outer loop
    vertex 38.18200302124023 74.99400329589844 7.401930332183838
    vertex 45.1300048828125 75.26400756835938 7.401930332183838
    vertex 41.65600204467773 75.1300048828125 7.401930332183838
  endloop
endfacet
facet normal 0.6540012955665588 0.755940854549408 -0.02890901081264019
  outer loop
    vertex 16.30000305175781 9.002002716064453 9.235929489135742
    vertex 18.3280029296875 7.170001983642578 7.209930419921875
    vertex 16.09800148010254 9.162002563476563 8.849929809570313
  endloop
endfacet
facet normal 0.01724936254322529 -0.01928978972136974 0.9996651411056519
  outer loop
    vertex 43.03600311279297 54.59200286865234 7.209930419921875
    vertex 34.60200500488281 54.72000503540039 7.357930183410645
    vertex 27.0780029296875 40.32200241088867 7.209930419921875
  endloop
endfacet
facet normal -0.007292050868272781 0.009993098676204681 -0.9999234676361084
  outer loop
    vertex 27.0780029296875 40.32200241088867 0.06592988967895508
    vertex 11.30600166320801 43.42200469970703 0.2119299024343491
    vertex 26.75600242614746 54.69600296020508 0.2119299024343491
  endloop
endfacet
facet normal -0.6083500385284424 -0.7935848832130432 -0.01154722273349762
  outer loop
    vertex 12.2440013885498 4.202003479003906 9.235929489135742
    vertex 12.04000282287598 4.364002227783203 8.849929809570313
    vertex 17.7340030670166 0 8.785929679870605
  endloop
endfacet
facet normal -0.5158209800720215 -0.8257959485054016 -0.2280127108097076
  outer loop
    vertex 15.38400268554688 1.868000030517578 6.667930126190186
    vertex 10.94400215148926 5.478000640869141 3.637930154800415
    vertex 12.25400161743164 5.646003723144531 0.06592988967895508
  endloop
endfacet
facet normal 0.6333809494972229 0.7736808061599731 0.0157028753310442
  outer loop
    vertex 18.3280029296875 7.170001983642578 18.73592948913574
    vertex 16.09800148010254 9.162002563476563 10.53792953491211
    vertex 15.79600143432617 9.404001235961914 10.79592990875244
  endloop
endfacet
facet normal 0.625544011592865 0.7801709175109863 -0.005292986985296011
  outer loop
    vertex 13.23600196838379 11.50800132751465 18.73592948913574
    vertex 15.08200263977051 9.974002838134766 10.79592990875244
    vertex 14.77800178527832 10.21600151062012 10.53792953491211
  endloop
endfacet
facet normal -0.7727258801460266 -0.6181432604789734 0.1442001163959503
  outer loop
    vertex 5.994003295898438 10.55000305175781 7.209930419921875
    vertex 10.5200023651123 5.5780029296875 10.14993000030518
    vertex 10.72200202941895 5.416000366210938 10.53792953491211
  endloop
endfacet
facet normal 0.1478905975818634 -0.1249983981251717 0.9810727834701538
  outer loop
    vertex 11.38200187683105 4.890003204345703 8.499929428100586
    vertex 15.08200263977051 9.974002838134766 8.589929580688477
    vertex 11.02400207519531 5.174003601074219 8.589929580688477
  endloop
endfacet
facet normal 0.1478905975818634 -0.1249983981251717 0.9810727834701538
  outer loop
    vertex 15.08200263977051 9.974002838134766 8.589929580688477
    vertex 11.38200187683105 4.890003204345703 8.499929428100586
    vertex 15.43800163269043 9.69000244140625 8.499929428100586
  endloop
endfacet
facet normal -0.5354538559913635 -0.8218523859977722 -0.1945452243089676
  outer loop
    vertex 10.12200164794922 5.168003082275391 7.209930419921875
    vertex 10.94400215148926 5.478000640869141 3.637930154800415
    vertex 15.38400268554688 1.868000030517578 6.667930126190186
  endloop
endfacet
facet normal 0.4249016344547272 -0.3590417802333832 0.8309919238090515
  outer loop
    vertex 15.08200263977051 9.974002838134766 8.589929580688477
    vertex 14.77800178527832 10.21600151062012 8.849929809570313
    vertex 10.72200202941895 5.416000366210938 8.849929809570313
  endloop
endfacet
facet normal -0.003059133421629667 0.9999952912330627 -2.007641405180416e-19
  outer loop
    vertex 26.75600242614746 78.92800903320313 7.357930183410645
    vertex 34.60200500488281 78.95200347900391 0.2119299024343491
    vertex 26.75600242614746 78.92800903320313 0.2119299024343491
  endloop
endfacet
facet normal -0.003059133421629667 0.9999952912330627 -2.007641405180416e-19
  outer loop
    vertex 34.60200500488281 78.95200347900391 0.2119299024343491
    vertex 26.75600242614746 78.92800903320313 7.357930183410645
    vertex 34.60200500488281 78.95200347900391 7.357930183410645
  endloop
endfacet
facet normal 0.0001093391110771336 -0.00703330198302865 -0.9999752640724182
  outer loop
    vertex 44.33400344848633 81.65000915527344 0.2119299024343491
    vertex 38.18200302124023 74.99400329589844 0.2579298913478851
    vertex 34.61200332641602 81.61600494384766 0.2119299024343491
  endloop
endfacet
facet normal 0.0001093391110771336 -0.00703330198302865 -0.9999752640724182
  outer loop
    vertex 38.18200302124023 74.99400329589844 0.2579298913478851
    vertex 44.33400344848633 81.65000915527344 0.2119299024343491
    vertex 45.1300048828125 75.26400756835938 0.2579298913478851
  endloop
endfacet
facet normal 0.01279500685632229 -4.802815601578914e-05 -0.9999181628227234
  outer loop
    vertex 38.18200302124023 74.99400329589844 0.2579298913478851
    vertex 34.60200500488281 78.95200347900391 0.2119299024343491
    vertex 34.61200332641602 81.61600494384766 0.2119299024343491
  endloop
endfacet
facet normal 0.6244947910308838 0.7810081839561462 -0.005698686931282282
  outer loop
    vertex 13.23600196838379 11.50800132751465 18.73592948913574
    vertex 15.43800163269043 9.69000244140625 10.88593006134033
    vertex 15.08200263977051 9.974002838134766 10.79592990875244
  endloop
endfacet
facet normal 0.6371472477912903 0.7706161737442017 0.01393371354788542
  outer loop
    vertex 18.3280029296875 7.170001983642578 18.73592948913574
    vertex 16.30000305175781 9.002002716064453 10.14993000030518
    vertex 16.09800148010254 9.162002563476563 10.53792953491211
  endloop
endfacet
facet normal 0.6315242648124695 0.7751719951629639 0.0168974045664072
  outer loop
    vertex 14.77800178527832 10.21600151062012 8.849929809570313
    vertex 15.08200263977051 9.974002838134766 8.589929580688477
    vertex 13.23600196838379 11.50800132751465 7.209930419921875
  endloop
endfacet
facet normal -0.5084154009819031 -0.8568422794342041 0.08564531058073044
  outer loop
    vertex 12.06600189208984 5.168003082275391 18.73592948913574
    vertex 12.04000282287598 4.364002227783203 10.53792953491211
    vertex 20.37800216674805 0.2360000610351563 18.73592948913574
  endloop
endfacet
facet normal -0.6055679321289063 -0.7956735491752625 0.01382250059396029
  outer loop
    vertex 12.04000282287598 4.364002227783203 10.53792953491211
    vertex 12.2440013885498 4.202003479003906 10.14993000030518
    vertex 17.7340030670166 0 8.785929679870605
  endloop
endfacet
facet normal 0.6439698934555054 0.7650492787361145 0.00153800449334085
  outer loop
    vertex 14.50600242614746 10.43400192260742 9.693929672241211
    vertex 14.57600212097168 10.37600135803223 9.235929489135742
    vertex 13.23600196838379 11.50800132751465 7.209930419921875
  endloop
endfacet
facet normal -0.7642817497253418 -0.5862047076225281 0.268770307302475
  outer loop
    vertex 5.994003295898438 10.55000305175781 7.209930419921875
    vertex 10.12200164794922 5.168003082275391 7.209930419921875
    vertex 10.5200023651123 5.5780029296875 9.235929489135742
  endloop
endfacet
facet normal -0.5800195932388306 -0.81053227186203 0.08133064210414886
  outer loop
    vertex 12.06600189208984 5.168003082275391 18.73592948913574
    vertex 11.73800277709961 4.606002807617188 10.79592990875244
    vertex 12.04000282287598 4.364002227783203 10.53792953491211
  endloop
endfacet
facet normal 0.6484881639480591 0.7612040042877197 0.00561818340793252
  outer loop
    vertex 18.3280029296875 7.170001983642578 18.73592948913574
    vertex 15.43800163269043 9.69000244140625 10.88593006134033
    vertex 13.23600196838379 11.50800132751465 18.73592948913574
  endloop
endfacet
facet normal -0.006224835757166147 2.336594116059132e-05 0.999980628490448
  outer loop
    vertex 41.65600204467773 75.1300048828125 7.401930332183838
    vertex 34.61200332641602 81.61600494384766 7.357930183410645
    vertex 34.60200500488281 78.95200347900391 7.357930183410645
  endloop
endfacet
facet normal -0.003497241996228695 0.9999938607215881 -6.628096466397976e-21
  outer loop
    vertex 34.61200332641602 81.61600494384766 7.357930183410645
    vertex 44.33400344848633 81.65000915527344 0.2119299024343491
    vertex 34.61200332641602 81.61600494384766 0.2119299024343491
  endloop
endfacet
facet normal -0.003497241996228695 0.9999938607215881 -6.628096466397976e-21
  outer loop
    vertex 44.33400344848633 81.65000915527344 0.2119299024343491
    vertex 34.61200332641602 81.61600494384766 7.357930183410645
    vertex 44.33400344848633 81.65000915527344 7.357930183410645
  endloop
endfacet
facet normal 0.6489696502685547 0.7608089447021484 -0.002851591212674975
  outer loop
    vertex 14.57600212097168 10.37600135803223 10.14993000030518
    vertex 14.50600242614746 10.43400192260742 9.693929672241211
    vertex 13.23600196838379 11.50800132751465 7.209930419921875
  endloop
endfacet
facet normal -0.5363796949386597 -0.8324430584907532 -0.1390515267848969
  outer loop
    vertex 17.7340030670166 0 8.785929679870605
    vertex 10.12200164794922 5.168003082275391 7.209930419921875
    vertex 15.38400268554688 1.868000030517578 6.667930126190186
  endloop
endfacet
facet normal -5.132748992764391e-05 0.006804069504141808 0.9999768733978271
  outer loop
    vertex 41.65600204467773 75.1300048828125 7.401930332183838
    vertex 44.33400344848633 81.65000915527344 7.357930183410645
    vertex 34.61200332641602 81.61600494384766 7.357930183410645
  endloop
endfacet
facet normal -5.132748992764391e-05 0.006804069504141808 0.9999768733978271
  outer loop
    vertex 44.33400344848633 81.65000915527344 7.357930183410645
    vertex 41.65600204467773 75.1300048828125 7.401930332183838
    vertex 45.1300048828125 75.26400756835938 7.401930332183838
  endloop
endfacet
facet normal -0.1476756930351257 0.1248427405953407 0.9811249375343323
  outer loop
    vertex 11.73800277709961 4.606002807617188 8.589929580688477
    vertex 15.43800163269043 9.69000244140625 8.499929428100586
    vertex 11.38200187683105 4.890003204345703 8.499929428100586
  endloop
endfacet
facet normal -0.1476756930351257 0.1248427405953407 0.9811249375343323
  outer loop
    vertex 15.43800163269043 9.69000244140625 8.499929428100586
    vertex 11.73800277709961 4.606002807617188 8.589929580688477
    vertex 15.79600143432617 9.404001235961914 8.589929580688477
  endloop
endfacet
facet normal -0.4259000718593597 0.3602130115032196 0.8299733400344849
  outer loop
    vertex 12.04000282287598 4.364002227783203 8.849929809570313
    vertex 15.79600143432617 9.404001235961914 8.589929580688477
    vertex 11.73800277709961 4.606002807617188 8.589929580688477
  endloop
endfacet
facet normal -0.4259000718593597 0.3602130115032196 0.8299733400344849
  outer loop
    vertex 15.79600143432617 9.404001235961914 8.589929580688477
    vertex 12.04000282287598 4.364002227783203 8.849929809570313
    vertex 16.09800148010254 9.162002563476563 8.849929809570313
  endloop
endfacet
facet normal -0.7391385436058044 -0.6347962617874146 -0.2251840680837631
  outer loop
    vertex 6.588001251220703 10.55000305175781 3.637930154800415
    vertex 10.94400215148926 5.478000640869141 3.637930154800415
    vertex 10.12200164794922 5.168003082275391 7.209930419921875
  endloop
endfacet
facet normal -0.435297042131424 -0.8529012203216553 0.2882290482521057
  outer loop
    vertex 10.72200202941895 5.416000366210938 8.849929809570313
    vertex 10.12200164794922 5.168003082275391 7.209930419921875
    vertex 11.02400207519531 5.174003601074219 8.589929580688477
  endloop
endfacet
facet normal 0.9212072491645813 0.3890722095966339 -1.129107243681109e-17
  outer loop
    vertex 38.18200302124023 74.99400329589844 0.2579298913478851
    vertex 44.04000473022461 61.12400436401367 7.209930419921875
    vertex 44.04000473022461 61.12400436401367 0.06592988967895508
  endloop
endfacet
facet normal 0.9212072491645813 0.3890722095966339 -1.129107243681109e-17
  outer loop
    vertex 44.04000473022461 61.12400436401367 7.209930419921875
    vertex 38.18200302124023 74.99400329589844 0.2579298913478851
    vertex 38.18200302124023 74.99400329589844 7.401930332183838
  endloop
endfacet
facet normal 0 0 -1
  outer loop
    vertex 34.60200500488281 78.95200347900391 0.2119299024343491
    vertex 26.75600242614746 62.62400436401367 0.2119299024343491
    vertex 26.75600242614746 78.92800903320313 0.2119299024343491
  endloop
endfacet
facet normal 0 0 -1
  outer loop
    vertex 26.75600242614746 62.62400436401367 0.2119299024343491
    vertex 34.60200500488281 78.95200347900391 0.2119299024343491
    vertex 34.60200500488281 62.64800262451172 0.2119299024343491
  endloop
endfacet
facet normal 0 0 -1
  outer loop
    vertex 26.75600242614746 78.92800903320313 0.2119299024343491
    vertex 26.75600242614746 54.69600296020508 0.2119299024343491
    vertex 11.30600166320801 43.42200469970703 0.2119299024343491
  endloop
endfacet
facet normal 0 0 -1
  outer loop
    vertex 26.75600242614746 54.69600296020508 0.2119299024343491
    vertex 26.75600242614746 78.92800903320313 0.2119299024343491
    vertex 26.75600242614746 62.62400436401367 0.2119299024343491
  endloop
endfacet
facet normal 0.007692496757954359 -0.008601238019764423 0.9999334216117859
  outer loop
    vertex 27.0780029296875 40.32200241088867 7.209930419921875
    vertex 11.30600166320801 43.42200469970703 7.357930183410645
    vertex 11.12000274658203 26.05000305175781 7.209930419921875
  endloop
endfacet
facet normal 0.01754529029130936 6.925964140354835e-19 0.9998460412025452
  outer loop
    vertex 43.03600311279297 54.59200286865234 7.209930419921875
    vertex 34.60200500488281 62.64800262451172 7.357930183410645
    vertex 34.60200500488281 54.72000503540039 7.357930183410645
  endloop
endfacet
facet normal 0.01754529029130936 6.925964140354835e-19 0.9998460412025452
  outer loop
    vertex 34.60200500488281 62.64800262451172 7.357930183410645
    vertex 43.03600311279297 54.59200286865234 7.209930419921875
    vertex 34.60200500488281 78.95200347900391 7.357930183410645
  endloop
endfacet
facet normal -1 0 0
  outer loop
    vertex 34.60200500488281 62.64800262451172 7.357930183410645
    vertex 34.60200500488281 54.72000503540039 0.2119299024343491
    vertex 34.60200500488281 54.72000503540039 7.357930183410645
  endloop
endfacet
facet normal -1 0 0
  outer loop
    vertex 34.60200500488281 54.72000503540039 0.2119299024343491
    vertex 34.60200500488281 62.64800262451172 7.357930183410645
    vertex 34.60200500488281 62.64800262451172 0.2119299024343491
  endloop
endfacet
facet normal -0.003058890346437693 0.9999953508377075 0
  outer loop
    vertex 26.75600242614746 54.69600296020508 7.357930183410645
    vertex 34.60200500488281 54.72000503540039 0.2119299024343491
    vertex 26.75600242614746 54.69600296020508 0.2119299024343491
  endloop
endfacet
facet normal -0.003058890346437693 0.9999953508377075 0
  outer loop
    vertex 34.60200500488281 54.72000503540039 0.2119299024343491
    vertex 26.75600242614746 54.69600296020508 7.357930183410645
    vertex 34.60200500488281 54.72000503540039 7.357930183410645
  endloop
endfacet
facet normal 0.6789054870605469 0.7341456413269043 0.01083840429782867
  outer loop
    vertex 16.30000305175781 9.002002716064453 10.14993000030518
    vertex 18.3280029296875 7.170001983642578 7.209930419921875
    vertex 16.37000274658203 8.944002151489258 9.693929672241211
  endloop
endfacet
facet normal -0.5273615121841431 -0.7750740051269531 0.3480661511421204
  outer loop
    vertex 11.02400207519531 5.174003601074219 8.589929580688477
    vertex 10.12200164794922 5.168003082275391 7.209930419921875
    vertex 11.38200187683105 4.890003204345703 8.499929428100586
  endloop
endfacet
facet normal -0.01730829291045666 -6.925992574688392e-19 -0.9998502135276794
  outer loop
    vertex 43.03600311279297 54.59200286865234 0.06592988967895508
    vertex 34.60200500488281 62.64800262451172 0.2119299024343491
    vertex 34.60200500488281 78.95200347900391 0.2119299024343491
  endloop
endfacet
facet normal -0.01730829291045666 -6.925992574688392e-19 -0.9998502135276794
  outer loop
    vertex 34.60200500488281 62.64800262451172 0.2119299024343491
    vertex 43.03600311279297 54.59200286865234 0.06592988967895508
    vertex 34.60200500488281 54.72000503540039 0.2119299024343491
  endloop
endfacet
facet normal 3.149173062411137e-05 -0.01029510051012039 0.9999470114707947
  outer loop
    vertex 34.60200500488281 54.72000503540039 7.357930183410645
    vertex 26.75600242614746 54.69600296020508 7.357930183410645
    vertex 27.0780029296875 40.32200241088867 7.209930419921875
  endloop
endfacet
facet normal 0.6269884705543518 0.7787924408912659 0.01917959935963154
  outer loop
    vertex 18.3280029296875 7.170001983642578 18.73592948913574
    vertex 15.79600143432617 9.404001235961914 10.79592990875244
    vertex 15.43800163269043 9.69000244140625 10.88593006134033
  endloop
endfacet
facet normal -0.670045793056488 0.7423197627067566 0
  outer loop
    vertex 44.04000473022461 61.12400436401367 7.209930419921875
    vertex 50.18200302124023 66.66800689697266 0.06592988967895508
    vertex 44.04000473022461 61.12400436401367 0.06592988967895508
  endloop
endfacet
facet normal -0.670045793056488 0.7423197627067566 0
  outer loop
    vertex 50.18200302124023 66.66800689697266 0.06592988967895508
    vertex 44.04000473022461 61.12400436401367 7.209930419921875
    vertex 50.18200302124023 66.66800689697266 7.209930419921875
  endloop
endfacet
facet normal 0.003058890346437693 -0.9999953508377075 0
  outer loop
    vertex 34.60200500488281 62.64800262451172 7.357930183410645
    vertex 26.75600242614746 62.62400436401367 0.2119299024343491
    vertex 34.60200500488281 62.64800262451172 0.2119299024343491
  endloop
endfacet
facet normal 0.003058890346437693 -0.9999953508377075 0
  outer loop
    vertex 26.75600242614746 62.62400436401367 0.2119299024343491
    vertex 34.60200500488281 62.64800262451172 7.357930183410645
    vertex 26.75600242614746 62.62400436401367 7.357930183410645
  endloop
endfacet
facet normal -3.106626536464319e-05 0.01015600934624672 -0.9999484419822693
  outer loop
    vertex 34.60200500488281 54.72000503540039 0.2119299024343491
    vertex 27.0780029296875 40.32200241088867 0.06592988967895508
    vertex 26.75600242614746 54.69600296020508 0.2119299024343491
  endloop
endfacet
facet normal 0.007391913793981075 -0.01012995187193155 0.9999213814735413
  outer loop
    vertex 27.0780029296875 40.32200241088867 7.209930419921875
    vertex 26.75600242614746 54.69600296020508 7.357930183410645
    vertex 11.30600166320801 43.42200469970703 7.357930183410645
  endloop
endfacet
facet normal -0.6931175589561462 -0.7050417065620422 0.1500142216682434
  outer loop
    vertex 7.274002075195313 10.55000305175781 18.73592948913574
    vertex 10.72200202941895 5.416000366210938 10.53792953491211
    vertex 11.02400207519531 5.174003601074219 10.79592990875244
  endloop
endfacet
facet normal -0.0004202845739200711 0.01073597464710474 0.9999423027038574
  outer loop
    vertex 41.65600204467773 75.1300048828125 7.401930332183838
    vertex 34.60200500488281 78.95200347900391 7.357930183410645
    vertex 38.18200302124023 74.99400329589844 7.401930332183838
  endloop
endfacet
facet normal 1 0 0
  outer loop
    vertex 26.75600242614746 62.62400436401367 0.2119299024343491
    vertex 26.75600242614746 54.69600296020508 7.357930183410645
    vertex 26.75600242614746 54.69600296020508 0.2119299024343491
  endloop
endfacet
facet normal 1 0 0
  outer loop
    vertex 26.75600242614746 54.69600296020508 7.357930183410645
    vertex 26.75600242614746 62.62400436401367 0.2119299024343491
    vertex 26.75600242614746 62.62400436401367 7.357930183410645
  endloop
endfacet
facet normal 0 0 1
  outer loop
    vertex 26.75600242614746 54.69600296020508 7.357930183410645
    vertex 26.75600242614746 78.92800903320313 7.357930183410645
    vertex 11.30600166320801 43.42200469970703 7.357930183410645
  endloop
endfacet
facet normal 0 0 1
  outer loop
    vertex 26.75600242614746 78.92800903320313 7.357930183410645
    vertex 26.75600242614746 54.69600296020508 7.357930183410645
    vertex 26.75600242614746 62.62400436401367 7.357930183410645
  endloop
endfacet
facet normal 0 0 1
  outer loop
    vertex 26.75600242614746 78.92800903320313 7.357930183410645
    vertex 26.75600242614746 62.62400436401367 7.357930183410645
    vertex 34.60200500488281 62.64800262451172 7.357930183410645
  endloop
endfacet
facet normal 0 0 1
  outer loop
    vertex 26.75600242614746 78.92800903320313 7.357930183410645
    vertex 34.60200500488281 62.64800262451172 7.357930183410645
    vertex 34.60200500488281 78.95200347900391 7.357930183410645
  endloop
endfacet
facet normal -0.9507933259010315 -0.2314008474349976 -0.2060234993696213
  outer loop
    vertex 0.8080024719238281 26.05000305175781 3.637930154800415
    vertex 3.270000457763672 15.93400192260742 3.637930154800415
    vertex 0.03400039672851563 26.05000305175781 7.209930419921875
  endloop
endfacet
facet normal 0.3709553480148315 -0.5175723433494568 -0.7710453867912292
  outer loop
    vertex 23.24800300598145 3.952003479003906 8.785929679870605
    vertex 17.7340030670166 0 8.785929679870605
    vertex 20.97200202941895 5.476001739501953 6.667930126190186
  endloop
endfacet
facet normal -0.0516655221581459 -0.03563647344708443 0.9980283975601196
  outer loop
    vertex 44.04000473022461 61.12400436401367 7.209930419921875
    vertex 38.18200302124023 74.99400329589844 7.401930332183838
    vertex 34.60200500488281 78.95200347900391 7.357930183410645
  endloop
endfacet
facet normal -0.8168225288391113 -0.5428294539451599 -0.195287361741066
  outer loop
    vertex 3.270000457763672 15.93400192260742 3.637930154800415
    vertex 5.994003295898438 10.55000305175781 7.209930419921875
    vertex 2.416000366210938 15.93400192260742 7.209930419921875
  endloop
endfacet
facet normal 0 0 1
  outer loop
    vertex 2.416000366210938 15.93400192260742 7.209930419921875
    vertex 11.12000274658203 26.05000305175781 7.209930419921875
    vertex 0.03400039672851563 26.05000305175781 7.209930419921875
  endloop
endfacet
facet normal 0 0 1
  outer loop
    vertex 11.12000274658203 26.05000305175781 7.209930419921875
    vertex 2.416000366210938 15.93400192260742 7.209930419921875
    vertex 5.994003295898438 10.55000305175781 7.209930419921875
  endloop
endfacet
facet normal 0 0 1
  outer loop
    vertex 11.12000274658203 26.05000305175781 7.209930419921875
    vertex 5.994003295898438 10.55000305175781 7.209930419921875
    vertex 13.23600196838379 11.50800132751465 7.209930419921875
  endloop
endfacet
facet normal 0 0 1
  outer loop
    vertex 11.12000274658203 26.05000305175781 7.209930419921875
    vertex 13.23600196838379 11.50800132751465 7.209930419921875
    vertex 13.20200157165527 15.93400192260742 7.209930419921875
  endloop
endfacet
facet normal 0.9999704957008362 0.0076817418448627 -2.862315934175186e-21
  outer loop
    vertex 13.20200157165527 15.93400192260742 0.06592988967895508
    vertex 13.23600196838379 11.50800132751465 7.209930419921875
    vertex 13.23600196838379 11.50800132751465 0.06592988967895508
  endloop
endfacet
facet normal 0.9999704957008362 0.0076817418448627 -2.862315934175186e-21
  outer loop
    vertex 13.23600196838379 11.50800132751465 7.209930419921875
    vertex 13.20200157165527 15.93400192260742 0.06592988967895508
    vertex 13.20200157165527 15.93400192260742 7.209930419921875
  endloop
endfacet
facet normal 0.5399079322814941 0.8411171436309814 0.03195849433541298
  outer loop
    vertex 24.19200325012207 2.968002319335938 18.73592948913574
    vertex 23.24800300598145 3.952003479003906 8.785929679870605
    vertex 18.3280029296875 7.170001983642578 7.209930419921875
  endloop
endfacet
facet normal -0.9930276870727539 -0.07339441776275635 -0.09224563837051392
  outer loop
    vertex 0.66400146484375 38.26000213623047 0.2119299024343491
    vertex 1.580001831054688 26.05000305175781 0.06592988967895508
    vertex 0.332000732421875 38.26000213623047 3.785930156707764
  endloop
endfacet
facet normal 0 0 -1
  outer loop
    vertex 11.12000274658203 26.05000305175781 0.06592988967895508
    vertex 4.126003265380859 15.93400192260742 0.06592988967895508
    vertex 1.580001831054688 26.05000305175781 0.06592988967895508
  endloop
endfacet
facet normal 0 0 -1
  outer loop
    vertex 4.126003265380859 15.93400192260742 0.06592988967895508
    vertex 11.12000274658203 26.05000305175781 0.06592988967895508
    vertex 7.258003234863281 11.7400016784668 0.06592988967895508
  endloop
endfacet
facet normal 0 0 -1
  outer loop
    vertex 7.258003234863281 11.7400016784668 0.06592988967895508
    vertex 11.12000274658203 26.05000305175781 0.06592988967895508
    vertex 12.25400161743164 5.646003723144531 0.06592988967895508
  endloop
endfacet
facet normal 0 0 -1
  outer loop
    vertex 12.25400161743164 5.646003723144531 0.06592988967895508
    vertex 11.12000274658203 26.05000305175781 0.06592988967895508
    vertex 13.20200157165527 15.93400192260742 0.06592988967895508
  endloop
endfacet
facet normal 0 0 -1
  outer loop
    vertex 12.25400161743164 5.646003723144531 0.06592988967895508
    vertex 13.20200157165527 15.93400192260742 0.06592988967895508
    vertex 13.23600196838379 11.50800132751465 0.06592988967895508
  endloop
endfacet
facet normal 0 0 -1
  outer loop
    vertex 12.25400161743164 5.646003723144531 0.06592988967895508
    vertex 13.23600196838379 11.50800132751465 0.06592988967895508
    vertex 15.84600257873535 2.136001586914063 0.06592988967895508
  endloop
endfacet
facet normal 0 0 -1
  outer loop
    vertex 15.84600257873535 2.136001586914063 0.06592988967895508
    vertex 13.23600196838379 11.50800132751465 0.06592988967895508
    vertex 18.3280029296875 7.170001983642578 0.06592988967895508
  endloop
endfacet
facet normal 0 0 -1
  outer loop
    vertex 15.84600257873535 2.136001586914063 0.06592988967895508
    vertex 18.3280029296875 7.170001983642578 0.06592988967895508
    vertex 20.97200202941895 5.476001739501953 0.06592988967895508
  endloop
endfacet
facet normal -0.9491352438926697 -0.2388789504766464 -0.2051320672035217
  outer loop
    vertex 1.580001831054688 26.05000305175781 0.06592988967895508
    vertex 4.126003265380859 15.93400192260742 0.06592988967895508
    vertex 0.8080024719238281 26.05000305175781 3.637930154800415
  endloop
endfacet
facet normal -0.9950016736984253 -0.03766874223947525 -0.09248076379299164
  outer loop
    vertex 0.332000732421875 38.26000213623047 3.785930156707764
    vertex 0.8080024719238281 26.05000305175781 3.637930154800415
    vertex 0 38.26000213623047 7.357930183410645
  endloop
endfacet
facet normal -0.8429166078567505 -0.5194647908210754 -0.1401709765195847
  outer loop
    vertex 3.270000457763672 15.93400192260742 3.637930154800415
    vertex 6.588001251220703 10.55000305175781 3.637930154800415
    vertex 5.994003295898438 10.55000305175781 7.209930419921875
  endloop
endfacet
facet normal -0.9773192405700684 -0.0001545569393783808 -0.2117712944746017
  outer loop
    vertex 0 38.26000213623047 7.357930183410645
    vertex 0.8080024719238281 26.05000305175781 3.637930154800415
    vertex 0.03400039672851563 26.05000305175781 7.209930419921875
  endloop
endfacet
facet normal 0 -0.008519133552908897 0.9999637007713318
  outer loop
    vertex 11.30600166320801 43.42200469970703 7.357930183410645
    vertex 0.03400039672851563 26.05000305175781 7.209930419921875
    vertex 11.12000274658203 26.05000305175781 7.209930419921875
  endloop
endfacet
facet normal -0.4256461262702942 0.904889702796936 0
  outer loop
    vertex 11.30600166320801 43.42200469970703 3.785930156707764
    vertex 11.30600166320801 43.42200469970703 0.2119299024343491
    vertex 0.332000732421875 38.26000213623047 3.785930156707764
  endloop
endfacet
facet normal 0.3239853978157043 -0.5017819404602051 -0.8020276427268982
  outer loop
    vertex 20.97200202941895 5.476001739501953 6.667930126190186
    vertex 17.7340030670166 0 8.785929679870605
    vertex 15.38400268554688 1.868000030517578 6.667930126190186
  endloop
endfacet
facet normal 0.5771963000297546 -0.8054785132408142 -0.1343456655740738
  outer loop
    vertex 24.19200325012207 2.968002319335938 18.73592948913574
    vertex 17.7340030670166 0 8.785929679870605
    vertex 23.24800300598145 3.952003479003906 8.785929679870605
  endloop
endfacet
facet normal 0.5771963000297546 -0.8054785132408142 -0.1343456655740738
  outer loop
    vertex 17.7340030670166 0 8.785929679870605
    vertex 24.19200325012207 2.968002319335938 18.73592948913574
    vertex 20.37800216674805 0.2360000610351563 18.73592948913574
  endloop
endfacet
facet normal 0.05270770564675331 0.03607567399740219 -0.9979581236839294
  outer loop
    vertex 44.04000473022461 61.12400436401367 0.06592988967895508
    vertex 34.60200500488281 78.95200347900391 0.2119299024343491
    vertex 38.18200302124023 74.99400329589844 0.2579298913478851
  endloop
endfacet
facet normal -0.01198770385235548 0.001842568512074649 -0.9999264478683472
  outer loop
    vertex 44.04000473022461 61.12400436401367 0.06592988967895508
    vertex 43.03600311279297 54.59200286865234 0.06592988967895508
    vertex 34.60200500488281 78.95200347900391 0.2119299024343491
  endloop
endfacet
facet normal 0.9794705510139465 0.2015872150659561 0
  outer loop
    vertex 11.12000274658203 26.05000305175781 0.06592988967895508
    vertex 13.20200157165527 15.93400192260742 7.209930419921875
    vertex 13.20200157165527 15.93400192260742 0.06592988967895508
  endloop
endfacet
facet normal 0.9794705510139465 0.2015872150659561 0
  outer loop
    vertex 13.20200157165527 15.93400192260742 7.209930419921875
    vertex 11.12000274658203 26.05000305175781 0.06592988967895508
    vertex 11.12000274658203 26.05000305175781 7.209930419921875
  endloop
endfacet
facet normal 0.5424284338951111 -0.8401020169258118 0
  outer loop
    vertex 15.38400268554688 1.868000030517578 6.667930126190186
    vertex 20.97200202941895 5.476001739501953 0.06592988967895508
    vertex 20.97200202941895 5.476001739501953 6.667930126190186
  endloop
endfacet
facet normal -0.7494856715202332 0.6333157420158386 -0.1928272694349289
  outer loop
    vertex 16.30000305175781 9.002002716064453 10.14993000030518
    vertex 12.31400108337402 4.146003723144531 9.693929672241211
    vertex 12.2440013885498 4.202003479003906 10.14993000030518
  endloop
endfacet
facet normal -0.6351257562637329 0.5371695160865784 0.5550352931022644
  outer loop
    vertex 16.09800148010254 9.162002563476563 8.849929809570313
    vertex 12.04000282287598 4.364002227783203 8.849929809570313
    vertex 16.30000305175781 9.002002716064453 9.235929489135742
  endloop
endfacet
facet normal 0.5459139943122864 -0.8378307223320007 0.004191496409475803
  outer loop
    vertex 15.38400268554688 1.868000030517578 6.667930126190186
    vertex 15.84600257873535 2.136001586914063 0.06592988967895508
    vertex 20.97200202941895 5.476001739501953 0.06592988967895508
  endloop
endfacet
facet normal -0.005595943424850702 0.01153661869466305 -0.9999178051948547
  outer loop
    vertex 11.30600166320801 43.42200469970703 0.2119299024343491
    vertex 1.580001831054688 26.05000305175781 0.06592988967895508
    vertex 0.66400146484375 38.26000213623047 0.2119299024343491
  endloop
endfacet
facet normal 0.7489024996757507 -0.6331107020378113 -0.195744514465332
  outer loop
    vertex 10.44800186157227 5.634002685546875 9.693929672241211
    vertex 14.57600212097168 10.37600135803223 10.14993000030518
    vertex 10.5200023651123 5.5780029296875 10.14993000030518
  endloop
endfacet
facet normal 0.7489024996757507 -0.6331107020378113 -0.195744514465332
  outer loop
    vertex 14.57600212097168 10.37600135803223 10.14993000030518
    vertex 10.44800186157227 5.634002685546875 9.693929672241211
    vertex 14.50600242614746 10.43400192260742 9.693929672241211
  endloop
endfacet
facet normal -0.425313413143158 0.9041823744773865 -0.03953089565038681
  outer loop
    vertex 0 38.26000213623047 7.357930183410645
    vertex 11.30600166320801 43.42200469970703 3.785930156707764
    vertex 0.332000732421875 38.26000213623047 3.785930156707764
  endloop
endfacet
facet normal -0.131127342581749 0.9912585616111755 0.01456210669130087
  outer loop
    vertex 7.274002075195313 10.55000305175781 18.73592948913574
    vertex 13.23600196838379 11.50800132751465 7.209930419921875
    vertex 5.994003295898438 10.55000305175781 7.209930419921875
  endloop
endfacet
facet normal 0.0121518736705184 -0.00186780234798789 0.9999244213104248
  outer loop
    vertex 44.04000473022461 61.12400436401367 7.209930419921875
    vertex 34.60200500488281 78.95200347900391 7.357930183410645
    vertex 43.03600311279297 54.59200286865234 7.209930419921875
  endloop
endfacet
facet normal -0.4153299331665039 0.9096708297729492 1.510218055051545e-16
  outer loop
    vertex 11.30600166320801 43.42200469970703 7.357930183410645
    vertex 11.30600166320801 43.42200469970703 3.785930156707764
    vertex 0 38.26000213623047 7.357930183410645
  endloop
endfacet
facet normal -0.6363722681999207 0.5377348661422729 -0.5530565977096558
  outer loop
    vertex 16.09800148010254 9.162002563476563 10.53792953491211
    vertex 16.30000305175781 9.002002716064453 10.14993000030518
    vertex 12.2440013885498 4.202003479003906 10.14993000030518
  endloop
endfacet
facet normal 0 0 1
  outer loop
    vertex 12.06600189208984 5.168003082275391 18.73592948913574
    vertex 13.23600196838379 11.50800132751465 18.73592948913574
    vertex 7.274002075195313 10.55000305175781 18.73592948913574
  endloop
endfacet
facet normal 0 0 1
  outer loop
    vertex 13.23600196838379 11.50800132751465 18.73592948913574
    vertex 12.06600189208984 5.168003082275391 18.73592948913574
    vertex 20.37800216674805 0.2360000610351563 18.73592948913574
  endloop
endfacet
facet normal 0 0 1
  outer loop
    vertex 13.23600196838379 11.50800132751465 18.73592948913574
    vertex 20.37800216674805 0.2360000610351563 18.73592948913574
    vertex 18.3280029296875 7.170001983642578 18.73592948913574
  endloop
endfacet
facet normal 0 0 1
  outer loop
    vertex 18.3280029296875 7.170001983642578 18.73592948913574
    vertex 20.37800216674805 0.2360000610351563 18.73592948913574
    vertex 24.19200325012207 2.968002319335938 18.73592948913574
  endloop
endfacet
facet normal 0.6363735795021057 -0.5377355217933655 -0.5530543923377991
  outer loop
    vertex 14.57600212097168 10.37600135803223 10.14993000030518
    vertex 14.77800178527832 10.21600151062012 10.53792953491211
    vertex 10.72200202941895 5.416000366210938 10.53792953491211
  endloop
endfacet
facet normal -0.6340060830116272 0.536222517490387 -0.5572267174720764
  outer loop
    vertex 16.09800148010254 9.162002563476563 10.53792953491211
    vertex 12.2440013885498 4.202003479003906 10.14993000030518
    vertex 12.04000282287598 4.364002227783203 10.53792953491211
  endloop
endfacet
facet normal -0.7492063045501709 0.6330796480178833 0.1946793794631958
  outer loop
    vertex 16.30000305175781 9.002002716064453 9.235929489135742
    vertex 12.2440013885498 4.202003479003906 9.235929489135742
    vertex 16.37000274658203 8.944002151489258 9.693929672241211
  endloop
endfacet
facet normal -0.4236353039741516 0.35829758644104 -0.8319591283798218
  outer loop
    vertex 15.79600143432617 9.404001235961914 10.79592990875244
    vertex 12.04000282287598 4.364002227783203 10.53792953491211
    vertex 11.73800277709961 4.606002807617188 10.79592990875244
  endloop
endfacet
facet normal -0.4236353039741516 0.35829758644104 -0.8319591283798218
  outer loop
    vertex 12.04000282287598 4.364002227783203 10.53792953491211
    vertex 15.79600143432617 9.404001235961914 10.79592990875244
    vertex 16.09800148010254 9.162002563476563 10.53792953491211
  endloop
endfacet
facet normal -0.4360688030719757 0.8990011811256409 -0.04050787538290024
  outer loop
    vertex 0.332000732421875 38.26000213623047 3.785930156707764
    vertex 11.30600166320801 43.42200469970703 0.2119299024343491
    vertex 0.66400146484375 38.26000213623047 0.2119299024343491
  endloop
endfacet
facet normal -0.7866597175598145 -0.6033686399459839 -0.1308158487081528
  outer loop
    vertex 6.588001251220703 10.55000305175781 3.637930154800415
    vertex 10.12200164794922 5.168003082275391 7.209930419921875
    vertex 5.994003295898438 10.55000305175781 7.209930419921875
  endloop
endfacet
facet normal -0.9463229775428772 -0.2303128689527512 -0.2267791330814362
  outer loop
    vertex 0.8080024719238281 26.05000305175781 3.637930154800415
    vertex 4.126003265380859 15.93400192260742 0.06592988967895508
    vertex 3.270000457763672 15.93400192260742 3.637930154800415
  endloop
endfacet
facet normal 3.69671358448164e-18 0.008404032327234745 -0.999964714050293
  outer loop
    vertex 11.30600166320801 43.42200469970703 0.2119299024343491
    vertex 11.12000274658203 26.05000305175781 0.06592988967895508
    vertex 1.580001831054688 26.05000305175781 0.06592988967895508
  endloop
endfacet
facet normal 0.6352556943893433 -0.5370149612426758 0.5550361275672913
  outer loop
    vertex 14.57600212097168 10.37600135803223 9.235929489135742
    vertex 10.5200023651123 5.5780029296875 9.235929489135742
    vertex 14.77800178527832 10.21600151062012 8.849929809570313
  endloop
endfacet
facet normal -0.7563417553901672 -0.564821720123291 -0.3300356864929199
  outer loop
    vertex 4.126003265380859 15.93400192260742 0.06592988967895508
    vertex 7.258003234863281 11.7400016784668 0.06592988967895508
    vertex 6.588001251220703 10.55000305175781 3.637930154800415
  endloop
endfacet
facet normal 0.4237939417362213 -0.3581057786941528 -0.831960916519165
  outer loop
    vertex 14.77800178527832 10.21600151062012 10.53792953491211
    vertex 11.02400207519531 5.174003601074219 10.79592990875244
    vertex 10.72200202941895 5.416000366210938 10.53792953491211
  endloop
endfacet
facet normal -0.7489514350891113 0.6331282258033752 -0.1955002248287201
  outer loop
    vertex 16.30000305175781 9.002002716064453 10.14993000030518
    vertex 16.37000274658203 8.944002151489258 9.693929672241211
    vertex 12.31400108337402 4.146003723144531 9.693929672241211
  endloop
endfacet
facet normal -0.6332230567932129 0.5350738167762756 0.5592178106307983
  outer loop
    vertex 16.30000305175781 9.002002716064453 9.235929489135742
    vertex 12.04000282287598 4.364002227783203 8.849929809570313
    vertex 12.2440013885498 4.202003479003906 9.235929489135742
  endloop
endfacet
facet normal 0.5824700593948364 0.812852144241333 -2.408977749295114e-17
  outer loop
    vertex 24.19200325012207 2.968002319335938 18.73592948913574
    vertex 18.3280029296875 7.170001983642578 7.209930419921875
    vertex 18.3280029296875 7.170001983642578 18.73592948913574
  endloop
endfacet
facet normal 0.3058969676494598 -0.9520646333694458 0
  outer loop
    vertex 50.18200302124023 56.88800430297852 7.209930419921875
    vertex 43.03600311279297 54.59200286865234 0.06592988967895508
    vertex 50.18200302124023 56.88800430297852 0.06592988967895508
  endloop
endfacet
facet normal 0.3058969676494598 -0.9520646333694458 0
  outer loop
    vertex 43.03600311279297 54.59200286865234 0.06592988967895508
    vertex 50.18200302124023 56.88800430297852 7.209930419921875
    vertex 43.03600311279297 54.59200286865234 7.209930419921875
  endloop
endfacet
facet normal -0.7139264345169067 -0.613143265247345 -0.3381779789924622
  outer loop
    vertex 7.258003234863281 11.7400016784668 0.06592988967895508
    vertex 10.94400215148926 5.478000640869141 3.637930154800415
    vertex 6.588001251220703 10.55000305175781 3.637930154800415
  endloop
endfacet
facet normal 0.634382426738739 -0.536052942276001 0.5569615960121155
  outer loop
    vertex 14.77800178527832 10.21600151062012 8.849929809570313
    vertex 10.5200023651123 5.5780029296875 9.235929489135742
    vertex 10.72200202941895 5.416000366210938 8.849929809570313
  endloop
endfacet
facet normal 0.9923208355903625 0.1236904487013817 -3.584952798329294e-18
  outer loop
    vertex 44.33400344848633 81.65000915527344 0.2119299024343491
    vertex 45.1300048828125 75.26400756835938 7.401930332183838
    vertex 45.1300048828125 75.26400756835938 0.2579298913478851
  endloop
endfacet
facet normal 0.9923208355903625 0.1236904487013817 -3.584952798329294e-18
  outer loop
    vertex 45.1300048828125 75.26400756835938 7.401930332183838
    vertex 44.33400344848633 81.65000915527344 0.2119299024343491
    vertex 44.33400344848633 81.65000915527344 7.357930183410645
  endloop
endfacet
facet normal 0 0 1
  outer loop
    vertex 50.18200302124023 56.88800430297852 7.209930419921875
    vertex 44.04000473022461 61.12400436401367 7.209930419921875
    vertex 43.03600311279297 54.59200286865234 7.209930419921875
  endloop
endfacet
facet normal 0 0 1
  outer loop
    vertex 44.04000473022461 61.12400436401367 7.209930419921875
    vertex 50.18200302124023 56.88800430297852 7.209930419921875
    vertex 50.18200302124023 66.66800689697266 7.209930419921875
  endloop
endfacet
facet normal 0.6352870464324951 -0.5370414853096008 -0.5549745559692383
  outer loop
    vertex 14.57600212097168 10.37600135803223 10.14993000030518
    vertex 10.72200202941895 5.416000366210938 10.53792953491211
    vertex 10.5200023651123 5.5780029296875 10.14993000030518
  endloop
endfacet
facet normal 0.005526676774024963 -0.01210472919046879 0.9999114871025085
  outer loop
    vertex 11.30600166320801 43.42200469970703 7.357930183410645
    vertex 0 38.26000213623047 7.357930183410645
    vertex 0.03400039672851563 26.05000305175781 7.209930419921875
  endloop
endfacet
facet normal -0.9768157005310059 -0.03552178665995598 -0.2111145108938217
  outer loop
    vertex 0.332000732421875 38.26000213623047 3.785930156707764
    vertex 1.580001831054688 26.05000305175781 0.06592988967895508
    vertex 0.8080024719238281 26.05000305175781 3.637930154800415
  endloop
endfacet
facet normal 0.1478905975818634 -0.1249983981251717 -0.9810727834701538
  outer loop
    vertex 15.08200263977051 9.974002838134766 10.79592990875244
    vertex 11.38200187683105 4.890003204345703 10.88593006134033
    vertex 11.02400207519531 5.174003601074219 10.79592990875244
  endloop
endfacet
facet normal 0.1478905975818634 -0.1249983981251717 -0.9810727834701538
  outer loop
    vertex 11.38200187683105 4.890003204345703 10.88593006134033
    vertex 15.08200263977051 9.974002838134766 10.79592990875244
    vertex 15.43800163269043 9.69000244140625 10.88593006134033
  endloop
endfacet
facet normal -0.9480459690093994 -0.2232349961996078 -0.2266604900360107
  outer loop
    vertex 0.03400039672851563 26.05000305175781 7.209930419921875
    vertex 3.270000457763672 15.93400192260742 3.637930154800415
    vertex 2.416000366210938 15.93400192260742 7.209930419921875
  endloop
endfacet
facet normal 0.6484984159469604 0.7612159848213196 -1.669254777471195e-17
  outer loop
    vertex 13.23600196838379 11.50800132751465 7.209930419921875
    vertex 18.3280029296875 7.170001983642578 0.06592988967895508
    vertex 13.23600196838379 11.50800132751465 0.06592988967895508
  endloop
endfacet
facet normal 0.6484984159469604 0.7612159848213196 -1.669254777471195e-17
  outer loop
    vertex 18.3280029296875 7.170001983642578 0.06592988967895508
    vertex 13.23600196838379 11.50800132751465 7.209930419921875
    vertex 18.3280029296875 7.170001983642578 7.209930419921875
  endloop
endfacet
facet normal 0.4225518703460693 -0.3572325110435486 -0.8329675197601318
  outer loop
    vertex 15.08200263977051 9.974002838134766 10.79592990875244
    vertex 11.02400207519531 5.174003601074219 10.79592990875244
    vertex 14.77800178527832 10.21600151062012 10.53792953491211
  endloop
endfacet
facet normal -0.7494770884513855 0.6335725784301758 0.1920153796672821
  outer loop
    vertex 16.37000274658203 8.944002151489258 9.693929672241211
    vertex 12.2440013885498 4.202003479003906 9.235929489135742
    vertex 12.31400108337402 4.146003723144531 9.693929672241211
  endloop
endfacet
facet normal 0 0 -1
  outer loop
    vertex 44.04000473022461 61.12400436401367 0.06592988967895508
    vertex 50.18200302124023 56.88800430297852 0.06592988967895508
    vertex 43.03600311279297 54.59200286865234 0.06592988967895508
  endloop
endfacet
facet normal 0 0 -1
  outer loop
    vertex 50.18200302124023 56.88800430297852 0.06592988967895508
    vertex 44.04000473022461 61.12400436401367 0.06592988967895508
    vertex 50.18200302124023 66.66800689697266 0.06592988967895508
  endloop
endfacet
facet normal -0.1586489975452423 0.9873350262641907 -7.076684823165699e-18
  outer loop
    vertex 13.23600196838379 11.50800132751465 18.73592948913574
    vertex 13.23600196838379 11.50800132751465 7.209930419921875
    vertex 7.274002075195313 10.55000305175781 18.73592948913574
  endloop
endfacet
facet normal -0.7379364967346191 -0.6049771904945374 -0.2990857660770416
  outer loop
    vertex 7.258003234863281 11.7400016784668 0.06592988967895508
    vertex 12.25400161743164 5.646003723144531 0.06592988967895508
    vertex 10.94400215148926 5.478000640869141 3.637930154800415
  endloop
endfacet
facet normal -0.1476756930351257 0.1248427405953407 -0.9811249375343323
  outer loop
    vertex 15.43800163269043 9.69000244140625 10.88593006134033
    vertex 11.73800277709961 4.606002807617188 10.79592990875244
    vertex 11.38200187683105 4.890003204345703 10.88593006134033
  endloop
endfacet
facet normal -0.1476756930351257 0.1248427405953407 -0.9811249375343323
  outer loop
    vertex 11.73800277709961 4.606002807617188 10.79592990875244
    vertex 15.43800163269043 9.69000244140625 10.88593006134033
    vertex 15.79600143432617 9.404001235961914 10.79592990875244
  endloop
endfacet
facet normal 1 0 0
  outer loop
    vertex 50.18200302124023 66.66800689697266 0.06592988967895508
    vertex 50.18200302124023 56.88800430297852 7.209930419921875
    vertex 50.18200302124023 56.88800430297852 0.06592988967895508
  endloop
endfacet
facet normal 1 0 0
  outer loop
    vertex 50.18200302124023 56.88800430297852 7.209930419921875
    vertex 50.18200302124023 66.66800689697266 0.06592988967895508
    vertex 50.18200302124023 66.66800689697266 7.209930419921875
  endloop
endfacet
facet normal 0.7490275502204895 -0.6332164406776428 0.1949223428964615
  outer loop
    vertex 14.57600212097168 10.37600135803223 9.235929489135742
    vertex 10.44800186157227 5.634002685546875 9.693929672241211
    vertex 10.5200023651123 5.5780029296875 9.235929489135742
  endloop
endfacet
facet normal 0.7490275502204895 -0.6332164406776428 0.1949223428964615
  outer loop
    vertex 10.44800186157227 5.634002685546875 9.693929672241211
    vertex 14.57600212097168 10.37600135803223 9.235929489135742
    vertex 14.50600242614746 10.43400192260742 9.693929672241211
  endloop
endfacet
facet normal -0.8341394662857056 -0.5140557289123535 -0.1998952031135559
  outer loop
    vertex 4.126003265380859 15.93400192260742 0.06592988967895508
    vertex 6.588001251220703 10.55000305175781 3.637930154800415
    vertex 3.270000457763672 15.93400192260742 3.637930154800415
  endloop
endfacet
endsolid 9717
