solid C7F9
facet normal 0.6375659704208374 -0.7659773826599121 0.08239103108644485
  outer loop
    vertex 118.5880126953125 5.287538528442383 18.73592948913574
    vertex 119.272087097168 5.012558460235596 10.88593006134033
    vertex 119.6276321411133 5.298820018768311 10.79592990875244
  endloop
endfacet
facet normal -0.0003505429485812783 0.9999999403953552 -5.724444699349737e-18
  outer loop
    vertex 86.02754211425781 81.64637756347656 7.357930183410645
    vertex 95.75003051757813 81.6497802734375 0.2119299024343491
    vertex 86.02754211425781 81.64637756347656 0.2119299024343491
  endloop
endfacet
facet normal -0.0003505429485812783 0.9999999403953552 -5.724444699349737e-18
  outer loop
    vertex 95.75003051757813 81.6497802734375 0.2119299024343491
    vertex 86.02754211425781 81.64637756347656 7.357930183410645
    vertex 95.75003051757813 81.6497802734375 7.357930183410645
  endloop
endfacet
facet normal 0.6106570959091187 -0.7918938398361206 -0.001426140777766705
  outer loop
    vertex 118.3421936035156 4.265803337097168 9.693929672241211
    vertex 112.9377899169922 0.0999116376042366 8.785929679870605
    vertex 118.4141693115234 4.322126865386963 9.235929489135742
  endloop
endfacet
facet normal 0.532007098197937 -0.7708963751792908 0.3502673804759979
  outer loop
    vertex 119.6276321411133 5.298820018768311 8.589929580688477
    vertex 119.272087097168 5.012558460235596 8.499929428100586
    vertex 120.5315399169922 5.295598030090332 7.209930419921875
  endloop
endfacet
facet normal 0.0005660137394443154 -0.9999998211860657 0
  outer loop
    vertex 103.677978515625 62.68790054321289 7.357930183410645
    vertex 95.83242797851563 62.6834602355957 0.2119299024343491
    vertex 103.677978515625 62.68790054321289 0.2119299024343491
  endloop
endfacet
facet normal 0.0005660137394443154 -0.9999998211860657 0
  outer loop
    vertex 95.83242797851563 62.6834602355957 0.2119299024343491
    vertex 103.677978515625 62.68790054321289 7.357930183410645
    vertex 95.83242797851563 62.6834602355957 7.357930183410645
  endloop
endfacet
facet normal -0.6509791016578674 0.7583363056182861 -0.03394584730267525
  outer loop
    vertex 115.1970596313477 9.796782493591309 8.499929428100586
    vertex 117.3927154541016 11.62385272979736 7.209930419921875
    vertex 112.3166427612305 7.266395092010498 7.209930419921875
  endloop
endfacet
facet normal 0.01694219745695591 0.01908957399427891 -0.9996742010116577
  outer loop
    vertex 103.4412384033203 40.38349151611328 0.06592988967895508
    vertex 87.42903137207031 54.5944938659668 0.06592988967895508
    vertex 95.86236572265625 54.75548553466797 0.2119299024343491
  endloop
endfacet
facet normal -0.007353645749390125 -0.01015566196292639 0.9999213814735413
  outer loop
    vertex 119.2008895874023 43.54401779174805 7.357930183410645
    vertex 103.7088775634766 54.76168060302734 7.357930183410645
    vertex 103.4412384033203 40.38349151611328 7.209930419921875
  endloop
endfacet
facet normal -0.000789495010394603 0.9999997019767761 -7.501997893981734e-32
  outer loop
    vertex 95.86236572265625 54.75548553466797 7.357930183410645
    vertex 103.7088775634766 54.76168060302734 0.2119299024343491
    vertex 95.86236572265625 54.75548553466797 0.2119299024343491
  endloop
endfacet
facet normal -0.000789495010394603 0.9999997019767761 -7.501997893981734e-32
  outer loop
    vertex 103.7088775634766 54.76168060302734 0.2119299024343491
    vertex 95.86236572265625 54.75548553466797 7.357930183410645
    vertex 103.7088775634766 54.76168060302734 7.357930183410645
  endloop
endfacet
facet normal 8.126242391881533e-06 -0.01029295939952135 0.9999470114707947
  outer loop
    vertex 103.7088775634766 54.76168060302734 7.357930183410645
    vertex 95.86236572265625 54.75548553466797 7.357930183410645
    vertex 103.4412384033203 40.38349151611328 7.209930419921875
  endloop
endfacet
facet normal 0.7515393495559692 -0.6588647365570068 0.03295254707336426
  outer loop
    vertex 124.6368789672852 10.6944408416748 7.209930419921875
    vertex 120.1327209472656 5.70378303527832 10.14993000030518
    vertex 120.2029418945313 5.761068820953369 9.693929672241211
  endloop
endfacet
facet normal -0.6494814157485962 0.758988082408905 -0.04594625532627106
  outer loop
    vertex 114.5395431518555 9.267860412597656 8.849929809570313
    vertex 114.8415145874023 9.510520935058594 8.589929580688477
    vertex 112.3166427612305 7.266395092010498 7.209930419921875
  endloop
endfacet
facet normal 0.57539963722229 -0.7277889251708984 0.3731468319892883
  outer loop
    vertex 112.9377899169922 0.0999116376042366 8.785929679870605
    vertex 120.5315399169922 5.295598030090332 7.209930419921875
    vertex 118.9165344238281 4.726297855377197 8.589929580688477
  endloop
endfacet
facet normal -0.6558141708374023 0.7548972964286804 -0.006148282904177904
  outer loop
    vertex 116.0576934814453 10.48800659179688 10.14993000030518
    vertex 117.3927154541016 11.62385272979736 7.209930419921875
    vertex 116.1279144287109 10.54529285430908 9.693929672241211
  endloop
endfacet
facet normal 0.999992847442627 0.003775544464588165 -1.508542698362233e-31
  outer loop
    vertex 95.83242797851563 62.6834602355957 0.2119299024343491
    vertex 95.86236572265625 54.75548553466797 7.357930183410645
    vertex 95.86236572265625 54.75548553466797 0.2119299024343491
  endloop
endfacet
facet normal 0.999992847442627 0.003775544464588165 -1.508542698362233e-31
  outer loop
    vertex 95.86236572265625 54.75548553466797 7.357930183410645
    vertex 95.83242797851563 62.6834602355957 0.2119299024343491
    vertex 95.83242797851563 62.6834602355957 7.357930183410645
  endloop
endfacet
facet normal -0.03511001914739609 -0.9993834495544434 2.007146874217225e-16
  outer loop
    vertex 92.20521545410156 75.014892578125 7.401930332183838
    vertex 85.25797271728516 75.25895690917969 0.2579298913478851
    vertex 92.20521545410156 75.014892578125 0.2579298913478851
  endloop
endfacet
facet normal -0.03511001914739609 -0.9993834495544434 2.007146874217225e-16
  outer loop
    vertex 85.25797271728516 75.25895690917969 0.2579298913478851
    vertex 92.20521545410156 75.014892578125 7.401930332183838
    vertex 85.25797271728516 75.25895690917969 7.401930332183838
  endloop
endfacet
facet normal -0.03511001914739609 -0.9993834495544434 2.007146874217225e-16
  outer loop
    vertex 85.25797271728516 75.25895690917969 7.401930332183838
    vertex 92.20521545410156 75.014892578125 7.401930332183838
    vertex 88.73159027099609 75.13692474365234 7.401930332183838
  endloop
endfacet
facet normal 0.6112354397773743 -0.7913291454315186 -0.01376333180814981
  outer loop
    vertex 118.4141693115234 4.322126865386963 9.235929489135742
    vertex 112.9377899169922 0.0999116376042366 8.785929679870605
    vertex 118.6145706176758 4.483636856079102 8.849929809570313
  endloop
endfacet
facet normal -8.016453648451716e-06 0.01015389617532492 -0.9999484419822693
  outer loop
    vertex 103.7088775634766 54.76168060302734 0.2119299024343491
    vertex 103.4412384033203 40.38349151611328 0.06592988967895508
    vertex 95.86236572265625 54.75548553466797 0.2119299024343491
  endloop
endfacet
facet normal 0.9999696016311646 0.007796946447342634 1.227980969480185e-17
  outer loop
    vertex 95.75003051757813 81.6497802734375 0.2119299024343491
    vertex 95.77081298828125 78.9852294921875 7.357930183410645
    vertex 95.77081298828125 78.9852294921875 0.2119299024343491
  endloop
endfacet
facet normal 0.9999696016311646 0.007796946447342634 1.227980969480185e-17
  outer loop
    vertex 95.77081298828125 78.9852294921875 7.357930183410645
    vertex 95.75003051757813 81.6497802734375 0.2119299024343491
    vertex 95.75003051757813 81.6497802734375 7.357930183410645
  endloop
endfacet
facet normal 0 0 -1
  outer loop
    vertex 103.6173248291016 78.99142456054688 0.2119299024343491
    vertex 95.83242797851563 62.6834602355957 0.2119299024343491
    vertex 95.77081298828125 78.9852294921875 0.2119299024343491
  endloop
endfacet
facet normal 0 0 -1
  outer loop
    vertex 95.83242797851563 62.6834602355957 0.2119299024343491
    vertex 103.6173248291016 78.99142456054688 0.2119299024343491
    vertex 103.677978515625 62.68790054321289 0.2119299024343491
  endloop
endfacet
facet normal 0 0 -1
  outer loop
    vertex 103.677978515625 62.68790054321289 0.2119299024343491
    vertex 103.6173248291016 78.99142456054688 0.2119299024343491
    vertex 119.2008895874023 43.54401779174805 0.2119299024343491
  endloop
endfacet
facet normal 0 0 -1
  outer loop
    vertex 103.677978515625 62.68790054321289 0.2119299024343491
    vertex 119.2008895874023 43.54401779174805 0.2119299024343491
    vertex 103.7088775634766 54.76168060302734 0.2119299024343491
  endloop
endfacet
facet normal -0.9999924302101135 -0.003897808492183685 0
  outer loop
    vertex 103.677978515625 62.68790054321289 7.357930183410645
    vertex 103.7088775634766 54.76168060302734 0.2119299024343491
    vertex 103.7088775634766 54.76168060302734 7.357930183410645
  endloop
endfacet
facet normal -0.9999924302101135 -0.003897808492183685 0
  outer loop
    vertex 103.7088775634766 54.76168060302734 0.2119299024343491
    vertex 103.677978515625 62.68790054321289 7.357930183410645
    vertex 103.677978515625 62.68790054321289 0.2119299024343491
  endloop
endfacet
facet normal -0.5427133440971375 0.8399179577827454 -1.575664915988985e-17
  outer loop
    vertex 109.6799545288086 5.562698364257813 6.667930126190186
    vertex 112.3166427612305 7.266395092010498 0.06592988967895508
    vertex 109.6799545288086 5.562698364257813 0.06592988967895508
  endloop
endfacet
facet normal -0.5427133440971375 0.8399179577827454 -1.575664915988985e-17
  outer loop
    vertex 112.3166427612305 7.266395092010498 0.06592988967895508
    vertex 109.6799545288086 5.562698364257813 6.667930126190186
    vertex 112.3166427612305 7.266395092010498 7.209930419921875
  endloop
endfacet
facet normal 0.006224065087735653 4.853017526329495e-05 0.999980628490448
  outer loop
    vertex 95.77081298828125 78.9852294921875 7.357930183410645
    vertex 95.75003051757813 81.6497802734375 7.357930183410645
    vertex 88.73159027099609 75.13692474365234 7.401930332183838
  endloop
endfacet
facet normal -0.665791928768158 0.746026337146759 -0.01287769712507725
  outer loop
    vertex 114.2671737670898 9.050026893615723 9.693929672241211
    vertex 114.3391418457031 9.106350898742676 9.235929489135742
    vertex 112.3166427612305 7.266395092010498 7.209930419921875
  endloop
endfacet
facet normal -0.01717409864068031 -0.01935086771845818 0.9996652603149414
  outer loop
    vertex 103.4412384033203 40.38349151611328 7.209930419921875
    vertex 95.86236572265625 54.75548553466797 7.357930183410645
    vertex 87.42903137207031 54.5944938659668 7.209930419921875
  endloop
endfacet
facet normal -0.6637516617774963 -0.7479530572891235 3.104259615529008e-17
  outer loop
    vertex 119.4544067382813 26.17424201965332 7.209930419921875
    vertex 103.4412384033203 40.38349151611328 0.06592988967895508
    vertex 119.4544067382813 26.17424201965332 0.06592988967895508
  endloop
endfacet
facet normal -0.6637516617774963 -0.7479530572891235 3.104259615529008e-17
  outer loop
    vertex 103.4412384033203 40.38349151611328 0.06592988967895508
    vertex 119.4544067382813 26.17424201965332 7.209930419921875
    vertex 87.42903137207031 54.5944938659668 0.06592988967895508
  endloop
endfacet
facet normal -0.6637516617774963 -0.7479530572891235 3.104259615529008e-17
  outer loop
    vertex 87.42903137207031 54.5944938659668 0.06592988967895508
    vertex 119.4544067382813 26.17424201965332 7.209930419921875
    vertex 87.42903137207031 54.5944938659668 7.209930419921875
  endloop
endfacet
facet normal -0.6637516617774963 -0.7479530572891235 3.104259615529008e-17
  outer loop
    vertex 87.42903137207031 54.5944938659668 7.209930419921875
    vertex 119.4544067382813 26.17424201965332 7.209930419921875
    vertex 103.4412384033203 40.38349151611328 7.209930419921875
  endloop
endfacet
facet normal -0.6424359083175659 0.7662312984466553 0.01287026330828667
  outer loop
    vertex 112.3166427612305 7.266395092010498 18.73592948913574
    vertex 114.5395431518555 9.267860412597656 10.53792953491211
    vertex 114.3391418457031 9.106350898742676 10.14993000030518
  endloop
endfacet
facet normal -0.6877092719078064 0.7257401347160339 0.01889910362660885
  outer loop
    vertex 114.3391418457031 9.106350898742676 10.14993000030518
    vertex 114.2671737670898 9.050026893615723 9.693929672241211
    vertex 112.3166427612305 7.266395092010498 7.209930419921875
  endloop
endfacet
facet normal -0.01278897002339363 -9.97179449768737e-05 -0.9999182224273682
  outer loop
    vertex 95.77081298828125 78.9852294921875 0.2119299024343491
    vertex 92.20521545410156 75.014892578125 0.2579298913478851
    vertex 95.75003051757813 81.6497802734375 0.2119299024343491
  endloop
endfacet
facet normal -0.9226989150047302 0.385521411895752 1.177041119407639e-17
  outer loop
    vertex 92.20521545410156 75.014892578125 7.401930332183838
    vertex 86.40132904052734 61.12400436401367 0.06592988967895508
    vertex 86.40132904052734 61.12400436401367 7.209930419921875
  endloop
endfacet
facet normal -0.9226989150047302 0.385521411895752 1.177041119407639e-17
  outer loop
    vertex 86.40132904052734 61.12400436401367 0.06592988967895508
    vertex 92.20521545410156 75.014892578125 7.401930332183838
    vertex 92.20521545410156 75.014892578125 0.2579298913478851
  endloop
endfacet
facet normal 0.4221087694168091 0.3595367670059204 -0.8322004079818726
  outer loop
    vertex 114.8415145874023 9.510520935058594 10.79592990875244
    vertex 118.6145706176758 4.483636856079102 10.53792953491211
    vertex 114.5395431518555 9.267860412597656 10.53792953491211
  endloop
endfacet
facet normal 0.4221087694168091 0.3595367670059204 -0.8322004079818726
  outer loop
    vertex 118.6145706176758 4.483636856079102 10.53792953491211
    vertex 114.8415145874023 9.510520935058594 10.79592990875244
    vertex 118.9165344238281 4.726297855377197 10.79592990875244
  endloop
endfacet
facet normal -3.125318107777275e-05 0.008404652588069439 -0.9999646544456482
  outer loop
    vertex 128.9937438964844 26.20971298217773 0.06592988967895508
    vertex 119.4544067382813 26.17424201965332 0.06592988967895508
    vertex 119.2008895874023 43.54401779174805 0.2119299024343491
  endloop
endfacet
facet normal -0.7468050718307495 -0.636101245880127 0.1940552145242691
  outer loop
    vertex 120.2029418945313 5.761068820953369 9.693929672241211
    vertex 116.0576934814453 10.48800659179688 9.235929489135742
    vertex 120.1327209472656 5.70378303527832 9.235929489135742
  endloop
endfacet
facet normal -0.7468050718307495 -0.636101245880127 0.1940552145242691
  outer loop
    vertex 116.0576934814453 10.48800659179688 9.235929489135742
    vertex 120.2029418945313 5.761068820953369 9.693929672241211
    vertex 116.1279144287109 10.54529285430908 9.693929672241211
  endloop
endfacet
facet normal 0.4221757352352142 0.9065139889717102 -3.610488856455541e-17
  outer loop
    vertex 130.1954650878906 38.4236946105957 3.785930156707764
    vertex 119.2008895874023 43.54401779174805 0.2119299024343491
    vertex 119.2008895874023 43.54401779174805 3.785930156707764
  endloop
endfacet
facet normal 0.7586346864700317 -0.5618751645088196 -0.3298024535179138
  outer loop
    vertex 126.4863128662109 16.08552932739258 0.06592988967895508
    vertex 124.0451736450195 10.69289016723633 3.637930154800415
    vertex 123.3699264526367 11.87783050537109 0.06592988967895508
  endloop
endfacet
facet normal 0.4325555562973022 0.9007084965705872 -0.04024845734238625
  outer loop
    vertex 130.1954650878906 38.4236946105957 3.785930156707764
    vertex 129.8625030517578 38.42389297485352 0.2119299024343491
    vertex 119.2008895874023 43.54401779174805 0.2119299024343491
  endloop
endfacet
facet normal 0.7892006039619446 -0.6001161932945251 -0.1304718106985092
  outer loop
    vertex 124.6368789672852 10.6944408416748 7.209930419921875
    vertex 120.5315399169922 5.295598030090332 7.209930419921875
    vertex 124.0451736450195 10.69289016723633 3.637930154800415
  endloop
endfacet
facet normal -0.5856104493141174 0.8105926513671875 -2.168187292778275e-17
  outer loop
    vertex 112.3166427612305 7.266395092010498 18.73592948913574
    vertex 112.3166427612305 7.266395092010498 7.209930419921875
    vertex 106.4696273803711 3.042236566543579 18.73592948913574
  endloop
endfacet
facet normal -0.5740523338317871 -0.8077296018600464 -0.1343012899160385
  outer loop
    vertex 110.2942886352539 0.3253732919692993 18.73592948913574
    vertex 107.4087371826172 4.030311584472656 8.785929679870605
    vertex 112.9377899169922 0.0999116376042366 8.785929679870605
  endloop
endfacet
facet normal -0.5740523338317871 -0.8077296018600464 -0.1343012899160385
  outer loop
    vertex 107.4087371826172 4.030311584472656 8.785929679870605
    vertex 110.2942886352539 0.3253732919692993 18.73592948913574
    vertex 106.4696273803711 3.042236566543579 18.73592948913574
  endloop
endfacet
facet normal 0.8361896276473999 -0.5107957720756531 -0.1996862143278122
  outer loop
    vertex 127.3412322998047 16.08865356445313 3.637930154800415
    vertex 124.0451736450195 10.69289016723633 3.637930154800415
    vertex 126.4863128662109 16.08552932739258 0.06592988967895508
  endloop
endfacet
facet normal -0.5429877638816833 0.8391276597976685 0.0320797935128212
  outer loop
    vertex 106.4696273803711 3.042236566543579 18.73592948913574
    vertex 112.3166427612305 7.266395092010498 7.209930419921875
    vertex 107.4087371826172 4.030311584472656 8.785929679870605
  endloop
endfacet
facet normal 0 0 -1
  outer loop
    vertex 112.3166427612305 7.266395092010498 0.06592988967895508
    vertex 114.81787109375 2.241581201553345 0.06592988967895508
    vertex 109.6799545288086 5.562698364257813 0.06592988967895508
  endloop
endfacet
facet normal 0 0 -1
  outer loop
    vertex 114.81787109375 2.241581201553345 0.06592988967895508
    vertex 112.3166427612305 7.266395092010498 0.06592988967895508
    vertex 117.3927154541016 11.62385272979736 0.06592988967895508
  endloop
endfacet
facet normal 0 0 -1
  outer loop
    vertex 114.81787109375 2.241581201553345 0.06592988967895508
    vertex 117.3927154541016 11.62385272979736 0.06592988967895508
    vertex 118.3968734741211 5.766552448272705 0.06592988967895508
  endloop
endfacet
facet normal 0 0 -1
  outer loop
    vertex 118.3968734741211 5.766552448272705 0.06592988967895508
    vertex 117.3927154541016 11.62385272979736 0.06592988967895508
    vertex 117.407958984375 16.05033874511719 0.06592988967895508
  endloop
endfacet
facet normal 0 0 -1
  outer loop
    vertex 118.3968734741211 5.766552448272705 0.06592988967895508
    vertex 117.407958984375 16.05033874511719 0.06592988967895508
    vertex 119.4544067382813 26.17424201965332 0.06592988967895508
  endloop
endfacet
facet normal 0 0 -1
  outer loop
    vertex 118.3968734741211 5.766552448272705 0.06592988967895508
    vertex 119.4544067382813 26.17424201965332 0.06592988967895508
    vertex 123.3699264526367 11.87783050537109 0.06592988967895508
  endloop
endfacet
facet normal 0 0 -1
  outer loop
    vertex 123.3699264526367 11.87783050537109 0.06592988967895508
    vertex 119.4544067382813 26.17424201965332 0.06592988967895508
    vertex 128.9937438964844 26.20971298217773 0.06592988967895508
  endloop
endfacet
facet normal 0 0 -1
  outer loop
    vertex 123.3699264526367 11.87783050537109 0.06592988967895508
    vertex 128.9937438964844 26.20971298217773 0.06592988967895508
    vertex 126.4863128662109 16.08552932739258 0.06592988967895508
  endloop
endfacet
facet normal 0.1473182439804077 0.1254802793264389 -0.9810973405838013
  outer loop
    vertex 115.1970596313477 9.796782493591309 10.88593006134033
    vertex 118.9165344238281 4.726297855377197 10.79592990875244
    vertex 114.8415145874023 9.510520935058594 10.79592990875244
  endloop
endfacet
facet normal 0.1473182439804077 0.1254802793264389 -0.9810973405838013
  outer loop
    vertex 118.9165344238281 4.726297855377197 10.79592990875244
    vertex 115.1970596313477 9.796782493591309 10.88593006134033
    vertex 119.272087097168 5.012558460235596 10.88593006134033
  endloop
endfacet
facet normal 0.6671340465545654 0.7449377179145813 0
  outer loop
    vertex 80.23842620849609 66.64323425292969 7.209930419921875
    vertex 86.40132904052734 61.12400436401367 0.06592988967895508
    vertex 80.23842620849609 66.64323425292969 0.06592988967895508
  endloop
endfacet
facet normal 0.6671340465545654 0.7449377179145813 0
  outer loop
    vertex 86.40132904052734 61.12400436401367 0.06592988967895508
    vertex 80.23842620849609 66.64323425292969 7.209930419921875
    vertex 86.40132904052734 61.12400436401367 7.209930419921875
  endloop
endfacet
facet normal 0.995135486125946 -0.0338529646396637 -0.09251662343740463
  outer loop
    vertex 130.5276336669922 38.42621612548828 7.357930183410645
    vertex 129.7662963867188 26.21240615844727 3.637930154800415
    vertex 130.1954650878906 38.4236946105957 3.785930156707764
  endloop
endfacet
facet normal -0.6314960122108459 -0.5378851890563965 0.5584731698036194
  outer loop
    vertex 120.1327209472656 5.70378303527832 9.235929489135742
    vertex 115.8545761108398 10.32570457458496 8.849929809570313
    vertex 119.9296035766602 5.541481018066406 8.849929809570313
  endloop
endfacet
facet normal -0.6314960122108459 -0.5378851890563965 0.5584731698036194
  outer loop
    vertex 115.8545761108398 10.32570457458496 8.849929809570313
    vertex 120.1327209472656 5.70378303527832 9.235929489135742
    vertex 116.0576934814453 10.48800659179688 9.235929489135742
  endloop
endfacet
facet normal -0.005478046834468842 -0.01212404482066631 0.9999114871025085
  outer loop
    vertex 130.5388641357422 26.2150993347168 7.209930419921875
    vertex 130.5276336669922 38.42621612548828 7.357930183410645
    vertex 119.2008895874023 43.54401779174805 7.357930183410645
  endloop
endfacet
facet normal 0.1473182439804077 0.1254802793264389 0.9810973405838013
  outer loop
    vertex 118.9165344238281 4.726297855377197 8.589929580688477
    vertex 115.1970596313477 9.796782493591309 8.499929428100586
    vertex 114.8415145874023 9.510520935058594 8.589929580688477
  endloop
endfacet
facet normal 0.1473182439804077 0.1254802793264389 0.9810973405838013
  outer loop
    vertex 115.1970596313477 9.796782493591309 8.499929428100586
    vertex 118.9165344238281 4.726297855377197 8.589929580688477
    vertex 119.272087097168 5.012558460235596 8.499929428100586
  endloop
endfacet
facet normal -0.9999924898147583 -0.003875504480674863 3.187870855065605e-31
  outer loop
    vertex 80.23842620849609 66.64323425292969 7.209930419921875
    vertex 80.27632904052734 56.86303329467773 0.06592988967895508
    vertex 80.27632904052734 56.86303329467773 7.209930419921875
  endloop
endfacet
facet normal -0.9999924898147583 -0.003875504480674863 3.187870855065605e-31
  outer loop
    vertex 80.27632904052734 56.86303329467773 0.06592988967895508
    vertex 80.23842620849609 66.64323425292969 7.209930419921875
    vertex 80.23842620849609 66.64323425292969 0.06592988967895508
  endloop
endfacet
facet normal 0 0 1
  outer loop
    vertex 110.2942886352539 0.3253732919692993 18.73592948913574
    vertex 112.3166427612305 7.266395092010498 18.73592948913574
    vertex 106.4696273803711 3.042236566543579 18.73592948913574
  endloop
endfacet
facet normal 0 0 1
  outer loop
    vertex 112.3166427612305 7.266395092010498 18.73592948913574
    vertex 110.2942886352539 0.3253732919692993 18.73592948913574
    vertex 118.5880126953125 5.287538528442383 18.73592948913574
  endloop
endfacet
facet normal 0 0 1
  outer loop
    vertex 112.3166427612305 7.266395092010498 18.73592948913574
    vertex 118.5880126953125 5.287538528442383 18.73592948913574
    vertex 117.3927154541016 11.62385272979736 18.73592948913574
  endloop
endfacet
facet normal 0 0 1
  outer loop
    vertex 117.3927154541016 11.62385272979736 18.73592948913574
    vertex 118.5880126953125 5.287538528442383 18.73592948913574
    vertex 123.3567276000977 10.68966770172119 18.73592948913574
  endloop
endfacet
facet normal -0.01214942615479231 -0.001912231324240565 0.99992436170578
  outer loop
    vertex 95.77081298828125 78.9852294921875 7.357930183410645
    vertex 86.40132904052734 61.12400436401367 7.209930419921875
    vertex 87.42903137207031 54.5944938659668 7.209930419921875
  endloop
endfacet
facet normal 0.9488416314125061 -0.2195774912834167 -0.2269036024808884
  outer loop
    vertex 130.5388641357422 26.2150993347168 7.209930419921875
    vertex 128.1961517333984 16.09177780151367 7.209930419921875
    vertex 127.3412322998047 16.08865356445313 3.637930154800415
  endloop
endfacet
facet normal 0 0 1
  outer loop
    vertex 80.27632904052734 56.86303329467773 7.209930419921875
    vertex 86.40132904052734 61.12400436401367 7.209930419921875
    vertex 80.23842620849609 66.64323425292969 7.209930419921875
  endloop
endfacet
facet normal 0 0 1
  outer loop
    vertex 86.40132904052734 61.12400436401367 7.209930419921875
    vertex 80.27632904052734 56.86303329467773 7.209930419921875
    vertex 87.42903137207031 54.5944938659668 7.209930419921875
  endloop
endfacet
facet normal 0.4117535054683685 0.9112952351570129 0
  outer loop
    vertex 130.5276336669922 38.42621612548828 7.357930183410645
    vertex 119.2008895874023 43.54401779174805 3.785930156707764
    vertex 119.2008895874023 43.54401779174805 7.357930183410645
  endloop
endfacet
facet normal 0.9516991972923279 -0.2279721796512604 -0.2056631147861481
  outer loop
    vertex 130.5388641357422 26.2150993347168 7.209930419921875
    vertex 127.3412322998047 16.08865356445313 3.637930154800415
    vertex 129.7662963867188 26.21240615844727 3.637930154800415
  endloop
endfacet
facet normal 0.9932774305343628 -0.06954307854175568 -0.09254033118486404
  outer loop
    vertex 129.8625030517578 38.42389297485352 0.2119299024343491
    vertex 130.1954650878906 38.4236946105957 3.785930156707764
    vertex 128.9937438964844 26.20971298217773 0.06592988967895508
  endloop
endfacet
facet normal -0.6348257064819336 0.7724800705909729 0.01645937003195286
  outer loop
    vertex 112.3166427612305 7.266395092010498 18.73592948913574
    vertex 114.8415145874023 9.510520935058594 10.79592990875244
    vertex 114.5395431518555 9.267860412597656 10.53792953491211
  endloop
endfacet
facet normal 0.8187147974967957 -0.5399019718170166 -0.1954788565635681
  outer loop
    vertex 128.1961517333984 16.09177780151367 7.209930419921875
    vertex 124.6368789672852 10.6944408416748 7.209930419921875
    vertex 127.3412322998047 16.08865356445313 3.637930154800415
  endloop
endfacet
facet normal -0.9999940991401672 0.003443407593294978 -8.520866589054813e-19
  outer loop
    vertex 117.407958984375 16.05033874511719 7.209930419921875
    vertex 117.3927154541016 11.62385272979736 0.06592988967895508
    vertex 117.3927154541016 11.62385272979736 7.209930419921875
  endloop
endfacet
facet normal -0.9999940991401672 0.003443407593294978 -8.520866589054813e-19
  outer loop
    vertex 117.3927154541016 11.62385272979736 0.06592988967895508
    vertex 117.407958984375 16.05033874511719 7.209930419921875
    vertex 117.407958984375 16.05033874511719 0.06592988967895508
  endloop
endfacet
facet normal -0.3023175597190857 -0.95320725440979 0
  outer loop
    vertex 87.42903137207031 54.5944938659668 7.209930419921875
    vertex 80.27632904052734 56.86303329467773 0.06592988967895508
    vertex 87.42903137207031 54.5944938659668 0.06592988967895508
  endloop
endfacet
facet normal -0.3023175597190857 -0.95320725440979 0
  outer loop
    vertex 80.27632904052734 56.86303329467773 0.06592988967895508
    vertex 87.42903137207031 54.5944938659668 7.209930419921875
    vertex 80.27632904052734 56.86303329467773 7.209930419921875
  endloop
endfacet
facet normal -0.1473183482885361 -0.1254803687334061 0.9810973405838013
  outer loop
    vertex 119.272087097168 5.012558460235596 8.499929428100586
    vertex 115.5526123046875 10.08304405212402 8.589929580688477
    vertex 115.1970596313477 9.796782493591309 8.499929428100586
  endloop
endfacet
facet normal -0.1473183482885361 -0.1254803687334061 0.9810973405838013
  outer loop
    vertex 115.5526123046875 10.08304405212402 8.589929580688477
    vertex 119.272087097168 5.012558460235596 8.499929428100586
    vertex 119.6276321411133 5.298820018768311 8.589929580688477
  endloop
endfacet
facet normal -0.6347537040710449 0.7725450396537781 0.01618173718452454
  outer loop
    vertex 115.8545761108398 10.32570457458496 8.849929809570313
    vertex 117.3927154541016 11.62385272979736 7.209930419921875
    vertex 115.5526123046875 10.08304405212402 8.589929580688477
  endloop
endfacet
facet normal 0.9499987959861755 -0.2352835983037949 -0.205289900302887
  outer loop
    vertex 129.7662963867188 26.21240615844727 3.637930154800415
    vertex 126.4863128662109 16.08552932739258 0.06592988967895508
    vertex 128.9937438964844 26.20971298217773 0.06592988967895508
  endloop
endfacet
facet normal -0.6293578147888184 0.7770998477935791 -0.004954059608280659
  outer loop
    vertex 115.8545761108398 10.32570457458496 10.53792953491211
    vertex 117.3927154541016 11.62385272979736 18.73592948913574
    vertex 116.0576934814453 10.48800659179688 10.14993000030518
  endloop
endfacet
facet normal -0.6293578147888184 0.7770998477935791 -0.004954059608280659
  outer loop
    vertex 117.3927154541016 11.62385272979736 18.73592948913574
    vertex 115.8545761108398 10.32570457458496 10.53792953491211
    vertex 115.5526123046875 10.08304405212402 10.79592990875244
  endloop
endfacet
facet normal 0.581216037273407 -0.8096798062324524 0.08128059655427933
  outer loop
    vertex 118.5880126953125 5.287538528442383 18.73592948913574
    vertex 118.6145706176758 4.483636856079102 10.53792953491211
    vertex 118.9165344238281 4.726297855377197 10.79592990875244
  endloop
endfacet
facet normal 0.5392011404037476 -0.8304861187934875 -0.1398388594388962
  outer loop
    vertex 112.9377899169922 0.0999116376042366 8.785929679870605
    vertex 115.2794570922852 1.976895451545715 6.667930126190186
    vertex 120.5315399169922 5.295598030090332 7.209930419921875
  endloop
endfacet
facet normal 0.9773945808410645 0.003460075939074159 -0.2113949805498123
  outer loop
    vertex 130.5276336669922 38.42621612548828 7.357930183410645
    vertex 130.5388641357422 26.2150993347168 7.209930419921875
    vertex 129.7662963867188 26.21240615844727 3.637930154800415
  endloop
endfacet
facet normal 0.9769124388694763 -0.03177329897880554 -0.2112642675638199
  outer loop
    vertex 130.1954650878906 38.4236946105957 3.785930156707764
    vertex 129.7662963867188 26.21240615844727 3.637930154800415
    vertex 128.9937438964844 26.20971298217773 0.06592988967895508
  endloop
endfacet
facet normal -0.6513442993164063 0.7587617635726929 0.005581489764153957
  outer loop
    vertex 117.3927154541016 11.62385272979736 18.73592948913574
    vertex 115.1970596313477 9.796782493591309 10.88593006134033
    vertex 112.3166427612305 7.266395092010498 18.73592948913574
  endloop
endfacet
facet normal -0.6579371690750122 0.7525997757911682 -0.02668869681656361
  outer loop
    vertex 114.3391418457031 9.106350898742676 9.235929489135742
    vertex 114.5395431518555 9.267860412597656 8.849929809570313
    vertex 112.3166427612305 7.266395092010498 7.209930419921875
  endloop
endfacet
facet normal 0.947212815284729 -0.2268975079059601 -0.2265068590641022
  outer loop
    vertex 129.7662963867188 26.21240615844727 3.637930154800415
    vertex 127.3412322998047 16.08865356445313 3.637930154800415
    vertex 126.4863128662109 16.08552932739258 0.06592988967895508
  endloop
endfacet
facet normal 0.8450021743774414 -0.5161790251731873 -0.1397518366575241
  outer loop
    vertex 127.3412322998047 16.08865356445313 3.637930154800415
    vertex 124.6368789672852 10.6944408416748 7.209930419921875
    vertex 124.0451736450195 10.69289016723633 3.637930154800415
  endloop
endfacet
facet normal 0.6079310178756714 -0.7938197255134583 0.01643590070307255
  outer loop
    vertex 118.6145706176758 4.483636856079102 10.53792953491211
    vertex 112.9377899169922 0.0999116376042366 8.785929679870605
    vertex 118.4141693115234 4.322126865386963 10.14993000030518
  endloop
endfacet
facet normal 0.2812201082706451 -0.9285166263580322 0.2424296289682388
  outer loop
    vertex 120.1327209472656 5.70378303527832 9.235929489135742
    vertex 119.9296035766602 5.541481018066406 8.849929809570313
    vertex 120.5315399169922 5.295598030090332 7.209930419921875
  endloop
endfacet
facet normal -0.4221090078353882 -0.3595370054244995 -0.8322001695632935
  outer loop
    vertex 115.8545761108398 10.32570457458496 10.53792953491211
    vertex 119.6276321411133 5.298820018768311 10.79592990875244
    vertex 115.5526123046875 10.08304405212402 10.79592990875244
  endloop
endfacet
facet normal -0.4221090078353882 -0.3595370054244995 -0.8322001695632935
  outer loop
    vertex 119.6276321411133 5.298820018768311 10.79592990875244
    vertex 115.8545761108398 10.32570457458496 10.53792953491211
    vertex 119.9296035766602 5.541481018066406 10.53792953491211
  endloop
endfacet
facet normal 0.1272415816783905 0.9917651414871216 0.01454290188848972
  outer loop
    vertex 123.3567276000977 10.68966770172119 18.73592948913574
    vertex 124.6368789672852 10.6944408416748 7.209930419921875
    vertex 117.3927154541016 11.62385272979736 7.209930419921875
  endloop
endfacet
facet normal -0.1473183482885361 -0.1254803687334061 -0.9810973405838013
  outer loop
    vertex 115.5526123046875 10.08304405212402 10.79592990875244
    vertex 119.272087097168 5.012558460235596 10.88593006134033
    vertex 115.1970596313477 9.796782493591309 10.88593006134033
  endloop
endfacet
facet normal -0.1473183482885361 -0.1254803687334061 -0.9810973405838013
  outer loop
    vertex 119.272087097168 5.012558460235596 10.88593006134033
    vertex 115.5526123046875 10.08304405212402 10.79592990875244
    vertex 119.6276321411133 5.298820018768311 10.79592990875244
  endloop
endfacet
facet normal -0.5392796397209167 -0.842126727104187 0
  outer loop
    vertex 109.6799545288086 5.562698364257813 6.667930126190186
    vertex 109.6799545288086 5.562698364257813 0.06592988967895508
    vertex 115.2794570922852 1.976895451545715 6.667930126190186
  endloop
endfacet
facet normal -0.6299451589584351 0.7764042019844055 0.01912046410143375
  outer loop
    vertex 112.3166427612305 7.266395092010498 18.73592948913574
    vertex 115.1970596313477 9.796782493591309 10.88593006134033
    vertex 114.8415145874023 9.510520935058594 10.79592990875244
  endloop
endfacet
facet normal -0.7466815114021301 -0.6359959840774536 -0.1948740184307098
  outer loop
    vertex 116.0576934814453 10.48800659179688 10.14993000030518
    vertex 120.2029418945313 5.761068820953369 9.693929672241211
    vertex 120.1327209472656 5.70378303527832 10.14993000030518
  endloop
endfacet
facet normal -0.7466815114021301 -0.6359959840774536 -0.1948740184307098
  outer loop
    vertex 120.2029418945313 5.761068820953369 9.693929672241211
    vertex 116.0576934814453 10.48800659179688 10.14993000030518
    vertex 116.1279144287109 10.54529285430908 9.693929672241211
  endloop
endfacet
facet normal 0.5690734386444092 -0.804643452167511 0.1694236099720001
  outer loop
    vertex 110.2942886352539 0.3253732919692993 18.73592948913574
    vertex 112.9377899169922 0.0999116376042366 8.785929679870605
    vertex 118.6145706176758 4.483636856079102 10.53792953491211
  endloop
endfacet
facet normal -0.5456374883651733 0.8377577662467957 0.02101535722613335
  outer loop
    vertex 107.4087371826172 4.030311584472656 8.785929679870605
    vertex 112.3166427612305 7.266395092010498 7.209930419921875
    vertex 109.6799545288086 5.562698364257813 6.667930126190186
  endloop
endfacet
facet normal 0.4367793500423431 -0.8521925806999207 0.2880825400352478
  outer loop
    vertex 119.9296035766602 5.541481018066406 8.849929809570313
    vertex 119.6276321411133 5.298820018768311 8.589929580688477
    vertex 120.5315399169922 5.295598030090332 7.209930419921875
  endloop
endfacet
facet normal 2.546438190620393e-05 0.006804955657571554 0.9999768733978271
  outer loop
    vertex 88.73159027099609 75.13692474365234 7.401930332183838
    vertex 86.02754211425781 81.64637756347656 7.357930183410645
    vertex 85.25797271728516 75.25895690917969 7.401930332183838
  endloop
endfacet
facet normal 2.546438190620393e-05 0.006804955657571554 0.9999768733978271
  outer loop
    vertex 86.02754211425781 81.64637756347656 7.357930183410645
    vertex 88.73159027099609 75.13692474365234 7.401930332183838
    vertex 95.75003051757813 81.6497802734375 7.357930183410645
  endloop
endfacet
facet normal 0.6111495494842529 -0.7910033464431763 -0.02845959179103374
  outer loop
    vertex 118.6145706176758 4.483636856079102 8.849929809570313
    vertex 112.9377899169922 0.0999116376042366 8.785929679870605
    vertex 118.9165344238281 4.726297855377197 8.589929580688477
  endloop
endfacet
facet normal 0.421840101480484 0.905793309211731 -0.03986730054020882
  outer loop
    vertex 130.5276336669922 38.42621612548828 7.357930183410645
    vertex 130.1954650878906 38.4236946105957 3.785930156707764
    vertex 119.2008895874023 43.54401779174805 3.785930156707764
  endloop
endfacet
facet normal 0 0 1
  outer loop
    vertex 124.6368789672852 10.6944408416748 7.209930419921875
    vertex 117.407958984375 16.05033874511719 7.209930419921875
    vertex 117.3927154541016 11.62385272979736 7.209930419921875
  endloop
endfacet
facet normal 0 0 1
  outer loop
    vertex 117.407958984375 16.05033874511719 7.209930419921875
    vertex 124.6368789672852 10.6944408416748 7.209930419921875
    vertex 119.4544067382813 26.17424201965332 7.209930419921875
  endloop
endfacet
facet normal 0 0 1
  outer loop
    vertex 119.4544067382813 26.17424201965332 7.209930419921875
    vertex 124.6368789672852 10.6944408416748 7.209930419921875
    vertex 130.5388641357422 26.2150993347168 7.209930419921875
  endloop
endfacet
facet normal 0 0 1
  outer loop
    vertex 130.5388641357422 26.2150993347168 7.209930419921875
    vertex 124.6368789672852 10.6944408416748 7.209930419921875
    vertex 128.1961517333984 16.09177780151367 7.209930419921875
  endloop
endfacet
facet normal -0.6729366779327393 0.7397000789642334 4.503988922774191e-18
  outer loop
    vertex 112.3166427612305 7.266395092010498 18.73592948913574
    vertex 114.3391418457031 9.106350898742676 10.14993000030518
    vertex 112.3166427612305 7.266395092010498 7.209930419921875
  endloop
endfacet
facet normal 0.6103475093841553 -0.7921323776245117 0.001510714762844145
  outer loop
    vertex 118.4141693115234 4.322126865386963 10.14993000030518
    vertex 112.9377899169922 0.0999116376042366 8.785929679870605
    vertex 118.3421936035156 4.265803337097168 9.693929672241211
  endloop
endfacet
facet normal 0.6225444078445435 -0.6252694129943848 0.470613032579422
  outer loop
    vertex 118.9165344238281 4.726297855377197 8.589929580688477
    vertex 120.5315399169922 5.295598030090332 7.209930419921875
    vertex 119.272087097168 5.012558460235596 8.499929428100586
  endloop
endfacet
facet normal 0.005550391972064972 0.01155755575746298 -0.9999178051948547
  outer loop
    vertex 129.8625030517578 38.42389297485352 0.2119299024343491
    vertex 128.9937438964844 26.20971298217773 0.06592988967895508
    vertex 119.2008895874023 43.54401779174805 0.2119299024343491
  endloop
endfacet
facet normal -0.3689174056053162 -0.5189709067344666 -0.7710831165313721
  outer loop
    vertex 112.9377899169922 0.0999116376042366 8.785929679870605
    vertex 107.4087371826172 4.030311584472656 8.785929679870605
    vertex 109.6799545288086 5.562698364257813 6.667930126190186
  endloop
endfacet
facet normal 0.766793429851532 -0.5830775499343872 0.2684183120727539
  outer loop
    vertex 124.6368789672852 10.6944408416748 7.209930419921875
    vertex 120.1327209472656 5.70378303527832 9.235929489135742
    vertex 120.5315399169922 5.295598030090332 7.209930419921875
  endloop
endfacet
facet normal 0.7461732625961304 -0.6586821675300598 0.09676391631364822
  outer loop
    vertex 123.3567276000977 10.68966770172119 18.73592948913574
    vertex 118.5880126953125 5.287538528442383 18.73592948913574
    vertex 119.6276321411133 5.298820018768311 10.79592990875244
  endloop
endfacet
facet normal 0.741529643535614 -0.6319184899330139 -0.225416973233223
  outer loop
    vertex 124.0451736450195 10.69289016723633 3.637930154800415
    vertex 120.5315399169922 5.295598030090332 7.209930419921875
    vertex 119.7082061767578 5.603648662567139 3.637930154800415
  endloop
endfacet
facet normal 0.0003774111974053085 0.01074264105409384 0.9999422430992126
  outer loop
    vertex 95.77081298828125 78.9852294921875 7.357930183410645
    vertex 88.73159027099609 75.13692474365234 7.401930332183838
    vertex 92.20521545410156 75.014892578125 7.401930332183838
  endloop
endfacet
facet normal 0.7401143312454224 -0.6022673845291138 -0.2991734147071838
  outer loop
    vertex 123.3699264526367 11.87783050537109 0.06592988967895508
    vertex 119.7082061767578 5.603648662567139 3.637930154800415
    vertex 118.3968734741211 5.766552448272705 0.06592988967895508
  endloop
endfacet
facet normal 0.0119852889329195 0.001886397367343307 -0.9999263882637024
  outer loop
    vertex 95.77081298828125 78.9852294921875 0.2119299024343491
    vertex 87.42903137207031 54.5944938659668 0.06592988967895508
    vertex 86.40132904052734 61.12400436401367 0.06592988967895508
  endloop
endfacet
facet normal 0.007254299707710743 0.01001846138387918 -0.9999235272407532
  outer loop
    vertex 119.2008895874023 43.54401779174805 0.2119299024343491
    vertex 103.4412384033203 40.38349151611328 0.06592988967895508
    vertex 103.7088775634766 54.76168060302734 0.2119299024343491
  endloop
endfacet
facet normal 0.7465833425521851 0.6359124779701233 0.1955215185880661
  outer loop
    vertex 118.4141693115234 4.322126865386963 9.235929489135742
    vertex 114.2671737670898 9.050026893615723 9.693929672241211
    vertex 118.3421936035156 4.265803337097168 9.693929672241211
  endloop
endfacet
facet normal 0.7465833425521851 0.6359124779701233 0.1955215185880661
  outer loop
    vertex 114.2671737670898 9.050026893615723 9.693929672241211
    vertex 118.4141693115234 4.322126865386963 9.235929489135742
    vertex 114.3391418457031 9.106350898742676 9.235929489135742
  endloop
endfacet
facet normal 0.1547500342130661 0.9879536628723145 1.486557380810078e-17
  outer loop
    vertex 123.3567276000977 10.68966770172119 18.73592948913574
    vertex 117.3927154541016 11.62385272979736 7.209930419921875
    vertex 117.3927154541016 11.62385272979736 18.73592948913574
  endloop
endfacet
facet normal -0.9928202033042908 0.1196162551641464 8.630642038339455e-18
  outer loop
    vertex 86.02754211425781 81.64637756347656 7.357930183410645
    vertex 85.25797271728516 75.25895690917969 0.2579298913478851
    vertex 85.25797271728516 75.25895690917969 7.401930332183838
  endloop
endfacet
facet normal -0.9928202033042908 0.1196162551641464 8.630642038339455e-18
  outer loop
    vertex 85.25797271728516 75.25895690917969 0.2579298913478851
    vertex 86.02754211425781 81.64637756347656 7.357930183410645
    vertex 86.02754211425781 81.64637756347656 0.2119299024343491
  endloop
endfacet
facet normal -0.4243669211864471 -0.3614602088928223 0.8302164077758789
  outer loop
    vertex 119.6276321411133 5.298820018768311 8.589929580688477
    vertex 115.8545761108398 10.32570457458496 8.849929809570313
    vertex 115.5526123046875 10.08304405212402 8.589929580688477
  endloop
endfacet
facet normal -0.4243669211864471 -0.3614602088928223 0.8302164077758789
  outer loop
    vertex 115.8545761108398 10.32570457458496 8.849929809570313
    vertex 119.6276321411133 5.298820018768311 8.589929580688477
    vertex 119.9296035766602 5.541481018066406 8.849929809570313
  endloop
endfacet
facet normal -0.0007897666073404253 0.9999997019767761 1.500400284092957e-31
  outer loop
    vertex 95.77081298828125 78.9852294921875 7.357930183410645
    vertex 103.6173248291016 78.99142456054688 0.2119299024343491
    vertex 95.77081298828125 78.9852294921875 0.2119299024343491
  endloop
endfacet
facet normal -0.0007897666073404253 0.9999997019767761 1.500400284092957e-31
  outer loop
    vertex 103.6173248291016 78.99142456054688 0.2119299024343491
    vertex 95.77081298828125 78.9852294921875 7.357930183410645
    vertex 103.6173248291016 78.99142456054688 7.357930183410645
  endloop
endfacet
facet normal -0.01754538714885712 -6.630097050219774e-05 0.9998460412025452
  outer loop
    vertex 95.86236572265625 54.75548553466797 7.357930183410645
    vertex 95.77081298828125 78.9852294921875 7.357930183410645
    vertex 87.42903137207031 54.5944938659668 7.209930419921875
  endloop
endfacet
facet normal -0.01754538714885712 -6.630097050219774e-05 0.9998460412025452
  outer loop
    vertex 95.77081298828125 78.9852294921875 7.357930183410645
    vertex 95.86236572265625 54.75548553466797 7.357930183410645
    vertex 95.83242797851563 62.6834602355957 7.357930183410645
  endloop
endfacet
facet normal -0.9801750779151917 0.1981334239244461 0
  outer loop
    vertex 119.4544067382813 26.17424201965332 7.209930419921875
    vertex 117.407958984375 16.05033874511719 0.06592988967895508
    vertex 117.407958984375 16.05033874511719 7.209930419921875
  endloop
endfacet
facet normal -0.9801750779151917 0.1981334239244461 0
  outer loop
    vertex 117.407958984375 16.05033874511719 0.06592988967895508
    vertex 119.4544067382813 26.17424201965332 7.209930419921875
    vertex 119.4544067382813 26.17424201965332 0.06592988967895508
  endloop
endfacet
facet normal 0.7464579343795776 0.635805606842041 -0.1963460296392441
  outer loop
    vertex 114.2671737670898 9.050026893615723 9.693929672241211
    vertex 118.4141693115234 4.322126865386963 10.14993000030518
    vertex 118.3421936035156 4.265803337097168 9.693929672241211
  endloop
endfacet
facet normal 0.7464579343795776 0.635805606842041 -0.1963460296392441
  outer loop
    vertex 118.4141693115234 4.322126865386963 10.14993000030518
    vertex 114.2671737670898 9.050026893615723 9.693929672241211
    vertex 114.3391418457031 9.106350898742676 10.14993000030518
  endloop
endfacet
facet normal 0.6945356726646423 -0.7033588290214539 0.1513491123914719
  outer loop
    vertex 123.3567276000977 10.68966770172119 18.73592948913574
    vertex 119.6276321411133 5.298820018768311 10.79592990875244
    vertex 119.9296035766602 5.541481018066406 10.53792953491211
  endloop
endfacet
facet normal 0 0 1
  outer loop
    vertex 95.83242797851563 62.6834602355957 7.357930183410645
    vertex 103.6173248291016 78.99142456054688 7.357930183410645
    vertex 95.77081298828125 78.9852294921875 7.357930183410645
  endloop
endfacet
facet normal 0 0 1
  outer loop
    vertex 103.6173248291016 78.99142456054688 7.357930183410645
    vertex 95.83242797851563 62.6834602355957 7.357930183410645
    vertex 103.677978515625 62.68790054321289 7.357930183410645
  endloop
endfacet
facet normal 0 0 1
  outer loop
    vertex 103.6173248291016 78.99142456054688 7.357930183410645
    vertex 103.677978515625 62.68790054321289 7.357930183410645
    vertex 119.2008895874023 43.54401779174805 7.357930183410645
  endloop
endfacet
facet normal 0 0 1
  outer loop
    vertex 119.2008895874023 43.54401779174805 7.357930183410645
    vertex 103.677978515625 62.68790054321289 7.357930183410645
    vertex 103.7088775634766 54.76168060302734 7.357930183410645
  endloop
endfacet
facet normal 0.6334517598152161 0.5395510196685791 0.5546382069587708
  outer loop
    vertex 118.6145706176758 4.483636856079102 8.849929809570313
    vertex 114.3391418457031 9.106350898742676 9.235929489135742
    vertex 118.4141693115234 4.322126865386963 9.235929489135742
  endloop
endfacet
facet normal 0.6334517598152161 0.5395510196685791 0.5546382069587708
  outer loop
    vertex 114.3391418457031 9.106350898742676 9.235929489135742
    vertex 118.6145706176758 4.483636856079102 8.849929809570313
    vertex 114.5395431518555 9.267860412597656 8.849929809570313
  endloop
endfacet
facet normal 0.6344559788703918 0.540406346321106 -0.5526541471481323
  outer loop
    vertex 114.3391418457031 9.106350898742676 10.14993000030518
    vertex 118.6145706176758 4.483636856079102 10.53792953491211
    vertex 118.4141693115234 4.322126865386963 10.14993000030518
  endloop
endfacet
facet normal 0.6344559788703918 0.540406346321106 -0.5526541471481323
  outer loop
    vertex 118.6145706176758 4.483636856079102 10.53792953491211
    vertex 114.3391418457031 9.106350898742676 10.14993000030518
    vertex 114.5395431518555 9.267860412597656 10.53792953491211
  endloop
endfacet
facet normal -0.5428524017333984 -0.8398171663284302 0.004284651484340429
  outer loop
    vertex 115.2794570922852 1.976895451545715 6.667930126190186
    vertex 109.6799545288086 5.562698364257813 0.06592988967895508
    vertex 114.81787109375 2.241581201553345 0.06592988967895508
  endloop
endfacet
facet normal 0 0 -1
  outer loop
    vertex 86.40132904052734 61.12400436401367 0.06592988967895508
    vertex 80.27632904052734 56.86303329467773 0.06592988967895508
    vertex 80.23842620849609 66.64323425292969 0.06592988967895508
  endloop
endfacet
facet normal 0 0 -1
  outer loop
    vertex 80.27632904052734 56.86303329467773 0.06592988967895508
    vertex 86.40132904052734 61.12400436401367 0.06592988967895508
    vertex 87.42903137207031 54.5944938659668 0.06592988967895508
  endloop
endfacet
facet normal -0.05279891192913055 0.03585423901677132 -0.9979612827301025
  outer loop
    vertex 95.77081298828125 78.9852294921875 0.2119299024343491
    vertex 86.40132904052734 61.12400436401367 0.06592988967895508
    vertex 92.20521545410156 75.014892578125 0.2579298913478851
  endloop
endfacet
facet normal 0.05175583437085152 -0.03541938215494156 0.9980314373970032
  outer loop
    vertex 95.77081298828125 78.9852294921875 7.357930183410645
    vertex 92.20521545410156 75.014892578125 7.401930332183838
    vertex 86.40132904052734 61.12400436401367 7.209930419921875
  endloop
endfacet
facet normal -0.6513544917106628 0.7587735652923584 -2.546948663054876e-18
  outer loop
    vertex 112.3166427612305 7.266395092010498 7.209930419921875
    vertex 117.3927154541016 11.62385272979736 0.06592988967895508
    vertex 112.3166427612305 7.266395092010498 0.06592988967895508
  endloop
endfacet
facet normal -0.6513544917106628 0.7587735652923584 -2.546948663054876e-18
  outer loop
    vertex 117.3927154541016 11.62385272979736 0.06592988967895508
    vertex 112.3166427612305 7.266395092010498 7.209930419921875
    vertex 117.3927154541016 11.62385272979736 7.209930419921875
  endloop
endfacet
facet normal 3.140427361358888e-05 -0.008519766852259636 0.9999637007713318
  outer loop
    vertex 130.5388641357422 26.2150993347168 7.209930419921875
    vertex 119.2008895874023 43.54401779174805 7.357930183410645
    vertex 119.4544067382813 26.17424201965332 7.209930419921875
  endloop
endfacet
facet normal 0.6996033787727356 -0.7103278040885925 -0.07739220559597015
  outer loop
    vertex 115.2794570922852 1.976895451545715 6.667930126190186
    vertex 114.81787109375 2.241581201553345 0.06592988967895508
    vertex 118.3968734741211 5.766552448272705 0.06592988967895508
  endloop
endfacet
facet normal -0.6325110197067261 -0.5387497544288635 -0.5564876794815063
  outer loop
    vertex 115.8545761108398 10.32570457458496 10.53792953491211
    vertex 120.1327209472656 5.70378303527832 10.14993000030518
    vertex 119.9296035766602 5.541481018066406 10.53792953491211
  endloop
endfacet
facet normal -0.6325110197067261 -0.5387497544288635 -0.5564876794815063
  outer loop
    vertex 120.1327209472656 5.70378303527832 10.14993000030518
    vertex 115.8545761108398 10.32570457458496 10.53792953491211
    vertex 116.0576934814453 10.48800659179688 10.14993000030518
  endloop
endfacet
facet normal 0.424366682767868 0.3614599704742432 0.8302165865898132
  outer loop
    vertex 118.6145706176758 4.483636856079102 8.849929809570313
    vertex 114.8415145874023 9.510520935058594 8.589929580688477
    vertex 114.5395431518555 9.267860412597656 8.849929809570313
  endloop
endfacet
facet normal 0.424366682767868 0.3614599704742432 0.8302165865898132
  outer loop
    vertex 114.8415145874023 9.510520935058594 8.589929580688477
    vertex 118.6145706176758 4.483636856079102 8.849929809570313
    vertex 118.9165344238281 4.726297855377197 8.589929580688477
  endloop
endfacet
facet normal 0.5115447044372559 -0.8549924492835999 0.08549828827381134
  outer loop
    vertex 110.2942886352539 0.3253732919692993 18.73592948913574
    vertex 118.6145706176758 4.483636856079102 10.53792953491211
    vertex 118.5880126953125 5.287538528442383 18.73592948913574
  endloop
endfacet
facet normal -0.3221444189548492 -0.5030533075332642 -0.8019727468490601
  outer loop
    vertex 115.2794570922852 1.976895451545715 6.667930126190186
    vertex 112.9377899169922 0.0999116376042366 8.785929679870605
    vertex 109.6799545288086 5.562698364257813 6.667930126190186
  endloop
endfacet
facet normal 0.6125600337982178 -0.786270797252655 0.08092279732227325
  outer loop
    vertex 118.5880126953125 5.287538528442383 18.73592948913574
    vertex 118.9165344238281 4.726297855377197 10.79592990875244
    vertex 119.272087097168 5.012558460235596 10.88593006134033
  endloop
endfacet
facet normal 0.7163450121879578 -0.6104565858840942 -0.3379239737987518
  outer loop
    vertex 123.3699264526367 11.87783050537109 0.06592988967895508
    vertex 124.0451736450195 10.69289016723633 3.637930154800415
    vertex 119.7082061767578 5.603648662567139 3.637930154800415
  endloop
endfacet
facet normal 0.7363196015357971 -0.6760406494140625 -0.02832699194550514
  outer loop
    vertex 124.6368789672852 10.6944408416748 7.209930419921875
    vertex 120.2029418945313 5.761068820953369 9.693929672241211
    vertex 120.1327209472656 5.70378303527832 9.235929489135742
  endloop
endfacet
facet normal -0.6450736522674561 0.764113187789917 0.003322107484564185
  outer loop
    vertex 116.1279144287109 10.54529285430908 9.693929672241211
    vertex 117.3927154541016 11.62385272979736 7.209930419921875
    vertex 116.0576934814453 10.48800659179688 9.235929489135742
  endloop
endfacet
facet normal -0.6373453140258789 0.7663940787315369 -0.0801941454410553
  outer loop
    vertex 114.8415145874023 9.510520935058594 8.589929580688477
    vertex 115.1970596313477 9.796782493591309 8.499929428100586
    vertex 112.3166427612305 7.266395092010498 7.209930419921875
  endloop
endfacet
facet normal -0.6480065584182739 0.7616347670555115 0
  outer loop
    vertex 117.3927154541016 11.62385272979736 18.73592948913574
    vertex 117.3927154541016 11.62385272979736 7.209930419921875
    vertex 116.0576934814453 10.48800659179688 10.14993000030518
  endloop
endfacet
facet normal 0.01730838790535927 6.540539470734075e-05 -0.9998502135276794
  outer loop
    vertex 95.77081298828125 78.9852294921875 0.2119299024343491
    vertex 95.86236572265625 54.75548553466797 0.2119299024343491
    vertex 87.42903137207031 54.5944938659668 0.06592988967895508
  endloop
endfacet
facet normal 0.01730838790535927 6.540539470734075e-05 -0.9998502135276794
  outer loop
    vertex 95.86236572265625 54.75548553466797 0.2119299024343491
    vertex 95.77081298828125 78.9852294921875 0.2119299024343491
    vertex 95.83242797851563 62.6834602355957 0.2119299024343491
  endloop
endfacet
facet normal 0.5187480449676514 -0.8239591717720032 -0.2280170917510986
  outer loop
    vertex 115.2794570922852 1.976895451545715 6.667930126190186
    vertex 118.3968734741211 5.766552448272705 0.06592988967895508
    vertex 119.7082061767578 5.603648662567139 3.637930154800415
  endloop
endfacet
facet normal 0.9154415130615234 0.4024510383605957 1.393059634160882e-16
  outer loop
    vertex 103.6173248291016 78.99142456054688 0.2119299024343491
    vertex 119.2008895874023 43.54401779174805 3.785930156707764
    vertex 119.2008895874023 43.54401779174805 0.2119299024343491
  endloop
endfacet
facet normal 0.9154415130615234 0.4024510383605957 1.393059634160882e-16
  outer loop
    vertex 119.2008895874023 43.54401779174805 3.785930156707764
    vertex 103.6173248291016 78.99142456054688 0.2119299024343491
    vertex 119.2008895874023 43.54401779174805 7.357930183410645
  endloop
endfacet
facet normal 0.9154415130615234 0.4024510383605957 1.393059634160882e-16
  outer loop
    vertex 119.2008895874023 43.54401779174805 7.357930183410645
    vertex 103.6173248291016 78.99142456054688 0.2119299024343491
    vertex 103.6173248291016 78.99142456054688 7.357930183410645
  endloop
endfacet
facet normal 0.007555891759693623 0.00851514283567667 -0.9999352097511292
  outer loop
    vertex 119.4544067382813 26.17424201965332 0.06592988967895508
    vertex 103.4412384033203 40.38349151611328 0.06592988967895508
    vertex 119.2008895874023 43.54401779174805 0.2119299024343491
  endloop
endfacet
facet normal -0.637631893157959 0.7702528238296509 0.01166795380413532
  outer loop
    vertex 116.0576934814453 10.48800659179688 9.235929489135742
    vertex 117.3927154541016 11.62385272979736 7.209930419921875
    vertex 115.8545761108398 10.32570457458496 8.849929809570313
  endloop
endfacet
facet normal -8.255423017544672e-05 -0.007034504320472479 -0.9999752640724182
  outer loop
    vertex 86.02754211425781 81.64637756347656 0.2119299024343491
    vertex 92.20521545410156 75.014892578125 0.2579298913478851
    vertex 85.25797271728516 75.25895690917969 0.2579298913478851
  endloop
endfacet
facet normal -8.255423017544672e-05 -0.007034504320472479 -0.9999752640724182
  outer loop
    vertex 92.20521545410156 75.014892578125 0.2579298913478851
    vertex 86.02754211425781 81.64637756347656 0.2119299024343491
    vertex 95.75003051757813 81.6497802734375 0.2119299024343491
  endloop
endfacet
facet normal -0.6279609203338623 0.7782254815101624 -0.005489005241543055
  outer loop
    vertex 117.3927154541016 11.62385272979736 18.73592948913574
    vertex 115.5526123046875 10.08304405212402 10.79592990875244
    vertex 115.1970596313477 9.796782493591309 10.88593006134033
  endloop
endfacet
facet normal 0.5382322669029236 -0.8199806213378906 -0.194776177406311
  outer loop
    vertex 120.5315399169922 5.295598030090332 7.209930419921875
    vertex 115.2794570922852 1.976895451545715 6.667930126190186
    vertex 119.7082061767578 5.603648662567139 3.637930154800415
  endloop
endfacet
facet normal -0.007659370545297861 -0.008631758391857147 0.9999334216117859
  outer loop
    vertex 119.4544067382813 26.17424201965332 7.209930419921875
    vertex 119.2008895874023 43.54401779174805 7.357930183410645
    vertex 103.4412384033203 40.38349151611328 7.209930419921875
  endloop
endfacet
facet normal 0.7763621807098389 -0.6120800375938416 0.1503989696502686
  outer loop
    vertex 124.6368789672852 10.6944408416748 7.209930419921875
    vertex 119.9296035766602 5.541481018066406 10.53792953491211
    vertex 120.1327209472656 5.70378303527832 10.14993000030518
  endloop
endfacet
facet normal 0.7622208595275879 -0.6417924165725708 0.08439116925001144
  outer loop
    vertex 124.6368789672852 10.6944408416748 7.209930419921875
    vertex 123.3567276000977 10.68966770172119 18.73592948913574
    vertex 119.9296035766602 5.541481018066406 10.53792953491211
  endloop
endfacet
facet normal -0.6307515501976013 0.775584876537323 0.02491232380270958
  outer loop
    vertex 115.5526123046875 10.08304405212402 8.589929580688477
    vertex 117.3927154541016 11.62385272979736 7.209930419921875
    vertex 115.1970596313477 9.796782493591309 8.499929428100586
  endloop
endfacet
endsolid C7F9
