solid 3C91
facet normal 1 0 0
  outer loop
    vertex 68.28965759277344 51.88770294189453 53.21460723876953
    vertex 68.28965759277344 58.88570404052734 49.21460723876953
    vertex 68.28965759277344 58.88570404052734 53.21460723876953
  endloop
endfacet
facet normal 1 0 0
  outer loop
    vertex 68.28965759277344 51.88770294189453 53.21460723876953
    vertex 68.28965759277344 51.88770294189453 49.21460723876953
    vertex 68.28965759277344 58.88570404052734 49.21460723876953
  endloop
endfacet
facet normal 1 0 0
  outer loop
    vertex 68.28965759277344 51.88770294189453 49.21460723876953
    vertex 68.28965759277344 51.88770294189453 47.71460723876953
    vertex 68.28965759277344 58.88570404052734 49.21460723876953
  endloop
endfacet
facet normal 1 0 0
  outer loop
    vertex 68.28965759277344 58.88570404052734 49.21460723876953
    vertex 68.28965759277344 55.31970596313477 44.89860916137695
    vertex 68.28965759277344 55.38770294189453 44.21460723876953
  endloop
endfacet
facet normal 1 0 0
  outer loop
    vertex 68.28965759277344 58.88570404052734 49.21460723876953
    vertex 68.28965759277344 51.88770294189453 47.71460723876953
    vertex 68.28965759277344 52.56970596313477 47.6466064453125
  endloop
endfacet
facet normal 1 0 0
  outer loop
    vertex 68.28965759277344 58.88570404052734 49.21460723876953
    vertex 68.28965759277344 55.11970520019531 45.55460739135742
    vertex 68.28965759277344 55.31970596313477 44.89860916137695
  endloop
endfacet
facet normal 1 0 0
  outer loop
    vertex 68.28965759277344 58.88570404052734 49.21460723876953
    vertex 68.28965759277344 52.56970596313477 47.6466064453125
    vertex 68.28965759277344 53.22570419311523 47.4486083984375
  endloop
endfacet
facet normal 1 0 0
  outer loop
    vertex 68.28965759277344 58.88570404052734 49.21460723876953
    vertex 68.28965759277344 54.79770278930664 46.15860748291016
    vertex 68.28965759277344 55.11970520019531 45.55460739135742
  endloop
endfacet
facet normal 1 0 0
  outer loop
    vertex 68.28965759277344 58.88570404052734 49.21460723876953
    vertex 68.28965759277344 53.22570419311523 47.4486083984375
    vertex 68.28965759277344 53.83170318603516 47.12460708618164
  endloop
endfacet
facet normal 1 0 0
  outer loop
    vertex 68.28965759277344 58.88570404052734 49.21460723876953
    vertex 68.28965759277344 54.3617057800293 46.69060897827148
    vertex 68.28965759277344 54.79770278930664 46.15860748291016
  endloop
endfacet
facet normal 1 0 0
  outer loop
    vertex 68.28965759277344 58.88570404052734 49.21460723876953
    vertex 68.28965759277344 53.83170318603516 47.12460708618164
    vertex 68.28965759277344 54.3617057800293 46.69060897827148
  endloop
endfacet
facet normal 0 2.595146320061303e-15 1
  outer loop
    vertex 62.68965530395508 51.88770294189453 53.21460723876953
    vertex 68.28965759277344 58.88570404052734 53.21460723876953
    vertex 62.68965530395508 58.88570404052734 53.21460723876953
  endloop
endfacet
facet normal 0 2.595146320061303e-15 1
  outer loop
    vertex 68.28965759277344 51.88770294189453 53.21460723876953
    vertex 68.28965759277344 58.88570404052734 53.21460723876953
    vertex 62.68965530395508 51.88770294189453 53.21460723876953
  endloop
endfacet
facet normal 0 -0.09921495616436005 -0.9950660467147827
  outer loop
    vertex 62.68965530395508 51.88770294189453 47.71460723876953
    vertex 62.68965530395508 52.56970596313477 47.6466064453125
    vertex 68.28965759277344 52.56970596313477 47.6466064453125
  endloop
endfacet
facet normal 2.254830450117234e-18 -0.09921495616436005 -0.9950660467147827
  outer loop
    vertex 62.68965530395508 51.88770294189453 47.71460723876953
    vertex 68.28965759277344 52.56970596313477 47.6466064453125
    vertex 68.28965759277344 51.88770294189453 47.71460723876953
  endloop
endfacet
facet normal 4.689429581218779e-18 -0.2889539897441864 -0.9573429822921753
  outer loop
    vertex 62.68965530395508 52.56970596313477 47.6466064453125
    vertex 62.68965530395508 53.22570419311523 47.4486083984375
    vertex 68.28965759277344 53.22570419311523 47.4486083984375
  endloop
endfacet
facet normal 0 -0.2889539897441864 -0.9573429822921753
  outer loop
    vertex 62.68965530395508 52.56970596313477 47.6466064453125
    vertex 68.28965759277344 53.22570419311523 47.4486083984375
    vertex 68.28965759277344 52.56970596313477 47.6466064453125
  endloop
endfacet
facet normal -5.061966086513674e-18 -0.4714945256710052 -0.8818689584732056
  outer loop
    vertex 62.68965530395508 53.22570419311523 47.4486083984375
    vertex 62.68965530395508 53.83170318603516 47.12460708618164
    vertex 68.28965759277344 53.83170318603516 47.12460708618164
  endloop
endfacet
facet normal 0 -0.4714945256710052 -0.8818689584732056
  outer loop
    vertex 62.68965530395508 53.22570419311523 47.4486083984375
    vertex 68.28965759277344 53.83170318603516 47.12460708618164
    vertex 68.28965759277344 53.22570419311523 47.4486083984375
  endloop
endfacet
facet normal 0 -0.6335555911064148 -0.7736971974372864
  outer loop
    vertex 62.68965530395508 53.83170318603516 47.12460708618164
    vertex 62.68965530395508 54.3617057800293 46.69060897827148
    vertex 68.28965759277344 54.3617057800293 46.69060897827148
  endloop
endfacet
facet normal 5.806029936756148e-18 -0.6335555911064148 -0.7736971974372864
  outer loop
    vertex 62.68965530395508 53.83170318603516 47.12460708618164
    vertex 68.28965759277344 54.3617057800293 46.69060897827148
    vertex 68.28965759277344 53.83170318603516 47.12460708618164
  endloop
endfacet
facet normal -5.760539552559101e-18 -0.7734389305114746 -0.6338708400726318
  outer loop
    vertex 68.28965759277344 54.79770278930664 46.15860748291016
    vertex 62.68965530395508 54.3617057800293 46.69060897827148
    vertex 62.68965530395508 54.79770278930664 46.15860748291016
  endloop
endfacet
facet normal -5.760539552559101e-18 -0.7734389305114746 -0.6338708400726318
  outer loop
    vertex 68.28965759277344 54.3617057800293 46.69060897827148
    vertex 62.68965530395508 54.3617057800293 46.69060897827148
    vertex 68.28965759277344 54.79770278930664 46.15860748291016
  endloop
endfacet
facet normal -5.098807470225867e-18 -0.8824337720870972 -0.4704366028308868
  outer loop
    vertex 68.28965759277344 55.11970520019531 45.55460739135742
    vertex 62.68965530395508 54.79770278930664 46.15860748291016
    vertex 62.68965530395508 55.11970520019531 45.55460739135742
  endloop
endfacet
facet normal -5.098807470225867e-18 -0.8824337720870972 -0.4704366028308868
  outer loop
    vertex 68.28965759277344 54.79770278930664 46.15860748291016
    vertex 62.68965530395508 54.79770278930664 46.15860748291016
    vertex 68.28965759277344 55.11970520019531 45.55460739135742
  endloop
endfacet
facet normal -4.685460355049444e-18 -0.9565324783325195 -0.2916257977485657
  outer loop
    vertex 68.28965759277344 55.31970596313477 44.89860916137695
    vertex 62.68965530395508 55.11970520019531 45.55460739135742
    vertex 62.68965530395508 55.31970596313477 44.89860916137695
  endloop
endfacet
facet normal -4.685460355049444e-18 -0.9565324783325195 -0.2916257977485657
  outer loop
    vertex 68.28965759277344 55.11970520019531 45.55460739135742
    vertex 62.68965530395508 55.11970520019531 45.55460739135742
    vertex 68.28965759277344 55.31970596313477 44.89860916137695
  endloop
endfacet
facet normal -2.241725841262862e-18 -0.9950946569442749 -0.09892764687538147
  outer loop
    vertex 68.28965759277344 55.38770294189453 44.21460723876953
    vertex 62.68965530395508 55.31970596313477 44.89860916137695
    vertex 62.68965530395508 55.38770294189453 44.21460723876953
  endloop
endfacet
facet normal 0 -0.9950946569442749 -0.09892764687538147
  outer loop
    vertex 68.28965759277344 55.31970596313477 44.89860916137695
    vertex 62.68965530395508 55.31970596313477 44.89860916137695
    vertex 68.28965759277344 55.38770294189453 44.21460723876953
  endloop
endfacet
facet normal 1 0 0
  outer loop
    vertex 68.28965759277344 58.88570404052734 49.21460723876953
    vertex 68.28965759277344 55.38770294189453 44.21460723876953
    vertex 68.28965759277344 58.88570404052734 40.21460723876953
  endloop
endfacet
facet normal 0 1 -2.595146320061303e-15
  outer loop
    vertex 63.98965454101563 58.88570404052734 50.21460723876953
    vertex 62.68965530395508 58.88570404052734 49.21460723876953
    vertex 62.68965530395508 58.88570404052734 53.21460723876953
  endloop
endfacet
facet normal 0 1 -2.595146320061303e-15
  outer loop
    vertex 68.28965759277344 58.88570404052734 53.21460723876953
    vertex 66.98965454101563 58.88570404052734 50.21460723876953
    vertex 66.96165466308594 58.88570404052734 50.50660705566406
  endloop
endfacet
facet normal 0 1 -2.595146320061303e-15
  outer loop
    vertex 64.0196533203125 58.88570404052734 50.50660705566406
    vertex 63.98965454101563 58.88570404052734 50.21460723876953
    vertex 62.68965530395508 58.88570404052734 53.21460723876953
  endloop
endfacet
facet normal 0 1 -2.595146320061303e-15
  outer loop
    vertex 68.28965759277344 58.88570404052734 53.21460723876953
    vertex 66.96165466308594 58.88570404052734 50.50660705566406
    vertex 66.87565612792969 58.88570404052734 50.78860855102539
  endloop
endfacet
facet normal 0 1 -2.595146320061303e-15
  outer loop
    vertex 64.10365295410156 58.88570404052734 50.78860855102539
    vertex 64.0196533203125 58.88570404052734 50.50660705566406
    vertex 62.68965530395508 58.88570404052734 53.21460723876953
  endloop
endfacet
facet normal 0 1 -2.595146320061303e-15
  outer loop
    vertex 68.28965759277344 58.88570404052734 53.21460723876953
    vertex 66.87565612792969 58.88570404052734 50.78860855102539
    vertex 66.73765563964844 58.88570404052734 51.04860687255859
  endloop
endfacet
facet normal 0 1 -2.595146320061303e-15
  outer loop
    vertex 64.24365234375 58.88570404052734 51.04860687255859
    vertex 64.10365295410156 58.88570404052734 50.78860855102539
    vertex 62.68965530395508 58.88570404052734 53.21460723876953
  endloop
endfacet
facet normal 0 1 -2.595146320061303e-15
  outer loop
    vertex 68.28965759277344 58.88570404052734 53.21460723876953
    vertex 66.73765563964844 58.88570404052734 51.04860687255859
    vertex 66.54965209960938 58.88570404052734 51.27460861206055
  endloop
endfacet
facet normal 0 1 -2.595146320061303e-15
  outer loop
    vertex 64.42965698242188 58.88570404052734 51.27460861206055
    vertex 64.24365234375 58.88570404052734 51.04860687255859
    vertex 62.68965530395508 58.88570404052734 53.21460723876953
  endloop
endfacet
facet normal 0 1 -2.595146320061303e-15
  outer loop
    vertex 68.28965759277344 58.88570404052734 53.21460723876953
    vertex 66.54965209960938 58.88570404052734 51.27460861206055
    vertex 66.32365417480469 58.88570404052734 51.46260833740234
  endloop
endfacet
facet normal 0 1 -2.595146320061303e-15
  outer loop
    vertex 64.65565490722656 58.88570404052734 51.46260833740234
    vertex 64.42965698242188 58.88570404052734 51.27460861206055
    vertex 62.68965530395508 58.88570404052734 53.21460723876953
  endloop
endfacet
facet normal 0 1 -2.595146320061303e-15
  outer loop
    vertex 68.28965759277344 58.88570404052734 53.21460723876953
    vertex 66.32365417480469 58.88570404052734 51.46260833740234
    vertex 66.06365203857422 58.88570404052734 51.60060882568359
  endloop
endfacet
facet normal 0 1 -2.595146320061303e-15
  outer loop
    vertex 64.91565704345703 58.88570404052734 51.60060882568359
    vertex 64.65565490722656 58.88570404052734 51.46260833740234
    vertex 62.68965530395508 58.88570404052734 53.21460723876953
  endloop
endfacet
facet normal 0 1 -2.595146320061303e-15
  outer loop
    vertex 68.28965759277344 58.88570404052734 53.21460723876953
    vertex 66.06365203857422 58.88570404052734 51.60060882568359
    vertex 65.78165435791016 58.88570404052734 51.68660736083984
  endloop
endfacet
facet normal 0 1 -2.595146320061303e-15
  outer loop
    vertex 65.19765472412109 58.88570404052734 51.68660736083984
    vertex 64.91565704345703 58.88570404052734 51.60060882568359
    vertex 62.68965530395508 58.88570404052734 53.21460723876953
  endloop
endfacet
facet normal 0 1 -2.595146320061303e-15
  outer loop
    vertex 68.28965759277344 58.88570404052734 53.21460723876953
    vertex 65.78165435791016 58.88570404052734 51.68660736083984
    vertex 62.68965530395508 58.88570404052734 53.21460723876953
  endloop
endfacet
facet normal 0 1 -2.595146320061303e-15
  outer loop
    vertex 65.48965454101563 58.88570404052734 51.71460723876953
    vertex 65.19765472412109 58.88570404052734 51.68660736083984
    vertex 62.68965530395508 58.88570404052734 53.21460723876953
  endloop
endfacet
facet normal 0 1 -2.595146320061303e-15
  outer loop
    vertex 65.78165435791016 58.88570404052734 51.68660736083984
    vertex 65.48965454101563 58.88570404052734 51.71460723876953
    vertex 62.68965530395508 58.88570404052734 53.21460723876953
  endloop
endfacet
facet normal 0 -1 2.595146320061303e-15
  outer loop
    vertex 68.28965759277344 51.88770294189453 53.21460723876953
    vertex 66.32365417480469 51.88770294189453 51.46260833740234
    vertex 66.54965209960938 51.88770294189453 51.27460861206055
  endloop
endfacet
facet normal 0 -1 2.595146320061303e-15
  outer loop
    vertex 64.65565490722656 51.88770294189453 51.46260833740234
    vertex 62.68965530395508 51.88770294189453 53.21460723876953
    vertex 64.42965698242188 51.88770294189453 51.27460861206055
  endloop
endfacet
facet normal 0 -1 2.595146320061303e-15
  outer loop
    vertex 68.28965759277344 51.88770294189453 53.21460723876953
    vertex 66.06365203857422 51.88770294189453 51.60060882568359
    vertex 66.32365417480469 51.88770294189453 51.46260833740234
  endloop
endfacet
facet normal 0 -1 2.595146320061303e-15
  outer loop
    vertex 64.91565704345703 51.88770294189453 51.60060882568359
    vertex 62.68965530395508 51.88770294189453 53.21460723876953
    vertex 64.65565490722656 51.88770294189453 51.46260833740234
  endloop
endfacet
facet normal 0 -1 2.595146320061303e-15
  outer loop
    vertex 68.28965759277344 51.88770294189453 53.21460723876953
    vertex 65.78165435791016 51.88770294189453 51.68660736083984
    vertex 66.06365203857422 51.88770294189453 51.60060882568359
  endloop
endfacet
facet normal 0 -1 2.595146320061303e-15
  outer loop
    vertex 65.19765472412109 51.88770294189453 51.68660736083984
    vertex 62.68965530395508 51.88770294189453 53.21460723876953
    vertex 64.91565704345703 51.88770294189453 51.60060882568359
  endloop
endfacet
facet normal 0 -1 2.595146320061303e-15
  outer loop
    vertex 68.28965759277344 51.88770294189453 53.21460723876953
    vertex 62.68965530395508 51.88770294189453 53.21460723876953
    vertex 65.78165435791016 51.88770294189453 51.68660736083984
  endloop
endfacet
facet normal 0 -1 2.595146320061303e-15
  outer loop
    vertex 65.48965454101563 51.88770294189453 51.71460723876953
    vertex 62.68965530395508 51.88770294189453 53.21460723876953
    vertex 65.19765472412109 51.88770294189453 51.68660736083984
  endloop
endfacet
facet normal 0 -1 2.595146320061303e-15
  outer loop
    vertex 65.78165435791016 51.88770294189453 51.68660736083984
    vertex 62.68965530395508 51.88770294189453 53.21460723876953
    vertex 65.48965454101563 51.88770294189453 51.71460723876953
  endloop
endfacet
facet normal -0.09545215964317322 -2.583789302304518e-15 -0.995434045791626
  outer loop
    vertex 65.78165435791016 51.88770294189453 51.68660736083984
    vertex 65.48965454101563 58.88570404052734 51.71460723876953
    vertex 65.78165435791016 58.88570404052734 51.68660736083984
  endloop
endfacet
facet normal -0.09545215964317322 -2.583296964403926e-15 -0.995434045791626
  outer loop
    vertex 65.48965454101563 51.88770294189453 51.71460723876953
    vertex 65.48965454101563 58.88570404052734 51.71460723876953
    vertex 65.78165435791016 51.88770294189453 51.68660736083984
  endloop
endfacet
facet normal -0.2917013466358185 -2.481267187225936e-15 -0.9565094709396362
  outer loop
    vertex 66.06365203857422 51.88770294189453 51.60060882568359
    vertex 65.78165435791016 58.88570404052734 51.68660736083984
    vertex 66.06365203857422 58.88570404052734 51.60060882568359
  endloop
endfacet
facet normal -0.2917013466358185 -2.481267187225936e-15 -0.9565094709396362
  outer loop
    vertex 65.78165435791016 51.88770294189453 51.68660736083984
    vertex 65.78165435791016 58.88570404052734 51.68660736083984
    vertex 66.06365203857422 51.88770294189453 51.60060882568359
  endloop
endfacet
facet normal -0.4688239693641663 -2.292271055045689e-15 -0.8832916021347046
  outer loop
    vertex 66.32365417480469 51.88770294189453 51.46260833740234
    vertex 66.06365203857422 58.88570404052734 51.60060882568359
    vertex 66.32365417480469 58.88570404052734 51.46260833740234
  endloop
endfacet
facet normal -0.4688239693641663 -2.292271055045689e-15 -0.8832916021347046
  outer loop
    vertex 66.06365203857422 51.88770294189453 51.60060882568359
    vertex 66.06365203857422 58.88570404052734 51.60060882568359
    vertex 66.32365417480469 51.88770294189453 51.46260833740234
  endloop
endfacet
facet normal -0.6395154595375061 -1.995092086600359e-15 -0.7687782049179077
  outer loop
    vertex 66.54965209960938 51.88770294189453 51.27460861206055
    vertex 66.32365417480469 58.88570404052734 51.46260833740234
    vertex 66.54965209960938 58.88570404052734 51.27460861206055
  endloop
endfacet
facet normal -0.6395154595375061 -1.995092086600359e-15 -0.7687782049179077
  outer loop
    vertex 66.32365417480469 51.88770294189453 51.46260833740234
    vertex 66.32365417480469 58.88570404052734 51.46260833740234
    vertex 66.54965209960938 51.88770294189453 51.27460861206055
  endloop
endfacet
facet normal -0.7687782645225525 -1.662175845198305e-15 -0.6395153999328613
  outer loop
    vertex 66.54965209960938 58.88570404052734 51.27460861206055
    vertex 66.73765563964844 58.88570404052734 51.04860687255859
    vertex 66.73765563964844 51.88770294189453 51.04860687255859
  endloop
endfacet
facet normal -0.7687782645225525 -1.659636122785082e-15 -0.6395153999328613
  outer loop
    vertex 66.54965209960938 58.88570404052734 51.27460861206055
    vertex 66.73765563964844 51.88770294189453 51.04860687255859
    vertex 66.54965209960938 51.88770294189453 51.27460861206055
  endloop
endfacet
facet normal -0.8832914233207703 -1.216667855161592e-15 -0.4688243865966797
  outer loop
    vertex 66.73765563964844 58.88570404052734 51.04860687255859
    vertex 66.87565612792969 58.88570404052734 50.78860855102539
    vertex 66.87565612792969 51.88770294189453 50.78860855102539
  endloop
endfacet
facet normal -0.8832914233207703 -1.216667855161592e-15 -0.4688243865966797
  outer loop
    vertex 66.73765563964844 58.88570404052734 51.04860687255859
    vertex 66.87565612792969 51.88770294189453 50.78860855102539
    vertex 66.73765563964844 51.88770294189453 51.04860687255859
  endloop
endfacet
facet normal -0.9565094709396362 -7.570075327630347e-16 -0.2917012870311737
  outer loop
    vertex 66.87565612792969 58.88570404052734 50.78860855102539
    vertex 66.96165466308594 58.88570404052734 50.50660705566406
    vertex 66.96165466308594 51.88770294189453 50.50660705566406
  endloop
endfacet
facet normal -0.9565094709396362 -7.549779888818542e-16 -0.2917012870311737
  outer loop
    vertex 66.87565612792969 58.88570404052734 50.78860855102539
    vertex 66.96165466308594 51.88770294189453 50.50660705566406
    vertex 66.87565612792969 51.88770294189453 50.78860855102539
  endloop
endfacet
facet normal -0.9954339861869812 -2.472206475789157e-16 -0.09545246511697769
  outer loop
    vertex 66.96165466308594 58.88570404052734 50.50660705566406
    vertex 66.98965454101563 58.88570404052734 50.21460723876953
    vertex 66.98965454101563 51.88770294189453 50.21460723876953
  endloop
endfacet
facet normal -0.9954339861869812 -2.472206475789157e-16 -0.09545246511697769
  outer loop
    vertex 66.96165466308594 58.88570404052734 50.50660705566406
    vertex 66.98965454101563 51.88770294189453 50.21460723876953
    vertex 66.96165466308594 51.88770294189453 50.50660705566406
  endloop
endfacet
facet normal -0.9954339861869812 2.477135148750993e-16 0.09545262157917023
  outer loop
    vertex 66.98965454101563 58.88570404052734 50.21460723876953
    vertex 66.96165466308594 58.88570404052734 49.922607421875
    vertex 66.96165466308594 51.88770294189453 49.922607421875
  endloop
endfacet
facet normal -0.9954339861869812 2.477135148750993e-16 0.09545262157917023
  outer loop
    vertex 66.98965454101563 58.88570404052734 50.21460723876953
    vertex 66.96165466308594 51.88770294189453 49.922607421875
    vertex 66.98965454101563 51.88770294189453 50.21460723876953
  endloop
endfacet
facet normal -0.9565094709396362 7.580222782338454e-16 0.2917012870311737
  outer loop
    vertex 66.96165466308594 58.88570404052734 49.922607421875
    vertex 66.87565612792969 58.88570404052734 49.64060592651367
    vertex 66.87565612792969 51.88770294189453 49.64060592651367
  endloop
endfacet
facet normal -0.9565094709396362 7.580222782338454e-16 0.2917012870311737
  outer loop
    vertex 66.96165466308594 58.88570404052734 49.922607421875
    vertex 66.87565612792969 51.88770294189453 49.64060592651367
    vertex 66.96165466308594 51.88770294189453 49.922607421875
  endloop
endfacet
facet normal -0.8832917809486389 1.214461440213113e-15 0.4688237011432648
  outer loop
    vertex 66.87565612792969 58.88570404052734 49.64060592651367
    vertex 66.73765563964844 58.88570404052734 49.38060760498047
    vertex 66.73765563964844 51.88770294189453 49.38060760498047
  endloop
endfacet
facet normal -0.8832917809486389 1.216666161095697e-15 0.4688237011432648
  outer loop
    vertex 66.87565612792969 58.88570404052734 49.64060592651367
    vertex 66.73765563964844 51.88770294189453 49.38060760498047
    vertex 66.87565612792969 51.88770294189453 49.64060592651367
  endloop
endfacet
facet normal -0.7687782645225525 1.659636122785082e-15 0.6395153999328613
  outer loop
    vertex 66.73765563964844 58.88570404052734 49.38060760498047
    vertex 66.54965209960938 58.88570404052734 49.15460586547852
    vertex 66.54965209960938 51.88770294189453 49.15460586547852
  endloop
endfacet
facet normal -0.7687782645225525 1.659636122785082e-15 0.6395153999328613
  outer loop
    vertex 66.73765563964844 58.88570404052734 49.38060760498047
    vertex 66.54965209960938 51.88770294189453 49.15460586547852
    vertex 66.73765563964844 51.88770294189453 49.38060760498047
  endloop
endfacet
facet normal -0.635467529296875 2.006334754909266e-15 0.7721275687217712
  outer loop
    vertex 66.32365417480469 51.88770294189453 48.96860885620117
    vertex 66.54965209960938 58.88570404052734 49.15460586547852
    vertex 66.32365417480469 58.88570404052734 48.96860885620117
  endloop
endfacet
facet normal -0.635467529296875 2.006334754909266e-15 0.7721275687217712
  outer loop
    vertex 66.54965209960938 51.88770294189453 49.15460586547852
    vertex 66.54965209960938 58.88570404052734 49.15460586547852
    vertex 66.32365417480469 51.88770294189453 48.96860885620117
  endloop
endfacet
facet normal -0.474100649356842 2.28495014928257e-15 0.8804706335067749
  outer loop
    vertex 66.06365203857422 51.88770294189453 48.82860565185547
    vertex 66.32365417480469 58.88570404052734 48.96860885620117
    vertex 66.06365203857422 58.88570404052734 48.82860565185547
  endloop
endfacet
facet normal -0.474100649356842 2.28495014928257e-15 0.8804706335067749
  outer loop
    vertex 66.32365417480469 51.88770294189453 48.96860885620117
    vertex 66.32365417480469 58.88570404052734 48.96860885620117
    vertex 66.06365203857422 51.88770294189453 48.82860565185547
  endloop
endfacet
facet normal -0.2854754328727722 2.486135297332043e-15 0.9583860039710999
  outer loop
    vertex 65.78165435791016 51.88770294189453 48.74460601806641
    vertex 66.06365203857422 58.88570404052734 48.82860565185547
    vertex 65.78165435791016 58.88570404052734 48.74460601806641
  endloop
endfacet
facet normal -0.2854754328727722 2.486135297332043e-15 0.9583860039710999
  outer loop
    vertex 66.06365203857422 51.88770294189453 48.82860565185547
    vertex 66.06365203857422 58.88570404052734 48.82860565185547
    vertex 65.78165435791016 51.88770294189453 48.74460601806641
  endloop
endfacet
facet normal -0.1022024527192116 2.581557158730266e-15 0.9947636127471924
  outer loop
    vertex 65.48965454101563 51.88770294189453 48.71460723876953
    vertex 65.78165435791016 58.88570404052734 48.74460601806641
    vertex 65.48965454101563 58.88570404052734 48.71460723876953
  endloop
endfacet
facet normal -0.1022024527192116 2.581557158730266e-15 0.9947636127471924
  outer loop
    vertex 65.78165435791016 51.88770294189453 48.74460601806641
    vertex 65.78165435791016 58.88570404052734 48.74460601806641
    vertex 65.48965454101563 51.88770294189453 48.71460723876953
  endloop
endfacet
facet normal 0 -1 2.595146320061303e-15
  outer loop
    vertex 68.28965759277344 51.88770294189453 40.71460723876953
    vertex 62.68965530395508 51.88770294189453 40.71460723876953
    vertex 65.48965454101563 51.88770294189453 39.71460723876953
  endloop
endfacet
facet normal 0 -1 2.595146320061303e-15
  outer loop
    vertex 68.28965759277344 51.88770294189453 40.71460723876953
    vertex 66.98965454101563 51.88770294189453 38.21460723876953
    vertex 68.28965759277344 51.88770294189453 35.21460723876953
  endloop
endfacet
facet normal -1 0 0
  outer loop
    vertex 62.68965530395508 58.88570404052734 49.21460723876953
    vertex 62.68965530395508 55.38770294189453 44.21460723876953
    vertex 62.68965530395508 55.31970596313477 44.89860916137695
  endloop
endfacet
facet normal -1 0 0
  outer loop
    vertex 62.68965530395508 58.88570404052734 49.21460723876953
    vertex 62.68965530395508 52.56970596313477 47.6466064453125
    vertex 62.68965530395508 51.88770294189453 47.71460723876953
  endloop
endfacet
facet normal -1 0 0
  outer loop
    vertex 62.68965530395508 58.88570404052734 49.21460723876953
    vertex 62.68965530395508 55.31970596313477 44.89860916137695
    vertex 62.68965530395508 55.11970520019531 45.55460739135742
  endloop
endfacet
facet normal -1 0 0
  outer loop
    vertex 62.68965530395508 58.88570404052734 49.21460723876953
    vertex 62.68965530395508 53.22570419311523 47.4486083984375
    vertex 62.68965530395508 52.56970596313477 47.6466064453125
  endloop
endfacet
facet normal -1 0 0
  outer loop
    vertex 62.68965530395508 58.88570404052734 49.21460723876953
    vertex 62.68965530395508 55.11970520019531 45.55460739135742
    vertex 62.68965530395508 54.79770278930664 46.15860748291016
  endloop
endfacet
facet normal -1 0 0
  outer loop
    vertex 62.68965530395508 58.88570404052734 49.21460723876953
    vertex 62.68965530395508 53.83170318603516 47.12460708618164
    vertex 62.68965530395508 53.22570419311523 47.4486083984375
  endloop
endfacet
facet normal -1 0 0
  outer loop
    vertex 62.68965530395508 58.88570404052734 49.21460723876953
    vertex 62.68965530395508 54.79770278930664 46.15860748291016
    vertex 62.68965530395508 54.3617057800293 46.69060897827148
  endloop
endfacet
facet normal -1 0 0
  outer loop
    vertex 62.68965530395508 58.88570404052734 49.21460723876953
    vertex 62.68965530395508 54.3617057800293 46.69060897827148
    vertex 62.68965530395508 53.83170318603516 47.12460708618164
  endloop
endfacet
facet normal -1.127414087685275e-18 -0.9950660467147827 0.09921490401029587
  outer loop
    vertex 68.28965759277344 55.31970596313477 43.53260803222656
    vertex 62.68965530395508 55.38770294189453 44.21460723876953
    vertex 62.68965530395508 55.31970596313477 43.53260803222656
  endloop
endfacet
facet normal 1.127414087685275e-18 -0.9950660467147827 0.09921490401029587
  outer loop
    vertex 68.28965759277344 55.38770294189453 44.21460723876953
    vertex 62.68965530395508 55.38770294189453 44.21460723876953
    vertex 68.28965759277344 55.31970596313477 43.53260803222656
  endloop
endfacet
facet normal 1 0 0
  outer loop
    vertex 68.28965759277344 55.38770294189453 44.21460723876953
    vertex 68.28965759277344 55.31970596313477 43.53260803222656
    vertex 68.28965759277344 58.88570404052734 40.21460723876953
  endloop
endfacet
facet normal 1 0 0
  outer loop
    vertex 68.28965759277344 52.56970596313477 40.78260803222656
    vertex 68.28965759277344 51.88770294189453 40.71460723876953
    vertex 68.28965759277344 58.88570404052734 40.21460723876953
  endloop
endfacet
facet normal 1 0 0
  outer loop
    vertex 68.28965759277344 55.31970596313477 43.53260803222656
    vertex 68.28965759277344 55.11970520019531 42.87460708618164
    vertex 68.28965759277344 58.88570404052734 40.21460723876953
  endloop
endfacet
facet normal 1 0 0
  outer loop
    vertex 68.28965759277344 53.22570419311523 40.98060607910156
    vertex 68.28965759277344 52.56970596313477 40.78260803222656
    vertex 68.28965759277344 58.88570404052734 40.21460723876953
  endloop
endfacet
facet normal 1 0 0
  outer loop
    vertex 68.28965759277344 55.11970520019531 42.87460708618164
    vertex 68.28965759277344 54.79770278930664 42.27060699462891
    vertex 68.28965759277344 58.88570404052734 40.21460723876953
  endloop
endfacet
facet normal 1 0 0
  outer loop
    vertex 68.28965759277344 53.83170318603516 41.30460739135742
    vertex 68.28965759277344 53.22570419311523 40.98060607910156
    vertex 68.28965759277344 58.88570404052734 40.21460723876953
  endloop
endfacet
facet normal 1 0 0
  outer loop
    vertex 68.28965759277344 54.79770278930664 42.27060699462891
    vertex 68.28965759277344 54.3617057800293 41.74060821533203
    vertex 68.28965759277344 58.88570404052734 40.21460723876953
  endloop
endfacet
facet normal 1 0 0
  outer loop
    vertex 68.28965759277344 54.3617057800293 41.74060821533203
    vertex 68.28965759277344 53.83170318603516 41.30460739135742
    vertex 68.28965759277344 58.88570404052734 40.21460723876953
  endloop
endfacet
facet normal 0 1 -2.595146320061303e-15
  outer loop
    vertex 68.28965759277344 58.88570404052734 35.21460723876953
    vertex 66.98965454101563 58.88570404052734 38.21460723876953
    vertex 68.28965759277344 58.88570404052734 40.21460723876953
  endloop
endfacet
facet normal 0 1 -2.595146320061303e-15
  outer loop
    vertex 68.28965759277344 58.88570404052734 49.21460723876953
    vertex 66.98965454101563 58.88570404052734 50.21460723876953
    vertex 68.28965759277344 58.88570404052734 53.21460723876953
  endloop
endfacet
facet normal 0 1 -2.595146320061303e-15
  outer loop
    vertex 64.0196533203125 58.88570404052734 49.922607421875
    vertex 62.68965530395508 58.88570404052734 49.21460723876953
    vertex 63.98965454101563 58.88570404052734 50.21460723876953
  endloop
endfacet
facet normal 0 1 -2.595146320061303e-15
  outer loop
    vertex 68.28965759277344 58.88570404052734 40.21460723876953
    vertex 66.96165466308594 58.88570404052734 49.922607421875
    vertex 66.98965454101563 58.88570404052734 50.21460723876953
  endloop
endfacet
facet normal 0 1 -2.595146320061303e-15
  outer loop
    vertex 64.10365295410156 58.88570404052734 49.64060592651367
    vertex 62.68965530395508 58.88570404052734 49.21460723876953
    vertex 64.0196533203125 58.88570404052734 49.922607421875
  endloop
endfacet
facet normal 0 1 -2.595146320061303e-15
  outer loop
    vertex 68.28965759277344 58.88570404052734 40.21460723876953
    vertex 66.87565612792969 58.88570404052734 49.64060592651367
    vertex 66.96165466308594 58.88570404052734 49.922607421875
  endloop
endfacet
facet normal 0 1 -2.595146320061303e-15
  outer loop
    vertex 64.24365234375 58.88570404052734 49.38060760498047
    vertex 62.68965530395508 58.88570404052734 49.21460723876953
    vertex 64.10365295410156 58.88570404052734 49.64060592651367
  endloop
endfacet
facet normal 0 1 -2.595146320061303e-15
  outer loop
    vertex 68.28965759277344 58.88570404052734 40.21460723876953
    vertex 66.73765563964844 58.88570404052734 49.38060760498047
    vertex 66.87565612792969 58.88570404052734 49.64060592651367
  endloop
endfacet
facet normal 0 1 -2.595146320061303e-15
  outer loop
    vertex 64.42965698242188 58.88570404052734 49.15460586547852
    vertex 62.68965530395508 58.88570404052734 49.21460723876953
    vertex 64.24365234375 58.88570404052734 49.38060760498047
  endloop
endfacet
facet normal 0 1 -2.595146320061303e-15
  outer loop
    vertex 68.28965759277344 58.88570404052734 40.21460723876953
    vertex 66.54965209960938 58.88570404052734 49.15460586547852
    vertex 66.73765563964844 58.88570404052734 49.38060760498047
  endloop
endfacet
facet normal 0 1 -2.595146320061303e-15
  outer loop
    vertex 64.65565490722656 58.88570404052734 48.96860885620117
    vertex 62.68965530395508 58.88570404052734 49.21460723876953
    vertex 64.42965698242188 58.88570404052734 49.15460586547852
  endloop
endfacet
facet normal 0 1 -2.595146320061303e-15
  outer loop
    vertex 68.28965759277344 58.88570404052734 40.21460723876953
    vertex 66.32365417480469 58.88570404052734 48.96860885620117
    vertex 66.54965209960938 58.88570404052734 49.15460586547852
  endloop
endfacet
facet normal 0 1 -2.595146320061303e-15
  outer loop
    vertex 64.91565704345703 58.88570404052734 48.82860565185547
    vertex 62.68965530395508 58.88570404052734 49.21460723876953
    vertex 64.65565490722656 58.88570404052734 48.96860885620117
  endloop
endfacet
facet normal 0 1 -2.595146320061303e-15
  outer loop
    vertex 68.28965759277344 58.88570404052734 40.21460723876953
    vertex 66.06365203857422 58.88570404052734 48.82860565185547
    vertex 66.32365417480469 58.88570404052734 48.96860885620117
  endloop
endfacet
facet normal 0 1 -2.595146320061303e-15
  outer loop
    vertex 64.91565704345703 58.88570404052734 48.82860565185547
    vertex 62.68965530395508 58.88570404052734 40.21460723876953
    vertex 62.68965530395508 58.88570404052734 49.21460723876953
  endloop
endfacet
facet normal 0 1 -2.595146320061303e-15
  outer loop
    vertex 68.28965759277344 58.88570404052734 40.21460723876953
    vertex 65.78165435791016 58.88570404052734 48.74460601806641
    vertex 66.06365203857422 58.88570404052734 48.82860565185547
  endloop
endfacet
facet normal 0 1 -2.595146320061303e-15
  outer loop
    vertex 64.10365295410156 58.88570404052734 37.64060592651367
    vertex 62.68965530395508 58.88570404052734 35.21460723876953
    vertex 64.0196533203125 58.88570404052734 37.922607421875
  endloop
endfacet
facet normal 0 1 -2.595146320061303e-15
  outer loop
    vertex 68.28965759277344 58.88570404052734 40.21460723876953
    vertex 65.48965454101563 58.88570404052734 48.71460723876953
    vertex 65.78165435791016 58.88570404052734 48.74460601806641
  endloop
endfacet
facet normal 0 1 -2.595146320061303e-15
  outer loop
    vertex 65.48965454101563 58.88570404052734 48.71460723876953
    vertex 62.68965530395508 58.88570404052734 40.21460723876953
    vertex 65.19765472412109 58.88570404052734 48.74460601806641
  endloop
endfacet
facet normal 0 1 -2.595146320061303e-15
  outer loop
    vertex 64.0196533203125 58.88570404052734 38.50660705566406
    vertex 63.98965454101563 58.88570404052734 38.21460723876953
    vertex 62.68965530395508 58.88570404052734 40.21460723876953
  endloop
endfacet
facet normal 0 1 -2.595146320061303e-15
  outer loop
    vertex 68.28965759277344 58.88570404052734 40.21460723876953
    vertex 66.98965454101563 58.88570404052734 38.21460723876953
    vertex 66.96165466308594 58.88570404052734 38.50660705566406
  endloop
endfacet
facet normal 0 1 -2.595146320061303e-15
  outer loop
    vertex 64.10365295410156 58.88570404052734 38.78860855102539
    vertex 64.0196533203125 58.88570404052734 38.50660705566406
    vertex 62.68965530395508 58.88570404052734 40.21460723876953
  endloop
endfacet
facet normal 0 1 -2.595146320061303e-15
  outer loop
    vertex 68.28965759277344 58.88570404052734 40.21460723876953
    vertex 66.96165466308594 58.88570404052734 38.50660705566406
    vertex 66.87565612792969 58.88570404052734 38.78860855102539
  endloop
endfacet
facet normal 0 1 -2.595146320061303e-15
  outer loop
    vertex 64.24365234375 58.88570404052734 39.04860687255859
    vertex 64.10365295410156 58.88570404052734 38.78860855102539
    vertex 62.68965530395508 58.88570404052734 40.21460723876953
  endloop
endfacet
facet normal 0 1 -2.595146320061303e-15
  outer loop
    vertex 68.28965759277344 58.88570404052734 40.21460723876953
    vertex 66.87565612792969 58.88570404052734 38.78860855102539
    vertex 66.73765563964844 58.88570404052734 39.04860687255859
  endloop
endfacet
facet normal 0 1 -2.595146320061303e-15
  outer loop
    vertex 64.42965698242188 58.88570404052734 39.27460861206055
    vertex 64.24365234375 58.88570404052734 39.04860687255859
    vertex 62.68965530395508 58.88570404052734 40.21460723876953
  endloop
endfacet
facet normal 0 1 -2.595146320061303e-15
  outer loop
    vertex 68.28965759277344 58.88570404052734 40.21460723876953
    vertex 66.73765563964844 58.88570404052734 39.04860687255859
    vertex 66.54965209960938 58.88570404052734 39.27460861206055
  endloop
endfacet
facet normal 0 1 -2.595146320061303e-15
  outer loop
    vertex 64.65565490722656 58.88570404052734 39.46260833740234
    vertex 64.42965698242188 58.88570404052734 39.27460861206055
    vertex 62.68965530395508 58.88570404052734 40.21460723876953
  endloop
endfacet
facet normal 0 1 -2.595146320061303e-15
  outer loop
    vertex 68.28965759277344 58.88570404052734 40.21460723876953
    vertex 66.54965209960938 58.88570404052734 39.27460861206055
    vertex 66.32365417480469 58.88570404052734 39.46260833740234
  endloop
endfacet
facet normal 0 1 -2.595146320061303e-15
  outer loop
    vertex 64.91565704345703 58.88570404052734 39.60060882568359
    vertex 64.65565490722656 58.88570404052734 39.46260833740234
    vertex 62.68965530395508 58.88570404052734 40.21460723876953
  endloop
endfacet
facet normal 0 1 -2.595146320061303e-15
  outer loop
    vertex 68.28965759277344 58.88570404052734 40.21460723876953
    vertex 66.32365417480469 58.88570404052734 39.46260833740234
    vertex 66.06365203857422 58.88570404052734 39.60060882568359
  endloop
endfacet
facet normal 0 1 -2.595146320061303e-15
  outer loop
    vertex 65.19765472412109 58.88570404052734 39.68660736083984
    vertex 64.91565704345703 58.88570404052734 39.60060882568359
    vertex 62.68965530395508 58.88570404052734 40.21460723876953
  endloop
endfacet
facet normal 0 1 -2.595146320061303e-15
  outer loop
    vertex 68.28965759277344 58.88570404052734 40.21460723876953
    vertex 66.06365203857422 58.88570404052734 39.60060882568359
    vertex 65.78165435791016 58.88570404052734 39.68660736083984
  endloop
endfacet
facet normal 0 1 -2.595146320061303e-15
  outer loop
    vertex 65.48965454101563 58.88570404052734 39.71460723876953
    vertex 65.19765472412109 58.88570404052734 39.68660736083984
    vertex 62.68965530395508 58.88570404052734 40.21460723876953
  endloop
endfacet
facet normal 0 1 -2.595146320061303e-15
  outer loop
    vertex 65.78165435791016 58.88570404052734 39.68660736083984
    vertex 65.48965454101563 58.88570404052734 39.71460723876953
    vertex 65.48965454101563 58.88570404052734 48.71460723876953
  endloop
endfacet
facet normal 0 1 -2.595146320061303e-15
  outer loop
    vertex 65.48965454101563 58.88570404052734 39.71460723876953
    vertex 62.68965530395508 58.88570404052734 40.21460723876953
    vertex 65.48965454101563 58.88570404052734 48.71460723876953
  endloop
endfacet
facet normal 0 1 -2.595146320061303e-15
  outer loop
    vertex 68.28965759277344 58.88570404052734 40.21460723876953
    vertex 65.78165435791016 58.88570404052734 39.68660736083984
    vertex 65.48965454101563 58.88570404052734 48.71460723876953
  endloop
endfacet
facet normal 0 1 -2.595146320061303e-15
  outer loop
    vertex 64.0196533203125 58.88570404052734 37.922607421875
    vertex 62.68965530395508 58.88570404052734 40.21460723876953
    vertex 63.98965454101563 58.88570404052734 38.21460723876953
  endloop
endfacet
facet normal 0 1 -2.595146320061303e-15
  outer loop
    vertex 68.28965759277344 58.88570404052734 35.21460723876953
    vertex 66.96165466308594 58.88570404052734 37.922607421875
    vertex 66.98965454101563 58.88570404052734 38.21460723876953
  endloop
endfacet
facet normal 0 1 -2.595146320061303e-15
  outer loop
    vertex 64.0196533203125 58.88570404052734 37.922607421875
    vertex 62.68965530395508 58.88570404052734 35.21460723876953
    vertex 62.68965530395508 58.88570404052734 40.21460723876953
  endloop
endfacet
facet normal 0 1 -2.595146320061303e-15
  outer loop
    vertex 68.28965759277344 58.88570404052734 35.21460723876953
    vertex 66.87565612792969 58.88570404052734 37.64060592651367
    vertex 66.96165466308594 58.88570404052734 37.922607421875
  endloop
endfacet
facet normal 0 -1 2.595146320061303e-15
  outer loop
    vertex 68.28965759277344 51.88770294189453 35.21460723876953
    vertex 65.78165435791016 51.88770294189453 36.74460601806641
    vertex 62.68965530395508 51.88770294189453 35.21460723876953
  endloop
endfacet
facet normal 0 1 -2.595146320061303e-15
  outer loop
    vertex 68.28965759277344 58.88570404052734 35.21460723876953
    vertex 66.73765563964844 58.88570404052734 37.38060760498047
    vertex 66.87565612792969 58.88570404052734 37.64060592651367
  endloop
endfacet
facet normal 0 -1 2.595146320061303e-15
  outer loop
    vertex 68.28965759277344 51.88770294189453 47.71460723876953
    vertex 66.54965209960938 51.88770294189453 49.15460586547852
    vertex 66.32365417480469 51.88770294189453 48.96860885620117
  endloop
endfacet
facet normal 0 1 -2.595146320061303e-15
  outer loop
    vertex 68.28965759277344 58.88570404052734 35.21460723876953
    vertex 66.54965209960938 58.88570404052734 37.15460586547852
    vertex 66.73765563964844 58.88570404052734 37.38060760498047
  endloop
endfacet
facet normal 0 1 -2.595146320061303e-15
  outer loop
    vertex 64.42965698242188 58.88570404052734 37.15460586547852
    vertex 62.68965530395508 58.88570404052734 35.21460723876953
    vertex 64.24365234375 58.88570404052734 37.38060760498047
  endloop
endfacet
facet normal 0 1 -2.595146320061303e-15
  outer loop
    vertex 68.28965759277344 58.88570404052734 35.21460723876953
    vertex 66.32365417480469 58.88570404052734 36.96860885620117
    vertex 66.54965209960938 58.88570404052734 37.15460586547852
  endloop
endfacet
facet normal 0 1 -2.595146320061303e-15
  outer loop
    vertex 64.65565490722656 58.88570404052734 36.96860885620117
    vertex 62.68965530395508 58.88570404052734 35.21460723876953
    vertex 64.42965698242188 58.88570404052734 37.15460586547852
  endloop
endfacet
facet normal 0 1 -2.595146320061303e-15
  outer loop
    vertex 68.28965759277344 58.88570404052734 35.21460723876953
    vertex 66.06365203857422 58.88570404052734 36.82860565185547
    vertex 66.32365417480469 58.88570404052734 36.96860885620117
  endloop
endfacet
facet normal 0 1 -2.595146320061303e-15
  outer loop
    vertex 64.91565704345703 58.88570404052734 36.82860565185547
    vertex 62.68965530395508 58.88570404052734 35.21460723876953
    vertex 64.65565490722656 58.88570404052734 36.96860885620117
  endloop
endfacet
facet normal 0 1 -2.595146320061303e-15
  outer loop
    vertex 68.28965759277344 58.88570404052734 35.21460723876953
    vertex 65.78165435791016 58.88570404052734 36.74460601806641
    vertex 66.06365203857422 58.88570404052734 36.82860565185547
  endloop
endfacet
facet normal 0 1 -2.595146320061303e-15
  outer loop
    vertex 65.19765472412109 58.88570404052734 36.74460601806641
    vertex 62.68965530395508 58.88570404052734 35.21460723876953
    vertex 64.91565704345703 58.88570404052734 36.82860565185547
  endloop
endfacet
facet normal 0 1 -2.595146320061303e-15
  outer loop
    vertex 68.28965759277344 58.88570404052734 35.21460723876953
    vertex 65.48965454101563 58.88570404052734 36.71460723876953
    vertex 65.78165435791016 58.88570404052734 36.74460601806641
  endloop
endfacet
facet normal 0 1 -2.595146320061303e-15
  outer loop
    vertex 65.48965454101563 58.88570404052734 36.71460723876953
    vertex 62.68965530395508 58.88570404052734 35.21460723876953
    vertex 65.19765472412109 58.88570404052734 36.74460601806641
  endloop
endfacet
facet normal 0 1 -2.595146320061303e-15
  outer loop
    vertex 68.28965759277344 58.88570404052734 35.21460723876953
    vertex 62.68965530395508 58.88570404052734 35.21460723876953
    vertex 65.48965454101563 58.88570404052734 36.71460723876953
  endloop
endfacet
facet normal 0.09545215964317322 -2.583296964403926e-15 -0.995434045791626
  outer loop
    vertex 65.48965454101563 51.88770294189453 51.71460723876953
    vertex 65.19765472412109 58.88570404052734 51.68660736083984
    vertex 65.48965454101563 58.88570404052734 51.71460723876953
  endloop
endfacet
facet normal 0.09545215964317322 -2.583296964403926e-15 -0.995434045791626
  outer loop
    vertex 65.19765472412109 51.88770294189453 51.68660736083984
    vertex 65.19765472412109 58.88570404052734 51.68660736083984
    vertex 65.48965454101563 51.88770294189453 51.71460723876953
  endloop
endfacet
facet normal 0.2917013168334961 -2.480252441755125e-15 -0.9565094709396362
  outer loop
    vertex 65.19765472412109 51.88770294189453 51.68660736083984
    vertex 64.91565704345703 58.88570404052734 51.60060882568359
    vertex 65.19765472412109 58.88570404052734 51.68660736083984
  endloop
endfacet
facet normal 0.2917013168334961 -2.483296678167557e-15 -0.9565094709396362
  outer loop
    vertex 64.91565704345703 51.88770294189453 51.60060882568359
    vertex 64.91565704345703 58.88570404052734 51.60060882568359
    vertex 65.19765472412109 51.88770294189453 51.68660736083984
  endloop
endfacet
facet normal 0.4688240587711334 -2.292270843287452e-15 -0.8832916021347046
  outer loop
    vertex 64.91565704345703 51.88770294189453 51.60060882568359
    vertex 64.65565490722656 58.88570404052734 51.46260833740234
    vertex 64.91565704345703 58.88570404052734 51.60060882568359
  endloop
endfacet
facet normal 0.4688240587711334 -2.292270843287452e-15 -0.8832916021347046
  outer loop
    vertex 64.65565490722656 51.88770294189453 51.46260833740234
    vertex 64.65565490722656 58.88570404052734 51.46260833740234
    vertex 64.91565704345703 51.88770294189453 51.60060882568359
  endloop
endfacet
facet normal 0.6395152807235718 -1.997632126650938e-15 -0.768778383731842
  outer loop
    vertex 64.65565490722656 51.88770294189453 51.46260833740234
    vertex 64.42965698242188 58.88570404052734 51.27460861206055
    vertex 64.65565490722656 58.88570404052734 51.46260833740234
  endloop
endfacet
facet normal 0.6395152807235718 -1.997632126650938e-15 -0.768778383731842
  outer loop
    vertex 64.42965698242188 51.88770294189453 51.27460861206055
    vertex 64.42965698242188 58.88570404052734 51.27460861206055
    vertex 64.65565490722656 51.88770294189453 51.46260833740234
  endloop
endfacet
facet normal 0.7721272110939026 -1.649132384843536e-15 -0.6354679465293884
  outer loop
    vertex 64.42965698242188 51.88770294189453 51.27460861206055
    vertex 64.24365234375 58.88570404052734 51.04860687255859
    vertex 64.42965698242188 58.88570404052734 51.27460861206055
  endloop
endfacet
facet normal 0.7721272110939026 -1.646581651001998e-15 -0.6354679465293884
  outer loop
    vertex 64.42965698242188 51.88770294189453 51.27460861206055
    vertex 64.24365234375 51.88770294189453 51.04860687255859
    vertex 64.24365234375 58.88570404052734 51.04860687255859
  endloop
endfacet
facet normal 0.8804709315299988 -1.225963829999471e-15 -0.4741001427173615
  outer loop
    vertex 64.24365234375 51.88770294189453 51.04860687255859
    vertex 64.10365295410156 58.88570404052734 50.78860855102539
    vertex 64.24365234375 58.88570404052734 51.04860687255859
  endloop
endfacet
facet normal 0.8804709315299988 -1.225963829999471e-15 -0.4741001427173615
  outer loop
    vertex 64.24365234375 51.88770294189453 51.04860687255859
    vertex 64.10365295410156 51.88770294189453 50.78860855102539
    vertex 64.10365295410156 58.88570404052734 50.78860855102539
  endloop
endfacet
facet normal 0.958385705947876 -7.418700481439755e-16 -0.2854765057563782
  outer loop
    vertex 64.10365295410156 51.88770294189453 50.78860855102539
    vertex 64.0196533203125 58.88570404052734 50.50660705566406
    vertex 64.10365295410156 58.88570404052734 50.78860855102539
  endloop
endfacet
facet normal 0.958385705947876 -7.408532909699151e-16 -0.2854765057563782
  outer loop
    vertex 64.10365295410156 51.88770294189453 50.78860855102539
    vertex 64.0196533203125 51.88770294189453 50.50660705566406
    vertex 64.0196533203125 58.88570404052734 50.50660705566406
  endloop
endfacet
facet normal 0.9947637319564819 -2.662122644568799e-16 -0.1022015511989594
  outer loop
    vertex 64.0196533203125 51.88770294189453 50.50660705566406
    vertex 63.98965454101563 58.88570404052734 50.21460723876953
    vertex 64.0196533203125 58.88570404052734 50.50660705566406
  endloop
endfacet
facet normal 0.9947637319564819 -2.662122644568799e-16 -0.1022015511989594
  outer loop
    vertex 64.0196533203125 51.88770294189453 50.50660705566406
    vertex 63.98965454101563 51.88770294189453 50.21460723876953
    vertex 63.98965454101563 58.88570404052734 50.21460723876953
  endloop
endfacet
facet normal 0.1022024527192116 2.581557158730266e-15 0.9947636127471924
  outer loop
    vertex 65.19765472412109 51.88770294189453 48.74460601806641
    vertex 65.48965454101563 58.88570404052734 48.71460723876953
    vertex 65.19765472412109 58.88570404052734 48.74460601806641
  endloop
endfacet
facet normal 0.1022024527192116 2.581557158730266e-15 0.9947636127471924
  outer loop
    vertex 65.48965454101563 51.88770294189453 48.71460723876953
    vertex 65.48965454101563 58.88570404052734 48.71460723876953
    vertex 65.19765472412109 51.88770294189453 48.74460601806641
  endloop
endfacet
facet normal 0.2854754030704498 2.489185462975106e-15 0.9583860635757446
  outer loop
    vertex 64.91565704345703 51.88770294189453 48.82860565185547
    vertex 65.19765472412109 58.88570404052734 48.74460601806641
    vertex 64.91565704345703 58.88570404052734 48.82860565185547
  endloop
endfacet
facet normal 0.2854754030704498 2.488168811680164e-15 0.9583860635757446
  outer loop
    vertex 65.19765472412109 51.88770294189453 48.74460601806641
    vertex 65.19765472412109 58.88570404052734 48.74460601806641
    vertex 64.91565704345703 51.88770294189453 48.82860565185547
  endloop
endfacet
facet normal 0.4741007387638092 2.289345403245872e-15 0.8804706335067749
  outer loop
    vertex 64.65565490722656 51.88770294189453 48.96860885620117
    vertex 64.91565704345703 58.88570404052734 48.82860565185547
    vertex 64.65565490722656 58.88570404052734 48.96860885620117
  endloop
endfacet
facet normal 0.4741007387638092 2.28495014928257e-15 0.8804706335067749
  outer loop
    vertex 64.91565704345703 51.88770294189453 48.82860565185547
    vertex 64.91565704345703 58.88570404052734 48.82860565185547
    vertex 64.65565490722656 51.88770294189453 48.96860885620117
  endloop
endfacet
facet normal 0.6354673504829407 2.00378455046332e-15 0.7721277475357056
  outer loop
    vertex 64.42965698242188 51.88770294189453 49.15460586547852
    vertex 64.65565490722656 58.88570404052734 48.96860885620117
    vertex 64.42965698242188 58.88570404052734 49.15460586547852
  endloop
endfacet
facet normal 0.6354673504829407 2.00378455046332e-15 0.7721277475357056
  outer loop
    vertex 64.65565490722656 51.88770294189453 48.96860885620117
    vertex 64.65565490722656 58.88570404052734 48.96860885620117
    vertex 64.42965698242188 51.88770294189453 49.15460586547852
  endloop
endfacet
facet normal 0.7721272110939026 1.649132384843536e-15 0.6354679465293884
  outer loop
    vertex 64.24365234375 51.88770294189453 49.38060760498047
    vertex 64.42965698242188 58.88570404052734 49.15460586547852
    vertex 64.24365234375 58.88570404052734 49.38060760498047
  endloop
endfacet
facet normal 0.7721272110939026 1.649132384843536e-15 0.6354679465293884
  outer loop
    vertex 64.24365234375 51.88770294189453 49.38060760498047
    vertex 64.42965698242188 51.88770294189453 49.15460586547852
    vertex 64.42965698242188 58.88570404052734 49.15460586547852
  endloop
endfacet
facet normal 0.8804712891578674 1.230357495775997e-15 0.4740994572639465
  outer loop
    vertex 64.10365295410156 51.88770294189453 49.64060592651367
    vertex 64.24365234375 58.88570404052734 49.38060760498047
    vertex 64.10365295410156 58.88570404052734 49.64060592651367
  endloop
endfacet
facet normal 0.8804712891578674 1.230357495775997e-15 0.4740994572639465
  outer loop
    vertex 64.10365295410156 51.88770294189453 49.64060592651367
    vertex 64.24365234375 51.88770294189453 49.38060760498047
    vertex 64.24365234375 58.88570404052734 49.38060760498047
  endloop
endfacet
facet normal 0.958385705947876 7.408532909699151e-16 0.2854765057563782
  outer loop
    vertex 64.0196533203125 51.88770294189453 49.922607421875
    vertex 64.10365295410156 58.88570404052734 49.64060592651367
    vertex 64.0196533203125 58.88570404052734 49.922607421875
  endloop
endfacet
facet normal 0.958385705947876 7.408532909699151e-16 0.2854765057563782
  outer loop
    vertex 64.0196533203125 51.88770294189453 49.922607421875
    vertex 64.10365295410156 51.88770294189453 49.64060592651367
    vertex 64.10365295410156 58.88570404052734 49.64060592651367
  endloop
endfacet
facet normal 0.9947636723518372 2.652284092188645e-16 0.1022017151117325
  outer loop
    vertex 63.98965454101563 51.88770294189453 50.21460723876953
    vertex 64.0196533203125 58.88570404052734 49.922607421875
    vertex 63.98965454101563 58.88570404052734 50.21460723876953
  endloop
endfacet
facet normal 0.9947636723518372 2.652284092188645e-16 0.1022017151117325
  outer loop
    vertex 63.98965454101563 51.88770294189453 50.21460723876953
    vertex 64.0196533203125 51.88770294189453 49.922607421875
    vertex 64.0196533203125 58.88570404052734 49.922607421875
  endloop
endfacet
facet normal -1 0 0
  outer loop
    vertex 62.68965530395508 58.88570404052734 49.21460723876953
    vertex 62.68965530395508 58.88570404052734 40.21460723876953
    vertex 62.68965530395508 55.38770294189453 44.21460723876953
  endloop
endfacet
facet normal 0 -1 2.595146320061303e-15
  outer loop
    vertex 68.28965759277344 51.88770294189453 40.71460723876953
    vertex 65.78165435791016 51.88770294189453 39.68660736083984
    vertex 66.06365203857422 51.88770294189453 39.60060882568359
  endloop
endfacet
facet normal -1 0 0
  outer loop
    vertex 62.68965530395508 55.38770294189453 44.21460723876953
    vertex 62.68965530395508 58.88570404052734 40.21460723876953
    vertex 62.68965530395508 55.31970596313477 43.53260803222656
  endloop
endfacet
facet normal -1 0 0
  outer loop
    vertex 62.68965530395508 53.22570419311523 40.98060607910156
    vertex 62.68965530395508 58.88570404052734 40.21460723876953
    vertex 62.68965530395508 52.56970596313477 40.78260803222656
  endloop
endfacet
facet normal -1 0 0
  outer loop
    vertex 62.68965530395508 55.31970596313477 43.53260803222656
    vertex 62.68965530395508 58.88570404052734 40.21460723876953
    vertex 62.68965530395508 55.11970520019531 42.87460708618164
  endloop
endfacet
facet normal -1 0 0
  outer loop
    vertex 62.68965530395508 52.56970596313477 40.78260803222656
    vertex 62.68965530395508 58.88570404052734 40.21460723876953
    vertex 62.68965530395508 51.88770294189453 40.71460723876953
  endloop
endfacet
facet normal -1 0 0
  outer loop
    vertex 62.68965530395508 55.11970520019531 42.87460708618164
    vertex 62.68965530395508 58.88570404052734 40.21460723876953
    vertex 62.68965530395508 54.79770278930664 42.27060699462891
  endloop
endfacet
facet normal -1 0 0
  outer loop
    vertex 62.68965530395508 53.83170318603516 41.30460739135742
    vertex 62.68965530395508 58.88570404052734 40.21460723876953
    vertex 62.68965530395508 53.22570419311523 40.98060607910156
  endloop
endfacet
facet normal -1 0 0
  outer loop
    vertex 62.68965530395508 54.79770278930664 42.27060699462891
    vertex 62.68965530395508 58.88570404052734 40.21460723876953
    vertex 62.68965530395508 54.3617057800293 41.74060821533203
  endloop
endfacet
facet normal -1 0 0
  outer loop
    vertex 62.68965530395508 54.3617057800293 41.74060821533203
    vertex 62.68965530395508 58.88570404052734 40.21460723876953
    vertex 62.68965530395508 53.83170318603516 41.30460739135742
  endloop
endfacet
facet normal 4.658223365429604e-18 -0.9567794799804688 0.2908144593238831
  outer loop
    vertex 68.28965759277344 55.11970520019531 42.87460708618164
    vertex 62.68965530395508 55.31970596313477 43.53260803222656
    vertex 62.68965530395508 55.11970520019531 42.87460708618164
  endloop
endfacet
facet normal 4.658223365429604e-18 -0.9567794799804688 0.2908144593238831
  outer loop
    vertex 68.28965759277344 55.31970596313477 43.53260803222656
    vertex 62.68965530395508 55.31970596313477 43.53260803222656
    vertex 68.28965759277344 55.11970520019531 42.87460708618164
  endloop
endfacet
facet normal 5.098807470225867e-18 -0.8824337720870972 0.4704366028308868
  outer loop
    vertex 68.28965759277344 54.79770278930664 42.27060699462891
    vertex 62.68965530395508 55.11970520019531 42.87460708618164
    vertex 62.68965530395508 54.79770278930664 42.27060699462891
  endloop
endfacet
facet normal 5.098807470225867e-18 -0.8824337720870972 0.4704366028308868
  outer loop
    vertex 68.28965759277344 55.11970520019531 42.87460708618164
    vertex 62.68965530395508 55.11970520019531 42.87460708618164
    vertex 68.28965759277344 54.79770278930664 42.27060699462891
  endloop
endfacet
facet normal 1.738590049032125e-17 -0.772266685962677 0.635298490524292
  outer loop
    vertex 68.28965759277344 54.3617057800293 41.74060821533203
    vertex 62.68965530395508 54.79770278930664 42.27060699462891
    vertex 62.68965530395508 54.3617057800293 41.74060821533203
  endloop
endfacet
facet normal 1.738590049032125e-17 -0.772266685962677 0.635298490524292
  outer loop
    vertex 68.28965759277344 54.79770278930664 42.27060699462891
    vertex 62.68965530395508 54.79770278930664 42.27060699462891
    vertex 68.28965759277344 54.3617057800293 41.74060821533203
  endloop
endfacet
facet normal -5.795294786766435e-18 -0.635298490524292 0.772266685962677
  outer loop
    vertex 68.28965759277344 53.83170318603516 41.30460739135742
    vertex 62.68965530395508 54.3617057800293 41.74060821533203
    vertex 62.68965530395508 53.83170318603516 41.30460739135742
  endloop
endfacet
facet normal -1.159058957353287e-17 -0.635298490524292 0.772266685962677
  outer loop
    vertex 68.28965759277344 53.83170318603516 41.30460739135742
    vertex 68.28965759277344 54.3617057800293 41.74060821533203
    vertex 62.68965530395508 54.3617057800293 41.74060821533203
  endloop
endfacet
facet normal -5.061966086513674e-18 -0.4714945256710052 0.8818689584732056
  outer loop
    vertex 68.28965759277344 53.22570419311523 40.98060607910156
    vertex 62.68965530395508 53.83170318603516 41.30460739135742
    vertex 62.68965530395508 53.22570419311523 40.98060607910156
  endloop
endfacet
facet normal 0 -0.4714945256710052 0.8818689584732056
  outer loop
    vertex 68.28965759277344 53.22570419311523 40.98060607910156
    vertex 68.28965759277344 53.83170318603516 41.30460739135742
    vertex 62.68965530395508 53.83170318603516 41.30460739135742
  endloop
endfacet
facet normal 0 -0.2889539897441864 0.9573429822921753
  outer loop
    vertex 68.28965759277344 52.56970596313477 40.78260803222656
    vertex 62.68965530395508 53.22570419311523 40.98060607910156
    vertex 62.68965530395508 52.56970596313477 40.78260803222656
  endloop
endfacet
facet normal 0 -0.2889539897441864 0.9573429822921753
  outer loop
    vertex 68.28965759277344 52.56970596313477 40.78260803222656
    vertex 68.28965759277344 53.22570419311523 40.98060607910156
    vertex 62.68965530395508 53.22570419311523 40.98060607910156
  endloop
endfacet
facet normal 0 -1 2.595146320061303e-15
  outer loop
    vertex 68.28965759277344 51.88770294189453 40.71460723876953
    vertex 65.48965454101563 51.88770294189453 39.71460723876953
    vertex 65.78165435791016 51.88770294189453 39.68660736083984
  endloop
endfacet
facet normal 1.127415225058617e-18 -0.09921461343765259 0.9950660467147827
  outer loop
    vertex 68.28965759277344 51.88770294189453 40.71460723876953
    vertex 68.28965759277344 52.56970596313477 40.78260803222656
    vertex 62.68965530395508 52.56970596313477 40.78260803222656
  endloop
endfacet
facet normal 1 0 0
  outer loop
    vertex 68.28965759277344 51.88770294189453 40.71460723876953
    vertex 68.28965759277344 51.88770294189453 35.21460723876953
    vertex 68.28965759277344 58.88570404052734 35.21460723876953
  endloop
endfacet
facet normal 1 0 0
  outer loop
    vertex 68.28965759277344 51.88770294189453 40.71460723876953
    vertex 68.28965759277344 58.88570404052734 35.21460723876953
    vertex 68.28965759277344 58.88570404052734 40.21460723876953
  endloop
endfacet
facet normal 0 -2.595146320061303e-15 -1
  outer loop
    vertex 68.28965759277344 51.88770294189453 35.21460723876953
    vertex 62.68965530395508 58.88570404052734 35.21460723876953
    vertex 68.28965759277344 58.88570404052734 35.21460723876953
  endloop
endfacet
facet normal 0 -2.595146320061303e-15 -1
  outer loop
    vertex 62.68965530395508 51.88770294189453 35.21460723876953
    vertex 62.68965530395508 58.88570404052734 35.21460723876953
    vertex 68.28965759277344 51.88770294189453 35.21460723876953
  endloop
endfacet
facet normal -1 0 0
  outer loop
    vertex 62.68965530395508 58.88570404052734 40.21460723876953
    vertex 62.68965530395508 58.88570404052734 35.21460723876953
    vertex 62.68965530395508 51.88770294189453 35.21460723876953
  endloop
endfacet
facet normal -1 0 0
  outer loop
    vertex 62.68965530395508 51.88770294189453 40.71460723876953
    vertex 62.68965530395508 58.88570404052734 40.21460723876953
    vertex 62.68965530395508 51.88770294189453 35.21460723876953
  endloop
endfacet
facet normal 0 -1 2.595146320061303e-15
  outer loop
    vertex 65.78165435791016 51.88770294189453 36.74460601806641
    vertex 65.48965454101563 51.88770294189453 36.71460723876953
    vertex 62.68965530395508 51.88770294189453 35.21460723876953
  endloop
endfacet
facet normal 0 -1 2.595146320061303e-15
  outer loop
    vertex 68.28965759277344 51.88770294189453 35.21460723876953
    vertex 66.06365203857422 51.88770294189453 36.82860565185547
    vertex 65.78165435791016 51.88770294189453 36.74460601806641
  endloop
endfacet
facet normal 0 -1 2.595146320061303e-15
  outer loop
    vertex 65.19765472412109 51.88770294189453 48.74460601806641
    vertex 64.91565704345703 51.88770294189453 48.82860565185547
    vertex 62.68965530395508 51.88770294189453 47.71460723876953
  endloop
endfacet
facet normal 0 -1 2.595146320061303e-15
  outer loop
    vertex 68.28965759277344 51.88770294189453 35.21460723876953
    vertex 66.32365417480469 51.88770294189453 36.96860885620117
    vertex 66.06365203857422 51.88770294189453 36.82860565185547
  endloop
endfacet
facet normal 0 -1 2.595146320061303e-15
  outer loop
    vertex 68.28965759277344 51.88770294189453 35.21460723876953
    vertex 66.54965209960938 51.88770294189453 37.15460586547852
    vertex 66.32365417480469 51.88770294189453 36.96860885620117
  endloop
endfacet
facet normal 0 -1 2.595146320061303e-15
  outer loop
    vertex 68.28965759277344 51.88770294189453 35.21460723876953
    vertex 66.73765563964844 51.88770294189453 37.38060760498047
    vertex 66.54965209960938 51.88770294189453 37.15460586547852
  endloop
endfacet
facet normal 0 -1 2.595146320061303e-15
  outer loop
    vertex 68.28965759277344 51.88770294189453 35.21460723876953
    vertex 66.87565612792969 51.88770294189453 37.64060592651367
    vertex 66.73765563964844 51.88770294189453 37.38060760498047
  endloop
endfacet
facet normal 0 -1 2.595146320061303e-15
  outer loop
    vertex 68.28965759277344 51.88770294189453 35.21460723876953
    vertex 66.96165466308594 51.88770294189453 37.922607421875
    vertex 66.87565612792969 51.88770294189453 37.64060592651367
  endloop
endfacet
facet normal -1 0 0
  outer loop
    vertex 62.68965530395508 58.88570404052734 53.21460723876953
    vertex 62.68965530395508 51.88770294189453 47.71460723876953
    vertex 62.68965530395508 51.88770294189453 53.21460723876953
  endloop
endfacet
facet normal 0 -1 2.595146320061303e-15
  outer loop
    vertex 65.48965454101563 51.88770294189453 36.71460723876953
    vertex 65.19765472412109 51.88770294189453 36.74460601806641
    vertex 62.68965530395508 51.88770294189453 35.21460723876953
  endloop
endfacet
facet normal 0 -1 2.595146320061303e-15
  outer loop
    vertex 65.48965454101563 51.88770294189453 39.71460723876953
    vertex 62.68965530395508 51.88770294189453 40.71460723876953
    vertex 65.19765472412109 51.88770294189453 39.68660736083984
  endloop
endfacet
facet normal 0 -1 2.595146320061303e-15
  outer loop
    vertex 65.19765472412109 51.88770294189453 36.74460601806641
    vertex 64.91565704345703 51.88770294189453 36.82860565185547
    vertex 62.68965530395508 51.88770294189453 35.21460723876953
  endloop
endfacet
facet normal 0 -1 2.595146320061303e-15
  outer loop
    vertex 65.19765472412109 51.88770294189453 39.68660736083984
    vertex 62.68965530395508 51.88770294189453 40.71460723876953
    vertex 64.91565704345703 51.88770294189453 39.60060882568359
  endloop
endfacet
facet normal 0 -1 2.595146320061303e-15
  outer loop
    vertex 64.91565704345703 51.88770294189453 36.82860565185547
    vertex 64.65565490722656 51.88770294189453 36.96860885620117
    vertex 62.68965530395508 51.88770294189453 35.21460723876953
  endloop
endfacet
facet normal 0 -1 2.595146320061303e-15
  outer loop
    vertex 64.91565704345703 51.88770294189453 39.60060882568359
    vertex 62.68965530395508 51.88770294189453 40.71460723876953
    vertex 64.65565490722656 51.88770294189453 39.46260833740234
  endloop
endfacet
facet normal 0 -1 2.595146320061303e-15
  outer loop
    vertex 64.65565490722656 51.88770294189453 36.96860885620117
    vertex 64.42965698242188 51.88770294189453 37.15460586547852
    vertex 62.68965530395508 51.88770294189453 35.21460723876953
  endloop
endfacet
facet normal 0 -1 2.595146320061303e-15
  outer loop
    vertex 64.65565490722656 51.88770294189453 39.46260833740234
    vertex 62.68965530395508 51.88770294189453 40.71460723876953
    vertex 64.42965698242188 51.88770294189453 39.27460861206055
  endloop
endfacet
facet normal 0 -1 2.595146320061303e-15
  outer loop
    vertex 64.42965698242188 51.88770294189453 37.15460586547852
    vertex 64.24365234375 51.88770294189453 37.38060760498047
    vertex 62.68965530395508 51.88770294189453 35.21460723876953
  endloop
endfacet
facet normal 0 -1 2.595146320061303e-15
  outer loop
    vertex 64.42965698242188 51.88770294189453 39.27460861206055
    vertex 62.68965530395508 51.88770294189453 40.71460723876953
    vertex 64.24365234375 51.88770294189453 39.04860687255859
  endloop
endfacet
facet normal 0 -1 2.595146320061303e-15
  outer loop
    vertex 64.24365234375 51.88770294189453 37.38060760498047
    vertex 64.10365295410156 51.88770294189453 37.64060592651367
    vertex 62.68965530395508 51.88770294189453 35.21460723876953
  endloop
endfacet
facet normal 0 -1 2.595146320061303e-15
  outer loop
    vertex 64.24365234375 51.88770294189453 39.04860687255859
    vertex 62.68965530395508 51.88770294189453 40.71460723876953
    vertex 64.10365295410156 51.88770294189453 38.78860855102539
  endloop
endfacet
facet normal 0 -1 2.595146320061303e-15
  outer loop
    vertex 63.98965454101563 51.88770294189453 38.21460723876953
    vertex 62.68965530395508 51.88770294189453 40.71460723876953
    vertex 62.68965530395508 51.88770294189453 35.21460723876953
  endloop
endfacet
facet normal 0 -1 2.595146320061303e-15
  outer loop
    vertex 64.10365295410156 51.88770294189453 38.78860855102539
    vertex 62.68965530395508 51.88770294189453 40.71460723876953
    vertex 64.0196533203125 51.88770294189453 38.50660705566406
  endloop
endfacet
facet normal 0 -1 2.595146320061303e-15
  outer loop
    vertex 64.0196533203125 51.88770294189453 37.922607421875
    vertex 63.98965454101563 51.88770294189453 38.21460723876953
    vertex 62.68965530395508 51.88770294189453 35.21460723876953
  endloop
endfacet
facet normal 0 -1 2.595146320061303e-15
  outer loop
    vertex 64.0196533203125 51.88770294189453 38.50660705566406
    vertex 62.68965530395508 51.88770294189453 40.71460723876953
    vertex 63.98965454101563 51.88770294189453 38.21460723876953
  endloop
endfacet
facet normal 0 -1 2.595146320061303e-15
  outer loop
    vertex 64.10365295410156 51.88770294189453 37.64060592651367
    vertex 64.0196533203125 51.88770294189453 37.922607421875
    vertex 62.68965530395508 51.88770294189453 35.21460723876953
  endloop
endfacet
facet normal -0.9954339861869812 2.477135148750993e-16 0.09545262157917023
  outer loop
    vertex 66.98965454101563 58.88570404052734 38.21460723876953
    vertex 66.96165466308594 58.88570404052734 37.922607421875
    vertex 66.96165466308594 51.88770294189453 37.922607421875
  endloop
endfacet
facet normal -0.9954339861869812 2.477135148750993e-16 0.09545262157917023
  outer loop
    vertex 66.98965454101563 58.88570404052734 38.21460723876953
    vertex 66.96165466308594 51.88770294189453 37.922607421875
    vertex 66.98965454101563 51.88770294189453 38.21460723876953
  endloop
endfacet
facet normal -0.9954339861869812 -2.477135148750993e-16 -0.09545262157917023
  outer loop
    vertex 66.96165466308594 58.88570404052734 38.50660705566406
    vertex 66.98965454101563 58.88570404052734 38.21460723876953
    vertex 66.98965454101563 51.88770294189453 38.21460723876953
  endloop
endfacet
facet normal -0.9954339861869812 -2.477135148750993e-16 -0.09545262157917023
  outer loop
    vertex 66.96165466308594 58.88570404052734 38.50660705566406
    vertex 66.98965454101563 51.88770294189453 38.21460723876953
    vertex 66.96165466308594 51.88770294189453 38.50660705566406
  endloop
endfacet
facet normal -0.9565094709396362 7.570075327630347e-16 0.2917012870311737
  outer loop
    vertex 66.96165466308594 58.88570404052734 37.922607421875
    vertex 66.87565612792969 58.88570404052734 37.64060592651367
    vertex 66.87565612792969 51.88770294189453 37.64060592651367
  endloop
endfacet
facet normal -0.9565094709396362 7.580222782338454e-16 0.2917012870311737
  outer loop
    vertex 66.96165466308594 58.88570404052734 37.922607421875
    vertex 66.87565612792969 51.88770294189453 37.64060592651367
    vertex 66.96165466308594 51.88770294189453 37.922607421875
  endloop
endfacet
facet normal -0.9565094709396362 -7.570075327630347e-16 -0.2917012870311737
  outer loop
    vertex 66.87565612792969 58.88570404052734 38.78860855102539
    vertex 66.96165466308594 58.88570404052734 38.50660705566406
    vertex 66.96165466308594 51.88770294189453 38.50660705566406
  endloop
endfacet
facet normal -0.9565094709396362 -7.580222782338454e-16 -0.2917012870311737
  outer loop
    vertex 66.87565612792969 58.88570404052734 38.78860855102539
    vertex 66.96165466308594 51.88770294189453 38.50660705566406
    vertex 66.87565612792969 51.88770294189453 38.78860855102539
  endloop
endfacet
facet normal -0.8832917809486389 1.214461440213113e-15 0.4688237011432648
  outer loop
    vertex 66.87565612792969 58.88570404052734 37.64060592651367
    vertex 66.73765563964844 58.88570404052734 37.38060760498047
    vertex 66.73765563964844 51.88770294189453 37.38060760498047
  endloop
endfacet
facet normal -0.8832917809486389 1.214461440213113e-15 0.4688237011432648
  outer loop
    vertex 66.87565612792969 58.88570404052734 37.64060592651367
    vertex 66.73765563964844 51.88770294189453 37.38060760498047
    vertex 66.87565612792969 51.88770294189453 37.64060592651367
  endloop
endfacet
facet normal -0.8832917809486389 -1.216666161095697e-15 -0.4688237011432648
  outer loop
    vertex 66.73765563964844 58.88570404052734 39.04860687255859
    vertex 66.87565612792969 58.88570404052734 38.78860855102539
    vertex 66.87565612792969 51.88770294189453 38.78860855102539
  endloop
endfacet
facet normal -0.8832917809486389 -1.216666161095697e-15 -0.4688237011432648
  outer loop
    vertex 66.73765563964844 58.88570404052734 39.04860687255859
    vertex 66.87565612792969 51.88770294189453 38.78860855102539
    vertex 66.73765563964844 51.88770294189453 39.04860687255859
  endloop
endfacet
facet normal -0.7687782645225525 1.659636122785082e-15 0.6395153999328613
  outer loop
    vertex 66.73765563964844 58.88570404052734 37.38060760498047
    vertex 66.54965209960938 58.88570404052734 37.15460586547852
    vertex 66.54965209960938 51.88770294189453 37.15460586547852
  endloop
endfacet
facet normal -0.7687782645225525 1.659636122785082e-15 0.6395153999328613
  outer loop
    vertex 66.73765563964844 58.88570404052734 37.38060760498047
    vertex 66.54965209960938 51.88770294189453 37.15460586547852
    vertex 66.73765563964844 51.88770294189453 37.38060760498047
  endloop
endfacet
facet normal -0.7687782645225525 -1.659636122785082e-15 -0.6395153999328613
  outer loop
    vertex 66.54965209960938 58.88570404052734 39.27460861206055
    vertex 66.73765563964844 58.88570404052734 39.04860687255859
    vertex 66.73765563964844 51.88770294189453 39.04860687255859
  endloop
endfacet
facet normal -0.7687782645225525 -1.657096400371858e-15 -0.6395153999328613
  outer loop
    vertex 66.54965209960938 58.88570404052734 39.27460861206055
    vertex 66.73765563964844 51.88770294189453 39.04860687255859
    vertex 66.54965209960938 51.88770294189453 39.27460861206055
  endloop
endfacet
facet normal -0.635467529296875 2.006334754909266e-15 0.7721275687217712
  outer loop
    vertex 66.32365417480469 51.88770294189453 36.96860885620117
    vertex 66.54965209960938 58.88570404052734 37.15460586547852
    vertex 66.32365417480469 58.88570404052734 36.96860885620117
  endloop
endfacet
facet normal -0.635467529296875 2.008885594629922e-15 0.7721275687217712
  outer loop
    vertex 66.54965209960938 51.88770294189453 37.15460586547852
    vertex 66.54965209960938 58.88570404052734 37.15460586547852
    vertex 66.32365417480469 51.88770294189453 36.96860885620117
  endloop
endfacet
facet normal -0.6395154595375061 -1.997631703134464e-15 -0.7687782049179077
  outer loop
    vertex 66.54965209960938 51.88770294189453 39.27460861206055
    vertex 66.32365417480469 58.88570404052734 39.46260833740234
    vertex 66.54965209960938 58.88570404052734 39.27460861206055
  endloop
endfacet
facet normal -0.6395154595375061 -1.995092086600359e-15 -0.7687782049179077
  outer loop
    vertex 66.32365417480469 51.88770294189453 39.46260833740234
    vertex 66.32365417480469 58.88570404052734 39.46260833740234
    vertex 66.54965209960938 51.88770294189453 39.27460861206055
  endloop
endfacet
facet normal -0.474100649356842 2.28495014928257e-15 0.8804706335067749
  outer loop
    vertex 66.06365203857422 51.88770294189453 36.82860565185547
    vertex 66.32365417480469 58.88570404052734 36.96860885620117
    vertex 66.06365203857422 58.88570404052734 36.82860565185547
  endloop
endfacet
facet normal -0.474100649356842 2.28495014928257e-15 0.8804706335067749
  outer loop
    vertex 66.32365417480469 51.88770294189453 36.96860885620117
    vertex 66.32365417480469 58.88570404052734 36.96860885620117
    vertex 66.06365203857422 51.88770294189453 36.82860565185547
  endloop
endfacet
facet normal -0.4688239693641663 -2.292271055045689e-15 -0.8832916021347046
  outer loop
    vertex 66.32365417480469 51.88770294189453 39.46260833740234
    vertex 66.06365203857422 58.88570404052734 39.60060882568359
    vertex 66.32365417480469 58.88570404052734 39.46260833740234
  endloop
endfacet
facet normal -0.4688239693641663 -2.292271055045689e-15 -0.8832916021347046
  outer loop
    vertex 66.06365203857422 51.88770294189453 39.60060882568359
    vertex 66.06365203857422 58.88570404052734 39.60060882568359
    vertex 66.32365417480469 51.88770294189453 39.46260833740234
  endloop
endfacet
facet normal -0.2854769229888916 2.487150889835801e-15 0.9583855867385864
  outer loop
    vertex 65.78165435791016 51.88770294189453 36.74460601806641
    vertex 66.06365203857422 58.88570404052734 36.82860565185547
    vertex 65.78165435791016 58.88570404052734 36.74460601806641
  endloop
endfacet
facet normal -0.2854769229888916 2.487150889835801e-15 0.9583855867385864
  outer loop
    vertex 66.06365203857422 51.88770294189453 36.82860565185547
    vertex 66.06365203857422 58.88570404052734 36.82860565185547
    vertex 65.78165435791016 51.88770294189453 36.74460601806641
  endloop
endfacet
facet normal -0.2917013466358185 -2.481267187225936e-15 -0.9565094709396362
  outer loop
    vertex 66.06365203857422 51.88770294189453 39.60060882568359
    vertex 65.78165435791016 58.88570404052734 39.68660736083984
    vertex 66.06365203857422 58.88570404052734 39.60060882568359
  endloop
endfacet
facet normal -0.2917013466358185 -2.482281932696746e-15 -0.9565094709396362
  outer loop
    vertex 65.78165435791016 51.88770294189453 39.68660736083984
    vertex 65.78165435791016 58.88570404052734 39.68660736083984
    vertex 66.06365203857422 51.88770294189453 39.60060882568359
  endloop
endfacet
facet normal -0.1022008433938026 2.582541834531449e-15 0.9947637915611267
  outer loop
    vertex 65.48965454101563 51.88770294189453 36.71460723876953
    vertex 65.78165435791016 58.88570404052734 36.74460601806641
    vertex 65.48965454101563 58.88570404052734 36.71460723876953
  endloop
endfacet
facet normal -0.1022008433938026 2.582541834531449e-15 0.9947637915611267
  outer loop
    vertex 65.78165435791016 51.88770294189453 36.74460601806641
    vertex 65.78165435791016 58.88570404052734 36.74460601806641
    vertex 65.48965454101563 51.88770294189453 36.71460723876953
  endloop
endfacet
facet normal -0.09545215964317322 -2.583296964403926e-15 -0.995434045791626
  outer loop
    vertex 65.78165435791016 51.88770294189453 39.68660736083984
    vertex 65.48965454101563 58.88570404052734 39.71460723876953
    vertex 65.78165435791016 58.88570404052734 39.68660736083984
  endloop
endfacet
facet normal -0.09545215964317322 -2.583296964403926e-15 -0.995434045791626
  outer loop
    vertex 65.48965454101563 51.88770294189453 39.71460723876953
    vertex 65.48965454101563 58.88570404052734 39.71460723876953
    vertex 65.78165435791016 51.88770294189453 39.68660736083984
  endloop
endfacet
facet normal 0.1022008433938026 2.581557582246739e-15 0.9947637915611267
  outer loop
    vertex 65.19765472412109 51.88770294189453 36.74460601806641
    vertex 65.48965454101563 58.88570404052734 36.71460723876953
    vertex 65.19765472412109 58.88570404052734 36.74460601806641
  endloop
endfacet
facet normal 0.1022008433938026 2.581557582246739e-15 0.9947637915611267
  outer loop
    vertex 65.48965454101563 51.88770294189453 36.71460723876953
    vertex 65.48965454101563 58.88570404052734 36.71460723876953
    vertex 65.19765472412109 51.88770294189453 36.74460601806641
  endloop
endfacet
facet normal 0.09545215964317322 -2.583296964403926e-15 -0.995434045791626
  outer loop
    vertex 65.48965454101563 51.88770294189453 39.71460723876953
    vertex 65.19765472412109 58.88570404052734 39.68660736083984
    vertex 65.48965454101563 58.88570404052734 39.71460723876953
  endloop
endfacet
facet normal 0.09545215964317322 -2.583296964403926e-15 -0.995434045791626
  outer loop
    vertex 65.19765472412109 51.88770294189453 39.68660736083984
    vertex 65.19765472412109 58.88570404052734 39.68660736083984
    vertex 65.48965454101563 51.88770294189453 39.71460723876953
  endloop
endfacet
facet normal 0.2854768931865692 2.488167541130743e-15 0.9583855867385864
  outer loop
    vertex 64.91565704345703 51.88770294189453 36.82860565185547
    vertex 65.19765472412109 58.88570404052734 36.74460601806641
    vertex 64.91565704345703 58.88570404052734 36.82860565185547
  endloop
endfacet
facet normal 0.2854768931865692 2.48511737548768e-15 0.9583855867385864
  outer loop
    vertex 65.19765472412109 51.88770294189453 36.74460601806641
    vertex 65.19765472412109 58.88570404052734 36.74460601806641
    vertex 64.91565704345703 51.88770294189453 36.82860565185547
  endloop
endfacet
facet normal 0.2917013168334961 -2.480252441755125e-15 -0.9565094709396362
  outer loop
    vertex 65.19765472412109 51.88770294189453 39.68660736083984
    vertex 64.91565704345703 58.88570404052734 39.60060882568359
    vertex 65.19765472412109 58.88570404052734 39.68660736083984
  endloop
endfacet
facet normal 0.2917013168334961 -2.483296678167557e-15 -0.9565094709396362
  outer loop
    vertex 64.91565704345703 51.88770294189453 39.60060882568359
    vertex 64.91565704345703 58.88570404052734 39.60060882568359
    vertex 65.19765472412109 51.88770294189453 39.68660736083984
  endloop
endfacet
facet normal 0.4741007387638092 2.289345403245872e-15 0.8804706335067749
  outer loop
    vertex 64.65565490722656 51.88770294189453 36.96860885620117
    vertex 64.91565704345703 58.88570404052734 36.82860565185547
    vertex 64.65565490722656 58.88570404052734 36.96860885620117
  endloop
endfacet
facet normal 0.4741007387638092 2.28495014928257e-15 0.8804706335067749
  outer loop
    vertex 64.91565704345703 51.88770294189453 36.82860565185547
    vertex 64.91565704345703 58.88570404052734 36.82860565185547
    vertex 64.65565490722656 51.88770294189453 36.96860885620117
  endloop
endfacet
facet normal 0.4688240587711334 -2.292270843287452e-15 -0.8832916021347046
  outer loop
    vertex 64.91565704345703 51.88770294189453 39.60060882568359
    vertex 64.65565490722656 58.88570404052734 39.46260833740234
    vertex 64.91565704345703 58.88570404052734 39.60060882568359
  endloop
endfacet
facet normal 0.4688240587711334 -2.292270843287452e-15 -0.8832916021347046
  outer loop
    vertex 64.65565490722656 51.88770294189453 39.46260833740234
    vertex 64.65565490722656 58.88570404052734 39.46260833740234
    vertex 64.91565704345703 51.88770294189453 39.60060882568359
  endloop
endfacet
facet normal 0.6354673504829407 2.00378455046332e-15 0.7721277475357056
  outer loop
    vertex 64.42965698242188 51.88770294189453 37.15460586547852
    vertex 64.65565490722656 58.88570404052734 36.96860885620117
    vertex 64.42965698242188 58.88570404052734 37.15460586547852
  endloop
endfacet
facet normal 0.6354673504829407 2.006335178425739e-15 0.7721277475357056
  outer loop
    vertex 64.65565490722656 51.88770294189453 36.96860885620117
    vertex 64.65565490722656 58.88570404052734 36.96860885620117
    vertex 64.42965698242188 51.88770294189453 37.15460586547852
  endloop
endfacet
facet normal 0.6395152807235718 -1.997632126650938e-15 -0.768778383731842
  outer loop
    vertex 64.65565490722656 51.88770294189453 39.46260833740234
    vertex 64.42965698242188 58.88570404052734 39.27460861206055
    vertex 64.65565490722656 58.88570404052734 39.46260833740234
  endloop
endfacet
facet normal 0.6395152807235718 -1.997632126650938e-15 -0.768778383731842
  outer loop
    vertex 64.42965698242188 51.88770294189453 39.27460861206055
    vertex 64.42965698242188 58.88570404052734 39.27460861206055
    vertex 64.65565490722656 51.88770294189453 39.46260833740234
  endloop
endfacet
facet normal 0.7721272110939026 1.649132384843536e-15 0.6354679465293884
  outer loop
    vertex 64.24365234375 51.88770294189453 37.38060760498047
    vertex 64.42965698242188 58.88570404052734 37.15460586547852
    vertex 64.24365234375 58.88570404052734 37.38060760498047
  endloop
endfacet
facet normal 0.7721272110939026 1.649132384843536e-15 0.6354679465293884
  outer loop
    vertex 64.24365234375 51.88770294189453 37.38060760498047
    vertex 64.42965698242188 51.88770294189453 37.15460586547852
    vertex 64.42965698242188 58.88570404052734 37.15460586547852
  endloop
endfacet
facet normal 0.7721272110939026 -1.649132384843536e-15 -0.6354679465293884
  outer loop
    vertex 64.42965698242188 51.88770294189453 39.27460861206055
    vertex 64.24365234375 58.88570404052734 39.04860687255859
    vertex 64.42965698242188 58.88570404052734 39.27460861206055
  endloop
endfacet
facet normal 0.7721272110939026 -1.649132384843536e-15 -0.6354679465293884
  outer loop
    vertex 64.42965698242188 51.88770294189453 39.27460861206055
    vertex 64.24365234375 51.88770294189453 39.04860687255859
    vertex 64.24365234375 58.88570404052734 39.04860687255859
  endloop
endfacet
facet normal 0.8804712891578674 1.230357495775997e-15 0.4740994572639465
  outer loop
    vertex 64.10365295410156 51.88770294189453 37.64060592651367
    vertex 64.24365234375 58.88570404052734 37.38060760498047
    vertex 64.10365295410156 58.88570404052734 37.64060592651367
  endloop
endfacet
facet normal 0.8804712891578674 1.230357495775997e-15 0.4740994572639465
  outer loop
    vertex 64.10365295410156 51.88770294189453 37.64060592651367
    vertex 64.24365234375 51.88770294189453 37.38060760498047
    vertex 64.24365234375 58.88570404052734 37.38060760498047
  endloop
endfacet
facet normal 0.8804712891578674 -1.230357495775997e-15 -0.4740994572639465
  outer loop
    vertex 64.24365234375 51.88770294189453 39.04860687255859
    vertex 64.10365295410156 58.88570404052734 38.78860855102539
    vertex 64.24365234375 58.88570404052734 39.04860687255859
  endloop
endfacet
facet normal 0.8804712891578674 -1.230357495775997e-15 -0.4740994572639465
  outer loop
    vertex 64.24365234375 51.88770294189453 39.04860687255859
    vertex 64.10365295410156 51.88770294189453 38.78860855102539
    vertex 64.10365295410156 58.88570404052734 38.78860855102539
  endloop
endfacet
facet normal 0.958385705947876 7.408532909699151e-16 0.2854765057563782
  outer loop
    vertex 64.0196533203125 51.88770294189453 37.922607421875
    vertex 64.10365295410156 58.88570404052734 37.64060592651367
    vertex 64.0196533203125 58.88570404052734 37.922607421875
  endloop
endfacet
facet normal 0.958385705947876 7.408532909699151e-16 0.2854765057563782
  outer loop
    vertex 64.0196533203125 51.88770294189453 37.922607421875
    vertex 64.10365295410156 51.88770294189453 37.64060592651367
    vertex 64.10365295410156 58.88570404052734 37.64060592651367
  endloop
endfacet
facet normal 0.958385705947876 -7.408532909699151e-16 -0.2854765057563782
  outer loop
    vertex 64.10365295410156 51.88770294189453 38.78860855102539
    vertex 64.0196533203125 58.88570404052734 38.50660705566406
    vertex 64.10365295410156 58.88570404052734 38.78860855102539
  endloop
endfacet
facet normal 0.958385705947876 -7.408532909699151e-16 -0.2854765057563782
  outer loop
    vertex 64.10365295410156 51.88770294189453 38.78860855102539
    vertex 64.0196533203125 51.88770294189453 38.50660705566406
    vertex 64.0196533203125 58.88570404052734 38.50660705566406
  endloop
endfacet
facet normal 0.9947636723518372 2.652284092188645e-16 0.1022017151117325
  outer loop
    vertex 63.98965454101563 51.88770294189453 38.21460723876953
    vertex 64.0196533203125 58.88570404052734 37.922607421875
    vertex 63.98965454101563 58.88570404052734 38.21460723876953
  endloop
endfacet
facet normal 0.9947636723518372 2.657205618309988e-16 0.1022017151117325
  outer loop
    vertex 63.98965454101563 51.88770294189453 38.21460723876953
    vertex 64.0196533203125 51.88770294189453 37.922607421875
    vertex 64.0196533203125 58.88570404052734 37.922607421875
  endloop
endfacet
facet normal 0.9947636723518372 -2.652284092188645e-16 -0.1022017151117325
  outer loop
    vertex 64.0196533203125 51.88770294189453 38.50660705566406
    vertex 63.98965454101563 58.88570404052734 38.21460723876953
    vertex 64.0196533203125 58.88570404052734 38.50660705566406
  endloop
endfacet
facet normal 0.9947636723518372 -2.652284092188645e-16 -0.1022017151117325
  outer loop
    vertex 64.0196533203125 51.88770294189453 38.50660705566406
    vertex 63.98965454101563 51.88770294189453 38.21460723876953
    vertex 63.98965454101563 58.88570404052734 38.21460723876953
  endloop
endfacet
facet normal 0 1 -2.595146320061303e-15
  outer loop
    vertex 68.28965759277344 58.88570404052734 40.21460723876953
    vertex 66.98965454101563 58.88570404052734 50.21460723876953
    vertex 68.28965759277344 58.88570404052734 49.21460723876953
  endloop
endfacet
facet normal 0 -1 2.595146320061303e-15
  outer loop
    vertex 68.28965759277344 51.88770294189453 49.21460723876953
    vertex 66.54965209960938 51.88770294189453 49.15460586547852
    vertex 68.28965759277344 51.88770294189453 47.71460723876953
  endloop
endfacet
facet normal 0 -1 2.595146320061303e-15
  outer loop
    vertex 68.28965759277344 51.88770294189453 53.21460723876953
    vertex 66.73765563964844 51.88770294189453 51.04860687255859
    vertex 68.28965759277344 51.88770294189453 49.21460723876953
  endloop
endfacet
facet normal 0 -1 2.595146320061303e-15
  outer loop
    vertex 68.28965759277344 51.88770294189453 49.21460723876953
    vertex 66.73765563964844 51.88770294189453 49.38060760498047
    vertex 66.54965209960938 51.88770294189453 49.15460586547852
  endloop
endfacet
facet normal 0 -1 2.595146320061303e-15
  outer loop
    vertex 68.28965759277344 51.88770294189453 53.21460723876953
    vertex 66.54965209960938 51.88770294189453 51.27460861206055
    vertex 66.73765563964844 51.88770294189453 51.04860687255859
  endloop
endfacet
facet normal 0 -1 2.595146320061303e-15
  outer loop
    vertex 68.28965759277344 51.88770294189453 49.21460723876953
    vertex 66.87565612792969 51.88770294189453 49.64060592651367
    vertex 66.73765563964844 51.88770294189453 49.38060760498047
  endloop
endfacet
facet normal 0 -1 2.595146320061303e-15
  outer loop
    vertex 68.28965759277344 51.88770294189453 49.21460723876953
    vertex 66.73765563964844 51.88770294189453 51.04860687255859
    vertex 66.87565612792969 51.88770294189453 50.78860855102539
  endloop
endfacet
facet normal 0 -1 2.595146320061303e-15
  outer loop
    vertex 68.28965759277344 51.88770294189453 49.21460723876953
    vertex 66.96165466308594 51.88770294189453 49.922607421875
    vertex 66.87565612792969 51.88770294189453 49.64060592651367
  endloop
endfacet
facet normal 0 -1 2.595146320061303e-15
  outer loop
    vertex 68.28965759277344 51.88770294189453 49.21460723876953
    vertex 66.87565612792969 51.88770294189453 50.78860855102539
    vertex 66.96165466308594 51.88770294189453 50.50660705566406
  endloop
endfacet
facet normal 0 -1 2.595146320061303e-15
  outer loop
    vertex 68.28965759277344 51.88770294189453 49.21460723876953
    vertex 66.98965454101563 51.88770294189453 50.21460723876953
    vertex 66.96165466308594 51.88770294189453 49.922607421875
  endloop
endfacet
facet normal 0 -1 2.595146320061303e-15
  outer loop
    vertex 68.28965759277344 51.88770294189453 49.21460723876953
    vertex 66.96165466308594 51.88770294189453 50.50660705566406
    vertex 66.98965454101563 51.88770294189453 50.21460723876953
  endloop
endfacet
facet normal 0 -1 2.595146320061303e-15
  outer loop
    vertex 68.28965759277344 51.88770294189453 40.71460723876953
    vertex 66.96165466308594 51.88770294189453 38.50660705566406
    vertex 66.98965454101563 51.88770294189453 38.21460723876953
  endloop
endfacet
facet normal 0 -1 2.595146320061303e-15
  outer loop
    vertex 68.28965759277344 51.88770294189453 40.71460723876953
    vertex 66.87565612792969 51.88770294189453 38.78860855102539
    vertex 66.96165466308594 51.88770294189453 38.50660705566406
  endloop
endfacet
facet normal 0 -1 2.595146320061303e-15
  outer loop
    vertex 65.48965454101563 51.88770294189453 48.71460723876953
    vertex 65.19765472412109 51.88770294189453 48.74460601806641
    vertex 62.68965530395508 51.88770294189453 47.71460723876953
  endloop
endfacet
facet normal 0 -1 2.595146320061303e-15
  outer loop
    vertex 64.0196533203125 51.88770294189453 49.922607421875
    vertex 63.98965454101563 51.88770294189453 50.21460723876953
    vertex 62.68965530395508 51.88770294189453 47.71460723876953
  endloop
endfacet
facet normal 0 -1 2.595146320061303e-15
  outer loop
    vertex 64.10365295410156 51.88770294189453 49.64060592651367
    vertex 64.0196533203125 51.88770294189453 49.922607421875
    vertex 62.68965530395508 51.88770294189453 47.71460723876953
  endloop
endfacet
facet normal 0 -1 2.595146320061303e-15
  outer loop
    vertex 64.24365234375 51.88770294189453 49.38060760498047
    vertex 64.10365295410156 51.88770294189453 49.64060592651367
    vertex 62.68965530395508 51.88770294189453 47.71460723876953
  endloop
endfacet
facet normal 0 -1 2.595146320061303e-15
  outer loop
    vertex 64.42965698242188 51.88770294189453 49.15460586547852
    vertex 64.24365234375 51.88770294189453 49.38060760498047
    vertex 62.68965530395508 51.88770294189453 47.71460723876953
  endloop
endfacet
facet normal 0 -1 2.595146320061303e-15
  outer loop
    vertex 64.91565704345703 51.88770294189453 48.82860565185547
    vertex 64.65565490722656 51.88770294189453 48.96860885620117
    vertex 62.68965530395508 51.88770294189453 47.71460723876953
  endloop
endfacet
facet normal 0 -1 2.595146320061303e-15
  outer loop
    vertex 68.28965759277344 51.88770294189453 40.71460723876953
    vertex 66.73765563964844 51.88770294189453 39.04860687255859
    vertex 66.87565612792969 51.88770294189453 38.78860855102539
  endloop
endfacet
facet normal 0 -1 2.595146320061303e-15
  outer loop
    vertex 64.42965698242188 51.88770294189453 51.27460861206055
    vertex 62.68965530395508 51.88770294189453 53.21460723876953
    vertex 64.24365234375 51.88770294189453 51.04860687255859
  endloop
endfacet
facet normal 0 -1 2.595146320061303e-15
  outer loop
    vertex 68.28965759277344 51.88770294189453 40.71460723876953
    vertex 66.54965209960938 51.88770294189453 39.27460861206055
    vertex 66.73765563964844 51.88770294189453 39.04860687255859
  endloop
endfacet
facet normal 0 -1 2.595146320061303e-15
  outer loop
    vertex 64.24365234375 51.88770294189453 51.04860687255859
    vertex 62.68965530395508 51.88770294189453 53.21460723876953
    vertex 64.10365295410156 51.88770294189453 50.78860855102539
  endloop
endfacet
facet normal 0 -1 2.595146320061303e-15
  outer loop
    vertex 68.28965759277344 51.88770294189453 40.71460723876953
    vertex 66.32365417480469 51.88770294189453 39.46260833740234
    vertex 66.54965209960938 51.88770294189453 39.27460861206055
  endloop
endfacet
facet normal 0 -1 2.595146320061303e-15
  outer loop
    vertex 64.10365295410156 51.88770294189453 50.78860855102539
    vertex 62.68965530395508 51.88770294189453 53.21460723876953
    vertex 64.0196533203125 51.88770294189453 50.50660705566406
  endloop
endfacet
facet normal 0 -1 2.595146320061303e-15
  outer loop
    vertex 68.28965759277344 51.88770294189453 40.71460723876953
    vertex 66.06365203857422 51.88770294189453 39.60060882568359
    vertex 66.32365417480469 51.88770294189453 39.46260833740234
  endloop
endfacet
facet normal 0 -1 2.595146320061303e-15
  outer loop
    vertex 64.0196533203125 51.88770294189453 50.50660705566406
    vertex 62.68965530395508 51.88770294189453 53.21460723876953
    vertex 63.98965454101563 51.88770294189453 50.21460723876953
  endloop
endfacet
facet normal 0 1 -2.595146320061303e-15
  outer loop
    vertex 65.19765472412109 58.88570404052734 48.74460601806641
    vertex 62.68965530395508 58.88570404052734 40.21460723876953
    vertex 64.91565704345703 58.88570404052734 48.82860565185547
  endloop
endfacet
facet normal -1 0 0
  outer loop
    vertex 62.68965530395508 58.88570404052734 53.21460723876953
    vertex 62.68965530395508 58.88570404052734 49.21460723876953
    vertex 62.68965530395508 51.88770294189453 47.71460723876953
  endloop
endfacet
facet normal 0 -1 2.595146320061303e-15
  outer loop
    vertex 63.98965454101563 51.88770294189453 50.21460723876953
    vertex 62.68965530395508 51.88770294189453 53.21460723876953
    vertex 62.68965530395508 51.88770294189453 47.71460723876953
  endloop
endfacet
facet normal 0 -1 2.595146320061303e-15
  outer loop
    vertex 64.65565490722656 51.88770294189453 48.96860885620117
    vertex 64.42965698242188 51.88770294189453 49.15460586547852
    vertex 62.68965530395508 51.88770294189453 47.71460723876953
  endloop
endfacet
facet normal 0 1 -2.595146320061303e-15
  outer loop
    vertex 64.24365234375 58.88570404052734 37.38060760498047
    vertex 62.68965530395508 58.88570404052734 35.21460723876953
    vertex 64.10365295410156 58.88570404052734 37.64060592651367
  endloop
endfacet
facet normal 0 -1 2.595146320061303e-15
  outer loop
    vertex 68.28965759277344 51.88770294189453 47.71460723876953
    vertex 66.32365417480469 51.88770294189453 48.96860885620117
    vertex 66.06365203857422 51.88770294189453 48.82860565185547
  endloop
endfacet
facet normal 1.127415225058617e-18 -0.09921461343765259 0.9950660467147827
  outer loop
    vertex 68.28965759277344 51.88770294189453 40.71460723876953
    vertex 62.68965530395508 52.56970596313477 40.78260803222656
    vertex 62.68965530395508 51.88770294189453 40.71460723876953
  endloop
endfacet
facet normal 0 -1 2.595146320061303e-15
  outer loop
    vertex 68.28965759277344 51.88770294189453 47.71460723876953
    vertex 66.06365203857422 51.88770294189453 48.82860565185547
    vertex 65.78165435791016 51.88770294189453 48.74460601806641
  endloop
endfacet
facet normal 0 -1 2.595146320061303e-15
  outer loop
    vertex 68.28965759277344 51.88770294189453 47.71460723876953
    vertex 65.48965454101563 51.88770294189453 48.71460723876953
    vertex 62.68965530395508 51.88770294189453 47.71460723876953
  endloop
endfacet
facet normal 0 -1 2.595146320061303e-15
  outer loop
    vertex 68.28965759277344 51.88770294189453 47.71460723876953
    vertex 65.78165435791016 51.88770294189453 48.74460601806641
    vertex 65.48965454101563 51.88770294189453 48.71460723876953
  endloop
endfacet
facet normal 0 -1 2.595146320061303e-15
  outer loop
    vertex 68.28965759277344 51.88770294189453 35.21460723876953
    vertex 66.98965454101563 51.88770294189453 38.21460723876953
    vertex 66.96165466308594 51.88770294189453 37.922607421875
  endloop
endfacet
endsolid 3C91
